<?xml version="1.0" encoding="UTF-8" standalone="no"?>
<!DOCTYPE svg PUBLIC "-//W3C//DTD SVG 1.1//EN"
 "http://www.w3.org/Graphics/SVG/1.1/DTD/svg11.dtd">
<!-- Generated by graphviz version 2.43.0 (0)
 -->
<!-- Title: G Pages: 1 -->
<svg width="692pt" height="228pt"
 viewBox="0.00 0.00 692.20 227.87" xmlns="http://www.w3.org/2000/svg" xmlns:xlink="http://www.w3.org/1999/xlink">
<g id="graph0" class="graph" transform="scale(1 1) rotate(0) translate(21.6 206.27)">
<title>G</title>
<polygon fill="#111111" stroke="transparent" points="-21.6,21.6 -21.6,-206.27 670.6,-206.27 670.6,21.6 -21.6,21.6"/>
<!-- ../Debug.ts -->
<g id="node1" class="node">
<title>../Debug.ts</title>
<path fill="none" stroke="#c6c5fe" d="M534.33,-125C534.33,-125 467.67,-125 467.67,-125 463.83,-125 460,-121.17 460,-117.33 460,-117.33 460,-109.67 460,-109.67 460,-105.83 463.83,-102 467.67,-102 467.67,-102 534.33,-102 534.33,-102 538.17,-102 542,-105.83 542,-109.67 542,-109.67 542,-117.33 542,-117.33 542,-121.17 538.17,-125 534.33,-125"/>
<text text-anchor="middle" x="501" y="-109.8" font-family="Arial" font-size="14.00" fill="#c6c5fe">../Debug.ts</text>
</g>
<!-- ../Error.ts -->
<g id="node2" class="node">
<title>../Error.ts</title>
<path fill="none" stroke="#cfffac" d="M641.33,-125C641.33,-125 585.67,-125 585.67,-125 581.83,-125 578,-121.17 578,-117.33 578,-117.33 578,-109.67 578,-109.67 578,-105.83 581.83,-102 585.67,-102 585.67,-102 641.33,-102 641.33,-102 645.17,-102 649,-105.83 649,-109.67 649,-109.67 649,-117.33 649,-117.33 649,-121.17 645.17,-125 641.33,-125"/>
<text text-anchor="middle" x="613.5" y="-109.8" font-family="Arial" font-size="14.00" fill="#cfffac">../Error.ts</text>
</g>
<!-- ../Debug.ts&#45;&gt;../Error.ts -->
<g id="edge1" class="edge">
<title>../Debug.ts&#45;&gt;../Error.ts</title>
<path fill="none" stroke="#757575" d="M542.21,-113.5C550.54,-113.5 559.37,-113.5 567.85,-113.5"/>
<polygon fill="#757575" stroke="#757575" points="567.97,-117 577.97,-113.5 567.97,-110 567.97,-117"/>
</g>
<!-- ../Monad.ts -->
<g id="node3" class="node">
<title>../Monad.ts</title>
<path fill="none" stroke="#cfffac" d="M210.83,-146C210.83,-146 142.17,-146 142.17,-146 138.33,-146 134.5,-142.17 134.5,-138.33 134.5,-138.33 134.5,-130.67 134.5,-130.67 134.5,-126.83 138.33,-123 142.17,-123 142.17,-123 210.83,-123 210.83,-123 214.67,-123 218.5,-126.83 218.5,-130.67 218.5,-130.67 218.5,-138.33 218.5,-138.33 218.5,-142.17 214.67,-146 210.83,-146"/>
<text text-anchor="middle" x="176.5" y="-130.8" font-family="Arial" font-size="14.00" fill="#cfffac">../Monad.ts</text>
</g>
<!-- ../Observable.ts -->
<g id="node4" class="node">
<title>../Observable.ts</title>
<path fill="none" stroke="#c6c5fe" d="M405.33,-125C405.33,-125 308.67,-125 308.67,-125 304.83,-125 301,-121.17 301,-117.33 301,-117.33 301,-109.67 301,-109.67 301,-105.83 304.83,-102 308.67,-102 308.67,-102 405.33,-102 405.33,-102 409.17,-102 413,-105.83 413,-109.67 413,-109.67 413,-117.33 413,-117.33 413,-121.17 409.17,-125 405.33,-125"/>
<text text-anchor="middle" x="357" y="-109.8" font-family="Arial" font-size="14.00" fill="#c6c5fe">../Observable.ts</text>
</g>
<!-- ../Observable.ts&#45;&gt;../Debug.ts -->
<g id="edge2" class="edge">
<title>../Observable.ts&#45;&gt;../Debug.ts</title>
<path fill="none" stroke="#757575" d="M413.31,-113.5C425.23,-113.5 437.78,-113.5 449.51,-113.5"/>
<polygon fill="#757575" stroke="#757575" points="449.57,-117 459.57,-113.5 449.57,-110 449.57,-117"/>
</g>
<!-- AttributeDirective.ts -->
<g id="node5" class="node">
<title>AttributeDirective.ts</title>
<path fill="none" stroke="#c6c5fe" d="M416.33,-84C416.33,-84 297.67,-84 297.67,-84 293.83,-84 290,-80.17 290,-76.33 290,-76.33 290,-68.67 290,-68.67 290,-64.83 293.83,-61 297.67,-61 297.67,-61 416.33,-61 416.33,-61 420.17,-61 424,-64.83 424,-68.67 424,-68.67 424,-76.33 424,-76.33 424,-80.17 420.17,-84 416.33,-84"/>
<text text-anchor="middle" x="357" y="-68.8" font-family="Arial" font-size="14.00" fill="#c6c5fe">AttributeDirective.ts</text>
</g>
<!-- AttributeDirective.ts&#45;&gt;../Error.ts -->
<g id="edge3" class="edge">
<title>AttributeDirective.ts&#45;&gt;../Error.ts</title>
<path fill="none" stroke="#757575" d="M424.4,-77.45C459.57,-80.73 503.36,-85.87 542,-93.5 550.52,-95.18 559.51,-97.39 568.12,-99.73"/>
<polygon fill="#757575" stroke="#757575" points="567.42,-103.16 577.99,-102.5 569.31,-96.42 567.42,-103.16"/>
</g>
<!-- HandleClickDirective.ts -->
<g id="node6" class="node">
<title>HandleClickDirective.ts</title>
<path fill="none" stroke="#c6c5fe" d="M246.33,-105C246.33,-105 106.67,-105 106.67,-105 102.83,-105 99,-101.17 99,-97.33 99,-97.33 99,-89.67 99,-89.67 99,-85.83 102.83,-82 106.67,-82 106.67,-82 246.33,-82 246.33,-82 250.17,-82 254,-85.83 254,-89.67 254,-89.67 254,-97.33 254,-97.33 254,-101.17 250.17,-105 246.33,-105"/>
<text text-anchor="middle" x="176.5" y="-89.8" font-family="Arial" font-size="14.00" fill="#c6c5fe">HandleClickDirective.ts</text>
</g>
<!-- HandleClickDirective.ts&#45;&gt;../Observable.ts -->
<g id="edge4" class="edge">
<title>HandleClickDirective.ts&#45;&gt;../Observable.ts</title>
<path fill="none" stroke="#757575" d="M254.24,-102.1C266.37,-103.46 278.81,-104.85 290.65,-106.18"/>
<polygon fill="#757575" stroke="#757575" points="290.55,-109.69 300.88,-107.32 291.33,-102.73 290.55,-109.69"/>
</g>
<!-- HandleClickDirective.ts&#45;&gt;AttributeDirective.ts -->
<g id="edge5" class="edge">
<title>HandleClickDirective.ts&#45;&gt;AttributeDirective.ts</title>
<path fill="none" stroke="#757575" d="M254.24,-84.47C262.79,-83.47 271.51,-82.44 280.05,-81.43"/>
<polygon fill="#757575" stroke="#757575" points="280.47,-84.91 289.99,-80.27 279.65,-77.96 280.47,-84.91"/>
</g>
<!-- Island.ts -->
<g id="node7" class="node">
<title>Island.ts</title>
<path fill="none" stroke="#cfffac" d="M202.33,-64C202.33,-64 150.67,-64 150.67,-64 146.83,-64 143,-60.17 143,-56.33 143,-56.33 143,-48.67 143,-48.67 143,-44.83 146.83,-41 150.67,-41 150.67,-41 202.33,-41 202.33,-41 206.17,-41 210,-44.83 210,-48.67 210,-48.67 210,-56.33 210,-56.33 210,-60.17 206.17,-64 202.33,-64"/>
<text text-anchor="middle" x="176.5" y="-48.8" font-family="Arial" font-size="14.00" fill="#cfffac">Island.ts</text>
</g>
<!-- ShowDirective.ts -->
<g id="node8" class="node">
<title>ShowDirective.ts</title>
<path fill="none" stroke="#c6c5fe" d="M227.33,-23C227.33,-23 125.67,-23 125.67,-23 121.83,-23 118,-19.17 118,-15.33 118,-15.33 118,-7.67 118,-7.67 118,-3.83 121.83,0 125.67,0 125.67,0 227.33,0 227.33,0 231.17,0 235,-3.83 235,-7.67 235,-7.67 235,-15.33 235,-15.33 235,-19.17 231.17,-23 227.33,-23"/>
<text text-anchor="middle" x="176.5" y="-7.8" font-family="Arial" font-size="14.00" fill="#c6c5fe">ShowDirective.ts</text>
</g>
<!-- ShowDirective.ts&#45;&gt;AttributeDirective.ts -->
<g id="edge6" class="edge">
<title>ShowDirective.ts&#45;&gt;AttributeDirective.ts</title>
<path fill="none" stroke="#757575" d="M225.52,-23.06C235.02,-25.63 244.88,-28.49 254,-31.5 276.48,-38.92 301.12,-48.78 320.55,-56.97"/>
<polygon fill="#757575" stroke="#757575" points="319.35,-60.26 329.92,-60.95 322.09,-53.82 319.35,-60.26"/>
</g>
<!-- index.ts -->
<g id="node9" class="node">
<title>index.ts</title>
<path fill="none" stroke="#c6c5fe" d="M55.33,-105C55.33,-105 7.67,-105 7.67,-105 3.83,-105 0,-101.17 0,-97.33 0,-97.33 0,-89.67 0,-89.67 0,-85.83 3.83,-82 7.67,-82 7.67,-82 55.33,-82 55.33,-82 59.17,-82 63,-85.83 63,-89.67 63,-89.67 63,-97.33 63,-97.33 63,-101.17 59.17,-105 55.33,-105"/>
<text text-anchor="middle" x="31.5" y="-89.8" font-family="Arial" font-size="14.00" fill="#c6c5fe">index.ts</text>
</g>
<!-- index.ts&#45;&gt;../Error.ts -->
<g id="edge7" class="edge">
<title>index.ts&#45;&gt;../Error.ts</title>
<path fill="none" stroke="#757575" d="M40.54,-105.15C51.66,-120.12 73.3,-145.38 99,-155.5 264.68,-220.75 483.21,-159.12 572.2,-128.48"/>
<polygon fill="#757575" stroke="#757575" points="573.62,-131.7 581.9,-125.09 571.31,-125.09 573.62,-131.7"/>
</g>
<!-- index.ts&#45;&gt;../Monad.ts -->
<g id="edge8" class="edge">
<title>index.ts&#45;&gt;../Monad.ts</title>
<path fill="none" stroke="#757575" d="M63.19,-103.55C74.42,-107.13 87.25,-111.11 99,-114.5 107.15,-116.85 115.83,-119.23 124.3,-121.49"/>
<polygon fill="#757575" stroke="#757575" points="123.54,-124.91 134.11,-124.08 125.33,-118.15 123.54,-124.91"/>
</g>
<!-- index.ts&#45;&gt;HandleClickDirective.ts -->
<g id="edge9" class="edge">
<title>index.ts&#45;&gt;HandleClickDirective.ts</title>
<path fill="none" stroke="#757575" d="M63.18,-93.5C70.87,-93.5 79.51,-93.5 88.49,-93.5"/>
<polygon fill="#757575" stroke="#757575" points="88.75,-97 98.75,-93.5 88.75,-90 88.75,-97"/>
</g>
<!-- index.ts&#45;&gt;Island.ts -->
<g id="edge10" class="edge">
<title>index.ts&#45;&gt;Island.ts</title>
<path fill="none" stroke="#757575" d="M63.19,-83.45C74.42,-79.87 87.25,-75.89 99,-72.5 109.91,-69.35 121.75,-66.15 132.78,-63.26"/>
<polygon fill="#757575" stroke="#757575" points="133.84,-66.6 142.64,-60.71 132.08,-59.83 133.84,-66.6"/>
</g>
<!-- index.ts&#45;&gt;ShowDirective.ts -->
<g id="edge11" class="edge">
<title>index.ts&#45;&gt;ShowDirective.ts</title>
<path fill="none" stroke="#757575" d="M42.01,-81.59C53.88,-67.53 75.49,-44.44 99,-31.5 102.1,-29.79 105.35,-28.23 108.69,-26.79"/>
<polygon fill="#757575" stroke="#757575" points="110.23,-29.95 118.3,-23.08 107.71,-23.42 110.23,-29.95"/>
</g>
</g>
</svg>
