<?xml version="1.0" encoding="UTF-8" standalone="no"?>
<!DOCTYPE svg PUBLIC "-//W3C//DTD SVG 1.1//EN"
 "http://www.w3.org/Graphics/SVG/1.1/DTD/svg11.dtd">
<!-- Generated by graphviz version 2.43.0 (0)
 -->
<!-- Title: G Pages: 1 -->
<svg width="1419pt" height="608pt"
 viewBox="0.00 0.00 1419.20 607.70" xmlns="http://www.w3.org/2000/svg" xmlns:xlink="http://www.w3.org/1999/xlink">
<g id="graph0" class="graph" transform="scale(1 1) rotate(0) translate(21.6 586.1)">
<title>G</title>
<polygon fill="#111111" stroke="transparent" points="-21.6,21.6 -21.6,-586.1 1397.6,-586.1 1397.6,21.6 -21.6,21.6"/>
<!-- ../Component.ts -->
<g id="node1" class="node">
<title>../Component.ts</title>
<path fill="none" stroke="#c6c5fe" d="M738.33,-167.5C738.33,-167.5 640.67,-167.5 640.67,-167.5 636.83,-167.5 633,-163.67 633,-159.83 633,-159.83 633,-152.17 633,-152.17 633,-148.33 636.83,-144.5 640.67,-144.5 640.67,-144.5 738.33,-144.5 738.33,-144.5 742.17,-144.5 746,-148.33 746,-152.17 746,-152.17 746,-159.83 746,-159.83 746,-163.67 742.17,-167.5 738.33,-167.5"/>
<text text-anchor="middle" x="689.5" y="-152.3" font-family="Arial" font-size="14.00" fill="#c6c5fe">../Component.ts</text>
</g>
<!-- ../Debug.ts -->
<g id="node2" class="node">
<title>../Debug.ts</title>
<path fill="none" stroke="#c6c5fe" d="M1261.33,-205.5C1261.33,-205.5 1194.67,-205.5 1194.67,-205.5 1190.83,-205.5 1187,-201.67 1187,-197.83 1187,-197.83 1187,-190.17 1187,-190.17 1187,-186.33 1190.83,-182.5 1194.67,-182.5 1194.67,-182.5 1261.33,-182.5 1261.33,-182.5 1265.17,-182.5 1269,-186.33 1269,-190.17 1269,-190.17 1269,-197.83 1269,-197.83 1269,-201.67 1265.17,-205.5 1261.33,-205.5"/>
<text text-anchor="middle" x="1228" y="-190.3" font-family="Arial" font-size="14.00" fill="#c6c5fe">../Debug.ts</text>
</g>
<!-- ../Component.ts&#45;&gt;../Debug.ts -->
<g id="edge1" class="edge">
<title>../Component.ts&#45;&gt;../Debug.ts</title>
<path fill="none" stroke="#757575" d="M746.03,-165.39C757.88,-167.14 770.33,-168.8 782,-170 924.63,-184.72 1093.96,-190.71 1176.59,-192.89"/>
<polygon fill="#757575" stroke="#757575" points="1176.62,-196.39 1186.7,-193.15 1176.8,-189.39 1176.62,-196.39"/>
</g>
<!-- ../Entity.ts -->
<g id="node3" class="node">
<title>../Entity.ts</title>
<path fill="none" stroke="#cfffac" d="M884.83,-89.5C884.83,-89.5 825.17,-89.5 825.17,-89.5 821.33,-89.5 817.5,-85.67 817.5,-81.83 817.5,-81.83 817.5,-74.17 817.5,-74.17 817.5,-70.33 821.33,-66.5 825.17,-66.5 825.17,-66.5 884.83,-66.5 884.83,-66.5 888.67,-66.5 892.5,-70.33 892.5,-74.17 892.5,-74.17 892.5,-81.83 892.5,-81.83 892.5,-85.67 888.67,-89.5 884.83,-89.5"/>
<text text-anchor="middle" x="855" y="-74.3" font-family="Arial" font-size="14.00" fill="#cfffac">../Entity.ts</text>
</g>
<!-- ../Component.ts&#45;&gt;../Entity.ts -->
<g id="edge2" class="edge">
<title>../Component.ts&#45;&gt;../Entity.ts</title>
<path fill="none" stroke="#757575" d="M708.59,-144.5C726.71,-133.27 755.61,-116.15 782,-104 790.51,-100.08 799.79,-96.35 808.78,-93"/>
<polygon fill="#757575" stroke="#757575" points="810.16,-96.22 818.36,-89.52 807.77,-89.64 810.16,-96.22"/>
</g>
<!-- ../Error.ts -->
<g id="node4" class="node">
<title>../Error.ts</title>
<path fill="none" stroke="#cfffac" d="M1368.33,-285.5C1368.33,-285.5 1312.67,-285.5 1312.67,-285.5 1308.83,-285.5 1305,-281.67 1305,-277.83 1305,-277.83 1305,-270.17 1305,-270.17 1305,-266.33 1308.83,-262.5 1312.67,-262.5 1312.67,-262.5 1368.33,-262.5 1368.33,-262.5 1372.17,-262.5 1376,-266.33 1376,-270.17 1376,-270.17 1376,-277.83 1376,-277.83 1376,-281.67 1372.17,-285.5 1368.33,-285.5"/>
<text text-anchor="middle" x="1340.5" y="-270.3" font-family="Arial" font-size="14.00" fill="#cfffac">../Error.ts</text>
</g>
<!-- ../Component.ts&#45;&gt;../Error.ts -->
<g id="edge3" class="edge">
<title>../Component.ts&#45;&gt;../Error.ts</title>
<path fill="none" stroke="#757575" d="M746.22,-145.64C833.25,-131.16 1006.46,-109.17 1151,-133 1205.64,-142.01 1224.72,-139.75 1269,-173 1297.3,-194.25 1318.48,-230.24 1329.91,-253.03"/>
<polygon fill="#757575" stroke="#757575" points="1326.83,-254.71 1334.34,-262.19 1333.14,-251.66 1326.83,-254.71"/>
</g>
<!-- ../Observable.ts -->
<g id="node5" class="node">
<title>../Observable.ts</title>
<path fill="none" stroke="#c6c5fe" d="M1105.83,-165.5C1105.83,-165.5 1009.17,-165.5 1009.17,-165.5 1005.33,-165.5 1001.5,-161.67 1001.5,-157.83 1001.5,-157.83 1001.5,-150.17 1001.5,-150.17 1001.5,-146.33 1005.33,-142.5 1009.17,-142.5 1009.17,-142.5 1105.83,-142.5 1105.83,-142.5 1109.67,-142.5 1113.5,-146.33 1113.5,-150.17 1113.5,-150.17 1113.5,-157.83 1113.5,-157.83 1113.5,-161.67 1109.67,-165.5 1105.83,-165.5"/>
<text text-anchor="middle" x="1057.5" y="-150.3" font-family="Arial" font-size="14.00" fill="#c6c5fe">../Observable.ts</text>
</g>
<!-- ../Component.ts&#45;&gt;../Observable.ts -->
<g id="edge4" class="edge">
<title>../Component.ts&#45;&gt;../Observable.ts</title>
<path fill="none" stroke="#757575" d="M746.09,-155.7C811.81,-155.34 921.04,-154.74 990.86,-154.36"/>
<polygon fill="#757575" stroke="#757575" points="991.31,-157.86 1001.29,-154.3 991.27,-150.86 991.31,-157.86"/>
</g>
<!-- ../Debug.ts&#45;&gt;../Error.ts -->
<g id="edge5" class="edge">
<title>../Debug.ts&#45;&gt;../Error.ts</title>
<path fill="none" stroke="#757575" d="M1245.3,-205.8C1263.77,-219.17 1294.05,-241.1 1315.28,-256.47"/>
<polygon fill="#757575" stroke="#757575" points="1313.34,-259.38 1323.49,-262.41 1317.44,-253.71 1313.34,-259.38"/>
</g>
<!-- ../Observable.ts&#45;&gt;../Debug.ts -->
<g id="edge19" class="edge">
<title>../Observable.ts&#45;&gt;../Debug.ts</title>
<path fill="none" stroke="#757575" d="M1107.24,-165.57C1129.15,-170.77 1154.99,-176.91 1177.05,-182.14"/>
<polygon fill="#757575" stroke="#757575" points="1176.35,-185.57 1186.89,-184.48 1177.97,-178.76 1176.35,-185.57"/>
</g>
<!-- ../HeadingDirection.ts -->
<g id="node6" class="node">
<title>../HeadingDirection.ts</title>
<path fill="none" stroke="#c6c5fe" d="M920.33,-525.5C920.33,-525.5 789.67,-525.5 789.67,-525.5 785.83,-525.5 782,-521.67 782,-517.83 782,-517.83 782,-510.17 782,-510.17 782,-506.33 785.83,-502.5 789.67,-502.5 789.67,-502.5 920.33,-502.5 920.33,-502.5 924.17,-502.5 928,-506.33 928,-510.17 928,-510.17 928,-517.83 928,-517.83 928,-521.67 924.17,-525.5 920.33,-525.5"/>
<text text-anchor="middle" x="855" y="-510.3" font-family="Arial" font-size="14.00" fill="#c6c5fe">../HeadingDirection.ts</text>
</g>
<!-- ../HeadingDirection.ts&#45;&gt;../Error.ts -->
<g id="edge6" class="edge">
<title>../HeadingDirection.ts&#45;&gt;../Error.ts</title>
<path fill="none" stroke="#757575" d="M924.92,-525.54C1016.84,-536.62 1178.49,-540.34 1269,-450 1312.7,-406.38 1330.21,-332.18 1336.45,-295.64"/>
<polygon fill="#757575" stroke="#757575" points="1339.94,-296.01 1338.04,-285.59 1333.02,-294.92 1339.94,-296.01"/>
</g>
<!-- ../units/convert.ts -->
<g id="node7" class="node">
<title>../units/convert.ts</title>
<path fill="none" stroke="#cfffac" d="M1109.33,-487.5C1109.33,-487.5 1005.67,-487.5 1005.67,-487.5 1001.83,-487.5 998,-483.67 998,-479.83 998,-479.83 998,-472.17 998,-472.17 998,-468.33 1001.83,-464.5 1005.67,-464.5 1005.67,-464.5 1109.33,-464.5 1109.33,-464.5 1113.17,-464.5 1117,-468.33 1117,-472.17 1117,-472.17 1117,-479.83 1117,-479.83 1117,-483.67 1113.17,-487.5 1109.33,-487.5"/>
<text text-anchor="middle" x="1057.5" y="-472.3" font-family="Arial" font-size="14.00" fill="#cfffac">../units/convert.ts</text>
</g>
<!-- ../HeadingDirection.ts&#45;&gt;../units/convert.ts -->
<g id="edge7" class="edge">
<title>../HeadingDirection.ts&#45;&gt;../units/convert.ts</title>
<path fill="none" stroke="#757575" d="M916.7,-502.5C939.09,-498.25 964.61,-493.41 987.67,-489.04"/>
<polygon fill="#757575" stroke="#757575" points="988.55,-492.44 997.73,-487.14 987.25,-485.56 988.55,-492.44"/>
</g>
<!-- ../Input.ts -->
<g id="node8" class="node">
<title>../Input.ts</title>
<path fill="none" stroke="#cfffac" d="M883.33,-484.5C883.33,-484.5 826.67,-484.5 826.67,-484.5 822.83,-484.5 819,-480.67 819,-476.83 819,-476.83 819,-469.17 819,-469.17 819,-465.33 822.83,-461.5 826.67,-461.5 826.67,-461.5 883.33,-461.5 883.33,-461.5 887.17,-461.5 891,-465.33 891,-469.17 891,-469.17 891,-476.83 891,-476.83 891,-480.67 887.17,-484.5 883.33,-484.5"/>
<text text-anchor="middle" x="855" y="-469.3" font-family="Arial" font-size="14.00" fill="#cfffac">../Input.ts</text>
</g>
<!-- ../Log.ts -->
<g id="node9" class="node">
<title>../Log.ts</title>
<path fill="none" stroke="#c6c5fe" d="M879.83,-303.5C879.83,-303.5 830.17,-303.5 830.17,-303.5 826.33,-303.5 822.5,-299.67 822.5,-295.83 822.5,-295.83 822.5,-288.17 822.5,-288.17 822.5,-284.33 826.33,-280.5 830.17,-280.5 830.17,-280.5 879.83,-280.5 879.83,-280.5 883.67,-280.5 887.5,-284.33 887.5,-288.17 887.5,-288.17 887.5,-295.83 887.5,-295.83 887.5,-299.67 883.67,-303.5 879.83,-303.5"/>
<text text-anchor="middle" x="855" y="-288.3" font-family="Arial" font-size="14.00" fill="#c6c5fe">../Log.ts</text>
</g>
<!-- ../Log.ts&#45;&gt;../Error.ts -->
<g id="edge8" class="edge">
<title>../Log.ts&#45;&gt;../Error.ts</title>
<path fill="none" stroke="#757575" d="M887.72,-290.82C971.34,-287.71 1197.95,-279.27 1294.72,-275.67"/>
<polygon fill="#757575" stroke="#757575" points="1294.9,-279.16 1304.76,-275.29 1294.64,-272.17 1294.9,-279.16"/>
</g>
<!-- ../Log.ts&#45;&gt;../Observable.ts -->
<g id="edge9" class="edge">
<title>../Log.ts&#45;&gt;../Observable.ts</title>
<path fill="none" stroke="#757575" d="M871.16,-280.44C891.86,-264.76 930.25,-236.07 964,-213 985.49,-198.31 1010.39,-182.49 1028.94,-170.94"/>
<polygon fill="#757575" stroke="#757575" points="1030.84,-173.88 1037.49,-165.63 1027.15,-167.93 1030.84,-173.88"/>
</g>
<!-- ../collections/InstanceMap.ts -->
<g id="node10" class="node">
<title>../collections/InstanceMap.ts</title>
<path fill="none" stroke="#cfffac" d="M1143.33,-245.5C1143.33,-245.5 971.67,-245.5 971.67,-245.5 967.83,-245.5 964,-241.67 964,-237.83 964,-237.83 964,-230.17 964,-230.17 964,-226.33 967.83,-222.5 971.67,-222.5 971.67,-222.5 1143.33,-222.5 1143.33,-222.5 1147.17,-222.5 1151,-226.33 1151,-230.17 1151,-230.17 1151,-237.83 1151,-237.83 1151,-241.67 1147.17,-245.5 1143.33,-245.5"/>
<text text-anchor="middle" x="1057.5" y="-230.3" font-family="Arial" font-size="14.00" fill="#cfffac">../collections/InstanceMap.ts</text>
</g>
<!-- ../Log.ts&#45;&gt;../collections/InstanceMap.ts -->
<g id="edge10" class="edge">
<title>../Log.ts&#45;&gt;../collections/InstanceMap.ts</title>
<path fill="none" stroke="#757575" d="M887.63,-282.5C909.14,-276.07 938.26,-267.43 964,-260 977.28,-256.17 991.66,-252.09 1005.03,-248.33"/>
<polygon fill="#757575" stroke="#757575" points="1006.34,-251.6 1015.02,-245.52 1004.45,-244.86 1006.34,-251.6"/>
</g>
<!-- ../functions/Array.ts -->
<g id="node11" class="node">
<title>../functions/Array.ts</title>
<path fill="none" stroke="#cfffac" d="M1115.33,-407.5C1115.33,-407.5 999.67,-407.5 999.67,-407.5 995.83,-407.5 992,-403.67 992,-399.83 992,-399.83 992,-392.17 992,-392.17 992,-388.33 995.83,-384.5 999.67,-384.5 999.67,-384.5 1115.33,-384.5 1115.33,-384.5 1119.17,-384.5 1123,-388.33 1123,-392.17 1123,-392.17 1123,-399.83 1123,-399.83 1123,-403.67 1119.17,-407.5 1115.33,-407.5"/>
<text text-anchor="middle" x="1057.5" y="-392.3" font-family="Arial" font-size="14.00" fill="#cfffac">../functions/Array.ts</text>
</g>
<!-- ../Log.ts&#45;&gt;../functions/Array.ts -->
<g id="edge11" class="edge">
<title>../Log.ts&#45;&gt;../functions/Array.ts</title>
<path fill="none" stroke="#757575" d="M867.13,-303.51C885.51,-321.82 924.19,-357.4 964,-376 969.67,-378.65 975.69,-380.95 981.85,-382.95"/>
<polygon fill="#757575" stroke="#757575" points="981,-386.35 991.59,-385.85 983,-379.64 981,-386.35"/>
</g>
<!-- ../functions/Map.ts -->
<g id="node12" class="node">
<title>../functions/Map.ts</title>
<path fill="none" stroke="#cfffac" d="M1113.33,-366.5C1113.33,-366.5 1001.67,-366.5 1001.67,-366.5 997.83,-366.5 994,-362.67 994,-358.83 994,-358.83 994,-351.17 994,-351.17 994,-347.33 997.83,-343.5 1001.67,-343.5 1001.67,-343.5 1113.33,-343.5 1113.33,-343.5 1117.17,-343.5 1121,-347.33 1121,-351.17 1121,-351.17 1121,-358.83 1121,-358.83 1121,-362.67 1117.17,-366.5 1113.33,-366.5"/>
<text text-anchor="middle" x="1057.5" y="-351.3" font-family="Arial" font-size="14.00" fill="#cfffac">../functions/Map.ts</text>
</g>
<!-- ../Log.ts&#45;&gt;../functions/Map.ts -->
<g id="edge12" class="edge">
<title>../Log.ts&#45;&gt;../functions/Map.ts</title>
<path fill="none" stroke="#757575" d="M882.69,-303.65C904.31,-312.78 935.72,-325.34 964,-334 972.24,-336.52 980.97,-338.89 989.65,-341.06"/>
<polygon fill="#757575" stroke="#757575" points="988.86,-344.47 999.41,-343.43 990.51,-337.67 988.86,-344.47"/>
</g>
<!-- ../functions/Set.ts -->
<g id="node13" class="node">
<title>../functions/Set.ts</title>
<path fill="none" stroke="#cfffac" d="M1109.83,-325.5C1109.83,-325.5 1005.17,-325.5 1005.17,-325.5 1001.33,-325.5 997.5,-321.67 997.5,-317.83 997.5,-317.83 997.5,-310.17 997.5,-310.17 997.5,-306.33 1001.33,-302.5 1005.17,-302.5 1005.17,-302.5 1109.83,-302.5 1109.83,-302.5 1113.67,-302.5 1117.5,-306.33 1117.5,-310.17 1117.5,-310.17 1117.5,-317.83 1117.5,-317.83 1117.5,-321.67 1113.67,-325.5 1109.83,-325.5"/>
<text text-anchor="middle" x="1057.5" y="-310.3" font-family="Arial" font-size="14.00" fill="#cfffac">../functions/Set.ts</text>
</g>
<!-- ../Log.ts&#45;&gt;../functions/Set.ts -->
<g id="edge13" class="edge">
<title>../Log.ts&#45;&gt;../functions/Set.ts</title>
<path fill="none" stroke="#757575" d="M887.77,-295.49C914.39,-298.41 953.34,-302.68 987.12,-306.39"/>
<polygon fill="#757575" stroke="#757575" points="987.1,-309.91 997.42,-307.52 987.86,-302.95 987.1,-309.91"/>
</g>
<!-- ../NetworkedEntityServer.ts -->
<g id="node14" class="node">
<title>../NetworkedEntityServer.ts</title>
<path fill="none" stroke="#c6c5fe" d="M386.33,-225.5C386.33,-225.5 222.67,-225.5 222.67,-225.5 218.83,-225.5 215,-221.67 215,-217.83 215,-217.83 215,-210.17 215,-210.17 215,-206.33 218.83,-202.5 222.67,-202.5 222.67,-202.5 386.33,-202.5 386.33,-202.5 390.17,-202.5 394,-206.33 394,-210.17 394,-210.17 394,-217.83 394,-217.83 394,-221.67 390.17,-225.5 386.33,-225.5"/>
<text text-anchor="middle" x="304.5" y="-210.3" font-family="Arial" font-size="14.00" fill="#c6c5fe">../NetworkedEntityServer.ts</text>
</g>
<!-- ../NetworkedEntityServer.ts&#45;&gt;../Component.ts -->
<g id="edge14" class="edge">
<title>../NetworkedEntityServer.ts&#45;&gt;../Component.ts</title>
<path fill="none" stroke="#757575" d="M344.14,-202.46C368.56,-195.57 400.89,-187.17 430,-182 495.05,-170.44 570.3,-163.59 622.77,-159.86"/>
<polygon fill="#757575" stroke="#757575" points="623.22,-163.33 632.95,-159.15 622.73,-156.35 623.22,-163.33"/>
</g>
<!-- ../NetworkedEntityServer.ts&#45;&gt;../Error.ts -->
<g id="edge15" class="edge">
<title>../NetworkedEntityServer.ts&#45;&gt;../Error.ts</title>
<path fill="none" stroke="#757575" d="M316.15,-202.49C358.52,-158.04 520.93,0 688.5,0 688.5,0 688.5,0 1058.5,0 1169.64,0 1194.47,-52.55 1269,-135 1301.16,-170.58 1322.58,-223.52 1332.72,-252.73"/>
<polygon fill="#757575" stroke="#757575" points="1329.44,-253.97 1335.94,-262.34 1336.08,-251.74 1329.44,-253.97"/>
</g>
<!-- ../NetworkedEntityServer.ts&#45;&gt;../Log.ts -->
<g id="edge16" class="edge">
<title>../NetworkedEntityServer.ts&#45;&gt;../Log.ts</title>
<path fill="none" stroke="#757575" d="M394.35,-216.14C484.11,-219.87 626.24,-230.08 746,-258 768.27,-263.19 792.61,-270.69 812.53,-277.32"/>
<polygon fill="#757575" stroke="#757575" points="811.62,-280.71 822.22,-280.59 813.86,-274.08 811.62,-280.71"/>
</g>
<!-- ../functions/Networking.ts -->
<g id="node15" class="node">
<title>../functions/Networking.ts</title>
<path fill="none" stroke="#c6c5fe" d="M589.33,-323.5C589.33,-323.5 437.67,-323.5 437.67,-323.5 433.83,-323.5 430,-319.67 430,-315.83 430,-315.83 430,-308.17 430,-308.17 430,-304.33 433.83,-300.5 437.67,-300.5 437.67,-300.5 589.33,-300.5 589.33,-300.5 593.17,-300.5 597,-304.33 597,-308.17 597,-308.17 597,-315.83 597,-315.83 597,-319.67 593.17,-323.5 589.33,-323.5"/>
<text text-anchor="middle" x="513.5" y="-308.3" font-family="Arial" font-size="14.00" fill="#c6c5fe">../functions/Networking.ts</text>
</g>
<!-- ../NetworkedEntityServer.ts&#45;&gt;../functions/Networking.ts -->
<g id="edge17" class="edge">
<title>../NetworkedEntityServer.ts&#45;&gt;../functions/Networking.ts</title>
<path fill="none" stroke="#757575" d="M330.06,-225.63C367.02,-243.12 437.05,-276.28 478.77,-296.03"/>
<polygon fill="#757575" stroke="#757575" points="477.44,-299.27 487.97,-300.39 480.43,-292.95 477.44,-299.27"/>
</g>
<!-- ../util.ts -->
<g id="node16" class="node">
<title>../util.ts</title>
<path fill="none" stroke="#c6c5fe" d="M711.33,-361.5C711.33,-361.5 667.67,-361.5 667.67,-361.5 663.83,-361.5 660,-357.67 660,-353.83 660,-353.83 660,-346.17 660,-346.17 660,-342.33 663.83,-338.5 667.67,-338.5 667.67,-338.5 711.33,-338.5 711.33,-338.5 715.17,-338.5 719,-342.33 719,-346.17 719,-346.17 719,-353.83 719,-353.83 719,-357.67 715.17,-361.5 711.33,-361.5"/>
<text text-anchor="middle" x="689.5" y="-346.3" font-family="Arial" font-size="14.00" fill="#c6c5fe">../util.ts</text>
</g>
<!-- ../NetworkedEntityServer.ts&#45;&gt;../util.ts -->
<g id="edge18" class="edge">
<title>../NetworkedEntityServer.ts&#45;&gt;../util.ts</title>
<path fill="none" stroke="#757575" d="M372.92,-225.55C433.33,-237.35 523.49,-258.57 597,-291 621.97,-302.01 647.88,-319.37 665.72,-332.41"/>
<polygon fill="#757575" stroke="#757575" points="663.68,-335.26 673.8,-338.42 667.86,-329.64 663.68,-335.26"/>
</g>
<!-- ../functions/Networking.ts&#45;&gt;../Component.ts -->
<g id="edge24" class="edge">
<title>../functions/Networking.ts&#45;&gt;../Component.ts</title>
<path fill="none" stroke="#757575" d="M527.58,-300.27C557.56,-273.4 631.44,-207.16 667.72,-174.63"/>
<polygon fill="#757575" stroke="#757575" points="670.16,-177.14 675.27,-167.86 665.49,-171.93 670.16,-177.14"/>
</g>
<!-- ../functions/Networking.ts&#45;&gt;../Log.ts -->
<g id="edge25" class="edge">
<title>../functions/Networking.ts&#45;&gt;../Log.ts</title>
<path fill="none" stroke="#757575" d="M597.12,-307.13C665.2,-303.12 758.94,-297.6 812.32,-294.46"/>
<polygon fill="#757575" stroke="#757575" points="812.66,-297.94 822.44,-293.86 812.25,-290.95 812.66,-297.94"/>
</g>
<!-- ../functions/Networking.ts&#45;&gt;../util.ts -->
<g id="edge27" class="edge">
<title>../functions/Networking.ts&#45;&gt;../util.ts</title>
<path fill="none" stroke="#757575" d="M567.18,-323.5C593.78,-329.32 625.49,-336.24 649.82,-341.55"/>
<polygon fill="#757575" stroke="#757575" points="649.24,-345.01 659.76,-343.72 650.73,-338.17 649.24,-345.01"/>
</g>
<!-- ../constants.ts -->
<g id="node20" class="node">
<title>../constants.ts</title>
<path fill="none" stroke="#c6c5fe" d="M731.83,-524.5C731.83,-524.5 647.17,-524.5 647.17,-524.5 643.33,-524.5 639.5,-520.67 639.5,-516.83 639.5,-516.83 639.5,-509.17 639.5,-509.17 639.5,-505.33 643.33,-501.5 647.17,-501.5 647.17,-501.5 731.83,-501.5 731.83,-501.5 735.67,-501.5 739.5,-505.33 739.5,-509.17 739.5,-509.17 739.5,-516.83 739.5,-516.83 739.5,-520.67 735.67,-524.5 731.83,-524.5"/>
<text text-anchor="middle" x="689.5" y="-509.3" font-family="Arial" font-size="14.00" fill="#c6c5fe">../constants.ts</text>
</g>
<!-- ../functions/Networking.ts&#45;&gt;../constants.ts -->
<g id="edge26" class="edge">
<title>../functions/Networking.ts&#45;&gt;../constants.ts</title>
<path fill="none" stroke="#757575" d="M524.61,-323.68C553.38,-356.91 635.94,-452.29 671.68,-493.57"/>
<polygon fill="#757575" stroke="#757575" points="669.17,-496.02 678.37,-501.29 674.47,-491.44 669.17,-496.02"/>
</g>
<!-- ../util.ts&#45;&gt;../Log.ts -->
<g id="edge29" class="edge">
<title>../util.ts&#45;&gt;../Log.ts</title>
<path fill="none" stroke="#757575" d="M719.35,-339.76C745.3,-330.56 783.7,-316.94 812.86,-306.59"/>
<polygon fill="#757575" stroke="#757575" points="814.11,-309.86 822.36,-303.22 811.77,-303.27 814.11,-309.86"/>
</g>
<!-- ../Route.ts -->
<g id="node17" class="node">
<title>../Route.ts</title>
<path fill="none" stroke="#c6c5fe" d="M335.83,-484.5C335.83,-484.5 273.17,-484.5 273.17,-484.5 269.33,-484.5 265.5,-480.67 265.5,-476.83 265.5,-476.83 265.5,-469.17 265.5,-469.17 265.5,-465.33 269.33,-461.5 273.17,-461.5 273.17,-461.5 335.83,-461.5 335.83,-461.5 339.67,-461.5 343.5,-465.33 343.5,-469.17 343.5,-469.17 343.5,-476.83 343.5,-476.83 343.5,-480.67 339.67,-484.5 335.83,-484.5"/>
<text text-anchor="middle" x="304.5" y="-469.3" font-family="Arial" font-size="14.00" fill="#c6c5fe">../Route.ts</text>
</g>
<!-- ../Route.ts&#45;&gt;../util.ts -->
<g id="edge21" class="edge">
<title>../Route.ts&#45;&gt;../util.ts</title>
<path fill="none" stroke="#757575" d="M341.53,-461.43C413.74,-438.24 575.59,-386.26 649.88,-362.4"/>
<polygon fill="#757575" stroke="#757575" points="651.31,-365.62 659.76,-359.23 649.17,-358.95 651.31,-365.62"/>
</g>
<!-- ../globals.ts -->
<g id="node18" class="node">
<title>../globals.ts</title>
<path fill="none" stroke="#cfffac" d="M548.33,-484.5C548.33,-484.5 478.67,-484.5 478.67,-484.5 474.83,-484.5 471,-480.67 471,-476.83 471,-476.83 471,-469.17 471,-469.17 471,-465.33 474.83,-461.5 478.67,-461.5 478.67,-461.5 548.33,-461.5 548.33,-461.5 552.17,-461.5 556,-465.33 556,-469.17 556,-469.17 556,-476.83 556,-476.83 556,-480.67 552.17,-484.5 548.33,-484.5"/>
<text text-anchor="middle" x="513.5" y="-469.3" font-family="Arial" font-size="14.00" fill="#cfffac">../globals.ts</text>
</g>
<!-- ../Route.ts&#45;&gt;../globals.ts -->
<g id="edge20" class="edge">
<title>../Route.ts&#45;&gt;../globals.ts</title>
<path fill="none" stroke="#757575" d="M343.95,-473C376.73,-473 424.14,-473 460.33,-473"/>
<polygon fill="#757575" stroke="#757575" points="460.7,-476.5 470.7,-473 460.7,-469.5 460.7,-476.5"/>
</g>
<!-- ../common.ts -->
<g id="node19" class="node">
<title>../common.ts</title>
<path fill="none" stroke="#cfffac" d="M344.33,-403.5C344.33,-403.5 264.67,-403.5 264.67,-403.5 260.83,-403.5 257,-399.67 257,-395.83 257,-395.83 257,-388.17 257,-388.17 257,-384.33 260.83,-380.5 264.67,-380.5 264.67,-380.5 344.33,-380.5 344.33,-380.5 348.17,-380.5 352,-384.33 352,-388.17 352,-388.17 352,-395.83 352,-395.83 352,-399.67 348.17,-403.5 344.33,-403.5"/>
<text text-anchor="middle" x="304.5" y="-388.3" font-family="Arial" font-size="14.00" fill="#cfffac">../common.ts</text>
</g>
<!-- ../constants.ts&#45;&gt;../HeadingDirection.ts -->
<g id="edge22" class="edge">
<title>../constants.ts&#45;&gt;../HeadingDirection.ts</title>
<path fill="none" stroke="#757575" d="M739.56,-513.3C749.71,-513.36 760.67,-513.43 771.64,-513.5"/>
<polygon fill="#757575" stroke="#757575" points="771.68,-517 781.7,-513.56 771.73,-510 771.68,-517"/>
</g>
<!-- ../constants.ts&#45;&gt;../Input.ts -->
<g id="edge23" class="edge">
<title>../constants.ts&#45;&gt;../Input.ts</title>
<path fill="none" stroke="#757575" d="M737.79,-501.43C760.2,-495.95 786.84,-489.43 808.95,-484.02"/>
<polygon fill="#757575" stroke="#757575" points="809.88,-487.4 818.77,-481.62 808.22,-480.6 809.88,-487.4"/>
</g>
<!-- ../routes.ts -->
<g id="node21" class="node">
<title>../routes.ts</title>
<path fill="none" stroke="#c6c5fe" d="M171.33,-484.5C171.33,-484.5 106.67,-484.5 106.67,-484.5 102.83,-484.5 99,-480.67 99,-476.83 99,-476.83 99,-469.17 99,-469.17 99,-465.33 102.83,-461.5 106.67,-461.5 106.67,-461.5 171.33,-461.5 171.33,-461.5 175.17,-461.5 179,-465.33 179,-469.17 179,-469.17 179,-476.83 179,-476.83 179,-480.67 175.17,-484.5 171.33,-484.5"/>
<text text-anchor="middle" x="139" y="-469.3" font-family="Arial" font-size="14.00" fill="#c6c5fe">../routes.ts</text>
</g>
<!-- ../routes.ts&#45;&gt;../Route.ts -->
<g id="edge28" class="edge">
<title>../routes.ts&#45;&gt;../Route.ts</title>
<path fill="none" stroke="#757575" d="M179.16,-473C201.98,-473 230.93,-473 255.16,-473"/>
<polygon fill="#757575" stroke="#757575" points="255.22,-476.5 265.22,-473 255.22,-469.5 255.22,-476.5"/>
</g>
<!-- auth.ts -->
<g id="node22" class="node">
<title>auth.ts</title>
<path fill="none" stroke="#c6c5fe" d="M534.33,-564.5C534.33,-564.5 492.67,-564.5 492.67,-564.5 488.83,-564.5 485,-560.67 485,-556.83 485,-556.83 485,-549.17 485,-549.17 485,-545.33 488.83,-541.5 492.67,-541.5 492.67,-541.5 534.33,-541.5 534.33,-541.5 538.17,-541.5 542,-545.33 542,-549.17 542,-549.17 542,-556.83 542,-556.83 542,-560.67 538.17,-564.5 534.33,-564.5"/>
<text text-anchor="middle" x="513.5" y="-549.3" font-family="Arial" font-size="14.00" fill="#c6c5fe">auth.ts</text>
</g>
<!-- auth.ts&#45;&gt;../Error.ts -->
<g id="edge30" class="edge">
<title>auth.ts&#45;&gt;../Error.ts</title>
<path fill="none" stroke="#757575" d="M542.22,-553.14C600.14,-553.41 738.18,-554 854,-554 854,-554 854,-554 1058.5,-554 1156.41,-554 1202.21,-560.6 1269,-489 1321.02,-433.23 1334.69,-338.39 1338.25,-295.82"/>
<polygon fill="#757575" stroke="#757575" points="1341.75,-295.95 1338.99,-285.72 1334.77,-295.44 1341.75,-295.95"/>
</g>
<!-- auth.ts&#45;&gt;../constants.ts -->
<g id="edge31" class="edge">
<title>auth.ts&#45;&gt;../constants.ts</title>
<path fill="none" stroke="#757575" d="M542.07,-546.66C565.49,-541.28 599.91,-533.37 629.5,-526.56"/>
<polygon fill="#757575" stroke="#757575" points="630.36,-529.96 639.32,-524.31 628.79,-523.13 630.36,-529.96"/>
</g>
<!-- entity.ts -->
<g id="node23" class="node">
<title>entity.ts</title>
<path fill="none" stroke="#c6c5fe" d="M162.33,-323.5C162.33,-323.5 115.67,-323.5 115.67,-323.5 111.83,-323.5 108,-319.67 108,-315.83 108,-315.83 108,-308.17 108,-308.17 108,-304.33 111.83,-300.5 115.67,-300.5 115.67,-300.5 162.33,-300.5 162.33,-300.5 166.17,-300.5 170,-304.33 170,-308.17 170,-308.17 170,-315.83 170,-315.83 170,-319.67 166.17,-323.5 162.33,-323.5"/>
<text text-anchor="middle" x="139" y="-308.3" font-family="Arial" font-size="14.00" fill="#c6c5fe">entity.ts</text>
</g>
<!-- entity.ts&#45;&gt;../Entity.ts -->
<g id="edge32" class="edge">
<title>entity.ts&#45;&gt;../Entity.ts</title>
<path fill="none" stroke="#757575" d="M143.76,-300.24C152.2,-275.87 175.11,-219.9 215,-193 404.64,-65.13 695.12,-67.72 807.43,-74.29"/>
<polygon fill="#757575" stroke="#757575" points="807.22,-77.78 817.42,-74.91 807.66,-70.8 807.22,-77.78"/>
</g>
<!-- entity.ts&#45;&gt;../Error.ts -->
<g id="edge33" class="edge">
<title>entity.ts&#45;&gt;../Error.ts</title>
<path fill="none" stroke="#757575" d="M144.67,-323.67C154.16,-345.65 178,-392.81 215,-413 331.32,-476.49 379.98,-433 512.5,-433 512.5,-433 512.5,-433 690.5,-433 895.29,-433 958.06,-485.65 1151,-417 1223.78,-391.1 1291.36,-326.08 1322.1,-293.4"/>
<polygon fill="#757575" stroke="#757575" points="1324.88,-295.54 1329.1,-285.83 1319.74,-290.79 1324.88,-295.54"/>
</g>
<!-- entity.ts&#45;&gt;../Observable.ts -->
<g id="edge36" class="edge">
<title>entity.ts&#45;&gt;../Observable.ts</title>
<path fill="none" stroke="#757575" d="M140.67,-300.33C143.3,-265.66 155.99,-162.42 215,-110 316.7,-19.65 376.46,-38 512.5,-38 512.5,-38 512.5,-38 690.5,-38 796.39,-38 829.02,-19.38 928,-57 973.07,-74.13 1015.75,-112.22 1038.79,-135.24"/>
<polygon fill="#757575" stroke="#757575" points="1036.33,-137.73 1045.83,-142.42 1041.33,-132.83 1036.33,-137.73"/>
</g>
<!-- entity.ts&#45;&gt;../Log.ts -->
<g id="edge34" class="edge">
<title>entity.ts&#45;&gt;../Log.ts</title>
<path fill="none" stroke="#757575" d="M170.02,-309.11C222.62,-304.2 334.91,-294.44 430,-291 504.17,-288.32 522.78,-290.86 597,-291 672.81,-291.15 761.2,-291.54 812.08,-291.79"/>
<polygon fill="#757575" stroke="#757575" points="812.33,-295.29 822.35,-291.84 812.37,-288.29 812.33,-295.29"/>
</g>
<!-- entity.ts&#45;&gt;../NetworkedEntityServer.ts -->
<g id="edge35" class="edge">
<title>entity.ts&#45;&gt;../NetworkedEntityServer.ts</title>
<path fill="none" stroke="#757575" d="M154.73,-300.29C169.51,-288.82 193.15,-271.18 215,-258 231.95,-247.78 251.59,-237.83 268.06,-229.99"/>
<polygon fill="#757575" stroke="#757575" points="269.78,-233.05 277.35,-225.63 266.81,-226.71 269.78,-233.05"/>
</g>
<!-- entity.ts&#45;&gt;../functions/Networking.ts -->
<g id="edge38" class="edge">
<title>entity.ts&#45;&gt;../functions/Networking.ts</title>
<path fill="none" stroke="#757575" d="M170.17,-312C223.82,-312 337.85,-312 419.56,-312"/>
<polygon fill="#757575" stroke="#757575" points="419.87,-315.5 429.87,-312 419.87,-308.5 419.87,-315.5"/>
</g>
<!-- entity.ts&#45;&gt;../util.ts -->
<g id="edge39" class="edge">
<title>entity.ts&#45;&gt;../util.ts</title>
<path fill="none" stroke="#757575" d="M170.15,-318.58C183.78,-321.31 200.14,-324.24 215,-326 375.57,-344.97 568.5,-348.96 649.6,-349.79"/>
<polygon fill="#757575" stroke="#757575" points="649.8,-353.29 659.83,-349.88 649.87,-346.29 649.8,-353.29"/>
</g>
<!-- entity.ts&#45;&gt;../common.ts -->
<g id="edge37" class="edge">
<title>entity.ts&#45;&gt;../common.ts</title>
<path fill="none" stroke="#757575" d="M153.2,-323.65C167.52,-335.76 191.51,-354.51 215,-366 225.02,-370.9 236.14,-375.06 247.03,-378.52"/>
<polygon fill="#757575" stroke="#757575" points="246.33,-381.96 256.91,-381.5 248.35,-375.26 246.33,-381.96"/>
</g>
<!-- index.ts -->
<g id="node24" class="node">
<title>index.ts</title>
<path fill="none" stroke="#c6c5fe" d="M55.33,-504.5C55.33,-504.5 7.67,-504.5 7.67,-504.5 3.83,-504.5 0,-500.67 0,-496.83 0,-496.83 0,-489.17 0,-489.17 0,-485.33 3.83,-481.5 7.67,-481.5 7.67,-481.5 55.33,-481.5 55.33,-481.5 59.17,-481.5 63,-485.33 63,-489.17 63,-489.17 63,-496.83 63,-496.83 63,-500.67 59.17,-504.5 55.33,-504.5"/>
<text text-anchor="middle" x="31.5" y="-489.3" font-family="Arial" font-size="14.00" fill="#c6c5fe">index.ts</text>
</g>
<!-- index.ts&#45;&gt;../constants.ts -->
<g id="edge40" class="edge">
<title>index.ts&#45;&gt;../constants.ts</title>
<path fill="none" stroke="#757575" d="M63.26,-493.94C165.22,-497.05 493.29,-507.05 628.94,-511.18"/>
<polygon fill="#757575" stroke="#757575" points="629.04,-514.69 639.15,-511.5 629.26,-507.69 629.04,-514.69"/>
</g>
<!-- index.ts&#45;&gt;../routes.ts -->
<g id="edge41" class="edge">
<title>index.ts&#45;&gt;../routes.ts</title>
<path fill="none" stroke="#757575" d="M63.01,-487.22C71.15,-485.67 80.15,-483.97 89.01,-482.29"/>
<polygon fill="#757575" stroke="#757575" points="89.72,-485.71 98.89,-480.41 88.42,-478.84 89.72,-485.71"/>
</g>
<!-- index.ts&#45;&gt;auth.ts -->
<g id="edge42" class="edge">
<title>index.ts&#45;&gt;auth.ts</title>
<path fill="none" stroke="#757575" d="M50.3,-504.66C63.25,-512.48 81.49,-522.2 99,-527 233.22,-563.81 400.76,-559.83 474.58,-555.69"/>
<polygon fill="#757575" stroke="#757575" points="475,-559.17 484.78,-555.08 474.58,-552.19 475,-559.17"/>
</g>
<!-- index.ts&#45;&gt;entity.ts -->
<g id="edge43" class="edge">
<title>index.ts&#45;&gt;entity.ts</title>
<path fill="none" stroke="#757575" d="M39.26,-481.4C56.78,-451.34 103.86,-370.57 126.08,-332.45"/>
<polygon fill="#757575" stroke="#757575" points="129.15,-334.14 131.16,-323.74 123.1,-330.61 129.15,-334.14"/>
</g>
</g>
</svg>
