<?xml version="1.0" encoding="UTF-8" standalone="no"?>
<!DOCTYPE svg PUBLIC "-//W3C//DTD SVG 1.1//EN"
 "http://www.w3.org/Graphics/SVG/1.1/DTD/svg11.dtd">
<!-- Generated by graphviz version 2.43.0 (0)
 -->
<!-- Title: G Pages: 1 -->
<svg width="950pt" height="601pt"
 viewBox="0.00 0.00 950.20 601.29" xmlns="http://www.w3.org/2000/svg" xmlns:xlink="http://www.w3.org/1999/xlink">
<g id="graph0" class="graph" transform="scale(1 1) rotate(0) translate(21.6 579.69)">
<title>G</title>
<polygon fill="#111111" stroke="transparent" points="-21.6,21.6 -21.6,-579.69 928.6,-579.69 928.6,21.6 -21.6,21.6"/>
<!-- ../Debug.ts -->
<g id="node1" class="node">
<title>../Debug.ts</title>
<path fill="none" stroke="#c6c5fe" d="M666.33,-543.58C666.33,-543.58 599.67,-543.58 599.67,-543.58 595.83,-543.58 592,-539.75 592,-535.92 592,-535.92 592,-528.25 592,-528.25 592,-524.42 595.83,-520.58 599.67,-520.58 599.67,-520.58 666.33,-520.58 666.33,-520.58 670.17,-520.58 674,-524.42 674,-528.25 674,-528.25 674,-535.92 674,-535.92 674,-539.75 670.17,-543.58 666.33,-543.58"/>
<text text-anchor="middle" x="633" y="-528.38" font-family="Arial" font-size="14.00" fill="#c6c5fe">../Debug.ts</text>
</g>
<!-- ../Error.ts -->
<g id="node2" class="node">
<title>../Error.ts</title>
<path fill="none" stroke="#cfffac" d="M779.33,-403.58C779.33,-403.58 723.67,-403.58 723.67,-403.58 719.83,-403.58 716,-399.75 716,-395.92 716,-395.92 716,-388.25 716,-388.25 716,-384.42 719.83,-380.58 723.67,-380.58 723.67,-380.58 779.33,-380.58 779.33,-380.58 783.17,-380.58 787,-384.42 787,-388.25 787,-388.25 787,-395.92 787,-395.92 787,-399.75 783.17,-403.58 779.33,-403.58"/>
<text text-anchor="middle" x="751.5" y="-388.38" font-family="Arial" font-size="14.00" fill="#cfffac">../Error.ts</text>
</g>
<!-- ../Debug.ts&#45;&gt;../Error.ts -->
<g id="edge1" class="edge">
<title>../Debug.ts&#45;&gt;../Error.ts</title>
<path fill="none" stroke="#757575" d="M659.91,-520.42C666.93,-516.5 674.18,-511.68 680,-506.08 708.46,-478.73 730.16,-437.57 741.56,-412.92"/>
<polygon fill="#757575" stroke="#757575" points="744.77,-414.3 745.68,-403.74 738.39,-411.43 744.77,-414.3"/>
</g>
<!-- ../Monad.ts -->
<g id="node3" class="node">
<title>../Monad.ts</title>
<path fill="none" stroke="#cfffac" d="M899.33,-147.58C899.33,-147.58 830.67,-147.58 830.67,-147.58 826.83,-147.58 823,-143.75 823,-139.92 823,-139.92 823,-132.25 823,-132.25 823,-128.42 826.83,-124.58 830.67,-124.58 830.67,-124.58 899.33,-124.58 899.33,-124.58 903.17,-124.58 907,-128.42 907,-132.25 907,-132.25 907,-139.92 907,-139.92 907,-143.75 903.17,-147.58 899.33,-147.58"/>
<text text-anchor="middle" x="865" y="-132.38" font-family="Arial" font-size="14.00" fill="#cfffac">../Monad.ts</text>
</g>
<!-- ../Observable.ts -->
<g id="node4" class="node">
<title>../Observable.ts</title>
<path fill="none" stroke="#c6c5fe" d="M531.33,-524.58C531.33,-524.58 434.67,-524.58 434.67,-524.58 430.83,-524.58 427,-520.75 427,-516.92 427,-516.92 427,-509.25 427,-509.25 427,-505.42 430.83,-501.58 434.67,-501.58 434.67,-501.58 531.33,-501.58 531.33,-501.58 535.17,-501.58 539,-505.42 539,-509.25 539,-509.25 539,-516.92 539,-516.92 539,-520.75 535.17,-524.58 531.33,-524.58"/>
<text text-anchor="middle" x="483" y="-509.38" font-family="Arial" font-size="14.00" fill="#c6c5fe">../Observable.ts</text>
</g>
<!-- ../Observable.ts&#45;&gt;../Debug.ts -->
<g id="edge2" class="edge">
<title>../Observable.ts&#45;&gt;../Debug.ts</title>
<path fill="none" stroke="#757575" d="M539.11,-520.16C552.99,-521.94 567.83,-523.85 581.48,-525.6"/>
<polygon fill="#757575" stroke="#757575" points="581.28,-529.1 591.64,-526.9 582.17,-522.16 581.28,-529.1"/>
</g>
<!-- AttributeDirective.ts -->
<g id="node5" class="node">
<title>AttributeDirective.ts</title>
<path fill="none" stroke="#c6c5fe" d="M542.33,-463.58C542.33,-463.58 423.67,-463.58 423.67,-463.58 419.83,-463.58 416,-459.75 416,-455.92 416,-455.92 416,-448.25 416,-448.25 416,-444.42 419.83,-440.58 423.67,-440.58 423.67,-440.58 542.33,-440.58 542.33,-440.58 546.17,-440.58 550,-444.42 550,-448.25 550,-448.25 550,-455.92 550,-455.92 550,-459.75 546.17,-463.58 542.33,-463.58"/>
<text text-anchor="middle" x="483" y="-448.38" font-family="Arial" font-size="14.00" fill="#c6c5fe">AttributeDirective.ts</text>
</g>
<!-- AttributeDirective.ts&#45;&gt;../Error.ts -->
<g id="edge3" class="edge">
<title>AttributeDirective.ts&#45;&gt;../Error.ts</title>
<path fill="none" stroke="#757575" d="M511.73,-463.65C551.05,-478.2 624.41,-498.4 680,-473.08 707.12,-460.73 727.86,-432.23 739.61,-412.56"/>
<polygon fill="#757575" stroke="#757575" points="742.74,-414.14 744.65,-403.72 736.66,-410.67 742.74,-414.14"/>
</g>
<!-- Evaluator.ts -->
<g id="node6" class="node">
<title>Evaluator.ts</title>
<path fill="none" stroke="#c6c5fe" d="M668.83,-383.58C668.83,-383.58 597.17,-383.58 597.17,-383.58 593.33,-383.58 589.5,-379.75 589.5,-375.92 589.5,-375.92 589.5,-368.25 589.5,-368.25 589.5,-364.42 593.33,-360.58 597.17,-360.58 597.17,-360.58 668.83,-360.58 668.83,-360.58 672.67,-360.58 676.5,-364.42 676.5,-368.25 676.5,-368.25 676.5,-375.92 676.5,-375.92 676.5,-379.75 672.67,-383.58 668.83,-383.58"/>
<text text-anchor="middle" x="633" y="-368.38" font-family="Arial" font-size="14.00" fill="#c6c5fe">Evaluator.ts</text>
</g>
<!-- AttributeDirective.ts&#45;&gt;Evaluator.ts -->
<g id="edge4" class="edge">
<title>AttributeDirective.ts&#45;&gt;Evaluator.ts</title>
<path fill="none" stroke="#757575" d="M505.52,-440.45C530.73,-426.82 572.68,-404.15 601.3,-388.68"/>
<polygon fill="#757575" stroke="#757575" points="603.32,-391.56 610.45,-383.73 599.99,-385.41 603.32,-391.56"/>
</g>
<!-- collections.ts -->
<g id="node7" class="node">
<title>collections.ts</title>
<path fill="none" stroke="#c6c5fe" d="M672.33,-187.58C672.33,-187.58 593.67,-187.58 593.67,-187.58 589.83,-187.58 586,-183.75 586,-179.92 586,-179.92 586,-172.25 586,-172.25 586,-168.42 589.83,-164.58 593.67,-164.58 593.67,-164.58 672.33,-164.58 672.33,-164.58 676.17,-164.58 680,-168.42 680,-172.25 680,-172.25 680,-179.92 680,-179.92 680,-183.75 676.17,-187.58 672.33,-187.58"/>
<text text-anchor="middle" x="633" y="-172.38" font-family="Arial" font-size="14.00" fill="#c6c5fe">collections.ts</text>
</g>
<!-- AttributeDirective.ts&#45;&gt;collections.ts -->
<g id="edge5" class="edge">
<title>AttributeDirective.ts&#45;&gt;collections.ts</title>
<path fill="none" stroke="#757575" d="M490.17,-440.58C512.83,-398.32 591.66,-251.32 620.94,-196.72"/>
<polygon fill="#757575" stroke="#757575" points="624.16,-198.11 625.8,-187.64 617.99,-194.8 624.16,-198.11"/>
</g>
<!-- util.ts -->
<g id="node8" class="node">
<title>util.ts</title>
<path fill="none" stroke="#cfffac" d="M652.33,-463.58C652.33,-463.58 613.67,-463.58 613.67,-463.58 609.83,-463.58 606,-459.75 606,-455.92 606,-455.92 606,-448.25 606,-448.25 606,-444.42 609.83,-440.58 613.67,-440.58 613.67,-440.58 652.33,-440.58 652.33,-440.58 656.17,-440.58 660,-444.42 660,-448.25 660,-448.25 660,-455.92 660,-455.92 660,-459.75 656.17,-463.58 652.33,-463.58"/>
<text text-anchor="middle" x="633" y="-448.38" font-family="Arial" font-size="14.00" fill="#cfffac">util.ts</text>
</g>
<!-- AttributeDirective.ts&#45;&gt;util.ts -->
<g id="edge6" class="edge">
<title>AttributeDirective.ts&#45;&gt;util.ts</title>
<path fill="none" stroke="#757575" d="M550.21,-452.08C565.91,-452.08 582.08,-452.08 595.86,-452.08"/>
<polygon fill="#757575" stroke="#757575" points="595.88,-455.58 605.88,-452.08 595.88,-448.58 595.88,-455.58"/>
</g>
<!-- Evaluator.ts&#45;&gt;../Error.ts -->
<g id="edge7" class="edge">
<title>Evaluator.ts&#45;&gt;../Error.ts</title>
<path fill="none" stroke="#757575" d="M676.72,-379.42C686.16,-381.04 696.19,-382.76 705.71,-384.39"/>
<polygon fill="#757575" stroke="#757575" points="705.35,-387.88 715.8,-386.13 706.53,-380.98 705.35,-387.88"/>
</g>
<!-- Island.ts -->
<g id="node11" class="node">
<title>Island.ts</title>
<path fill="none" stroke="#c6c5fe" d="M777.33,-147.58C777.33,-147.58 725.67,-147.58 725.67,-147.58 721.83,-147.58 718,-143.75 718,-139.92 718,-139.92 718,-132.25 718,-132.25 718,-128.42 721.83,-124.58 725.67,-124.58 725.67,-124.58 777.33,-124.58 777.33,-124.58 781.17,-124.58 785,-128.42 785,-132.25 785,-132.25 785,-139.92 785,-139.92 785,-143.75 781.17,-147.58 777.33,-147.58"/>
<text text-anchor="middle" x="751.5" y="-132.38" font-family="Arial" font-size="14.00" fill="#c6c5fe">Island.ts</text>
</g>
<!-- collections.ts&#45;&gt;Island.ts -->
<g id="edge16" class="edge">
<title>collections.ts&#45;&gt;Island.ts</title>
<path fill="none" stroke="#757575" d="M667.7,-164.51C680.23,-160.21 694.61,-155.27 707.84,-150.73"/>
<polygon fill="#757575" stroke="#757575" points="709.36,-153.91 717.68,-147.35 707.09,-147.29 709.36,-153.91"/>
</g>
<!-- HandleClickDirective.ts -->
<g id="node9" class="node">
<title>HandleClickDirective.ts</title>
<path fill="none" stroke="#c6c5fe" d="M309.33,-505.58C309.33,-505.58 169.67,-505.58 169.67,-505.58 165.83,-505.58 162,-501.75 162,-497.92 162,-497.92 162,-490.25 162,-490.25 162,-486.42 165.83,-482.58 169.67,-482.58 169.67,-482.58 309.33,-482.58 309.33,-482.58 313.17,-482.58 317,-486.42 317,-490.25 317,-490.25 317,-497.92 317,-497.92 317,-501.75 313.17,-505.58 309.33,-505.58"/>
<text text-anchor="middle" x="239.5" y="-490.38" font-family="Arial" font-size="14.00" fill="#c6c5fe">HandleClickDirective.ts</text>
</g>
<!-- HandleClickDirective.ts&#45;&gt;../Observable.ts -->
<g id="edge8" class="edge">
<title>HandleClickDirective.ts&#45;&gt;../Observable.ts</title>
<path fill="none" stroke="#757575" d="M317.24,-500.12C349.26,-502.64 386.05,-505.54 416.74,-507.95"/>
<polygon fill="#757575" stroke="#757575" points="416.65,-511.45 426.9,-508.75 417.2,-504.47 416.65,-511.45"/>
</g>
<!-- HandleClickDirective.ts&#45;&gt;AttributeDirective.ts -->
<g id="edge9" class="edge">
<title>HandleClickDirective.ts&#45;&gt;AttributeDirective.ts</title>
<path fill="none" stroke="#757575" d="M317.04,-484.09C337.54,-481.15 359.65,-477.73 380,-474.08 393.63,-471.64 408.22,-468.69 421.97,-465.76"/>
<polygon fill="#757575" stroke="#757575" points="422.78,-469.17 431.81,-463.64 421.3,-462.33 422.78,-469.17"/>
</g>
<!-- Interpolator.ts -->
<g id="node10" class="node">
<title>Interpolator.ts</title>
<path fill="none" stroke="#c6c5fe" d="M524.33,-305.58C524.33,-305.58 441.67,-305.58 441.67,-305.58 437.83,-305.58 434,-301.75 434,-297.92 434,-297.92 434,-290.25 434,-290.25 434,-286.42 437.83,-282.58 441.67,-282.58 441.67,-282.58 524.33,-282.58 524.33,-282.58 528.17,-282.58 532,-286.42 532,-290.25 532,-290.25 532,-297.92 532,-297.92 532,-301.75 528.17,-305.58 524.33,-305.58"/>
<text text-anchor="middle" x="483" y="-290.38" font-family="Arial" font-size="14.00" fill="#c6c5fe">Interpolator.ts</text>
</g>
<!-- Interpolator.ts&#45;&gt;Evaluator.ts -->
<g id="edge10" class="edge">
<title>Interpolator.ts&#45;&gt;Evaluator.ts</title>
<path fill="none" stroke="#757575" d="M505.84,-305.59C530.98,-318.84 572.46,-340.7 600.95,-355.72"/>
<polygon fill="#757575" stroke="#757575" points="599.59,-358.96 610.07,-360.53 602.86,-352.77 599.59,-358.96"/>
</g>
<!-- Interpolator.ts&#45;&gt;collections.ts -->
<g id="edge11" class="edge">
<title>Interpolator.ts&#45;&gt;collections.ts</title>
<path fill="none" stroke="#757575" d="M498.46,-282.55C524.26,-261.99 578.39,-218.83 609.23,-194.24"/>
<polygon fill="#757575" stroke="#757575" points="611.62,-196.81 617.26,-187.83 607.26,-191.33 611.62,-196.81"/>
</g>
<!-- Island.ts&#45;&gt;../Monad.ts -->
<g id="edge12" class="edge">
<title>Island.ts&#45;&gt;../Monad.ts</title>
<path fill="none" stroke="#757575" d="M785.05,-136.08C793.74,-136.08 803.34,-136.08 812.76,-136.08"/>
<polygon fill="#757575" stroke="#757575" points="812.87,-139.58 822.87,-136.08 812.87,-132.58 812.87,-139.58"/>
</g>
<!-- MapDirective.ts -->
<g id="node12" class="node">
<title>MapDirective.ts</title>
<path fill="none" stroke="#c6c5fe" d="M286.83,-423.58C286.83,-423.58 192.17,-423.58 192.17,-423.58 188.33,-423.58 184.5,-419.75 184.5,-415.92 184.5,-415.92 184.5,-408.25 184.5,-408.25 184.5,-404.42 188.33,-400.58 192.17,-400.58 192.17,-400.58 286.83,-400.58 286.83,-400.58 290.67,-400.58 294.5,-404.42 294.5,-408.25 294.5,-408.25 294.5,-415.92 294.5,-415.92 294.5,-419.75 290.67,-423.58 286.83,-423.58"/>
<text text-anchor="middle" x="239.5" y="-408.38" font-family="Arial" font-size="14.00" fill="#c6c5fe">MapDirective.ts</text>
</g>
<!-- MapDirective.ts&#45;&gt;../Error.ts -->
<g id="edge13" class="edge">
<title>MapDirective.ts&#45;&gt;../Error.ts</title>
<path fill="none" stroke="#757575" d="M294.6,-409.96C395.8,-405.99 611.99,-397.52 705.67,-393.84"/>
<polygon fill="#757575" stroke="#757575" points="706.09,-397.33 715.94,-393.44 705.81,-390.33 706.09,-397.33"/>
</g>
<!-- MapDirective.ts&#45;&gt;AttributeDirective.ts -->
<g id="edge14" class="edge">
<title>MapDirective.ts&#45;&gt;AttributeDirective.ts</title>
<path fill="none" stroke="#757575" d="M294.56,-419.78C320.45,-423.57 351.86,-428.35 380,-433.08 390.3,-434.82 401.16,-436.74 411.81,-438.68"/>
<polygon fill="#757575" stroke="#757575" points="411.46,-442.17 421.92,-440.53 412.72,-435.29 411.46,-442.17"/>
</g>
<!-- ShowDirective.ts -->
<g id="node13" class="node">
<title>ShowDirective.ts</title>
<path fill="none" stroke="#c6c5fe" d="M290.33,-464.58C290.33,-464.58 188.67,-464.58 188.67,-464.58 184.83,-464.58 181,-460.75 181,-456.92 181,-456.92 181,-449.25 181,-449.25 181,-445.42 184.83,-441.58 188.67,-441.58 188.67,-441.58 290.33,-441.58 290.33,-441.58 294.17,-441.58 298,-445.42 298,-449.25 298,-449.25 298,-456.92 298,-456.92 298,-460.75 294.17,-464.58 290.33,-464.58"/>
<text text-anchor="middle" x="239.5" y="-449.38" font-family="Arial" font-size="14.00" fill="#c6c5fe">ShowDirective.ts</text>
</g>
<!-- ShowDirective.ts&#45;&gt;AttributeDirective.ts -->
<g id="edge15" class="edge">
<title>ShowDirective.ts&#45;&gt;AttributeDirective.ts</title>
<path fill="none" stroke="#757575" d="M298.04,-452.85C330.29,-452.71 370.92,-452.54 405.79,-452.4"/>
<polygon fill="#757575" stroke="#757575" points="405.95,-455.9 415.94,-452.36 405.92,-448.9 405.95,-455.9"/>
</g>
<!-- functions/createIslandElementConstructor.ts -->
<g id="node14" class="node">
<title>functions/createIslandElementConstructor.ts</title>
<path fill="none" stroke="#c6c5fe" d="M372.33,-246.58C372.33,-246.58 106.67,-246.58 106.67,-246.58 102.83,-246.58 99,-242.75 99,-238.92 99,-238.92 99,-231.25 99,-231.25 99,-227.42 102.83,-223.58 106.67,-223.58 106.67,-223.58 372.33,-223.58 372.33,-223.58 376.17,-223.58 380,-227.42 380,-231.25 380,-231.25 380,-238.92 380,-238.92 380,-242.75 376.17,-246.58 372.33,-246.58"/>
<text text-anchor="middle" x="239.5" y="-231.38" font-family="Arial" font-size="14.00" fill="#c6c5fe">functions/createIslandElementConstructor.ts</text>
</g>
<!-- functions/createIslandElementConstructor.ts&#45;&gt;../Error.ts -->
<g id="edge17" class="edge">
<title>functions/createIslandElementConstructor.ts&#45;&gt;../Error.ts</title>
<path fill="none" stroke="#757575" d="M380.24,-235.2C471.85,-241.29 590.73,-261.12 680,-318.08 702.67,-332.55 723.21,-355.83 736.2,-372.41"/>
<polygon fill="#757575" stroke="#757575" points="733.43,-374.55 742.27,-380.39 739,-370.32 733.43,-374.55"/>
</g>
<!-- functions/createIslandElementConstructor.ts&#45;&gt;../Monad.ts -->
<g id="edge18" class="edge">
<title>functions/createIslandElementConstructor.ts&#45;&gt;../Monad.ts</title>
<path fill="none" stroke="#757575" d="M380.26,-231.33C467.23,-226.95 580.99,-217.48 680,-197.08 732.04,-186.36 789.88,-165.66 826.57,-151.37"/>
<polygon fill="#757575" stroke="#757575" points="827.86,-154.62 835.88,-147.7 825.29,-148.11 827.86,-154.62"/>
</g>
<!-- functions/createIslandElementConstructor.ts&#45;&gt;../Observable.ts -->
<g id="edge19" class="edge">
<title>functions/createIslandElementConstructor.ts&#45;&gt;../Observable.ts</title>
<path fill="none" stroke="#757575" d="M253.11,-246.64C279.46,-271.28 341.1,-331.7 380,-392.08 401.34,-425.2 389.96,-443.52 416,-473.08 424.3,-482.51 435.37,-490.4 446.08,-496.61"/>
<polygon fill="#757575" stroke="#757575" points="444.45,-499.71 454.91,-501.43 447.81,-493.56 444.45,-499.71"/>
</g>
<!-- functions/createIslandElementConstructor.ts&#45;&gt;collections.ts -->
<g id="edge21" class="edge">
<title>functions/createIslandElementConstructor.ts&#45;&gt;collections.ts</title>
<path fill="none" stroke="#757575" d="M296.85,-223.51C331.19,-216.7 376.01,-208.24 416,-202.08 470.09,-193.75 532.14,-186.52 575.81,-181.82"/>
<polygon fill="#757575" stroke="#757575" points="576.38,-185.28 585.95,-180.74 575.64,-178.32 576.38,-185.28"/>
</g>
<!-- functions/createIslandElementConstructor.ts&#45;&gt;Island.ts -->
<g id="edge20" class="edge">
<title>functions/createIslandElementConstructor.ts&#45;&gt;Island.ts</title>
<path fill="none" stroke="#757575" d="M272.11,-223.52C306.93,-211.17 364.8,-191.79 416,-180.08 490.45,-163.06 510.28,-165.02 586,-155.08 627.15,-149.68 674.21,-144.33 707.42,-140.69"/>
<polygon fill="#757575" stroke="#757575" points="708.13,-144.13 717.69,-139.57 707.37,-137.17 708.13,-144.13"/>
</g>
<!-- index.ts -->
<g id="node15" class="node">
<title>index.ts</title>
<path fill="none" stroke="#c6c5fe" d="M55.33,-345.58C55.33,-345.58 7.67,-345.58 7.67,-345.58 3.83,-345.58 0,-341.75 0,-337.92 0,-337.92 0,-330.25 0,-330.25 0,-326.42 3.83,-322.58 7.67,-322.58 7.67,-322.58 55.33,-322.58 55.33,-322.58 59.17,-322.58 63,-326.42 63,-330.25 63,-330.25 63,-337.92 63,-337.92 63,-341.75 59.17,-345.58 55.33,-345.58"/>
<text text-anchor="middle" x="31.5" y="-330.38" font-family="Arial" font-size="14.00" fill="#c6c5fe">index.ts</text>
</g>
<!-- index.ts&#45;&gt;../Error.ts -->
<g id="edge22" class="edge">
<title>index.ts&#45;&gt;../Error.ts</title>
<path fill="none" stroke="#757575" d="M63.26,-332.98C175.41,-329.26 561.93,-319.16 680,-352.08 696.74,-356.75 713.74,-366.23 726.85,-374.78"/>
<polygon fill="#757575" stroke="#757575" points="725.01,-377.77 735.25,-380.49 728.94,-371.97 725.01,-377.77"/>
</g>
<!-- index.ts&#45;&gt;../Monad.ts -->
<g id="edge23" class="edge">
<title>index.ts&#45;&gt;../Monad.ts</title>
<path fill="none" stroke="#757575" d="M33.57,-322.47C38.19,-274.97 58.08,-96.36 99,-61.08 228.46,50.53 311.07,-26.08 482,-26.08 482,-26.08 482,-26.08 634,-26.08 717.95,-26.08 803.75,-86.46 842.58,-117.75"/>
<polygon fill="#757575" stroke="#757575" points="840.61,-120.67 850.56,-124.31 845.06,-115.26 840.61,-120.67"/>
</g>
<!-- index.ts&#45;&gt;../Observable.ts -->
<g id="edge24" class="edge">
<title>index.ts&#45;&gt;../Observable.ts</title>
<path fill="none" stroke="#757575" d="M32.59,-345.62C33.53,-378.83 41.35,-474.85 99,-515.08 202.85,-587.56 364.15,-551.09 439.95,-527.67"/>
<polygon fill="#757575" stroke="#757575" points="441.15,-530.96 449.63,-524.6 439.04,-524.28 441.15,-530.96"/>
</g>
<!-- index.ts&#45;&gt;Evaluator.ts -->
<g id="edge25" class="edge">
<title>index.ts&#45;&gt;Evaluator.ts</title>
<path fill="none" stroke="#757575" d="M63.11,-341.62C74.33,-344.09 87.18,-346.58 99,-348.08 273.88,-370.28 483.32,-372.74 579.28,-372.54"/>
<polygon fill="#757575" stroke="#757575" points="579.32,-376.04 589.31,-372.51 579.3,-369.04 579.32,-376.04"/>
</g>
<!-- index.ts&#45;&gt;collections.ts -->
<g id="edge31" class="edge">
<title>index.ts&#45;&gt;collections.ts</title>
<path fill="none" stroke="#757575" d="M35.18,-322.51C41.52,-298.01 59.95,-240.98 99,-215.08 247.17,-116.82 472.15,-143.81 575.94,-163.6"/>
<polygon fill="#757575" stroke="#757575" points="575.41,-167.06 585.9,-165.55 576.75,-160.19 575.41,-167.06"/>
</g>
<!-- index.ts&#45;&gt;HandleClickDirective.ts -->
<g id="edge26" class="edge">
<title>index.ts&#45;&gt;HandleClickDirective.ts</title>
<path fill="none" stroke="#757575" d="M34.29,-345.84C39.13,-373.32 55.24,-441.85 99,-474.08 114.2,-485.28 132.9,-491.54 151.62,-494.83"/>
<polygon fill="#757575" stroke="#757575" points="151.28,-498.32 161.69,-496.32 152.31,-491.39 151.28,-498.32"/>
</g>
<!-- index.ts&#45;&gt;Interpolator.ts -->
<g id="edge27" class="edge">
<title>index.ts&#45;&gt;Interpolator.ts</title>
<path fill="none" stroke="#757575" d="M63.13,-326.7C74.36,-324.24 87.2,-321.72 99,-320.08 213.28,-304.25 348.13,-297.94 423.48,-295.52"/>
<polygon fill="#757575" stroke="#757575" points="423.82,-299.01 433.71,-295.2 423.61,-292.01 423.82,-299.01"/>
</g>
<!-- index.ts&#45;&gt;Island.ts -->
<g id="edge28" class="edge">
<title>index.ts&#45;&gt;Island.ts</title>
<path fill="none" stroke="#757575" d="M32.31,-322.34C32.48,-287.54 38.28,-184.73 99,-141.08 288.89,-4.57 597.03,-85.31 708.54,-121.42"/>
<polygon fill="#757575" stroke="#757575" points="707.5,-124.76 718.09,-124.56 709.68,-118.11 707.5,-124.76"/>
</g>
<!-- index.ts&#45;&gt;MapDirective.ts -->
<g id="edge29" class="edge">
<title>index.ts&#45;&gt;MapDirective.ts</title>
<path fill="none" stroke="#757575" d="M44.06,-346.02C56.48,-358.09 77.36,-376.32 99,-386.08 122.38,-396.64 149.82,-402.91 174.15,-406.63"/>
<polygon fill="#757575" stroke="#757575" points="173.97,-410.14 184.36,-408.08 174.95,-403.21 173.97,-410.14"/>
</g>
<!-- index.ts&#45;&gt;ShowDirective.ts -->
<g id="edge30" class="edge">
<title>index.ts&#45;&gt;ShowDirective.ts</title>
<path fill="none" stroke="#757575" d="M36.58,-345.59C44.76,-366.82 65.34,-411.94 99,-433.08 120.12,-446.35 146.54,-452.22 170.69,-454.49"/>
<polygon fill="#757575" stroke="#757575" points="170.64,-457.99 180.88,-455.25 171.16,-451.01 170.64,-457.99"/>
</g>
<!-- index.ts&#45;&gt;functions/createIslandElementConstructor.ts -->
<g id="edge32" class="edge">
<title>index.ts&#45;&gt;functions/createIslandElementConstructor.ts</title>
<path fill="none" stroke="#757575" d="M44.3,-322.5C56.92,-310.66 77.96,-292.46 99,-281.08 124.26,-267.42 154.29,-256.88 180.01,-249.35"/>
<polygon fill="#757575" stroke="#757575" points="180.97,-252.72 189.63,-246.62 179.06,-245.99 180.97,-252.72"/>
</g>
</g>
</svg>
