<?xml version="1.0" encoding="UTF-8" standalone="no"?>
<!DOCTYPE svg PUBLIC "-//W3C//DTD SVG 1.1//EN"
 "http://www.w3.org/Graphics/SVG/1.1/DTD/svg11.dtd">
<!-- Generated by graphviz version 2.43.0 (0)
 -->
<!-- Title: G Pages: 1 -->
<svg width="2668pt" height="1445pt"
 viewBox="0.00 0.00 2668.20 1444.70" xmlns="http://www.w3.org/2000/svg" xmlns:xlink="http://www.w3.org/1999/xlink">
<g id="graph0" class="graph" transform="scale(1 1) rotate(0) translate(21.6 1423.1)">
<title>G</title>
<polygon fill="#111111" stroke="transparent" points="-21.6,21.6 -21.6,-1423.1 2646.6,-1423.1 2646.6,21.6 -21.6,21.6"/>
<!-- ../Action.ts -->
<g id="node1" class="node">
<title>../Action.ts</title>
<path fill="none" stroke="#c6c5fe" d="M1891.83,-791C1891.83,-791 1827.17,-791 1827.17,-791 1823.33,-791 1819.5,-787.17 1819.5,-783.33 1819.5,-783.33 1819.5,-775.67 1819.5,-775.67 1819.5,-771.83 1823.33,-768 1827.17,-768 1827.17,-768 1891.83,-768 1891.83,-768 1895.67,-768 1899.5,-771.83 1899.5,-775.67 1899.5,-775.67 1899.5,-783.33 1899.5,-783.33 1899.5,-787.17 1895.67,-791 1891.83,-791"/>
<text text-anchor="middle" x="1859.5" y="-775.8" font-family="Arial" font-size="14.00" fill="#c6c5fe">../Action.ts</text>
</g>
<!-- ../Component.ts -->
<g id="node2" class="node">
<title>../Component.ts</title>
<path fill="none" stroke="#ff6c60" d="M2060.33,-756C2060.33,-756 1962.67,-756 1962.67,-756 1958.83,-756 1955,-752.17 1955,-748.33 1955,-748.33 1955,-740.67 1955,-740.67 1955,-736.83 1958.83,-733 1962.67,-733 1962.67,-733 2060.33,-733 2060.33,-733 2064.17,-733 2068,-736.83 2068,-740.67 2068,-740.67 2068,-748.33 2068,-748.33 2068,-752.17 2064.17,-756 2060.33,-756"/>
<text text-anchor="middle" x="2011.5" y="-740.8" font-family="Arial" font-size="14.00" fill="#ff6c60">../Component.ts</text>
</g>
<!-- ../Action.ts&#45;&gt;../Component.ts -->
<g id="edge1" class="edge">
<title>../Action.ts&#45;&gt;../Component.ts</title>
<path fill="none" stroke="#757575" d="M1899.52,-770.4C1915.27,-766.72 1933.78,-762.4 1951.14,-758.35"/>
<polygon fill="#757575" stroke="#757575" points="1952.24,-761.69 1961.19,-756.01 1950.65,-754.87 1952.24,-761.69"/>
</g>
<!-- ../Debug.ts -->
<g id="node3" class="node">
<title>../Debug.ts</title>
<path fill="none" stroke="#c6c5fe" d="M2510.33,-703C2510.33,-703 2443.67,-703 2443.67,-703 2439.83,-703 2436,-699.17 2436,-695.33 2436,-695.33 2436,-687.67 2436,-687.67 2436,-683.83 2439.83,-680 2443.67,-680 2443.67,-680 2510.33,-680 2510.33,-680 2514.17,-680 2518,-683.83 2518,-687.67 2518,-687.67 2518,-695.33 2518,-695.33 2518,-699.17 2514.17,-703 2510.33,-703"/>
<text text-anchor="middle" x="2477" y="-687.8" font-family="Arial" font-size="14.00" fill="#c6c5fe">../Debug.ts</text>
</g>
<!-- ../Component.ts&#45;&gt;../Debug.ts -->
<g id="edge2" class="edge">
<title>../Component.ts&#45;&gt;../Debug.ts</title>
<path fill="none" stroke="#757575" d="M2068.41,-738.11C2159.45,-727.7 2338.33,-707.24 2425.65,-697.26"/>
<polygon fill="#757575" stroke="#757575" points="2426.29,-700.71 2435.83,-696.09 2425.5,-693.75 2426.29,-700.71"/>
</g>
<!-- ../EntityManager.ts -->
<g id="node4" class="node">
<title>../EntityManager.ts</title>
<path fill="none" stroke="#ff6c60" d="M2225.33,-801C2225.33,-801 2111.67,-801 2111.67,-801 2107.83,-801 2104,-797.17 2104,-793.33 2104,-793.33 2104,-785.67 2104,-785.67 2104,-781.83 2107.83,-778 2111.67,-778 2111.67,-778 2225.33,-778 2225.33,-778 2229.17,-778 2233,-781.83 2233,-785.67 2233,-785.67 2233,-793.33 2233,-793.33 2233,-797.17 2229.17,-801 2225.33,-801"/>
<text text-anchor="middle" x="2168.5" y="-785.8" font-family="Arial" font-size="14.00" fill="#ff6c60">../EntityManager.ts</text>
</g>
<!-- ../Component.ts&#45;&gt;../EntityManager.ts -->
<g id="edge3" class="edge">
<title>../Component.ts&#45;&gt;../EntityManager.ts</title>
<path fill="none" stroke="#757575" d="M2068.02,-754.12C2090.51,-760.13 2115.69,-767.73 2135.09,-774.48"/>
<polygon fill="#757575" stroke="#757575" points="2134.07,-777.83 2144.66,-777.92 2136.43,-771.24 2134.07,-777.83"/>
</g>
<!-- ../Error.ts -->
<g id="node5" class="node">
<title>../Error.ts</title>
<path fill="none" stroke="#cfffac" d="M2617.33,-780C2617.33,-780 2561.67,-780 2561.67,-780 2557.83,-780 2554,-776.17 2554,-772.33 2554,-772.33 2554,-764.67 2554,-764.67 2554,-760.83 2557.83,-757 2561.67,-757 2561.67,-757 2617.33,-757 2617.33,-757 2621.17,-757 2625,-760.83 2625,-764.67 2625,-764.67 2625,-772.33 2625,-772.33 2625,-776.17 2621.17,-780 2617.33,-780"/>
<text text-anchor="middle" x="2589.5" y="-764.8" font-family="Arial" font-size="14.00" fill="#cfffac">../Error.ts</text>
</g>
<!-- ../Component.ts&#45;&gt;../Error.ts -->
<g id="edge4" class="edge">
<title>../Component.ts&#45;&gt;../Error.ts</title>
<path fill="none" stroke="#757575" d="M2068.25,-746.82C2182.21,-751.57 2439.83,-762.31 2543.77,-766.64"/>
<polygon fill="#757575" stroke="#757575" points="2543.78,-770.14 2553.92,-767.06 2544.07,-763.15 2543.78,-770.14"/>
</g>
<!-- ../Observable.ts -->
<g id="node6" class="node">
<title>../Observable.ts</title>
<path fill="none" stroke="#c6c5fe" d="M2382.83,-404C2382.83,-404 2286.17,-404 2286.17,-404 2282.33,-404 2278.5,-400.17 2278.5,-396.33 2278.5,-396.33 2278.5,-388.67 2278.5,-388.67 2278.5,-384.83 2282.33,-381 2286.17,-381 2286.17,-381 2382.83,-381 2382.83,-381 2386.67,-381 2390.5,-384.83 2390.5,-388.67 2390.5,-388.67 2390.5,-396.33 2390.5,-396.33 2390.5,-400.17 2386.67,-404 2382.83,-404"/>
<text text-anchor="middle" x="2334.5" y="-388.8" font-family="Arial" font-size="14.00" fill="#c6c5fe">../Observable.ts</text>
</g>
<!-- ../Component.ts&#45;&gt;../Observable.ts -->
<g id="edge5" class="edge">
<title>../Component.ts&#45;&gt;../Observable.ts</title>
<path fill="none" stroke="#757575" d="M2023.18,-732.79C2070.02,-681.42 2257.55,-475.78 2316.01,-411.68"/>
<polygon fill="#757575" stroke="#757575" points="2318.63,-414 2322.78,-404.26 2313.46,-409.29 2318.63,-414"/>
</g>
<!-- ../Debug.ts&#45;&gt;../Error.ts -->
<g id="edge6" class="edge">
<title>../Debug.ts&#45;&gt;../Error.ts</title>
<path fill="none" stroke="#757575" d="M2494.78,-703.19C2513.06,-715.93 2542.49,-736.44 2563.49,-751.07"/>
<polygon fill="#757575" stroke="#757575" points="2561.72,-754.1 2571.92,-756.95 2565.72,-748.36 2561.72,-754.1"/>
</g>
<!-- ../EntityManager.ts&#45;&gt;../Component.ts -->
<g id="edge7" class="edge">
<title>../EntityManager.ts&#45;&gt;../Component.ts</title>
<path fill="none" stroke="#757575" d="M2104.99,-777.99C2084.44,-772.34 2062.43,-765.61 2045.03,-759.56"/>
<polygon fill="#757575" stroke="#757575" points="2045.97,-756.18 2035.37,-756.1 2043.6,-762.77 2045.97,-756.18"/>
</g>
<!-- ../EntityManager.ts&#45;&gt;../Error.ts -->
<g id="edge9" class="edge">
<title>../EntityManager.ts&#45;&gt;../Error.ts</title>
<path fill="none" stroke="#757575" d="M2233.14,-786.31C2318.85,-782.01 2469.22,-774.48 2543.86,-770.74"/>
<polygon fill="#757575" stroke="#757575" points="2544.07,-774.23 2553.88,-770.24 2543.71,-767.24 2544.07,-774.23"/>
</g>
<!-- ../EntityManager.ts&#45;&gt;../Observable.ts -->
<g id="edge10" class="edge">
<title>../EntityManager.ts&#45;&gt;../Observable.ts</title>
<path fill="none" stroke="#757575" d="M2184.73,-777.88C2199.12,-766.15 2220.34,-746.75 2233,-725.5 2296.32,-619.21 2322.66,-469.76 2330.65,-414.31"/>
<polygon fill="#757575" stroke="#757575" points="2334.14,-414.62 2332.05,-404.24 2327.21,-413.66 2334.14,-414.62"/>
</g>
<!-- ../EntityMeta.ts -->
<g id="node7" class="node">
<title>../EntityMeta.ts</title>
<path fill="none" stroke="#ff6c60" d="M2380.33,-840C2380.33,-840 2288.67,-840 2288.67,-840 2284.83,-840 2281,-836.17 2281,-832.33 2281,-832.33 2281,-824.67 2281,-824.67 2281,-820.83 2284.83,-817 2288.67,-817 2288.67,-817 2380.33,-817 2380.33,-817 2384.17,-817 2388,-820.83 2388,-824.67 2388,-824.67 2388,-832.33 2388,-832.33 2388,-836.17 2384.17,-840 2380.33,-840"/>
<text text-anchor="middle" x="2334.5" y="-824.8" font-family="Arial" font-size="14.00" fill="#ff6c60">../EntityMeta.ts</text>
</g>
<!-- ../EntityManager.ts&#45;&gt;../EntityMeta.ts -->
<g id="edge8" class="edge">
<title>../EntityManager.ts&#45;&gt;../EntityMeta.ts</title>
<path fill="none" stroke="#757575" d="M2218.26,-801.1C2236.11,-805.34 2256.49,-810.19 2275.09,-814.61"/>
<polygon fill="#757575" stroke="#757575" points="2274.39,-818.04 2284.93,-816.95 2276.01,-811.23 2274.39,-818.04"/>
</g>
<!-- ../Observable.ts&#45;&gt;../Debug.ts -->
<g id="edge23" class="edge">
<title>../Observable.ts&#45;&gt;../Debug.ts</title>
<path fill="none" stroke="#757575" d="M2341.01,-404.22C2362.21,-449.34 2438.74,-612.2 2466.15,-670.53"/>
<polygon fill="#757575" stroke="#757575" points="2463.11,-672.3 2470.53,-679.86 2469.45,-669.32 2463.11,-672.3"/>
</g>
<!-- ../EntityMeta.ts&#45;&gt;../Component.ts -->
<g id="edge11" class="edge">
<title>../EntityMeta.ts&#45;&gt;../Component.ts</title>
<path fill="none" stroke="#757575" d="M2280.75,-832.3C2233.1,-833.9 2161.78,-831.7 2104,-810.5 2076.03,-800.24 2048.99,-778.87 2031.66,-763.22"/>
<polygon fill="#757575" stroke="#757575" points="2033.67,-760.31 2023.96,-756.07 2028.91,-765.44 2033.67,-760.31"/>
</g>
<!-- ../HeadingDirection.ts -->
<g id="node8" class="node">
<title>../HeadingDirection.ts</title>
<path fill="none" stroke="#c6c5fe" d="M1305.83,-1179C1305.83,-1179 1175.17,-1179 1175.17,-1179 1171.33,-1179 1167.5,-1175.17 1167.5,-1171.33 1167.5,-1171.33 1167.5,-1163.67 1167.5,-1163.67 1167.5,-1159.83 1171.33,-1156 1175.17,-1156 1175.17,-1156 1305.83,-1156 1305.83,-1156 1309.67,-1156 1313.5,-1159.83 1313.5,-1163.67 1313.5,-1163.67 1313.5,-1171.33 1313.5,-1171.33 1313.5,-1175.17 1309.67,-1179 1305.83,-1179"/>
<text text-anchor="middle" x="1240.5" y="-1163.8" font-family="Arial" font-size="14.00" fill="#c6c5fe">../HeadingDirection.ts</text>
</g>
<!-- ../HeadingDirection.ts&#45;&gt;../Error.ts -->
<g id="edge12" class="edge">
<title>../HeadingDirection.ts&#45;&gt;../Error.ts</title>
<path fill="none" stroke="#757575" d="M1272.57,-1179.03C1388.69,-1221.04 1808.86,-1363.5 2167.5,-1363.5 2167.5,-1363.5 2167.5,-1363.5 2335.5,-1363.5 2451.95,-1363.5 2465.15,-1279.27 2518,-1175.5 2586.31,-1041.37 2590,-853.58 2589.11,-790.29"/>
<polygon fill="#757575" stroke="#757575" points="2592.61,-790.21 2588.91,-780.28 2585.61,-790.35 2592.61,-790.21"/>
</g>
<!-- ../units/convert.ts -->
<g id="node9" class="node">
<title>../units/convert.ts</title>
<path fill="none" stroke="#cfffac" d="M1911.33,-1027C1911.33,-1027 1807.67,-1027 1807.67,-1027 1803.83,-1027 1800,-1023.17 1800,-1019.33 1800,-1019.33 1800,-1011.67 1800,-1011.67 1800,-1007.83 1803.83,-1004 1807.67,-1004 1807.67,-1004 1911.33,-1004 1911.33,-1004 1915.17,-1004 1919,-1007.83 1919,-1011.67 1919,-1011.67 1919,-1019.33 1919,-1019.33 1919,-1023.17 1915.17,-1027 1911.33,-1027"/>
<text text-anchor="middle" x="1859.5" y="-1011.8" font-family="Arial" font-size="14.00" fill="#cfffac">../units/convert.ts</text>
</g>
<!-- ../HeadingDirection.ts&#45;&gt;../units/convert.ts -->
<g id="edge13" class="edge">
<title>../HeadingDirection.ts&#45;&gt;../units/convert.ts</title>
<path fill="none" stroke="#757575" d="M1313.92,-1173.46C1418.62,-1179 1615.93,-1177.78 1764,-1107.5 1798.36,-1091.19 1827.92,-1057.31 1844.44,-1035.53"/>
<polygon fill="#757575" stroke="#757575" points="1847.39,-1037.42 1850.5,-1027.29 1841.76,-1033.27 1847.39,-1037.42"/>
</g>
<!-- ../Input.ts -->
<g id="node10" class="node">
<title>../Input.ts</title>
<path fill="none" stroke="#cfffac" d="M1268.83,-1335C1268.83,-1335 1212.17,-1335 1212.17,-1335 1208.33,-1335 1204.5,-1331.17 1204.5,-1327.33 1204.5,-1327.33 1204.5,-1319.67 1204.5,-1319.67 1204.5,-1315.83 1208.33,-1312 1212.17,-1312 1212.17,-1312 1268.83,-1312 1268.83,-1312 1272.67,-1312 1276.5,-1315.83 1276.5,-1319.67 1276.5,-1319.67 1276.5,-1327.33 1276.5,-1327.33 1276.5,-1331.17 1272.67,-1335 1268.83,-1335"/>
<text text-anchor="middle" x="1240.5" y="-1319.8" font-family="Arial" font-size="14.00" fill="#cfffac">../Input.ts</text>
</g>
<!-- ../Log.ts -->
<g id="node11" class="node">
<title>../Log.ts</title>
<path fill="none" stroke="#c6c5fe" d="M2193.33,-217C2193.33,-217 2143.67,-217 2143.67,-217 2139.83,-217 2136,-213.17 2136,-209.33 2136,-209.33 2136,-201.67 2136,-201.67 2136,-197.83 2139.83,-194 2143.67,-194 2143.67,-194 2193.33,-194 2193.33,-194 2197.17,-194 2201,-197.83 2201,-201.67 2201,-201.67 2201,-209.33 2201,-209.33 2201,-213.17 2197.17,-217 2193.33,-217"/>
<text text-anchor="middle" x="2168.5" y="-201.8" font-family="Arial" font-size="14.00" fill="#c6c5fe">../Log.ts</text>
</g>
<!-- ../Log.ts&#45;&gt;../Observable.ts -->
<g id="edge14" class="edge">
<title>../Log.ts&#45;&gt;../Observable.ts</title>
<path fill="none" stroke="#757575" d="M2201.03,-214.02C2211.98,-218.06 2223.8,-223.74 2233,-231.5 2279.56,-270.78 2311.29,-337.29 2325.32,-371.22"/>
<polygon fill="#757575" stroke="#757575" points="2322.13,-372.66 2329.1,-380.63 2328.62,-370.05 2322.13,-372.66"/>
</g>
<!-- ../functions/Array.ts -->
<g id="node12" class="node">
<title>../functions/Array.ts</title>
<path fill="none" stroke="#cfffac" d="M2392.33,-179C2392.33,-179 2276.67,-179 2276.67,-179 2272.83,-179 2269,-175.17 2269,-171.33 2269,-171.33 2269,-163.67 2269,-163.67 2269,-159.83 2272.83,-156 2276.67,-156 2276.67,-156 2392.33,-156 2392.33,-156 2396.17,-156 2400,-159.83 2400,-163.67 2400,-163.67 2400,-171.33 2400,-171.33 2400,-175.17 2396.17,-179 2392.33,-179"/>
<text text-anchor="middle" x="2334.5" y="-163.8" font-family="Arial" font-size="14.00" fill="#cfffac">../functions/Array.ts</text>
</g>
<!-- ../Log.ts&#45;&gt;../functions/Array.ts -->
<g id="edge15" class="edge">
<title>../Log.ts&#45;&gt;../functions/Array.ts</title>
<path fill="none" stroke="#757575" d="M2201.12,-198.17C2221.65,-193.42 2249.07,-187.06 2273.62,-181.37"/>
<polygon fill="#757575" stroke="#757575" points="2274.63,-184.73 2283.58,-179.07 2273.05,-177.91 2274.63,-184.73"/>
</g>
<!-- ../functions/Map.ts -->
<g id="node13" class="node">
<title>../functions/Map.ts</title>
<path fill="none" stroke="#cfffac" d="M2390.33,-261C2390.33,-261 2278.67,-261 2278.67,-261 2274.83,-261 2271,-257.17 2271,-253.33 2271,-253.33 2271,-245.67 2271,-245.67 2271,-241.83 2274.83,-238 2278.67,-238 2278.67,-238 2390.33,-238 2390.33,-238 2394.17,-238 2398,-241.83 2398,-245.67 2398,-245.67 2398,-253.33 2398,-253.33 2398,-257.17 2394.17,-261 2390.33,-261"/>
<text text-anchor="middle" x="2334.5" y="-245.8" font-family="Arial" font-size="14.00" fill="#cfffac">../functions/Map.ts</text>
</g>
<!-- ../Log.ts&#45;&gt;../functions/Map.ts -->
<g id="edge16" class="edge">
<title>../Log.ts&#45;&gt;../functions/Map.ts</title>
<path fill="none" stroke="#757575" d="M2201.12,-213.98C2223.65,-220.03 2254.47,-228.3 2280.7,-235.33"/>
<polygon fill="#757575" stroke="#757575" points="2279.94,-238.75 2290.5,-237.96 2281.75,-231.99 2279.94,-238.75"/>
</g>
<!-- ../functions/Set.ts -->
<g id="node14" class="node">
<title>../functions/Set.ts</title>
<path fill="none" stroke="#cfffac" d="M2386.83,-220C2386.83,-220 2282.17,-220 2282.17,-220 2278.33,-220 2274.5,-216.17 2274.5,-212.33 2274.5,-212.33 2274.5,-204.67 2274.5,-204.67 2274.5,-200.83 2278.33,-197 2282.17,-197 2282.17,-197 2386.83,-197 2386.83,-197 2390.67,-197 2394.5,-200.83 2394.5,-204.67 2394.5,-204.67 2394.5,-212.33 2394.5,-212.33 2394.5,-216.17 2390.67,-220 2386.83,-220"/>
<text text-anchor="middle" x="2334.5" y="-204.8" font-family="Arial" font-size="14.00" fill="#cfffac">../functions/Set.ts</text>
</g>
<!-- ../Log.ts&#45;&gt;../functions/Set.ts -->
<g id="edge17" class="edge">
<title>../Log.ts&#45;&gt;../functions/Set.ts</title>
<path fill="none" stroke="#757575" d="M2201.12,-206.08C2219.12,-206.41 2242.41,-206.83 2264.42,-207.24"/>
<polygon fill="#757575" stroke="#757575" points="2264.36,-210.74 2274.42,-207.42 2264.49,-203.74 2264.36,-210.74"/>
</g>
<!-- ../Message.ts -->
<g id="node15" class="node">
<title>../Message.ts</title>
<path fill="none" stroke="#c6c5fe" d="M1715.83,-1027C1715.83,-1027 1633.17,-1027 1633.17,-1027 1629.33,-1027 1625.5,-1023.17 1625.5,-1019.33 1625.5,-1019.33 1625.5,-1011.67 1625.5,-1011.67 1625.5,-1007.83 1629.33,-1004 1633.17,-1004 1633.17,-1004 1715.83,-1004 1715.83,-1004 1719.67,-1004 1723.5,-1007.83 1723.5,-1011.67 1723.5,-1011.67 1723.5,-1019.33 1723.5,-1019.33 1723.5,-1023.17 1719.67,-1027 1715.83,-1027"/>
<text text-anchor="middle" x="1674.5" y="-1011.8" font-family="Arial" font-size="14.00" fill="#c6c5fe">../Message.ts</text>
</g>
<!-- ../Message.ts&#45;&gt;../Error.ts -->
<g id="edge18" class="edge">
<title>../Message.ts&#45;&gt;../Error.ts</title>
<path fill="none" stroke="#757575" d="M1689.14,-1027.08C1732.78,-1062.89 1874.16,-1169.5 2010.5,-1169.5 2010.5,-1169.5 2010.5,-1169.5 2335.5,-1169.5 2417.31,-1169.5 2458.61,-1201.76 2518,-1145.5 2569.96,-1096.27 2584.37,-863.82 2587.65,-790.63"/>
<polygon fill="#757575" stroke="#757575" points="2591.16,-790.44 2588.09,-780.3 2584.17,-790.14 2591.16,-790.44"/>
</g>
<!-- ../NetworkedEntityServer.ts -->
<g id="node16" class="node">
<title>../NetworkedEntityServer.ts</title>
<path fill="none" stroke="#c6c5fe" d="M368.33,-217C368.33,-217 204.67,-217 204.67,-217 200.83,-217 197,-213.17 197,-209.33 197,-209.33 197,-201.67 197,-201.67 197,-197.83 200.83,-194 204.67,-194 204.67,-194 368.33,-194 368.33,-194 372.17,-194 376,-197.83 376,-201.67 376,-201.67 376,-209.33 376,-209.33 376,-213.17 372.17,-217 368.33,-217"/>
<text text-anchor="middle" x="286.5" y="-201.8" font-family="Arial" font-size="14.00" fill="#c6c5fe">../NetworkedEntityServer.ts</text>
</g>
<!-- ../NetworkedEntityServer.ts&#45;&gt;../Component.ts -->
<g id="edge19" class="edge">
<title>../NetworkedEntityServer.ts&#45;&gt;../Component.ts</title>
<path fill="none" stroke="#757575" d="M352.29,-217.06C360.28,-218.53 368.33,-220.03 376,-221.5 504.25,-246 533.43,-279.5 664,-279.5 664,-279.5 664,-279.5 1042.5,-279.5 1368.57,-279.5 1464.72,-283.06 1764,-412.5 1842.49,-446.45 1866.1,-459.31 1919,-526.5 1968.18,-588.96 1995.32,-681.7 2005.62,-723.14"/>
<polygon fill="#757575" stroke="#757575" points="2002.24,-724.06 2007.98,-732.97 2009.05,-722.43 2002.24,-724.06"/>
</g>
<!-- ../NetworkedEntityServer.ts&#45;&gt;../Error.ts -->
<g id="edge20" class="edge">
<title>../NetworkedEntityServer.ts&#45;&gt;../Error.ts</title>
<path fill="none" stroke="#757575" d="M320.27,-193.99C385.06,-172.29 534.5,-127.5 664,-127.5 664,-127.5 664,-127.5 2335.5,-127.5 2521.26,-127.5 2464.95,-325.48 2518,-503.5 2544.75,-593.28 2572.03,-701.61 2583.22,-746.93"/>
<polygon fill="#757575" stroke="#757575" points="2579.86,-747.93 2585.65,-756.81 2586.66,-746.26 2579.86,-747.93"/>
</g>
<!-- ../functions/Networking.ts -->
<g id="node17" class="node">
<title>../functions/Networking.ts</title>
<path fill="none" stroke="#c6c5fe" d="M571.33,-331C571.33,-331 419.67,-331 419.67,-331 415.83,-331 412,-327.17 412,-323.33 412,-323.33 412,-315.67 412,-315.67 412,-311.83 415.83,-308 419.67,-308 419.67,-308 571.33,-308 571.33,-308 575.17,-308 579,-311.83 579,-315.67 579,-315.67 579,-323.33 579,-323.33 579,-327.17 575.17,-331 571.33,-331"/>
<text text-anchor="middle" x="495.5" y="-315.8" font-family="Arial" font-size="14.00" fill="#c6c5fe">../functions/Networking.ts</text>
</g>
<!-- ../NetworkedEntityServer.ts&#45;&gt;../functions/Networking.ts -->
<g id="edge21" class="edge">
<title>../NetworkedEntityServer.ts&#45;&gt;../functions/Networking.ts</title>
<path fill="none" stroke="#757575" d="M303.83,-217.14C336.93,-240.72 409.08,-292.05 412,-293.5 420.59,-297.76 430.02,-301.51 439.35,-304.74"/>
<polygon fill="#757575" stroke="#757575" points="438.39,-308.11 448.98,-307.92 440.58,-301.46 438.39,-308.11"/>
</g>
<!-- ../util.ts -->
<g id="node18" class="node">
<title>../util.ts</title>
<path fill="none" stroke="#c6c5fe" d="M2033.33,-217C2033.33,-217 1989.67,-217 1989.67,-217 1985.83,-217 1982,-213.17 1982,-209.33 1982,-209.33 1982,-201.67 1982,-201.67 1982,-197.83 1985.83,-194 1989.67,-194 1989.67,-194 2033.33,-194 2033.33,-194 2037.17,-194 2041,-197.83 2041,-201.67 2041,-201.67 2041,-209.33 2041,-209.33 2041,-213.17 2037.17,-217 2033.33,-217"/>
<text text-anchor="middle" x="2011.5" y="-201.8" font-family="Arial" font-size="14.00" fill="#c6c5fe">../util.ts</text>
</g>
<!-- ../NetworkedEntityServer.ts&#45;&gt;../util.ts -->
<g id="edge22" class="edge">
<title>../NetworkedEntityServer.ts&#45;&gt;../util.ts</title>
<path fill="none" stroke="#757575" d="M376.12,-204.76C452.42,-204.19 565.46,-203.5 664,-203.5 664,-203.5 664,-203.5 1675.5,-203.5 1782.71,-203.5 1909.22,-204.54 1971.65,-205.12"/>
<polygon fill="#757575" stroke="#757575" points="1971.79,-208.62 1981.82,-205.21 1971.85,-201.62 1971.79,-208.62"/>
</g>
<!-- ../functions/Networking.ts&#45;&gt;../Component.ts -->
<g id="edge79" class="edge">
<title>../functions/Networking.ts&#45;&gt;../Component.ts</title>
<path fill="none" stroke="#757575" d="M548.29,-331.07C721.14,-369.83 1293.9,-499.52 1764,-620.5 1833.23,-638.32 1856.18,-629.38 1919,-663.5 1948.42,-679.48 1976.35,-706.55 1993.43,-724.95"/>
<polygon fill="#757575" stroke="#757575" points="1991.18,-727.67 2000.49,-732.73 1996.36,-722.97 1991.18,-727.67"/>
</g>
<!-- ../functions/Networking.ts&#45;&gt;../EntityManager.ts -->
<g id="edge80" class="edge">
<title>../functions/Networking.ts&#45;&gt;../EntityManager.ts</title>
<path fill="none" stroke="#757575" d="M579.15,-318.74C647.58,-318.17 747.36,-317.5 834.5,-317.5 834.5,-317.5 834.5,-317.5 1675.5,-317.5 1855.52,-317.5 1939.97,-290.95 2068,-417.5 2119.11,-468.02 2154.55,-696.06 2164.59,-767.82"/>
<polygon fill="#757575" stroke="#757575" points="2161.16,-768.51 2165.99,-777.94 2168.09,-767.56 2161.16,-768.51"/>
</g>
<!-- ../functions/Networking.ts&#45;&gt;../util.ts -->
<g id="edge82" class="edge">
<title>../functions/Networking.ts&#45;&gt;../util.ts</title>
<path fill="none" stroke="#757575" d="M525.81,-307.99C583.8,-286.29 717.67,-241.5 834.5,-241.5 834.5,-241.5 834.5,-241.5 1675.5,-241.5 1783.33,-241.5 1909.56,-222.83 1971.79,-212.38"/>
<polygon fill="#757575" stroke="#757575" points="1972.66,-215.79 1981.93,-210.66 1971.49,-208.89 1972.66,-215.79"/>
</g>
<!-- ../constants.ts -->
<g id="node24" class="node">
<title>../constants.ts</title>
<path fill="none" stroke="#ff6c60" d="M707.33,-897C707.33,-897 622.67,-897 622.67,-897 618.83,-897 615,-893.17 615,-889.33 615,-889.33 615,-881.67 615,-881.67 615,-877.83 618.83,-874 622.67,-874 622.67,-874 707.33,-874 707.33,-874 711.17,-874 715,-877.83 715,-881.67 715,-881.67 715,-889.33 715,-889.33 715,-893.17 711.17,-897 707.33,-897"/>
<text text-anchor="middle" x="665" y="-881.8" font-family="Arial" font-size="14.00" fill="#ff6c60">../constants.ts</text>
</g>
<!-- ../functions/Networking.ts&#45;&gt;../constants.ts -->
<g id="edge81" class="edge">
<title>../functions/Networking.ts&#45;&gt;../constants.ts</title>
<path fill="none" stroke="#757575" d="M499.92,-331.06C520.7,-401.26 629.94,-770.4 657.62,-863.94"/>
<polygon fill="#757575" stroke="#757575" points="654.32,-865.12 660.51,-873.72 661.03,-863.14 654.32,-865.12"/>
</g>
<!-- ../util.ts&#45;&gt;../Log.ts -->
<g id="edge103" class="edge">
<title>../util.ts&#45;&gt;../Log.ts</title>
<path fill="none" stroke="#757575" d="M2041.29,-205.5C2065.02,-205.5 2098.99,-205.5 2125.71,-205.5"/>
<polygon fill="#757575" stroke="#757575" points="2125.93,-209 2135.93,-205.5 2125.93,-202 2125.93,-209"/>
</g>
<!-- ../Query.ts -->
<g id="node19" class="node">
<title>../Query.ts</title>
<path fill="none" stroke="#c6c5fe" d="M1891.33,-947C1891.33,-947 1827.67,-947 1827.67,-947 1823.83,-947 1820,-943.17 1820,-939.33 1820,-939.33 1820,-931.67 1820,-931.67 1820,-927.83 1823.83,-924 1827.67,-924 1827.67,-924 1891.33,-924 1891.33,-924 1895.17,-924 1899,-927.83 1899,-931.67 1899,-931.67 1899,-939.33 1899,-939.33 1899,-943.17 1895.17,-947 1891.33,-947"/>
<text text-anchor="middle" x="1859.5" y="-931.8" font-family="Arial" font-size="14.00" fill="#c6c5fe">../Query.ts</text>
</g>
<!-- ../Query.ts&#45;&gt;../Component.ts -->
<g id="edge24" class="edge">
<title>../Query.ts&#45;&gt;../Component.ts</title>
<path fill="none" stroke="#757575" d="M1899.1,-924.28C1906.55,-920.59 1913.68,-915.77 1919,-909.5 1960.26,-860.81 1914.23,-819.59 1955,-770.5 1957.91,-767 1961.39,-763.94 1965.18,-761.28"/>
<polygon fill="#757575" stroke="#757575" points="1967.1,-764.21 1973.86,-756.05 1963.49,-758.21 1967.1,-764.21"/>
</g>
<!-- ../Query.ts&#45;&gt;../Debug.ts -->
<g id="edge25" class="edge">
<title>../Query.ts&#45;&gt;../Debug.ts</title>
<path fill="none" stroke="#757575" d="M1899.02,-926.79C1916.12,-923.07 1936.51,-918.82 1955,-915.5 2151.79,-880.12 2239.01,-968.08 2400,-849.5 2445.34,-816.11 2464.84,-748.48 2472.17,-713.52"/>
<polygon fill="#757575" stroke="#757575" points="2475.66,-713.89 2474.13,-703.41 2468.79,-712.55 2475.66,-713.89"/>
</g>
<!-- ../Query.ts&#45;&gt;../Observable.ts -->
<g id="edge26" class="edge">
<title>../Query.ts&#45;&gt;../Observable.ts</title>
<path fill="none" stroke="#757575" d="M1884.93,-923.85C1895.74,-918.27 1908.38,-911.14 1919,-903.5 1937.32,-890.32 2052.06,-781.48 2068,-765.5 2144.42,-688.9 2170.9,-675.1 2233,-586.5 2274.02,-527.98 2309.09,-450.52 2324.76,-413.7"/>
<polygon fill="#757575" stroke="#757575" points="2328.17,-414.61 2328.82,-404.03 2321.72,-411.9 2328.17,-414.61"/>
</g>
<!-- ../Rectangle.ts -->
<g id="node20" class="node">
<title>../Rectangle.ts</title>
<path fill="none" stroke="#cfffac" d="M2055.33,-947C2055.33,-947 1967.67,-947 1967.67,-947 1963.83,-947 1960,-943.17 1960,-939.33 1960,-939.33 1960,-931.67 1960,-931.67 1960,-927.83 1963.83,-924 1967.67,-924 1967.67,-924 2055.33,-924 2055.33,-924 2059.17,-924 2063,-927.83 2063,-931.67 2063,-931.67 2063,-939.33 2063,-939.33 2063,-943.17 2059.17,-947 2055.33,-947"/>
<text text-anchor="middle" x="2011.5" y="-931.8" font-family="Arial" font-size="14.00" fill="#cfffac">../Rectangle.ts</text>
</g>
<!-- ../Query.ts&#45;&gt;../Rectangle.ts -->
<g id="edge27" class="edge">
<title>../Query.ts&#45;&gt;../Rectangle.ts</title>
<path fill="none" stroke="#757575" d="M1899.13,-935.5C1914.44,-935.5 1932.42,-935.5 1949.41,-935.5"/>
<polygon fill="#757575" stroke="#757575" points="1949.83,-939 1959.83,-935.5 1949.83,-932 1949.83,-939"/>
</g>
<!-- ../System.ts -->
<g id="node21" class="node">
<title>../System.ts</title>
<path fill="none" stroke="#c6c5fe" d="M1895.83,-559C1895.83,-559 1823.17,-559 1823.17,-559 1819.33,-559 1815.5,-555.17 1815.5,-551.33 1815.5,-551.33 1815.5,-543.67 1815.5,-543.67 1815.5,-539.83 1819.33,-536 1823.17,-536 1823.17,-536 1895.83,-536 1895.83,-536 1899.67,-536 1903.5,-539.83 1903.5,-543.67 1903.5,-543.67 1903.5,-551.33 1903.5,-551.33 1903.5,-555.17 1899.67,-559 1895.83,-559"/>
<text text-anchor="middle" x="1859.5" y="-543.8" font-family="Arial" font-size="14.00" fill="#c6c5fe">../System.ts</text>
</g>
<!-- ../System.ts&#45;&gt;../Component.ts -->
<g id="edge28" class="edge">
<title>../System.ts&#45;&gt;../Component.ts</title>
<path fill="none" stroke="#757575" d="M1872.23,-559.33C1884.43,-571.85 1903.83,-592.41 1919,-611.5 1949.42,-649.77 1980.87,-697.64 1997.82,-724.25"/>
<polygon fill="#757575" stroke="#757575" points="1994.88,-726.15 2003.18,-732.73 2000.79,-722.41 1994.88,-726.15"/>
</g>
<!-- ../System.ts&#45;&gt;../Log.ts -->
<g id="edge29" class="edge">
<title>../System.ts&#45;&gt;../Log.ts</title>
<path fill="none" stroke="#757575" d="M1871.07,-535.73C1916.27,-485.37 2093.64,-287.78 2150.12,-224.86"/>
<polygon fill="#757575" stroke="#757575" points="2152.9,-227 2156.98,-217.22 2147.69,-222.33 2152.9,-227"/>
</g>
<!-- ../System.ts&#45;&gt;../util.ts -->
<g id="edge30" class="edge">
<title>../System.ts&#45;&gt;../util.ts</title>
<path fill="none" stroke="#757575" d="M1864.35,-535.82C1876.2,-500.23 1913.87,-390.33 1955,-303.5 1968.09,-275.86 1985.9,-245.41 1997.78,-225.91"/>
<polygon fill="#757575" stroke="#757575" points="2000.83,-227.62 2003.09,-217.27 1994.87,-223.96 2000.83,-227.62"/>
</g>
<!-- ../UIElement.ts -->
<g id="node22" class="node">
<title>../UIElement.ts</title>
<path fill="none" stroke="#c6c5fe" d="M2213.83,-311C2213.83,-311 2123.17,-311 2123.17,-311 2119.33,-311 2115.5,-307.17 2115.5,-303.33 2115.5,-303.33 2115.5,-295.67 2115.5,-295.67 2115.5,-291.83 2119.33,-288 2123.17,-288 2123.17,-288 2213.83,-288 2213.83,-288 2217.67,-288 2221.5,-291.83 2221.5,-295.67 2221.5,-295.67 2221.5,-303.33 2221.5,-303.33 2221.5,-307.17 2217.67,-311 2213.83,-311"/>
<text text-anchor="middle" x="2168.5" y="-295.8" font-family="Arial" font-size="14.00" fill="#c6c5fe">../UIElement.ts</text>
</g>
<!-- ../UIElement.ts&#45;&gt;../Observable.ts -->
<g id="edge31" class="edge">
<title>../UIElement.ts&#45;&gt;../Observable.ts</title>
<path fill="none" stroke="#757575" d="M2189.94,-311.09C2218.74,-327.42 2271.43,-357.3 2304.34,-375.96"/>
<polygon fill="#757575" stroke="#757575" points="2302.64,-379.02 2313.06,-380.91 2306.09,-372.93 2302.64,-379.02"/>
</g>
<!-- ../common.ts -->
<g id="node23" class="node">
<title>../common.ts</title>
<path fill="none" stroke="#cfffac" d="M326.33,-23C326.33,-23 246.67,-23 246.67,-23 242.83,-23 239,-19.17 239,-15.33 239,-15.33 239,-7.67 239,-7.67 239,-3.83 242.83,0 246.67,0 246.67,0 326.33,0 326.33,0 330.17,0 334,-3.83 334,-7.67 334,-7.67 334,-15.33 334,-15.33 334,-19.17 330.17,-23 326.33,-23"/>
<text text-anchor="middle" x="286.5" y="-7.8" font-family="Arial" font-size="14.00" fill="#cfffac">../common.ts</text>
</g>
<!-- ../constants.ts&#45;&gt;../EntityManager.ts -->
<g id="edge32" class="edge">
<title>../constants.ts&#45;&gt;../EntityManager.ts</title>
<path fill="none" stroke="#757575" d="M667.21,-897.13C671.78,-936.15 690.86,-1064.67 751,-1148.5 844.42,-1278.72 880.23,-1363.5 1040.5,-1363.5 1040.5,-1363.5 1040.5,-1363.5 1675.5,-1363.5 1875.48,-1363.5 1949.94,-1304.91 2068,-1143.5 2146.25,-1036.52 2163.02,-870.22 2166.57,-811.19"/>
<polygon fill="#757575" stroke="#757575" points="2170.06,-811.33 2167.1,-801.16 2163.07,-810.96 2170.06,-811.33"/>
</g>
<!-- ../constants.ts&#45;&gt;../HeadingDirection.ts -->
<g id="edge33" class="edge">
<title>../constants.ts&#45;&gt;../HeadingDirection.ts</title>
<path fill="none" stroke="#757575" d="M673.51,-897.08C687.31,-917.83 718.29,-962.11 751,-993.5 832.09,-1071.3 850.77,-1102.08 956,-1141.5 1020.62,-1165.7 1099.08,-1171.24 1157.06,-1171.27"/>
<polygon fill="#757575" stroke="#757575" points="1157.3,-1174.77 1167.28,-1171.22 1157.26,-1167.77 1157.3,-1174.77"/>
</g>
<!-- ../constants.ts&#45;&gt;../Input.ts -->
<g id="edge34" class="edge">
<title>../constants.ts&#45;&gt;../Input.ts</title>
<path fill="none" stroke="#757575" d="M668.5,-897.09C675.87,-928.92 700.28,-1018.92 751,-1073.5 878.96,-1211.21 1099.86,-1285.15 1194.42,-1311.82"/>
<polygon fill="#757575" stroke="#757575" points="1193.67,-1315.24 1204.25,-1314.55 1195.55,-1308.5 1193.67,-1315.24"/>
</g>
<!-- ../entities/BlockEntity.ts -->
<g id="node25" class="node">
<title>../entities/BlockEntity.ts</title>
<path fill="none" stroke="#ff6c60" d="M1310.33,-909C1310.33,-909 1170.67,-909 1170.67,-909 1166.83,-909 1163,-905.17 1163,-901.33 1163,-901.33 1163,-893.67 1163,-893.67 1163,-889.83 1166.83,-886 1170.67,-886 1170.67,-886 1310.33,-886 1310.33,-886 1314.17,-886 1318,-889.83 1318,-893.67 1318,-893.67 1318,-901.33 1318,-901.33 1318,-905.17 1314.17,-909 1310.33,-909"/>
<text text-anchor="middle" x="1240.5" y="-893.8" font-family="Arial" font-size="14.00" fill="#ff6c60">../entities/BlockEntity.ts</text>
</g>
<!-- ../constants.ts&#45;&gt;../entities/BlockEntity.ts -->
<g id="edge35" class="edge">
<title>../constants.ts&#45;&gt;../entities/BlockEntity.ts</title>
<path fill="none" stroke="#757575" d="M715.39,-882.54C812.78,-881.28 1030.66,-885.5 1152.61,-890.68"/>
<polygon fill="#757575" stroke="#757575" points="1152.52,-894.18 1162.66,-891.12 1152.82,-887.18 1152.52,-894.18"/>
</g>
<!-- ../entities/MonsterEntity.ts -->
<g id="node26" class="node">
<title>../entities/MonsterEntity.ts</title>
<path fill="none" stroke="#ff6c60" d="M1119.33,-713C1119.33,-713 963.67,-713 963.67,-713 959.83,-713 956,-709.17 956,-705.33 956,-705.33 956,-697.67 956,-697.67 956,-693.83 959.83,-690 963.67,-690 963.67,-690 1119.33,-690 1119.33,-690 1123.17,-690 1127,-693.83 1127,-697.67 1127,-697.67 1127,-705.33 1127,-705.33 1127,-709.17 1123.17,-713 1119.33,-713"/>
<text text-anchor="middle" x="1041.5" y="-697.8" font-family="Arial" font-size="14.00" fill="#ff6c60">../entities/MonsterEntity.ts</text>
</g>
<!-- ../constants.ts&#45;&gt;../entities/MonsterEntity.ts -->
<g id="edge36" class="edge">
<title>../constants.ts&#45;&gt;../entities/MonsterEntity.ts</title>
<path fill="none" stroke="#757575" d="M669.05,-873.73C678.02,-847.32 706.55,-786.01 751,-756.5 808.67,-718.22 885.63,-702.5 945.71,-697.5"/>
<polygon fill="#757575" stroke="#757575" points="946.24,-700.97 955.96,-696.74 945.72,-693.99 946.24,-700.97"/>
</g>
<!-- ../entities/PlayerPrefab.ts -->
<g id="node27" class="node">
<title>../entities/PlayerPrefab.ts</title>
<path fill="none" stroke="#ff6c60" d="M1117.33,-1007C1117.33,-1007 965.67,-1007 965.67,-1007 961.83,-1007 958,-1003.17 958,-999.33 958,-999.33 958,-991.67 958,-991.67 958,-987.83 961.83,-984 965.67,-984 965.67,-984 1117.33,-984 1117.33,-984 1121.17,-984 1125,-987.83 1125,-991.67 1125,-991.67 1125,-999.33 1125,-999.33 1125,-1003.17 1121.17,-1007 1117.33,-1007"/>
<text text-anchor="middle" x="1041.5" y="-991.8" font-family="Arial" font-size="14.00" fill="#ff6c60">../entities/PlayerPrefab.ts</text>
</g>
<!-- ../constants.ts&#45;&gt;../entities/PlayerPrefab.ts -->
<g id="edge37" class="edge">
<title>../constants.ts&#45;&gt;../entities/PlayerPrefab.ts</title>
<path fill="none" stroke="#757575" d="M715.04,-890.41C766.46,-900.62 849.43,-921.64 920,-943.5 953.75,-953.95 992.09,-968.02 1016.28,-979.33"/>
<polygon fill="#757575" stroke="#757575" points="1014.9,-982.56 1025.42,-983.83 1018,-976.28 1014.9,-982.56"/>
</g>
<!-- ../entities/RoosterEntity.ts -->
<g id="node28" class="node">
<title>../entities/RoosterEntity.ts</title>
<path fill="none" stroke="#ff6c60" d="M912.33,-984C912.33,-984 758.67,-984 758.67,-984 754.83,-984 751,-980.17 751,-976.33 751,-976.33 751,-968.67 751,-968.67 751,-964.83 754.83,-961 758.67,-961 758.67,-961 912.33,-961 912.33,-961 916.17,-961 920,-964.83 920,-968.67 920,-968.67 920,-976.33 920,-976.33 920,-980.17 916.17,-984 912.33,-984"/>
<text text-anchor="middle" x="835.5" y="-968.8" font-family="Arial" font-size="14.00" fill="#ff6c60">../entities/RoosterEntity.ts</text>
</g>
<!-- ../constants.ts&#45;&gt;../entities/RoosterEntity.ts -->
<g id="edge38" class="edge">
<title>../constants.ts&#45;&gt;../entities/RoosterEntity.ts</title>
<path fill="none" stroke="#757575" d="M691.86,-897C708.24,-907.4 730.19,-921.96 751,-932.5 769.68,-941.97 791.96,-950.09 808.81,-956.98"/>
<polygon fill="#757575" stroke="#757575" points="807.46,-960.21 818.03,-960.89 810.19,-953.76 807.46,-960.21"/>
</g>
<!-- ../entities/WallEntity.ts -->
<g id="node29" class="node">
<title>../entities/WallEntity.ts</title>
<path fill="none" stroke="#ff6c60" d="M1306.83,-791C1306.83,-791 1174.17,-791 1174.17,-791 1170.33,-791 1166.5,-787.17 1166.5,-783.33 1166.5,-783.33 1166.5,-775.67 1166.5,-775.67 1166.5,-771.83 1170.33,-768 1174.17,-768 1174.17,-768 1306.83,-768 1306.83,-768 1310.67,-768 1314.5,-771.83 1314.5,-775.67 1314.5,-775.67 1314.5,-783.33 1314.5,-783.33 1314.5,-787.17 1310.67,-791 1306.83,-791"/>
<text text-anchor="middle" x="1240.5" y="-775.8" font-family="Arial" font-size="14.00" fill="#ff6c60">../entities/WallEntity.ts</text>
</g>
<!-- ../constants.ts&#45;&gt;../entities/WallEntity.ts -->
<g id="edge39" class="edge">
<title>../constants.ts&#45;&gt;../entities/WallEntity.ts</title>
<path fill="none" stroke="#757575" d="M708.17,-873.97C802.4,-852.98 1031.48,-810.24 1155.85,-790.03"/>
<polygon fill="#757575" stroke="#757575" points="1156.77,-793.42 1166.08,-788.38 1155.65,-786.51 1156.77,-793.42"/>
</g>
<!-- ../entities/BlockEntity.ts&#45;&gt;../Component.ts -->
<g id="edge40" class="edge">
<title>../entities/BlockEntity.ts&#45;&gt;../Component.ts</title>
<path fill="none" stroke="#757575" d="M1279.35,-885.96C1291.97,-881.51 1305.88,-875.93 1318,-869.5 1335.43,-860.24 1335.29,-849.78 1354,-843.5 1473.09,-803.54 1812.46,-893.04 1919,-826.5 1944.6,-810.51 1932.04,-786.82 1955.5,-762.86"/>
<polygon fill="#757575" stroke="#757575" points="1957.97,-765.35 1963.14,-756.11 1953.33,-760.11 1957.97,-765.35"/>
</g>
<!-- ../entities/BlockEntity.ts&#45;&gt;../EntityManager.ts -->
<g id="edge41" class="edge">
<title>../entities/BlockEntity.ts&#45;&gt;../EntityManager.ts</title>
<path fill="none" stroke="#757575" d="M1261.82,-909.07C1284.04,-921.45 1320.9,-941.25 1354,-955.5 1586.99,-1055.83 1672.98,-1098.37 1919,-1036.5 1991.89,-1018.17 2013.68,-1008.45 2068,-956.5 2113.31,-913.16 2145.26,-844.78 2159.38,-810.52"/>
<polygon fill="#757575" stroke="#757575" points="2162.7,-811.63 2163.18,-801.05 2156.2,-809.02 2162.7,-811.63"/>
</g>
<!-- ../entities/BlockEntity.ts&#45;&gt;../Message.ts -->
<g id="edge42" class="edge">
<title>../entities/BlockEntity.ts&#45;&gt;../Message.ts</title>
<path fill="none" stroke="#757575" d="M1306.8,-909.01C1383.6,-923.06 1506.06,-947.2 1549,-965.5 1566.69,-973.04 1567.58,-981.36 1585,-989.5 1594.57,-993.97 1605.08,-997.86 1615.41,-1001.17"/>
<polygon fill="#757575" stroke="#757575" points="1614.63,-1004.6 1625.22,-1004.17 1616.68,-997.9 1614.63,-1004.6"/>
</g>
<!-- ../entities/BlockEntity.ts&#45;&gt;../constants.ts -->
<g id="edge43" class="edge">
<title>../entities/BlockEntity.ts&#45;&gt;../constants.ts</title>
<path fill="none" stroke="#757575" d="M1162.66,-900.67C1046.86,-901.02 830.06,-896.33 725.46,-891.06"/>
<polygon fill="#757575" stroke="#757575" points="725.56,-887.56 715.39,-890.53 725.2,-894.55 725.56,-887.56"/>
</g>
<!-- ../messages.ts -->
<g id="node30" class="node">
<title>../messages.ts</title>
<path fill="none" stroke="#c6c5fe" d="M1495.83,-875C1495.83,-875 1407.17,-875 1407.17,-875 1403.33,-875 1399.5,-871.17 1399.5,-867.33 1399.5,-867.33 1399.5,-859.67 1399.5,-859.67 1399.5,-855.83 1403.33,-852 1407.17,-852 1407.17,-852 1495.83,-852 1495.83,-852 1499.67,-852 1503.5,-855.83 1503.5,-859.67 1503.5,-859.67 1503.5,-867.33 1503.5,-867.33 1503.5,-871.17 1499.67,-875 1495.83,-875"/>
<text text-anchor="middle" x="1451.5" y="-859.8" font-family="Arial" font-size="14.00" fill="#c6c5fe">../messages.ts</text>
</g>
<!-- ../entities/BlockEntity.ts&#45;&gt;../messages.ts -->
<g id="edge44" class="edge">
<title>../entities/BlockEntity.ts&#45;&gt;../messages.ts</title>
<path fill="none" stroke="#757575" d="M1312.26,-885.99C1337.23,-881.93 1365.08,-877.4 1389.21,-873.47"/>
<polygon fill="#757575" stroke="#757575" points="1389.99,-876.89 1399.3,-871.83 1388.87,-869.98 1389.99,-876.89"/>
</g>
<!-- ../systems/BehaviorSystem.ts -->
<g id="node31" class="node">
<title>../systems/BehaviorSystem.ts</title>
<path fill="none" stroke="#c6c5fe" d="M1541.33,-793C1541.33,-793 1361.67,-793 1361.67,-793 1357.83,-793 1354,-789.17 1354,-785.33 1354,-785.33 1354,-777.67 1354,-777.67 1354,-773.83 1357.83,-770 1361.67,-770 1361.67,-770 1541.33,-770 1541.33,-770 1545.17,-770 1549,-773.83 1549,-777.67 1549,-777.67 1549,-785.33 1549,-785.33 1549,-789.17 1545.17,-793 1541.33,-793"/>
<text text-anchor="middle" x="1451.5" y="-777.8" font-family="Arial" font-size="14.00" fill="#c6c5fe">../systems/BehaviorSystem.ts</text>
</g>
<!-- ../entities/BlockEntity.ts&#45;&gt;../systems/BehaviorSystem.ts -->
<g id="edge45" class="edge">
<title>../entities/BlockEntity.ts&#45;&gt;../systems/BehaviorSystem.ts</title>
<path fill="none" stroke="#757575" d="M1292.34,-885.96C1301.5,-882.35 1310.51,-877.63 1318,-871.5 1342.65,-851.31 1328.9,-829.13 1354,-809.5 1360.57,-804.36 1368.05,-800.17 1375.87,-796.75"/>
<polygon fill="#757575" stroke="#757575" points="1377.16,-800 1385.17,-793.07 1374.59,-793.49 1377.16,-800"/>
</g>
<!-- ../entities/MonsterEntity.ts&#45;&gt;../Component.ts -->
<g id="edge46" class="edge">
<title>../entities/MonsterEntity.ts&#45;&gt;../Component.ts</title>
<path fill="none" stroke="#757575" d="M1054.58,-689.88C1074.95,-671.17 1118.32,-635.11 1163,-621.5 1244.21,-596.77 1269.11,-620.72 1354,-620.5 1440.67,-620.27 1462.89,-610.74 1549,-620.5 1716.65,-639.51 1758.54,-653.33 1919,-705.5 1938.63,-711.88 1959.88,-720.81 1976.95,-728.51"/>
<polygon fill="#757575" stroke="#757575" points="1975.93,-731.89 1986.48,-732.88 1978.85,-725.53 1975.93,-731.89"/>
</g>
<!-- ../entities/MonsterEntity.ts&#45;&gt;../EntityManager.ts -->
<g id="edge47" class="edge">
<title>../entities/MonsterEntity.ts&#45;&gt;../EntityManager.ts</title>
<path fill="none" stroke="#757575" d="M1053.64,-689.84C1073.63,-669.61 1117.74,-628.02 1163,-605.5 1466.88,-454.32 1583.23,-447.9 1919,-497.5 1987.43,-507.61 2016.94,-495.83 2068,-542.5 2136.08,-604.73 2158.48,-719.98 2165.05,-767.81"/>
<polygon fill="#757575" stroke="#757575" points="2161.6,-768.48 2166.34,-777.96 2168.55,-767.6 2161.6,-768.48"/>
</g>
<!-- ../entities/MonsterEntity.ts&#45;&gt;../HeadingDirection.ts -->
<g id="edge48" class="edge">
<title>../entities/MonsterEntity.ts&#45;&gt;../HeadingDirection.ts</title>
<path fill="none" stroke="#757575" d="M1047.37,-713.02C1073.4,-774.59 1196.19,-1065.05 1230.55,-1146.32"/>
<polygon fill="#757575" stroke="#757575" points="1227.51,-1148.12 1234.62,-1155.97 1233.95,-1145.39 1227.51,-1148.12"/>
</g>
<!-- ../entities/MonsterEntity.ts&#45;&gt;../Message.ts -->
<g id="edge49" class="edge">
<title>../entities/MonsterEntity.ts&#45;&gt;../Message.ts</title>
<path fill="none" stroke="#757575" d="M1089.6,-689.99C1190.28,-668.49 1427.17,-635.1 1549,-761.5 1598.68,-813.04 1551.78,-855.08 1585,-918.5 1601.55,-950.09 1630.92,-979.3 1651.27,-997.23"/>
<polygon fill="#757575" stroke="#757575" points="1649.24,-1000.11 1659.1,-1003.98 1653.81,-994.81 1649.24,-1000.11"/>
</g>
<!-- ../entities/MonsterEntity.ts&#45;&gt;../constants.ts -->
<g id="edge50" class="edge">
<title>../entities/MonsterEntity.ts&#45;&gt;../constants.ts</title>
<path fill="none" stroke="#757575" d="M955.96,-711.65C894.6,-718.75 812,-734 751,-774.5 716.48,-797.41 691.57,-839.49 677.96,-864.94"/>
<polygon fill="#757575" stroke="#757575" points="674.85,-863.33 673.3,-873.81 681.05,-866.59 674.85,-863.33"/>
</g>
<!-- ../entities/MonsterEntity.ts&#45;&gt;../entities/WallEntity.ts -->
<g id="edge51" class="edge">
<title>../entities/MonsterEntity.ts&#45;&gt;../entities/WallEntity.ts</title>
<path fill="none" stroke="#757575" d="M1067.65,-713.05C1091.86,-724 1129.62,-740.65 1163,-753.5 1172.92,-757.32 1183.67,-761.16 1193.89,-764.66"/>
<polygon fill="#757575" stroke="#757575" points="1192.89,-768.02 1203.48,-767.92 1195.14,-761.39 1192.89,-768.02"/>
</g>
<!-- ../entities/MonsterEntity.ts&#45;&gt;../messages.ts -->
<g id="edge52" class="edge">
<title>../entities/MonsterEntity.ts&#45;&gt;../messages.ts</title>
<path fill="none" stroke="#757575" d="M1099.68,-713.05C1179,-729.15 1313.29,-756.67 1318,-759.5 1339.37,-772.33 1335.24,-786.09 1354,-802.5 1373.96,-819.96 1399.42,-835.84 1419.17,-847.01"/>
<polygon fill="#757575" stroke="#757575" points="1417.64,-850.16 1428.09,-851.95 1421.04,-844.04 1417.64,-850.16"/>
</g>
<!-- ../entities/MonsterEntity.ts&#45;&gt;../systems/BehaviorSystem.ts -->
<g id="edge54" class="edge">
<title>../entities/MonsterEntity.ts&#45;&gt;../systems/BehaviorSystem.ts</title>
<path fill="none" stroke="#757575" d="M1127.11,-702.06C1182.19,-704.08 1255.21,-709.91 1318,-725.5 1354.27,-734.5 1393.4,-752.11 1419.66,-765.19"/>
<polygon fill="#757575" stroke="#757575" points="1418.23,-768.39 1428.73,-769.78 1421.39,-762.14 1418.23,-768.39"/>
</g>
<!-- ../systems/ActionSystem.ts -->
<g id="node32" class="node">
<title>../systems/ActionSystem.ts</title>
<path fill="none" stroke="#c6c5fe" d="M1756.33,-707C1756.33,-707 1592.67,-707 1592.67,-707 1588.83,-707 1585,-703.17 1585,-699.33 1585,-699.33 1585,-691.67 1585,-691.67 1585,-687.83 1588.83,-684 1592.67,-684 1592.67,-684 1756.33,-684 1756.33,-684 1760.17,-684 1764,-687.83 1764,-691.67 1764,-691.67 1764,-699.33 1764,-699.33 1764,-703.17 1760.17,-707 1756.33,-707"/>
<text text-anchor="middle" x="1674.5" y="-691.8" font-family="Arial" font-size="14.00" fill="#c6c5fe">../systems/ActionSystem.ts</text>
</g>
<!-- ../entities/MonsterEntity.ts&#45;&gt;../systems/ActionSystem.ts -->
<g id="edge53" class="edge">
<title>../entities/MonsterEntity.ts&#45;&gt;../systems/ActionSystem.ts</title>
<path fill="none" stroke="#757575" d="M1062.55,-689.81C1085.81,-676.98 1125.74,-657.2 1163,-649.5 1331.01,-614.8 1380.12,-619.3 1549,-649.5 1557.77,-651.07 1601.42,-667.55 1634.58,-680.34"/>
<polygon fill="#757575" stroke="#757575" points="1633.46,-683.66 1644.05,-684 1635.99,-677.13 1633.46,-683.66"/>
</g>
<!-- ../systems/LogSystem.ts -->
<g id="node33" class="node">
<title>../systems/LogSystem.ts</title>
<path fill="none" stroke="#c6c5fe" d="M1748.83,-445C1748.83,-445 1600.17,-445 1600.17,-445 1596.33,-445 1592.5,-441.17 1592.5,-437.33 1592.5,-437.33 1592.5,-429.67 1592.5,-429.67 1592.5,-425.83 1596.33,-422 1600.17,-422 1600.17,-422 1748.83,-422 1748.83,-422 1752.67,-422 1756.5,-425.83 1756.5,-429.67 1756.5,-429.67 1756.5,-437.33 1756.5,-437.33 1756.5,-441.17 1752.67,-445 1748.83,-445"/>
<text text-anchor="middle" x="1674.5" y="-429.8" font-family="Arial" font-size="14.00" fill="#c6c5fe">../systems/LogSystem.ts</text>
</g>
<!-- ../entities/MonsterEntity.ts&#45;&gt;../systems/LogSystem.ts -->
<g id="edge55" class="edge">
<title>../entities/MonsterEntity.ts&#45;&gt;../systems/LogSystem.ts</title>
<path fill="none" stroke="#757575" d="M1044.15,-689.97C1050.59,-649.76 1078,-515.17 1163,-459.5 1229.68,-415.83 1454.14,-420.64 1582.12,-427.4"/>
<polygon fill="#757575" stroke="#757575" points="1582.13,-430.91 1592.3,-427.95 1582.51,-423.92 1582.13,-430.91"/>
</g>
<!-- ../entities/PlayerPrefab.ts&#45;&gt;../Action.ts -->
<g id="edge56" class="edge">
<title>../entities/PlayerPrefab.ts&#45;&gt;../Action.ts</title>
<path fill="none" stroke="#757575" d="M1095.63,-1007.01C1244.02,-1037.86 1658.84,-1114.93 1764,-1036.5 1808.98,-1002.96 1780.88,-968.25 1800,-915.5 1815.07,-873.93 1836.3,-826.82 1848.61,-800.38"/>
<polygon fill="#757575" stroke="#757575" points="1851.78,-801.86 1852.86,-791.32 1845.44,-798.89 1851.78,-801.86"/>
</g>
<!-- ../entities/PlayerPrefab.ts&#45;&gt;../Component.ts -->
<g id="edge57" class="edge">
<title>../entities/PlayerPrefab.ts&#45;&gt;../Component.ts</title>
<path fill="none" stroke="#757575" d="M1066.43,-1007.14C1179.52,-1060.31 1665.49,-1267.75 1919,-1036.5 1960.45,-998.69 1938.34,-969.08 1955,-915.5 1971.82,-861.41 1992.69,-798.07 2003.41,-765.78"/>
<polygon fill="#757575" stroke="#757575" points="2006.8,-766.67 2006.63,-756.08 2000.16,-764.46 2006.8,-766.67"/>
</g>
<!-- ../entities/PlayerPrefab.ts&#45;&gt;../EntityManager.ts -->
<g id="edge58" class="edge">
<title>../entities/PlayerPrefab.ts&#45;&gt;../EntityManager.ts</title>
<path fill="none" stroke="#757575" d="M1045.66,-1007.08C1055.83,-1041.85 1091.31,-1145.59 1163,-1188.5 1272.88,-1254.26 1322.44,-1207.5 1450.5,-1207.5 1450.5,-1207.5 1450.5,-1207.5 1675.5,-1207.5 1871.69,-1207.5 1933.57,-1148.4 2068,-1005.5 2122.92,-947.11 2151.77,-853.05 2162.5,-811.01"/>
<polygon fill="#757575" stroke="#757575" points="2165.96,-811.59 2164.95,-801.05 2159.16,-809.92 2165.96,-811.59"/>
</g>
<!-- ../entities/PlayerPrefab.ts&#45;&gt;../HeadingDirection.ts -->
<g id="edge59" class="edge">
<title>../entities/PlayerPrefab.ts&#45;&gt;../HeadingDirection.ts</title>
<path fill="none" stroke="#757575" d="M1055.39,-1007.31C1077.3,-1027.33 1123.29,-1069.11 1163,-1103.5 1181.11,-1119.19 1202,-1136.61 1217.36,-1149.32"/>
<polygon fill="#757575" stroke="#757575" points="1215.34,-1152.18 1225.28,-1155.85 1219.79,-1146.78 1215.34,-1152.18"/>
</g>
<!-- ../entities/PlayerPrefab.ts&#45;&gt;../Input.ts -->
<g id="edge60" class="edge">
<title>../entities/PlayerPrefab.ts&#45;&gt;../Input.ts</title>
<path fill="none" stroke="#757575" d="M1047.92,-1007.14C1063.9,-1041.11 1112.87,-1142.72 1163,-1221.5 1182.13,-1251.57 1207.46,-1284.16 1223.62,-1304.21"/>
<polygon fill="#757575" stroke="#757575" points="1220.92,-1306.43 1229.94,-1311.99 1226.35,-1302.02 1220.92,-1306.43"/>
</g>
<!-- ../entities/PlayerPrefab.ts&#45;&gt;../Message.ts -->
<g id="edge61" class="edge">
<title>../entities/PlayerPrefab.ts&#45;&gt;../Message.ts</title>
<path fill="none" stroke="#757575" d="M1125.32,-998.12C1255.01,-1002.24 1502.83,-1010.09 1615.35,-1013.66"/>
<polygon fill="#757575" stroke="#757575" points="1615.38,-1017.16 1625.48,-1013.98 1615.6,-1010.16 1615.38,-1017.16"/>
</g>
<!-- ../entities/PlayerPrefab.ts&#45;&gt;../constants.ts -->
<g id="edge62" class="edge">
<title>../entities/PlayerPrefab.ts&#45;&gt;../constants.ts</title>
<path fill="none" stroke="#757575" d="M987.74,-983.95C966.78,-976.95 942.38,-968.43 920,-961.5 842.97,-937.64 751.18,-914.78 701.76,-899.95"/>
<polygon fill="#757575" stroke="#757575" points="702.76,-896.6 692.17,-897 700.7,-903.29 702.76,-896.6"/>
</g>
<!-- ../entities/PlayerPrefab.ts&#45;&gt;../entities/WallEntity.ts -->
<g id="edge63" class="edge">
<title>../entities/PlayerPrefab.ts&#45;&gt;../entities/WallEntity.ts</title>
<path fill="none" stroke="#757575" d="M1050.53,-983.79C1068.89,-957.38 1116.01,-891.75 1163,-843.5 1179.41,-826.65 1199.95,-809.66 1215.61,-797.43"/>
<polygon fill="#757575" stroke="#757575" points="1217.97,-800.03 1223.75,-791.15 1213.69,-794.48 1217.97,-800.03"/>
</g>
<!-- ../entities/PlayerPrefab.ts&#45;&gt;../messages.ts -->
<g id="edge64" class="edge">
<title>../entities/PlayerPrefab.ts&#45;&gt;../messages.ts</title>
<path fill="none" stroke="#757575" d="M1125.07,-991.52C1181.09,-986.62 1255.96,-975.73 1318,-951.5 1361.22,-934.62 1404.78,-902 1429.62,-881.56"/>
<polygon fill="#757575" stroke="#757575" points="1431.87,-884.24 1437.29,-875.14 1427.38,-878.87 1431.87,-884.24"/>
</g>
<!-- ../entities/PlayerPrefab.ts&#45;&gt;../systems/BehaviorSystem.ts -->
<g id="edge65" class="edge">
<title>../entities/PlayerPrefab.ts&#45;&gt;../systems/BehaviorSystem.ts</title>
<path fill="none" stroke="#757575" d="M1054.59,-983.88C1071.04,-968.04 1101.37,-938.75 1127,-913.5 1143.12,-897.62 1143.49,-888.96 1163,-877.5 1224.75,-841.24 1252.98,-863.5 1318,-833.5 1335.46,-825.44 1336.56,-817.61 1354,-809.5 1365.36,-804.22 1377.94,-799.7 1390.16,-795.93"/>
<polygon fill="#757575" stroke="#757575" points="1391.25,-799.25 1399.85,-793.06 1389.27,-792.54 1391.25,-799.25"/>
</g>
<!-- ../entities/RoosterEntity.ts&#45;&gt;../Component.ts -->
<g id="edge66" class="edge">
<title>../entities/RoosterEntity.ts&#45;&gt;../Component.ts</title>
<path fill="none" stroke="#757575" d="M846.91,-984.08C884.57,-1025.08 1019.14,-1163.88 1163,-1219.5 1282.67,-1265.77 1322.2,-1245.5 1450.5,-1245.5 1450.5,-1245.5 1450.5,-1245.5 1675.5,-1245.5 1804.99,-1245.5 1845.98,-1192.44 1919,-1085.5 1962.55,-1021.72 1935.05,-990.11 1955,-915.5 1969.56,-861.05 1991.19,-798.33 2002.68,-766.1"/>
<polygon fill="#757575" stroke="#757575" points="2006.08,-766.99 2006.16,-756.39 1999.49,-764.63 2006.08,-766.99"/>
</g>
<!-- ../entities/RoosterEntity.ts&#45;&gt;../EntityManager.ts -->
<g id="edge67" class="edge">
<title>../entities/RoosterEntity.ts&#45;&gt;../EntityManager.ts</title>
<path fill="none" stroke="#757575" d="M848.74,-984.02C866.43,-1001.22 899.31,-1035.27 920,-1069.5 942.5,-1106.72 925.64,-1129.36 956,-1160.5 1025.79,-1232.08 1065.72,-1225.48 1163,-1248.5 1422.98,-1310.02 1506.93,-1332.22 1764,-1259.5 1916.19,-1216.45 1968.55,-1197.48 2068,-1074.5 2134.48,-992.29 2157.97,-862.66 2164.95,-811.4"/>
<polygon fill="#757575" stroke="#757575" points="2168.46,-811.53 2166.25,-801.17 2161.51,-810.65 2168.46,-811.53"/>
</g>
<!-- ../entities/RoosterEntity.ts&#45;&gt;../Message.ts -->
<g id="edge68" class="edge">
<title>../entities/RoosterEntity.ts&#45;&gt;../Message.ts</title>
<path fill="none" stroke="#757575" d="M905.62,-984.03C910.57,-985.63 915.41,-987.44 920,-989.5 938.24,-997.69 937.07,-1010.03 956,-1016.5 1189.03,-1096.13 1490.03,-1052.18 1615.06,-1028.03"/>
<polygon fill="#757575" stroke="#757575" points="1616.04,-1031.4 1625.18,-1026.04 1614.69,-1024.53 1616.04,-1031.4"/>
</g>
<!-- ../entities/RoosterEntity.ts&#45;&gt;../constants.ts -->
<g id="edge69" class="edge">
<title>../entities/RoosterEntity.ts&#45;&gt;../constants.ts</title>
<path fill="none" stroke="#757575" d="M774.05,-960.84C766.17,-957.7 758.31,-954.2 751,-950.5 725.5,-937.58 698.28,-918.62 681.7,-904.15"/>
<polygon fill="#757575" stroke="#757575" points="683.77,-901.29 674.06,-897.04 679,-906.42 683.77,-901.29"/>
</g>
<!-- ../entities/RoosterEntity.ts&#45;&gt;../entities/PlayerPrefab.ts -->
<g id="edge70" class="edge">
<title>../entities/RoosterEntity.ts&#45;&gt;../entities/PlayerPrefab.ts</title>
<path fill="none" stroke="#757575" d="M920.06,-981.92C929.19,-982.95 938.53,-984 947.76,-985.04"/>
<polygon fill="#757575" stroke="#757575" points="947.4,-988.53 957.73,-986.17 948.18,-981.57 947.4,-988.53"/>
</g>
<!-- ../entities/RoosterEntity.ts&#45;&gt;../messages.ts -->
<g id="edge71" class="edge">
<title>../entities/RoosterEntity.ts&#45;&gt;../messages.ts</title>
<path fill="none" stroke="#757575" d="M920.43,-970.22C1017.54,-965.96 1181.57,-953.71 1318,-918.5 1353.87,-909.24 1392.78,-892.18 1419.1,-879.5"/>
<polygon fill="#757575" stroke="#757575" points="1420.75,-882.59 1428.19,-875.05 1417.67,-876.3 1420.75,-882.59"/>
</g>
<!-- ../entities/RoosterEntity.ts&#45;&gt;../systems/BehaviorSystem.ts -->
<g id="edge72" class="edge">
<title>../entities/RoosterEntity.ts&#45;&gt;../systems/BehaviorSystem.ts</title>
<path fill="none" stroke="#757575" d="M858.81,-960.92C910.75,-934.44 1044.37,-868.99 1163,-833.5 1200.05,-822.41 1294.98,-806.08 1365.69,-794.69"/>
<polygon fill="#757575" stroke="#757575" points="1366.61,-798.09 1375.93,-793.05 1365.51,-791.17 1366.61,-798.09"/>
</g>
<!-- ../entities/WallEntity.ts&#45;&gt;../Component.ts -->
<g id="edge73" class="edge">
<title>../entities/WallEntity.ts&#45;&gt;../Component.ts</title>
<path fill="none" stroke="#757575" d="M1304.09,-767.98C1320.29,-765.41 1337.75,-763 1354,-761.5 1569.39,-741.57 1826.09,-741.84 1944.58,-743.32"/>
<polygon fill="#757575" stroke="#757575" points="1944.54,-746.82 1954.58,-743.45 1944.63,-739.82 1944.54,-746.82"/>
</g>
<!-- ../entities/WallEntity.ts&#45;&gt;../EntityManager.ts -->
<g id="edge74" class="edge">
<title>../entities/WallEntity.ts&#45;&gt;../EntityManager.ts</title>
<path fill="none" stroke="#757575" d="M1253.71,-767.85C1321.18,-704.95 1654.95,-412.72 1919,-526.5 2037.67,-577.63 2126.07,-716.39 2156.23,-768.95"/>
<polygon fill="#757575" stroke="#757575" points="2153.22,-770.73 2161.18,-777.72 2159.31,-767.29 2153.22,-770.73"/>
</g>
<!-- ../entities/WallEntity.ts&#45;&gt;../Message.ts -->
<g id="edge75" class="edge">
<title>../entities/WallEntity.ts&#45;&gt;../Message.ts</title>
<path fill="none" stroke="#757575" d="M1250.19,-791.29C1267.31,-813.57 1307.78,-861.64 1354,-884.5 1432.79,-923.47 1477.91,-865.8 1549,-917.5 1576.97,-937.84 1558.62,-964.13 1585,-986.5 1593.78,-993.94 1604.51,-999.49 1615.44,-1003.61"/>
<polygon fill="#757575" stroke="#757575" points="1614.45,-1006.97 1625.04,-1006.89 1616.71,-1000.35 1614.45,-1006.97"/>
</g>
<!-- ../entities/WallEntity.ts&#45;&gt;../constants.ts -->
<g id="edge76" class="edge">
<title>../entities/WallEntity.ts&#45;&gt;../constants.ts</title>
<path fill="none" stroke="#757575" d="M1197.13,-791.08C1096.28,-813.52 841.75,-860.76 725.53,-878.81"/>
<polygon fill="#757575" stroke="#757575" points="724.75,-875.39 715.39,-880.37 725.81,-882.31 724.75,-875.39"/>
</g>
<!-- ../entities/WallEntity.ts&#45;&gt;../messages.ts -->
<g id="edge77" class="edge">
<title>../entities/WallEntity.ts&#45;&gt;../messages.ts</title>
<path fill="none" stroke="#757575" d="M1270.12,-791C1306.97,-805.81 1371.12,-831.6 1412.15,-848.09"/>
<polygon fill="#757575" stroke="#757575" points="1410.97,-851.38 1421.55,-851.87 1413.58,-844.89 1410.97,-851.38"/>
</g>
<!-- ../entities/WallEntity.ts&#45;&gt;../systems/BehaviorSystem.ts -->
<g id="edge78" class="edge">
<title>../entities/WallEntity.ts&#45;&gt;../systems/BehaviorSystem.ts</title>
<path fill="none" stroke="#757575" d="M1314.6,-780.2C1324.03,-780.29 1333.85,-780.38 1343.69,-780.48"/>
<polygon fill="#757575" stroke="#757575" points="1343.9,-783.98 1353.93,-780.58 1343.97,-776.98 1343.9,-783.98"/>
</g>
<!-- ../messages.ts&#45;&gt;../Error.ts -->
<g id="edge83" class="edge">
<title>../messages.ts&#45;&gt;../Error.ts</title>
<path fill="none" stroke="#757575" d="M1503.6,-866.37C1518.88,-868.81 1535.22,-873.09 1549,-880.5 1569.49,-891.52 1564.55,-907.4 1585,-918.5 1656.1,-957.1 1685.22,-933.1 1764,-951.5 1833.73,-967.79 1852.73,-968.36 1919,-995.5 2035.51,-1043.21 2041.6,-1131.5 2167.5,-1131.5 2167.5,-1131.5 2167.5,-1131.5 2335.5,-1131.5 2502.8,-1131.5 2568.55,-868.78 2584.45,-790.35"/>
<polygon fill="#757575" stroke="#757575" points="2587.96,-790.65 2586.45,-780.17 2581.09,-789.31 2587.96,-790.65"/>
</g>
<!-- ../messages.ts&#45;&gt;../units/convert.ts -->
<g id="edge86" class="edge">
<title>../messages.ts&#45;&gt;../units/convert.ts</title>
<path fill="none" stroke="#757575" d="M1503.97,-869.64C1519.61,-873.44 1536.06,-879.58 1549,-889.5 1574.29,-908.88 1559.39,-932.54 1585,-951.5 1593.5,-957.79 1716.05,-984.94 1794.19,-1001.79"/>
<polygon fill="#757575" stroke="#757575" points="1793.92,-1005.32 1804.43,-1004 1795.39,-998.47 1793.92,-1005.32"/>
</g>
<!-- ../messages.ts&#45;&gt;../Message.ts -->
<g id="edge84" class="edge">
<title>../messages.ts&#45;&gt;../Message.ts</title>
<path fill="none" stroke="#757575" d="M1503.61,-867.94C1519.77,-871.61 1536.62,-878.1 1549,-889.5 1583.75,-921.5 1550.61,-957.11 1585,-989.5 1593.48,-997.48 1604.27,-1003.03 1615.39,-1006.88"/>
<polygon fill="#757575" stroke="#757575" points="1614.61,-1010.3 1625.2,-1009.84 1616.64,-1003.6 1614.61,-1010.3"/>
</g>
<!-- ../systems/TileSystem.ts -->
<g id="node34" class="node">
<title>../systems/TileSystem.ts</title>
<path fill="none" stroke="#c6c5fe" d="M1748.83,-909C1748.83,-909 1600.17,-909 1600.17,-909 1596.33,-909 1592.5,-905.17 1592.5,-901.33 1592.5,-901.33 1592.5,-893.67 1592.5,-893.67 1592.5,-889.83 1596.33,-886 1600.17,-886 1600.17,-886 1748.83,-886 1748.83,-886 1752.67,-886 1756.5,-889.83 1756.5,-893.67 1756.5,-893.67 1756.5,-901.33 1756.5,-901.33 1756.5,-905.17 1752.67,-909 1748.83,-909"/>
<text text-anchor="middle" x="1674.5" y="-893.8" font-family="Arial" font-size="14.00" fill="#c6c5fe">../systems/TileSystem.ts</text>
</g>
<!-- ../messages.ts&#45;&gt;../systems/TileSystem.ts -->
<g id="edge85" class="edge">
<title>../messages.ts&#45;&gt;../systems/TileSystem.ts</title>
<path fill="none" stroke="#757575" d="M1503.76,-871.39C1528.97,-875.26 1560.01,-880.04 1588.63,-884.44"/>
<polygon fill="#757575" stroke="#757575" points="1588.23,-887.92 1598.64,-885.98 1589.29,-881 1588.23,-887.92"/>
</g>
<!-- ../systems/BehaviorSystem.ts&#45;&gt;../Action.ts -->
<g id="edge91" class="edge">
<title>../systems/BehaviorSystem.ts&#45;&gt;../Action.ts</title>
<path fill="none" stroke="#757575" d="M1549.23,-781.02C1630.99,-780.62 1744.78,-780.06 1809.09,-779.74"/>
<polygon fill="#757575" stroke="#757575" points="1809.37,-783.24 1819.35,-779.69 1809.33,-776.24 1809.37,-783.24"/>
</g>
<!-- ../systems/BehaviorSystem.ts&#45;&gt;../Component.ts -->
<g id="edge92" class="edge">
<title>../systems/BehaviorSystem.ts&#45;&gt;../Component.ts</title>
<path fill="none" stroke="#757575" d="M1492.75,-793.05C1575.52,-814.71 1769.62,-854.58 1919,-800.5 1938.58,-793.41 1937.43,-781.68 1955,-770.5 1960.54,-766.98 1966.63,-763.64 1972.69,-760.61"/>
<polygon fill="#757575" stroke="#757575" points="1974.58,-763.58 1982.09,-756.11 1971.56,-757.27 1974.58,-763.58"/>
</g>
<!-- ../systems/BehaviorSystem.ts&#45;&gt;../Message.ts -->
<g id="edge93" class="edge">
<title>../systems/BehaviorSystem.ts&#45;&gt;../Message.ts</title>
<path fill="none" stroke="#757575" d="M1478.26,-793.07C1499.49,-803.68 1529.22,-821.12 1549,-843.5 1573.48,-871.21 1564.32,-887.85 1585,-918.5 1605.17,-948.4 1634.21,-978.39 1653.45,-996.94"/>
<polygon fill="#757575" stroke="#757575" points="1651.14,-999.57 1660.8,-1003.92 1655.96,-994.5 1651.14,-999.57"/>
</g>
<!-- ../systems/BehaviorSystem.ts&#45;&gt;../System.ts -->
<g id="edge94" class="edge">
<title>../systems/BehaviorSystem.ts&#45;&gt;../System.ts</title>
<path fill="none" stroke="#757575" d="M1464.92,-769.91C1487.54,-749.19 1537.54,-705.18 1585,-675.5 1674.67,-619.42 1703.89,-617.65 1800,-573.5 1807.39,-570.11 1815.32,-566.53 1822.9,-563.15"/>
<polygon fill="#757575" stroke="#757575" points="1824.51,-566.27 1832.23,-559.01 1821.67,-559.87 1824.51,-566.27"/>
</g>
<!-- ../systems/BehaviorSystem.ts&#45;&gt;../systems/ActionSystem.ts -->
<g id="edge95" class="edge">
<title>../systems/BehaviorSystem.ts&#45;&gt;../systems/ActionSystem.ts</title>
<path fill="none" stroke="#757575" d="M1482.31,-769.9C1521.63,-754.6 1590.93,-727.63 1634.42,-710.71"/>
<polygon fill="#757575" stroke="#757575" points="1635.77,-713.94 1643.82,-707.05 1633.23,-707.42 1635.77,-713.94"/>
</g>
<!-- ../systems/ActionSystem.ts&#45;&gt;../Action.ts -->
<g id="edge87" class="edge">
<title>../systems/ActionSystem.ts&#45;&gt;../Action.ts</title>
<path fill="none" stroke="#757575" d="M1700.56,-707C1732.55,-721.69 1788.05,-747.16 1824.01,-763.67"/>
<polygon fill="#757575" stroke="#757575" points="1822.61,-766.87 1833.15,-767.87 1825.53,-760.51 1822.61,-766.87"/>
</g>
<!-- ../systems/ActionSystem.ts&#45;&gt;../Component.ts -->
<g id="edge88" class="edge">
<title>../systems/ActionSystem.ts&#45;&gt;../Component.ts</title>
<path fill="none" stroke="#757575" d="M1764.23,-704.66C1810.5,-709.88 1867.94,-717.07 1919,-725.5 1928.5,-727.07 1938.52,-728.93 1948.3,-730.87"/>
<polygon fill="#757575" stroke="#757575" points="1947.89,-734.36 1958.38,-732.91 1949.27,-727.49 1947.89,-734.36"/>
</g>
<!-- ../systems/ActionSystem.ts&#45;&gt;../Error.ts -->
<g id="edge89" class="edge">
<title>../systems/ActionSystem.ts&#45;&gt;../Error.ts</title>
<path fill="none" stroke="#757575" d="M1697.66,-683.98C1786.63,-637.93 2115.57,-469.5 2167.5,-469.5 2167.5,-469.5 2167.5,-469.5 2335.5,-469.5 2481.05,-469.5 2560.08,-678.53 2582.07,-747.04"/>
<polygon fill="#757575" stroke="#757575" points="2578.79,-748.28 2585.11,-756.78 2585.47,-746.19 2578.79,-748.28"/>
</g>
<!-- ../systems/ActionSystem.ts&#45;&gt;../System.ts -->
<g id="edge90" class="edge">
<title>../systems/ActionSystem.ts&#45;&gt;../System.ts</title>
<path fill="none" stroke="#757575" d="M1686.83,-683.94C1715.05,-655.21 1787.17,-582.22 1800,-573.5 1805.43,-569.81 1811.47,-566.44 1817.54,-563.44"/>
<polygon fill="#757575" stroke="#757575" points="1819.45,-566.41 1827.04,-559.03 1816.5,-560.06 1819.45,-566.41"/>
</g>
<!-- ../systems/LogSystem.ts&#45;&gt;../Observable.ts -->
<g id="edge96" class="edge">
<title>../systems/LogSystem.ts&#45;&gt;../Observable.ts</title>
<path fill="none" stroke="#757575" d="M1756.51,-428.45C1888.36,-420.24 2146.77,-404.14 2267.9,-396.59"/>
<polygon fill="#757575" stroke="#757575" points="2268.37,-400.06 2278.14,-395.95 2267.94,-393.08 2268.37,-400.06"/>
</g>
<!-- ../systems/LogSystem.ts&#45;&gt;../System.ts -->
<g id="edge97" class="edge">
<title>../systems/LogSystem.ts&#45;&gt;../System.ts</title>
<path fill="none" stroke="#757575" d="M1694.05,-445.06C1726.39,-465.2 1793.21,-506.83 1830.96,-530.35"/>
<polygon fill="#757575" stroke="#757575" points="1829.56,-533.59 1839.9,-535.91 1833.26,-527.65 1829.56,-533.59"/>
</g>
<!-- ../systems/LogSystem.ts&#45;&gt;../UIElement.ts -->
<g id="edge98" class="edge">
<title>../systems/LogSystem.ts&#45;&gt;../UIElement.ts</title>
<path fill="none" stroke="#757575" d="M1686.91,-421.72C1707.4,-401.39 1752.74,-360.11 1800,-341.5 1901.44,-301.56 2029.95,-296.12 2105.02,-296.99"/>
<polygon fill="#757575" stroke="#757575" points="2105.2,-300.49 2115.25,-297.15 2105.31,-293.49 2105.2,-300.49"/>
</g>
<!-- ../systems/TileSystem.ts&#45;&gt;../Component.ts -->
<g id="edge99" class="edge">
<title>../systems/TileSystem.ts&#45;&gt;../Component.ts</title>
<path fill="none" stroke="#757575" d="M1751.38,-909.01C1803.81,-912.66 1872.25,-908.34 1919,-871.5 1956.43,-842 1922.95,-805.77 1955,-770.5 1958.23,-766.95 1962.04,-763.84 1966.14,-761.13"/>
<polygon fill="#757575" stroke="#757575" points="1967.92,-764.14 1974.84,-756.11 1964.42,-758.08 1967.92,-764.14"/>
</g>
<!-- ../systems/TileSystem.ts&#45;&gt;../units/convert.ts -->
<g id="edge102" class="edge">
<title>../systems/TileSystem.ts&#45;&gt;../units/convert.ts</title>
<path fill="none" stroke="#757575" d="M1693.38,-909.03C1725.77,-929.91 1794.29,-974.09 1832.08,-998.47"/>
<polygon fill="#757575" stroke="#757575" points="1830.25,-1001.45 1840.55,-1003.92 1834.04,-995.56 1830.25,-1001.45"/>
</g>
<!-- ../systems/TileSystem.ts&#45;&gt;../Query.ts -->
<g id="edge100" class="edge">
<title>../systems/TileSystem.ts&#45;&gt;../Query.ts</title>
<path fill="none" stroke="#757575" d="M1730.9,-909C1756.03,-914.22 1785.49,-920.34 1809.76,-925.38"/>
<polygon fill="#757575" stroke="#757575" points="1809.32,-928.86 1819.82,-927.47 1810.74,-922.01 1809.32,-928.86"/>
</g>
<!-- ../systems/TileSystem.ts&#45;&gt;../System.ts -->
<g id="edge101" class="edge">
<title>../systems/TileSystem.ts&#45;&gt;../System.ts</title>
<path fill="none" stroke="#757575" d="M1681.59,-885.85C1708.08,-835.2 1813.47,-633.63 1847.7,-568.16"/>
<polygon fill="#757575" stroke="#757575" points="1850.86,-569.67 1852.39,-559.19 1844.65,-566.43 1850.86,-569.67"/>
</g>
<!-- auth.ts -->
<g id="node35" class="node">
<title>auth.ts</title>
<path fill="none" stroke="#c6c5fe" d="M516.33,-917C516.33,-917 474.67,-917 474.67,-917 470.83,-917 467,-913.17 467,-909.33 467,-909.33 467,-901.67 467,-901.67 467,-897.83 470.83,-894 474.67,-894 474.67,-894 516.33,-894 516.33,-894 520.17,-894 524,-897.83 524,-901.67 524,-901.67 524,-909.33 524,-909.33 524,-913.17 520.17,-917 516.33,-917"/>
<text text-anchor="middle" x="495.5" y="-901.8" font-family="Arial" font-size="14.00" fill="#c6c5fe">auth.ts</text>
</g>
<!-- auth.ts&#45;&gt;../Error.ts -->
<g id="edge104" class="edge">
<title>auth.ts&#45;&gt;../Error.ts</title>
<path fill="none" stroke="#757575" d="M498.4,-917.27C511.23,-992.38 592.23,-1401.5 834.5,-1401.5 834.5,-1401.5 834.5,-1401.5 2335.5,-1401.5 2437.19,-1401.5 2471.76,-1354.07 2518,-1263.5 2561.4,-1178.5 2582.26,-874.31 2587.28,-790.19"/>
<polygon fill="#757575" stroke="#757575" points="2590.78,-790.22 2587.87,-780.03 2583.79,-789.81 2590.78,-790.22"/>
</g>
<!-- auth.ts&#45;&gt;../constants.ts -->
<g id="edge105" class="edge">
<title>auth.ts&#45;&gt;../constants.ts</title>
<path fill="none" stroke="#757575" d="M524.16,-902.2C546.09,-899.58 577.52,-895.83 605.02,-892.54"/>
<polygon fill="#757575" stroke="#757575" points="605.44,-896.02 614.96,-891.36 604.61,-889.07 605.44,-896.02"/>
</g>
<!-- entity.ts -->
<g id="node36" class="node">
<title>entity.ts</title>
<path fill="none" stroke="#c6c5fe" d="M153.33,-197C153.33,-197 106.67,-197 106.67,-197 102.83,-197 99,-193.17 99,-189.33 99,-189.33 99,-181.67 99,-181.67 99,-177.83 102.83,-174 106.67,-174 106.67,-174 153.33,-174 153.33,-174 157.17,-174 161,-177.83 161,-181.67 161,-181.67 161,-189.33 161,-189.33 161,-193.17 157.17,-197 153.33,-197"/>
<text text-anchor="middle" x="130" y="-181.8" font-family="Arial" font-size="14.00" fill="#c6c5fe">entity.ts</text>
</g>
<!-- entity.ts&#45;&gt;../EntityManager.ts -->
<g id="edge106" class="edge">
<title>entity.ts&#45;&gt;../EntityManager.ts</title>
<path fill="none" stroke="#757575" d="M137.2,-197.09C147.43,-215.24 169.49,-250.47 197,-271.5 310.53,-358.29 351.59,-393.5 494.5,-393.5 494.5,-393.5 494.5,-393.5 1675.5,-393.5 1783.71,-393.5 1998.69,-432.82 2068,-498.5 2147.06,-573.42 2163.3,-713.71 2166.64,-767.62"/>
<polygon fill="#757575" stroke="#757575" points="2163.15,-767.96 2167.17,-777.76 2170.14,-767.59 2163.15,-767.96"/>
</g>
<!-- entity.ts&#45;&gt;../Error.ts -->
<g id="edge107" class="edge">
<title>entity.ts&#45;&gt;../Error.ts</title>
<path fill="none" stroke="#757575" d="M136.36,-173.75C145.72,-154.71 166.94,-117.44 197,-99.5 312.01,-30.86 360.57,-51.5 494.5,-51.5 494.5,-51.5 494.5,-51.5 2335.5,-51.5 2429.98,-51.5 2466.71,-81.16 2518,-160.5 2582.51,-260.29 2588.11,-649.75 2588.5,-746.6"/>
<polygon fill="#757575" stroke="#757575" points="2585,-746.7 2588.52,-756.69 2592,-746.68 2585,-746.7"/>
</g>
<!-- entity.ts&#45;&gt;../Observable.ts -->
<g id="edge109" class="edge">
<title>entity.ts&#45;&gt;../Observable.ts</title>
<path fill="none" stroke="#757575" d="M156.39,-173.92C214.78,-148.39 363.63,-89.5 494.5,-89.5 494.5,-89.5 494.5,-89.5 1860.5,-89.5 1961.93,-89.5 1986.63,-123.94 2068,-184.5 2087.45,-198.98 2084.26,-211.41 2104,-225.5 2154.45,-261.52 2182.52,-242.53 2233,-278.5 2270.13,-304.95 2302.92,-347.63 2320.31,-372.58"/>
<polygon fill="#757575" stroke="#757575" points="2317.47,-374.62 2326.01,-380.91 2323.25,-370.67 2317.47,-374.62"/>
</g>
<!-- entity.ts&#45;&gt;../NetworkedEntityServer.ts -->
<g id="edge108" class="edge">
<title>entity.ts&#45;&gt;../NetworkedEntityServer.ts</title>
<path fill="none" stroke="#757575" d="M161.16,-189.4C168.89,-190.41 177.65,-191.54 186.85,-192.73"/>
<polygon fill="#757575" stroke="#757575" points="186.61,-196.23 196.98,-194.04 187.51,-189.29 186.61,-196.23"/>
</g>
<!-- entity.ts&#45;&gt;../functions/Networking.ts -->
<g id="edge111" class="edge">
<title>entity.ts&#45;&gt;../functions/Networking.ts</title>
<path fill="none" stroke="#757575" d="M147.48,-197.02C160.48,-205.71 179.31,-217.48 197,-225.5 276.91,-261.72 374.81,-289.74 435.93,-305.43"/>
<polygon fill="#757575" stroke="#757575" points="435.23,-308.87 445.79,-307.94 436.96,-302.08 435.23,-308.87"/>
</g>
<!-- entity.ts&#45;&gt;../util.ts -->
<g id="edge112" class="edge">
<title>entity.ts&#45;&gt;../util.ts</title>
<path fill="none" stroke="#757575" d="M161.13,-182.72C223.36,-177.22 370.62,-165.5 494.5,-165.5 494.5,-165.5 494.5,-165.5 1675.5,-165.5 1783.47,-165.5 1909.64,-186.24 1971.82,-197.85"/>
<polygon fill="#757575" stroke="#757575" points="1971.48,-201.35 1981.96,-199.77 1972.78,-194.47 1971.48,-201.35"/>
</g>
<!-- entity.ts&#45;&gt;../common.ts -->
<g id="edge110" class="edge">
<title>entity.ts&#45;&gt;../common.ts</title>
<path fill="none" stroke="#757575" d="M132.79,-173.93C137.7,-146.13 154.01,-75.1 197,-37.5 206.04,-29.59 217.38,-24.09 228.9,-20.26"/>
<polygon fill="#757575" stroke="#757575" points="229.96,-23.59 238.56,-17.41 227.98,-16.88 229.96,-23.59"/>
</g>
<!-- index.ts -->
<g id="node37" class="node">
<title>index.ts</title>
<path fill="none" stroke="#c6c5fe" d="M55.33,-877C55.33,-877 7.67,-877 7.67,-877 3.83,-877 0,-873.17 0,-869.33 0,-869.33 0,-861.67 0,-861.67 0,-857.83 3.83,-854 7.67,-854 7.67,-854 55.33,-854 55.33,-854 59.17,-854 63,-857.83 63,-861.67 63,-861.67 63,-869.33 63,-869.33 63,-873.17 59.17,-877 55.33,-877"/>
<text text-anchor="middle" x="31.5" y="-861.8" font-family="Arial" font-size="14.00" fill="#c6c5fe">index.ts</text>
</g>
<!-- index.ts&#45;&gt;../constants.ts -->
<g id="edge113" class="edge">
<title>index.ts&#45;&gt;../constants.ts</title>
<path fill="none" stroke="#757575" d="M63.39,-866.48C162.48,-869.62 473.56,-879.47 604.73,-883.62"/>
<polygon fill="#757575" stroke="#757575" points="604.88,-887.13 614.99,-883.95 605.1,-880.13 604.88,-887.13"/>
</g>
<!-- index.ts&#45;&gt;auth.ts -->
<g id="edge114" class="edge">
<title>index.ts&#45;&gt;auth.ts</title>
<path fill="none" stroke="#757575" d="M63.13,-872.9C74.35,-875.36 87.19,-877.88 99,-879.5 229.33,-897.41 385.58,-903.07 456.34,-904.79"/>
<polygon fill="#757575" stroke="#757575" points="456.47,-908.29 466.55,-905.02 456.63,-901.29 456.47,-908.29"/>
</g>
<!-- index.ts&#45;&gt;entity.ts -->
<g id="edge115" class="edge">
<title>index.ts&#45;&gt;entity.ts</title>
<path fill="none" stroke="#757575" d="M34.13,-853.98C45.34,-775.01 110.84,-313.46 125.91,-207.28"/>
<polygon fill="#757575" stroke="#757575" points="129.41,-207.51 127.35,-197.12 122.48,-206.53 129.41,-207.51"/>
</g>
</g>
</svg>
