<?xml version="1.0" encoding="UTF-8" standalone="no"?>
<!DOCTYPE svg PUBLIC "-//W3C//DTD SVG 1.1//EN"
 "http://www.w3.org/Graphics/SVG/1.1/DTD/svg11.dtd">
<!-- Generated by graphviz version 2.43.0 (0)
 -->
<!-- Title: G Pages: 1 -->
<svg width="1189pt" height="702pt"
 viewBox="0.00 0.00 1189.20 701.85" xmlns="http://www.w3.org/2000/svg" xmlns:xlink="http://www.w3.org/1999/xlink">
<g id="graph0" class="graph" transform="scale(1 1) rotate(0) translate(21.6 680.25)">
<title>G</title>
<polygon fill="#111111" stroke="transparent" points="-21.6,21.6 -21.6,-680.25 1167.6,-680.25 1167.6,21.6 -21.6,21.6"/>
<!-- ../Debug.ts -->
<g id="node1" class="node">
<title>../Debug.ts</title>
<path fill="none" stroke="#c6c5fe" d="M1031.33,-334.5C1031.33,-334.5 964.67,-334.5 964.67,-334.5 960.83,-334.5 957,-330.67 957,-326.83 957,-326.83 957,-319.17 957,-319.17 957,-315.33 960.83,-311.5 964.67,-311.5 964.67,-311.5 1031.33,-311.5 1031.33,-311.5 1035.17,-311.5 1039,-315.33 1039,-319.17 1039,-319.17 1039,-326.83 1039,-326.83 1039,-330.67 1035.17,-334.5 1031.33,-334.5"/>
<text text-anchor="middle" x="998" y="-319.3" font-family="Arial" font-size="14.00" fill="#c6c5fe">../Debug.ts</text>
</g>
<!-- ../Error.ts -->
<g id="node2" class="node">
<title>../Error.ts</title>
<path fill="none" stroke="#cfffac" d="M1138.33,-334.5C1138.33,-334.5 1082.67,-334.5 1082.67,-334.5 1078.83,-334.5 1075,-330.67 1075,-326.83 1075,-326.83 1075,-319.17 1075,-319.17 1075,-315.33 1078.83,-311.5 1082.67,-311.5 1082.67,-311.5 1138.33,-311.5 1138.33,-311.5 1142.17,-311.5 1146,-315.33 1146,-319.17 1146,-319.17 1146,-326.83 1146,-326.83 1146,-330.67 1142.17,-334.5 1138.33,-334.5"/>
<text text-anchor="middle" x="1110.5" y="-319.3" font-family="Arial" font-size="14.00" fill="#cfffac">../Error.ts</text>
</g>
<!-- ../Debug.ts&#45;&gt;../Error.ts -->
<g id="edge1" class="edge">
<title>../Debug.ts&#45;&gt;../Error.ts</title>
<path fill="none" stroke="#757575" d="M1039.21,-323C1047.54,-323 1056.37,-323 1064.85,-323"/>
<polygon fill="#757575" stroke="#757575" points="1064.97,-326.5 1074.97,-323 1064.97,-319.5 1064.97,-326.5"/>
</g>
<!-- ../HeadingDirection.ts -->
<g id="node3" class="node">
<title>../HeadingDirection.ts</title>
<path fill="none" stroke="#c6c5fe" d="M690.33,-135.5C690.33,-135.5 559.67,-135.5 559.67,-135.5 555.83,-135.5 552,-131.67 552,-127.83 552,-127.83 552,-120.17 552,-120.17 552,-116.33 555.83,-112.5 559.67,-112.5 559.67,-112.5 690.33,-112.5 690.33,-112.5 694.17,-112.5 698,-116.33 698,-120.17 698,-120.17 698,-127.83 698,-127.83 698,-131.67 694.17,-135.5 690.33,-135.5"/>
<text text-anchor="middle" x="625" y="-120.3" font-family="Arial" font-size="14.00" fill="#c6c5fe">../HeadingDirection.ts</text>
</g>
<!-- ../HeadingDirection.ts&#45;&gt;../Error.ts -->
<g id="edge2" class="edge">
<title>../HeadingDirection.ts&#45;&gt;../Error.ts</title>
<path fill="none" stroke="#757575" d="M685.2,-135.66C689.81,-137.96 694.15,-140.71 698,-144 727.33,-169.07 703.86,-198.91 734,-223 800.31,-276.01 838.94,-240.23 921,-262 972.12,-275.56 1029.83,-294.84 1067.78,-308.07"/>
<polygon fill="#757575" stroke="#757575" points="1066.86,-311.46 1077.46,-311.47 1069.18,-304.85 1066.86,-311.46"/>
</g>
<!-- ../units/convert.ts -->
<g id="node4" class="node">
<title>../units/convert.ts</title>
<path fill="none" stroke="#cfffac" d="M879.33,-293.5C879.33,-293.5 775.67,-293.5 775.67,-293.5 771.83,-293.5 768,-289.67 768,-285.83 768,-285.83 768,-278.17 768,-278.17 768,-274.33 771.83,-270.5 775.67,-270.5 775.67,-270.5 879.33,-270.5 879.33,-270.5 883.17,-270.5 887,-274.33 887,-278.17 887,-278.17 887,-285.83 887,-285.83 887,-289.67 883.17,-293.5 879.33,-293.5"/>
<text text-anchor="middle" x="827.5" y="-278.3" font-family="Arial" font-size="14.00" fill="#cfffac">../units/convert.ts</text>
</g>
<!-- ../HeadingDirection.ts&#45;&gt;../units/convert.ts -->
<g id="edge3" class="edge">
<title>../HeadingDirection.ts&#45;&gt;../units/convert.ts</title>
<path fill="none" stroke="#757575" d="M686.32,-135.57C690.57,-137.89 694.54,-140.67 698,-144 735.7,-180.22 696.35,-219.72 734,-256 740.86,-262.62 749.27,-267.57 758.2,-271.28"/>
<polygon fill="#757575" stroke="#757575" points="757.04,-274.59 767.64,-274.71 759.43,-268.01 757.04,-274.59"/>
</g>
<!-- ../Input.ts -->
<g id="node5" class="node">
<title>../Input.ts</title>
<path fill="none" stroke="#cfffac" d="M653.33,-176.5C653.33,-176.5 596.67,-176.5 596.67,-176.5 592.83,-176.5 589,-172.67 589,-168.83 589,-168.83 589,-161.17 589,-161.17 589,-157.33 592.83,-153.5 596.67,-153.5 596.67,-153.5 653.33,-153.5 653.33,-153.5 657.17,-153.5 661,-157.33 661,-161.17 661,-161.17 661,-168.83 661,-168.83 661,-172.67 657.17,-176.5 653.33,-176.5"/>
<text text-anchor="middle" x="625" y="-161.3" font-family="Arial" font-size="14.00" fill="#cfffac">../Input.ts</text>
</g>
<!-- ../Log.ts -->
<g id="node6" class="node">
<title>../Log.ts</title>
<path fill="none" stroke="#c6c5fe" d="M649.83,-94.5C649.83,-94.5 600.17,-94.5 600.17,-94.5 596.33,-94.5 592.5,-90.67 592.5,-86.83 592.5,-86.83 592.5,-79.17 592.5,-79.17 592.5,-75.33 596.33,-71.5 600.17,-71.5 600.17,-71.5 649.83,-71.5 649.83,-71.5 653.67,-71.5 657.5,-75.33 657.5,-79.17 657.5,-79.17 657.5,-86.83 657.5,-86.83 657.5,-90.67 653.67,-94.5 649.83,-94.5"/>
<text text-anchor="middle" x="625" y="-79.3" font-family="Arial" font-size="14.00" fill="#c6c5fe">../Log.ts</text>
</g>
<!-- ../Log.ts&#45;&gt;../Error.ts -->
<g id="edge4" class="edge">
<title>../Log.ts&#45;&gt;../Error.ts</title>
<path fill="none" stroke="#757575" d="M657.77,-76.9C714.17,-67.69 834.03,-55.61 921,-99 1012.1,-144.44 1076.04,-255.91 1099.55,-302.26"/>
<polygon fill="#757575" stroke="#757575" points="1096.49,-303.96 1104.07,-311.36 1102.76,-300.84 1096.49,-303.96"/>
</g>
<!-- ../Observable.ts -->
<g id="node7" class="node">
<title>../Observable.ts</title>
<path fill="none" stroke="#c6c5fe" d="M875.83,-334.5C875.83,-334.5 779.17,-334.5 779.17,-334.5 775.33,-334.5 771.5,-330.67 771.5,-326.83 771.5,-326.83 771.5,-319.17 771.5,-319.17 771.5,-315.33 775.33,-311.5 779.17,-311.5 779.17,-311.5 875.83,-311.5 875.83,-311.5 879.67,-311.5 883.5,-315.33 883.5,-319.17 883.5,-319.17 883.5,-326.83 883.5,-326.83 883.5,-330.67 879.67,-334.5 875.83,-334.5"/>
<text text-anchor="middle" x="827.5" y="-319.3" font-family="Arial" font-size="14.00" fill="#c6c5fe">../Observable.ts</text>
</g>
<!-- ../Log.ts&#45;&gt;../Observable.ts -->
<g id="edge5" class="edge">
<title>../Log.ts&#45;&gt;../Observable.ts</title>
<path fill="none" stroke="#757575" d="M657.59,-84.36C671.86,-86.64 687.78,-91.78 698,-103 758.83,-169.76 671.26,-238.03 734,-303 741.44,-310.7 751.08,-315.78 761.33,-319.07"/>
<polygon fill="#757575" stroke="#757575" points="760.73,-322.53 771.29,-321.7 762.52,-315.76 760.73,-322.53"/>
</g>
<!-- ../collections/InstanceMap.ts -->
<g id="node8" class="node">
<title>../collections/InstanceMap.ts</title>
<path fill="none" stroke="#cfffac" d="M913.33,-51.5C913.33,-51.5 741.67,-51.5 741.67,-51.5 737.83,-51.5 734,-47.67 734,-43.83 734,-43.83 734,-36.17 734,-36.17 734,-32.33 737.83,-28.5 741.67,-28.5 741.67,-28.5 913.33,-28.5 913.33,-28.5 917.17,-28.5 921,-32.33 921,-36.17 921,-36.17 921,-43.83 921,-43.83 921,-47.67 917.17,-51.5 913.33,-51.5"/>
<text text-anchor="middle" x="827.5" y="-36.3" font-family="Arial" font-size="14.00" fill="#cfffac">../collections/InstanceMap.ts</text>
</g>
<!-- ../Log.ts&#45;&gt;../collections/InstanceMap.ts -->
<g id="edge6" class="edge">
<title>../Log.ts&#45;&gt;../collections/InstanceMap.ts</title>
<path fill="none" stroke="#757575" d="M657.77,-76.19C685.81,-70.17 727.54,-61.22 762.48,-53.73"/>
<polygon fill="#757575" stroke="#757575" points="763.57,-57.08 772.61,-51.56 762.1,-50.23 763.57,-57.08"/>
</g>
<!-- ../functions/Array.ts -->
<g id="node9" class="node">
<title>../functions/Array.ts</title>
<path fill="none" stroke="#cfffac" d="M885.33,-213.5C885.33,-213.5 769.67,-213.5 769.67,-213.5 765.83,-213.5 762,-209.67 762,-205.83 762,-205.83 762,-198.17 762,-198.17 762,-194.33 765.83,-190.5 769.67,-190.5 769.67,-190.5 885.33,-190.5 885.33,-190.5 889.17,-190.5 893,-194.33 893,-198.17 893,-198.17 893,-205.83 893,-205.83 893,-209.67 889.17,-213.5 885.33,-213.5"/>
<text text-anchor="middle" x="827.5" y="-198.3" font-family="Arial" font-size="14.00" fill="#cfffac">../functions/Array.ts</text>
</g>
<!-- ../Log.ts&#45;&gt;../functions/Array.ts -->
<g id="edge7" class="edge">
<title>../Log.ts&#45;&gt;../functions/Array.ts</title>
<path fill="none" stroke="#757575" d="M657.84,-85.86C671.49,-88.49 686.83,-93.5 698,-103 727.09,-127.73 704.33,-156.97 734,-181 739.42,-185.39 745.57,-188.9 752.07,-191.7"/>
<polygon fill="#757575" stroke="#757575" points="751.2,-195.11 761.79,-195.32 753.65,-188.55 751.2,-195.11"/>
</g>
<!-- ../functions/Map.ts -->
<g id="node10" class="node">
<title>../functions/Map.ts</title>
<path fill="none" stroke="#cfffac" d="M883.33,-172.5C883.33,-172.5 771.67,-172.5 771.67,-172.5 767.83,-172.5 764,-168.67 764,-164.83 764,-164.83 764,-157.17 764,-157.17 764,-153.33 767.83,-149.5 771.67,-149.5 771.67,-149.5 883.33,-149.5 883.33,-149.5 887.17,-149.5 891,-153.33 891,-157.17 891,-157.17 891,-164.83 891,-164.83 891,-168.67 887.17,-172.5 883.33,-172.5"/>
<text text-anchor="middle" x="827.5" y="-157.3" font-family="Arial" font-size="14.00" fill="#cfffac">../functions/Map.ts</text>
</g>
<!-- ../Log.ts&#45;&gt;../functions/Map.ts -->
<g id="edge8" class="edge">
<title>../Log.ts&#45;&gt;../functions/Map.ts</title>
<path fill="none" stroke="#757575" d="M657.56,-88C670.7,-91.01 685.72,-95.72 698,-103 717.74,-114.7 713.99,-128.78 734,-140 740.32,-143.54 747.2,-146.49 754.26,-148.94"/>
<polygon fill="#757575" stroke="#757575" points="753.38,-152.33 763.96,-151.98 755.47,-145.65 753.38,-152.33"/>
</g>
<!-- ../functions/Set.ts -->
<g id="node11" class="node">
<title>../functions/Set.ts</title>
<path fill="none" stroke="#cfffac" d="M879.83,-131.5C879.83,-131.5 775.17,-131.5 775.17,-131.5 771.33,-131.5 767.5,-127.67 767.5,-123.83 767.5,-123.83 767.5,-116.17 767.5,-116.17 767.5,-112.33 771.33,-108.5 775.17,-108.5 775.17,-108.5 879.83,-108.5 879.83,-108.5 883.67,-108.5 887.5,-112.33 887.5,-116.17 887.5,-116.17 887.5,-123.83 887.5,-123.83 887.5,-127.67 883.67,-131.5 879.83,-131.5"/>
<text text-anchor="middle" x="827.5" y="-116.3" font-family="Arial" font-size="14.00" fill="#cfffac">../functions/Set.ts</text>
</g>
<!-- ../Log.ts&#45;&gt;../functions/Set.ts -->
<g id="edge9" class="edge">
<title>../Log.ts&#45;&gt;../functions/Set.ts</title>
<path fill="none" stroke="#757575" d="M657.77,-88.86C684.5,-93.8 723.68,-101.03 757.56,-107.28"/>
<polygon fill="#757575" stroke="#757575" points="756.95,-110.72 767.42,-109.1 758.22,-103.84 756.95,-110.72"/>
</g>
<!-- ../Observable.ts&#45;&gt;../Debug.ts -->
<g id="edge10" class="edge">
<title>../Observable.ts&#45;&gt;../Debug.ts</title>
<path fill="none" stroke="#757575" d="M883.67,-323C904.02,-323 926.96,-323 946.84,-323"/>
<polygon fill="#757575" stroke="#757575" points="946.93,-326.5 956.93,-323 946.93,-319.5 946.93,-326.5"/>
</g>
<!-- ../Monad.ts -->
<g id="node12" class="node">
<title>../Monad.ts</title>
<path fill="none" stroke="#cfffac" d="M861.83,-410.5C861.83,-410.5 793.17,-410.5 793.17,-410.5 789.33,-410.5 785.5,-406.67 785.5,-402.83 785.5,-402.83 785.5,-395.17 785.5,-395.17 785.5,-391.33 789.33,-387.5 793.17,-387.5 793.17,-387.5 861.83,-387.5 861.83,-387.5 865.67,-387.5 869.5,-391.33 869.5,-395.17 869.5,-395.17 869.5,-402.83 869.5,-402.83 869.5,-406.67 865.67,-410.5 861.83,-410.5"/>
<text text-anchor="middle" x="827.5" y="-395.3" font-family="Arial" font-size="14.00" fill="#cfffac">../Monad.ts</text>
</g>
<!-- ../constants.ts -->
<g id="node13" class="node">
<title>../constants.ts</title>
<path fill="none" stroke="#c6c5fe" d="M508.33,-176.5C508.33,-176.5 423.67,-176.5 423.67,-176.5 419.83,-176.5 416,-172.67 416,-168.83 416,-168.83 416,-161.17 416,-161.17 416,-157.33 419.83,-153.5 423.67,-153.5 423.67,-153.5 508.33,-153.5 508.33,-153.5 512.17,-153.5 516,-157.33 516,-161.17 516,-161.17 516,-168.83 516,-168.83 516,-172.67 512.17,-176.5 508.33,-176.5"/>
<text text-anchor="middle" x="466" y="-161.3" font-family="Arial" font-size="14.00" fill="#c6c5fe">../constants.ts</text>
</g>
<!-- ../constants.ts&#45;&gt;../HeadingDirection.ts -->
<g id="edge11" class="edge">
<title>../constants.ts&#45;&gt;../HeadingDirection.ts</title>
<path fill="none" stroke="#757575" d="M511.15,-153.47C529.46,-148.69 550.86,-143.1 570.08,-138.08"/>
<polygon fill="#757575" stroke="#757575" points="571.12,-141.43 579.91,-135.51 569.35,-134.65 571.12,-141.43"/>
</g>
<!-- ../constants.ts&#45;&gt;../Input.ts -->
<g id="edge12" class="edge">
<title>../constants.ts&#45;&gt;../Input.ts</title>
<path fill="none" stroke="#757575" d="M516.25,-165C536.22,-165 559.14,-165 578.69,-165"/>
<polygon fill="#757575" stroke="#757575" points="578.87,-168.5 588.87,-165 578.87,-161.5 578.87,-168.5"/>
</g>
<!-- ../util.ts -->
<g id="node14" class="node">
<title>../util.ts</title>
<path fill="none" stroke="#c6c5fe" d="M487.83,-114.5C487.83,-114.5 444.17,-114.5 444.17,-114.5 440.33,-114.5 436.5,-110.67 436.5,-106.83 436.5,-106.83 436.5,-99.17 436.5,-99.17 436.5,-95.33 440.33,-91.5 444.17,-91.5 444.17,-91.5 487.83,-91.5 487.83,-91.5 491.67,-91.5 495.5,-95.33 495.5,-99.17 495.5,-99.17 495.5,-106.83 495.5,-106.83 495.5,-110.67 491.67,-114.5 487.83,-114.5"/>
<text text-anchor="middle" x="466" y="-99.3" font-family="Arial" font-size="14.00" fill="#c6c5fe">../util.ts</text>
</g>
<!-- ../util.ts&#45;&gt;../Log.ts -->
<g id="edge13" class="edge">
<title>../util.ts&#45;&gt;../Log.ts</title>
<path fill="none" stroke="#757575" d="M495.8,-99.33C520.05,-96.24 555.06,-91.78 582.37,-88.3"/>
<polygon fill="#757575" stroke="#757575" points="582.94,-91.76 592.42,-87.02 582.06,-84.81 582.94,-91.76"/>
</g>
<!-- Evaluator.ts -->
<g id="node15" class="node">
<title>Evaluator.ts</title>
<path fill="none" stroke="#c6c5fe" d="M501.83,-606.5C501.83,-606.5 430.17,-606.5 430.17,-606.5 426.33,-606.5 422.5,-602.67 422.5,-598.83 422.5,-598.83 422.5,-591.17 422.5,-591.17 422.5,-587.33 426.33,-583.5 430.17,-583.5 430.17,-583.5 501.83,-583.5 501.83,-583.5 505.67,-583.5 509.5,-587.33 509.5,-591.17 509.5,-591.17 509.5,-598.83 509.5,-598.83 509.5,-602.67 505.67,-606.5 501.83,-606.5"/>
<text text-anchor="middle" x="466" y="-591.3" font-family="Arial" font-size="14.00" fill="#c6c5fe">Evaluator.ts</text>
</g>
<!-- Evaluator.ts&#45;&gt;../Error.ts -->
<g id="edge14" class="edge">
<title>Evaluator.ts&#45;&gt;../Error.ts</title>
<path fill="none" stroke="#757575" d="M509.52,-599.2C627.82,-609.97 957.48,-633.39 1039,-569 1074.8,-540.72 1098.53,-399.52 1106.52,-344.76"/>
<polygon fill="#757575" stroke="#757575" points="1110,-345.13 1107.94,-334.73 1103.07,-344.14 1110,-345.13"/>
</g>
<!-- EventType.ts -->
<g id="node16" class="node">
<title>EventType.ts</title>
<path fill="none" stroke="#cfffac" d="M505.83,-488.5C505.83,-488.5 426.17,-488.5 426.17,-488.5 422.33,-488.5 418.5,-484.67 418.5,-480.83 418.5,-480.83 418.5,-473.17 418.5,-473.17 418.5,-469.33 422.33,-465.5 426.17,-465.5 426.17,-465.5 505.83,-465.5 505.83,-465.5 509.67,-465.5 513.5,-469.33 513.5,-473.17 513.5,-473.17 513.5,-480.83 513.5,-480.83 513.5,-484.67 509.67,-488.5 505.83,-488.5"/>
<text text-anchor="middle" x="466" y="-473.3" font-family="Arial" font-size="14.00" fill="#cfffac">EventType.ts</text>
</g>
<!-- Interpolator.ts -->
<g id="node17" class="node">
<title>Interpolator.ts</title>
<path fill="none" stroke="#c6c5fe" d="M280.83,-566.5C280.83,-566.5 198.17,-566.5 198.17,-566.5 194.33,-566.5 190.5,-562.67 190.5,-558.83 190.5,-558.83 190.5,-551.17 190.5,-551.17 190.5,-547.33 194.33,-543.5 198.17,-543.5 198.17,-543.5 280.83,-543.5 280.83,-543.5 284.67,-543.5 288.5,-547.33 288.5,-551.17 288.5,-551.17 288.5,-558.83 288.5,-558.83 288.5,-562.67 284.67,-566.5 280.83,-566.5"/>
<text text-anchor="middle" x="239.5" y="-551.3" font-family="Arial" font-size="14.00" fill="#c6c5fe">Interpolator.ts</text>
</g>
<!-- Interpolator.ts&#45;&gt;../Error.ts -->
<g id="edge15" class="edge">
<title>Interpolator.ts&#45;&gt;../Error.ts</title>
<path fill="none" stroke="#757575" d="M288.63,-555C361.29,-555 503.32,-555 624,-555 624,-555 624,-555 828.5,-555 960.97,-555 1064.72,-399.79 1098.12,-343.27"/>
<polygon fill="#757575" stroke="#757575" points="1101.22,-344.91 1103.2,-334.5 1095.16,-341.4 1101.22,-344.91"/>
</g>
<!-- Interpolator.ts&#45;&gt;Evaluator.ts -->
<g id="edge16" class="edge">
<title>Interpolator.ts&#45;&gt;Evaluator.ts</title>
<path fill="none" stroke="#757575" d="M288.66,-563.58C324.93,-570.04 374.63,-578.9 412.03,-585.56"/>
<polygon fill="#757575" stroke="#757575" points="411.77,-589.07 422.22,-587.38 412.99,-582.18 411.77,-589.07"/>
</g>
<!-- collections.ts -->
<g id="node18" class="node">
<title>collections.ts</title>
<path fill="none" stroke="#c6c5fe" d="M505.33,-370.5C505.33,-370.5 426.67,-370.5 426.67,-370.5 422.83,-370.5 419,-366.67 419,-362.83 419,-362.83 419,-355.17 419,-355.17 419,-351.33 422.83,-347.5 426.67,-347.5 426.67,-347.5 505.33,-347.5 505.33,-347.5 509.17,-347.5 513,-351.33 513,-355.17 513,-355.17 513,-362.83 513,-362.83 513,-366.67 509.17,-370.5 505.33,-370.5"/>
<text text-anchor="middle" x="466" y="-355.3" font-family="Arial" font-size="14.00" fill="#c6c5fe">collections.ts</text>
</g>
<!-- Interpolator.ts&#45;&gt;collections.ts -->
<g id="edge17" class="edge">
<title>Interpolator.ts&#45;&gt;collections.ts</title>
<path fill="none" stroke="#757575" d="M261.16,-543.37C289.56,-526.87 341.51,-494.76 380,-460 407.83,-434.87 434.81,-400.6 450.66,-379.14"/>
<polygon fill="#757575" stroke="#757575" points="453.68,-380.94 456.74,-370.8 448.02,-376.82 453.68,-380.94"/>
</g>
<!-- collections.ts&#45;&gt;../Observable.ts -->
<g id="edge19" class="edge">
<title>collections.ts&#45;&gt;../Observable.ts</title>
<path fill="none" stroke="#757575" d="M513.26,-354.37C576.25,-348.06 689.35,-336.73 761.03,-329.56"/>
<polygon fill="#757575" stroke="#757575" points="761.69,-333.01 771.29,-328.53 760.99,-326.04 761.69,-333.01"/>
</g>
<!-- Island.ts -->
<g id="node19" class="node">
<title>Island.ts</title>
<path fill="none" stroke="#c6c5fe" d="M650.83,-410.5C650.83,-410.5 599.17,-410.5 599.17,-410.5 595.33,-410.5 591.5,-406.67 591.5,-402.83 591.5,-402.83 591.5,-395.17 591.5,-395.17 591.5,-391.33 595.33,-387.5 599.17,-387.5 599.17,-387.5 650.83,-387.5 650.83,-387.5 654.67,-387.5 658.5,-391.33 658.5,-395.17 658.5,-395.17 658.5,-402.83 658.5,-402.83 658.5,-406.67 654.67,-410.5 650.83,-410.5"/>
<text text-anchor="middle" x="625" y="-395.3" font-family="Arial" font-size="14.00" fill="#c6c5fe">Island.ts</text>
</g>
<!-- collections.ts&#45;&gt;Island.ts -->
<g id="edge20" class="edge">
<title>collections.ts&#45;&gt;Island.ts</title>
<path fill="none" stroke="#757575" d="M512.41,-370.57C534.15,-376.11 560.02,-382.7 581.38,-388.14"/>
<polygon fill="#757575" stroke="#757575" points="580.6,-391.55 591.16,-390.63 582.33,-384.77 580.6,-391.55"/>
</g>
<!-- Island.ts&#45;&gt;../Monad.ts -->
<g id="edge18" class="edge">
<title>Island.ts&#45;&gt;../Monad.ts</title>
<path fill="none" stroke="#757575" d="M658.66,-399C690.2,-399 738.46,-399 775.15,-399"/>
<polygon fill="#757575" stroke="#757575" points="775.16,-402.5 785.16,-399 775.16,-395.5 775.16,-402.5"/>
</g>
<!-- directives/ClassListDirective.ts -->
<g id="node20" class="node">
<title>directives/ClassListDirective.ts</title>
<path fill="none" stroke="#cfffac" d="M331.33,-290.5C331.33,-290.5 147.67,-290.5 147.67,-290.5 143.83,-290.5 140,-286.67 140,-282.83 140,-282.83 140,-275.17 140,-275.17 140,-271.33 143.83,-267.5 147.67,-267.5 147.67,-267.5 331.33,-267.5 331.33,-267.5 335.17,-267.5 339,-271.33 339,-275.17 339,-275.17 339,-282.83 339,-282.83 339,-286.67 335.17,-290.5 331.33,-290.5"/>
<text text-anchor="middle" x="239.5" y="-275.3" font-family="Arial" font-size="14.00" fill="#cfffac">directives/ClassListDirective.ts</text>
</g>
<!-- events.ts -->
<g id="node21" class="node">
<title>events.ts</title>
<path fill="none" stroke="#c6c5fe" d="M267.33,-450.5C267.33,-450.5 211.67,-450.5 211.67,-450.5 207.83,-450.5 204,-446.67 204,-442.83 204,-442.83 204,-435.17 204,-435.17 204,-431.33 207.83,-427.5 211.67,-427.5 211.67,-427.5 267.33,-427.5 267.33,-427.5 271.17,-427.5 275,-431.33 275,-435.17 275,-435.17 275,-442.83 275,-442.83 275,-446.67 271.17,-450.5 267.33,-450.5"/>
<text text-anchor="middle" x="239.5" y="-435.3" font-family="Arial" font-size="14.00" fill="#c6c5fe">events.ts</text>
</g>
<!-- events.ts&#45;&gt;EventType.ts -->
<g id="edge21" class="edge">
<title>events.ts&#45;&gt;EventType.ts</title>
<path fill="none" stroke="#757575" d="M275.09,-444.85C310.54,-450.85 366.26,-460.29 408.2,-467.39"/>
<polygon fill="#757575" stroke="#757575" points="407.83,-470.87 418.27,-469.09 408.99,-463.97 407.83,-470.87"/>
</g>
<!-- events.ts&#45;&gt;Island.ts -->
<g id="edge22" class="edge">
<title>events.ts&#45;&gt;Island.ts</title>
<path fill="none" stroke="#757575" d="M275.33,-436.1C327.64,-431.67 429.58,-422.68 516,-413 537.6,-410.58 561.58,-407.51 581.45,-404.86"/>
<polygon fill="#757575" stroke="#757575" points="581.98,-408.32 591.43,-403.52 581.05,-401.39 581.98,-408.32"/>
</g>
<!-- functions/createIslandElementConstructor.ts -->
<g id="node22" class="node">
<title>functions/createIslandElementConstructor.ts</title>
<path fill="none" stroke="#c6c5fe" d="M372.33,-233.5C372.33,-233.5 106.67,-233.5 106.67,-233.5 102.83,-233.5 99,-229.67 99,-225.83 99,-225.83 99,-218.17 99,-218.17 99,-214.33 102.83,-210.5 106.67,-210.5 106.67,-210.5 372.33,-210.5 372.33,-210.5 376.17,-210.5 380,-214.33 380,-218.17 380,-218.17 380,-225.83 380,-225.83 380,-229.67 376.17,-233.5 372.33,-233.5"/>
<text text-anchor="middle" x="239.5" y="-218.3" font-family="Arial" font-size="14.00" fill="#c6c5fe">functions/createIslandElementConstructor.ts</text>
</g>
<!-- functions/createIslandElementConstructor.ts&#45;&gt;../Error.ts -->
<g id="edge23" class="edge">
<title>functions/createIslandElementConstructor.ts&#45;&gt;../Error.ts</title>
<path fill="none" stroke="#757575" d="M271.29,-210.46C301.77,-197.82 348.35,-175.14 380,-144 402.71,-121.65 391.84,-102.77 416,-82 491.35,-17.22 524.63,0 624,0 624,0 624,0 828.5,0 935.97,0 978.29,-30.32 1039,-119 1079.35,-177.95 1098.7,-262.22 1105.95,-301.42"/>
<polygon fill="#757575" stroke="#757575" points="1102.53,-302.19 1107.72,-311.43 1109.43,-300.98 1102.53,-302.19"/>
</g>
<!-- functions/createIslandElementConstructor.ts&#45;&gt;../Observable.ts -->
<g id="edge25" class="edge">
<title>functions/createIslandElementConstructor.ts&#45;&gt;../Observable.ts</title>
<path fill="none" stroke="#757575" d="M354.26,-210.49C471,-200.98 643.09,-194.06 698,-229 728.86,-248.63 705.23,-280.42 734,-303 741.95,-309.24 751.42,-313.63 761.21,-316.71"/>
<polygon fill="#757575" stroke="#757575" points="760.51,-320.15 771.08,-319.37 762.33,-313.39 760.51,-320.15"/>
</g>
<!-- functions/createIslandElementConstructor.ts&#45;&gt;../Monad.ts -->
<g id="edge24" class="edge">
<title>functions/createIslandElementConstructor.ts&#45;&gt;../Monad.ts</title>
<path fill="none" stroke="#757575" d="M327.8,-233.54C382.51,-241.9 454.14,-254.92 516,-273 620.25,-303.46 737.59,-356.51 793.48,-383"/>
<polygon fill="#757575" stroke="#757575" points="792.01,-386.17 802.55,-387.32 795.02,-379.85 792.01,-386.17"/>
</g>
<!-- functions/createIslandElementConstructor.ts&#45;&gt;../constants.ts -->
<g id="edge26" class="edge">
<title>functions/createIslandElementConstructor.ts&#45;&gt;../constants.ts</title>
<path fill="none" stroke="#757575" d="M285.93,-210.47C321.69,-201.39 371.66,-188.7 409.73,-179.03"/>
<polygon fill="#757575" stroke="#757575" points="410.81,-182.37 419.64,-176.52 409.08,-175.59 410.81,-182.37"/>
</g>
<!-- functions/createIslandElementConstructor.ts&#45;&gt;../util.ts -->
<g id="edge27" class="edge">
<title>functions/createIslandElementConstructor.ts&#45;&gt;../util.ts</title>
<path fill="none" stroke="#757575" d="M262.43,-210.37C302.59,-189.09 388,-143.81 434.05,-119.41"/>
<polygon fill="#757575" stroke="#757575" points="435.78,-122.45 442.98,-114.67 432.5,-116.27 435.78,-122.45"/>
</g>
<!-- functions/createIslandElementConstructor.ts&#45;&gt;collections.ts -->
<g id="edge29" class="edge">
<title>functions/createIslandElementConstructor.ts&#45;&gt;collections.ts</title>
<path fill="none" stroke="#757575" d="M317.06,-233.5C338.53,-239 361.14,-247.1 380,-259 397.05,-269.76 431.16,-313.44 450.58,-339.38"/>
<polygon fill="#757575" stroke="#757575" points="447.79,-341.48 456.56,-347.42 453.4,-337.31 447.79,-341.48"/>
</g>
<!-- functions/createIslandElementConstructor.ts&#45;&gt;Island.ts -->
<g id="edge28" class="edge">
<title>functions/createIslandElementConstructor.ts&#45;&gt;Island.ts</title>
<path fill="none" stroke="#757575" d="M297.6,-233.58C323.3,-239.69 353.7,-248.19 380,-259 464.55,-293.76 555.91,-352.54 598.91,-381.63"/>
<polygon fill="#757575" stroke="#757575" points="597.1,-384.63 607.34,-387.36 601.04,-378.84 597.1,-384.63"/>
</g>
<!-- index.ts -->
<g id="node23" class="node">
<title>index.ts</title>
<path fill="none" stroke="#c6c5fe" d="M55.33,-410.5C55.33,-410.5 7.67,-410.5 7.67,-410.5 3.83,-410.5 0,-406.67 0,-402.83 0,-402.83 0,-395.17 0,-395.17 0,-391.33 3.83,-387.5 7.67,-387.5 7.67,-387.5 55.33,-387.5 55.33,-387.5 59.17,-387.5 63,-391.33 63,-395.17 63,-395.17 63,-402.83 63,-402.83 63,-406.67 59.17,-410.5 55.33,-410.5"/>
<text text-anchor="middle" x="31.5" y="-395.3" font-family="Arial" font-size="14.00" fill="#c6c5fe">index.ts</text>
</g>
<!-- index.ts&#45;&gt;../Error.ts -->
<g id="edge30" class="edge">
<title>index.ts&#45;&gt;../Error.ts</title>
<path fill="none" stroke="#757575" d="M32.24,-410.65C32.14,-446.21 37.17,-553.87 99,-603 226.84,-704.58 301.71,-635 465,-635 465,-635 465,-635 828.5,-635 923.57,-635 970.08,-662.48 1039,-597 1076.05,-561.8 1099.45,-402.79 1106.91,-344.5"/>
<polygon fill="#757575" stroke="#757575" points="1110.39,-344.9 1108.15,-334.55 1103.44,-344.04 1110.39,-344.9"/>
</g>
<!-- index.ts&#45;&gt;../Observable.ts -->
<g id="edge32" class="edge">
<title>index.ts&#45;&gt;../Observable.ts</title>
<path fill="none" stroke="#757575" d="M46.22,-387.37C58.98,-377.31 78.97,-363.42 99,-357 291,-295.49 350.55,-341.11 552,-333 623.55,-330.12 705.6,-327.18 761.22,-325.24"/>
<polygon fill="#757575" stroke="#757575" points="761.42,-328.73 771.29,-324.89 761.17,-321.74 761.42,-328.73"/>
</g>
<!-- index.ts&#45;&gt;../collections/InstanceMap.ts -->
<g id="edge33" class="edge">
<title>index.ts&#45;&gt;../collections/InstanceMap.ts</title>
<path fill="none" stroke="#757575" d="M33.07,-387.49C35.34,-354.17 46.38,-256.57 99,-202 263.68,-31.22 565.65,-21.97 723.77,-30.47"/>
<polygon fill="#757575" stroke="#757575" points="723.79,-33.98 733.98,-31.06 724.19,-26.99 723.79,-33.98"/>
</g>
<!-- index.ts&#45;&gt;../Monad.ts -->
<g id="edge31" class="edge">
<title>index.ts&#45;&gt;../Monad.ts</title>
<path fill="none" stroke="#757575" d="M41.37,-410.76C52.91,-425.08 74.52,-448.75 99,-460 268.1,-537.71 332.11,-526.61 516,-498 618.53,-482.05 733.5,-438.15 790.48,-414.53"/>
<polygon fill="#757575" stroke="#757575" points="791.9,-417.73 799.77,-410.64 789.19,-411.27 791.9,-417.73"/>
</g>
<!-- index.ts&#45;&gt;Evaluator.ts -->
<g id="edge34" class="edge">
<title>index.ts&#45;&gt;Evaluator.ts</title>
<path fill="none" stroke="#757575" d="M32.8,-410.61C34.35,-443.15 43.63,-535.49 99,-576 147.41,-611.42 323.03,-604.97 412.23,-599.12"/>
<polygon fill="#757575" stroke="#757575" points="412.66,-602.59 422.4,-598.43 412.19,-595.61 412.66,-602.59"/>
</g>
<!-- index.ts&#45;&gt;Interpolator.ts -->
<g id="edge35" class="edge">
<title>index.ts&#45;&gt;Interpolator.ts</title>
<path fill="none" stroke="#757575" d="M34.82,-410.59C40.63,-436.39 58.37,-498.68 99,-529 122.11,-546.25 153.25,-553.16 180.24,-555.58"/>
<polygon fill="#757575" stroke="#757575" points="180.14,-559.08 190.36,-556.3 180.64,-552.1 180.14,-559.08"/>
</g>
<!-- index.ts&#45;&gt;collections.ts -->
<g id="edge37" class="edge">
<title>index.ts&#45;&gt;collections.ts</title>
<path fill="none" stroke="#757575" d="M63.14,-391.64C74.36,-389.18 87.2,-386.65 99,-385 207.98,-369.73 336.55,-363.23 408.64,-360.62"/>
<polygon fill="#757575" stroke="#757575" points="408.98,-364.11 418.85,-360.26 408.74,-357.11 408.98,-364.11"/>
</g>
<!-- index.ts&#45;&gt;Island.ts -->
<g id="edge36" class="edge">
<title>index.ts&#45;&gt;Island.ts</title>
<path fill="none" stroke="#757575" d="M63.06,-399C161.13,-399 468.13,-399 581.44,-399"/>
<polygon fill="#757575" stroke="#757575" points="581.47,-402.5 591.47,-399 581.47,-395.5 581.47,-402.5"/>
</g>
<!-- index.ts&#45;&gt;directives/ClassListDirective.ts -->
<g id="edge38" class="edge">
<title>index.ts&#45;&gt;directives/ClassListDirective.ts</title>
<path fill="none" stroke="#757575" d="M37.24,-387.24C46.1,-366.9 67.18,-325.38 99,-305 108.55,-298.89 119.17,-294.13 130.17,-290.44"/>
<polygon fill="#757575" stroke="#757575" points="131.38,-293.73 139.92,-287.47 129.34,-287.04 131.38,-293.73"/>
</g>
<!-- index.ts&#45;&gt;events.ts -->
<g id="edge39" class="edge">
<title>index.ts&#45;&gt;events.ts</title>
<path fill="none" stroke="#757575" d="M63.26,-405.63C74.5,-408.01 87.31,-410.68 99,-413 130.61,-419.27 166.33,-425.92 193.71,-430.93"/>
<polygon fill="#757575" stroke="#757575" points="193.31,-434.41 203.77,-432.76 194.56,-427.52 193.31,-434.41"/>
</g>
<!-- index.ts&#45;&gt;functions/createIslandElementConstructor.ts -->
<g id="edge40" class="edge">
<title>index.ts&#45;&gt;functions/createIslandElementConstructor.ts</title>
<path fill="none" stroke="#757575" d="M34.63,-387.18C40.13,-360.16 57.4,-293.57 99,-259 110.7,-249.28 124.69,-242.09 139.24,-236.77"/>
<polygon fill="#757575" stroke="#757575" points="140.49,-240.05 148.85,-233.55 138.26,-233.41 140.49,-240.05"/>
</g>
</g>
</svg>
