<?xml version="1.0" encoding="UTF-8" standalone="no"?>
<!DOCTYPE svg PUBLIC "-//W3C//DTD SVG 1.1//EN"
 "http://www.w3.org/Graphics/SVG/1.1/DTD/svg11.dtd">
<!-- Generated by graphviz version 2.43.0 (0)
 -->
<!-- Title: G Pages: 1 -->
<svg width="1331pt" height="786pt"
 viewBox="0.00 0.00 1331.20 785.57" xmlns="http://www.w3.org/2000/svg" xmlns:xlink="http://www.w3.org/1999/xlink">
<g id="graph0" class="graph" transform="scale(1 1) rotate(0) translate(21.6 763.97)">
<title>G</title>
<polygon fill="#111111" stroke="transparent" points="-21.6,21.6 -21.6,-763.97 1309.6,-763.97 1309.6,21.6 -21.6,21.6"/>
<!-- ../Animation.ts -->
<g id="node1" class="node">
<title>../Animation.ts</title>
<path fill="none" stroke="#cfffac" d="M768.33,-103C768.33,-103 680.67,-103 680.67,-103 676.83,-103 673,-99.17 673,-95.33 673,-95.33 673,-87.67 673,-87.67 673,-83.83 676.83,-80 680.67,-80 680.67,-80 768.33,-80 768.33,-80 772.17,-80 776,-83.83 776,-87.67 776,-87.67 776,-95.33 776,-95.33 776,-99.17 772.17,-103 768.33,-103"/>
<text text-anchor="middle" x="724.5" y="-87.8" font-family="Arial" font-size="14.00" fill="#cfffac">../Animation.ts</text>
</g>
<!-- ../Debug.ts -->
<g id="node2" class="node">
<title>../Debug.ts</title>
<path fill="none" stroke="#c6c5fe" d="M1141.33,-418C1141.33,-418 1074.67,-418 1074.67,-418 1070.83,-418 1067,-414.17 1067,-410.33 1067,-410.33 1067,-402.67 1067,-402.67 1067,-398.83 1070.83,-395 1074.67,-395 1074.67,-395 1141.33,-395 1141.33,-395 1145.17,-395 1149,-398.83 1149,-402.67 1149,-402.67 1149,-410.33 1149,-410.33 1149,-414.17 1145.17,-418 1141.33,-418"/>
<text text-anchor="middle" x="1108" y="-402.8" font-family="Arial" font-size="14.00" fill="#c6c5fe">../Debug.ts</text>
</g>
<!-- ../Error.ts -->
<g id="node3" class="node">
<title>../Error.ts</title>
<path fill="none" stroke="#cfffac" d="M1280.33,-418C1280.33,-418 1224.67,-418 1224.67,-418 1220.83,-418 1217,-414.17 1217,-410.33 1217,-410.33 1217,-402.67 1217,-402.67 1217,-398.83 1220.83,-395 1224.67,-395 1224.67,-395 1280.33,-395 1280.33,-395 1284.17,-395 1288,-398.83 1288,-402.67 1288,-402.67 1288,-410.33 1288,-410.33 1288,-414.17 1284.17,-418 1280.33,-418"/>
<text text-anchor="middle" x="1252.5" y="-402.8" font-family="Arial" font-size="14.00" fill="#cfffac">../Error.ts</text>
</g>
<!-- ../Debug.ts&#45;&gt;../Error.ts -->
<g id="edge1" class="edge">
<title>../Debug.ts&#45;&gt;../Error.ts</title>
<path fill="none" stroke="#757575" d="M1149.07,-406.5C1166.91,-406.5 1187.99,-406.5 1206.38,-406.5"/>
<polygon fill="#757575" stroke="#757575" points="1206.57,-410 1216.57,-406.5 1206.57,-403 1206.57,-410"/>
</g>
<!-- ../HeadingDirection.ts -->
<g id="node4" class="node">
<title>../HeadingDirection.ts</title>
<path fill="none" stroke="#c6c5fe" d="M1173.33,-223C1173.33,-223 1042.67,-223 1042.67,-223 1038.83,-223 1035,-219.17 1035,-215.33 1035,-215.33 1035,-207.67 1035,-207.67 1035,-203.83 1038.83,-200 1042.67,-200 1042.67,-200 1173.33,-200 1173.33,-200 1177.17,-200 1181,-203.83 1181,-207.67 1181,-207.67 1181,-215.33 1181,-215.33 1181,-219.17 1177.17,-223 1173.33,-223"/>
<text text-anchor="middle" x="1108" y="-207.8" font-family="Arial" font-size="14.00" fill="#c6c5fe">../HeadingDirection.ts</text>
</g>
<!-- ../HeadingDirection.ts&#45;&gt;../Error.ts -->
<g id="edge2" class="edge">
<title>../HeadingDirection.ts&#45;&gt;../Error.ts</title>
<path fill="none" stroke="#757575" d="M1158.24,-223.05C1166.55,-226.65 1174.55,-231.36 1181,-237.5 1223.79,-278.26 1241.61,-348.93 1248.16,-384.58"/>
<polygon fill="#757575" stroke="#757575" points="1244.78,-385.58 1249.91,-394.85 1251.68,-384.4 1244.78,-385.58"/>
</g>
<!-- ../Input.ts -->
<g id="node5" class="node">
<title>../Input.ts</title>
<path fill="none" stroke="#cfffac" d="M622.83,-185C622.83,-185 566.17,-185 566.17,-185 562.33,-185 558.5,-181.17 558.5,-177.33 558.5,-177.33 558.5,-169.67 558.5,-169.67 558.5,-165.83 562.33,-162 566.17,-162 566.17,-162 622.83,-162 622.83,-162 626.67,-162 630.5,-165.83 630.5,-169.67 630.5,-169.67 630.5,-177.33 630.5,-177.33 630.5,-181.17 626.67,-185 622.83,-185"/>
<text text-anchor="middle" x="594.5" y="-169.8" font-family="Arial" font-size="14.00" fill="#cfffac">../Input.ts</text>
</g>
<!-- ../Log.ts -->
<g id="node6" class="node">
<title>../Log.ts</title>
<path fill="none" stroke="#c6c5fe" d="M749.33,-144C749.33,-144 699.67,-144 699.67,-144 695.83,-144 692,-140.17 692,-136.33 692,-136.33 692,-128.67 692,-128.67 692,-124.83 695.83,-121 699.67,-121 699.67,-121 749.33,-121 749.33,-121 753.17,-121 757,-124.83 757,-128.67 757,-128.67 757,-136.33 757,-136.33 757,-140.17 753.17,-144 749.33,-144"/>
<text text-anchor="middle" x="724.5" y="-128.8" font-family="Arial" font-size="14.00" fill="#c6c5fe">../Log.ts</text>
</g>
<!-- ../Log.ts&#45;&gt;../Error.ts -->
<g id="edge3" class="edge">
<title>../Log.ts&#45;&gt;../Error.ts</title>
<path fill="none" stroke="#757575" d="M757.12,-121.96C763.66,-119.08 770.29,-115.59 776,-111.5 795.71,-97.37 789.91,-80.5 812,-70.5 887.71,-36.22 919.39,-46.62 999,-70.5 1091.8,-98.34 1122.23,-113.47 1181,-190.5 1227.24,-251.12 1243.85,-343.33 1249.21,-384.87"/>
<polygon fill="#757575" stroke="#757575" points="1245.75,-385.44 1250.41,-394.96 1252.7,-384.61 1245.75,-385.44"/>
</g>
<!-- ../Observable.ts -->
<g id="node7" class="node">
<title>../Observable.ts</title>
<path fill="none" stroke="#c6c5fe" d="M953.83,-418C953.83,-418 857.17,-418 857.17,-418 853.33,-418 849.5,-414.17 849.5,-410.33 849.5,-410.33 849.5,-402.67 849.5,-402.67 849.5,-398.83 853.33,-395 857.17,-395 857.17,-395 953.83,-395 953.83,-395 957.67,-395 961.5,-398.83 961.5,-402.67 961.5,-402.67 961.5,-410.33 961.5,-410.33 961.5,-414.17 957.67,-418 953.83,-418"/>
<text text-anchor="middle" x="905.5" y="-402.8" font-family="Arial" font-size="14.00" fill="#c6c5fe">../Observable.ts</text>
</g>
<!-- ../Log.ts&#45;&gt;../Observable.ts -->
<g id="edge4" class="edge">
<title>../Log.ts&#45;&gt;../Observable.ts</title>
<path fill="none" stroke="#757575" d="M733.19,-144.27C760.9,-186.69 855.86,-332.05 891.15,-386.07"/>
<polygon fill="#757575" stroke="#757575" points="888.44,-388.31 896.84,-394.77 894.3,-384.48 888.44,-388.31"/>
</g>
<!-- ../collections/InstanceMap.ts -->
<g id="node8" class="node">
<title>../collections/InstanceMap.ts</title>
<path fill="none" stroke="#cfffac" d="M991.33,-23C991.33,-23 819.67,-23 819.67,-23 815.83,-23 812,-19.17 812,-15.33 812,-15.33 812,-7.67 812,-7.67 812,-3.83 815.83,0 819.67,0 819.67,0 991.33,0 991.33,0 995.17,0 999,-3.83 999,-7.67 999,-7.67 999,-15.33 999,-15.33 999,-19.17 995.17,-23 991.33,-23"/>
<text text-anchor="middle" x="905.5" y="-7.8" font-family="Arial" font-size="14.00" fill="#cfffac">../collections/InstanceMap.ts</text>
</g>
<!-- ../Log.ts&#45;&gt;../collections/InstanceMap.ts -->
<g id="edge5" class="edge">
<title>../Log.ts&#45;&gt;../collections/InstanceMap.ts</title>
<path fill="none" stroke="#757575" d="M757.24,-123.41C763.99,-120.41 770.68,-116.52 776,-111.5 802.61,-86.41 783.93,-60.95 812,-37.5 816.67,-33.59 821.9,-30.27 827.42,-27.45"/>
<polygon fill="#757575" stroke="#757575" points="829.27,-30.46 836.94,-23.16 826.39,-24.08 829.27,-30.46"/>
</g>
<!-- ../functions/Array.ts -->
<g id="node9" class="node">
<title>../functions/Array.ts</title>
<path fill="none" stroke="#cfffac" d="M963.33,-185C963.33,-185 847.67,-185 847.67,-185 843.83,-185 840,-181.17 840,-177.33 840,-177.33 840,-169.67 840,-169.67 840,-165.83 843.83,-162 847.67,-162 847.67,-162 963.33,-162 963.33,-162 967.17,-162 971,-165.83 971,-169.67 971,-169.67 971,-177.33 971,-177.33 971,-181.17 967.17,-185 963.33,-185"/>
<text text-anchor="middle" x="905.5" y="-169.8" font-family="Arial" font-size="14.00" fill="#cfffac">../functions/Array.ts</text>
</g>
<!-- ../Log.ts&#45;&gt;../functions/Array.ts -->
<g id="edge6" class="edge">
<title>../Log.ts&#45;&gt;../functions/Array.ts</title>
<path fill="none" stroke="#757575" d="M757.13,-139.84C773.5,-143.64 793.82,-148.33 812,-152.5 822.22,-154.84 833.07,-157.32 843.62,-159.71"/>
<polygon fill="#757575" stroke="#757575" points="843.07,-163.18 853.6,-161.98 844.63,-156.35 843.07,-163.18"/>
</g>
<!-- ../functions/Map.ts -->
<g id="node10" class="node">
<title>../functions/Map.ts</title>
<path fill="none" stroke="#cfffac" d="M961.33,-144C961.33,-144 849.67,-144 849.67,-144 845.83,-144 842,-140.17 842,-136.33 842,-136.33 842,-128.67 842,-128.67 842,-124.83 845.83,-121 849.67,-121 849.67,-121 961.33,-121 961.33,-121 965.17,-121 969,-124.83 969,-128.67 969,-128.67 969,-136.33 969,-136.33 969,-140.17 965.17,-144 961.33,-144"/>
<text text-anchor="middle" x="905.5" y="-128.8" font-family="Arial" font-size="14.00" fill="#cfffac">../functions/Map.ts</text>
</g>
<!-- ../Log.ts&#45;&gt;../functions/Map.ts -->
<g id="edge7" class="edge">
<title>../Log.ts&#45;&gt;../functions/Map.ts</title>
<path fill="none" stroke="#757575" d="M757.09,-132.5C777.73,-132.5 805.58,-132.5 831.52,-132.5"/>
<polygon fill="#757575" stroke="#757575" points="831.72,-136 841.72,-132.5 831.72,-129 831.72,-136"/>
</g>
<!-- ../functions/Set.ts -->
<g id="node11" class="node">
<title>../functions/Set.ts</title>
<path fill="none" stroke="#cfffac" d="M957.83,-103C957.83,-103 853.17,-103 853.17,-103 849.33,-103 845.5,-99.17 845.5,-95.33 845.5,-95.33 845.5,-87.67 845.5,-87.67 845.5,-83.83 849.33,-80 853.17,-80 853.17,-80 957.83,-80 957.83,-80 961.67,-80 965.5,-83.83 965.5,-87.67 965.5,-87.67 965.5,-95.33 965.5,-95.33 965.5,-99.17 961.67,-103 957.83,-103"/>
<text text-anchor="middle" x="905.5" y="-87.8" font-family="Arial" font-size="14.00" fill="#cfffac">../functions/Set.ts</text>
</g>
<!-- ../Log.ts&#45;&gt;../functions/Set.ts -->
<g id="edge8" class="edge">
<title>../Log.ts&#45;&gt;../functions/Set.ts</title>
<path fill="none" stroke="#757575" d="M757.09,-124.63C773.45,-120.6 793.77,-115.68 812,-111.5 821.15,-109.4 830.83,-107.24 840.34,-105.15"/>
<polygon fill="#757575" stroke="#757575" points="841.13,-108.56 850.16,-103.01 839.64,-101.72 841.13,-108.56"/>
</g>
<!-- ../Observable.ts&#45;&gt;../Debug.ts -->
<g id="edge9" class="edge">
<title>../Observable.ts&#45;&gt;../Debug.ts</title>
<path fill="none" stroke="#757575" d="M961.55,-406.5C991.19,-406.5 1027.48,-406.5 1056.4,-406.5"/>
<polygon fill="#757575" stroke="#757575" points="1056.7,-410 1066.7,-406.5 1056.7,-403 1056.7,-410"/>
</g>
<!-- ../Monad.ts -->
<g id="node12" class="node">
<title>../Monad.ts</title>
<path fill="none" stroke="#cfffac" d="M758.83,-377C758.83,-377 690.17,-377 690.17,-377 686.33,-377 682.5,-373.17 682.5,-369.33 682.5,-369.33 682.5,-361.67 682.5,-361.67 682.5,-357.83 686.33,-354 690.17,-354 690.17,-354 758.83,-354 758.83,-354 762.67,-354 766.5,-357.83 766.5,-361.67 766.5,-361.67 766.5,-369.33 766.5,-369.33 766.5,-373.17 762.67,-377 758.83,-377"/>
<text text-anchor="middle" x="724.5" y="-361.8" font-family="Arial" font-size="14.00" fill="#cfffac">../Monad.ts</text>
</g>
<!-- ../Route.ts -->
<g id="node13" class="node">
<title>../Route.ts</title>
<path fill="none" stroke="#c6c5fe" d="M497.33,-143C497.33,-143 434.67,-143 434.67,-143 430.83,-143 427,-139.17 427,-135.33 427,-135.33 427,-127.67 427,-127.67 427,-123.83 430.83,-120 434.67,-120 434.67,-120 497.33,-120 497.33,-120 501.17,-120 505,-123.83 505,-127.67 505,-127.67 505,-135.33 505,-135.33 505,-139.17 501.17,-143 497.33,-143"/>
<text text-anchor="middle" x="466" y="-127.8" font-family="Arial" font-size="14.00" fill="#c6c5fe">../Route.ts</text>
</g>
<!-- ../globals.ts -->
<g id="node14" class="node">
<title>../globals.ts</title>
<path fill="none" stroke="#cfffac" d="M629.33,-103C629.33,-103 559.67,-103 559.67,-103 555.83,-103 552,-99.17 552,-95.33 552,-95.33 552,-87.67 552,-87.67 552,-83.83 555.83,-80 559.67,-80 559.67,-80 629.33,-80 629.33,-80 633.17,-80 637,-83.83 637,-87.67 637,-87.67 637,-95.33 637,-95.33 637,-99.17 633.17,-103 629.33,-103"/>
<text text-anchor="middle" x="594.5" y="-87.8" font-family="Arial" font-size="14.00" fill="#cfffac">../globals.ts</text>
</g>
<!-- ../Route.ts&#45;&gt;../globals.ts -->
<g id="edge10" class="edge">
<title>../Route.ts&#45;&gt;../globals.ts</title>
<path fill="none" stroke="#757575" d="M503.59,-119.93C517.23,-115.62 532.88,-110.67 547.27,-106.12"/>
<polygon fill="#757575" stroke="#757575" points="548.51,-109.4 556.99,-103.04 546.4,-102.72 548.51,-109.4"/>
</g>
<!-- ../util.ts -->
<g id="node15" class="node">
<title>../util.ts</title>
<path fill="none" stroke="#c6c5fe" d="M616.33,-144C616.33,-144 572.67,-144 572.67,-144 568.83,-144 565,-140.17 565,-136.33 565,-136.33 565,-128.67 565,-128.67 565,-124.83 568.83,-121 572.67,-121 572.67,-121 616.33,-121 616.33,-121 620.17,-121 624,-124.83 624,-128.67 624,-128.67 624,-136.33 624,-136.33 624,-140.17 620.17,-144 616.33,-144"/>
<text text-anchor="middle" x="594.5" y="-128.8" font-family="Arial" font-size="14.00" fill="#c6c5fe">../util.ts</text>
</g>
<!-- ../Route.ts&#45;&gt;../util.ts -->
<g id="edge11" class="edge">
<title>../Route.ts&#45;&gt;../util.ts</title>
<path fill="none" stroke="#757575" d="M505.3,-131.8C520.9,-131.93 538.91,-132.07 554.57,-132.19"/>
<polygon fill="#757575" stroke="#757575" points="554.95,-135.7 564.98,-132.27 555.01,-128.7 554.95,-135.7"/>
</g>
<!-- ../util.ts&#45;&gt;../Animation.ts -->
<g id="edge14" class="edge">
<title>../util.ts&#45;&gt;../Animation.ts</title>
<path fill="none" stroke="#757575" d="M624.23,-123.3C640.02,-118.24 659.99,-111.84 677.87,-106.12"/>
<polygon fill="#757575" stroke="#757575" points="679.09,-109.4 687.54,-103.02 676.95,-102.73 679.09,-109.4"/>
</g>
<!-- ../util.ts&#45;&gt;../Log.ts -->
<g id="edge15" class="edge">
<title>../util.ts&#45;&gt;../Log.ts</title>
<path fill="none" stroke="#757575" d="M624.23,-132.5C641.14,-132.5 662.84,-132.5 681.63,-132.5"/>
<polygon fill="#757575" stroke="#757575" points="681.73,-136 691.73,-132.5 681.73,-129 681.73,-136"/>
</g>
<!-- ../constants.ts -->
<g id="node16" class="node">
<title>../constants.ts</title>
<path fill="none" stroke="#c6c5fe" d="M508.33,-223C508.33,-223 423.67,-223 423.67,-223 419.83,-223 416,-219.17 416,-215.33 416,-215.33 416,-207.67 416,-207.67 416,-203.83 419.83,-200 423.67,-200 423.67,-200 508.33,-200 508.33,-200 512.17,-200 516,-203.83 516,-207.67 516,-207.67 516,-215.33 516,-215.33 516,-219.17 512.17,-223 508.33,-223"/>
<text text-anchor="middle" x="466" y="-207.8" font-family="Arial" font-size="14.00" fill="#c6c5fe">../constants.ts</text>
</g>
<!-- ../constants.ts&#45;&gt;../HeadingDirection.ts -->
<g id="edge12" class="edge">
<title>../constants.ts&#45;&gt;../HeadingDirection.ts</title>
<path fill="none" stroke="#757575" d="M516.16,-211.5C625.49,-211.5 889.75,-211.5 1024.71,-211.5"/>
<polygon fill="#757575" stroke="#757575" points="1024.99,-215 1034.99,-211.5 1024.99,-208 1024.99,-215"/>
</g>
<!-- ../constants.ts&#45;&gt;../Input.ts -->
<g id="edge13" class="edge">
<title>../constants.ts&#45;&gt;../Input.ts</title>
<path fill="none" stroke="#757575" d="M505.3,-200C518.87,-195.92 534.28,-191.29 548.37,-187.06"/>
<polygon fill="#757575" stroke="#757575" points="549.78,-190.29 558.35,-184.06 547.77,-183.58 549.78,-190.29"/>
</g>
<!-- Evaluator.ts -->
<g id="node17" class="node">
<title>Evaluator.ts</title>
<path fill="none" stroke="#c6c5fe" d="M501.83,-691C501.83,-691 430.17,-691 430.17,-691 426.33,-691 422.5,-687.17 422.5,-683.33 422.5,-683.33 422.5,-675.67 422.5,-675.67 422.5,-671.83 426.33,-668 430.17,-668 430.17,-668 501.83,-668 501.83,-668 505.67,-668 509.5,-671.83 509.5,-675.67 509.5,-675.67 509.5,-683.33 509.5,-683.33 509.5,-687.17 505.67,-691 501.83,-691"/>
<text text-anchor="middle" x="466" y="-675.8" font-family="Arial" font-size="14.00" fill="#c6c5fe">Evaluator.ts</text>
</g>
<!-- Evaluator.ts&#45;&gt;../Error.ts -->
<g id="edge16" class="edge">
<title>Evaluator.ts&#45;&gt;../Error.ts</title>
<path fill="none" stroke="#757575" d="M509.66,-679.23C560.56,-678.94 648.24,-678.5 723.5,-678.5 723.5,-678.5 723.5,-678.5 906.5,-678.5 1029,-678.5 1086.66,-731.65 1181,-653.5 1216.26,-624.29 1240.32,-483.01 1248.45,-428.25"/>
<polygon fill="#757575" stroke="#757575" points="1251.94,-428.63 1249.91,-418.23 1245.01,-427.62 1251.94,-428.63"/>
</g>
<!-- EventType.ts -->
<g id="node18" class="node">
<title>EventType.ts</title>
<path fill="none" stroke="#cfffac" d="M505.83,-493C505.83,-493 426.17,-493 426.17,-493 422.33,-493 418.5,-489.17 418.5,-485.33 418.5,-485.33 418.5,-477.67 418.5,-477.67 418.5,-473.83 422.33,-470 426.17,-470 426.17,-470 505.83,-470 505.83,-470 509.67,-470 513.5,-473.83 513.5,-477.67 513.5,-477.67 513.5,-485.33 513.5,-485.33 513.5,-489.17 509.67,-493 505.83,-493"/>
<text text-anchor="middle" x="466" y="-477.8" font-family="Arial" font-size="14.00" fill="#cfffac">EventType.ts</text>
</g>
<!-- Interpolator.ts -->
<g id="node19" class="node">
<title>Interpolator.ts</title>
<path fill="none" stroke="#c6c5fe" d="M280.83,-651C280.83,-651 198.17,-651 198.17,-651 194.33,-651 190.5,-647.17 190.5,-643.33 190.5,-643.33 190.5,-635.67 190.5,-635.67 190.5,-631.83 194.33,-628 198.17,-628 198.17,-628 280.83,-628 280.83,-628 284.67,-628 288.5,-631.83 288.5,-635.67 288.5,-635.67 288.5,-643.33 288.5,-643.33 288.5,-647.17 284.67,-651 280.83,-651"/>
<text text-anchor="middle" x="239.5" y="-635.8" font-family="Arial" font-size="14.00" fill="#c6c5fe">Interpolator.ts</text>
</g>
<!-- Interpolator.ts&#45;&gt;../Error.ts -->
<g id="edge17" class="edge">
<title>Interpolator.ts&#45;&gt;../Error.ts</title>
<path fill="none" stroke="#757575" d="M288.75,-639.5C356.72,-639.5 484.57,-639.5 593.5,-639.5 593.5,-639.5 593.5,-639.5 906.5,-639.5 1058.46,-639.5 1193.52,-482.33 1236.94,-426.16"/>
<polygon fill="#757575" stroke="#757575" points="1239.84,-428.13 1243.11,-418.05 1234.27,-423.89 1239.84,-428.13"/>
</g>
<!-- Interpolator.ts&#45;&gt;Evaluator.ts -->
<g id="edge18" class="edge">
<title>Interpolator.ts&#45;&gt;Evaluator.ts</title>
<path fill="none" stroke="#757575" d="M288.66,-648.08C324.93,-654.54 374.63,-663.4 412.03,-670.06"/>
<polygon fill="#757575" stroke="#757575" points="411.77,-673.57 422.22,-671.88 412.99,-666.68 411.77,-673.57"/>
</g>
<!-- collections.ts -->
<g id="node20" class="node">
<title>collections.ts</title>
<path fill="none" stroke="#c6c5fe" d="M505.33,-573C505.33,-573 426.67,-573 426.67,-573 422.83,-573 419,-569.17 419,-565.33 419,-565.33 419,-557.67 419,-557.67 419,-553.83 422.83,-550 426.67,-550 426.67,-550 505.33,-550 505.33,-550 509.17,-550 513,-553.83 513,-557.67 513,-557.67 513,-565.33 513,-565.33 513,-569.17 509.17,-573 505.33,-573"/>
<text text-anchor="middle" x="466" y="-557.8" font-family="Arial" font-size="14.00" fill="#c6c5fe">collections.ts</text>
</g>
<!-- Interpolator.ts&#45;&gt;collections.ts -->
<g id="edge19" class="edge">
<title>Interpolator.ts&#45;&gt;collections.ts</title>
<path fill="none" stroke="#757575" d="M273.63,-627.99C313,-614.31 378.81,-591.44 422.07,-576.42"/>
<polygon fill="#757575" stroke="#757575" points="423.44,-579.64 431.74,-573.06 421.14,-573.03 423.44,-579.64"/>
</g>
<!-- collections.ts&#45;&gt;../Observable.ts -->
<g id="edge21" class="edge">
<title>collections.ts&#45;&gt;../Observable.ts</title>
<path fill="none" stroke="#757575" d="M499.53,-549.98C577.52,-522.35 775.13,-452.33 862.2,-421.49"/>
<polygon fill="#757575" stroke="#757575" points="863.5,-424.74 871.76,-418.1 861.16,-418.14 863.5,-424.74"/>
</g>
<!-- Island.ts -->
<g id="node21" class="node">
<title>Island.ts</title>
<path fill="none" stroke="#c6c5fe" d="M620.33,-453C620.33,-453 568.67,-453 568.67,-453 564.83,-453 561,-449.17 561,-445.33 561,-445.33 561,-437.67 561,-437.67 561,-433.83 564.83,-430 568.67,-430 568.67,-430 620.33,-430 620.33,-430 624.17,-430 628,-433.83 628,-437.67 628,-437.67 628,-445.33 628,-445.33 628,-449.17 624.17,-453 620.33,-453"/>
<text text-anchor="middle" x="594.5" y="-437.8" font-family="Arial" font-size="14.00" fill="#c6c5fe">Island.ts</text>
</g>
<!-- collections.ts&#45;&gt;Island.ts -->
<g id="edge22" class="edge">
<title>collections.ts&#45;&gt;Island.ts</title>
<path fill="none" stroke="#757575" d="M493.37,-549.93C501.06,-545.93 509.21,-541.04 516,-535.5 542.43,-513.93 566.32,-482.22 580.38,-461.72"/>
<polygon fill="#757575" stroke="#757575" points="583.46,-463.42 586.12,-453.16 577.64,-459.51 583.46,-463.42"/>
</g>
<!-- Island.ts&#45;&gt;../Monad.ts -->
<g id="edge20" class="edge">
<title>Island.ts&#45;&gt;../Monad.ts</title>
<path fill="none" stroke="#757575" d="M614.94,-429.96C636.27,-417.29 670.72,-396.84 695.08,-382.37"/>
<polygon fill="#757575" stroke="#757575" points="697.06,-385.27 703.88,-377.15 693.49,-379.25 697.06,-385.27"/>
</g>
<!-- directives/RouteDirective.ts -->
<g id="node22" class="node">
<title>directives/RouteDirective.ts</title>
<path fill="none" stroke="#c6c5fe" d="M321.83,-202C321.83,-202 157.17,-202 157.17,-202 153.33,-202 149.5,-198.17 149.5,-194.33 149.5,-194.33 149.5,-186.67 149.5,-186.67 149.5,-182.83 153.33,-179 157.17,-179 157.17,-179 321.83,-179 321.83,-179 325.67,-179 329.5,-182.83 329.5,-186.67 329.5,-186.67 329.5,-194.33 329.5,-194.33 329.5,-198.17 325.67,-202 321.83,-202"/>
<text text-anchor="middle" x="239.5" y="-186.8" font-family="Arial" font-size="14.00" fill="#c6c5fe">directives/RouteDirective.ts</text>
</g>
<!-- directives/RouteDirective.ts&#45;&gt;../Route.ts -->
<g id="edge23" class="edge">
<title>directives/RouteDirective.ts&#45;&gt;../Route.ts</title>
<path fill="none" stroke="#757575" d="M284.32,-178.98C322.47,-168.96 377.67,-154.45 417.01,-144.11"/>
<polygon fill="#757575" stroke="#757575" points="418.11,-147.44 426.9,-141.51 416.33,-140.67 418.11,-147.44"/>
</g>
<!-- events.ts -->
<g id="node23" class="node">
<title>events.ts</title>
<path fill="none" stroke="#c6c5fe" d="M267.33,-513C267.33,-513 211.67,-513 211.67,-513 207.83,-513 204,-509.17 204,-505.33 204,-505.33 204,-497.67 204,-497.67 204,-493.83 207.83,-490 211.67,-490 211.67,-490 267.33,-490 267.33,-490 271.17,-490 275,-493.83 275,-497.67 275,-497.67 275,-505.33 275,-505.33 275,-509.17 271.17,-513 267.33,-513"/>
<text text-anchor="middle" x="239.5" y="-497.8" font-family="Arial" font-size="14.00" fill="#c6c5fe">events.ts</text>
</g>
<!-- events.ts&#45;&gt;EventType.ts -->
<g id="edge24" class="edge">
<title>events.ts&#45;&gt;EventType.ts</title>
<path fill="none" stroke="#757575" d="M275.09,-498.42C310.54,-495.26 366.26,-490.3 408.2,-486.56"/>
<polygon fill="#757575" stroke="#757575" points="408.62,-490.04 418.27,-485.66 408,-483.06 408.62,-490.04"/>
</g>
<!-- events.ts&#45;&gt;Island.ts -->
<g id="edge25" class="edge">
<title>events.ts&#45;&gt;Island.ts</title>
<path fill="none" stroke="#757575" d="M275.19,-508.76C328.62,-518.4 433.52,-531.07 516,-502.5 539.89,-494.23 562,-475.2 576.44,-460.58"/>
<polygon fill="#757575" stroke="#757575" points="579.29,-462.67 583.64,-453.01 574.21,-457.85 579.29,-462.67"/>
</g>
<!-- functions/createIslandElementConstructor.ts -->
<g id="node24" class="node">
<title>functions/createIslandElementConstructor.ts</title>
<path fill="none" stroke="#c6c5fe" d="M372.33,-319C372.33,-319 106.67,-319 106.67,-319 102.83,-319 99,-315.17 99,-311.33 99,-311.33 99,-303.67 99,-303.67 99,-299.83 102.83,-296 106.67,-296 106.67,-296 372.33,-296 372.33,-296 376.17,-296 380,-299.83 380,-303.67 380,-303.67 380,-311.33 380,-311.33 380,-315.17 376.17,-319 372.33,-319"/>
<text text-anchor="middle" x="239.5" y="-303.8" font-family="Arial" font-size="14.00" fill="#c6c5fe">functions/createIslandElementConstructor.ts</text>
</g>
<!-- functions/createIslandElementConstructor.ts&#45;&gt;../Error.ts -->
<g id="edge26" class="edge">
<title>functions/createIslandElementConstructor.ts&#45;&gt;../Error.ts</title>
<path fill="none" stroke="#757575" d="M284.45,-295.96C350.87,-279.57 481.03,-251.5 593.5,-251.5 593.5,-251.5 593.5,-251.5 906.5,-251.5 1038.99,-251.5 1176.94,-347.78 1229.45,-388.58"/>
<polygon fill="#757575" stroke="#757575" points="1227.39,-391.41 1237.41,-394.85 1231.72,-385.91 1227.39,-391.41"/>
</g>
<!-- functions/createIslandElementConstructor.ts&#45;&gt;../Observable.ts -->
<g id="edge28" class="edge">
<title>functions/createIslandElementConstructor.ts&#45;&gt;../Observable.ts</title>
<path fill="none" stroke="#757575" d="M380.02,-302.59C489.58,-302.24 644.99,-309.58 776,-345.5 812.7,-355.56 851.77,-375.61 877.06,-389.98"/>
<polygon fill="#757575" stroke="#757575" points="875.32,-393.01 885.73,-394.98 878.82,-386.95 875.32,-393.01"/>
</g>
<!-- functions/createIslandElementConstructor.ts&#45;&gt;../Monad.ts -->
<g id="edge27" class="edge">
<title>functions/createIslandElementConstructor.ts&#45;&gt;../Monad.ts</title>
<path fill="none" stroke="#757575" d="M358.23,-319.01C437.21,-327.11 543.5,-338.75 637,-351.5 648.43,-353.06 660.67,-354.92 672.24,-356.77"/>
<polygon fill="#757575" stroke="#757575" points="671.77,-360.24 682.2,-358.39 672.89,-353.33 671.77,-360.24"/>
</g>
<!-- functions/createIslandElementConstructor.ts&#45;&gt;../util.ts -->
<g id="edge30" class="edge">
<title>functions/createIslandElementConstructor.ts&#45;&gt;../util.ts</title>
<path fill="none" stroke="#757575" d="M256.74,-295.84C293.58,-269.53 382.89,-206.57 416,-190.5 461.85,-168.24 518.33,-151.45 555.09,-141.8"/>
<polygon fill="#757575" stroke="#757575" points="556.1,-145.16 564.91,-139.27 554.36,-138.38 556.1,-145.16"/>
</g>
<!-- functions/createIslandElementConstructor.ts&#45;&gt;../constants.ts -->
<g id="edge29" class="edge">
<title>functions/createIslandElementConstructor.ts&#45;&gt;../constants.ts</title>
<path fill="none" stroke="#757575" d="M267.58,-295.92C307.78,-278.73 383.34,-246.42 428.42,-227.14"/>
<polygon fill="#757575" stroke="#757575" points="430.01,-230.27 437.82,-223.12 427.25,-223.83 430.01,-230.27"/>
</g>
<!-- functions/createIslandElementConstructor.ts&#45;&gt;collections.ts -->
<g id="edge32" class="edge">
<title>functions/createIslandElementConstructor.ts&#45;&gt;collections.ts</title>
<path fill="none" stroke="#757575" d="M250.73,-319.07C286.16,-359.16 403.85,-492.32 448.04,-542.31"/>
<polygon fill="#757575" stroke="#757575" points="445.47,-544.68 454.71,-549.86 450.71,-540.05 445.47,-544.68"/>
</g>
<!-- functions/createIslandElementConstructor.ts&#45;&gt;Island.ts -->
<g id="edge31" class="edge">
<title>functions/createIslandElementConstructor.ts&#45;&gt;Island.ts</title>
<path fill="none" stroke="#757575" d="M270.9,-319.04C334.63,-343.23 482.2,-399.25 553.51,-426.32"/>
<polygon fill="#757575" stroke="#757575" points="552.45,-429.66 563.05,-429.94 554.94,-423.12 552.45,-429.66"/>
</g>
<!-- index.ts -->
<g id="node25" class="node">
<title>index.ts</title>
<path fill="none" stroke="#c6c5fe" d="M55.33,-513C55.33,-513 7.67,-513 7.67,-513 3.83,-513 0,-509.17 0,-505.33 0,-505.33 0,-497.67 0,-497.67 0,-493.83 3.83,-490 7.67,-490 7.67,-490 55.33,-490 55.33,-490 59.17,-490 63,-493.83 63,-497.67 63,-497.67 63,-505.33 63,-505.33 63,-509.17 59.17,-513 55.33,-513"/>
<text text-anchor="middle" x="31.5" y="-497.8" font-family="Arial" font-size="14.00" fill="#c6c5fe">index.ts</text>
</g>
<!-- index.ts&#45;&gt;../Error.ts -->
<g id="edge33" class="edge">
<title>index.ts&#45;&gt;../Error.ts</title>
<path fill="none" stroke="#757575" d="M32.65,-513.1C33.76,-546.53 41.99,-643.5 99,-687.5 228.26,-787.27 301.71,-719.5 465,-719.5 465,-719.5 465,-719.5 906.5,-719.5 1029.28,-719.5 1088.63,-769.38 1181,-688.5 1220.59,-653.83 1242.47,-488.49 1249.21,-428.39"/>
<polygon fill="#757575" stroke="#757575" points="1252.73,-428.47 1250.33,-418.15 1245.77,-427.71 1252.73,-428.47"/>
</g>
<!-- index.ts&#45;&gt;../Observable.ts -->
<g id="edge35" class="edge">
<title>index.ts&#45;&gt;../Observable.ts</title>
<path fill="none" stroke="#757575" d="M43.44,-513.39C55.65,-525.79 76.66,-544.64 99,-553.5 271.7,-621.97 333.23,-615.8 516,-582.5 637.49,-560.36 664.96,-538.55 776,-484.5 813.2,-466.39 853.6,-440.8 878.98,-423.94"/>
<polygon fill="#757575" stroke="#757575" points="881.26,-426.62 887.61,-418.15 877.36,-420.81 881.26,-426.62"/>
</g>
<!-- index.ts&#45;&gt;../collections/InstanceMap.ts -->
<g id="edge36" class="edge">
<title>index.ts&#45;&gt;../collections/InstanceMap.ts</title>
<path fill="none" stroke="#757575" d="M33.33,-489.94C37.35,-437.2 56.29,-219.8 99,-169.5 211.52,-36.98 291.15,-31.5 465,-31.5 465,-31.5 465,-31.5 595.5,-31.5 664.36,-31.5 741.67,-26.49 801.73,-21.49"/>
<polygon fill="#757575" stroke="#757575" points="802.31,-24.95 811.98,-20.62 801.72,-17.98 802.31,-24.95"/>
</g>
<!-- index.ts&#45;&gt;../Monad.ts -->
<g id="edge34" class="edge">
<title>index.ts&#45;&gt;../Monad.ts</title>
<path fill="none" stroke="#757575" d="M42.39,-489.59C54.3,-476.16 75.65,-454.85 99,-444.5 296.69,-356.87 561.86,-357.51 672.1,-362.32"/>
<polygon fill="#757575" stroke="#757575" points="672.12,-365.82 682.28,-362.79 672.45,-358.83 672.12,-365.82"/>
</g>
<!-- index.ts&#45;&gt;Evaluator.ts -->
<g id="edge37" class="edge">
<title>index.ts&#45;&gt;Evaluator.ts</title>
<path fill="none" stroke="#757575" d="M33.35,-513.27C36.25,-543.69 48.59,-625.02 99,-660.5 147.99,-694.98 322.92,-689.02 412.02,-683.45"/>
<polygon fill="#757575" stroke="#757575" points="412.43,-686.93 422.19,-682.79 411.98,-679.95 412.43,-686.93"/>
</g>
<!-- index.ts&#45;&gt;Interpolator.ts -->
<g id="edge38" class="edge">
<title>index.ts&#45;&gt;Interpolator.ts</title>
<path fill="none" stroke="#757575" d="M35.87,-513.25C43.19,-536.48 62.85,-588.25 99,-613.5 122.55,-629.95 153.59,-636.81 180.41,-639.4"/>
<polygon fill="#757575" stroke="#757575" points="180.21,-642.89 190.46,-640.19 180.76,-635.92 180.21,-642.89"/>
</g>
<!-- index.ts&#45;&gt;collections.ts -->
<g id="edge40" class="edge">
<title>index.ts&#45;&gt;collections.ts</title>
<path fill="none" stroke="#757575" d="M63.28,-512.63C74.41,-516.28 87.15,-520.02 99,-522.5 207.21,-545.11 336.3,-554.97 408.64,-558.99"/>
<polygon fill="#757575" stroke="#757575" points="408.72,-562.5 418.9,-559.54 409.1,-555.51 408.72,-562.5"/>
</g>
<!-- index.ts&#45;&gt;Island.ts -->
<g id="edge39" class="edge">
<title>index.ts&#45;&gt;Island.ts</title>
<path fill="none" stroke="#757575" d="M63.29,-490.76C74.41,-487.28 87.15,-483.73 99,-481.5 263.94,-450.39 464.31,-443.46 550.59,-441.93"/>
<polygon fill="#757575" stroke="#757575" points="550.84,-445.43 560.78,-441.77 550.73,-438.43 550.84,-445.43"/>
</g>
<!-- index.ts&#45;&gt;directives/RouteDirective.ts -->
<g id="edge41" class="edge">
<title>index.ts&#45;&gt;directives/RouteDirective.ts</title>
<path fill="none" stroke="#757575" d="M33.49,-489.64C36.9,-455.19 50.72,-353.41 99,-287.5 126.01,-250.62 171.44,-222.85 203.09,-206.67"/>
<polygon fill="#757575" stroke="#757575" points="205.04,-209.61 212.43,-202.02 201.92,-203.34 205.04,-209.61"/>
</g>
<!-- index.ts&#45;&gt;events.ts -->
<g id="edge42" class="edge">
<title>index.ts&#45;&gt;events.ts</title>
<path fill="none" stroke="#757575" d="M63.34,-501.5C97.86,-501.5 154.1,-501.5 193.52,-501.5"/>
<polygon fill="#757575" stroke="#757575" points="193.65,-505 203.65,-501.5 193.65,-498 193.65,-505"/>
</g>
<!-- index.ts&#45;&gt;functions/createIslandElementConstructor.ts -->
<g id="edge43" class="edge">
<title>index.ts&#45;&gt;functions/createIslandElementConstructor.ts</title>
<path fill="none" stroke="#757575" d="M34.33,-489.83C39.33,-461.78 55.89,-390.04 99,-351.5 114.14,-337.96 133.44,-328.59 152.82,-322.1"/>
<polygon fill="#757575" stroke="#757575" points="154.12,-325.36 162.63,-319.05 152.04,-318.67 154.12,-325.36"/>
</g>
</g>
</svg>
