<?xml version="1.0" encoding="UTF-8" standalone="no"?>
<!DOCTYPE svg PUBLIC "-//W3C//DTD SVG 1.1//EN"
 "http://www.w3.org/Graphics/SVG/1.1/DTD/svg11.dtd">
<!-- Generated by graphviz version 2.43.0 (0)
 -->
<!-- Title: G Pages: 1 -->
<svg width="2332pt" height="1709pt"
 viewBox="0.00 0.00 2332.20 1709.47" xmlns="http://www.w3.org/2000/svg" xmlns:xlink="http://www.w3.org/1999/xlink">
<g id="graph0" class="graph" transform="scale(1 1) rotate(0) translate(21.6 1687.87)">
<title>G</title>
<polygon fill="#111111" stroke="transparent" points="-21.6,21.6 -21.6,-1687.87 2310.6,-1687.87 2310.6,21.6 -21.6,21.6"/>
<!-- AssetLoader.ts -->
<g id="node1" class="node">
<title>AssetLoader.ts</title>
<path fill="none" stroke="#c6c5fe" d="M196.33,-188.77C196.33,-188.77 105.67,-188.77 105.67,-188.77 101.83,-188.77 98,-184.94 98,-181.11 98,-181.11 98,-173.44 98,-173.44 98,-169.61 101.83,-165.77 105.67,-165.77 105.67,-165.77 196.33,-165.77 196.33,-165.77 200.17,-165.77 204,-169.61 204,-173.44 204,-173.44 204,-181.11 204,-181.11 204,-184.94 200.17,-188.77 196.33,-188.77"/>
<text text-anchor="middle" x="151" y="-173.57" font-family="Arial" font-size="14.00" fill="#c6c5fe">AssetLoader.ts</text>
</g>
<!-- Error.ts -->
<g id="node2" class="node">
<title>Error.ts</title>
<path fill="none" stroke="#cfffac" d="M2281.33,-1056.77C2281.33,-1056.77 2236.67,-1056.77 2236.67,-1056.77 2232.83,-1056.77 2229,-1052.94 2229,-1049.11 2229,-1049.11 2229,-1041.44 2229,-1041.44 2229,-1037.61 2232.83,-1033.77 2236.67,-1033.77 2236.67,-1033.77 2281.33,-1033.77 2281.33,-1033.77 2285.17,-1033.77 2289,-1037.61 2289,-1041.44 2289,-1041.44 2289,-1049.11 2289,-1049.11 2289,-1052.94 2285.17,-1056.77 2281.33,-1056.77"/>
<text text-anchor="middle" x="2259" y="-1041.57" font-family="Arial" font-size="14.00" fill="#cfffac">Error.ts</text>
</g>
<!-- AssetLoader.ts&#45;&gt;Error.ts -->
<g id="edge1" class="edge">
<title>AssetLoader.ts&#45;&gt;Error.ts</title>
<path fill="none" stroke="#757575" d="M204.13,-173.06C277.95,-167.46 417.19,-158.27 536,-158.27 536,-158.27 536,-158.27 2036.5,-158.27 2086.2,-158.27 2183.02,-246.01 2193,-264.27 2230.36,-332.67 2252.91,-904.19 2257.24,-1023.5"/>
<polygon fill="#757575" stroke="#757575" points="2253.74,-1023.73 2257.6,-1033.6 2260.74,-1023.48 2253.74,-1023.73"/>
</g>
<!-- Observable.ts -->
<g id="node3" class="node">
<title>Observable.ts</title>
<path fill="none" stroke="#c6c5fe" d="M2078.33,-757.77C2078.33,-757.77 1992.67,-757.77 1992.67,-757.77 1988.83,-757.77 1985,-753.94 1985,-750.11 1985,-750.11 1985,-742.44 1985,-742.44 1985,-738.61 1988.83,-734.77 1992.67,-734.77 1992.67,-734.77 2078.33,-734.77 2078.33,-734.77 2082.17,-734.77 2086,-738.61 2086,-742.44 2086,-742.44 2086,-750.11 2086,-750.11 2086,-753.94 2082.17,-757.77 2078.33,-757.77"/>
<text text-anchor="middle" x="2035.5" y="-742.57" font-family="Arial" font-size="14.00" fill="#c6c5fe">Observable.ts</text>
</g>
<!-- AssetLoader.ts&#45;&gt;Observable.ts -->
<g id="edge2" class="edge">
<title>AssetLoader.ts&#45;&gt;Observable.ts</title>
<path fill="none" stroke="#757575" d="M204.16,-182.38C351.67,-196.37 784.53,-234.27 1145,-234.27 1145,-234.27 1145,-234.27 1759.5,-234.27 1845.23,-234.27 1888.68,-209.35 1949,-270.27 2013.95,-335.88 2030.4,-639.97 2033.75,-724.45"/>
<polygon fill="#757575" stroke="#757575" points="2030.26,-724.8 2034.14,-734.67 2037.26,-724.54 2030.26,-724.8"/>
</g>
<!-- util.ts -->
<g id="node4" class="node">
<title>util.ts</title>
<path fill="none" stroke="#cfffac" d="M760.33,-129.77C760.33,-129.77 721.67,-129.77 721.67,-129.77 717.83,-129.77 714,-125.94 714,-122.11 714,-122.11 714,-114.44 714,-114.44 714,-110.61 717.83,-106.77 721.67,-106.77 721.67,-106.77 760.33,-106.77 760.33,-106.77 764.17,-106.77 768,-110.61 768,-114.44 768,-114.44 768,-122.11 768,-122.11 768,-125.94 764.17,-129.77 760.33,-129.77"/>
<text text-anchor="middle" x="741" y="-114.57" font-family="Arial" font-size="14.00" fill="#cfffac">util.ts</text>
</g>
<!-- AssetLoader.ts&#45;&gt;util.ts -->
<g id="edge3" class="edge">
<title>AssetLoader.ts&#45;&gt;util.ts</title>
<path fill="none" stroke="#757575" d="M176.8,-165.63C194.11,-158.1 217.96,-148.87 240,-144.27 410.59,-108.74 620.61,-112.91 703.7,-116.4"/>
<polygon fill="#757575" stroke="#757575" points="703.74,-119.9 713.88,-116.85 704.05,-112.91 703.74,-119.9"/>
</g>
<!-- Debug.ts -->
<g id="node6" class="node">
<title>Debug.ts</title>
<path fill="none" stroke="#c6c5fe" d="M2185.33,-804.77C2185.33,-804.77 2129.67,-804.77 2129.67,-804.77 2125.83,-804.77 2122,-800.94 2122,-797.11 2122,-797.11 2122,-789.44 2122,-789.44 2122,-785.61 2125.83,-781.77 2129.67,-781.77 2129.67,-781.77 2185.33,-781.77 2185.33,-781.77 2189.17,-781.77 2193,-785.61 2193,-789.44 2193,-789.44 2193,-797.11 2193,-797.11 2193,-800.94 2189.17,-804.77 2185.33,-804.77"/>
<text text-anchor="middle" x="2157.5" y="-789.57" font-family="Arial" font-size="14.00" fill="#c6c5fe">Debug.ts</text>
</g>
<!-- Observable.ts&#45;&gt;Debug.ts -->
<g id="edge18" class="edge">
<title>Observable.ts&#45;&gt;Debug.ts</title>
<path fill="none" stroke="#757575" d="M2066.16,-757.89C2081.6,-763.94 2100.66,-771.4 2117.3,-777.92"/>
<polygon fill="#757575" stroke="#757575" points="2116.17,-781.24 2126.76,-781.63 2118.73,-774.72 2116.17,-781.24"/>
</g>
<!-- Component.ts -->
<g id="node5" class="node">
<title>Component.ts</title>
<path fill="none" stroke="#c6c5fe" d="M1941.33,-820.77C1941.33,-820.77 1855.67,-820.77 1855.67,-820.77 1851.83,-820.77 1848,-816.94 1848,-813.11 1848,-813.11 1848,-805.44 1848,-805.44 1848,-801.61 1851.83,-797.77 1855.67,-797.77 1855.67,-797.77 1941.33,-797.77 1941.33,-797.77 1945.17,-797.77 1949,-801.61 1949,-805.44 1949,-805.44 1949,-813.11 1949,-813.11 1949,-816.94 1945.17,-820.77 1941.33,-820.77"/>
<text text-anchor="middle" x="1898.5" y="-805.57" font-family="Arial" font-size="14.00" fill="#c6c5fe">Component.ts</text>
</g>
<!-- Component.ts&#45;&gt;Error.ts -->
<g id="edge5" class="edge">
<title>Component.ts&#45;&gt;Error.ts</title>
<path fill="none" stroke="#757575" d="M1917.28,-820.98C1975.69,-859.43 2161.93,-982.03 2231.48,-1027.81"/>
<polygon fill="#757575" stroke="#757575" points="2229.84,-1030.93 2240.11,-1033.5 2233.69,-1025.08 2229.84,-1030.93"/>
</g>
<!-- Component.ts&#45;&gt;Observable.ts -->
<g id="edge6" class="edge">
<title>Component.ts&#45;&gt;Observable.ts</title>
<path fill="none" stroke="#757575" d="M1924.26,-797.72C1945.54,-787.79 1976.43,-773.37 2000.11,-762.32"/>
<polygon fill="#757575" stroke="#757575" points="2001.86,-765.37 2009.44,-757.97 1998.9,-759.03 2001.86,-765.37"/>
</g>
<!-- Component.ts&#45;&gt;Debug.ts -->
<g id="edge4" class="edge">
<title>Component.ts&#45;&gt;Debug.ts</title>
<path fill="none" stroke="#757575" d="M1949.05,-806.19C1996.14,-803.26 2066.33,-798.89 2111.76,-796.06"/>
<polygon fill="#757575" stroke="#757575" points="2112.14,-799.54 2121.91,-795.43 2111.71,-792.56 2112.14,-799.54"/>
</g>
<!-- Debug.ts&#45;&gt;Error.ts -->
<g id="edge7" class="edge">
<title>Debug.ts&#45;&gt;Error.ts</title>
<path fill="none" stroke="#757575" d="M2169.42,-805.09C2176.92,-813.73 2186.65,-826.04 2193,-838.27 2225.88,-901.55 2245.67,-984.44 2253.76,-1023.33"/>
<polygon fill="#757575" stroke="#757575" points="2250.4,-1024.39 2255.81,-1033.5 2257.26,-1023.01 2250.4,-1024.39"/>
</g>
<!-- EntityManager.ts -->
<g id="node7" class="node">
<title>EntityManager.ts</title>
<path fill="none" stroke="#c6c5fe" d="M1197.33,-945.77C1197.33,-945.77 1094.67,-945.77 1094.67,-945.77 1090.83,-945.77 1087,-941.94 1087,-938.11 1087,-938.11 1087,-930.44 1087,-930.44 1087,-926.61 1090.83,-922.77 1094.67,-922.77 1094.67,-922.77 1197.33,-922.77 1197.33,-922.77 1201.17,-922.77 1205,-926.61 1205,-930.44 1205,-930.44 1205,-938.11 1205,-938.11 1205,-941.94 1201.17,-945.77 1197.33,-945.77"/>
<text text-anchor="middle" x="1146" y="-930.57" font-family="Arial" font-size="14.00" fill="#c6c5fe">EntityManager.ts</text>
</g>
<!-- EntityManager.ts&#45;&gt;Observable.ts -->
<g id="edge8" class="edge">
<title>EntityManager.ts&#45;&gt;Observable.ts</title>
<path fill="none" stroke="#757575" d="M1205.29,-924.84C1216.38,-922.11 1227.73,-918.64 1238,-914.27 1255.7,-906.75 1256.34,-897.89 1274,-890.27 1519.38,-784.44 1842.45,-756.14 1974.43,-748.78"/>
<polygon fill="#757575" stroke="#757575" points="1974.93,-752.25 1984.73,-748.22 1974.56,-745.26 1974.93,-752.25"/>
</g>
<!-- HeadingDirection.ts -->
<g id="node8" class="node">
<title>HeadingDirection.ts</title>
<path fill="none" stroke="#c6c5fe" d="M1205.33,-1257.77C1205.33,-1257.77 1086.67,-1257.77 1086.67,-1257.77 1082.83,-1257.77 1079,-1253.94 1079,-1250.11 1079,-1250.11 1079,-1242.44 1079,-1242.44 1079,-1238.61 1082.83,-1234.77 1086.67,-1234.77 1086.67,-1234.77 1205.33,-1234.77 1205.33,-1234.77 1209.17,-1234.77 1213,-1238.61 1213,-1242.44 1213,-1242.44 1213,-1250.11 1213,-1250.11 1213,-1253.94 1209.17,-1257.77 1205.33,-1257.77"/>
<text text-anchor="middle" x="1146" y="-1242.57" font-family="Arial" font-size="14.00" fill="#c6c5fe">HeadingDirection.ts</text>
</g>
<!-- HeadingDirection.ts&#45;&gt;Error.ts -->
<g id="edge9" class="edge">
<title>HeadingDirection.ts&#45;&gt;Error.ts</title>
<path fill="none" stroke="#757575" d="M1157.72,-1258.12C1213.74,-1318.6 1480.73,-1590.27 1757.5,-1590.27 1757.5,-1590.27 1757.5,-1590.27 2036.5,-1590.27 2151.56,-1590.27 2235.66,-1168.14 2254.17,-1066.9"/>
<polygon fill="#757575" stroke="#757575" points="2257.64,-1067.37 2255.98,-1056.91 2250.76,-1066.13 2257.64,-1067.37"/>
</g>
<!-- units/convert.ts -->
<g id="node9" class="node">
<title>units/convert.ts</title>
<path fill="none" stroke="#cfffac" d="M1804.33,-1257.77C1804.33,-1257.77 1712.67,-1257.77 1712.67,-1257.77 1708.83,-1257.77 1705,-1253.94 1705,-1250.11 1705,-1250.11 1705,-1242.44 1705,-1242.44 1705,-1238.61 1708.83,-1234.77 1712.67,-1234.77 1712.67,-1234.77 1804.33,-1234.77 1804.33,-1234.77 1808.17,-1234.77 1812,-1238.61 1812,-1242.44 1812,-1242.44 1812,-1250.11 1812,-1250.11 1812,-1253.94 1808.17,-1257.77 1804.33,-1257.77"/>
<text text-anchor="middle" x="1758.5" y="-1242.57" font-family="Arial" font-size="14.00" fill="#cfffac">units/convert.ts</text>
</g>
<!-- HeadingDirection.ts&#45;&gt;units/convert.ts -->
<g id="edge10" class="edge">
<title>HeadingDirection.ts&#45;&gt;units/convert.ts</title>
<path fill="none" stroke="#757575" d="M1213.07,-1253.36C1312.28,-1262.86 1505.55,-1276.93 1669,-1262.27 1677.38,-1261.52 1686.16,-1260.38 1694.79,-1259.04"/>
<polygon fill="#757575" stroke="#757575" points="1695.53,-1262.47 1704.83,-1257.39 1694.39,-1255.56 1695.53,-1262.47"/>
</g>
<!-- Input.ts -->
<g id="node10" class="node">
<title>Input.ts</title>
<path fill="none" stroke="#cfffac" d="M1168.83,-904.77C1168.83,-904.77 1123.17,-904.77 1123.17,-904.77 1119.33,-904.77 1115.5,-900.94 1115.5,-897.11 1115.5,-897.11 1115.5,-889.44 1115.5,-889.44 1115.5,-885.61 1119.33,-881.77 1123.17,-881.77 1123.17,-881.77 1168.83,-881.77 1168.83,-881.77 1172.67,-881.77 1176.5,-885.61 1176.5,-889.44 1176.5,-889.44 1176.5,-897.11 1176.5,-897.11 1176.5,-900.94 1172.67,-904.77 1168.83,-904.77"/>
<text text-anchor="middle" x="1146" y="-889.57" font-family="Arial" font-size="14.00" fill="#cfffac">Input.ts</text>
</g>
<!-- Matrix.ts -->
<g id="node11" class="node">
<title>Matrix.ts</title>
<path fill="none" stroke="#c6c5fe" d="M2061.83,-1485.77C2061.83,-1485.77 2009.17,-1485.77 2009.17,-1485.77 2005.33,-1485.77 2001.5,-1481.94 2001.5,-1478.11 2001.5,-1478.11 2001.5,-1470.44 2001.5,-1470.44 2001.5,-1466.61 2005.33,-1462.77 2009.17,-1462.77 2009.17,-1462.77 2061.83,-1462.77 2061.83,-1462.77 2065.67,-1462.77 2069.5,-1466.61 2069.5,-1470.44 2069.5,-1470.44 2069.5,-1478.11 2069.5,-1478.11 2069.5,-1481.94 2065.67,-1485.77 2061.83,-1485.77"/>
<text text-anchor="middle" x="2035.5" y="-1470.57" font-family="Arial" font-size="14.00" fill="#c6c5fe">Matrix.ts</text>
</g>
<!-- Matrix.ts&#45;&gt;Error.ts -->
<g id="edge11" class="edge">
<title>Matrix.ts&#45;&gt;Error.ts</title>
<path fill="none" stroke="#757575" d="M2044.86,-1462.59C2069.84,-1427.36 2145.08,-1318.5 2193,-1220.27 2219.03,-1166.92 2241.09,-1100.32 2251.53,-1066.75"/>
<polygon fill="#757575" stroke="#757575" points="2254.92,-1067.65 2254.51,-1057.07 2248.22,-1065.6 2254.92,-1067.65"/>
</g>
<!-- NetworkedEntityClient.ts -->
<g id="node12" class="node">
<title>NetworkedEntityClient.ts</title>
<path fill="none" stroke="#c6c5fe" d="M611.33,-403.77C611.33,-403.77 462.67,-403.77 462.67,-403.77 458.83,-403.77 455,-399.94 455,-396.11 455,-396.11 455,-388.44 455,-388.44 455,-384.61 458.83,-380.77 462.67,-380.77 462.67,-380.77 611.33,-380.77 611.33,-380.77 615.17,-380.77 619,-384.61 619,-388.44 619,-388.44 619,-396.11 619,-396.11 619,-399.94 615.17,-403.77 611.33,-403.77"/>
<text text-anchor="middle" x="537" y="-388.57" font-family="Arial" font-size="14.00" fill="#c6c5fe">NetworkedEntityClient.ts</text>
</g>
<!-- NetworkedEntityClient.ts&#45;&gt;Error.ts -->
<g id="edge13" class="edge">
<title>NetworkedEntityClient.ts&#45;&gt;Error.ts</title>
<path fill="none" stroke="#757575" d="M557.94,-380.75C632.54,-338.73 903.31,-196.27 1145,-196.27 1145,-196.27 1145,-196.27 2036.5,-196.27 2212.82,-196.27 2251.38,-890.56 2257.15,-1023.44"/>
<polygon fill="#757575" stroke="#757575" points="2253.66,-1023.75 2257.57,-1033.6 2260.65,-1023.46 2253.66,-1023.75"/>
</g>
<!-- NetworkedEntityClient.ts&#45;&gt;Observable.ts -->
<g id="edge14" class="edge">
<title>NetworkedEntityClient.ts&#45;&gt;Observable.ts</title>
<path fill="none" stroke="#757575" d="M584.64,-380.77C646.14,-366.15 757.93,-341.47 855,-330.27 975.8,-316.35 1855.28,-221.78 1949,-299.27 2015.73,-354.45 2030.87,-642.84 2033.84,-724.63"/>
<polygon fill="#757575" stroke="#757575" points="2030.35,-724.88 2034.19,-734.75 2037.35,-724.64 2030.35,-724.88"/>
</g>
<!-- NetworkedEntityClient.ts&#45;&gt;util.ts -->
<g id="edge17" class="edge">
<title>NetworkedEntityClient.ts&#45;&gt;util.ts</title>
<path fill="none" stroke="#757575" d="M564.55,-380.71C584.4,-370.8 610.8,-354.72 627,-333.27 658.77,-291.22 638.78,-267.09 663,-220.27 679.24,-188.89 705.07,-157.08 722.28,-137.52"/>
<polygon fill="#757575" stroke="#757575" points="725.01,-139.71 729.07,-129.93 719.8,-135.05 725.01,-139.71"/>
</g>
<!-- NetworkedEntityClient.ts&#45;&gt;Component.ts -->
<g id="edge12" class="edge">
<title>NetworkedEntityClient.ts&#45;&gt;Component.ts</title>
<path fill="none" stroke="#757575" d="M610.54,-403.78C627.7,-406.04 645.96,-408.09 663,-409.27 886.02,-424.82 1452.48,-357.61 1669,-413.27 1739.11,-431.3 1767.21,-434.4 1812,-491.27 1821.48,-503.32 1875.11,-718.48 1892.24,-787.89"/>
<polygon fill="#757575" stroke="#757575" points="1888.87,-788.85 1894.66,-797.72 1895.67,-787.17 1888.87,-788.85"/>
</g>
<!-- constants.ts -->
<g id="node13" class="node">
<title>constants.ts</title>
<path fill="none" stroke="#ff6c60" d="M777.83,-1019.77C777.83,-1019.77 704.17,-1019.77 704.17,-1019.77 700.33,-1019.77 696.5,-1015.94 696.5,-1012.11 696.5,-1012.11 696.5,-1004.44 696.5,-1004.44 696.5,-1000.61 700.33,-996.77 704.17,-996.77 704.17,-996.77 777.83,-996.77 777.83,-996.77 781.67,-996.77 785.5,-1000.61 785.5,-1004.44 785.5,-1004.44 785.5,-1012.11 785.5,-1012.11 785.5,-1015.94 781.67,-1019.77 777.83,-1019.77"/>
<text text-anchor="middle" x="741" y="-1004.57" font-family="Arial" font-size="14.00" fill="#ff6c60">constants.ts</text>
</g>
<!-- NetworkedEntityClient.ts&#45;&gt;constants.ts -->
<g id="edge15" class="edge">
<title>NetworkedEntityClient.ts&#45;&gt;constants.ts</title>
<path fill="none" stroke="#757575" d="M542.35,-403.93C555.57,-439.49 596.28,-549.8 627,-642.27 670.23,-772.41 717.14,-930.37 733.75,-986.89"/>
<polygon fill="#757575" stroke="#757575" points="730.4,-987.91 736.57,-996.52 737.11,-985.94 730.4,-987.91"/>
</g>
<!-- functions/Networking.ts -->
<g id="node14" class="node">
<title>functions/Networking.ts</title>
<path fill="none" stroke="#c6c5fe" d="M811.33,-399.77C811.33,-399.77 670.67,-399.77 670.67,-399.77 666.83,-399.77 663,-395.94 663,-392.11 663,-392.11 663,-384.44 663,-384.44 663,-380.61 666.83,-376.77 670.67,-376.77 670.67,-376.77 811.33,-376.77 811.33,-376.77 815.17,-376.77 819,-380.61 819,-384.44 819,-384.44 819,-392.11 819,-392.11 819,-395.94 815.17,-399.77 811.33,-399.77"/>
<text text-anchor="middle" x="741" y="-384.57" font-family="Arial" font-size="14.00" fill="#c6c5fe">functions/Networking.ts</text>
</g>
<!-- NetworkedEntityClient.ts&#45;&gt;functions/Networking.ts -->
<g id="edge16" class="edge">
<title>NetworkedEntityClient.ts&#45;&gt;functions/Networking.ts</title>
<path fill="none" stroke="#757575" d="M619.29,-390.66C630.28,-390.45 641.6,-390.22 652.7,-390"/>
<polygon fill="#757575" stroke="#757575" points="652.88,-393.5 662.81,-389.8 652.74,-386.5 652.88,-393.5"/>
</g>
<!-- constants.ts&#45;&gt;EntityManager.ts -->
<g id="edge44" class="edge">
<title>constants.ts&#45;&gt;EntityManager.ts</title>
<path fill="none" stroke="#757575" d="M785.51,-1000.29C855.53,-987.43 993.75,-962.05 1076.91,-946.78"/>
<polygon fill="#757575" stroke="#757575" points="1077.57,-950.22 1086.77,-944.97 1076.3,-943.33 1077.57,-950.22"/>
</g>
<!-- constants.ts&#45;&gt;HeadingDirection.ts -->
<g id="edge45" class="edge">
<title>constants.ts&#45;&gt;HeadingDirection.ts</title>
<path fill="none" stroke="#757575" d="M745.58,-1019.89C756.27,-1052.5 791.25,-1145.34 855,-1189.27 918.03,-1232.71 1006.09,-1244.88 1068.6,-1247.47"/>
<polygon fill="#757575" stroke="#757575" points="1068.68,-1250.98 1078.79,-1247.82 1068.92,-1243.98 1068.68,-1250.98"/>
</g>
<!-- constants.ts&#45;&gt;Input.ts -->
<g id="edge46" class="edge">
<title>constants.ts&#45;&gt;Input.ts</title>
<path fill="none" stroke="#757575" d="M761.77,-996.77C783.83,-984.38 820.92,-964.89 855,-953.27 941.82,-923.68 1048.46,-906.2 1105.14,-898.32"/>
<polygon fill="#757575" stroke="#757575" points="1105.69,-901.77 1115.13,-896.95 1104.75,-894.84 1105.69,-901.77"/>
</g>
<!-- entities/BlockEntity.ts -->
<g id="node24" class="node">
<title>entities/BlockEntity.ts</title>
<path fill="none" stroke="#ff6c60" d="M1000.33,-1179.77C1000.33,-1179.77 872.67,-1179.77 872.67,-1179.77 868.83,-1179.77 865,-1175.94 865,-1172.11 865,-1172.11 865,-1164.44 865,-1164.44 865,-1160.61 868.83,-1156.77 872.67,-1156.77 872.67,-1156.77 1000.33,-1156.77 1000.33,-1156.77 1004.17,-1156.77 1008,-1160.61 1008,-1164.44 1008,-1164.44 1008,-1172.11 1008,-1172.11 1008,-1175.94 1004.17,-1179.77 1000.33,-1179.77"/>
<text text-anchor="middle" x="936.5" y="-1164.57" font-family="Arial" font-size="14.00" fill="#ff6c60">entities/BlockEntity.ts</text>
</g>
<!-- constants.ts&#45;&gt;entities/BlockEntity.ts -->
<g id="edge47" class="edge">
<title>constants.ts&#45;&gt;entities/BlockEntity.ts</title>
<path fill="none" stroke="#757575" d="M761.1,-1019.88C783.17,-1038.06 820.86,-1072.61 855,-1100.27 876.32,-1117.55 902.08,-1136.04 918.62,-1149.75"/>
<polygon fill="#757575" stroke="#757575" points="916.5,-1152.55 926.35,-1156.46 921.09,-1147.26 916.5,-1152.55"/>
</g>
<!-- entities/MonsterEntity.ts -->
<g id="node25" class="node">
<title>entities/MonsterEntity.ts</title>
<path fill="none" stroke="#ff6c60" d="M1008.83,-1099.77C1008.83,-1099.77 864.17,-1099.77 864.17,-1099.77 860.33,-1099.77 856.5,-1095.94 856.5,-1092.11 856.5,-1092.11 856.5,-1084.44 856.5,-1084.44 856.5,-1080.61 860.33,-1076.77 864.17,-1076.77 864.17,-1076.77 1008.83,-1076.77 1008.83,-1076.77 1012.67,-1076.77 1016.5,-1080.61 1016.5,-1084.44 1016.5,-1084.44 1016.5,-1092.11 1016.5,-1092.11 1016.5,-1095.94 1012.67,-1099.77 1008.83,-1099.77"/>
<text text-anchor="middle" x="936.5" y="-1084.57" font-family="Arial" font-size="14.00" fill="#ff6c60">entities/MonsterEntity.ts</text>
</g>
<!-- constants.ts&#45;&gt;entities/MonsterEntity.ts -->
<g id="edge48" class="edge">
<title>constants.ts&#45;&gt;entities/MonsterEntity.ts</title>
<path fill="none" stroke="#757575" d="M785.84,-1011.56C796.97,-1015.05 808.69,-1019.73 819,-1025.27 836.85,-1034.87 837.08,-1043.79 855,-1053.27 870.97,-1061.73 890.19,-1068.06 905.84,-1073.36"/>
<polygon fill="#757575" stroke="#757575" points="904.95,-1076.75 915.54,-1076.7 907.23,-1070.14 904.95,-1076.75"/>
</g>
<!-- entities/PlayerPrefab.ts -->
<g id="node26" class="node">
<title>entities/PlayerPrefab.ts</title>
<path fill="none" stroke="#ff6c60" d="M1006.33,-1019.77C1006.33,-1019.77 866.67,-1019.77 866.67,-1019.77 862.83,-1019.77 859,-1015.94 859,-1012.11 859,-1012.11 859,-1004.44 859,-1004.44 859,-1000.61 862.83,-996.77 866.67,-996.77 866.67,-996.77 1006.33,-996.77 1006.33,-996.77 1010.17,-996.77 1014,-1000.61 1014,-1004.44 1014,-1004.44 1014,-1012.11 1014,-1012.11 1014,-1015.94 1010.17,-1019.77 1006.33,-1019.77"/>
<text text-anchor="middle" x="936.5" y="-1004.57" font-family="Arial" font-size="14.00" fill="#ff6c60">entities/PlayerPrefab.ts</text>
</g>
<!-- constants.ts&#45;&gt;entities/PlayerPrefab.ts -->
<g id="edge49" class="edge">
<title>constants.ts&#45;&gt;entities/PlayerPrefab.ts</title>
<path fill="none" stroke="#757575" d="M785.91,-1002.51C804.49,-1001.74 826.81,-1001.42 848.48,-1001.56"/>
<polygon fill="#757575" stroke="#757575" points="848.68,-1005.06 858.71,-1001.65 848.75,-998.06 848.68,-1005.06"/>
</g>
<!-- functions/Networking.ts&#45;&gt;Component.ts -->
<g id="edge76" class="edge">
<title>functions/Networking.ts&#45;&gt;Component.ts</title>
<path fill="none" stroke="#757575" d="M819.32,-384.5C1011.31,-375.62 1506.01,-355.83 1669,-379.27 1734.57,-388.7 1767.47,-372.23 1812,-421.27 1869.19,-484.26 1829.77,-526.18 1848,-609.27 1862.31,-674.5 1882.07,-750.96 1891.73,-787.57"/>
<polygon fill="#757575" stroke="#757575" points="1888.44,-788.83 1894.38,-797.6 1895.2,-787.04 1888.44,-788.83"/>
</g>
<!-- Query.ts -->
<g id="node15" class="node">
<title>Query.ts</title>
<path fill="none" stroke="#c6c5fe" d="M1784.83,-330.77C1784.83,-330.77 1732.17,-330.77 1732.17,-330.77 1728.33,-330.77 1724.5,-326.94 1724.5,-323.11 1724.5,-323.11 1724.5,-315.44 1724.5,-315.44 1724.5,-311.61 1728.33,-307.77 1732.17,-307.77 1732.17,-307.77 1784.83,-307.77 1784.83,-307.77 1788.67,-307.77 1792.5,-311.61 1792.5,-315.44 1792.5,-315.44 1792.5,-323.11 1792.5,-323.11 1792.5,-326.94 1788.67,-330.77 1784.83,-330.77"/>
<text text-anchor="middle" x="1758.5" y="-315.57" font-family="Arial" font-size="14.00" fill="#c6c5fe">Query.ts</text>
</g>
<!-- Query.ts&#45;&gt;Observable.ts -->
<g id="edge21" class="edge">
<title>Query.ts&#45;&gt;Observable.ts</title>
<path fill="none" stroke="#757575" d="M1792.54,-329.94C1799.89,-333.73 1806.99,-338.73 1812,-345.27 1861.88,-410.39 1812.34,-452.41 1848,-526.27 1889.66,-612.58 1973.27,-692.8 2012.82,-727.8"/>
<polygon fill="#757575" stroke="#757575" points="2010.73,-730.62 2020.56,-734.57 2015.33,-725.35 2010.73,-730.62"/>
</g>
<!-- Query.ts&#45;&gt;Component.ts -->
<g id="edge19" class="edge">
<title>Query.ts&#45;&gt;Component.ts</title>
<path fill="none" stroke="#757575" d="M1792.61,-329.54C1800.06,-333.35 1807.18,-338.47 1812,-345.27 1850.4,-399.55 1834.51,-577.18 1848,-642.27 1859.08,-695.75 1879.16,-756.88 1890.03,-788.26"/>
<polygon fill="#757575" stroke="#757575" points="1886.73,-789.42 1893.34,-797.7 1893.34,-787.11 1886.73,-789.42"/>
</g>
<!-- Query.ts&#45;&gt;Debug.ts -->
<g id="edge20" class="edge">
<title>Query.ts&#45;&gt;Debug.ts</title>
<path fill="none" stroke="#757575" d="M1788.72,-330.83C1796.72,-334.75 1805.08,-339.59 1812,-345.27 1974.97,-479.11 2107.12,-704 2145.33,-772.72"/>
<polygon fill="#757575" stroke="#757575" points="2142.38,-774.62 2150.28,-781.69 2148.51,-771.24 2142.38,-774.62"/>
</g>
<!-- Rectangle.ts -->
<g id="node16" class="node">
<title>Rectangle.ts</title>
<path fill="none" stroke="#cfffac" d="M1936.83,-330.77C1936.83,-330.77 1860.17,-330.77 1860.17,-330.77 1856.33,-330.77 1852.5,-326.94 1852.5,-323.11 1852.5,-323.11 1852.5,-315.44 1852.5,-315.44 1852.5,-311.61 1856.33,-307.77 1860.17,-307.77 1860.17,-307.77 1936.83,-307.77 1936.83,-307.77 1940.67,-307.77 1944.5,-311.61 1944.5,-315.44 1944.5,-315.44 1944.5,-323.11 1944.5,-323.11 1944.5,-326.94 1940.67,-330.77 1936.83,-330.77"/>
<text text-anchor="middle" x="1898.5" y="-315.57" font-family="Arial" font-size="14.00" fill="#cfffac">Rectangle.ts</text>
</g>
<!-- Query.ts&#45;&gt;Rectangle.ts -->
<g id="edge22" class="edge">
<title>Query.ts&#45;&gt;Rectangle.ts</title>
<path fill="none" stroke="#757575" d="M1792.55,-319.27C1807.41,-319.27 1825.35,-319.27 1842.17,-319.27"/>
<polygon fill="#757575" stroke="#757575" points="1842.45,-322.77 1852.45,-319.27 1842.45,-315.77 1842.45,-322.77"/>
</g>
<!-- Rhythm.ts -->
<g id="node17" class="node">
<title>Rhythm.ts</title>
<path fill="none" stroke="#c6c5fe" d="M182.33,-905.77C182.33,-905.77 119.67,-905.77 119.67,-905.77 115.83,-905.77 112,-901.94 112,-898.11 112,-898.11 112,-890.44 112,-890.44 112,-886.61 115.83,-882.77 119.67,-882.77 119.67,-882.77 182.33,-882.77 182.33,-882.77 186.17,-882.77 190,-886.61 190,-890.44 190,-890.44 190,-898.11 190,-898.11 190,-901.94 186.17,-905.77 182.33,-905.77"/>
<text text-anchor="middle" x="151" y="-890.57" font-family="Arial" font-size="14.00" fill="#c6c5fe">Rhythm.ts</text>
</g>
<!-- globals.ts -->
<g id="node18" class="node">
<title>globals.ts</title>
<path fill="none" stroke="#cfffac" d="M566.33,-905.77C566.33,-905.77 507.67,-905.77 507.67,-905.77 503.83,-905.77 500,-901.94 500,-898.11 500,-898.11 500,-890.44 500,-890.44 500,-886.61 503.83,-882.77 507.67,-882.77 507.67,-882.77 566.33,-882.77 566.33,-882.77 570.17,-882.77 574,-886.61 574,-890.44 574,-890.44 574,-898.11 574,-898.11 574,-901.94 570.17,-905.77 566.33,-905.77"/>
<text text-anchor="middle" x="537" y="-890.57" font-family="Arial" font-size="14.00" fill="#cfffac">globals.ts</text>
</g>
<!-- Rhythm.ts&#45;&gt;globals.ts -->
<g id="edge23" class="edge">
<title>Rhythm.ts&#45;&gt;globals.ts</title>
<path fill="none" stroke="#757575" d="M190.22,-894.27C261.16,-894.27 412.9,-894.27 489.59,-894.27"/>
<polygon fill="#757575" stroke="#757575" points="489.9,-897.77 499.9,-894.27 489.9,-890.77 489.9,-897.77"/>
</g>
<!-- SignInForm.ts -->
<g id="node19" class="node">
<title>SignInForm.ts</title>
<path fill="none" stroke="#c6c5fe" d="M579.83,-323.77C579.83,-323.77 494.17,-323.77 494.17,-323.77 490.33,-323.77 486.5,-319.94 486.5,-316.11 486.5,-316.11 486.5,-308.44 486.5,-308.44 486.5,-304.61 490.33,-300.77 494.17,-300.77 494.17,-300.77 579.83,-300.77 579.83,-300.77 583.67,-300.77 587.5,-304.61 587.5,-308.44 587.5,-308.44 587.5,-316.11 587.5,-316.11 587.5,-319.94 583.67,-323.77 579.83,-323.77"/>
<text text-anchor="middle" x="537" y="-308.57" font-family="Arial" font-size="14.00" fill="#c6c5fe">SignInForm.ts</text>
</g>
<!-- SignInForm.ts&#45;&gt;util.ts -->
<g id="edge25" class="edge">
<title>SignInForm.ts&#45;&gt;util.ts</title>
<path fill="none" stroke="#757575" d="M550.03,-300.72C583.7,-268.38 679.13,-176.74 720.49,-137.02"/>
<polygon fill="#757575" stroke="#757575" points="722.99,-139.47 727.78,-130.01 718.14,-134.42 722.99,-139.47"/>
</g>
<!-- SignInForm.ts&#45;&gt;constants.ts -->
<g id="edge24" class="edge">
<title>SignInForm.ts&#45;&gt;constants.ts</title>
<path fill="none" stroke="#757575" d="M566.22,-323.97C586.4,-333.83 612.47,-349.94 627,-372.27 695.6,-477.73 730.75,-886.82 738.39,-986.35"/>
<polygon fill="#757575" stroke="#757575" points="734.91,-986.74 739.15,-996.45 741.89,-986.21 734.91,-986.74"/>
</g>
<!-- System.ts -->
<g id="node20" class="node">
<title>System.ts</title>
<path fill="none" stroke="#c6c5fe" d="M1789.33,-712.77C1789.33,-712.77 1727.67,-712.77 1727.67,-712.77 1723.83,-712.77 1720,-708.94 1720,-705.11 1720,-705.11 1720,-697.44 1720,-697.44 1720,-693.61 1723.83,-689.77 1727.67,-689.77 1727.67,-689.77 1789.33,-689.77 1789.33,-689.77 1793.17,-689.77 1797,-693.61 1797,-697.44 1797,-697.44 1797,-705.11 1797,-705.11 1797,-708.94 1793.17,-712.77 1789.33,-712.77"/>
<text text-anchor="middle" x="1758.5" y="-697.57" font-family="Arial" font-size="14.00" fill="#c6c5fe">System.ts</text>
</g>
<!-- System.ts&#45;&gt;Component.ts -->
<g id="edge26" class="edge">
<title>System.ts&#45;&gt;Component.ts</title>
<path fill="none" stroke="#757575" d="M1774.27,-712.83C1798.21,-731.57 1845.7,-768.73 1874.22,-791.06"/>
<polygon fill="#757575" stroke="#757575" points="1872.39,-794.07 1882.42,-797.47 1876.7,-788.55 1872.39,-794.07"/>
</g>
<!-- Typewriter.ts -->
<g id="node21" class="node">
<title>Typewriter.ts</title>
<path fill="none" stroke="#c6c5fe" d="M575.33,-53.77C575.33,-53.77 498.67,-53.77 498.67,-53.77 494.83,-53.77 491,-49.94 491,-46.11 491,-46.11 491,-38.44 491,-38.44 491,-34.61 494.83,-30.77 498.67,-30.77 498.67,-30.77 575.33,-30.77 575.33,-30.77 579.17,-30.77 583,-34.61 583,-38.44 583,-38.44 583,-46.11 583,-46.11 583,-49.94 579.17,-53.77 575.33,-53.77"/>
<text text-anchor="middle" x="537" y="-38.57" font-family="Arial" font-size="14.00" fill="#c6c5fe">Typewriter.ts</text>
</g>
<!-- Typewriter.ts&#45;&gt;Error.ts -->
<g id="edge27" class="edge">
<title>Typewriter.ts&#45;&gt;Error.ts</title>
<path fill="none" stroke="#757575" d="M583.28,-45.66C657.02,-50.87 807.7,-60.27 935.5,-60.27 935.5,-60.27 935.5,-60.27 2036.5,-60.27 2115.44,-60.27 2150.06,-78.03 2193,-144.27 2242.27,-220.28 2255.55,-892.89 2257.67,-1023.4"/>
<polygon fill="#757575" stroke="#757575" points="2254.18,-1023.76 2257.83,-1033.7 2261.18,-1023.65 2254.18,-1023.76"/>
</g>
<!-- Typewriter.ts&#45;&gt;util.ts -->
<g id="edge28" class="edge">
<title>Typewriter.ts&#45;&gt;util.ts</title>
<path fill="none" stroke="#757575" d="M581.83,-53.83C596.34,-57.99 612.49,-62.97 627,-68.27 654.38,-78.28 684.53,-91.75 706.8,-102.19"/>
<polygon fill="#757575" stroke="#757575" points="705.6,-105.49 716.13,-106.61 708.59,-99.17 705.6,-105.49"/>
</g>
<!-- client.ts -->
<g id="node22" class="node">
<title>client.ts</title>
<path fill="none" stroke="#c6c5fe" d="M54.33,-905.77C54.33,-905.77 7.67,-905.77 7.67,-905.77 3.83,-905.77 0,-901.94 0,-898.11 0,-898.11 0,-890.44 0,-890.44 0,-886.61 3.83,-882.77 7.67,-882.77 7.67,-882.77 54.33,-882.77 54.33,-882.77 58.17,-882.77 62,-886.61 62,-890.44 62,-890.44 62,-898.11 62,-898.11 62,-901.94 58.17,-905.77 54.33,-905.77"/>
<text text-anchor="middle" x="31" y="-890.57" font-family="Arial" font-size="14.00" fill="#c6c5fe">client.ts</text>
</g>
<!-- client.ts&#45;&gt;AssetLoader.ts -->
<g id="edge29" class="edge">
<title>client.ts&#45;&gt;AssetLoader.ts</title>
<path fill="none" stroke="#757575" d="M32.47,-882.75C35.64,-807.06 55.23,-380.32 98,-258.27 106.02,-235.39 121.66,-212.42 133.7,-196.82"/>
<polygon fill="#757575" stroke="#757575" points="136.47,-198.96 139.95,-188.95 130.99,-194.6 136.47,-198.96"/>
</g>
<!-- client.ts&#45;&gt;util.ts -->
<g id="edge43" class="edge">
<title>client.ts&#45;&gt;util.ts</title>
<path fill="none" stroke="#757575" d="M32.25,-882.53C34.28,-792.54 49.15,-214.36 98,-156.27 175.6,-64.01 579.14,-100.37 703.48,-114"/>
<polygon fill="#757575" stroke="#757575" points="703.3,-117.5 713.63,-115.13 704.08,-110.54 703.3,-117.5"/>
</g>
<!-- client.ts&#45;&gt;constants.ts -->
<g id="edge34" class="edge">
<title>client.ts&#45;&gt;constants.ts</title>
<path fill="none" stroke="#757575" d="M46.85,-905.85C59.68,-915.25 79.09,-928.09 98,-935.27 304.43,-1013.7 573,-1014.68 686.08,-1010.94"/>
<polygon fill="#757575" stroke="#757575" points="686.35,-1014.44 696.21,-1010.58 686.1,-1007.44 686.35,-1014.44"/>
</g>
<!-- client.ts&#45;&gt;Rhythm.ts -->
<g id="edge30" class="edge">
<title>client.ts&#45;&gt;Rhythm.ts</title>
<path fill="none" stroke="#757575" d="M62.08,-894.27C74.16,-894.27 88.39,-894.27 101.84,-894.27"/>
<polygon fill="#757575" stroke="#757575" points="101.92,-897.77 111.92,-894.27 101.92,-890.77 101.92,-897.77"/>
</g>
<!-- client.ts&#45;&gt;SignInForm.ts -->
<g id="edge31" class="edge">
<title>client.ts&#45;&gt;SignInForm.ts</title>
<path fill="none" stroke="#757575" d="M32.5,-882.56C35.92,-805.84 56.8,-377.12 98,-338.27 151.02,-288.28 369.44,-298.49 476.42,-306.84"/>
<polygon fill="#757575" stroke="#757575" points="476.16,-310.33 486.41,-307.64 476.72,-303.36 476.16,-310.33"/>
</g>
<!-- client.ts&#45;&gt;System.ts -->
<g id="edge32" class="edge">
<title>client.ts&#45;&gt;System.ts</title>
<path fill="none" stroke="#757575" d="M32.45,-882.59C35.6,-803.18 55.55,-344.43 98,-301.27 169.17,-228.92 223.01,-272.27 324.5,-272.27 324.5,-272.27 324.5,-272.27 1147,-272.27 1314.88,-272.27 1319.98,-397.57 1478,-454.27 1559.31,-483.45 1601.83,-435.96 1669,-490.27 1672.96,-493.48 1727.49,-627.26 1748.93,-680.11"/>
<polygon fill="#757575" stroke="#757575" points="1745.75,-681.59 1752.75,-689.54 1752.24,-678.96 1745.75,-681.59"/>
</g>
<!-- client.ts&#45;&gt;Typewriter.ts -->
<g id="edge33" class="edge">
<title>client.ts&#45;&gt;Typewriter.ts</title>
<path fill="none" stroke="#757575" d="M32.03,-882.59C32.39,-786.46 37.05,-127.99 98,-68.27 203.57,35.16 400.71,-3.26 489.98,-27.92"/>
<polygon fill="#757575" stroke="#757575" points="489.23,-31.35 499.81,-30.7 491.14,-24.61 489.23,-31.35"/>
</g>
<!-- entities/BillboardEntity.ts -->
<g id="node23" class="node">
<title>entities/BillboardEntity.ts</title>
<path fill="none" stroke="#c6c5fe" d="M1010.33,-361.77C1010.33,-361.77 862.67,-361.77 862.67,-361.77 858.83,-361.77 855,-357.94 855,-354.11 855,-354.11 855,-346.44 855,-346.44 855,-342.61 858.83,-338.77 862.67,-338.77 862.67,-338.77 1010.33,-338.77 1010.33,-338.77 1014.17,-338.77 1018,-342.61 1018,-346.44 1018,-346.44 1018,-354.11 1018,-354.11 1018,-357.94 1014.17,-361.77 1010.33,-361.77"/>
<text text-anchor="middle" x="936.5" y="-346.57" font-family="Arial" font-size="14.00" fill="#c6c5fe">entities/BillboardEntity.ts</text>
</g>
<!-- client.ts&#45;&gt;entities/BillboardEntity.ts -->
<g id="edge35" class="edge">
<title>client.ts&#45;&gt;entities/BillboardEntity.ts</title>
<path fill="none" stroke="#757575" d="M34,-882.73C44.3,-826.58 96.69,-579.54 240,-452.27 313.75,-386.78 350.47,-392.54 447,-372.27 583.42,-343.64 745.79,-342.69 844.71,-345.69"/>
<polygon fill="#757575" stroke="#757575" points="844.86,-349.19 854.97,-346.02 845.09,-342.2 844.86,-349.19"/>
</g>
<!-- client.ts&#45;&gt;entities/BlockEntity.ts -->
<g id="edge36" class="edge">
<title>client.ts&#45;&gt;entities/BlockEntity.ts</title>
<path fill="none" stroke="#757575" d="M32.91,-905.91C36.01,-937.8 48.87,-1027.59 98,-1078.27 173.05,-1155.71 216.66,-1165.27 324.5,-1165.27 324.5,-1165.27 324.5,-1165.27 538,-1165.27 647.7,-1165.27 774.42,-1166.43 854.73,-1167.31"/>
<polygon fill="#757575" stroke="#757575" points="854.74,-1170.81 864.77,-1167.42 854.81,-1163.81 854.74,-1170.81"/>
</g>
<!-- client.ts&#45;&gt;entities/MonsterEntity.ts -->
<g id="edge37" class="edge">
<title>client.ts&#45;&gt;entities/MonsterEntity.ts</title>
<path fill="none" stroke="#757575" d="M35.05,-906C42.11,-931.01 61.79,-990.19 98,-1025.27 176.9,-1101.72 214.64,-1124.27 324.5,-1124.27 324.5,-1124.27 324.5,-1124.27 538,-1124.27 644.16,-1124.27 765.61,-1111.38 846.04,-1101.03"/>
<polygon fill="#757575" stroke="#757575" points="846.66,-1104.48 856.13,-1099.71 845.76,-1097.53 846.66,-1104.48"/>
</g>
<!-- client.ts&#45;&gt;entities/PlayerPrefab.ts -->
<g id="edge38" class="edge">
<title>client.ts&#45;&gt;entities/PlayerPrefab.ts</title>
<path fill="none" stroke="#757575" d="M40.89,-906C73.62,-947.68 192.38,-1086.27 324.5,-1086.27 324.5,-1086.27 324.5,-1086.27 538,-1086.27 668.3,-1086.27 818.22,-1045.41 891.09,-1022.84"/>
<polygon fill="#757575" stroke="#757575" points="892.36,-1026.11 900.85,-1019.78 890.27,-1019.43 892.36,-1026.11"/>
</g>
<!-- routes.ts -->
<g id="node27" class="node">
<title>routes.ts</title>
<path fill="none" stroke="#c6c5fe" d="M177.33,-751.77C177.33,-751.77 124.67,-751.77 124.67,-751.77 120.83,-751.77 117,-747.94 117,-744.11 117,-744.11 117,-736.44 117,-736.44 117,-732.61 120.83,-728.77 124.67,-728.77 124.67,-728.77 177.33,-728.77 177.33,-728.77 181.17,-728.77 185,-732.61 185,-736.44 185,-736.44 185,-744.11 185,-744.11 185,-747.94 181.17,-751.77 177.33,-751.77"/>
<text text-anchor="middle" x="151" y="-736.57" font-family="Arial" font-size="14.00" fill="#c6c5fe">routes.ts</text>
</g>
<!-- client.ts&#45;&gt;routes.ts -->
<g id="edge39" class="edge">
<title>client.ts&#45;&gt;routes.ts</title>
<path fill="none" stroke="#757575" d="M40.87,-882.7C60.86,-856.61 109.63,-792.96 134.65,-760.31"/>
<polygon fill="#757575" stroke="#757575" points="137.72,-762.05 141.03,-751.98 132.17,-757.79 137.72,-762.05"/>
</g>
<!-- systems/ModelSystem.ts -->
<g id="node28" class="node">
<title>systems/ModelSystem.ts</title>
<path fill="none" stroke="#c6c5fe" d="M613.33,-1431.77C613.33,-1431.77 460.67,-1431.77 460.67,-1431.77 456.83,-1431.77 453,-1427.94 453,-1424.11 453,-1424.11 453,-1416.44 453,-1416.44 453,-1412.61 456.83,-1408.77 460.67,-1408.77 460.67,-1408.77 613.33,-1408.77 613.33,-1408.77 617.17,-1408.77 621,-1412.61 621,-1416.44 621,-1416.44 621,-1424.11 621,-1424.11 621,-1427.94 617.17,-1431.77 613.33,-1431.77"/>
<text text-anchor="middle" x="537" y="-1416.57" font-family="Arial" font-size="14.00" fill="#c6c5fe">systems/ModelSystem.ts</text>
</g>
<!-- client.ts&#45;&gt;systems/ModelSystem.ts -->
<g id="edge40" class="edge">
<title>client.ts&#45;&gt;systems/ModelSystem.ts</title>
<path fill="none" stroke="#757575" d="M32.97,-905.8C37.61,-958.4 58.86,-1175.46 98,-1229.27 179.22,-1340.95 340,-1388.15 442.54,-1407.51"/>
<polygon fill="#757575" stroke="#757575" points="442.11,-1410.99 452.58,-1409.35 443.38,-1404.1 442.11,-1410.99"/>
</g>
<!-- systems/RenderSystem.ts -->
<g id="node29" class="node">
<title>systems/RenderSystem.ts</title>
<path fill="none" stroke="#c6c5fe" d="M616.83,-1335.77C616.83,-1335.77 457.17,-1335.77 457.17,-1335.77 453.33,-1335.77 449.5,-1331.94 449.5,-1328.11 449.5,-1328.11 449.5,-1320.44 449.5,-1320.44 449.5,-1316.61 453.33,-1312.77 457.17,-1312.77 457.17,-1312.77 616.83,-1312.77 616.83,-1312.77 620.67,-1312.77 624.5,-1316.61 624.5,-1320.44 624.5,-1320.44 624.5,-1328.11 624.5,-1328.11 624.5,-1331.94 620.67,-1335.77 616.83,-1335.77"/>
<text text-anchor="middle" x="537" y="-1320.57" font-family="Arial" font-size="14.00" fill="#c6c5fe">systems/RenderSystem.ts</text>
</g>
<!-- client.ts&#45;&gt;systems/RenderSystem.ts -->
<g id="edge41" class="edge">
<title>client.ts&#45;&gt;systems/RenderSystem.ts</title>
<path fill="none" stroke="#757575" d="M33.17,-905.82C38.28,-953.89 60.01,-1137.62 98,-1179.27 185.92,-1275.69 339.31,-1308.12 439.24,-1318.95"/>
<polygon fill="#757575" stroke="#757575" points="439.04,-1322.44 449.34,-1319.99 439.76,-1315.48 439.04,-1322.44"/>
</g>
<!-- systems/RouterSystem.ts -->
<g id="node30" class="node">
<title>systems/RouterSystem.ts</title>
<path fill="none" stroke="#ff6c60" d="M403.33,-945.77C403.33,-945.77 247.67,-945.77 247.67,-945.77 243.83,-945.77 240,-941.94 240,-938.11 240,-938.11 240,-930.44 240,-930.44 240,-926.61 243.83,-922.77 247.67,-922.77 247.67,-922.77 403.33,-922.77 403.33,-922.77 407.17,-922.77 411,-926.61 411,-930.44 411,-930.44 411,-938.11 411,-938.11 411,-941.94 407.17,-945.77 403.33,-945.77"/>
<text text-anchor="middle" x="325.5" y="-930.57" font-family="Arial" font-size="14.00" fill="#ff6c60">systems/RouterSystem.ts</text>
</g>
<!-- client.ts&#45;&gt;systems/RouterSystem.ts -->
<g id="edge42" class="edge">
<title>client.ts&#45;&gt;systems/RouterSystem.ts</title>
<path fill="none" stroke="#757575" d="M62.19,-905.45C73.3,-909.14 86.09,-912.91 98,-915.27 140.82,-923.77 188.93,-928.47 229.76,-931.07"/>
<polygon fill="#757575" stroke="#757575" points="229.78,-934.58 239.97,-931.69 230.2,-927.59 229.78,-934.58"/>
</g>
<!-- entities/BillboardEntity.ts&#45;&gt;Component.ts -->
<g id="edge50" class="edge">
<title>entities/BillboardEntity.ts&#45;&gt;Component.ts</title>
<path fill="none" stroke="#757575" d="M1018.28,-346.13C1181.53,-338.28 1545.64,-323.53 1669,-341.27 1734.57,-350.7 1768.25,-333.54 1812,-383.27 1845.59,-421.46 1837.88,-559.44 1848,-609.27 1861.29,-674.72 1881.52,-751.07 1891.5,-787.62"/>
<polygon fill="#757575" stroke="#757575" points="1888.23,-788.92 1894.25,-797.63 1894.98,-787.06 1888.23,-788.92"/>
</g>
<!-- entities/BillboardEntity.ts&#45;&gt;EntityManager.ts -->
<g id="edge51" class="edge">
<title>entities/BillboardEntity.ts&#45;&gt;EntityManager.ts</title>
<path fill="none" stroke="#757575" d="M940.72,-361.88C952.38,-404.23 993.03,-554.47 1018,-680.27 1028.24,-731.88 1018,-875.91 1054,-914.27 1060.34,-921.03 1068.4,-925.77 1077.09,-929.05"/>
<polygon fill="#757575" stroke="#757575" points="1076.13,-932.41 1086.72,-932.06 1078.22,-925.73 1076.13,-932.41"/>
</g>
<!-- entities/BlockEntity.ts&#45;&gt;Component.ts -->
<g id="edge52" class="edge">
<title>entities/BlockEntity.ts&#45;&gt;Component.ts</title>
<path fill="none" stroke="#757575" d="M946.87,-1180.11C964.91,-1201.89 1006.88,-1247.88 1054,-1267.27 1210.1,-1331.53 1683.11,-1426.29 1812,-1317.27 1887.56,-1253.37 1896.38,-920.33 1897.38,-831.22"/>
<polygon fill="#757575" stroke="#757575" points="1900.88,-830.98 1897.47,-820.95 1893.88,-830.92 1900.88,-830.98"/>
</g>
<!-- entities/BlockEntity.ts&#45;&gt;EntityManager.ts -->
<g id="edge53" class="edge">
<title>entities/BlockEntity.ts&#45;&gt;EntityManager.ts</title>
<path fill="none" stroke="#757575" d="M956.69,-1156.65C973.87,-1145.7 999.18,-1128.19 1018,-1109.27 1067.62,-1059.42 1112.64,-988.79 1133.21,-954.51"/>
<polygon fill="#757575" stroke="#757575" points="1136.26,-956.24 1138.35,-945.85 1130.24,-952.66 1136.26,-956.24"/>
</g>
<!-- entities/BlockEntity.ts&#45;&gt;HeadingDirection.ts -->
<g id="edge54" class="edge">
<title>entities/BlockEntity.ts&#45;&gt;HeadingDirection.ts</title>
<path fill="none" stroke="#757575" d="M960.75,-1179.83C983.98,-1191.09 1020.91,-1208.23 1054,-1220.27 1065.46,-1224.45 1077.92,-1228.38 1089.85,-1231.87"/>
<polygon fill="#757575" stroke="#757575" points="1089.12,-1235.31 1099.7,-1234.69 1091.05,-1228.58 1089.12,-1235.31"/>
</g>
<!-- entities/BlockEntity.ts&#45;&gt;constants.ts -->
<g id="edge55" class="edge">
<title>entities/BlockEntity.ts&#45;&gt;constants.ts</title>
<path fill="none" stroke="#757575" d="M907.43,-1156.64C891.73,-1146.53 871.96,-1132.02 855,-1118.27 818.22,-1088.47 777.33,-1050.68 756.27,-1027.72"/>
<polygon fill="#757575" stroke="#757575" points="758.68,-1025.17 749.45,-1019.97 753.43,-1029.79 758.68,-1025.17"/>
</g>
<!-- systems/ActionSystem.ts -->
<g id="node31" class="node">
<title>systems/ActionSystem.ts</title>
<path fill="none" stroke="#c6c5fe" d="M1434.33,-1067.77C1434.33,-1067.77 1281.67,-1067.77 1281.67,-1067.77 1277.83,-1067.77 1274,-1063.94 1274,-1060.11 1274,-1060.11 1274,-1052.44 1274,-1052.44 1274,-1048.61 1277.83,-1044.77 1281.67,-1044.77 1281.67,-1044.77 1434.33,-1044.77 1434.33,-1044.77 1438.17,-1044.77 1442,-1048.61 1442,-1052.44 1442,-1052.44 1442,-1060.11 1442,-1060.11 1442,-1063.94 1438.17,-1067.77 1434.33,-1067.77"/>
<text text-anchor="middle" x="1358" y="-1052.57" font-family="Arial" font-size="14.00" fill="#c6c5fe">systems/ActionSystem.ts</text>
</g>
<!-- entities/BlockEntity.ts&#45;&gt;systems/ActionSystem.ts -->
<g id="edge56" class="edge">
<title>entities/BlockEntity.ts&#45;&gt;systems/ActionSystem.ts</title>
<path fill="none" stroke="#757575" d="M1008.29,-1175.34C1070.81,-1178.93 1163.36,-1177.65 1238,-1149.27 1279.69,-1133.43 1318.52,-1097.58 1339.88,-1075.3"/>
<polygon fill="#757575" stroke="#757575" points="1342.65,-1077.47 1346.93,-1067.78 1337.54,-1072.68 1342.65,-1077.47"/>
</g>
<!-- systems/BehaviorSystem.ts -->
<g id="node32" class="node">
<title>systems/BehaviorSystem.ts</title>
<path fill="none" stroke="#c6c5fe" d="M1230.33,-1139.77C1230.33,-1139.77 1061.67,-1139.77 1061.67,-1139.77 1057.83,-1139.77 1054,-1135.94 1054,-1132.11 1054,-1132.11 1054,-1124.44 1054,-1124.44 1054,-1120.61 1057.83,-1116.77 1061.67,-1116.77 1061.67,-1116.77 1230.33,-1116.77 1230.33,-1116.77 1234.17,-1116.77 1238,-1120.61 1238,-1124.44 1238,-1124.44 1238,-1132.11 1238,-1132.11 1238,-1135.94 1234.17,-1139.77 1230.33,-1139.77"/>
<text text-anchor="middle" x="1146" y="-1124.57" font-family="Arial" font-size="14.00" fill="#c6c5fe">systems/BehaviorSystem.ts</text>
</g>
<!-- entities/BlockEntity.ts&#45;&gt;systems/BehaviorSystem.ts -->
<g id="edge57" class="edge">
<title>entities/BlockEntity.ts&#45;&gt;systems/BehaviorSystem.ts</title>
<path fill="none" stroke="#757575" d="M997.24,-1156.76C1021.65,-1152.05 1050.06,-1146.58 1075.41,-1141.69"/>
<polygon fill="#757575" stroke="#757575" points="1076.17,-1145.11 1085.32,-1139.78 1074.84,-1138.23 1076.17,-1145.11"/>
</g>
<!-- entities/MonsterEntity.ts&#45;&gt;Component.ts -->
<g id="edge63" class="edge">
<title>entities/MonsterEntity.ts&#45;&gt;Component.ts</title>
<path fill="none" stroke="#757575" d="M956.75,-1099.79C979.43,-1113.01 1018.51,-1134.73 1054,-1149.27 1212.43,-1214.19 1680.71,-1397.17 1812,-1287.27 1883.15,-1227.72 1895.16,-917.19 1897.13,-831.31"/>
<polygon fill="#757575" stroke="#757575" points="1900.63,-831.21 1897.33,-821.14 1893.63,-831.07 1900.63,-831.21"/>
</g>
<!-- entities/MonsterEntity.ts&#45;&gt;EntityManager.ts -->
<g id="edge64" class="edge">
<title>entities/MonsterEntity.ts&#45;&gt;EntityManager.ts</title>
<path fill="none" stroke="#757575" d="M954.13,-1076.67C970.6,-1065.03 996.43,-1046.42 1018,-1029.27 1034.53,-1016.13 1037.34,-1011.25 1054,-998.27 1075.34,-981.65 1100.57,-964.05 1119.05,-951.53"/>
<polygon fill="#757575" stroke="#757575" points="1121.19,-954.31 1127.53,-945.82 1117.28,-948.5 1121.19,-954.31"/>
</g>
<!-- entities/MonsterEntity.ts&#45;&gt;HeadingDirection.ts -->
<g id="edge65" class="edge">
<title>entities/MonsterEntity.ts&#45;&gt;HeadingDirection.ts</title>
<path fill="none" stroke="#757575" d="M954.27,-1099.91C970.86,-1111.62 996.78,-1130.45 1018,-1148.27 1034.85,-1162.43 1036.96,-1168.35 1054,-1182.27 1074.83,-1199.28 1099.91,-1216.72 1118.47,-1229.09"/>
<polygon fill="#757575" stroke="#757575" points="1116.73,-1232.14 1127,-1234.73 1120.59,-1226.3 1116.73,-1232.14"/>
</g>
<!-- entities/MonsterEntity.ts&#45;&gt;constants.ts -->
<g id="edge66" class="edge">
<title>entities/MonsterEntity.ts&#45;&gt;constants.ts</title>
<path fill="none" stroke="#757575" d="M866.33,-1076.7C862.44,-1075.01 858.63,-1073.2 855,-1071.27 837.08,-1061.79 836.85,-1052.87 819,-1043.27 803.75,-1035.08 785.44,-1028.76 770.49,-1023.42"/>
<polygon fill="#757575" stroke="#757575" points="771.36,-1020.01 760.76,-1019.87 768.96,-1026.59 771.36,-1020.01"/>
</g>
<!-- entities/MonsterEntity.ts&#45;&gt;systems/ActionSystem.ts -->
<g id="edge67" class="edge">
<title>entities/MonsterEntity.ts&#45;&gt;systems/ActionSystem.ts</title>
<path fill="none" stroke="#757575" d="M1016.9,-1082.22C1087.11,-1076.86 1189.61,-1069.04 1263.72,-1063.39"/>
<polygon fill="#757575" stroke="#757575" points="1264.28,-1066.86 1273.98,-1062.61 1263.74,-1059.88 1264.28,-1066.86"/>
</g>
<!-- entities/MonsterEntity.ts&#45;&gt;systems/BehaviorSystem.ts -->
<g id="edge68" class="edge">
<title>entities/MonsterEntity.ts&#45;&gt;systems/BehaviorSystem.ts</title>
<path fill="none" stroke="#757575" d="M997.24,-1099.79C1021.65,-1104.5 1050.06,-1109.97 1075.41,-1114.86"/>
<polygon fill="#757575" stroke="#757575" points="1074.84,-1118.31 1085.32,-1116.77 1076.17,-1111.44 1074.84,-1118.31"/>
</g>
<!-- systems/LogSystem.ts -->
<g id="node34" class="node">
<title>systems/LogSystem.ts</title>
<path fill="none" stroke="#c6c5fe" d="M1642.33,-908.77C1642.33,-908.77 1504.67,-908.77 1504.67,-908.77 1500.83,-908.77 1497,-904.94 1497,-901.11 1497,-901.11 1497,-893.44 1497,-893.44 1497,-889.61 1500.83,-885.77 1504.67,-885.77 1504.67,-885.77 1642.33,-885.77 1642.33,-885.77 1646.17,-885.77 1650,-889.61 1650,-893.44 1650,-893.44 1650,-901.11 1650,-901.11 1650,-904.94 1646.17,-908.77 1642.33,-908.77"/>
<text text-anchor="middle" x="1573.5" y="-893.57" font-family="Arial" font-size="14.00" fill="#c6c5fe">systems/LogSystem.ts</text>
</g>
<!-- entities/MonsterEntity.ts&#45;&gt;systems/LogSystem.ts -->
<g id="edge69" class="edge">
<title>entities/MonsterEntity.ts&#45;&gt;systems/LogSystem.ts</title>
<path fill="none" stroke="#757575" d="M974.1,-1076.72C1061.18,-1049.3 1287.66,-978.5 1478,-923.27 1491.54,-919.34 1506.22,-915.23 1519.88,-911.47"/>
<polygon fill="#757575" stroke="#757575" points="1520.9,-914.82 1529.62,-908.8 1519.05,-908.07 1520.9,-914.82"/>
</g>
<!-- entities/PlayerPrefab.ts&#45;&gt;Component.ts -->
<g id="edge70" class="edge">
<title>entities/PlayerPrefab.ts&#45;&gt;Component.ts</title>
<path fill="none" stroke="#757575" d="M1012.29,-996.73C1094.39,-983.79 1217.35,-963.55 1238,-955.27 1255.85,-948.12 1256.47,-939.18 1274,-931.27 1359.51,-892.74 1386.01,-895.57 1478,-877.27 1624.91,-848.05 1665.15,-861.79 1812,-832.27 1824.01,-829.86 1836.83,-826.72 1848.78,-823.54"/>
<polygon fill="#757575" stroke="#757575" points="1849.86,-826.88 1858.59,-820.88 1848.02,-820.12 1849.86,-826.88"/>
</g>
<!-- entities/PlayerPrefab.ts&#45;&gt;EntityManager.ts -->
<g id="edge71" class="edge">
<title>entities/PlayerPrefab.ts&#45;&gt;EntityManager.ts</title>
<path fill="none" stroke="#757575" d="M979.58,-996.75C992.17,-992.75 1005.85,-987.85 1018,-982.27 1035.04,-974.45 1036.83,-967.81 1054,-960.27 1064.02,-955.88 1074.99,-952.01 1085.73,-948.69"/>
<polygon fill="#757575" stroke="#757575" points="1086.91,-951.99 1095.5,-945.8 1084.92,-945.28 1086.91,-951.99"/>
</g>
<!-- entities/PlayerPrefab.ts&#45;&gt;Input.ts -->
<g id="edge72" class="edge">
<title>entities/PlayerPrefab.ts&#45;&gt;Input.ts</title>
<path fill="none" stroke="#757575" d="M948.19,-996.74C967.38,-976.76 1009.83,-935.77 1054,-914.27 1069.94,-906.52 1088.86,-901.56 1105.3,-898.42"/>
<polygon fill="#757575" stroke="#757575" points="1105.93,-901.86 1115.18,-896.69 1104.72,-894.97 1105.93,-901.86"/>
</g>
<!-- entities/PlayerPrefab.ts&#45;&gt;constants.ts -->
<g id="edge73" class="edge">
<title>entities/PlayerPrefab.ts&#45;&gt;constants.ts</title>
<path fill="none" stroke="#757575" d="M858.71,-1014.9C837.75,-1015.17 815.48,-1015.01 796.07,-1014.4"/>
<polygon fill="#757575" stroke="#757575" points="796.03,-1010.9 785.91,-1014.04 795.77,-1017.89 796.03,-1010.9"/>
</g>
<!-- entities/PlayerPrefab.ts&#45;&gt;systems/ActionSystem.ts -->
<g id="edge74" class="edge">
<title>entities/PlayerPrefab.ts&#45;&gt;systems/ActionSystem.ts</title>
<path fill="none" stroke="#757575" d="M1014.44,-1017.08C1084.59,-1025.1 1188.4,-1036.98 1263.34,-1045.56"/>
<polygon fill="#757575" stroke="#757575" points="1263.38,-1049.09 1273.72,-1046.75 1264.18,-1042.13 1263.38,-1049.09"/>
</g>
<!-- entities/PlayerPrefab.ts&#45;&gt;systems/BehaviorSystem.ts -->
<g id="edge75" class="edge">
<title>entities/PlayerPrefab.ts&#45;&gt;systems/BehaviorSystem.ts</title>
<path fill="none" stroke="#757575" d="M983.47,-1019.79C995.11,-1023.59 1007.32,-1028.39 1018,-1034.27 1036.24,-1044.32 1037.47,-1051.61 1054,-1064.27 1075.48,-1080.73 1100.69,-1098.34 1119.13,-1110.91"/>
<polygon fill="#757575" stroke="#757575" points="1117.35,-1113.93 1127.59,-1116.65 1121.28,-1108.14 1117.35,-1113.93"/>
</g>
<!-- routes.ts&#45;&gt;systems/ModelSystem.ts -->
<g id="edge86" class="edge">
<title>routes.ts&#45;&gt;systems/ModelSystem.ts</title>
<path fill="none" stroke="#757575" d="M157.39,-751.84C167.87,-774.73 191.05,-827.63 204,-874.27 229.09,-964.68 201.82,-996.58 240,-1082.27 304.76,-1227.65 454.31,-1355.99 512.36,-1402.11"/>
<polygon fill="#757575" stroke="#757575" points="510.53,-1405.13 520.55,-1408.56 514.86,-1399.62 510.53,-1405.13"/>
</g>
<!-- routes.ts&#45;&gt;systems/RenderSystem.ts -->
<g id="edge87" class="edge">
<title>routes.ts&#45;&gt;systems/RenderSystem.ts</title>
<path fill="none" stroke="#757575" d="M156.5,-751.83C172.87,-793.74 228.84,-936.33 240,-955.27 326.42,-1102.01 467.04,-1253.13 517.36,-1305.26"/>
<polygon fill="#757575" stroke="#757575" points="514.9,-1307.75 524.38,-1312.49 519.93,-1302.88 514.9,-1307.75"/>
</g>
<!-- routes.ts&#45;&gt;systems/RouterSystem.ts -->
<g id="edge88" class="edge">
<title>routes.ts&#45;&gt;systems/RouterSystem.ts</title>
<path fill="none" stroke="#757575" d="M158.47,-752.09C171.77,-775.76 203.96,-829.98 240,-868.27 257.49,-886.86 280.48,-904.47 298.07,-916.82"/>
<polygon fill="#757575" stroke="#757575" points="296.49,-919.98 306.71,-922.77 300.46,-914.22 296.49,-919.98"/>
</g>
<!-- routes.ts&#45;&gt;systems/ActionSystem.ts -->
<g id="edge77" class="edge">
<title>routes.ts&#45;&gt;systems/ActionSystem.ts</title>
<path fill="none" stroke="#757575" d="M166.87,-751.96C183.6,-764.38 212.09,-783.42 240,-792.27 365.8,-832.2 404.01,-816.27 536,-816.27 536,-816.27 536,-816.27 742,-816.27 963.9,-816.27 1049.33,-756.48 1238,-873.27 1299.98,-911.65 1336.01,-995.68 1350.09,-1035.09"/>
<polygon fill="#757575" stroke="#757575" points="1346.84,-1036.42 1353.41,-1044.73 1353.46,-1034.14 1346.84,-1036.42"/>
</g>
<!-- routes.ts&#45;&gt;systems/BehaviorSystem.ts -->
<g id="edge79" class="edge">
<title>routes.ts&#45;&gt;systems/BehaviorSystem.ts</title>
<path fill="none" stroke="#757575" d="M159.3,-751.81C172.61,-771.72 202.9,-812.13 240,-830.27 395.5,-906.34 462.93,-819.08 627,-874.27 721.06,-905.92 742.65,-924.87 819,-988.27 837.66,-1003.77 834.23,-1016.75 855,-1029.27 918.79,-1067.73 947.73,-1043.57 1018,-1068.27 1052.27,-1080.32 1089.66,-1098.67 1114.94,-1111.9"/>
<polygon fill="#757575" stroke="#757575" points="1113.52,-1115.11 1124,-1116.7 1116.8,-1108.92 1113.52,-1115.11"/>
</g>
<!-- routes.ts&#45;&gt;systems/LogSystem.ts -->
<g id="edge85" class="edge">
<title>routes.ts&#45;&gt;systems/LogSystem.ts</title>
<path fill="none" stroke="#757575" d="M159.85,-728.73C173.56,-709.68 203.85,-672.19 240,-656.27 398.3,-586.56 849.78,-640.01 1018,-680.27 1224.71,-729.76 1457.07,-839.73 1540.53,-881.11"/>
<polygon fill="#757575" stroke="#757575" points="1539.22,-884.37 1549.74,-885.7 1542.34,-878.11 1539.22,-884.37"/>
</g>
<!-- systems/AnimationSystem.ts -->
<g id="node37" class="node">
<title>systems/AnimationSystem.ts</title>
<path fill="none" stroke="#c6c5fe" d="M1661.33,-444.77C1661.33,-444.77 1485.67,-444.77 1485.67,-444.77 1481.83,-444.77 1478,-440.94 1478,-437.11 1478,-437.11 1478,-429.44 1478,-429.44 1478,-425.61 1481.83,-421.77 1485.67,-421.77 1485.67,-421.77 1661.33,-421.77 1661.33,-421.77 1665.17,-421.77 1669,-425.61 1669,-429.44 1669,-429.44 1669,-437.11 1669,-437.11 1669,-440.94 1665.17,-444.77 1661.33,-444.77"/>
<text text-anchor="middle" x="1573.5" y="-429.57" font-family="Arial" font-size="14.00" fill="#c6c5fe">systems/AnimationSystem.ts</text>
</g>
<!-- routes.ts&#45;&gt;systems/AnimationSystem.ts -->
<g id="edge78" class="edge">
<title>routes.ts&#45;&gt;systems/AnimationSystem.ts</title>
<path fill="none" stroke="#757575" d="M156.07,-728.69C164.86,-703.64 186.27,-642.54 204,-591.27 220.13,-544.65 200.85,-516.29 240,-486.27 344.65,-406.06 404.14,-466.27 536,-466.27 536,-466.27 536,-466.27 1147,-466.27 1256.76,-466.27 1381.97,-455.22 1467.99,-445.91"/>
<polygon fill="#757575" stroke="#757575" points="1468.46,-449.38 1478.02,-444.82 1467.7,-442.42 1468.46,-449.38"/>
</g>
<!-- systems/CameraSystem.ts -->
<g id="node38" class="node">
<title>systems/CameraSystem.ts</title>
<path fill="none" stroke="#c6c5fe" d="M618.83,-673.77C618.83,-673.77 455.17,-673.77 455.17,-673.77 451.33,-673.77 447.5,-669.94 447.5,-666.11 447.5,-666.11 447.5,-658.44 447.5,-658.44 447.5,-654.61 451.33,-650.77 455.17,-650.77 455.17,-650.77 618.83,-650.77 618.83,-650.77 622.67,-650.77 626.5,-654.61 626.5,-658.44 626.5,-658.44 626.5,-666.11 626.5,-666.11 626.5,-669.94 622.67,-673.77 618.83,-673.77"/>
<text text-anchor="middle" x="537" y="-658.57" font-family="Arial" font-size="14.00" fill="#c6c5fe">systems/CameraSystem.ts</text>
</g>
<!-- routes.ts&#45;&gt;systems/CameraSystem.ts -->
<g id="edge80" class="edge">
<title>routes.ts&#45;&gt;systems/CameraSystem.ts</title>
<path fill="none" stroke="#757575" d="M166.89,-728.63C183.62,-716.24 212.12,-697.23 240,-688.27 303.61,-667.85 378.62,-661.44 437.21,-660.09"/>
<polygon fill="#757575" stroke="#757575" points="437.27,-663.59 447.2,-659.9 437.14,-656.59 437.27,-663.59"/>
</g>
<!-- systems/ClientSystem.ts -->
<g id="node39" class="node">
<title>systems/ClientSystem.ts</title>
<path fill="none" stroke="#c6c5fe" d="M400.33,-597.77C400.33,-597.77 250.67,-597.77 250.67,-597.77 246.83,-597.77 243,-593.94 243,-590.11 243,-590.11 243,-582.44 243,-582.44 243,-578.61 246.83,-574.77 250.67,-574.77 250.67,-574.77 400.33,-574.77 400.33,-574.77 404.17,-574.77 408,-578.61 408,-582.44 408,-582.44 408,-590.11 408,-590.11 408,-593.94 404.17,-597.77 400.33,-597.77"/>
<text text-anchor="middle" x="325.5" y="-582.57" font-family="Arial" font-size="14.00" fill="#c6c5fe">systems/ClientSystem.ts</text>
</g>
<!-- routes.ts&#45;&gt;systems/ClientSystem.ts -->
<g id="edge81" class="edge">
<title>routes.ts&#45;&gt;systems/ClientSystem.ts</title>
<path fill="none" stroke="#757575" d="M156.88,-728.41C167.86,-703.17 196.97,-643.88 240,-612.27 245.57,-608.18 251.79,-604.73 258.27,-601.81"/>
<polygon fill="#757575" stroke="#757575" points="259.94,-604.91 267.89,-597.91 257.3,-598.42 259.94,-604.91"/>
</g>
<!-- systems/EditorSystem.ts -->
<g id="node40" class="node">
<title>systems/EditorSystem.ts</title>
<path fill="none" stroke="#c6c5fe" d="M1433.33,-558.77C1433.33,-558.77 1282.67,-558.77 1282.67,-558.77 1278.83,-558.77 1275,-554.94 1275,-551.11 1275,-551.11 1275,-543.44 1275,-543.44 1275,-539.61 1278.83,-535.77 1282.67,-535.77 1282.67,-535.77 1433.33,-535.77 1433.33,-535.77 1437.17,-535.77 1441,-539.61 1441,-543.44 1441,-543.44 1441,-551.11 1441,-551.11 1441,-554.94 1437.17,-558.77 1433.33,-558.77"/>
<text text-anchor="middle" x="1358" y="-543.57" font-family="Arial" font-size="14.00" fill="#c6c5fe">systems/EditorSystem.ts</text>
</g>
<!-- routes.ts&#45;&gt;systems/EditorSystem.ts -->
<g id="edge82" class="edge">
<title>routes.ts&#45;&gt;systems/EditorSystem.ts</title>
<path fill="none" stroke="#757575" d="M153.93,-728.32C159.89,-695.72 181.3,-605.16 240,-566.27 349.93,-493.46 404.14,-546.27 536,-546.27 536,-546.27 536,-546.27 937.5,-546.27 1050,-546.27 1179.47,-546.64 1264.47,-546.93"/>
<polygon fill="#757575" stroke="#757575" points="1264.6,-550.43 1274.62,-546.96 1264.63,-543.43 1264.6,-550.43"/>
</g>
<!-- systems/GameSystem.ts -->
<g id="node41" class="node">
<title>systems/GameSystem.ts</title>
<path fill="none" stroke="#c6c5fe" d="M402.33,-517.77C402.33,-517.77 248.67,-517.77 248.67,-517.77 244.83,-517.77 241,-513.94 241,-510.11 241,-510.11 241,-502.44 241,-502.44 241,-498.61 244.83,-494.77 248.67,-494.77 248.67,-494.77 402.33,-494.77 402.33,-494.77 406.17,-494.77 410,-498.61 410,-502.44 410,-502.44 410,-510.11 410,-510.11 410,-513.94 406.17,-517.77 402.33,-517.77"/>
<text text-anchor="middle" x="325.5" y="-502.57" font-family="Arial" font-size="14.00" fill="#c6c5fe">systems/GameSystem.ts</text>
</g>
<!-- routes.ts&#45;&gt;systems/GameSystem.ts -->
<g id="edge83" class="edge">
<title>routes.ts&#45;&gt;systems/GameSystem.ts</title>
<path fill="none" stroke="#757575" d="M153.47,-728.64C158.54,-693.57 178.45,-587.86 240,-532.27 244.38,-528.32 249.35,-524.97 254.63,-522.12"/>
<polygon fill="#757575" stroke="#757575" points="256.22,-525.24 263.77,-517.8 253.23,-518.91 256.22,-525.24"/>
</g>
<!-- systems/InputSystem.ts -->
<g id="node42" class="node">
<title>systems/InputSystem.ts</title>
<path fill="none" stroke="#c6c5fe" d="M1009.33,-711.77C1009.33,-711.77 863.67,-711.77 863.67,-711.77 859.83,-711.77 856,-707.94 856,-704.11 856,-704.11 856,-696.44 856,-696.44 856,-692.61 859.83,-688.77 863.67,-688.77 863.67,-688.77 1009.33,-688.77 1009.33,-688.77 1013.17,-688.77 1017,-692.61 1017,-696.44 1017,-696.44 1017,-704.11 1017,-704.11 1017,-707.94 1013.17,-711.77 1009.33,-711.77"/>
<text text-anchor="middle" x="936.5" y="-696.57" font-family="Arial" font-size="14.00" fill="#c6c5fe">systems/InputSystem.ts</text>
</g>
<!-- routes.ts&#45;&gt;systems/InputSystem.ts -->
<g id="edge84" class="edge">
<title>routes.ts&#45;&gt;systems/InputSystem.ts</title>
<path fill="none" stroke="#757575" d="M185.17,-738.58C298.4,-732.8 672.26,-713.71 845.69,-704.86"/>
<polygon fill="#757575" stroke="#757575" points="846,-708.35 855.81,-704.34 845.64,-701.36 846,-708.35"/>
</g>
<!-- systems/TileSystem.ts -->
<g id="node43" class="node">
<title>systems/TileSystem.ts</title>
<path fill="none" stroke="#c6c5fe" d="M1641.83,-752.77C1641.83,-752.77 1505.17,-752.77 1505.17,-752.77 1501.33,-752.77 1497.5,-748.94 1497.5,-745.11 1497.5,-745.11 1497.5,-737.44 1497.5,-737.44 1497.5,-733.61 1501.33,-729.77 1505.17,-729.77 1505.17,-729.77 1641.83,-729.77 1641.83,-729.77 1645.67,-729.77 1649.5,-733.61 1649.5,-737.44 1649.5,-737.44 1649.5,-745.11 1649.5,-745.11 1649.5,-748.94 1645.67,-752.77 1641.83,-752.77"/>
<text text-anchor="middle" x="1573.5" y="-737.57" font-family="Arial" font-size="14.00" fill="#c6c5fe">systems/TileSystem.ts</text>
</g>
<!-- routes.ts&#45;&gt;systems/TileSystem.ts -->
<g id="edge89" class="edge">
<title>routes.ts&#45;&gt;systems/TileSystem.ts</title>
<path fill="none" stroke="#757575" d="M185.02,-745.76C251.34,-756.28 405.53,-778.27 536,-778.27 536,-778.27 536,-778.27 742,-778.27 1014.47,-778.27 1336.73,-758.15 1487.16,-747.59"/>
<polygon fill="#757575" stroke="#757575" points="1487.53,-751.07 1497.26,-746.87 1487.04,-744.09 1487.53,-751.07"/>
</g>
<!-- systems/ModelSystem.ts&#45;&gt;Error.ts -->
<g id="edge116" class="edge">
<title>systems/ModelSystem.ts&#45;&gt;Error.ts</title>
<path fill="none" stroke="#757575" d="M547.36,-1431.81C587.97,-1480.44 754.93,-1666.27 935.5,-1666.27 935.5,-1666.27 935.5,-1666.27 2036.5,-1666.27 2112.01,-1666.27 2190.13,-1527.54 2193,-1521.27 2231.01,-1438.36 2251.52,-1149.69 2256.68,-1067.35"/>
<polygon fill="#757575" stroke="#757575" points="2260.19,-1067.34 2257.31,-1057.15 2253.2,-1066.91 2260.19,-1067.34"/>
</g>
<!-- systems/ModelSystem.ts&#45;&gt;Component.ts -->
<g id="edge115" class="edge">
<title>systems/ModelSystem.ts&#45;&gt;Component.ts</title>
<path fill="none" stroke="#757575" d="M566.38,-1431.8C630.84,-1456.9 793.67,-1514.27 935.5,-1514.27 935.5,-1514.27 935.5,-1514.27 1147,-1514.27 1297.24,-1514.27 1715.28,-1507.24 1812,-1392.27 1885.57,-1304.83 1895.85,-925.97 1897.27,-830.95"/>
<polygon fill="#757575" stroke="#757575" points="1900.77,-830.86 1897.41,-820.81 1893.77,-830.76 1900.77,-830.86"/>
</g>
<!-- systems/ModelSystem.ts&#45;&gt;constants.ts -->
<g id="edge118" class="edge">
<title>systems/ModelSystem.ts&#45;&gt;constants.ts</title>
<path fill="none" stroke="#757575" d="M557.37,-1408.56C577.46,-1395.47 608.48,-1372.51 627,-1345.27 698.39,-1240.26 728.02,-1086.32 736.9,-1029.97"/>
<polygon fill="#757575" stroke="#757575" points="740.37,-1030.45 738.41,-1020.04 733.45,-1029.4 740.37,-1030.45"/>
</g>
<!-- systems/ModelSystem.ts&#45;&gt;System.ts -->
<g id="edge117" class="edge">
<title>systems/ModelSystem.ts&#45;&gt;System.ts</title>
<path fill="none" stroke="#757575" d="M621.2,-1428.62C835.1,-1444.92 1405.8,-1454.69 1669,-1131.27 1721.27,-1067.04 1748.57,-802.01 1755.63,-723.37"/>
<polygon fill="#757575" stroke="#757575" points="1759.14,-723.43 1756.52,-713.16 1752.16,-722.82 1759.14,-723.43"/>
</g>
<!-- systems/RenderSystem.ts&#45;&gt;Error.ts -->
<g id="edge120" class="edge">
<title>systems/RenderSystem.ts&#45;&gt;Error.ts</title>
<path fill="none" stroke="#757575" d="M552.87,-1335.83C575.4,-1352.77 620.15,-1384.19 663,-1401.27 781.86,-1448.67 1584.02,-1628.27 1757.5,-1628.27 1757.5,-1628.27 1757.5,-1628.27 2036.5,-1628.27 2137.95,-1628.27 2188.76,-1447.35 2193,-1436.27 2244.24,-1302.56 2255.12,-1127.88 2257.41,-1067.18"/>
<polygon fill="#757575" stroke="#757575" points="2260.91,-1067.02 2257.75,-1056.91 2253.92,-1066.79 2260.91,-1067.02"/>
</g>
<!-- systems/RenderSystem.ts&#45;&gt;Observable.ts -->
<g id="edge121" class="edge">
<title>systems/RenderSystem.ts&#45;&gt;Observable.ts</title>
<path fill="none" stroke="#757575" d="M561.86,-1335.92C586.6,-1347.53 626.67,-1365.07 663,-1375.27 746.22,-1398.64 769.56,-1393.21 855,-1406.27 1214.8,-1461.31 1312.17,-1568.1 1669,-1496.27 1736.57,-1482.67 1765.39,-1487.05 1812,-1436.27 2001.17,-1230.23 2029.58,-861.95 2033.78,-768.37"/>
<polygon fill="#757575" stroke="#757575" points="2037.29,-768.26 2034.19,-758.13 2030.29,-767.98 2037.29,-768.26"/>
</g>
<!-- systems/RenderSystem.ts&#45;&gt;Component.ts -->
<g id="edge119" class="edge">
<title>systems/RenderSystem.ts&#45;&gt;Component.ts</title>
<path fill="none" stroke="#757575" d="M594.9,-1335.79C819.73,-1379.79 1642.15,-1526.32 1812,-1351.27 1885.71,-1275.31 1895.88,-922.79 1897.28,-831.11"/>
<polygon fill="#757575" stroke="#757575" points="1900.78,-831.09 1897.41,-821.04 1893.78,-831 1900.78,-831.09"/>
</g>
<!-- systems/RenderSystem.ts&#45;&gt;constants.ts -->
<g id="edge123" class="edge">
<title>systems/RenderSystem.ts&#45;&gt;constants.ts</title>
<path fill="none" stroke="#757575" d="M545.43,-1312.65C575.49,-1265.62 688.38,-1089.02 726.97,-1028.65"/>
<polygon fill="#757575" stroke="#757575" points="730.07,-1030.31 732.5,-1020 724.17,-1026.54 730.07,-1030.31"/>
</g>
<!-- systems/RenderSystem.ts&#45;&gt;System.ts -->
<g id="edge122" class="edge">
<title>systems/RenderSystem.ts&#45;&gt;System.ts</title>
<path fill="none" stroke="#757575" d="M624.71,-1326.69C758.57,-1328.32 1022.61,-1323.14 1238,-1267.27 1351.4,-1237.86 1370.73,-1205.37 1478,-1158.27 1562.43,-1121.21 1609.57,-1147.77 1669,-1077.27 1715.47,-1022.16 1746.31,-794.42 1754.99,-722.88"/>
<polygon fill="#757575" stroke="#757575" points="1758.49,-723.13 1756.2,-712.79 1751.54,-722.3 1758.49,-723.13"/>
</g>
<!-- systems/RouterSystem.ts&#45;&gt;globals.ts -->
<g id="edge126" class="edge">
<title>systems/RouterSystem.ts&#45;&gt;globals.ts</title>
<path fill="none" stroke="#757575" d="M386.82,-922.76C419.61,-916.5 459.55,-908.87 489.84,-903.09"/>
<polygon fill="#757575" stroke="#757575" points="490.55,-906.51 499.72,-901.2 489.24,-899.64 490.55,-906.51"/>
</g>
<!-- systems/RouterSystem.ts&#45;&gt;System.ts -->
<g id="edge124" class="edge">
<title>systems/RouterSystem.ts&#45;&gt;System.ts</title>
<path fill="none" stroke="#757575" d="M411.24,-935.36C471.92,-934.58 555.25,-930.32 627,-915.27 824.75,-873.81 856.82,-803.33 1054,-759.27 1238.65,-718.02 1289.41,-736.47 1478,-721.27 1559.32,-714.72 1654.03,-708.17 1709.7,-704.43"/>
<polygon fill="#757575" stroke="#757575" points="1710.22,-707.91 1719.96,-703.75 1709.75,-700.92 1710.22,-707.91"/>
</g>
<!-- entities/GlobalInputEntity.ts -->
<g id="node33" class="node">
<title>entities/GlobalInputEntity.ts</title>
<path fill="none" stroke="#ff6c60" d="M619.33,-985.77C619.33,-985.77 454.67,-985.77 454.67,-985.77 450.83,-985.77 447,-981.94 447,-978.11 447,-978.11 447,-970.44 447,-970.44 447,-966.61 450.83,-962.77 454.67,-962.77 454.67,-962.77 619.33,-962.77 619.33,-962.77 623.17,-962.77 627,-966.61 627,-970.44 627,-970.44 627,-978.11 627,-978.11 627,-981.94 623.17,-985.77 619.33,-985.77"/>
<text text-anchor="middle" x="537" y="-970.57" font-family="Arial" font-size="14.00" fill="#ff6c60">entities/GlobalInputEntity.ts</text>
</g>
<!-- systems/RouterSystem.ts&#45;&gt;entities/GlobalInputEntity.ts -->
<g id="edge125" class="edge">
<title>systems/RouterSystem.ts&#45;&gt;entities/GlobalInputEntity.ts</title>
<path fill="none" stroke="#757575" d="M411.11,-943.79C439,-948.8 468.88,-954.85 492.42,-960.35"/>
<polygon fill="#757575" stroke="#757575" points="491.88,-963.82 502.42,-962.75 493.51,-957.02 491.88,-963.82"/>
</g>
<!-- systems/ActionSystem.ts&#45;&gt;Error.ts -->
<g id="edge91" class="edge">
<title>systems/ActionSystem.ts&#45;&gt;Error.ts</title>
<path fill="none" stroke="#757575" d="M1382.5,-1067.8C1456.37,-1102.92 1691.27,-1206.27 1897.5,-1206.27 1897.5,-1206.27 1897.5,-1206.27 2036.5,-1206.27 2131.48,-1206.27 2213.12,-1108.22 2244.39,-1065.15"/>
<polygon fill="#757575" stroke="#757575" points="2247.35,-1067.03 2250.29,-1056.85 2241.64,-1062.98 2247.35,-1067.03"/>
</g>
<!-- systems/ActionSystem.ts&#45;&gt;Component.ts -->
<g id="edge90" class="edge">
<title>systems/ActionSystem.ts&#45;&gt;Component.ts</title>
<path fill="none" stroke="#757575" d="M1390.26,-1067.85C1448.27,-1087.34 1575.21,-1120.56 1669,-1077.27 1783.22,-1024.56 1861.43,-883.48 1887.74,-830.11"/>
<polygon fill="#757575" stroke="#757575" points="1890.98,-831.46 1892.18,-820.93 1884.68,-828.42 1890.98,-831.46"/>
</g>
<!-- systems/ActionSystem.ts&#45;&gt;System.ts -->
<g id="edge92" class="edge">
<title>systems/ActionSystem.ts&#45;&gt;System.ts</title>
<path fill="none" stroke="#757575" d="M1386.76,-1044.72C1403.11,-1037.63 1424.05,-1028.06 1442,-1018.27 1458.67,-1009.19 1460.49,-1002.62 1478,-995.27 1558.32,-961.55 1604,-1009.27 1669,-951.27 1737.85,-889.85 1753.14,-771.4 1756.53,-722.84"/>
<polygon fill="#757575" stroke="#757575" points="1760.03,-723.02 1757.13,-712.83 1753.04,-722.6 1760.03,-723.02"/>
</g>
<!-- systems/ActionSystem.ts&#45;&gt;systems/LogSystem.ts -->
<g id="edge95" class="edge">
<title>systems/ActionSystem.ts&#45;&gt;systems/LogSystem.ts</title>
<path fill="none" stroke="#757575" d="M1373.01,-1044.5C1394.97,-1026.17 1439.04,-989.95 1478,-961.27 1500.46,-944.75 1526.78,-927.05 1545.93,-914.47"/>
<polygon fill="#757575" stroke="#757575" points="1547.99,-917.3 1554.45,-908.9 1544.16,-911.44 1547.99,-917.3"/>
</g>
<!-- functions/Array.ts -->
<g id="node35" class="node">
<title>functions/Array.ts</title>
<path fill="none" stroke="#cfffac" d="M1625.83,-1026.77C1625.83,-1026.77 1521.17,-1026.77 1521.17,-1026.77 1517.33,-1026.77 1513.5,-1022.94 1513.5,-1019.11 1513.5,-1019.11 1513.5,-1011.44 1513.5,-1011.44 1513.5,-1007.61 1517.33,-1003.77 1521.17,-1003.77 1521.17,-1003.77 1625.83,-1003.77 1625.83,-1003.77 1629.67,-1003.77 1633.5,-1007.61 1633.5,-1011.44 1633.5,-1011.44 1633.5,-1019.11 1633.5,-1019.11 1633.5,-1022.94 1629.67,-1026.77 1625.83,-1026.77"/>
<text text-anchor="middle" x="1573.5" y="-1011.57" font-family="Arial" font-size="14.00" fill="#cfffac">functions/Array.ts</text>
</g>
<!-- systems/ActionSystem.ts&#45;&gt;functions/Array.ts -->
<g id="edge93" class="edge">
<title>systems/ActionSystem.ts&#45;&gt;functions/Array.ts</title>
<path fill="none" stroke="#757575" d="M1419.04,-1044.74C1445.29,-1039.7 1476.24,-1033.76 1503.44,-1028.54"/>
<polygon fill="#757575" stroke="#757575" points="1504.12,-1031.97 1513.28,-1026.65 1502.8,-1025.1 1504.12,-1031.97"/>
</g>
<!-- functions/Set.ts -->
<g id="node36" class="node">
<title>functions/Set.ts</title>
<path fill="none" stroke="#cfffac" d="M1620.33,-1067.77C1620.33,-1067.77 1526.67,-1067.77 1526.67,-1067.77 1522.83,-1067.77 1519,-1063.94 1519,-1060.11 1519,-1060.11 1519,-1052.44 1519,-1052.44 1519,-1048.61 1522.83,-1044.77 1526.67,-1044.77 1526.67,-1044.77 1620.33,-1044.77 1620.33,-1044.77 1624.17,-1044.77 1628,-1048.61 1628,-1052.44 1628,-1052.44 1628,-1060.11 1628,-1060.11 1628,-1063.94 1624.17,-1067.77 1620.33,-1067.77"/>
<text text-anchor="middle" x="1573.5" y="-1052.57" font-family="Arial" font-size="14.00" fill="#cfffac">functions/Set.ts</text>
</g>
<!-- systems/ActionSystem.ts&#45;&gt;functions/Set.ts -->
<g id="edge94" class="edge">
<title>systems/ActionSystem.ts&#45;&gt;functions/Set.ts</title>
<path fill="none" stroke="#757575" d="M1442.16,-1056.27C1464.29,-1056.27 1487.85,-1056.27 1508.77,-1056.27"/>
<polygon fill="#757575" stroke="#757575" points="1508.81,-1059.77 1518.81,-1056.27 1508.81,-1052.77 1508.81,-1059.77"/>
</g>
<!-- systems/BehaviorSystem.ts&#45;&gt;Component.ts -->
<g id="edge99" class="edge">
<title>systems/BehaviorSystem.ts&#45;&gt;Component.ts</title>
<path fill="none" stroke="#757575" d="M1190.77,-1139.87C1205.84,-1144.1 1222.75,-1149.12 1238,-1154.27 1330.26,-1185.47 1354.78,-1190.94 1442,-1234.27 1458.79,-1242.62 1460.08,-1250.76 1478,-1256.27 1574.54,-1285.98 1604.02,-1264.83 1705,-1267.27 1752.54,-1268.43 1775.42,-1297.66 1812,-1267.27 1880.26,-1210.58 1894.32,-914.62 1896.94,-831.19"/>
<polygon fill="#757575" stroke="#757575" points="1900.44,-831.17 1897.24,-821.08 1893.45,-830.97 1900.44,-831.17"/>
</g>
<!-- systems/BehaviorSystem.ts&#45;&gt;units/convert.ts -->
<g id="edge103" class="edge">
<title>systems/BehaviorSystem.ts&#45;&gt;units/convert.ts</title>
<path fill="none" stroke="#757575" d="M1234.17,-1116.76C1297.01,-1113.02 1381.11,-1117.82 1442,-1158.27 1469.83,-1176.76 1449.96,-1206.1 1478,-1224.27 1542.68,-1266.19 1634.27,-1264.67 1694.74,-1257.41"/>
<polygon fill="#757575" stroke="#757575" points="1695.44,-1260.85 1704.92,-1256.1 1694.55,-1253.91 1695.44,-1260.85"/>
</g>
<!-- systems/BehaviorSystem.ts&#45;&gt;Matrix.ts -->
<g id="edge100" class="edge">
<title>systems/BehaviorSystem.ts&#45;&gt;Matrix.ts</title>
<path fill="none" stroke="#757575" d="M1160.53,-1139.85C1228.38,-1197.03 1540.52,-1449.67 1848,-1528.27 1891.49,-1539.39 1905.88,-1540.75 1949,-1528.27 1973.27,-1521.25 1997.27,-1505.06 2013.64,-1492.23"/>
<polygon fill="#757575" stroke="#757575" points="2015.9,-1494.9 2021.46,-1485.89 2011.49,-1489.46 2015.9,-1494.9"/>
</g>
<!-- systems/BehaviorSystem.ts&#45;&gt;System.ts -->
<g id="edge101" class="edge">
<title>systems/BehaviorSystem.ts&#45;&gt;System.ts</title>
<path fill="none" stroke="#757575" d="M1160.65,-1116.47C1183.06,-1097.54 1229.63,-1060.11 1274,-1036.27 1344.25,-998.54 1370.32,-1008.22 1442,-973.27 1458.85,-965.06 1460.45,-957.88 1478,-951.27 1558.63,-920.94 1601.87,-972.26 1669,-918.27 1731.26,-868.21 1750.08,-767.28 1755.46,-722.97"/>
<polygon fill="#757575" stroke="#757575" points="1758.95,-723.31 1756.56,-712.99 1751.99,-722.54 1758.95,-723.31"/>
</g>
<!-- systems/BehaviorSystem.ts&#45;&gt;systems/ActionSystem.ts -->
<g id="edge102" class="edge">
<title>systems/BehaviorSystem.ts&#45;&gt;systems/ActionSystem.ts</title>
<path fill="none" stroke="#757575" d="M1190.3,-1116.77C1205.47,-1112.51 1222.58,-1107.45 1238,-1102.27 1265.75,-1092.97 1296.55,-1081.02 1319.87,-1071.63"/>
<polygon fill="#757575" stroke="#757575" points="1321.42,-1074.78 1329.37,-1067.78 1318.79,-1068.29 1321.42,-1074.78"/>
</g>
<!-- entities/GlobalInputEntity.ts&#45;&gt;Component.ts -->
<g id="edge58" class="edge">
<title>entities/GlobalInputEntity.ts&#45;&gt;Component.ts</title>
<path fill="none" stroke="#757575" d="M592.33,-962.73C655.41,-949.43 762.6,-927.1 855,-909.27 943.25,-892.25 964.85,-884.69 1054,-873.27 1346.47,-835.83 1699,-817.75 1837.5,-811.7"/>
<polygon fill="#757575" stroke="#757575" points="1838.04,-815.18 1847.88,-811.25 1837.74,-808.18 1838.04,-815.18"/>
</g>
<!-- entities/GlobalInputEntity.ts&#45;&gt;EntityManager.ts -->
<g id="edge59" class="edge">
<title>entities/GlobalInputEntity.ts&#45;&gt;EntityManager.ts</title>
<path fill="none" stroke="#757575" d="M627.16,-968.35C690.68,-964.13 778.09,-958.34 855,-953.27 930.87,-948.28 1017.91,-942.58 1076.68,-938.74"/>
<polygon fill="#757575" stroke="#757575" points="1077.2,-942.21 1086.95,-938.07 1076.74,-935.23 1077.2,-942.21"/>
</g>
<!-- entities/GlobalInputEntity.ts&#45;&gt;constants.ts -->
<g id="edge60" class="edge">
<title>entities/GlobalInputEntity.ts&#45;&gt;constants.ts</title>
<path fill="none" stroke="#757575" d="M606.39,-985.79C632.43,-990.17 661.71,-995.1 686.2,-999.22"/>
<polygon fill="#757575" stroke="#757575" points="685.94,-1002.73 696.39,-1000.93 687.11,-995.82 685.94,-1002.73"/>
</g>
<!-- entities/GlobalInputEntity.ts&#45;&gt;systems/RouterSystem.ts -->
<g id="edge62" class="edge">
<title>entities/GlobalInputEntity.ts&#45;&gt;systems/RouterSystem.ts</title>
<path fill="none" stroke="#757575" d="M446.82,-963.93C420.22,-959.08 392.24,-953.38 369.97,-948.17"/>
<polygon fill="#757575" stroke="#757575" points="370.7,-944.75 360.16,-945.82 369.07,-951.55 370.7,-944.75"/>
</g>
<!-- entities/GlobalInputEntity.ts&#45;&gt;systems/BehaviorSystem.ts -->
<g id="edge61" class="edge">
<title>entities/GlobalInputEntity.ts&#45;&gt;systems/BehaviorSystem.ts</title>
<path fill="none" stroke="#757575" d="M563.79,-985.8C589.02,-997.03 628.56,-1014.53 663,-1029.27 747.98,-1065.67 764.99,-1088.19 855,-1109.27 916.51,-1123.68 987.22,-1128.54 1043.42,-1129.75"/>
<polygon fill="#757575" stroke="#757575" points="1043.68,-1133.25 1053.74,-1129.93 1043.8,-1126.25 1043.68,-1133.25"/>
</g>
<!-- systems/LogSystem.ts&#45;&gt;Observable.ts -->
<g id="edge113" class="edge">
<title>systems/LogSystem.ts&#45;&gt;Observable.ts</title>
<path fill="none" stroke="#757575" d="M1650.16,-898.86C1729.83,-897.23 1856.31,-885.04 1949,-830.27 1977.59,-813.38 2003.75,-784.92 2019.41,-765.86"/>
<polygon fill="#757575" stroke="#757575" points="2022.31,-767.84 2025.84,-757.85 2016.85,-763.46 2022.31,-767.84"/>
</g>
<!-- systems/LogSystem.ts&#45;&gt;System.ts -->
<g id="edge114" class="edge">
<title>systems/LogSystem.ts&#45;&gt;System.ts</title>
<path fill="none" stroke="#757575" d="M1585.4,-885.6C1615.85,-852.99 1702.04,-760.67 1739.62,-720.43"/>
<polygon fill="#757575" stroke="#757575" points="1742.39,-722.59 1746.66,-712.89 1737.27,-717.81 1742.39,-722.59"/>
</g>
<!-- systems/AnimationSystem.ts&#45;&gt;Component.ts -->
<g id="edge96" class="edge">
<title>systems/AnimationSystem.ts&#45;&gt;Component.ts</title>
<path fill="none" stroke="#757575" d="M1640.87,-444.9C1650.86,-448.48 1660.62,-453.16 1669,-459.27 1792.04,-549.07 1866.92,-726.91 1889.91,-788.05"/>
<polygon fill="#757575" stroke="#757575" points="1886.74,-789.58 1893.49,-797.75 1893.31,-787.16 1886.74,-789.58"/>
</g>
<!-- systems/AnimationSystem.ts&#45;&gt;Query.ts -->
<g id="edge97" class="edge">
<title>systems/AnimationSystem.ts&#45;&gt;Query.ts</title>
<path fill="none" stroke="#757575" d="M1593.05,-421.72C1625.39,-401.57 1692.21,-359.95 1729.96,-336.43"/>
<polygon fill="#757575" stroke="#757575" points="1732.26,-339.12 1738.9,-330.86 1728.56,-333.18 1732.26,-339.12"/>
</g>
<!-- systems/AnimationSystem.ts&#45;&gt;System.ts -->
<g id="edge98" class="edge">
<title>systems/AnimationSystem.ts&#45;&gt;System.ts</title>
<path fill="none" stroke="#757575" d="M1647.33,-444.89C1655.33,-448.51 1662.81,-453.2 1669,-459.27 1709.34,-498.88 1685.63,-528.16 1705,-581.27 1717.95,-616.79 1736.22,-656.79 1747.44,-680.46"/>
<polygon fill="#757575" stroke="#757575" points="1744.31,-682.04 1751.78,-689.55 1750.63,-679.02 1744.31,-682.04"/>
</g>
<!-- systems/CameraSystem.ts&#45;&gt;constants.ts -->
<g id="edge105" class="edge">
<title>systems/CameraSystem.ts&#45;&gt;constants.ts</title>
<path fill="none" stroke="#757575" d="M560.91,-673.88C580.77,-684.96 609.05,-703.35 627,-726.27 692.44,-809.86 724.83,-936.33 735.69,-986.59"/>
<polygon fill="#757575" stroke="#757575" points="732.32,-987.55 737.79,-996.63 739.17,-986.12 732.32,-987.55"/>
</g>
<!-- systems/CameraSystem.ts&#45;&gt;System.ts -->
<g id="edge104" class="edge">
<title>systems/CameraSystem.ts&#45;&gt;System.ts</title>
<path fill="none" stroke="#757575" d="M626.54,-662.93C788.42,-664.13 1143.02,-666.8 1442,-669.27 1542.89,-670.11 1569.52,-654.42 1669,-671.27 1686.62,-674.26 1705.46,-680.23 1721.21,-686.06"/>
<polygon fill="#757575" stroke="#757575" points="1719.98,-689.34 1730.57,-689.65 1722.49,-682.8 1719.98,-689.34"/>
</g>
<!-- systems/ClientSystem.ts&#45;&gt;NetworkedEntityClient.ts -->
<g id="edge106" class="edge">
<title>systems/ClientSystem.ts&#45;&gt;NetworkedEntityClient.ts</title>
<path fill="none" stroke="#757575" d="M345.47,-574.69C363.18,-563.51 389.95,-545.61 411,-527.27 453.81,-489.98 497.44,-439.38 520.11,-411.94"/>
<polygon fill="#757575" stroke="#757575" points="523.07,-413.85 526.7,-403.89 517.66,-409.41 523.07,-413.85"/>
</g>
<!-- systems/ClientSystem.ts&#45;&gt;constants.ts -->
<g id="edge108" class="edge">
<title>systems/ClientSystem.ts&#45;&gt;constants.ts</title>
<path fill="none" stroke="#757575" d="M339.57,-597.88C382.29,-636.02 521.18,-761.51 627,-874.27 663.48,-913.15 702.95,-961.58 724.24,-988.27"/>
<polygon fill="#757575" stroke="#757575" points="721.77,-990.79 730.73,-996.45 727.25,-986.44 721.77,-990.79"/>
</g>
<!-- systems/ClientSystem.ts&#45;&gt;System.ts -->
<g id="edge107" class="edge">
<title>systems/ClientSystem.ts&#45;&gt;System.ts</title>
<path fill="none" stroke="#757575" d="M408.12,-579.27C620.35,-563.5 1205.25,-535.59 1669,-659.27 1690.21,-664.93 1712.54,-675.56 1729.46,-684.71"/>
<polygon fill="#757575" stroke="#757575" points="1727.82,-687.81 1738.26,-689.61 1731.22,-681.69 1727.82,-687.81"/>
</g>
<!-- systems/EditorSystem.ts&#45;&gt;System.ts -->
<g id="edge109" class="edge">
<title>systems/EditorSystem.ts&#45;&gt;System.ts</title>
<path fill="none" stroke="#757575" d="M1441.03,-535.87C1507.02,-530.79 1599.82,-533.23 1669,-573.27 1710.83,-597.49 1737.42,-650.37 1749.64,-680.03"/>
<polygon fill="#757575" stroke="#757575" points="1746.43,-681.45 1753.36,-689.47 1752.95,-678.88 1746.43,-681.45"/>
</g>
<!-- systems/GameSystem.ts&#45;&gt;System.ts -->
<g id="edge110" class="edge">
<title>systems/GameSystem.ts&#45;&gt;System.ts</title>
<path fill="none" stroke="#757575" d="M410.05,-506.6C493.58,-506.89 625.68,-507.27 740,-507.27 740,-507.27 740,-507.27 1147,-507.27 1263.1,-507.27 1571.18,-466.73 1669,-529.27 1696.65,-546.95 1733.66,-637.88 1749.63,-679.92"/>
<polygon fill="#757575" stroke="#757575" points="1746.42,-681.34 1753.21,-689.48 1752.98,-678.89 1746.42,-681.34"/>
</g>
<!-- systems/InputSystem.ts&#45;&gt;Input.ts -->
<g id="edge111" class="edge">
<title>systems/InputSystem.ts&#45;&gt;Input.ts</title>
<path fill="none" stroke="#757575" d="M950.17,-712.06C985.05,-744.5 1082.73,-835.35 1125.04,-874.71"/>
<polygon fill="#757575" stroke="#757575" points="1122.79,-877.4 1132.5,-881.65 1127.56,-872.27 1122.79,-877.4"/>
</g>
<!-- systems/InputSystem.ts&#45;&gt;System.ts -->
<g id="edge112" class="edge">
<title>systems/InputSystem.ts&#45;&gt;System.ts</title>
<path fill="none" stroke="#757575" d="M1017.3,-690.18C1029.58,-688.97 1042.11,-687.94 1054,-687.27 1326.91,-672.09 1396.51,-665.85 1669,-687.27 1682.22,-688.31 1696.44,-690.21 1709.54,-692.28"/>
<polygon fill="#757575" stroke="#757575" points="1709.32,-695.79 1719.76,-693.97 1710.46,-688.89 1709.32,-695.79"/>
</g>
<!-- systems/TileSystem.ts&#45;&gt;Component.ts -->
<g id="edge127" class="edge">
<title>systems/TileSystem.ts&#45;&gt;Component.ts</title>
<path fill="none" stroke="#757575" d="M1629.29,-752.81C1687.14,-764.99 1778.05,-784.13 1837.72,-796.69"/>
<polygon fill="#757575" stroke="#757575" points="1837.24,-800.17 1847.75,-798.8 1838.69,-793.32 1837.24,-800.17"/>
</g>
<!-- systems/TileSystem.ts&#45;&gt;units/convert.ts -->
<g id="edge130" class="edge">
<title>systems/TileSystem.ts&#45;&gt;units/convert.ts</title>
<path fill="none" stroke="#757575" d="M1585.03,-753.08C1604.56,-775.59 1646.42,-826.9 1669,-877.27 1724.7,-1001.55 1748.15,-1165.73 1755.12,-1224.33"/>
<polygon fill="#757575" stroke="#757575" points="1751.68,-1225.07 1756.29,-1234.6 1758.63,-1224.27 1751.68,-1225.07"/>
</g>
<!-- systems/TileSystem.ts&#45;&gt;Query.ts -->
<g id="edge128" class="edge">
<title>systems/TileSystem.ts&#45;&gt;Query.ts</title>
<path fill="none" stroke="#757575" d="M1579.59,-729.55C1604.67,-671.7 1715.34,-416.5 1748.24,-340.62"/>
<polygon fill="#757575" stroke="#757575" points="1751.58,-341.71 1752.35,-331.15 1745.16,-338.93 1751.58,-341.71"/>
</g>
<!-- systems/TileSystem.ts&#45;&gt;System.ts -->
<g id="edge129" class="edge">
<title>systems/TileSystem.ts&#45;&gt;System.ts</title>
<path fill="none" stroke="#757575" d="M1627.43,-729.7C1653.41,-724.03 1684.46,-717.24 1709.71,-711.72"/>
<polygon fill="#757575" stroke="#757575" points="1710.77,-715.07 1719.79,-709.52 1709.27,-708.23 1710.77,-715.07"/>
</g>
</g>
</svg>
