<?xml version="1.0" encoding="UTF-8" standalone="no"?>
<!DOCTYPE svg PUBLIC "-//W3C//DTD SVG 1.1//EN"
 "http://www.w3.org/Graphics/SVG/1.1/DTD/svg11.dtd">
<!-- Generated by graphviz version 2.43.0 (0)
 -->
<!-- Title: G Pages: 1 -->
<svg width="508pt" height="66pt"
 viewBox="0.00 0.00 508.20 66.20" xmlns="http://www.w3.org/2000/svg" xmlns:xlink="http://www.w3.org/1999/xlink">
<g id="graph0" class="graph" transform="scale(1 1) rotate(0) translate(21.6 44.6)">
<title>G</title>
<polygon fill="#111111" stroke="transparent" points="-21.6,21.6 -21.6,-44.6 486.6,-44.6 486.6,21.6 -21.6,21.6"/>
<!-- Component.ts -->
<g id="node1" class="node">
<title>Component.ts</title>
<path fill="none" stroke="#c6c5fe" d="M361.33,-23C361.33,-23 275.67,-23 275.67,-23 271.83,-23 268,-19.17 268,-15.33 268,-15.33 268,-7.67 268,-7.67 268,-3.83 271.83,0 275.67,0 275.67,0 361.33,0 361.33,0 365.17,0 369,-3.83 369,-7.67 369,-7.67 369,-15.33 369,-15.33 369,-19.17 365.17,-23 361.33,-23"/>
<text text-anchor="middle" x="318.5" y="-7.8" font-family="Arial" font-size="14.00" fill="#c6c5fe">Component.ts</text>
</g>
<!-- Error.ts -->
<g id="node2" class="node">
<title>Error.ts</title>
<path fill="none" stroke="#cfffac" d="M457.33,-23C457.33,-23 412.67,-23 412.67,-23 408.83,-23 405,-19.17 405,-15.33 405,-15.33 405,-7.67 405,-7.67 405,-3.83 408.83,0 412.67,0 412.67,0 457.33,0 457.33,0 461.17,0 465,-3.83 465,-7.67 465,-7.67 465,-15.33 465,-15.33 465,-19.17 461.17,-23 457.33,-23"/>
<text text-anchor="middle" x="435" y="-7.8" font-family="Arial" font-size="14.00" fill="#cfffac">Error.ts</text>
</g>
<!-- Component.ts&#45;&gt;Error.ts -->
<g id="edge1" class="edge">
<title>Component.ts&#45;&gt;Error.ts</title>
<path fill="none" stroke="#757575" d="M369.06,-11.5C377.64,-11.5 386.46,-11.5 394.72,-11.5"/>
<polygon fill="#757575" stroke="#757575" points="394.83,-15 404.83,-11.5 394.83,-8 394.83,-15"/>
</g>
<!-- functions/Server.ts -->
<g id="node3" class="node">
<title>functions/Server.ts</title>
<path fill="none" stroke="#c6c5fe" d="M224.33,-23C224.33,-23 111.67,-23 111.67,-23 107.83,-23 104,-19.17 104,-15.33 104,-15.33 104,-7.67 104,-7.67 104,-3.83 107.83,0 111.67,0 111.67,0 224.33,0 224.33,0 228.17,0 232,-3.83 232,-7.67 232,-7.67 232,-15.33 232,-15.33 232,-19.17 228.17,-23 224.33,-23"/>
<text text-anchor="middle" x="168" y="-7.8" font-family="Arial" font-size="14.00" fill="#c6c5fe">functions/Server.ts</text>
</g>
<!-- functions/Server.ts&#45;&gt;Component.ts -->
<g id="edge2" class="edge">
<title>functions/Server.ts&#45;&gt;Component.ts</title>
<path fill="none" stroke="#757575" d="M232.41,-11.5C240.81,-11.5 249.41,-11.5 257.75,-11.5"/>
<polygon fill="#757575" stroke="#757575" points="257.77,-15 267.77,-11.5 257.77,-8 257.77,-15"/>
</g>
<!-- server.ts -->
<g id="node4" class="node">
<title>server.ts</title>
<path fill="none" stroke="#c6c5fe" d="M60.33,-23C60.33,-23 7.67,-23 7.67,-23 3.83,-23 0,-19.17 0,-15.33 0,-15.33 0,-7.67 0,-7.67 0,-3.83 3.83,0 7.67,0 7.67,0 60.33,0 60.33,0 64.17,0 68,-3.83 68,-7.67 68,-7.67 68,-15.33 68,-15.33 68,-19.17 64.17,-23 60.33,-23"/>
<text text-anchor="middle" x="34" y="-7.8" font-family="Arial" font-size="14.00" fill="#c6c5fe">server.ts</text>
</g>
<!-- server.ts&#45;&gt;functions/Server.ts -->
<g id="edge3" class="edge">
<title>server.ts&#45;&gt;functions/Server.ts</title>
<path fill="none" stroke="#757575" d="M68.31,-11.5C76.19,-11.5 84.9,-11.5 93.79,-11.5"/>
<polygon fill="#757575" stroke="#757575" points="93.86,-15 103.86,-11.5 93.86,-8 93.86,-15"/>
</g>
</g>
</svg>
