<?xml version="1.0" encoding="UTF-8" standalone="no"?>
<!DOCTYPE svg PUBLIC "-//W3C//DTD SVG 1.1//EN"
 "http://www.w3.org/Graphics/SVG/1.1/DTD/svg11.dtd">
<!-- Generated by graphviz version 2.43.0 (0)
 -->
<!-- Title: G Pages: 1 -->
<svg width="3060pt" height="1657pt"
 viewBox="0.00 0.00 3060.20 1656.59" xmlns="http://www.w3.org/2000/svg" xmlns:xlink="http://www.w3.org/1999/xlink">
<g id="graph0" class="graph" transform="scale(1 1) rotate(0) translate(21.6 1634.99)">
<title>G</title>
<polygon fill="#111111" stroke="transparent" points="-21.6,21.6 -21.6,-1634.99 3038.6,-1634.99 3038.6,21.6 -21.6,21.6"/>
<!-- ../Action.ts -->
<g id="node1" class="node">
<title>../Action.ts</title>
<path fill="none" stroke="#c6c5fe" d="M1959.33,-937.5C1959.33,-937.5 1894.67,-937.5 1894.67,-937.5 1890.83,-937.5 1887,-933.67 1887,-929.83 1887,-929.83 1887,-922.17 1887,-922.17 1887,-918.33 1890.83,-914.5 1894.67,-914.5 1894.67,-914.5 1959.33,-914.5 1959.33,-914.5 1963.17,-914.5 1967,-918.33 1967,-922.17 1967,-922.17 1967,-929.83 1967,-929.83 1967,-933.67 1963.17,-937.5 1959.33,-937.5"/>
<text text-anchor="middle" x="1927" y="-922.3" font-family="Arial" font-size="14.00" fill="#c6c5fe">../Action.ts</text>
</g>
<!-- ../Component.ts -->
<g id="node2" class="node">
<title>../Component.ts</title>
<path fill="none" stroke="#c6c5fe" d="M2362.33,-823.5C2362.33,-823.5 2264.67,-823.5 2264.67,-823.5 2260.83,-823.5 2257,-819.67 2257,-815.83 2257,-815.83 2257,-808.17 2257,-808.17 2257,-804.33 2260.83,-800.5 2264.67,-800.5 2264.67,-800.5 2362.33,-800.5 2362.33,-800.5 2366.17,-800.5 2370,-804.33 2370,-808.17 2370,-808.17 2370,-815.83 2370,-815.83 2370,-819.67 2366.17,-823.5 2362.33,-823.5"/>
<text text-anchor="middle" x="2313.5" y="-808.3" font-family="Arial" font-size="14.00" fill="#c6c5fe">../Component.ts</text>
</g>
<!-- ../Action.ts&#45;&gt;../Component.ts -->
<g id="edge1" class="edge">
<title>../Action.ts&#45;&gt;../Component.ts</title>
<path fill="none" stroke="#757575" d="M1967.17,-917.31C2014.26,-906.56 2095.52,-887.1 2164,-866 2201.8,-854.35 2244.14,-838.69 2273.9,-827.24"/>
<polygon fill="#757575" stroke="#757575" points="2275.43,-830.4 2283.49,-823.53 2272.9,-823.87 2275.43,-830.4"/>
</g>
<!-- ../Debug.ts -->
<g id="node4" class="node">
<title>../Debug.ts</title>
<path fill="none" stroke="#c6c5fe" d="M2902.33,-653.5C2902.33,-653.5 2835.67,-653.5 2835.67,-653.5 2831.83,-653.5 2828,-649.67 2828,-645.83 2828,-645.83 2828,-638.17 2828,-638.17 2828,-634.33 2831.83,-630.5 2835.67,-630.5 2835.67,-630.5 2902.33,-630.5 2902.33,-630.5 2906.17,-630.5 2910,-634.33 2910,-638.17 2910,-638.17 2910,-645.83 2910,-645.83 2910,-649.67 2906.17,-653.5 2902.33,-653.5"/>
<text text-anchor="middle" x="2869" y="-638.3" font-family="Arial" font-size="14.00" fill="#c6c5fe">../Debug.ts</text>
</g>
<!-- ../Component.ts&#45;&gt;../Debug.ts -->
<g id="edge2" class="edge">
<title>../Component.ts&#45;&gt;../Debug.ts</title>
<path fill="none" stroke="#757575" d="M2370.28,-811.62C2463.2,-808.77 2653.18,-793.43 2792,-719 2817.89,-705.12 2840.51,-679.46 2854.2,-661.59"/>
<polygon fill="#757575" stroke="#757575" points="2857.03,-663.65 2860.17,-653.53 2851.41,-659.48 2857.03,-663.65"/>
</g>
<!-- ../Entity.ts -->
<g id="node5" class="node">
<title>../Entity.ts</title>
<path fill="none" stroke="#cfffac" d="M2545.83,-994.5C2545.83,-994.5 2486.17,-994.5 2486.17,-994.5 2482.33,-994.5 2478.5,-990.67 2478.5,-986.83 2478.5,-986.83 2478.5,-979.17 2478.5,-979.17 2478.5,-975.33 2482.33,-971.5 2486.17,-971.5 2486.17,-971.5 2545.83,-971.5 2545.83,-971.5 2549.67,-971.5 2553.5,-975.33 2553.5,-979.17 2553.5,-979.17 2553.5,-986.83 2553.5,-986.83 2553.5,-990.67 2549.67,-994.5 2545.83,-994.5"/>
<text text-anchor="middle" x="2516" y="-979.3" font-family="Arial" font-size="14.00" fill="#cfffac">../Entity.ts</text>
</g>
<!-- ../Component.ts&#45;&gt;../Entity.ts -->
<g id="edge3" class="edge">
<title>../Component.ts&#45;&gt;../Entity.ts</title>
<path fill="none" stroke="#757575" d="M2328.28,-823.75C2362.63,-853.05 2452.25,-929.49 2493.57,-964.72"/>
<polygon fill="#757575" stroke="#757575" points="2491.51,-967.56 2501.39,-971.39 2496.05,-962.24 2491.51,-967.56"/>
</g>
<!-- ../Error.ts -->
<g id="node6" class="node">
<title>../Error.ts</title>
<path fill="none" stroke="#cfffac" d="M3009.33,-434.5C3009.33,-434.5 2953.67,-434.5 2953.67,-434.5 2949.83,-434.5 2946,-430.67 2946,-426.83 2946,-426.83 2946,-419.17 2946,-419.17 2946,-415.33 2949.83,-411.5 2953.67,-411.5 2953.67,-411.5 3009.33,-411.5 3009.33,-411.5 3013.17,-411.5 3017,-415.33 3017,-419.17 3017,-419.17 3017,-426.83 3017,-426.83 3017,-430.67 3013.17,-434.5 3009.33,-434.5"/>
<text text-anchor="middle" x="2981.5" y="-419.3" font-family="Arial" font-size="14.00" fill="#cfffac">../Error.ts</text>
</g>
<!-- ../Component.ts&#45;&gt;../Error.ts -->
<g id="edge4" class="edge">
<title>../Component.ts&#45;&gt;../Error.ts</title>
<path fill="none" stroke="#757575" d="M2319.42,-800.5C2335.06,-765.31 2387.08,-658.05 2463,-601 2540.8,-542.54 2825.46,-463.66 2936.1,-434.48"/>
<polygon fill="#757575" stroke="#757575" points="2937.16,-437.82 2945.94,-431.89 2935.38,-431.05 2937.16,-437.82"/>
</g>
<!-- ../Observable.ts -->
<g id="node7" class="node">
<title>../Observable.ts</title>
<path fill="none" stroke="#c6c5fe" d="M2746.83,-710.5C2746.83,-710.5 2650.17,-710.5 2650.17,-710.5 2646.33,-710.5 2642.5,-706.67 2642.5,-702.83 2642.5,-702.83 2642.5,-695.17 2642.5,-695.17 2642.5,-691.33 2646.33,-687.5 2650.17,-687.5 2650.17,-687.5 2746.83,-687.5 2746.83,-687.5 2750.67,-687.5 2754.5,-691.33 2754.5,-695.17 2754.5,-695.17 2754.5,-702.83 2754.5,-702.83 2754.5,-706.67 2750.67,-710.5 2746.83,-710.5"/>
<text text-anchor="middle" x="2698.5" y="-695.3" font-family="Arial" font-size="14.00" fill="#c6c5fe">../Observable.ts</text>
</g>
<!-- ../Component.ts&#45;&gt;../Observable.ts -->
<g id="edge5" class="edge">
<title>../Component.ts&#45;&gt;../Observable.ts</title>
<path fill="none" stroke="#757575" d="M2346.76,-800.49C2376.71,-789.96 2422.64,-774.2 2463,-762 2523.46,-743.72 2593.49,-725.25 2641.16,-713.08"/>
<polygon fill="#757575" stroke="#757575" points="2642.16,-716.44 2650.98,-710.59 2640.43,-709.66 2642.16,-716.44"/>
</g>
<!-- ../Animation.ts -->
<g id="node3" class="node">
<title>../Animation.ts</title>
<path fill="none" stroke="#cfffac" d="M1540.33,-473.5C1540.33,-473.5 1452.67,-473.5 1452.67,-473.5 1448.83,-473.5 1445,-469.67 1445,-465.83 1445,-465.83 1445,-458.17 1445,-458.17 1445,-454.33 1448.83,-450.5 1452.67,-450.5 1452.67,-450.5 1540.33,-450.5 1540.33,-450.5 1544.17,-450.5 1548,-454.33 1548,-458.17 1548,-458.17 1548,-465.83 1548,-465.83 1548,-469.67 1544.17,-473.5 1540.33,-473.5"/>
<text text-anchor="middle" x="1496.5" y="-458.3" font-family="Arial" font-size="14.00" fill="#cfffac">../Animation.ts</text>
</g>
<!-- ../Debug.ts&#45;&gt;../Error.ts -->
<g id="edge6" class="edge">
<title>../Debug.ts&#45;&gt;../Error.ts</title>
<path fill="none" stroke="#757575" d="M2875.94,-630.23C2893.82,-594.79 2947.29,-488.82 2970.05,-443.7"/>
<polygon fill="#757575" stroke="#757575" points="2973.28,-445.07 2974.66,-434.57 2967.03,-441.92 2973.28,-445.07"/>
</g>
<!-- ../Observable.ts&#45;&gt;../Debug.ts -->
<g id="edge27" class="edge">
<title>../Observable.ts&#45;&gt;../Debug.ts</title>
<path fill="none" stroke="#757575" d="M2733.6,-687.47C2759.75,-678.62 2796.04,-666.34 2824.31,-656.78"/>
<polygon fill="#757575" stroke="#757575" points="2825.6,-660.04 2833.95,-653.52 2823.36,-653.41 2825.6,-660.04"/>
</g>
<!-- ../EntityManager.ts -->
<g id="node8" class="node">
<title>../EntityManager.ts</title>
<path fill="none" stroke="#c6c5fe" d="M1553.33,-1146.5C1553.33,-1146.5 1439.67,-1146.5 1439.67,-1146.5 1435.83,-1146.5 1432,-1142.67 1432,-1138.83 1432,-1138.83 1432,-1131.17 1432,-1131.17 1432,-1127.33 1435.83,-1123.5 1439.67,-1123.5 1439.67,-1123.5 1553.33,-1123.5 1553.33,-1123.5 1557.17,-1123.5 1561,-1127.33 1561,-1131.17 1561,-1131.17 1561,-1138.83 1561,-1138.83 1561,-1142.67 1557.17,-1146.5 1553.33,-1146.5"/>
<text text-anchor="middle" x="1496.5" y="-1131.3" font-family="Arial" font-size="14.00" fill="#c6c5fe">../EntityManager.ts</text>
</g>
<!-- ../EntityManager.ts&#45;&gt;../Component.ts -->
<g id="edge7" class="edge">
<title>../EntityManager.ts&#45;&gt;../Component.ts</title>
<path fill="none" stroke="#757575" d="M1561.23,-1134.18C1718.17,-1131.68 2114.17,-1122.21 2164,-1090 2258.15,-1029.14 2296.72,-887.63 2308.36,-833.55"/>
<polygon fill="#757575" stroke="#757575" points="2311.81,-834.17 2310.4,-823.67 2304.95,-832.76 2311.81,-834.17"/>
</g>
<!-- ../EntityManager.ts&#45;&gt;../Entity.ts -->
<g id="edge8" class="edge">
<title>../EntityManager.ts&#45;&gt;../Entity.ts</title>
<path fill="none" stroke="#757575" d="M1513.61,-1146.7C1537.57,-1163.3 1584.65,-1192.9 1630,-1204 1707.27,-1222.91 1730.03,-1213.64 1809,-1204 2076.42,-1171.35 2379.61,-1043.83 2480.4,-998.83"/>
<polygon fill="#757575" stroke="#757575" points="2482.1,-1001.9 2489.79,-994.61 2479.23,-995.52 2482.1,-1001.9"/>
</g>
<!-- ../EntityManager.ts&#45;&gt;../Error.ts -->
<g id="edge9" class="edge">
<title>../EntityManager.ts&#45;&gt;../Error.ts</title>
<path fill="none" stroke="#757575" d="M1510.76,-1146.57C1533.51,-1165.77 1582.17,-1204.07 1630,-1224 1915.59,-1342.99 2003.12,-1361 2312.5,-1361 2312.5,-1361 2312.5,-1361 2699.5,-1361 2741.56,-1361 2762.41,-1370.9 2792,-1341 2923.79,-1207.83 2971.02,-571.27 2979.17,-444.86"/>
<polygon fill="#757575" stroke="#757575" points="2982.68,-444.74 2979.82,-434.54 2975.7,-444.3 2982.68,-444.74"/>
</g>
<!-- ../EntityManager.ts&#45;&gt;../Observable.ts -->
<g id="edge10" class="edge">
<title>../EntityManager.ts&#45;&gt;../Observable.ts</title>
<path fill="none" stroke="#757575" d="M1552,-1146.53C1633.12,-1162.66 1790.62,-1190 1926,-1190 1926,-1190 1926,-1190 2314.5,-1190 2556.28,-1190 2667.92,-815.27 2692.28,-720.55"/>
<polygon fill="#757575" stroke="#757575" points="2695.72,-721.2 2694.76,-710.65 2688.93,-719.5 2695.72,-721.2"/>
</g>
<!-- ../HeadingDirection.ts -->
<g id="node9" class="node">
<title>../HeadingDirection.ts</title>
<path fill="none" stroke="#c6c5fe" d="M1328.33,-85.5C1328.33,-85.5 1197.67,-85.5 1197.67,-85.5 1193.83,-85.5 1190,-81.67 1190,-77.83 1190,-77.83 1190,-70.17 1190,-70.17 1190,-66.33 1193.83,-62.5 1197.67,-62.5 1197.67,-62.5 1328.33,-62.5 1328.33,-62.5 1332.17,-62.5 1336,-66.33 1336,-70.17 1336,-70.17 1336,-77.83 1336,-77.83 1336,-81.67 1332.17,-85.5 1328.33,-85.5"/>
<text text-anchor="middle" x="1263" y="-70.3" font-family="Arial" font-size="14.00" fill="#c6c5fe">../HeadingDirection.ts</text>
</g>
<!-- ../HeadingDirection.ts&#45;&gt;../Error.ts -->
<g id="edge11" class="edge">
<title>../HeadingDirection.ts&#45;&gt;../Error.ts</title>
<path fill="none" stroke="#757575" d="M1336.28,-64.73C1425.83,-54.06 1583.15,-38 1718.5,-38 1718.5,-38 1718.5,-38 2699.5,-38 2880.88,-38 2957.66,-320.24 2975.99,-401.41"/>
<polygon fill="#757575" stroke="#757575" points="2972.64,-402.46 2978.2,-411.48 2979.48,-400.96 2972.64,-402.46"/>
</g>
<!-- ../units/convert.ts -->
<g id="node10" class="node">
<title>../units/convert.ts</title>
<path fill="none" stroke="#cfffac" d="M2156.33,-201.5C2156.33,-201.5 2052.67,-201.5 2052.67,-201.5 2048.83,-201.5 2045,-197.67 2045,-193.83 2045,-193.83 2045,-186.17 2045,-186.17 2045,-182.33 2048.83,-178.5 2052.67,-178.5 2052.67,-178.5 2156.33,-178.5 2156.33,-178.5 2160.17,-178.5 2164,-182.33 2164,-186.17 2164,-186.17 2164,-193.83 2164,-193.83 2164,-197.67 2160.17,-201.5 2156.33,-201.5"/>
<text text-anchor="middle" x="2104.5" y="-186.3" font-family="Arial" font-size="14.00" fill="#cfffac">../units/convert.ts</text>
</g>
<!-- ../HeadingDirection.ts&#45;&gt;../units/convert.ts -->
<g id="edge12" class="edge">
<title>../HeadingDirection.ts&#45;&gt;../units/convert.ts</title>
<path fill="none" stroke="#757575" d="M1336.09,-70.09C1498.7,-62.3 1889.17,-49.63 2009,-100 2043.88,-114.66 2073.46,-148.49 2089.82,-170.24"/>
<polygon fill="#757575" stroke="#757575" points="2087.09,-172.44 2095.81,-178.46 2092.75,-168.32 2087.09,-172.44"/>
</g>
<!-- ../Input.ts -->
<g id="node11" class="node">
<title>../Input.ts</title>
<path fill="none" stroke="#cfffac" d="M1291.33,-1087.5C1291.33,-1087.5 1234.67,-1087.5 1234.67,-1087.5 1230.83,-1087.5 1227,-1083.67 1227,-1079.83 1227,-1079.83 1227,-1072.17 1227,-1072.17 1227,-1068.33 1230.83,-1064.5 1234.67,-1064.5 1234.67,-1064.5 1291.33,-1064.5 1291.33,-1064.5 1295.17,-1064.5 1299,-1068.33 1299,-1072.17 1299,-1072.17 1299,-1079.83 1299,-1079.83 1299,-1083.67 1295.17,-1087.5 1291.33,-1087.5"/>
<text text-anchor="middle" x="1263" y="-1072.3" font-family="Arial" font-size="14.00" fill="#cfffac">../Input.ts</text>
</g>
<!-- ../Log.ts -->
<g id="node12" class="node">
<title>../Log.ts</title>
<path fill="none" stroke="#c6c5fe" d="M2540.83,-1312.5C2540.83,-1312.5 2491.17,-1312.5 2491.17,-1312.5 2487.33,-1312.5 2483.5,-1308.67 2483.5,-1304.83 2483.5,-1304.83 2483.5,-1297.17 2483.5,-1297.17 2483.5,-1293.33 2487.33,-1289.5 2491.17,-1289.5 2491.17,-1289.5 2540.83,-1289.5 2540.83,-1289.5 2544.67,-1289.5 2548.5,-1293.33 2548.5,-1297.17 2548.5,-1297.17 2548.5,-1304.83 2548.5,-1304.83 2548.5,-1308.67 2544.67,-1312.5 2540.83,-1312.5"/>
<text text-anchor="middle" x="2516" y="-1297.3" font-family="Arial" font-size="14.00" fill="#c6c5fe">../Log.ts</text>
</g>
<!-- ../Log.ts&#45;&gt;../Observable.ts -->
<g id="edge13" class="edge">
<title>../Log.ts&#45;&gt;../Observable.ts</title>
<path fill="none" stroke="#757575" d="M2548.54,-1290.74C2556.21,-1286.9 2563.72,-1281.76 2569,-1275 2604.42,-1229.67 2676.59,-820.58 2693.77,-720.85"/>
<polygon fill="#757575" stroke="#757575" points="2697.22,-721.42 2695.46,-710.97 2690.32,-720.24 2697.22,-721.42"/>
</g>
<!-- ../collections/InstanceMap.ts -->
<g id="node13" class="node">
<title>../collections/InstanceMap.ts</title>
<path fill="none" stroke="#cfffac" d="M2784.33,-1332.5C2784.33,-1332.5 2612.67,-1332.5 2612.67,-1332.5 2608.83,-1332.5 2605,-1328.67 2605,-1324.83 2605,-1324.83 2605,-1317.17 2605,-1317.17 2605,-1313.33 2608.83,-1309.5 2612.67,-1309.5 2612.67,-1309.5 2784.33,-1309.5 2784.33,-1309.5 2788.17,-1309.5 2792,-1313.33 2792,-1317.17 2792,-1317.17 2792,-1324.83 2792,-1324.83 2792,-1328.67 2788.17,-1332.5 2784.33,-1332.5"/>
<text text-anchor="middle" x="2698.5" y="-1317.3" font-family="Arial" font-size="14.00" fill="#cfffac">../collections/InstanceMap.ts</text>
</g>
<!-- ../Log.ts&#45;&gt;../collections/InstanceMap.ts -->
<g id="edge14" class="edge">
<title>../Log.ts&#45;&gt;../collections/InstanceMap.ts</title>
<path fill="none" stroke="#757575" d="M2548.85,-1304.53C2561.93,-1305.98 2577.87,-1307.74 2594.4,-1309.58"/>
<polygon fill="#757575" stroke="#757575" points="2594.42,-1313.1 2604.74,-1310.72 2595.19,-1306.14 2594.42,-1313.1"/>
</g>
<!-- ../functions/Array.ts -->
<g id="node14" class="node">
<title>../functions/Array.ts</title>
<path fill="none" stroke="#cfffac" d="M2756.33,-1291.5C2756.33,-1291.5 2640.67,-1291.5 2640.67,-1291.5 2636.83,-1291.5 2633,-1287.67 2633,-1283.83 2633,-1283.83 2633,-1276.17 2633,-1276.17 2633,-1272.33 2636.83,-1268.5 2640.67,-1268.5 2640.67,-1268.5 2756.33,-1268.5 2756.33,-1268.5 2760.17,-1268.5 2764,-1272.33 2764,-1276.17 2764,-1276.17 2764,-1283.83 2764,-1283.83 2764,-1287.67 2760.17,-1291.5 2756.33,-1291.5"/>
<text text-anchor="middle" x="2698.5" y="-1276.3" font-family="Arial" font-size="14.00" fill="#cfffac">../functions/Array.ts</text>
</g>
<!-- ../Log.ts&#45;&gt;../functions/Array.ts -->
<g id="edge15" class="edge">
<title>../Log.ts&#45;&gt;../functions/Array.ts</title>
<path fill="none" stroke="#757575" d="M2548.85,-1297.29C2569.31,-1294.91 2596.79,-1291.72 2622.56,-1288.72"/>
<polygon fill="#757575" stroke="#757575" points="2623.18,-1292.17 2632.7,-1287.54 2622.37,-1285.22 2623.18,-1292.17"/>
</g>
<!-- ../functions/Map.ts -->
<g id="node15" class="node">
<title>../functions/Map.ts</title>
<path fill="none" stroke="#cfffac" d="M2754.33,-1250.5C2754.33,-1250.5 2642.67,-1250.5 2642.67,-1250.5 2638.83,-1250.5 2635,-1246.67 2635,-1242.83 2635,-1242.83 2635,-1235.17 2635,-1235.17 2635,-1231.33 2638.83,-1227.5 2642.67,-1227.5 2642.67,-1227.5 2754.33,-1227.5 2754.33,-1227.5 2758.17,-1227.5 2762,-1231.33 2762,-1235.17 2762,-1235.17 2762,-1242.83 2762,-1242.83 2762,-1246.67 2758.17,-1250.5 2754.33,-1250.5"/>
<text text-anchor="middle" x="2698.5" y="-1235.3" font-family="Arial" font-size="14.00" fill="#cfffac">../functions/Map.ts</text>
</g>
<!-- ../Log.ts&#45;&gt;../functions/Map.ts -->
<g id="edge16" class="edge">
<title>../Log.ts&#45;&gt;../functions/Map.ts</title>
<path fill="none" stroke="#757575" d="M2540.38,-1289.49C2564.16,-1277.85 2598.43,-1261.24 2605,-1259 2611.37,-1256.82 2618.08,-1254.83 2624.84,-1253.02"/>
<polygon fill="#757575" stroke="#757575" points="2625.93,-1256.35 2634.76,-1250.5 2624.21,-1249.57 2625.93,-1256.35"/>
</g>
<!-- ../functions/Set.ts -->
<g id="node16" class="node">
<title>../functions/Set.ts</title>
<path fill="none" stroke="#cfffac" d="M2750.83,-1209.5C2750.83,-1209.5 2646.17,-1209.5 2646.17,-1209.5 2642.33,-1209.5 2638.5,-1205.67 2638.5,-1201.83 2638.5,-1201.83 2638.5,-1194.17 2638.5,-1194.17 2638.5,-1190.33 2642.33,-1186.5 2646.17,-1186.5 2646.17,-1186.5 2750.83,-1186.5 2750.83,-1186.5 2754.67,-1186.5 2758.5,-1190.33 2758.5,-1194.17 2758.5,-1194.17 2758.5,-1201.83 2758.5,-1201.83 2758.5,-1205.67 2754.67,-1209.5 2750.83,-1209.5"/>
<text text-anchor="middle" x="2698.5" y="-1194.3" font-family="Arial" font-size="14.00" fill="#cfffac">../functions/Set.ts</text>
</g>
<!-- ../Log.ts&#45;&gt;../functions/Set.ts -->
<g id="edge17" class="edge">
<title>../Log.ts&#45;&gt;../functions/Set.ts</title>
<path fill="none" stroke="#757575" d="M2547.09,-1289.4C2554.77,-1285.56 2562.64,-1280.76 2569,-1275 2591.22,-1254.89 2580.44,-1235.17 2605,-1218 2612.14,-1213.01 2620.29,-1209.22 2628.73,-1206.36"/>
<polygon fill="#757575" stroke="#757575" points="2629.75,-1209.71 2638.34,-1203.51 2627.76,-1203 2629.75,-1209.71"/>
</g>
<!-- ../Matrix.ts -->
<g id="node17" class="node">
<title>../Matrix.ts</title>
<path fill="none" stroke="#c6c5fe" d="M2136.83,-436.5C2136.83,-436.5 2072.17,-436.5 2072.17,-436.5 2068.33,-436.5 2064.5,-432.67 2064.5,-428.83 2064.5,-428.83 2064.5,-421.17 2064.5,-421.17 2064.5,-417.33 2068.33,-413.5 2072.17,-413.5 2072.17,-413.5 2136.83,-413.5 2136.83,-413.5 2140.67,-413.5 2144.5,-417.33 2144.5,-421.17 2144.5,-421.17 2144.5,-428.83 2144.5,-428.83 2144.5,-432.67 2140.67,-436.5 2136.83,-436.5"/>
<text text-anchor="middle" x="2104.5" y="-421.3" font-family="Arial" font-size="14.00" fill="#c6c5fe">../Matrix.ts</text>
</g>
<!-- ../Matrix.ts&#45;&gt;../Error.ts -->
<g id="edge18" class="edge">
<title>../Matrix.ts&#45;&gt;../Error.ts</title>
<path fill="none" stroke="#757575" d="M2144.74,-424.68C2217.67,-424.12 2379.03,-423 2515,-423 2515,-423 2515,-423 2699.5,-423 2782.91,-423 2880.25,-423 2935.71,-423"/>
<polygon fill="#757575" stroke="#757575" points="2935.89,-426.5 2945.89,-423 2935.89,-419.5 2935.89,-426.5"/>
</g>
<!-- ../collections/SecretlyWritableSet.ts -->
<g id="node18" class="node">
<title>../collections/SecretlyWritableSet.ts</title>
<path fill="none" stroke="#cfffac" d="M2419.33,-474.5C2419.33,-474.5 2207.67,-474.5 2207.67,-474.5 2203.83,-474.5 2200,-470.67 2200,-466.83 2200,-466.83 2200,-459.17 2200,-459.17 2200,-455.33 2203.83,-451.5 2207.67,-451.5 2207.67,-451.5 2419.33,-451.5 2419.33,-451.5 2423.17,-451.5 2427,-455.33 2427,-459.17 2427,-459.17 2427,-466.83 2427,-466.83 2427,-470.67 2423.17,-474.5 2419.33,-474.5"/>
<text text-anchor="middle" x="2313.5" y="-459.3" font-family="Arial" font-size="14.00" fill="#cfffac">../collections/SecretlyWritableSet.ts</text>
</g>
<!-- ../Matrix.ts&#45;&gt;../collections/SecretlyWritableSet.ts -->
<g id="edge19" class="edge">
<title>../Matrix.ts&#45;&gt;../collections/SecretlyWritableSet.ts</title>
<path fill="none" stroke="#757575" d="M2144.92,-432.24C2171.6,-437.13 2207.63,-443.75 2239.45,-449.59"/>
<polygon fill="#757575" stroke="#757575" points="2239.15,-453.09 2249.62,-451.46 2240.41,-446.21 2239.15,-453.09"/>
</g>
<!-- ../Message.ts -->
<g id="node19" class="node">
<title>../Message.ts</title>
<path fill="none" stroke="#c6c5fe" d="M1760.83,-560.5C1760.83,-560.5 1678.17,-560.5 1678.17,-560.5 1674.33,-560.5 1670.5,-556.67 1670.5,-552.83 1670.5,-552.83 1670.5,-545.17 1670.5,-545.17 1670.5,-541.33 1674.33,-537.5 1678.17,-537.5 1678.17,-537.5 1760.83,-537.5 1760.83,-537.5 1764.67,-537.5 1768.5,-541.33 1768.5,-545.17 1768.5,-545.17 1768.5,-552.83 1768.5,-552.83 1768.5,-556.67 1764.67,-560.5 1760.83,-560.5"/>
<text text-anchor="middle" x="1719.5" y="-545.3" font-family="Arial" font-size="14.00" fill="#c6c5fe">../Message.ts</text>
</g>
<!-- ../Message.ts&#45;&gt;../Component.ts -->
<g id="edge20" class="edge">
<title>../Message.ts&#45;&gt;../Component.ts</title>
<path fill="none" stroke="#757575" d="M1745.67,-560.63C1763.59,-569.12 1788.09,-581.17 1809,-593 1825.52,-602.35 1827.41,-608.85 1845,-616 1979.11,-670.54 2034.37,-617.52 2164,-682 2219.85,-709.78 2271.35,-763.78 2296.46,-792.67"/>
<polygon fill="#757575" stroke="#757575" points="2293.94,-795.11 2303.1,-800.44 2299.26,-790.56 2293.94,-795.11"/>
</g>
<!-- ../Message.ts&#45;&gt;../Error.ts -->
<g id="edge21" class="edge">
<title>../Message.ts&#45;&gt;../Error.ts</title>
<path fill="none" stroke="#757575" d="M1730.7,-537.43C1750.64,-515.44 1797.05,-467.27 1845,-439 1950.05,-377.06 1981.55,-347 2103.5,-347 2103.5,-347 2103.5,-347 2699.5,-347 2793.66,-347 2822.37,-336.55 2910,-371 2929.22,-378.56 2947.89,-392.73 2961.18,-404.37"/>
<polygon fill="#757575" stroke="#757575" points="2958.97,-407.09 2968.72,-411.21 2963.67,-401.9 2958.97,-407.09"/>
</g>
<!-- ../systems/TileSystem.ts -->
<g id="node20" class="node">
<title>../systems/TileSystem.ts</title>
<path fill="none" stroke="#c6c5fe" d="M2001.33,-471.5C2001.33,-471.5 1852.67,-471.5 1852.67,-471.5 1848.83,-471.5 1845,-467.67 1845,-463.83 1845,-463.83 1845,-456.17 1845,-456.17 1845,-452.33 1848.83,-448.5 1852.67,-448.5 1852.67,-448.5 2001.33,-448.5 2001.33,-448.5 2005.17,-448.5 2009,-452.33 2009,-456.17 2009,-456.17 2009,-463.83 2009,-463.83 2009,-467.67 2005.17,-471.5 2001.33,-471.5"/>
<text text-anchor="middle" x="1927" y="-456.3" font-family="Arial" font-size="14.00" fill="#c6c5fe">../systems/TileSystem.ts</text>
</g>
<!-- ../Message.ts&#45;&gt;../systems/TileSystem.ts -->
<g id="edge22" class="edge">
<title>../Message.ts&#45;&gt;../systems/TileSystem.ts</title>
<path fill="none" stroke="#757575" d="M1741.17,-537.26C1765.5,-523.76 1807.35,-501.45 1845,-486 1854.84,-481.96 1865.55,-478.14 1875.86,-474.73"/>
<polygon fill="#757575" stroke="#757575" points="1877.14,-477.99 1885.59,-471.59 1874.99,-471.33 1877.14,-477.99"/>
</g>
<!-- ../systems/TileSystem.ts&#45;&gt;../Component.ts -->
<g id="edge127" class="edge">
<title>../systems/TileSystem.ts&#45;&gt;../Component.ts</title>
<path fill="none" stroke="#757575" d="M1953.62,-471.67C1999.47,-493.4 2097.03,-543.6 2164,-606 2226.15,-663.91 2278.86,-751.34 2301.14,-791.05"/>
<polygon fill="#757575" stroke="#757575" points="2298.23,-793.02 2306.14,-800.07 2304.36,-789.63 2298.23,-793.02"/>
</g>
<!-- ../systems/TileSystem.ts&#45;&gt;../units/convert.ts -->
<g id="edge131" class="edge">
<title>../systems/TileSystem.ts&#45;&gt;../units/convert.ts</title>
<path fill="none" stroke="#757575" d="M1935.54,-448.4C1962.71,-406.6 2055.82,-263.36 2090.41,-210.13"/>
<polygon fill="#757575" stroke="#757575" points="2093.47,-211.85 2095.99,-201.56 2087.6,-208.04 2093.47,-211.85"/>
</g>
<!-- ../systems/TileSystem.ts&#45;&gt;../Matrix.ts -->
<g id="edge128" class="edge">
<title>../systems/TileSystem.ts&#45;&gt;../Matrix.ts</title>
<path fill="none" stroke="#757575" d="M1985.95,-448.44C2008.09,-444.03 2033.1,-439.04 2054.34,-434.8"/>
<polygon fill="#757575" stroke="#757575" points="2055.31,-438.18 2064.43,-432.79 2053.94,-431.31 2055.31,-438.18"/>
</g>
<!-- ../Query.ts -->
<g id="node24" class="node">
<title>../Query.ts</title>
<path fill="none" stroke="#c6c5fe" d="M2136.33,-477.5C2136.33,-477.5 2072.67,-477.5 2072.67,-477.5 2068.83,-477.5 2065,-473.67 2065,-469.83 2065,-469.83 2065,-462.17 2065,-462.17 2065,-458.33 2068.83,-454.5 2072.67,-454.5 2072.67,-454.5 2136.33,-454.5 2136.33,-454.5 2140.17,-454.5 2144,-458.33 2144,-462.17 2144,-462.17 2144,-469.83 2144,-469.83 2144,-473.67 2140.17,-477.5 2136.33,-477.5"/>
<text text-anchor="middle" x="2104.5" y="-462.3" font-family="Arial" font-size="14.00" fill="#c6c5fe">../Query.ts</text>
</g>
<!-- ../systems/TileSystem.ts&#45;&gt;../Query.ts -->
<g id="edge129" class="edge">
<title>../systems/TileSystem.ts&#45;&gt;../Query.ts</title>
<path fill="none" stroke="#757575" d="M2009.07,-462.77C2024.68,-463.31 2040.58,-463.85 2054.76,-464.33"/>
<polygon fill="#757575" stroke="#757575" points="2054.65,-467.83 2064.76,-464.68 2054.89,-460.84 2054.65,-467.83"/>
</g>
<!-- ../System.ts -->
<g id="node26" class="node">
<title>../System.ts</title>
<path fill="none" stroke="#c6c5fe" d="M2140.83,-823.5C2140.83,-823.5 2068.17,-823.5 2068.17,-823.5 2064.33,-823.5 2060.5,-819.67 2060.5,-815.83 2060.5,-815.83 2060.5,-808.17 2060.5,-808.17 2060.5,-804.33 2064.33,-800.5 2068.17,-800.5 2068.17,-800.5 2140.83,-800.5 2140.83,-800.5 2144.67,-800.5 2148.5,-804.33 2148.5,-808.17 2148.5,-808.17 2148.5,-815.83 2148.5,-815.83 2148.5,-819.67 2144.67,-823.5 2140.83,-823.5"/>
<text text-anchor="middle" x="2104.5" y="-808.3" font-family="Arial" font-size="14.00" fill="#c6c5fe">../System.ts</text>
</g>
<!-- ../systems/TileSystem.ts&#45;&gt;../System.ts -->
<g id="edge130" class="edge">
<title>../systems/TileSystem.ts&#45;&gt;../System.ts</title>
<path fill="none" stroke="#757575" d="M1949.54,-471.51C1967.8,-482.29 1993.44,-500.03 2009,-522 2040.91,-567.05 2083.53,-731.12 2098.25,-790.42"/>
<polygon fill="#757575" stroke="#757575" points="2094.87,-791.35 2100.66,-800.23 2101.67,-789.68 2094.87,-791.35"/>
</g>
<!-- ../NetworkedEntityServer.ts -->
<g id="node21" class="node">
<title>../NetworkedEntityServer.ts</title>
<path fill="none" stroke="#c6c5fe" d="M368.33,-1431.5C368.33,-1431.5 204.67,-1431.5 204.67,-1431.5 200.83,-1431.5 197,-1427.67 197,-1423.83 197,-1423.83 197,-1416.17 197,-1416.17 197,-1412.33 200.83,-1408.5 204.67,-1408.5 204.67,-1408.5 368.33,-1408.5 368.33,-1408.5 372.17,-1408.5 376,-1412.33 376,-1416.17 376,-1416.17 376,-1423.83 376,-1423.83 376,-1427.67 372.17,-1431.5 368.33,-1431.5"/>
<text text-anchor="middle" x="286.5" y="-1416.3" font-family="Arial" font-size="14.00" fill="#c6c5fe">../NetworkedEntityServer.ts</text>
</g>
<!-- ../NetworkedEntityServer.ts&#45;&gt;../Component.ts -->
<g id="edge23" class="edge">
<title>../NetworkedEntityServer.ts&#45;&gt;../Component.ts</title>
<path fill="none" stroke="#757575" d="M376.11,-1412.63C516.79,-1401.58 799.98,-1382 1040.5,-1382 1040.5,-1382 1040.5,-1382 1497.5,-1382 1803.65,-1382 1974.59,-1448.52 2164,-1208 2259.57,-1086.65 2298.35,-897.33 2309.14,-833.69"/>
<polygon fill="#757575" stroke="#757575" points="2312.62,-834.07 2310.78,-823.63 2305.71,-832.93 2312.62,-834.07"/>
</g>
<!-- ../NetworkedEntityServer.ts&#45;&gt;../Error.ts -->
<g id="edge24" class="edge">
<title>../NetworkedEntityServer.ts&#45;&gt;../Error.ts</title>
<path fill="none" stroke="#757575" d="M363.91,-1431.63C368.05,-1432.93 372.11,-1434.39 376,-1436 394,-1443.46 393.86,-1453.91 412,-1461 517.32,-1502.15 550.92,-1496 664,-1496 664,-1496 664,-1496 2699.5,-1496 2754.47,-1496 2894.54,-1217.73 2910,-1169 2954.55,-1028.57 2975.46,-552.67 2979.68,-444.85"/>
<polygon fill="#757575" stroke="#757575" points="2983.19,-444.69 2980.08,-434.56 2976.2,-444.42 2983.19,-444.69"/>
</g>
<!-- ../functions/Networking.ts -->
<g id="node22" class="node">
<title>../functions/Networking.ts</title>
<path fill="none" stroke="#c6c5fe" d="M571.33,-1337.5C571.33,-1337.5 419.67,-1337.5 419.67,-1337.5 415.83,-1337.5 412,-1333.67 412,-1329.83 412,-1329.83 412,-1322.17 412,-1322.17 412,-1318.33 415.83,-1314.5 419.67,-1314.5 419.67,-1314.5 571.33,-1314.5 571.33,-1314.5 575.17,-1314.5 579,-1318.33 579,-1322.17 579,-1322.17 579,-1329.83 579,-1329.83 579,-1333.67 575.17,-1337.5 571.33,-1337.5"/>
<text text-anchor="middle" x="495.5" y="-1322.3" font-family="Arial" font-size="14.00" fill="#c6c5fe">../functions/Networking.ts</text>
</g>
<!-- ../NetworkedEntityServer.ts&#45;&gt;../functions/Networking.ts -->
<g id="edge25" class="edge">
<title>../NetworkedEntityServer.ts&#45;&gt;../functions/Networking.ts</title>
<path fill="none" stroke="#757575" d="M312.88,-1408.47C349.74,-1391.74 418.2,-1360.65 459.72,-1341.79"/>
<polygon fill="#757575" stroke="#757575" points="461.25,-1344.94 468.91,-1337.62 458.36,-1338.57 461.25,-1344.94"/>
</g>
<!-- ../util.ts -->
<g id="node23" class="node">
<title>../util.ts</title>
<path fill="none" stroke="#c6c5fe" d="M2335.33,-1431.5C2335.33,-1431.5 2291.67,-1431.5 2291.67,-1431.5 2287.83,-1431.5 2284,-1427.67 2284,-1423.83 2284,-1423.83 2284,-1416.17 2284,-1416.17 2284,-1412.33 2287.83,-1408.5 2291.67,-1408.5 2291.67,-1408.5 2335.33,-1408.5 2335.33,-1408.5 2339.17,-1408.5 2343,-1412.33 2343,-1416.17 2343,-1416.17 2343,-1423.83 2343,-1423.83 2343,-1427.67 2339.17,-1431.5 2335.33,-1431.5"/>
<text text-anchor="middle" x="2313.5" y="-1416.3" font-family="Arial" font-size="14.00" fill="#c6c5fe">../util.ts</text>
</g>
<!-- ../NetworkedEntityServer.ts&#45;&gt;../util.ts -->
<g id="edge26" class="edge">
<title>../NetworkedEntityServer.ts&#45;&gt;../util.ts</title>
<path fill="none" stroke="#757575" d="M358.76,-1431.5C434.32,-1442.69 557.24,-1458 664,-1458 664,-1458 664,-1458 1928,-1458 2054.97,-1458 2204.38,-1437.23 2273.64,-1426.4"/>
<polygon fill="#757575" stroke="#757575" points="2274.33,-1429.83 2283.66,-1424.81 2273.23,-1422.92 2274.33,-1429.83"/>
</g>
<!-- ../functions/Networking.ts&#45;&gt;../Component.ts -->
<g id="edge106" class="edge">
<title>../functions/Networking.ts&#45;&gt;../Component.ts</title>
<path fill="none" stroke="#757575" d="M579.08,-1332.86C647.48,-1337.94 747.24,-1344 834.5,-1344 834.5,-1344 834.5,-1344 1497.5,-1344 1806.9,-1344 1946.12,-1362.67 2164,-1143 2204.11,-1102.56 2178.33,-1072.68 2200,-1020 2229.54,-948.2 2276.82,-868.98 2299.52,-832.48"/>
<polygon fill="#757575" stroke="#757575" points="2302.64,-834.09 2304.98,-823.75 2296.71,-830.37 2302.64,-834.09"/>
</g>
<!-- ../functions/Networking.ts&#45;&gt;../EntityManager.ts -->
<g id="edge107" class="edge">
<title>../functions/Networking.ts&#45;&gt;../EntityManager.ts</title>
<path fill="none" stroke="#757575" d="M579.08,-1324.94C767.65,-1321.45 1224.33,-1306.6 1363,-1244 1410.77,-1222.44 1455.47,-1179.02 1478.75,-1153.98"/>
<polygon fill="#757575" stroke="#757575" points="1481.38,-1156.29 1485.53,-1146.55 1476.21,-1151.57 1481.38,-1156.29"/>
</g>
<!-- ../functions/Networking.ts&#45;&gt;../util.ts -->
<g id="edge109" class="edge">
<title>../functions/Networking.ts&#45;&gt;../util.ts</title>
<path fill="none" stroke="#757575" d="M535.69,-1337.53C624.61,-1362.63 848.81,-1420 1040.5,-1420 1040.5,-1420 1040.5,-1420 1928,-1420 2054.35,-1420 2204.06,-1420 2273.51,-1420"/>
<polygon fill="#757575" stroke="#757575" points="2273.56,-1423.5 2283.56,-1420 2273.56,-1416.5 2273.56,-1423.5"/>
</g>
<!-- ../constants.ts -->
<g id="node29" class="node">
<title>../constants.ts</title>
<path fill="none" stroke="#ff6c60" d="M707.33,-719.5C707.33,-719.5 622.67,-719.5 622.67,-719.5 618.83,-719.5 615,-715.67 615,-711.83 615,-711.83 615,-704.17 615,-704.17 615,-700.33 618.83,-696.5 622.67,-696.5 622.67,-696.5 707.33,-696.5 707.33,-696.5 711.17,-696.5 715,-700.33 715,-704.17 715,-704.17 715,-711.83 715,-711.83 715,-715.67 711.17,-719.5 707.33,-719.5"/>
<text text-anchor="middle" x="665" y="-704.3" font-family="Arial" font-size="14.00" fill="#ff6c60">../constants.ts</text>
</g>
<!-- ../functions/Networking.ts&#45;&gt;../constants.ts -->
<g id="edge108" class="edge">
<title>../functions/Networking.ts&#45;&gt;../constants.ts</title>
<path fill="none" stroke="#757575" d="M499.62,-1314.48C519.74,-1240.26 631.07,-829.51 658.09,-729.81"/>
<polygon fill="#757575" stroke="#757575" points="661.53,-730.51 660.76,-719.94 654.77,-728.68 661.53,-730.51"/>
</g>
<!-- ../util.ts&#45;&gt;../Log.ts -->
<g id="edge132" class="edge">
<title>../util.ts&#45;&gt;../Log.ts</title>
<path fill="none" stroke="#757575" d="M2334.09,-1408.37C2369.73,-1387.22 2445.28,-1342.38 2486.58,-1317.87"/>
<polygon fill="#757575" stroke="#757575" points="2488.52,-1320.79 2495.33,-1312.67 2484.94,-1314.77 2488.52,-1320.79"/>
</g>
<!-- ../Query.ts&#45;&gt;../Component.ts -->
<g id="edge28" class="edge">
<title>../Query.ts&#45;&gt;../Component.ts</title>
<path fill="none" stroke="#757575" d="M2112.39,-477.51C2142.35,-527.59 2261.56,-726.85 2300.28,-791.58"/>
<polygon fill="#757575" stroke="#757575" points="2297.45,-793.66 2305.59,-800.44 2303.46,-790.07 2297.45,-793.66"/>
</g>
<!-- ../Query.ts&#45;&gt;../Debug.ts -->
<g id="edge29" class="edge">
<title>../Query.ts&#45;&gt;../Debug.ts</title>
<path fill="none" stroke="#757575" d="M2120.22,-477.73C2138.01,-491.24 2169.39,-512.99 2200,-524 2238.96,-538.01 2528.25,-568.64 2569,-576 2657.03,-591.89 2758.51,-615.41 2817.73,-629.66"/>
<polygon fill="#757575" stroke="#757575" points="2817.03,-633.09 2827.58,-632.03 2818.68,-626.29 2817.03,-633.09"/>
</g>
<!-- ../Query.ts&#45;&gt;../Observable.ts -->
<g id="edge30" class="edge">
<title>../Query.ts&#45;&gt;../Observable.ts</title>
<path fill="none" stroke="#757575" d="M2121.62,-477.84C2133.79,-487.1 2150.63,-500.61 2164,-514 2181.85,-531.88 2177.83,-545.87 2200,-558 2344.85,-637.24 2415.9,-539.18 2569,-601 2613.88,-619.12 2656.62,-657.32 2679.73,-680.31"/>
<polygon fill="#757575" stroke="#757575" points="2677.28,-682.8 2686.79,-687.47 2682.26,-677.89 2677.28,-682.8"/>
</g>
<!-- ../Rectangle.ts -->
<g id="node25" class="node">
<title>../Rectangle.ts</title>
<path fill="none" stroke="#cfffac" d="M2357.33,-515.5C2357.33,-515.5 2269.67,-515.5 2269.67,-515.5 2265.83,-515.5 2262,-511.67 2262,-507.83 2262,-507.83 2262,-500.17 2262,-500.17 2262,-496.33 2265.83,-492.5 2269.67,-492.5 2269.67,-492.5 2357.33,-492.5 2357.33,-492.5 2361.17,-492.5 2365,-496.33 2365,-500.17 2365,-500.17 2365,-507.83 2365,-507.83 2365,-511.67 2361.17,-515.5 2357.33,-515.5"/>
<text text-anchor="middle" x="2313.5" y="-500.3" font-family="Arial" font-size="14.00" fill="#cfffac">../Rectangle.ts</text>
</g>
<!-- ../Query.ts&#45;&gt;../Rectangle.ts -->
<g id="edge31" class="edge">
<title>../Query.ts&#45;&gt;../Rectangle.ts</title>
<path fill="none" stroke="#757575" d="M2144.44,-473.15C2174.71,-478.7 2217.25,-486.51 2251.96,-492.89"/>
<polygon fill="#757575" stroke="#757575" points="2251.52,-496.36 2261.99,-494.73 2252.78,-489.48 2251.52,-496.36"/>
</g>
<!-- ../System.ts&#45;&gt;../Component.ts -->
<g id="edge32" class="edge">
<title>../System.ts&#45;&gt;../Component.ts</title>
<path fill="none" stroke="#757575" d="M2148.64,-812C2176.97,-812 2214.58,-812 2246.62,-812"/>
<polygon fill="#757575" stroke="#757575" points="2246.81,-815.5 2256.81,-812 2246.81,-808.5 2246.81,-815.5"/>
</g>
<!-- ../System.ts&#45;&gt;../Log.ts -->
<g id="edge33" class="edge">
<title>../System.ts&#45;&gt;../Log.ts</title>
<path fill="none" stroke="#757575" d="M2115.22,-823.61C2168.97,-887.8 2429.94,-1199.43 2498.48,-1281.28"/>
<polygon fill="#757575" stroke="#757575" points="2496.09,-1283.87 2505.19,-1289.29 2501.45,-1279.37 2496.09,-1283.87"/>
</g>
<!-- ../System.ts&#45;&gt;../util.ts -->
<g id="edge34" class="edge">
<title>../System.ts&#45;&gt;../util.ts</title>
<path fill="none" stroke="#757575" d="M2109.45,-823.6C2134.56,-897.34 2271.88,-1300.69 2305.21,-1398.59"/>
<polygon fill="#757575" stroke="#757575" points="2301.97,-1399.94 2308.51,-1408.28 2308.6,-1397.68 2301.97,-1399.94"/>
</g>
<!-- ../UIElement.ts -->
<g id="node27" class="node">
<title>../UIElement.ts</title>
<path fill="none" stroke="#c6c5fe" d="M2561.33,-633.5C2561.33,-633.5 2470.67,-633.5 2470.67,-633.5 2466.83,-633.5 2463,-629.67 2463,-625.83 2463,-625.83 2463,-618.17 2463,-618.17 2463,-614.33 2466.83,-610.5 2470.67,-610.5 2470.67,-610.5 2561.33,-610.5 2561.33,-610.5 2565.17,-610.5 2569,-614.33 2569,-618.17 2569,-618.17 2569,-625.83 2569,-625.83 2569,-629.67 2565.17,-633.5 2561.33,-633.5"/>
<text text-anchor="middle" x="2516" y="-618.3" font-family="Arial" font-size="14.00" fill="#c6c5fe">../UIElement.ts</text>
</g>
<!-- ../UIElement.ts&#45;&gt;../Observable.ts -->
<g id="edge35" class="edge">
<title>../UIElement.ts&#45;&gt;../Observable.ts</title>
<path fill="none" stroke="#757575" d="M2544.02,-633.53C2575.13,-646.8 2626.37,-668.65 2661,-683.43"/>
<polygon fill="#757575" stroke="#757575" points="2659.72,-686.69 2670.29,-687.39 2662.47,-680.25 2659.72,-686.69"/>
</g>
<!-- ../common.ts -->
<g id="node28" class="node">
<title>../common.ts</title>
<path fill="none" stroke="#cfffac" d="M326.33,-1304.5C326.33,-1304.5 246.67,-1304.5 246.67,-1304.5 242.83,-1304.5 239,-1300.67 239,-1296.83 239,-1296.83 239,-1289.17 239,-1289.17 239,-1285.33 242.83,-1281.5 246.67,-1281.5 246.67,-1281.5 326.33,-1281.5 326.33,-1281.5 330.17,-1281.5 334,-1285.33 334,-1289.17 334,-1289.17 334,-1296.83 334,-1296.83 334,-1300.67 330.17,-1304.5 326.33,-1304.5"/>
<text text-anchor="middle" x="286.5" y="-1289.3" font-family="Arial" font-size="14.00" fill="#cfffac">../common.ts</text>
</g>
<!-- ../constants.ts&#45;&gt;../EntityManager.ts -->
<g id="edge36" class="edge">
<title>../constants.ts&#45;&gt;../EntityManager.ts</title>
<path fill="none" stroke="#757575" d="M668.87,-719.76C677.37,-753.08 704.75,-850.04 751,-918 821.74,-1021.96 845.43,-1053.11 956,-1113 1116.2,-1199.78 1181.72,-1180.28 1363,-1162 1388.75,-1159.4 1416.9,-1154.04 1440.6,-1148.76"/>
<polygon fill="#757575" stroke="#757575" points="1441.49,-1152.15 1450.47,-1146.52 1439.94,-1145.33 1441.49,-1152.15"/>
</g>
<!-- ../constants.ts&#45;&gt;../HeadingDirection.ts -->
<g id="edge37" class="edge">
<title>../constants.ts&#45;&gt;../HeadingDirection.ts</title>
<path fill="none" stroke="#757575" d="M667.51,-696.43C672.94,-658.13 694.31,-533.21 751,-449 885.02,-249.93 950.12,-210.78 1163,-100 1171.75,-95.45 1181.36,-91.65 1191.04,-88.49"/>
<polygon fill="#757575" stroke="#757575" points="1192.18,-91.8 1200.72,-85.53 1190.14,-85.1 1192.18,-91.8"/>
</g>
<!-- ../constants.ts&#45;&gt;../Input.ts -->
<g id="edge38" class="edge">
<title>../constants.ts&#45;&gt;../Input.ts</title>
<path fill="none" stroke="#757575" d="M671.82,-719.54C683.68,-741.93 712.78,-791.49 751,-819 815.45,-865.4 847.87,-843.78 920,-877 1017,-921.67 1047.77,-927.4 1127,-999 1147.05,-1017.12 1140.79,-1032.6 1163,-1048 1178.7,-1058.89 1198.58,-1065.57 1216.39,-1069.66"/>
<polygon fill="#757575" stroke="#757575" points="1216.09,-1073.17 1226.59,-1071.77 1217.51,-1066.31 1216.09,-1073.17"/>
</g>
<!-- ../entities/BlockEntity.ts -->
<g id="node30" class="node">
<title>../entities/BlockEntity.ts</title>
<path fill="none" stroke="#ff6c60" d="M1332.83,-738.5C1332.83,-738.5 1193.17,-738.5 1193.17,-738.5 1189.33,-738.5 1185.5,-734.67 1185.5,-730.83 1185.5,-730.83 1185.5,-723.17 1185.5,-723.17 1185.5,-719.33 1189.33,-715.5 1193.17,-715.5 1193.17,-715.5 1332.83,-715.5 1332.83,-715.5 1336.67,-715.5 1340.5,-719.33 1340.5,-723.17 1340.5,-723.17 1340.5,-730.83 1340.5,-730.83 1340.5,-734.67 1336.67,-738.5 1332.83,-738.5"/>
<text text-anchor="middle" x="1263" y="-723.3" font-family="Arial" font-size="14.00" fill="#ff6c60">../entities/BlockEntity.ts</text>
</g>
<!-- ../constants.ts&#45;&gt;../entities/BlockEntity.ts -->
<g id="edge39" class="edge">
<title>../constants.ts&#45;&gt;../entities/BlockEntity.ts</title>
<path fill="none" stroke="#757575" d="M715.03,-705.64C816.02,-705.46 1048.39,-712.53 1175.34,-719.31"/>
<polygon fill="#757575" stroke="#757575" points="1175.24,-722.81 1185.41,-719.86 1175.62,-715.82 1175.24,-722.81"/>
</g>
<!-- ../entities/MonsterEntity.ts -->
<g id="node31" class="node">
<title>../entities/MonsterEntity.ts</title>
<path fill="none" stroke="#ff6c60" d="M1119.33,-616.5C1119.33,-616.5 963.67,-616.5 963.67,-616.5 959.83,-616.5 956,-612.67 956,-608.83 956,-608.83 956,-601.17 956,-601.17 956,-597.33 959.83,-593.5 963.67,-593.5 963.67,-593.5 1119.33,-593.5 1119.33,-593.5 1123.17,-593.5 1127,-597.33 1127,-601.17 1127,-601.17 1127,-608.83 1127,-608.83 1127,-612.67 1123.17,-616.5 1119.33,-616.5"/>
<text text-anchor="middle" x="1041.5" y="-601.3" font-family="Arial" font-size="14.00" fill="#ff6c60">../entities/MonsterEntity.ts</text>
</g>
<!-- ../constants.ts&#45;&gt;../entities/MonsterEntity.ts -->
<g id="edge40" class="edge">
<title>../constants.ts&#45;&gt;../entities/MonsterEntity.ts</title>
<path fill="none" stroke="#757575" d="M671.75,-696.29C684.36,-677.57 716.15,-643.78 751,-629 812.39,-602.96 887.33,-594.98 945.58,-594.61"/>
<polygon fill="#757575" stroke="#757575" points="945.88,-598.11 955.89,-594.62 945.89,-591.11 945.88,-598.11"/>
</g>
<!-- ../entities/PlayerPrefab.ts -->
<g id="node32" class="node">
<title>../entities/PlayerPrefab.ts</title>
<path fill="none" stroke="#ff6c60" d="M1117.33,-825.5C1117.33,-825.5 965.67,-825.5 965.67,-825.5 961.83,-825.5 958,-821.67 958,-817.83 958,-817.83 958,-810.17 958,-810.17 958,-806.33 961.83,-802.5 965.67,-802.5 965.67,-802.5 1117.33,-802.5 1117.33,-802.5 1121.17,-802.5 1125,-806.33 1125,-810.17 1125,-810.17 1125,-817.83 1125,-817.83 1125,-821.67 1121.17,-825.5 1117.33,-825.5"/>
<text text-anchor="middle" x="1041.5" y="-810.3" font-family="Arial" font-size="14.00" fill="#ff6c60">../entities/PlayerPrefab.ts</text>
</g>
<!-- ../constants.ts&#45;&gt;../entities/PlayerPrefab.ts -->
<g id="edge41" class="edge">
<title>../constants.ts&#45;&gt;../entities/PlayerPrefab.ts</title>
<path fill="none" stroke="#757575" d="M682.54,-719.62C698.36,-734.1 723.78,-757.29 751,-769 812.99,-795.67 888.88,-804.33 947.41,-807.77"/>
<polygon fill="#757575" stroke="#757575" points="947.58,-811.29 957.76,-808.34 947.96,-804.3 947.58,-811.29"/>
</g>
<!-- ../entities/RoosterEntity.ts -->
<g id="node33" class="node">
<title>../entities/RoosterEntity.ts</title>
<path fill="none" stroke="#ff6c60" d="M912.33,-909.5C912.33,-909.5 758.67,-909.5 758.67,-909.5 754.83,-909.5 751,-905.67 751,-901.83 751,-901.83 751,-894.17 751,-894.17 751,-890.33 754.83,-886.5 758.67,-886.5 758.67,-886.5 912.33,-886.5 912.33,-886.5 916.17,-886.5 920,-890.33 920,-894.17 920,-894.17 920,-901.83 920,-901.83 920,-905.67 916.17,-909.5 912.33,-909.5"/>
<text text-anchor="middle" x="835.5" y="-894.3" font-family="Arial" font-size="14.00" fill="#ff6c60">../entities/RoosterEntity.ts</text>
</g>
<!-- ../constants.ts&#45;&gt;../entities/RoosterEntity.ts -->
<g id="edge42" class="edge">
<title>../constants.ts&#45;&gt;../entities/RoosterEntity.ts</title>
<path fill="none" stroke="#757575" d="M670.01,-719.64C678.84,-748.71 703.06,-822.85 751,-863 763.11,-873.14 779.16,-879.33 793.95,-883.71"/>
<polygon fill="#757575" stroke="#757575" points="793.35,-887.18 803.92,-886.48 795.23,-880.44 793.35,-887.18"/>
</g>
<!-- ../entities/ToggleButtonEntity.ts -->
<g id="node34" class="node">
<title>../entities/ToggleButtonEntity.ts</title>
<path fill="none" stroke="#ff6c60" d="M1355.33,-449.5C1355.33,-449.5 1170.67,-449.5 1170.67,-449.5 1166.83,-449.5 1163,-445.67 1163,-441.83 1163,-441.83 1163,-434.17 1163,-434.17 1163,-430.33 1166.83,-426.5 1170.67,-426.5 1170.67,-426.5 1355.33,-426.5 1355.33,-426.5 1359.17,-426.5 1363,-430.33 1363,-434.17 1363,-434.17 1363,-441.83 1363,-441.83 1363,-445.67 1359.17,-449.5 1355.33,-449.5"/>
<text text-anchor="middle" x="1263" y="-434.3" font-family="Arial" font-size="14.00" fill="#ff6c60">../entities/ToggleButtonEntity.ts</text>
</g>
<!-- ../constants.ts&#45;&gt;../entities/ToggleButtonEntity.ts -->
<g id="edge43" class="edge">
<title>../constants.ts&#45;&gt;../entities/ToggleButtonEntity.ts</title>
<path fill="none" stroke="#757575" d="M667.15,-696.34C671.68,-661.98 691.12,-563.72 751,-518 882.05,-417.94 1087.03,-415.48 1193.16,-425.49"/>
<polygon fill="#757575" stroke="#757575" points="1192.81,-428.97 1203.11,-426.5 1193.52,-422.01 1192.81,-428.97"/>
</g>
<!-- ../entities/ToggleWall.ts -->
<g id="node35" class="node">
<title>../entities/ToggleWall.ts</title>
<path fill="none" stroke="#ff6c60" d="M1332.83,-506.5C1332.83,-506.5 1193.17,-506.5 1193.17,-506.5 1189.33,-506.5 1185.5,-502.67 1185.5,-498.83 1185.5,-498.83 1185.5,-491.17 1185.5,-491.17 1185.5,-487.33 1189.33,-483.5 1193.17,-483.5 1193.17,-483.5 1332.83,-483.5 1332.83,-483.5 1336.67,-483.5 1340.5,-487.33 1340.5,-491.17 1340.5,-491.17 1340.5,-498.83 1340.5,-498.83 1340.5,-502.67 1336.67,-506.5 1332.83,-506.5"/>
<text text-anchor="middle" x="1263" y="-491.3" font-family="Arial" font-size="14.00" fill="#ff6c60">../entities/ToggleWall.ts</text>
</g>
<!-- ../constants.ts&#45;&gt;../entities/ToggleWall.ts -->
<g id="edge44" class="edge">
<title>../constants.ts&#45;&gt;../entities/ToggleWall.ts</title>
<path fill="none" stroke="#757575" d="M669.53,-696.26C679.34,-671.55 708.98,-616.96 751,-591 883.31,-509.27 1068.03,-489.94 1175.32,-488.79"/>
<polygon fill="#757575" stroke="#757575" points="1175.48,-492.29 1185.46,-488.73 1175.44,-485.29 1175.48,-492.29"/>
</g>
<!-- ../entities/WallEntity.ts -->
<g id="node36" class="node">
<title>../entities/WallEntity.ts</title>
<path fill="none" stroke="#ff6c60" d="M1329.33,-779.5C1329.33,-779.5 1196.67,-779.5 1196.67,-779.5 1192.83,-779.5 1189,-775.67 1189,-771.83 1189,-771.83 1189,-764.17 1189,-764.17 1189,-760.33 1192.83,-756.5 1196.67,-756.5 1196.67,-756.5 1329.33,-756.5 1329.33,-756.5 1333.17,-756.5 1337,-760.33 1337,-764.17 1337,-764.17 1337,-771.83 1337,-771.83 1337,-775.67 1333.17,-779.5 1329.33,-779.5"/>
<text text-anchor="middle" x="1263" y="-764.3" font-family="Arial" font-size="14.00" fill="#ff6c60">../entities/WallEntity.ts</text>
</g>
<!-- ../constants.ts&#45;&gt;../entities/WallEntity.ts -->
<g id="edge45" class="edge">
<title>../constants.ts&#45;&gt;../entities/WallEntity.ts</title>
<path fill="none" stroke="#757575" d="M715.05,-714.95C726.72,-717.91 739.22,-720.94 751,-723 900.08,-749.01 1076.73,-756.35 1178.45,-760.99"/>
<polygon fill="#757575" stroke="#757575" points="1178.51,-764.5 1188.66,-761.46 1178.83,-757.5 1178.51,-764.5"/>
</g>
<!-- ../entities/BlockEntity.ts&#45;&gt;../Component.ts -->
<g id="edge46" class="edge">
<title>../entities/BlockEntity.ts&#45;&gt;../Component.ts</title>
<path fill="none" stroke="#757575" d="M1340.95,-733.12C1349.12,-736.39 1356.72,-740.88 1363,-747 1414.28,-796.96 1345.16,-856.81 1399,-904 1501.18,-993.56 1874.77,-967.11 2009,-946 2080.51,-934.75 2097.71,-925.08 2164,-896 2208.55,-876.46 2257.05,-847.42 2286.1,-829.11"/>
<polygon fill="#757575" stroke="#757575" points="2288.26,-831.89 2294.82,-823.57 2284.51,-825.98 2288.26,-831.89"/>
</g>
<!-- ../entities/BlockEntity.ts&#45;&gt;../EntityManager.ts -->
<g id="edge47" class="edge">
<title>../entities/BlockEntity.ts&#45;&gt;../EntityManager.ts</title>
<path fill="none" stroke="#757575" d="M1340.88,-732.51C1349.17,-735.86 1356.82,-740.54 1363,-747 1434.25,-821.42 1363.6,-879.24 1399,-976 1418.91,-1030.41 1458.32,-1086.66 1480.11,-1115.44"/>
<polygon fill="#757575" stroke="#757575" points="1477.4,-1117.66 1486.27,-1123.46 1482.95,-1113.4 1477.4,-1117.66"/>
</g>
<!-- ../entities/BlockEntity.ts&#45;&gt;../Message.ts -->
<g id="edge48" class="edge">
<title>../entities/BlockEntity.ts&#45;&gt;../Message.ts</title>
<path fill="none" stroke="#757575" d="M1321.27,-715.49C1388.55,-700.78 1502.6,-672.07 1594,-630 1631.76,-612.62 1671.33,-585.01 1695.46,-566.95"/>
<polygon fill="#757575" stroke="#757575" points="1697.77,-569.59 1703.62,-560.76 1693.54,-564.01 1697.77,-569.59"/>
</g>
<!-- ../entities/BlockEntity.ts&#45;&gt;../systems/TileSystem.ts -->
<g id="edge52" class="edge">
<title>../entities/BlockEntity.ts&#45;&gt;../systems/TileSystem.ts</title>
<path fill="none" stroke="#757575" d="M1340.6,-722.62C1408.51,-717.1 1509.7,-704.85 1594,-678 1696.08,-645.49 1735.55,-646.99 1809,-569 1836.57,-539.73 1815.2,-513 1845,-486 1849.35,-482.06 1854.3,-478.72 1859.55,-475.88"/>
<polygon fill="#757575" stroke="#757575" points="1861.11,-479.02 1868.64,-471.57 1858.11,-472.7 1861.11,-479.02"/>
</g>
<!-- ../entities/BlockEntity.ts&#45;&gt;../constants.ts -->
<g id="edge49" class="edge">
<title>../entities/BlockEntity.ts&#45;&gt;../constants.ts</title>
<path fill="none" stroke="#757575" d="M1185.41,-729.26C1064.95,-728.3 833.78,-720.77 725.15,-714.12"/>
<polygon fill="#757575" stroke="#757575" points="725.23,-710.62 715.03,-713.48 724.79,-717.61 725.23,-710.62"/>
</g>
<!-- ../messages.ts -->
<g id="node37" class="node">
<title>../messages.ts</title>
<path fill="none" stroke="#c6c5fe" d="M1540.83,-317.5C1540.83,-317.5 1452.17,-317.5 1452.17,-317.5 1448.33,-317.5 1444.5,-313.67 1444.5,-309.83 1444.5,-309.83 1444.5,-302.17 1444.5,-302.17 1444.5,-298.33 1448.33,-294.5 1452.17,-294.5 1452.17,-294.5 1540.83,-294.5 1540.83,-294.5 1544.67,-294.5 1548.5,-298.33 1548.5,-302.17 1548.5,-302.17 1548.5,-309.83 1548.5,-309.83 1548.5,-313.67 1544.67,-317.5 1540.83,-317.5"/>
<text text-anchor="middle" x="1496.5" y="-302.3" font-family="Arial" font-size="14.00" fill="#c6c5fe">../messages.ts</text>
</g>
<!-- ../entities/BlockEntity.ts&#45;&gt;../messages.ts -->
<g id="edge50" class="edge">
<title>../entities/BlockEntity.ts&#45;&gt;../messages.ts</title>
<path fill="none" stroke="#757575" d="M1269.44,-715.33C1293.69,-663.28 1391.22,-454.26 1399,-441 1424.29,-397.92 1459.59,-351.26 1479.74,-325.64"/>
<polygon fill="#757575" stroke="#757575" points="1482.49,-327.8 1485.96,-317.79 1477.01,-323.46 1482.49,-327.8"/>
</g>
<!-- ../systems/BehaviorSystem.ts -->
<g id="node38" class="node">
<title>../systems/BehaviorSystem.ts</title>
<path fill="none" stroke="#c6c5fe" d="M1586.33,-895.5C1586.33,-895.5 1406.67,-895.5 1406.67,-895.5 1402.83,-895.5 1399,-891.67 1399,-887.83 1399,-887.83 1399,-880.17 1399,-880.17 1399,-876.33 1402.83,-872.5 1406.67,-872.5 1406.67,-872.5 1586.33,-872.5 1586.33,-872.5 1590.17,-872.5 1594,-876.33 1594,-880.17 1594,-880.17 1594,-887.83 1594,-887.83 1594,-891.67 1590.17,-895.5 1586.33,-895.5"/>
<text text-anchor="middle" x="1496.5" y="-880.3" font-family="Arial" font-size="14.00" fill="#c6c5fe">../systems/BehaviorSystem.ts</text>
</g>
<!-- ../entities/BlockEntity.ts&#45;&gt;../systems/BehaviorSystem.ts -->
<g id="edge51" class="edge">
<title>../entities/BlockEntity.ts&#45;&gt;../systems/BehaviorSystem.ts</title>
<path fill="none" stroke="#757575" d="M1340.93,-733.87C1349,-737.02 1356.59,-741.28 1363,-747 1401.71,-781.52 1361.41,-822.26 1399,-858 1403.01,-861.81 1407.51,-865.08 1412.33,-867.87"/>
<polygon fill="#757575" stroke="#757575" points="1410.8,-871.02 1421.3,-872.41 1413.96,-864.77 1410.8,-871.02"/>
</g>
<!-- ../entities/MonsterEntity.ts&#45;&gt;../Component.ts -->
<g id="edge53" class="edge">
<title>../entities/MonsterEntity.ts&#45;&gt;../Component.ts</title>
<path fill="none" stroke="#757575" d="M1127.14,-607.23C1191.92,-609.68 1283.38,-614.72 1363,-625 1704.72,-669.12 2108.28,-762.56 2255.3,-797.98"/>
<polygon fill="#757575" stroke="#757575" points="2254.9,-801.49 2265.44,-800.43 2256.54,-794.68 2254.9,-801.49"/>
</g>
<!-- ../entities/MonsterEntity.ts&#45;&gt;../EntityManager.ts -->
<g id="edge54" class="edge">
<title>../entities/MonsterEntity.ts&#45;&gt;../EntityManager.ts</title>
<path fill="none" stroke="#757575" d="M1049.25,-616.56C1066.68,-646.11 1115.18,-726.4 1163,-788 1244.03,-892.39 1276.69,-907.94 1363,-1008 1379.5,-1027.13 1381.35,-1033.92 1399,-1052 1422.5,-1076.08 1452.18,-1100.88 1472.37,-1117.02"/>
<polygon fill="#757575" stroke="#757575" points="1470.39,-1119.91 1480.41,-1123.38 1474.74,-1114.43 1470.39,-1119.91"/>
</g>
<!-- ../entities/MonsterEntity.ts&#45;&gt;../HeadingDirection.ts -->
<g id="edge55" class="edge">
<title>../entities/MonsterEntity.ts&#45;&gt;../HeadingDirection.ts</title>
<path fill="none" stroke="#757575" d="M1043.69,-593.18C1050.84,-524.2 1090.38,-174.28 1163,-100 1168.12,-94.76 1174.17,-90.53 1180.7,-87.13"/>
<polygon fill="#757575" stroke="#757575" points="1182.2,-90.29 1189.87,-82.98 1179.32,-83.91 1182.2,-90.29"/>
</g>
<!-- ../entities/MonsterEntity.ts&#45;&gt;../units/convert.ts -->
<g id="edge64" class="edge">
<title>../entities/MonsterEntity.ts&#45;&gt;../units/convert.ts</title>
<path fill="none" stroke="#757575" d="M1043.63,-593.21C1050.35,-525.99 1087.25,-191.92 1163,-130 1220.28,-83.19 1421.53,-114 1495.5,-114 1495.5,-114 1495.5,-114 1720.5,-114 1849.17,-114 1885.82,-100.84 2009,-138 2034.42,-145.67 2060.67,-160.8 2079.04,-172.77"/>
<polygon fill="#757575" stroke="#757575" points="2077.12,-175.7 2087.38,-178.34 2081.01,-169.88 2077.12,-175.7"/>
</g>
<!-- ../entities/MonsterEntity.ts&#45;&gt;../Message.ts -->
<g id="edge56" class="edge">
<title>../entities/MonsterEntity.ts&#45;&gt;../Message.ts</title>
<path fill="none" stroke="#757575" d="M1065.79,-593.32C1089.55,-582.08 1127.83,-565.81 1163,-559 1341.53,-524.42 1558.37,-535.35 1660.28,-543.51"/>
<polygon fill="#757575" stroke="#757575" points="1660.11,-547.01 1670.36,-544.34 1660.68,-540.03 1660.11,-547.01"/>
</g>
<!-- ../entities/MonsterEntity.ts&#45;&gt;../systems/TileSystem.ts -->
<g id="edge63" class="edge">
<title>../entities/MonsterEntity.ts&#45;&gt;../systems/TileSystem.ts</title>
<path fill="none" stroke="#757575" d="M1044.34,-593.2C1053.83,-533.93 1099.35,-269.67 1163,-223 1396.69,-51.68 1576.72,-137.77 1809,-311 1857.26,-347 1896.33,-407.7 1914.67,-439.37"/>
<polygon fill="#757575" stroke="#757575" points="1911.71,-441.24 1919.69,-448.21 1917.8,-437.79 1911.71,-441.24"/>
</g>
<!-- ../entities/MonsterEntity.ts&#45;&gt;../constants.ts -->
<g id="edge57" class="edge">
<title>../entities/MonsterEntity.ts&#45;&gt;../constants.ts</title>
<path fill="none" stroke="#757575" d="M955.89,-609.69C896.38,-612.09 816.08,-619.39 751,-647 727.77,-656.85 705.9,-675.16 690.16,-689.34"/>
<polygon fill="#757575" stroke="#757575" points="687.54,-686.99 682.51,-696.32 692.26,-692.16 687.54,-686.99"/>
</g>
<!-- ../entities/MonsterEntity.ts&#45;&gt;../entities/WallEntity.ts -->
<g id="edge58" class="edge">
<title>../entities/MonsterEntity.ts&#45;&gt;../entities/WallEntity.ts</title>
<path fill="none" stroke="#757575" d="M1048.84,-616.82C1064.31,-644.47 1106.92,-713.53 1163,-747 1168.07,-750.03 1173.52,-752.62 1179.16,-754.85"/>
<polygon fill="#757575" stroke="#757575" points="1178.2,-758.22 1188.8,-758.25 1180.53,-751.62 1178.2,-758.22"/>
</g>
<!-- ../entities/MonsterEntity.ts&#45;&gt;../messages.ts -->
<g id="edge59" class="edge">
<title>../entities/MonsterEntity.ts&#45;&gt;../messages.ts</title>
<path fill="none" stroke="#757575" d="M1044.52,-593.33C1052.03,-553.82 1082.14,-424.2 1163,-364 1242.52,-304.8 1362.15,-298.52 1434.15,-301.06"/>
<polygon fill="#757575" stroke="#757575" points="1434.28,-304.57 1444.42,-301.5 1434.57,-297.58 1434.28,-304.57"/>
</g>
<!-- ../entities/MonsterEntity.ts&#45;&gt;../systems/BehaviorSystem.ts -->
<g id="edge61" class="edge">
<title>../entities/MonsterEntity.ts&#45;&gt;../systems/BehaviorSystem.ts</title>
<path fill="none" stroke="#757575" d="M1077.44,-616.55C1092.99,-622.22 1111.29,-629.63 1127,-638 1144.19,-647.16 1145.13,-655.25 1163,-663 1246.41,-699.19 1298.05,-642.38 1363,-706 1412.6,-754.58 1350.67,-808.16 1399,-858 1402.61,-861.72 1406.69,-864.92 1411.08,-867.68"/>
<polygon fill="#757575" stroke="#757575" points="1409.41,-870.76 1419.86,-872.46 1412.75,-864.61 1409.41,-870.76"/>
</g>
<!-- ../systems/ActionSystem.ts -->
<g id="node39" class="node">
<title>../systems/ActionSystem.ts</title>
<path fill="none" stroke="#c6c5fe" d="M1801.33,-819.5C1801.33,-819.5 1637.67,-819.5 1637.67,-819.5 1633.83,-819.5 1630,-815.67 1630,-811.83 1630,-811.83 1630,-804.17 1630,-804.17 1630,-800.33 1633.83,-796.5 1637.67,-796.5 1637.67,-796.5 1801.33,-796.5 1801.33,-796.5 1805.17,-796.5 1809,-800.33 1809,-804.17 1809,-804.17 1809,-811.83 1809,-811.83 1809,-815.67 1805.17,-819.5 1801.33,-819.5"/>
<text text-anchor="middle" x="1719.5" y="-804.3" font-family="Arial" font-size="14.00" fill="#c6c5fe">../systems/ActionSystem.ts</text>
</g>
<!-- ../entities/MonsterEntity.ts&#45;&gt;../systems/ActionSystem.ts -->
<g id="edge60" class="edge">
<title>../entities/MonsterEntity.ts&#45;&gt;../systems/ActionSystem.ts</title>
<path fill="none" stroke="#757575" d="M1110.58,-616.54C1197.39,-631.38 1339.18,-656.07 1363,-663 1485.72,-698.71 1624.04,-762.27 1685.74,-791.93"/>
<polygon fill="#757575" stroke="#757575" points="1684.45,-795.19 1694.98,-796.39 1687.49,-788.89 1684.45,-795.19"/>
</g>
<!-- ../systems/LogSystem.ts -->
<g id="node40" class="node">
<title>../systems/LogSystem.ts</title>
<path fill="none" stroke="#c6c5fe" d="M2001.33,-554.5C2001.33,-554.5 1852.67,-554.5 1852.67,-554.5 1848.83,-554.5 1845,-550.67 1845,-546.83 1845,-546.83 1845,-539.17 1845,-539.17 1845,-535.33 1848.83,-531.5 1852.67,-531.5 1852.67,-531.5 2001.33,-531.5 2001.33,-531.5 2005.17,-531.5 2009,-535.33 2009,-539.17 2009,-539.17 2009,-546.83 2009,-546.83 2009,-550.67 2005.17,-554.5 2001.33,-554.5"/>
<text text-anchor="middle" x="1927" y="-539.3" font-family="Arial" font-size="14.00" fill="#c6c5fe">../systems/LogSystem.ts</text>
</g>
<!-- ../entities/MonsterEntity.ts&#45;&gt;../systems/LogSystem.ts -->
<g id="edge62" class="edge">
<title>../entities/MonsterEntity.ts&#45;&gt;../systems/LogSystem.ts</title>
<path fill="none" stroke="#757575" d="M1042.93,-593.24C1045.34,-546.52 1061.08,-372.91 1163,-299 1318.15,-186.48 1412.7,-222.84 1594,-285 1594.58,-285.2 1827.76,-466.58 1902.94,-525.06"/>
<polygon fill="#757575" stroke="#757575" points="1900.86,-527.88 1910.9,-531.25 1905.16,-522.35 1900.86,-527.88"/>
</g>
<!-- ../entities/PlayerPrefab.ts&#45;&gt;../Action.ts -->
<g id="edge65" class="edge">
<title>../entities/PlayerPrefab.ts&#45;&gt;../Action.ts</title>
<path fill="none" stroke="#757575" d="M1056.58,-825.64C1073.88,-840.2 1103.78,-866.24 1127,-891 1144.52,-909.68 1139.96,-924.81 1163,-936 1289.11,-997.27 1728.31,-950.38 1876.63,-932.31"/>
<polygon fill="#757575" stroke="#757575" points="1877.3,-935.75 1886.8,-931.06 1876.45,-928.8 1877.3,-935.75"/>
</g>
<!-- ../entities/PlayerPrefab.ts&#45;&gt;../Component.ts -->
<g id="edge66" class="edge">
<title>../entities/PlayerPrefab.ts&#45;&gt;../Component.ts</title>
<path fill="none" stroke="#757575" d="M1058.53,-825.56C1076.93,-839.45 1107.1,-864.25 1127,-891 1149.07,-920.66 1134.13,-942.9 1163,-966 1234.23,-1022.97 1275.5,-986.24 1363,-1012 1379.32,-1016.8 1382.53,-1020.75 1399,-1025 1538.24,-1060.91 1574.7,-1076 1718.5,-1076 1718.5,-1076 1718.5,-1076 1928,-1076 2035.8,-1076 2074.54,-1080.14 2164,-1020 2236.12,-971.52 2284.8,-875.48 2303.7,-833.02"/>
<polygon fill="#757575" stroke="#757575" points="2306.99,-834.24 2307.77,-823.67 2300.57,-831.45 2306.99,-834.24"/>
</g>
<!-- ../entities/PlayerPrefab.ts&#45;&gt;../EntityManager.ts -->
<g id="edge67" class="edge">
<title>../entities/PlayerPrefab.ts&#45;&gt;../EntityManager.ts</title>
<path fill="none" stroke="#757575" d="M1100.12,-825.53C1110.24,-829.86 1119.81,-835.81 1127,-844 1177.37,-901.39 1109.02,-957.99 1163,-1012 1227.27,-1076.31 1282.84,-1012.09 1363,-1055 1382.67,-1065.53 1380.63,-1077.33 1399,-1090 1416.08,-1101.78 1436.72,-1111.88 1454.53,-1119.51"/>
<polygon fill="#757575" stroke="#757575" points="1453.51,-1122.87 1464.09,-1123.49 1456.2,-1116.41 1453.51,-1122.87"/>
</g>
<!-- ../entities/PlayerPrefab.ts&#45;&gt;../HeadingDirection.ts -->
<g id="edge68" class="edge">
<title>../entities/PlayerPrefab.ts&#45;&gt;../HeadingDirection.ts</title>
<path fill="none" stroke="#757575" d="M1049.42,-802.11C1065.99,-773.01 1107.98,-695.44 1127,-625 1166.04,-480.43 1123.29,-434.38 1163,-290 1183.79,-214.42 1228.26,-132.03 1249.8,-94.59"/>
<polygon fill="#757575" stroke="#757575" points="1252.99,-96.07 1255,-85.66 1246.94,-92.55 1252.99,-96.07"/>
</g>
<!-- ../entities/PlayerPrefab.ts&#45;&gt;../units/convert.ts -->
<g id="edge76" class="edge">
<title>../entities/PlayerPrefab.ts&#45;&gt;../units/convert.ts</title>
<path fill="none" stroke="#757575" d="M1049.35,-802.09C1065.76,-772.95 1107.43,-695.29 1127,-625 1162.07,-499.03 1088.11,-440.19 1163,-333 1364.16,-45.09 1880.1,-136.83 2049.05,-176.15"/>
<polygon fill="#757575" stroke="#757575" points="2048.42,-179.6 2058.96,-178.49 2050.03,-172.79 2048.42,-179.6"/>
</g>
<!-- ../entities/PlayerPrefab.ts&#45;&gt;../Input.ts -->
<g id="edge69" class="edge">
<title>../entities/PlayerPrefab.ts&#45;&gt;../Input.ts</title>
<path fill="none" stroke="#757575" d="M1100.8,-825.5C1110.74,-829.83 1120.07,-835.79 1127,-844 1186.97,-915.01 1100.09,-981.58 1163,-1050 1176.66,-1064.86 1197.69,-1071.65 1216.86,-1074.61"/>
<polygon fill="#757575" stroke="#757575" points="1216.61,-1078.1 1226.96,-1075.86 1217.46,-1071.16 1216.61,-1078.1"/>
</g>
<!-- ../entities/PlayerPrefab.ts&#45;&gt;../Message.ts -->
<g id="edge70" class="edge">
<title>../entities/PlayerPrefab.ts&#45;&gt;../Message.ts</title>
<path fill="none" stroke="#757575" d="M1125.31,-823.84C1242.19,-833.11 1456.58,-832.53 1594,-727 1619.58,-707.36 1612.12,-690.84 1630,-664 1653.28,-629.04 1683.77,-590.85 1702.21,-568.46"/>
<polygon fill="#757575" stroke="#757575" points="1704.96,-570.62 1708.64,-560.69 1699.57,-566.16 1704.96,-570.62"/>
</g>
<!-- ../entities/PlayerPrefab.ts&#45;&gt;../systems/TileSystem.ts -->
<g id="edge75" class="edge">
<title>../entities/PlayerPrefab.ts&#45;&gt;../systems/TileSystem.ts</title>
<path fill="none" stroke="#757575" d="M1066.42,-825.51C1090.36,-836.6 1128.48,-853.11 1163,-863 1255.49,-889.51 1516.61,-961.16 1594,-904 1637.76,-871.68 1592.21,-826.14 1630,-787 1688.48,-726.44 1755.19,-789.75 1809,-725 1877.66,-642.39 1775.4,-567.82 1845,-486 1847.99,-482.49 1851.45,-479.45 1855.23,-476.81"/>
<polygon fill="#757575" stroke="#757575" points="1857.11,-479.77 1863.94,-471.67 1853.55,-473.74 1857.11,-479.77"/>
</g>
<!-- ../entities/PlayerPrefab.ts&#45;&gt;../constants.ts -->
<g id="edge71" class="edge">
<title>../entities/PlayerPrefab.ts&#45;&gt;../constants.ts</title>
<path fill="none" stroke="#757575" d="M957.76,-823.32C898.05,-823.31 816.71,-815.27 751,-787 720.85,-774.03 692.9,-746.97 677.77,-727.84"/>
<polygon fill="#757575" stroke="#757575" points="680.51,-725.65 671.76,-719.68 674.88,-729.81 680.51,-725.65"/>
</g>
<!-- ../entities/PlayerPrefab.ts&#45;&gt;../entities/WallEntity.ts -->
<g id="edge72" class="edge">
<title>../entities/PlayerPrefab.ts&#45;&gt;../entities/WallEntity.ts</title>
<path fill="none" stroke="#757575" d="M1097.61,-802.45C1127.74,-796.14 1165.26,-788.27 1196.84,-781.65"/>
<polygon fill="#757575" stroke="#757575" points="1197.8,-785.03 1206.87,-779.55 1196.37,-778.18 1197.8,-785.03"/>
</g>
<!-- ../entities/PlayerPrefab.ts&#45;&gt;../messages.ts -->
<g id="edge73" class="edge">
<title>../entities/PlayerPrefab.ts&#45;&gt;../messages.ts</title>
<path fill="none" stroke="#757575" d="M1048.9,-802.46C1064.66,-773.51 1105.62,-695.14 1127,-625 1154.36,-535.26 1102.69,-488.86 1163,-417 1198.23,-375.02 1348.49,-337.16 1434.46,-318.41"/>
<polygon fill="#757575" stroke="#757575" points="1435.33,-321.8 1444.36,-316.27 1433.85,-314.96 1435.33,-321.8"/>
</g>
<!-- ../entities/PlayerPrefab.ts&#45;&gt;../systems/BehaviorSystem.ts -->
<g id="edge74" class="edge">
<title>../entities/PlayerPrefab.ts&#45;&gt;../systems/BehaviorSystem.ts</title>
<path fill="none" stroke="#757575" d="M1117.05,-825.52C1197.78,-837.99 1326.3,-857.85 1410.79,-870.91"/>
<polygon fill="#757575" stroke="#757575" points="1410.46,-874.4 1420.87,-872.47 1411.53,-867.48 1410.46,-874.4"/>
</g>
<!-- ../entities/RoosterEntity.ts&#45;&gt;../Component.ts -->
<g id="edge77" class="edge">
<title>../entities/RoosterEntity.ts&#45;&gt;../Component.ts</title>
<path fill="none" stroke="#757575" d="M839.34,-909.51C848.91,-945.72 883.48,-1058.1 956,-1113 1031.38,-1170.06 1069.1,-1151.04 1163,-1162 1536.64,-1205.62 1634.25,-1168.7 2009,-1136 2078.2,-1129.96 2109.56,-1159.14 2164,-1116 2199.71,-1087.7 2181.12,-1061.47 2200,-1020 2232.17,-949.34 2278.2,-869.58 2300.06,-832.71"/>
<polygon fill="#757575" stroke="#757575" points="2303.2,-834.28 2305.31,-823.9 2297.19,-830.7 2303.2,-834.28"/>
</g>
<!-- ../entities/RoosterEntity.ts&#45;&gt;../EntityManager.ts -->
<g id="edge78" class="edge">
<title>../entities/RoosterEntity.ts&#45;&gt;../EntityManager.ts</title>
<path fill="none" stroke="#757575" d="M841.55,-909.7C855.27,-940.04 896.23,-1021.83 956,-1064 1096.54,-1163.16 1310.05,-1157.19 1421.66,-1145.47"/>
<polygon fill="#757575" stroke="#757575" points="1422.25,-1148.92 1431.81,-1144.36 1421.49,-1141.97 1422.25,-1148.92"/>
</g>
<!-- ../entities/RoosterEntity.ts&#45;&gt;../Message.ts -->
<g id="edge79" class="edge">
<title>../entities/RoosterEntity.ts&#45;&gt;../Message.ts</title>
<path fill="none" stroke="#757575" d="M847.36,-886.21C867.24,-865.2 911.52,-820.85 956,-793 1192.52,-644.92 1527.04,-579.03 1660.37,-557.49"/>
<polygon fill="#757575" stroke="#757575" points="1661.05,-560.93 1670.37,-555.9 1659.95,-554.02 1661.05,-560.93"/>
</g>
<!-- ../entities/RoosterEntity.ts&#45;&gt;../constants.ts -->
<g id="edge80" class="edge">
<title>../entities/RoosterEntity.ts&#45;&gt;../constants.ts</title>
<path fill="none" stroke="#757575" d="M758.38,-886.42C755.8,-884.75 753.33,-882.95 751,-881 703.1,-840.88 678.87,-766.83 670.03,-729.77"/>
<polygon fill="#757575" stroke="#757575" points="673.35,-728.54 667.78,-719.53 666.51,-730.05 673.35,-728.54"/>
</g>
<!-- ../entities/RoosterEntity.ts&#45;&gt;../entities/PlayerPrefab.ts -->
<g id="edge81" class="edge">
<title>../entities/RoosterEntity.ts&#45;&gt;../entities/PlayerPrefab.ts</title>
<path fill="none" stroke="#757575" d="M864.44,-886.5C900.33,-871.72 962.75,-846.01 1002.82,-829.52"/>
<polygon fill="#757575" stroke="#757575" points="1004.33,-832.68 1012.25,-825.63 1001.67,-826.21 1004.33,-832.68"/>
</g>
<!-- ../entities/RoosterEntity.ts&#45;&gt;../messages.ts -->
<g id="edge82" class="edge">
<title>../entities/RoosterEntity.ts&#45;&gt;../messages.ts</title>
<path fill="none" stroke="#757575" d="M838.12,-886.48C848.95,-814.35 918.18,-423.76 1163,-299 1255.24,-251.99 1381.37,-274.27 1448.68,-291.83"/>
<polygon fill="#757575" stroke="#757575" points="1448,-295.27 1458.57,-294.49 1449.82,-288.51 1448,-295.27"/>
</g>
<!-- ../entities/RoosterEntity.ts&#45;&gt;../systems/BehaviorSystem.ts -->
<g id="edge83" class="edge">
<title>../entities/RoosterEntity.ts&#45;&gt;../systems/BehaviorSystem.ts</title>
<path fill="none" stroke="#757575" d="M848.16,-909.55C906.26,-965.72 1169.54,-1203.23 1363,-1096 1438.05,-1054.4 1476.21,-950.62 1489.69,-905.51"/>
<polygon fill="#757575" stroke="#757575" points="1493.14,-906.19 1492.53,-895.61 1486.41,-904.26 1493.14,-906.19"/>
</g>
<!-- ../entities/ToggleButtonEntity.ts&#45;&gt;../Component.ts -->
<g id="edge85" class="edge">
<title>../entities/ToggleButtonEntity.ts&#45;&gt;../Component.ts</title>
<path fill="none" stroke="#757575" d="M1299.82,-426.44C1361.13,-408.43 1489.65,-378.46 1594,-406 1700.23,-434.04 1721.12,-462.06 1809,-528 1826.85,-541.39 1825.52,-552.11 1845,-563 1972.66,-634.41 2039.13,-567.82 2164,-644 2196.66,-663.93 2266.72,-752.31 2297.49,-792.27"/>
<polygon fill="#757575" stroke="#757575" points="2294.74,-794.43 2303.6,-800.23 2300.29,-790.17 2294.74,-794.43"/>
</g>
<!-- ../entities/ToggleButtonEntity.ts&#45;&gt;../Animation.ts -->
<g id="edge84" class="edge">
<title>../entities/ToggleButtonEntity.ts&#45;&gt;../Animation.ts</title>
<path fill="none" stroke="#757575" d="M1363.18,-448.28C1387.55,-450.81 1412.92,-453.44 1434.84,-455.71"/>
<polygon fill="#757575" stroke="#757575" points="1434.68,-459.21 1444.99,-456.76 1435.4,-452.25 1434.68,-459.21"/>
</g>
<!-- ../entities/ToggleButtonEntity.ts&#45;&gt;../EntityManager.ts -->
<g id="edge86" class="edge">
<title>../entities/ToggleButtonEntity.ts&#45;&gt;../EntityManager.ts</title>
<path fill="none" stroke="#757575" d="M1328.46,-449.57C1341.76,-454.9 1354.34,-462.67 1363,-474 1421.24,-550.17 1376.24,-810.85 1399,-904 1418.87,-985.35 1463.49,-1075.1 1484.35,-1114.52"/>
<polygon fill="#757575" stroke="#757575" points="1481.31,-1116.26 1489.12,-1123.42 1487.49,-1112.95 1481.31,-1116.26"/>
</g>
<!-- ../entities/ToggleButtonEntity.ts&#45;&gt;../units/convert.ts -->
<g id="edge92" class="edge">
<title>../entities/ToggleButtonEntity.ts&#45;&gt;../units/convert.ts</title>
<path fill="none" stroke="#757575" d="M1273.52,-426.3C1301.5,-392.04 1382.52,-293.81 1399,-285 1608.82,-172.83 1902.14,-175.73 2034.21,-184"/>
<polygon fill="#757575" stroke="#757575" points="2034.38,-187.52 2044.58,-184.68 2034.84,-180.53 2034.38,-187.52"/>
</g>
<!-- ../entities/ToggleButtonEntity.ts&#45;&gt;../Message.ts -->
<g id="edge87" class="edge">
<title>../entities/ToggleButtonEntity.ts&#45;&gt;../Message.ts</title>
<path fill="none" stroke="#757575" d="M1307.63,-426.48C1373.81,-411.51 1501.63,-392.61 1594,-441 1618.58,-453.88 1609.97,-472.8 1630,-492 1646.74,-508.04 1668.63,-522.19 1686.45,-532.37"/>
<polygon fill="#757575" stroke="#757575" points="1684.91,-535.52 1695.35,-537.33 1688.31,-529.4 1684.91,-535.52"/>
</g>
<!-- ../entities/ToggleButtonEntity.ts&#45;&gt;../Query.ts -->
<g id="edge88" class="edge">
<title>../entities/ToggleButtonEntity.ts&#45;&gt;../Query.ts</title>
<path fill="none" stroke="#757575" d="M1289.94,-426.42C1310.08,-417.25 1338.6,-403.88 1363,-391 1379.38,-382.35 1381.12,-374.83 1399,-370 1530.69,-334.4 1875.91,-409.03 2009,-439 2024.7,-442.54 2041.67,-447.13 2056.83,-451.53"/>
<polygon fill="#757575" stroke="#757575" points="2055.92,-454.91 2066.5,-454.37 2057.89,-448.19 2055.92,-454.91"/>
</g>
<!-- ../entities/ToggleButtonEntity.ts&#45;&gt;../constants.ts -->
<g id="edge89" class="edge">
<title>../entities/ToggleButtonEntity.ts&#45;&gt;../constants.ts</title>
<path fill="none" stroke="#757575" d="M1163,-436.2C1051.57,-434.67 870.53,-444.74 751,-536 701.02,-574.16 679.22,-648.92 670.74,-686.21"/>
<polygon fill="#757575" stroke="#757575" points="667.29,-685.57 668.6,-696.08 674.13,-687.05 667.29,-685.57"/>
</g>
<!-- ../entities/ToggleButtonEntity.ts&#45;&gt;../messages.ts -->
<g id="edge90" class="edge">
<title>../entities/ToggleButtonEntity.ts&#45;&gt;../messages.ts</title>
<path fill="none" stroke="#757575" d="M1301.89,-426.46C1321.76,-419 1345.53,-407.72 1363,-392 1386.12,-371.2 1374.18,-350.74 1399,-332 1409.27,-324.24 1421.69,-318.8 1434.15,-314.98"/>
<polygon fill="#757575" stroke="#757575" points="1435.39,-318.27 1444.11,-312.25 1433.54,-311.52 1435.39,-318.27"/>
</g>
<!-- ../entities/ToggleButtonEntity.ts&#45;&gt;../systems/BehaviorSystem.ts -->
<g id="edge91" class="edge">
<title>../entities/ToggleButtonEntity.ts&#45;&gt;../systems/BehaviorSystem.ts</title>
<path fill="none" stroke="#757575" d="M1322.54,-449.56C1337.33,-454.9 1352.08,-462.68 1363,-474 1473.21,-588.27 1491.75,-794.85 1494.87,-862.16"/>
<polygon fill="#757575" stroke="#757575" points="1491.38,-862.54 1495.27,-872.4 1498.38,-862.27 1491.38,-862.54"/>
</g>
<!-- ../entities/ToggleWall.ts&#45;&gt;../Component.ts -->
<g id="edge94" class="edge">
<title>../entities/ToggleWall.ts&#45;&gt;../Component.ts</title>
<path fill="none" stroke="#757575" d="M1308.38,-506.52C1334.72,-513.36 1368.76,-522.18 1399,-530 1597.19,-581.24 1646.24,-596.02 1845,-645 1986.41,-679.85 2029.45,-664.25 2164,-720 2211.48,-739.67 2261.18,-773.62 2289.35,-794.32"/>
<polygon fill="#757575" stroke="#757575" points="2287.26,-797.12 2297.37,-800.28 2291.43,-791.51 2287.26,-797.12"/>
</g>
<!-- ../entities/ToggleWall.ts&#45;&gt;../Animation.ts -->
<g id="edge93" class="edge">
<title>../entities/ToggleWall.ts&#45;&gt;../Animation.ts</title>
<path fill="none" stroke="#757575" d="M1340.76,-484.06C1371.38,-479.69 1406.11,-474.74 1434.9,-470.64"/>
<polygon fill="#757575" stroke="#757575" points="1435.41,-474.1 1444.81,-469.23 1434.42,-467.17 1435.41,-474.1"/>
</g>
<!-- ../entities/ToggleWall.ts&#45;&gt;../EntityManager.ts -->
<g id="edge95" class="edge">
<title>../entities/ToggleWall.ts&#45;&gt;../EntityManager.ts</title>
<path fill="none" stroke="#757575" d="M1270.95,-506.92C1288.98,-538.36 1337.63,-626.6 1363,-706 1390.22,-791.2 1373.61,-818.24 1399,-904 1422.77,-984.3 1465.42,-1074.58 1485.07,-1114.33"/>
<polygon fill="#757575" stroke="#757575" points="1481.95,-1115.92 1489.54,-1123.31 1488.22,-1112.8 1481.95,-1115.92"/>
</g>
<!-- ../entities/ToggleWall.ts&#45;&gt;../Message.ts -->
<g id="edge96" class="edge">
<title>../entities/ToggleWall.ts&#45;&gt;../Message.ts</title>
<path fill="none" stroke="#757575" d="M1340.58,-500.25C1407.6,-505.31 1507.51,-513.97 1594,-526 1615.8,-529.03 1639.59,-533.21 1660.48,-537.17"/>
<polygon fill="#757575" stroke="#757575" points="1660,-540.64 1670.48,-539.1 1661.32,-533.77 1660,-540.64"/>
</g>
<!-- ../entities/ToggleWall.ts&#45;&gt;../constants.ts -->
<g id="edge97" class="edge">
<title>../entities/ToggleWall.ts&#45;&gt;../constants.ts</title>
<path fill="none" stroke="#757575" d="M1185.46,-500.76C1080,-506.76 887.58,-524.64 751,-609 719.24,-628.62 694.55,-664.59 680.16,-687.55"/>
<polygon fill="#757575" stroke="#757575" points="677.08,-685.88 674.8,-696.22 683.03,-689.55 677.08,-685.88"/>
</g>
<!-- ../entities/ToggleWall.ts&#45;&gt;../messages.ts -->
<g id="edge98" class="edge">
<title>../entities/ToggleWall.ts&#45;&gt;../messages.ts</title>
<path fill="none" stroke="#757575" d="M1309.17,-483.35C1326.92,-477.48 1346.86,-469.18 1363,-458 1416.17,-421.17 1461.61,-358.33 1482.78,-326.2"/>
<polygon fill="#757575" stroke="#757575" points="1485.83,-327.94 1488.33,-317.64 1479.95,-324.14 1485.83,-327.94"/>
</g>
<!-- ../entities/ToggleWall.ts&#45;&gt;../systems/BehaviorSystem.ts -->
<g id="edge99" class="edge">
<title>../entities/ToggleWall.ts&#45;&gt;../systems/BehaviorSystem.ts</title>
<path fill="none" stroke="#757575" d="M1270.93,-506.64C1303.48,-561.34 1441.37,-793.05 1483.34,-863.56"/>
<polygon fill="#757575" stroke="#757575" points="1480.48,-865.6 1488.6,-872.4 1486.49,-862.02 1480.48,-865.6"/>
</g>
<!-- ../entities/WallEntity.ts&#45;&gt;../Component.ts -->
<g id="edge100" class="edge">
<title>../entities/WallEntity.ts&#45;&gt;../Component.ts</title>
<path fill="none" stroke="#757575" d="M1337.08,-769.26C1346.74,-772.27 1355.77,-776.95 1363,-784 1425.16,-844.62 1337.8,-914.41 1399,-976 1500.96,-1078.61 1573.85,-1038 1718.5,-1038 1718.5,-1038 1718.5,-1038 1928,-1038 2036.01,-1038 2071.58,-1035.9 2164,-980 2227.29,-941.72 2278.44,-867.71 2300.6,-832.1"/>
<polygon fill="#757575" stroke="#757575" points="2303.62,-833.88 2305.84,-823.53 2297.64,-830.24 2303.62,-833.88"/>
</g>
<!-- ../entities/WallEntity.ts&#45;&gt;../EntityManager.ts -->
<g id="edge101" class="edge">
<title>../entities/WallEntity.ts&#45;&gt;../EntityManager.ts</title>
<path fill="none" stroke="#757575" d="M1294.53,-779.66C1317.15,-789.94 1346.75,-807.17 1363,-832 1417.26,-914.9 1350.52,-965.59 1399,-1052 1414.78,-1080.12 1443.91,-1103.14 1466.06,-1117.75"/>
<polygon fill="#757575" stroke="#757575" points="1464.45,-1120.87 1474.76,-1123.3 1468.21,-1114.97 1464.45,-1120.87"/>
</g>
<!-- ../entities/WallEntity.ts&#45;&gt;../Message.ts -->
<g id="edge102" class="edge">
<title>../entities/WallEntity.ts&#45;&gt;../Message.ts</title>
<path fill="none" stroke="#757575" d="M1337.15,-759.93C1407.27,-749.56 1513.98,-726.7 1594,-678 1641.74,-648.94 1683.76,-597.18 1704.6,-568.86"/>
<polygon fill="#757575" stroke="#757575" points="1707.59,-570.71 1710.6,-560.55 1701.91,-566.61 1707.59,-570.71"/>
</g>
<!-- ../entities/WallEntity.ts&#45;&gt;../constants.ts -->
<g id="edge103" class="edge">
<title>../entities/WallEntity.ts&#45;&gt;../constants.ts</title>
<path fill="none" stroke="#757575" d="M1188.66,-773.61C1088.9,-774.83 905.2,-767.91 751,-741 730.11,-737.35 706.98,-730.64 690.13,-723.82"/>
<polygon fill="#757575" stroke="#757575" points="691.09,-720.42 680.53,-719.59 688.27,-726.83 691.09,-720.42"/>
</g>
<!-- ../entities/WallEntity.ts&#45;&gt;../messages.ts -->
<g id="edge104" class="edge">
<title>../entities/WallEntity.ts&#45;&gt;../messages.ts</title>
<path fill="none" stroke="#757575" d="M1337.24,-763.44C1346.99,-759.9 1356.01,-754.66 1363,-747 1409.14,-696.41 1374.31,-504.86 1399,-441 1416.82,-394.89 1454.11,-349.94 1476.76,-325.31"/>
<polygon fill="#757575" stroke="#757575" points="1479.55,-327.45 1483.83,-317.76 1474.44,-322.67 1479.55,-327.45"/>
</g>
<!-- ../entities/WallEntity.ts&#45;&gt;../systems/BehaviorSystem.ts -->
<g id="edge105" class="edge">
<title>../entities/WallEntity.ts&#45;&gt;../systems/BehaviorSystem.ts</title>
<path fill="none" stroke="#757575" d="M1282.43,-779.52C1302.46,-792.12 1335.29,-813.06 1363,-832 1379.29,-843.14 1381.18,-849.52 1399,-858 1408.5,-862.52 1418.91,-866.36 1429.27,-869.58"/>
<polygon fill="#757575" stroke="#757575" points="1428.57,-873.03 1439.15,-872.49 1430.55,-866.31 1428.57,-873.03"/>
</g>
<!-- ../messages.ts&#45;&gt;../Error.ts -->
<g id="edge110" class="edge">
<title>../messages.ts&#45;&gt;../Error.ts</title>
<path fill="none" stroke="#757575" d="M1548.77,-307.91C1573.34,-308.73 1603.19,-309.6 1630,-310 1694.58,-310.97 2073.96,-309 2103.5,-309 2103.5,-309 2103.5,-309 2699.5,-309 2794.41,-309 2826.82,-299.28 2910,-345 2934.79,-358.63 2955.4,-384.34 2967.81,-402.52"/>
<polygon fill="#757575" stroke="#757575" points="2965.12,-404.79 2973.53,-411.23 2970.97,-400.95 2965.12,-404.79"/>
</g>
<!-- ../messages.ts&#45;&gt;../units/convert.ts -->
<g id="edge113" class="edge">
<title>../messages.ts&#45;&gt;../units/convert.ts</title>
<path fill="none" stroke="#757575" d="M1548.6,-305.91C1642.24,-304.39 1846.62,-294.69 2009,-242 2034.1,-233.85 2060.21,-218.92 2078.6,-207.13"/>
<polygon fill="#757575" stroke="#757575" points="2080.53,-210.06 2086.98,-201.65 2076.69,-204.2 2080.53,-210.06"/>
</g>
<!-- ../messages.ts&#45;&gt;../Message.ts -->
<g id="edge111" class="edge">
<title>../messages.ts&#45;&gt;../Message.ts</title>
<path fill="none" stroke="#757575" d="M1508.63,-317.5C1526.73,-336.27 1563.57,-374.71 1594,-408 1633.13,-450.82 1677.9,-502.1 1701.64,-529.48"/>
<polygon fill="#757575" stroke="#757575" points="1699.11,-531.91 1708.31,-537.18 1704.41,-527.33 1699.11,-531.91"/>
</g>
<!-- ../messages.ts&#45;&gt;../systems/TileSystem.ts -->
<g id="edge112" class="edge">
<title>../messages.ts&#45;&gt;../systems/TileSystem.ts</title>
<path fill="none" stroke="#757575" d="M1527.42,-317.52C1554.23,-327.78 1594.65,-343.12 1630,-356 1719.5,-388.61 1824.86,-425.2 1882.63,-445.11"/>
<polygon fill="#757575" stroke="#757575" points="1881.58,-448.45 1892.17,-448.4 1883.86,-441.83 1881.58,-448.45"/>
</g>
<!-- ../systems/BehaviorSystem.ts&#45;&gt;../Action.ts -->
<g id="edge118" class="edge">
<title>../systems/BehaviorSystem.ts&#45;&gt;../Action.ts</title>
<path fill="none" stroke="#757575" d="M1589.76,-895.53C1603.25,-897.1 1616.98,-898.64 1630,-900 1716.64,-909.03 1817.77,-917.46 1876.58,-922.15"/>
<polygon fill="#757575" stroke="#757575" points="1876.45,-925.65 1886.7,-922.96 1877.01,-918.68 1876.45,-925.65"/>
</g>
<!-- ../systems/BehaviorSystem.ts&#45;&gt;../Component.ts -->
<g id="edge119" class="edge">
<title>../systems/BehaviorSystem.ts&#45;&gt;../Component.ts</title>
<path fill="none" stroke="#757575" d="M1594.23,-878.16C1724.05,-869.93 1961.74,-853.49 2164,-832 2191.18,-829.11 2221.06,-825.23 2246.84,-821.65"/>
<polygon fill="#757575" stroke="#757575" points="2247.46,-825.1 2256.88,-820.24 2246.49,-818.16 2247.46,-825.1"/>
</g>
<!-- ../systems/BehaviorSystem.ts&#45;&gt;../Message.ts -->
<g id="edge120" class="edge">
<title>../systems/BehaviorSystem.ts&#45;&gt;../Message.ts</title>
<path fill="none" stroke="#757575" d="M1523.93,-872.43C1545.57,-861.71 1575.53,-843.84 1594,-820 1623.96,-781.34 1610.49,-760.85 1630,-716 1653.62,-661.7 1687.92,-600.96 1706.1,-569.85"/>
<polygon fill="#757575" stroke="#757575" points="1709.35,-571.23 1711.41,-560.84 1703.32,-567.68 1709.35,-571.23"/>
</g>
<!-- ../systems/BehaviorSystem.ts&#45;&gt;../systems/TileSystem.ts -->
<g id="edge123" class="edge">
<title>../systems/BehaviorSystem.ts&#45;&gt;../systems/TileSystem.ts</title>
<path fill="none" stroke="#757575" d="M1521.28,-872.48C1542.4,-861.34 1573.07,-842.81 1594,-820 1616.59,-795.38 1605.77,-777.01 1630,-754 1694,-693.22 1754.95,-737.77 1809,-668 1859.5,-602.81 1790.15,-547.57 1845,-486 1848.27,-482.33 1852.05,-479.18 1856.16,-476.47"/>
<polygon fill="#757575" stroke="#757575" points="1858,-479.45 1865.01,-471.5 1854.57,-473.35 1858,-479.45"/>
</g>
<!-- ../systems/BehaviorSystem.ts&#45;&gt;../System.ts -->
<g id="edge121" class="edge">
<title>../systems/BehaviorSystem.ts&#45;&gt;../System.ts</title>
<path fill="none" stroke="#757575" d="M1594.21,-873.48C1697.12,-862.14 1864.67,-843.25 2009,-825 2022.35,-823.31 2036.76,-821.38 2050.19,-819.54"/>
<polygon fill="#757575" stroke="#757575" points="2050.82,-822.99 2060.25,-818.15 2049.86,-816.05 2050.82,-822.99"/>
</g>
<!-- ../systems/BehaviorSystem.ts&#45;&gt;../systems/ActionSystem.ts -->
<g id="edge122" class="edge">
<title>../systems/BehaviorSystem.ts&#45;&gt;../systems/ActionSystem.ts</title>
<path fill="none" stroke="#757575" d="M1552.68,-872.43C1566.48,-868.65 1581.04,-863.87 1594,-858 1611.51,-850.06 1612.58,-842.14 1630,-834 1639.35,-829.64 1649.59,-825.82 1659.69,-822.56"/>
<polygon fill="#757575" stroke="#757575" points="1660.77,-825.89 1669.3,-819.6 1658.71,-819.2 1660.77,-825.89"/>
</g>
<!-- ../systems/ActionSystem.ts&#45;&gt;../Action.ts -->
<g id="edge114" class="edge">
<title>../systems/ActionSystem.ts&#45;&gt;../Action.ts</title>
<path fill="none" stroke="#757575" d="M1740.58,-819.53C1777.18,-840.55 1854.87,-885.15 1897.14,-909.43"/>
<polygon fill="#757575" stroke="#757575" points="1895.43,-912.48 1905.84,-914.42 1898.91,-906.41 1895.43,-912.48"/>
</g>
<!-- ../systems/ActionSystem.ts&#45;&gt;../Component.ts -->
<g id="edge115" class="edge">
<title>../systems/ActionSystem.ts&#45;&gt;../Component.ts</title>
<path fill="none" stroke="#757575" d="M1809.36,-798.93C1898.97,-791.12 2041.21,-782.36 2164,-791 2191.29,-792.92 2221.19,-796.8 2246.96,-800.71"/>
<polygon fill="#757575" stroke="#757575" points="2246.57,-804.19 2256.99,-802.26 2247.64,-797.27 2246.57,-804.19"/>
</g>
<!-- ../systems/ActionSystem.ts&#45;&gt;../Error.ts -->
<g id="edge116" class="edge">
<title>../systems/ActionSystem.ts&#45;&gt;../Error.ts</title>
<path fill="none" stroke="#757575" d="M1770.93,-796.4C1785.26,-790.72 1799.53,-782.34 1809,-770 1876.82,-681.65 1770.55,-604.84 1845,-522 1895.29,-466.04 1950.95,-527.87 2009,-480 2037.84,-456.22 2014.15,-425.09 2045,-404 2143.39,-336.73 2193.31,-385 2312.5,-385 2312.5,-385 2312.5,-385 2699.5,-385 2783.61,-385 2880.63,-401.93 2935.85,-413.19"/>
<polygon fill="#757575" stroke="#757575" points="2935.16,-416.62 2945.66,-415.22 2936.58,-409.76 2935.16,-416.62"/>
</g>
<!-- ../systems/ActionSystem.ts&#45;&gt;../System.ts -->
<g id="edge117" class="edge">
<title>../systems/ActionSystem.ts&#45;&gt;../System.ts</title>
<path fill="none" stroke="#757575" d="M1809.33,-808.93C1883.8,-809.71 1987.68,-810.79 2050,-811.44"/>
<polygon fill="#757575" stroke="#757575" points="2050.34,-814.94 2060.38,-811.55 2050.42,-807.95 2050.34,-814.94"/>
</g>
<!-- ../systems/LogSystem.ts&#45;&gt;../Observable.ts -->
<g id="edge124" class="edge">
<title>../systems/LogSystem.ts&#45;&gt;../Observable.ts</title>
<path fill="none" stroke="#757575" d="M1996.94,-554.51C2045.28,-564.2 2110.56,-580.63 2164,-606 2181.83,-614.46 2181.67,-624.69 2200,-632 2346.58,-690.49 2534.73,-699.76 2632.29,-700.17"/>
<polygon fill="#757575" stroke="#757575" points="2632.3,-703.67 2642.3,-700.18 2632.31,-696.67 2632.3,-703.67"/>
</g>
<!-- ../systems/LogSystem.ts&#45;&gt;../System.ts -->
<g id="edge125" class="edge">
<title>../systems/LogSystem.ts&#45;&gt;../System.ts</title>
<path fill="none" stroke="#757575" d="M1935.54,-554.56C1962.71,-596.21 2055.82,-738.91 2090.41,-791.94"/>
<polygon fill="#757575" stroke="#757575" points="2087.59,-794.02 2095.99,-800.48 2093.45,-790.2 2087.59,-794.02"/>
</g>
<!-- ../systems/LogSystem.ts&#45;&gt;../UIElement.ts -->
<g id="edge126" class="edge">
<title>../systems/LogSystem.ts&#45;&gt;../UIElement.ts</title>
<path fill="none" stroke="#757575" d="M2009.1,-532.81C2021.12,-531.65 2033.37,-530.64 2045,-530 2097.81,-527.08 2118.52,-503 2164,-530 2192.73,-547.06 2171.99,-577.78 2200,-596 2275.9,-645.39 2384.85,-641.91 2452.69,-633.2"/>
<polygon fill="#757575" stroke="#757575" points="2453.37,-636.64 2462.8,-631.82 2452.42,-629.7 2453.37,-636.64"/>
</g>
<!-- auth.ts -->
<g id="node41" class="node">
<title>auth.ts</title>
<path fill="none" stroke="#c6c5fe" d="M516.33,-699.5C516.33,-699.5 474.67,-699.5 474.67,-699.5 470.83,-699.5 467,-695.67 467,-691.83 467,-691.83 467,-684.17 467,-684.17 467,-680.33 470.83,-676.5 474.67,-676.5 474.67,-676.5 516.33,-676.5 516.33,-676.5 520.17,-676.5 524,-680.33 524,-684.17 524,-684.17 524,-691.83 524,-691.83 524,-695.67 520.17,-699.5 516.33,-699.5"/>
<text text-anchor="middle" x="495.5" y="-684.3" font-family="Arial" font-size="14.00" fill="#c6c5fe">auth.ts</text>
</g>
<!-- auth.ts&#45;&gt;../Error.ts -->
<g id="edge133" class="edge">
<title>auth.ts&#45;&gt;../Error.ts</title>
<path fill="none" stroke="#757575" d="M496.61,-676.35C498.13,-585.94 520.1,0 834.5,0 834.5,0 834.5,0 2699.5,0 2801.25,0 2849.67,-8.07 2910,-90 2947.1,-140.38 2971.06,-335.25 2978.23,-401.11"/>
<polygon fill="#757575" stroke="#757575" points="2974.77,-401.62 2979.31,-411.19 2981.73,-400.87 2974.77,-401.62"/>
</g>
<!-- auth.ts&#45;&gt;../constants.ts -->
<g id="edge134" class="edge">
<title>auth.ts&#45;&gt;../constants.ts</title>
<path fill="none" stroke="#757575" d="M524.16,-691.3C546.09,-693.92 577.52,-697.67 605.02,-700.96"/>
<polygon fill="#757575" stroke="#757575" points="604.61,-704.43 614.96,-702.14 605.44,-697.48 604.61,-704.43"/>
</g>
<!-- entity.ts -->
<g id="node42" class="node">
<title>entity.ts</title>
<path fill="none" stroke="#c6c5fe" d="M153.33,-1392.5C153.33,-1392.5 106.67,-1392.5 106.67,-1392.5 102.83,-1392.5 99,-1388.67 99,-1384.83 99,-1384.83 99,-1377.17 99,-1377.17 99,-1373.33 102.83,-1369.5 106.67,-1369.5 106.67,-1369.5 153.33,-1369.5 153.33,-1369.5 157.17,-1369.5 161,-1373.33 161,-1377.17 161,-1377.17 161,-1384.83 161,-1384.83 161,-1388.67 157.17,-1392.5 153.33,-1392.5"/>
<text text-anchor="middle" x="130" y="-1377.3" font-family="Arial" font-size="14.00" fill="#c6c5fe">entity.ts</text>
</g>
<!-- entity.ts&#45;&gt;../Error.ts -->
<g id="edge136" class="edge">
<title>entity.ts&#45;&gt;../Error.ts</title>
<path fill="none" stroke="#757575" d="M131.95,-1392.89C135.08,-1423.7 147.88,-1506.63 197,-1548 300.31,-1635 359.44,-1610 494.5,-1610 494.5,-1610 494.5,-1610 2699.5,-1610 2804.45,-1610 2893.07,-1327.07 2910,-1265 2954.07,-1103.38 2975.62,-559.95 2979.75,-444.62"/>
<polygon fill="#757575" stroke="#757575" points="2983.25,-444.67 2980.11,-434.56 2976.26,-444.43 2983.25,-444.67"/>
</g>
<!-- entity.ts&#45;&gt;../Observable.ts -->
<g id="edge138" class="edge">
<title>entity.ts&#45;&gt;../Observable.ts</title>
<path fill="none" stroke="#757575" d="M134.37,-1392.85C141.68,-1416.33 161.26,-1468.84 197,-1496 305.64,-1578.58 358.03,-1572 494.5,-1572 494.5,-1572 494.5,-1572 1928,-1572 2157.41,-1572 2270.31,-1607.56 2427,-1440 2476.79,-1386.76 2437.13,-1348.14 2463,-1280 2497.6,-1188.87 2529.99,-1177.33 2569,-1088 2628.22,-952.39 2676.06,-780.27 2691.9,-720.56"/>
<polygon fill="#757575" stroke="#757575" points="2695.32,-721.31 2694.48,-710.75 2688.55,-719.53 2695.32,-721.31"/>
</g>
<!-- entity.ts&#45;&gt;../EntityManager.ts -->
<g id="edge135" class="edge">
<title>entity.ts&#45;&gt;../EntityManager.ts</title>
<path fill="none" stroke="#757575" d="M161.12,-1372.29C223.09,-1354.46 363.17,-1314.66 412,-1305 829.97,-1222.3 949.18,-1285.44 1363,-1184 1396.8,-1175.72 1433.83,-1161.56 1460.13,-1150.59"/>
<polygon fill="#757575" stroke="#757575" points="1461.81,-1153.68 1469.66,-1146.56 1459.08,-1147.24 1461.81,-1153.68"/>
</g>
<!-- entity.ts&#45;&gt;../NetworkedEntityServer.ts -->
<g id="edge137" class="edge">
<title>entity.ts&#45;&gt;../NetworkedEntityServer.ts</title>
<path fill="none" stroke="#757575" d="M161.16,-1388.61C180.75,-1393.56 206.88,-1400.15 230.13,-1406.02"/>
<polygon fill="#757575" stroke="#757575" points="229.34,-1409.43 239.89,-1408.49 231.05,-1402.65 229.34,-1409.43"/>
</g>
<!-- entity.ts&#45;&gt;../functions/Networking.ts -->
<g id="edge140" class="edge">
<title>entity.ts&#45;&gt;../functions/Networking.ts</title>
<path fill="none" stroke="#757575" d="M133.95,-1369.35C140.61,-1345.87 159.23,-1293.29 197,-1272 285.84,-1221.94 411.16,-1278.95 466.44,-1309.36"/>
<polygon fill="#757575" stroke="#757575" points="464.88,-1312.49 475.31,-1314.34 468.31,-1306.39 464.88,-1312.49"/>
</g>
<!-- entity.ts&#45;&gt;../util.ts -->
<g id="edge141" class="edge">
<title>entity.ts&#45;&gt;../util.ts</title>
<path fill="none" stroke="#757575" d="M141.1,-1392.56C153.19,-1405.74 174.62,-1427.12 197,-1440 317.19,-1509.15 355.83,-1534 494.5,-1534 494.5,-1534 494.5,-1534 1928,-1534 2064.09,-1534 2216.52,-1467.54 2281,-1436.11"/>
<polygon fill="#757575" stroke="#757575" points="2282.8,-1439.12 2290.22,-1431.56 2279.7,-1432.84 2282.8,-1439.12"/>
</g>
<!-- entity.ts&#45;&gt;../common.ts -->
<g id="edge139" class="edge">
<title>entity.ts&#45;&gt;../common.ts</title>
<path fill="none" stroke="#757575" d="M140.49,-1369.21C152.31,-1355.26 173.81,-1332.28 197,-1319 206.89,-1313.34 218.12,-1308.82 229.18,-1305.24"/>
<polygon fill="#757575" stroke="#757575" points="230.25,-1308.57 238.82,-1302.33 228.23,-1301.87 230.25,-1308.57"/>
</g>
<!-- index.ts -->
<g id="node43" class="node">
<title>index.ts</title>
<path fill="none" stroke="#c6c5fe" d="M55.33,-739.5C55.33,-739.5 7.67,-739.5 7.67,-739.5 3.83,-739.5 0,-735.67 0,-731.83 0,-731.83 0,-724.17 0,-724.17 0,-720.33 3.83,-716.5 7.67,-716.5 7.67,-716.5 55.33,-716.5 55.33,-716.5 59.17,-716.5 63,-720.33 63,-724.17 63,-724.17 63,-731.83 63,-731.83 63,-735.67 59.17,-739.5 55.33,-739.5"/>
<text text-anchor="middle" x="31.5" y="-724.3" font-family="Arial" font-size="14.00" fill="#c6c5fe">index.ts</text>
</g>
<!-- index.ts&#45;&gt;../constants.ts -->
<g id="edge142" class="edge">
<title>index.ts&#45;&gt;../constants.ts</title>
<path fill="none" stroke="#757575" d="M63.39,-727.02C162.48,-723.88 473.56,-714.03 604.73,-709.88"/>
<polygon fill="#757575" stroke="#757575" points="605.1,-713.37 614.99,-709.55 604.88,-706.37 605.1,-713.37"/>
</g>
<!-- index.ts&#45;&gt;auth.ts -->
<g id="edge143" class="edge">
<title>index.ts&#45;&gt;auth.ts</title>
<path fill="none" stroke="#757575" d="M63.13,-720.6C74.35,-718.14 87.19,-715.62 99,-714 229.33,-696.09 385.58,-690.43 456.34,-688.71"/>
<polygon fill="#757575" stroke="#757575" points="456.63,-692.21 466.55,-688.48 456.47,-685.21 456.63,-692.21"/>
</g>
<!-- index.ts&#45;&gt;entity.ts -->
<g id="edge144" class="edge">
<title>index.ts&#45;&gt;entity.ts</title>
<path fill="none" stroke="#757575" d="M34.22,-739.61C45.62,-816.8 110.5,-1255.84 125.78,-1359.2"/>
<polygon fill="#757575" stroke="#757575" points="122.36,-1360 127.28,-1369.38 129.28,-1358.97 122.36,-1360"/>
</g>
</g>
</svg>
