<?xml version="1.0" encoding="UTF-8" standalone="no"?>
<!DOCTYPE svg PUBLIC "-//W3C//DTD SVG 1.1//EN"
 "http://www.w3.org/Graphics/SVG/1.1/DTD/svg11.dtd">
<!-- Generated by graphviz version 2.43.0 (0)
 -->
<!-- Title: G Pages: 1 -->
<svg width="1344pt" height="786pt"
 viewBox="0.00 0.00 1344.20 785.57" xmlns="http://www.w3.org/2000/svg" xmlns:xlink="http://www.w3.org/1999/xlink">
<g id="graph0" class="graph" transform="scale(1 1) rotate(0) translate(21.6 763.97)">
<title>G</title>
<polygon fill="#111111" stroke="transparent" points="-21.6,21.6 -21.6,-763.97 1322.6,-763.97 1322.6,21.6 -21.6,21.6"/>
<!-- ../Debug.ts -->
<g id="node1" class="node">
<title>../Debug.ts</title>
<path fill="none" stroke="#c6c5fe" d="M1186.33,-398C1186.33,-398 1119.67,-398 1119.67,-398 1115.83,-398 1112,-394.17 1112,-390.33 1112,-390.33 1112,-382.67 1112,-382.67 1112,-378.83 1115.83,-375 1119.67,-375 1119.67,-375 1186.33,-375 1186.33,-375 1190.17,-375 1194,-378.83 1194,-382.67 1194,-382.67 1194,-390.33 1194,-390.33 1194,-394.17 1190.17,-398 1186.33,-398"/>
<text text-anchor="middle" x="1153" y="-382.8" font-family="Arial" font-size="14.00" fill="#c6c5fe">../Debug.ts</text>
</g>
<!-- ../Error.ts -->
<g id="node2" class="node">
<title>../Error.ts</title>
<path fill="none" stroke="#cfffac" d="M1293.33,-398C1293.33,-398 1237.67,-398 1237.67,-398 1233.83,-398 1230,-394.17 1230,-390.33 1230,-390.33 1230,-382.67 1230,-382.67 1230,-378.83 1233.83,-375 1237.67,-375 1237.67,-375 1293.33,-375 1293.33,-375 1297.17,-375 1301,-378.83 1301,-382.67 1301,-382.67 1301,-390.33 1301,-390.33 1301,-394.17 1297.17,-398 1293.33,-398"/>
<text text-anchor="middle" x="1265.5" y="-382.8" font-family="Arial" font-size="14.00" fill="#cfffac">../Error.ts</text>
</g>
<!-- ../Debug.ts&#45;&gt;../Error.ts -->
<g id="edge1" class="edge">
<title>../Debug.ts&#45;&gt;../Error.ts</title>
<path fill="none" stroke="#757575" d="M1194.21,-386.5C1202.54,-386.5 1211.37,-386.5 1219.85,-386.5"/>
<polygon fill="#757575" stroke="#757575" points="1219.97,-390 1229.97,-386.5 1219.97,-383 1219.97,-390"/>
</g>
<!-- ../HeadingDirection.ts -->
<g id="node3" class="node">
<title>../HeadingDirection.ts</title>
<path fill="none" stroke="#c6c5fe" d="M690.33,-182C690.33,-182 559.67,-182 559.67,-182 555.83,-182 552,-178.17 552,-174.33 552,-174.33 552,-166.67 552,-166.67 552,-162.83 555.83,-159 559.67,-159 559.67,-159 690.33,-159 690.33,-159 694.17,-159 698,-162.83 698,-166.67 698,-166.67 698,-174.33 698,-174.33 698,-178.17 694.17,-182 690.33,-182"/>
<text text-anchor="middle" x="625" y="-166.8" font-family="Arial" font-size="14.00" fill="#c6c5fe">../HeadingDirection.ts</text>
</g>
<!-- ../HeadingDirection.ts&#45;&gt;../Error.ts -->
<g id="edge2" class="edge">
<title>../HeadingDirection.ts&#45;&gt;../Error.ts</title>
<path fill="none" stroke="#757575" d="M679.94,-182C697.16,-185.4 716.33,-188.9 734,-191.5 835.64,-206.43 1110.05,-178.29 1194,-237.5 1236.86,-267.73 1254.49,-331.05 1261.04,-364.58"/>
<polygon fill="#757575" stroke="#757575" points="1257.65,-365.49 1262.86,-374.72 1264.54,-364.26 1257.65,-365.49"/>
</g>
<!-- ../units/convert.ts -->
<g id="node4" class="node">
<title>../units/convert.ts</title>
<path fill="none" stroke="#cfffac" d="M845.33,-182C845.33,-182 741.67,-182 741.67,-182 737.83,-182 734,-178.17 734,-174.33 734,-174.33 734,-166.67 734,-166.67 734,-162.83 737.83,-159 741.67,-159 741.67,-159 845.33,-159 845.33,-159 849.17,-159 853,-162.83 853,-166.67 853,-166.67 853,-174.33 853,-174.33 853,-178.17 849.17,-182 845.33,-182"/>
<text text-anchor="middle" x="793.5" y="-166.8" font-family="Arial" font-size="14.00" fill="#cfffac">../units/convert.ts</text>
</g>
<!-- ../HeadingDirection.ts&#45;&gt;../units/convert.ts -->
<g id="edge3" class="edge">
<title>../HeadingDirection.ts&#45;&gt;../units/convert.ts</title>
<path fill="none" stroke="#757575" d="M698.06,-170.5C706.56,-170.5 715.21,-170.5 723.67,-170.5"/>
<polygon fill="#757575" stroke="#757575" points="723.85,-174 733.85,-170.5 723.85,-167 723.85,-174"/>
</g>
<!-- ../Input.ts -->
<g id="node5" class="node">
<title>../Input.ts</title>
<path fill="none" stroke="#cfffac" d="M653.33,-223C653.33,-223 596.67,-223 596.67,-223 592.83,-223 589,-219.17 589,-215.33 589,-215.33 589,-207.67 589,-207.67 589,-203.83 592.83,-200 596.67,-200 596.67,-200 653.33,-200 653.33,-200 657.17,-200 661,-203.83 661,-207.67 661,-207.67 661,-215.33 661,-215.33 661,-219.17 657.17,-223 653.33,-223"/>
<text text-anchor="middle" x="625" y="-207.8" font-family="Arial" font-size="14.00" fill="#cfffac">../Input.ts</text>
</g>
<!-- ../Log.ts -->
<g id="node6" class="node">
<title>../Log.ts</title>
<path fill="none" stroke="#c6c5fe" d="M818.33,-141C818.33,-141 768.67,-141 768.67,-141 764.83,-141 761,-137.17 761,-133.33 761,-133.33 761,-125.67 761,-125.67 761,-121.83 764.83,-118 768.67,-118 768.67,-118 818.33,-118 818.33,-118 822.17,-118 826,-121.83 826,-125.67 826,-125.67 826,-133.33 826,-133.33 826,-137.17 822.17,-141 818.33,-141"/>
<text text-anchor="middle" x="793.5" y="-125.8" font-family="Arial" font-size="14.00" fill="#c6c5fe">../Log.ts</text>
</g>
<!-- ../Log.ts&#45;&gt;../Error.ts -->
<g id="edge4" class="edge">
<title>../Log.ts&#45;&gt;../Error.ts</title>
<path fill="none" stroke="#757575" d="M826.3,-120.12C879.5,-106.04 989.26,-83.98 1076,-112.5 1137.9,-132.85 1154.67,-147.55 1194,-199.5 1233.29,-251.39 1252.85,-327.65 1260.5,-364.7"/>
<polygon fill="#757575" stroke="#757575" points="1257.14,-365.73 1262.5,-374.86 1264.01,-364.38 1257.14,-365.73"/>
</g>
<!-- ../Observable.ts -->
<g id="node7" class="node">
<title>../Observable.ts</title>
<path fill="none" stroke="#c6c5fe" d="M1030.83,-398C1030.83,-398 934.17,-398 934.17,-398 930.33,-398 926.5,-394.17 926.5,-390.33 926.5,-390.33 926.5,-382.67 926.5,-382.67 926.5,-378.83 930.33,-375 934.17,-375 934.17,-375 1030.83,-375 1030.83,-375 1034.67,-375 1038.5,-378.83 1038.5,-382.67 1038.5,-382.67 1038.5,-390.33 1038.5,-390.33 1038.5,-394.17 1034.67,-398 1030.83,-398"/>
<text text-anchor="middle" x="982.5" y="-382.8" font-family="Arial" font-size="14.00" fill="#c6c5fe">../Observable.ts</text>
</g>
<!-- ../Log.ts&#45;&gt;../Observable.ts -->
<g id="edge5" class="edge">
<title>../Log.ts&#45;&gt;../Observable.ts</title>
<path fill="none" stroke="#757575" d="M826.18,-136.26C835.57,-139.41 845.38,-143.97 853,-150.5 889.29,-181.59 949.78,-314.03 972.5,-365.72"/>
<polygon fill="#757575" stroke="#757575" points="969.32,-367.16 976.53,-374.93 975.73,-364.36 969.32,-367.16"/>
</g>
<!-- ../collections/InstanceMap.ts -->
<g id="node8" class="node">
<title>../collections/InstanceMap.ts</title>
<path fill="none" stroke="#cfffac" d="M1068.33,-23C1068.33,-23 896.67,-23 896.67,-23 892.83,-23 889,-19.17 889,-15.33 889,-15.33 889,-7.67 889,-7.67 889,-3.83 892.83,0 896.67,0 896.67,0 1068.33,0 1068.33,0 1072.17,0 1076,-3.83 1076,-7.67 1076,-7.67 1076,-15.33 1076,-15.33 1076,-19.17 1072.17,-23 1068.33,-23"/>
<text text-anchor="middle" x="982.5" y="-7.8" font-family="Arial" font-size="14.00" fill="#cfffac">../collections/InstanceMap.ts</text>
</g>
<!-- ../Log.ts&#45;&gt;../collections/InstanceMap.ts -->
<g id="edge6" class="edge">
<title>../Log.ts&#45;&gt;../collections/InstanceMap.ts</title>
<path fill="none" stroke="#757575" d="M802.28,-117.68C816.72,-96.75 849.77,-53.35 889,-31.5 892.11,-29.77 895.35,-28.19 898.69,-26.74"/>
<polygon fill="#757575" stroke="#757575" points="900.23,-29.9 908.29,-23.02 897.7,-23.37 900.23,-29.9"/>
</g>
<!-- ../functions/Array.ts -->
<g id="node9" class="node">
<title>../functions/Array.ts</title>
<path fill="none" stroke="#cfffac" d="M1040.33,-64C1040.33,-64 924.67,-64 924.67,-64 920.83,-64 917,-60.17 917,-56.33 917,-56.33 917,-48.67 917,-48.67 917,-44.83 920.83,-41 924.67,-41 924.67,-41 1040.33,-41 1040.33,-41 1044.17,-41 1048,-44.83 1048,-48.67 1048,-48.67 1048,-56.33 1048,-56.33 1048,-60.17 1044.17,-64 1040.33,-64"/>
<text text-anchor="middle" x="982.5" y="-48.8" font-family="Arial" font-size="14.00" fill="#cfffac">../functions/Array.ts</text>
</g>
<!-- ../Log.ts&#45;&gt;../functions/Array.ts -->
<g id="edge7" class="edge">
<title>../Log.ts&#45;&gt;../functions/Array.ts</title>
<path fill="none" stroke="#757575" d="M813.09,-117.87C831.72,-106.6 861.52,-89.62 889,-78.5 899.76,-74.15 911.51,-70.24 922.92,-66.85"/>
<polygon fill="#757575" stroke="#757575" points="924.17,-70.14 932.81,-64.02 922.24,-63.41 924.17,-70.14"/>
</g>
<!-- ../functions/Map.ts -->
<g id="node10" class="node">
<title>../functions/Map.ts</title>
<path fill="none" stroke="#cfffac" d="M1038.33,-185C1038.33,-185 926.67,-185 926.67,-185 922.83,-185 919,-181.17 919,-177.33 919,-177.33 919,-169.67 919,-169.67 919,-165.83 922.83,-162 926.67,-162 926.67,-162 1038.33,-162 1038.33,-162 1042.17,-162 1046,-165.83 1046,-169.67 1046,-169.67 1046,-177.33 1046,-177.33 1046,-181.17 1042.17,-185 1038.33,-185"/>
<text text-anchor="middle" x="982.5" y="-169.8" font-family="Arial" font-size="14.00" fill="#cfffac">../functions/Map.ts</text>
</g>
<!-- ../Log.ts&#45;&gt;../functions/Map.ts -->
<g id="edge8" class="edge">
<title>../Log.ts&#45;&gt;../functions/Map.ts</title>
<path fill="none" stroke="#757575" d="M826.36,-137.89C844.65,-142.64 868.07,-148.58 889,-153.5 897.93,-155.6 907.36,-157.73 916.65,-159.79"/>
<polygon fill="#757575" stroke="#757575" points="916.13,-163.25 926.65,-161.98 917.63,-156.42 916.13,-163.25"/>
</g>
<!-- ../functions/Set.ts -->
<g id="node11" class="node">
<title>../functions/Set.ts</title>
<path fill="none" stroke="#cfffac" d="M1034.83,-144C1034.83,-144 930.17,-144 930.17,-144 926.33,-144 922.5,-140.17 922.5,-136.33 922.5,-136.33 922.5,-128.67 922.5,-128.67 922.5,-124.83 926.33,-121 930.17,-121 930.17,-121 1034.83,-121 1034.83,-121 1038.67,-121 1042.5,-124.83 1042.5,-128.67 1042.5,-128.67 1042.5,-136.33 1042.5,-136.33 1042.5,-140.17 1038.67,-144 1034.83,-144"/>
<text text-anchor="middle" x="982.5" y="-128.8" font-family="Arial" font-size="14.00" fill="#cfffac">../functions/Set.ts</text>
</g>
<!-- ../Log.ts&#45;&gt;../functions/Set.ts -->
<g id="edge9" class="edge">
<title>../Log.ts&#45;&gt;../functions/Set.ts</title>
<path fill="none" stroke="#757575" d="M826.22,-130.01C849.71,-130.39 882.62,-130.91 912.09,-131.39"/>
<polygon fill="#757575" stroke="#757575" points="912.3,-134.89 922.36,-131.55 912.41,-127.89 912.3,-134.89"/>
</g>
<!-- ../Observable.ts&#45;&gt;../Debug.ts -->
<g id="edge10" class="edge">
<title>../Observable.ts&#45;&gt;../Debug.ts</title>
<path fill="none" stroke="#757575" d="M1038.67,-386.5C1059.02,-386.5 1081.96,-386.5 1101.84,-386.5"/>
<polygon fill="#757575" stroke="#757575" points="1101.93,-390 1111.93,-386.5 1101.93,-383 1101.93,-390"/>
</g>
<!-- ../Monad.ts -->
<g id="node12" class="node">
<title>../Monad.ts</title>
<path fill="none" stroke="#cfffac" d="M827.83,-377C827.83,-377 759.17,-377 759.17,-377 755.33,-377 751.5,-373.17 751.5,-369.33 751.5,-369.33 751.5,-361.67 751.5,-361.67 751.5,-357.83 755.33,-354 759.17,-354 759.17,-354 827.83,-354 827.83,-354 831.67,-354 835.5,-357.83 835.5,-361.67 835.5,-361.67 835.5,-369.33 835.5,-369.33 835.5,-373.17 831.67,-377 827.83,-377"/>
<text text-anchor="middle" x="793.5" y="-361.8" font-family="Arial" font-size="14.00" fill="#cfffac">../Monad.ts</text>
</g>
<!-- ../Route.ts -->
<g id="node13" class="node">
<title>../Route.ts</title>
<path fill="none" stroke="#c6c5fe" d="M497.33,-141C497.33,-141 434.67,-141 434.67,-141 430.83,-141 427,-137.17 427,-133.33 427,-133.33 427,-125.67 427,-125.67 427,-121.83 430.83,-118 434.67,-118 434.67,-118 497.33,-118 497.33,-118 501.17,-118 505,-121.83 505,-125.67 505,-125.67 505,-133.33 505,-133.33 505,-137.17 501.17,-141 497.33,-141"/>
<text text-anchor="middle" x="466" y="-125.8" font-family="Arial" font-size="14.00" fill="#c6c5fe">../Route.ts</text>
</g>
<!-- ../globals.ts -->
<g id="node14" class="node">
<title>../globals.ts</title>
<path fill="none" stroke="#cfffac" d="M659.83,-100C659.83,-100 590.17,-100 590.17,-100 586.33,-100 582.5,-96.17 582.5,-92.33 582.5,-92.33 582.5,-84.67 582.5,-84.67 582.5,-80.83 586.33,-77 590.17,-77 590.17,-77 659.83,-77 659.83,-77 663.67,-77 667.5,-80.83 667.5,-84.67 667.5,-84.67 667.5,-92.33 667.5,-92.33 667.5,-96.17 663.67,-100 659.83,-100"/>
<text text-anchor="middle" x="625" y="-84.8" font-family="Arial" font-size="14.00" fill="#cfffac">../globals.ts</text>
</g>
<!-- ../Route.ts&#45;&gt;../globals.ts -->
<g id="edge11" class="edge">
<title>../Route.ts&#45;&gt;../globals.ts</title>
<path fill="none" stroke="#757575" d="M505.01,-119.58C525.31,-114.27 550.59,-107.67 572.62,-101.92"/>
<polygon fill="#757575" stroke="#757575" points="573.7,-105.25 582.49,-99.34 571.93,-98.48 573.7,-105.25"/>
</g>
<!-- ../util.ts -->
<g id="node15" class="node">
<title>../util.ts</title>
<path fill="none" stroke="#c6c5fe" d="M646.83,-141C646.83,-141 603.17,-141 603.17,-141 599.33,-141 595.5,-137.17 595.5,-133.33 595.5,-133.33 595.5,-125.67 595.5,-125.67 595.5,-121.83 599.33,-118 603.17,-118 603.17,-118 646.83,-118 646.83,-118 650.67,-118 654.5,-121.83 654.5,-125.67 654.5,-125.67 654.5,-133.33 654.5,-133.33 654.5,-137.17 650.67,-141 646.83,-141"/>
<text text-anchor="middle" x="625" y="-125.8" font-family="Arial" font-size="14.00" fill="#c6c5fe">../util.ts</text>
</g>
<!-- ../Route.ts&#45;&gt;../util.ts -->
<g id="edge12" class="edge">
<title>../Route.ts&#45;&gt;../util.ts</title>
<path fill="none" stroke="#757575" d="M505.01,-129.5C529.3,-129.5 560.73,-129.5 585.19,-129.5"/>
<polygon fill="#757575" stroke="#757575" points="585.2,-133 595.2,-129.5 585.2,-126 585.2,-133"/>
</g>
<!-- ../util.ts&#45;&gt;../Log.ts -->
<g id="edge15" class="edge">
<title>../util.ts&#45;&gt;../Log.ts</title>
<path fill="none" stroke="#757575" d="M654.62,-129.5C681.07,-129.5 720.69,-129.5 750.68,-129.5"/>
<polygon fill="#757575" stroke="#757575" points="750.85,-133 760.85,-129.5 750.85,-126 750.85,-133"/>
</g>
<!-- ../constants.ts -->
<g id="node16" class="node">
<title>../constants.ts</title>
<path fill="none" stroke="#c6c5fe" d="M508.33,-223C508.33,-223 423.67,-223 423.67,-223 419.83,-223 416,-219.17 416,-215.33 416,-215.33 416,-207.67 416,-207.67 416,-203.83 419.83,-200 423.67,-200 423.67,-200 508.33,-200 508.33,-200 512.17,-200 516,-203.83 516,-207.67 516,-207.67 516,-215.33 516,-215.33 516,-219.17 512.17,-223 508.33,-223"/>
<text text-anchor="middle" x="466" y="-207.8" font-family="Arial" font-size="14.00" fill="#c6c5fe">../constants.ts</text>
</g>
<!-- ../constants.ts&#45;&gt;../HeadingDirection.ts -->
<g id="edge13" class="edge">
<title>../constants.ts&#45;&gt;../HeadingDirection.ts</title>
<path fill="none" stroke="#757575" d="M511.15,-199.97C529.46,-195.19 550.86,-189.6 570.08,-184.58"/>
<polygon fill="#757575" stroke="#757575" points="571.12,-187.93 579.91,-182.01 569.35,-181.15 571.12,-187.93"/>
</g>
<!-- ../constants.ts&#45;&gt;../Input.ts -->
<g id="edge14" class="edge">
<title>../constants.ts&#45;&gt;../Input.ts</title>
<path fill="none" stroke="#757575" d="M516.25,-211.5C536.22,-211.5 559.14,-211.5 578.69,-211.5"/>
<polygon fill="#757575" stroke="#757575" points="578.87,-215 588.87,-211.5 578.87,-208 578.87,-215"/>
</g>
<!-- Evaluator.ts -->
<g id="node17" class="node">
<title>Evaluator.ts</title>
<path fill="none" stroke="#c6c5fe" d="M501.83,-691C501.83,-691 430.17,-691 430.17,-691 426.33,-691 422.5,-687.17 422.5,-683.33 422.5,-683.33 422.5,-675.67 422.5,-675.67 422.5,-671.83 426.33,-668 430.17,-668 430.17,-668 501.83,-668 501.83,-668 505.67,-668 509.5,-671.83 509.5,-675.67 509.5,-675.67 509.5,-683.33 509.5,-683.33 509.5,-687.17 505.67,-691 501.83,-691"/>
<text text-anchor="middle" x="466" y="-675.8" font-family="Arial" font-size="14.00" fill="#c6c5fe">Evaluator.ts</text>
</g>
<!-- Evaluator.ts&#45;&gt;../Error.ts -->
<g id="edge16" class="edge">
<title>Evaluator.ts&#45;&gt;../Error.ts</title>
<path fill="none" stroke="#757575" d="M509.65,-679.29C571.85,-678.99 691.06,-678.5 792.5,-678.5 792.5,-678.5 792.5,-678.5 983.5,-678.5 1077.71,-678.5 1122.89,-715.3 1194,-653.5 1231.49,-620.92 1254.47,-466.19 1261.88,-408.37"/>
<polygon fill="#757575" stroke="#757575" points="1265.39,-408.52 1263.15,-398.16 1258.44,-407.65 1265.39,-408.52"/>
</g>
<!-- EventType.ts -->
<g id="node18" class="node">
<title>EventType.ts</title>
<path fill="none" stroke="#cfffac" d="M505.83,-493C505.83,-493 426.17,-493 426.17,-493 422.33,-493 418.5,-489.17 418.5,-485.33 418.5,-485.33 418.5,-477.67 418.5,-477.67 418.5,-473.83 422.33,-470 426.17,-470 426.17,-470 505.83,-470 505.83,-470 509.67,-470 513.5,-473.83 513.5,-477.67 513.5,-477.67 513.5,-485.33 513.5,-485.33 513.5,-489.17 509.67,-493 505.83,-493"/>
<text text-anchor="middle" x="466" y="-477.8" font-family="Arial" font-size="14.00" fill="#cfffac">EventType.ts</text>
</g>
<!-- Interpolator.ts -->
<g id="node19" class="node">
<title>Interpolator.ts</title>
<path fill="none" stroke="#c6c5fe" d="M280.83,-651C280.83,-651 198.17,-651 198.17,-651 194.33,-651 190.5,-647.17 190.5,-643.33 190.5,-643.33 190.5,-635.67 190.5,-635.67 190.5,-631.83 194.33,-628 198.17,-628 198.17,-628 280.83,-628 280.83,-628 284.67,-628 288.5,-631.83 288.5,-635.67 288.5,-635.67 288.5,-643.33 288.5,-643.33 288.5,-647.17 284.67,-651 280.83,-651"/>
<text text-anchor="middle" x="239.5" y="-635.8" font-family="Arial" font-size="14.00" fill="#c6c5fe">Interpolator.ts</text>
</g>
<!-- Interpolator.ts&#45;&gt;../Error.ts -->
<g id="edge17" class="edge">
<title>Interpolator.ts&#45;&gt;../Error.ts</title>
<path fill="none" stroke="#757575" d="M288.63,-639.5C361.29,-639.5 503.32,-639.5 624,-639.5 624,-639.5 624,-639.5 983.5,-639.5 1122.17,-639.5 1223.32,-467.24 1254.45,-407"/>
<polygon fill="#757575" stroke="#757575" points="1257.6,-408.53 1258.99,-398.03 1251.35,-405.37 1257.6,-408.53"/>
</g>
<!-- Interpolator.ts&#45;&gt;Evaluator.ts -->
<g id="edge18" class="edge">
<title>Interpolator.ts&#45;&gt;Evaluator.ts</title>
<path fill="none" stroke="#757575" d="M288.66,-648.08C324.93,-654.54 374.63,-663.4 412.03,-670.06"/>
<polygon fill="#757575" stroke="#757575" points="411.77,-673.57 422.22,-671.88 412.99,-666.68 411.77,-673.57"/>
</g>
<!-- collections.ts -->
<g id="node20" class="node">
<title>collections.ts</title>
<path fill="none" stroke="#c6c5fe" d="M505.33,-573C505.33,-573 426.67,-573 426.67,-573 422.83,-573 419,-569.17 419,-565.33 419,-565.33 419,-557.67 419,-557.67 419,-553.83 422.83,-550 426.67,-550 426.67,-550 505.33,-550 505.33,-550 509.17,-550 513,-553.83 513,-557.67 513,-557.67 513,-565.33 513,-565.33 513,-569.17 509.17,-573 505.33,-573"/>
<text text-anchor="middle" x="466" y="-557.8" font-family="Arial" font-size="14.00" fill="#c6c5fe">collections.ts</text>
</g>
<!-- Interpolator.ts&#45;&gt;collections.ts -->
<g id="edge19" class="edge">
<title>Interpolator.ts&#45;&gt;collections.ts</title>
<path fill="none" stroke="#757575" d="M273.63,-627.99C313,-614.31 378.81,-591.44 422.07,-576.42"/>
<polygon fill="#757575" stroke="#757575" points="423.44,-579.64 431.74,-573.06 421.14,-573.03 423.44,-579.64"/>
</g>
<!-- collections.ts&#45;&gt;../Observable.ts -->
<g id="edge21" class="edge">
<title>collections.ts&#45;&gt;../Observable.ts</title>
<path fill="none" stroke="#757575" d="M501.16,-549.88C591.62,-519.11 837.35,-435.53 937.81,-401.36"/>
<polygon fill="#757575" stroke="#757575" points="939.02,-404.65 947.36,-398.11 936.76,-398.02 939.02,-404.65"/>
</g>
<!-- Island.ts -->
<g id="node21" class="node">
<title>Island.ts</title>
<path fill="none" stroke="#c6c5fe" d="M650.83,-453C650.83,-453 599.17,-453 599.17,-453 595.33,-453 591.5,-449.17 591.5,-445.33 591.5,-445.33 591.5,-437.67 591.5,-437.67 591.5,-433.83 595.33,-430 599.17,-430 599.17,-430 650.83,-430 650.83,-430 654.67,-430 658.5,-433.83 658.5,-437.67 658.5,-437.67 658.5,-445.33 658.5,-445.33 658.5,-449.17 654.67,-453 650.83,-453"/>
<text text-anchor="middle" x="625" y="-437.8" font-family="Arial" font-size="14.00" fill="#c6c5fe">Island.ts</text>
</g>
<!-- collections.ts&#45;&gt;Island.ts -->
<g id="edge22" class="edge">
<title>collections.ts&#45;&gt;Island.ts</title>
<path fill="none" stroke="#757575" d="M491.57,-549.86C499.58,-545.7 508.38,-540.74 516,-535.5 533.92,-523.19 577.77,-483.82 603.75,-460.12"/>
<polygon fill="#757575" stroke="#757575" points="606.17,-462.64 611.19,-453.31 601.45,-457.48 606.17,-462.64"/>
</g>
<!-- Island.ts&#45;&gt;../Monad.ts -->
<g id="edge20" class="edge">
<title>Island.ts&#45;&gt;../Monad.ts</title>
<path fill="none" stroke="#757575" d="M651.29,-429.96C679.73,-416.97 726.09,-395.81 757.89,-381.3"/>
<polygon fill="#757575" stroke="#757575" points="759.6,-384.36 767.25,-377.03 756.7,-378 759.6,-384.36"/>
</g>
<!-- directives/RouteDirective.ts -->
<g id="node22" class="node">
<title>directives/RouteDirective.ts</title>
<path fill="none" stroke="#c6c5fe" d="M321.83,-201C321.83,-201 157.17,-201 157.17,-201 153.33,-201 149.5,-197.17 149.5,-193.33 149.5,-193.33 149.5,-185.67 149.5,-185.67 149.5,-181.83 153.33,-178 157.17,-178 157.17,-178 321.83,-178 321.83,-178 325.67,-178 329.5,-181.83 329.5,-185.67 329.5,-185.67 329.5,-193.33 329.5,-193.33 329.5,-197.17 325.67,-201 321.83,-201"/>
<text text-anchor="middle" x="239.5" y="-185.8" font-family="Arial" font-size="14.00" fill="#c6c5fe">directives/RouteDirective.ts</text>
</g>
<!-- directives/RouteDirective.ts&#45;&gt;../Route.ts -->
<g id="edge23" class="edge">
<title>directives/RouteDirective.ts&#45;&gt;../Route.ts</title>
<path fill="none" stroke="#757575" d="M283.79,-177.93C321.96,-167.73 377.51,-152.88 417.03,-142.32"/>
<polygon fill="#757575" stroke="#757575" points="417.95,-145.7 426.71,-139.73 416.15,-138.93 417.95,-145.7"/>
</g>
<!-- events.ts -->
<g id="node23" class="node">
<title>events.ts</title>
<path fill="none" stroke="#c6c5fe" d="M267.33,-513C267.33,-513 211.67,-513 211.67,-513 207.83,-513 204,-509.17 204,-505.33 204,-505.33 204,-497.67 204,-497.67 204,-493.83 207.83,-490 211.67,-490 211.67,-490 267.33,-490 267.33,-490 271.17,-490 275,-493.83 275,-497.67 275,-497.67 275,-505.33 275,-505.33 275,-509.17 271.17,-513 267.33,-513"/>
<text text-anchor="middle" x="239.5" y="-497.8" font-family="Arial" font-size="14.00" fill="#c6c5fe">events.ts</text>
</g>
<!-- events.ts&#45;&gt;EventType.ts -->
<g id="edge24" class="edge">
<title>events.ts&#45;&gt;EventType.ts</title>
<path fill="none" stroke="#757575" d="M275.09,-498.42C310.54,-495.26 366.26,-490.3 408.2,-486.56"/>
<polygon fill="#757575" stroke="#757575" points="408.62,-490.04 418.27,-485.66 408,-483.06 408.62,-490.04"/>
</g>
<!-- events.ts&#45;&gt;Island.ts -->
<g id="edge25" class="edge">
<title>events.ts&#45;&gt;Island.ts</title>
<path fill="none" stroke="#757575" d="M275.15,-507.25C328.08,-514.79 431.81,-524.63 516,-502.5 547.89,-494.12 580.27,-473.94 601.14,-459.07"/>
<polygon fill="#757575" stroke="#757575" points="603.34,-461.8 609.35,-453.08 599.21,-456.15 603.34,-461.8"/>
</g>
<!-- functions/createIslandElementConstructor.ts -->
<g id="node24" class="node">
<title>functions/createIslandElementConstructor.ts</title>
<path fill="none" stroke="#c6c5fe" d="M372.33,-319C372.33,-319 106.67,-319 106.67,-319 102.83,-319 99,-315.17 99,-311.33 99,-311.33 99,-303.67 99,-303.67 99,-299.83 102.83,-296 106.67,-296 106.67,-296 372.33,-296 372.33,-296 376.17,-296 380,-299.83 380,-303.67 380,-303.67 380,-311.33 380,-311.33 380,-315.17 376.17,-319 372.33,-319"/>
<text text-anchor="middle" x="239.5" y="-303.8" font-family="Arial" font-size="14.00" fill="#c6c5fe">functions/createIslandElementConstructor.ts</text>
</g>
<!-- functions/createIslandElementConstructor.ts&#45;&gt;../Error.ts -->
<g id="edge26" class="edge">
<title>functions/createIslandElementConstructor.ts&#45;&gt;../Error.ts</title>
<path fill="none" stroke="#757575" d="M288.3,-295.96C360.54,-279.57 502.04,-251.5 624,-251.5 624,-251.5 624,-251.5 983.5,-251.5 1090.28,-251.5 1199.36,-331.68 1243.79,-368.45"/>
<polygon fill="#757575" stroke="#757575" points="1241.65,-371.23 1251.55,-374.99 1246.16,-365.87 1241.65,-371.23"/>
</g>
<!-- functions/createIslandElementConstructor.ts&#45;&gt;../Observable.ts -->
<g id="edge28" class="edge">
<title>functions/createIslandElementConstructor.ts&#45;&gt;../Observable.ts</title>
<path fill="none" stroke="#757575" d="M380.27,-305.32C505.34,-305.92 693.09,-313.17 853,-345.5 883.5,-351.66 916.95,-362.47 942.08,-371.45"/>
<polygon fill="#757575" stroke="#757575" points="941.02,-374.79 951.62,-374.91 943.41,-368.21 941.02,-374.79"/>
</g>
<!-- functions/createIslandElementConstructor.ts&#45;&gt;../Monad.ts -->
<g id="edge27" class="edge">
<title>functions/createIslandElementConstructor.ts&#45;&gt;../Monad.ts</title>
<path fill="none" stroke="#757575" d="M379.6,-319.01C470.37,-326.99 591.37,-338.48 698,-351.5 712.04,-353.21 727.22,-355.34 741.21,-357.41"/>
<polygon fill="#757575" stroke="#757575" points="740.75,-360.88 751.16,-358.91 741.79,-353.96 740.75,-360.88"/>
</g>
<!-- functions/createIslandElementConstructor.ts&#45;&gt;../util.ts -->
<g id="edge30" class="edge">
<title>functions/createIslandElementConstructor.ts&#45;&gt;../util.ts</title>
<path fill="none" stroke="#757575" d="M256.72,-295.9C293.53,-269.71 382.77,-207.08 416,-191.5 473.16,-164.7 491.47,-168.45 552,-150.5 562.9,-147.27 574.73,-143.8 585.6,-140.63"/>
<polygon fill="#757575" stroke="#757575" points="586.63,-143.98 595.25,-137.82 584.67,-137.26 586.63,-143.98"/>
</g>
<!-- functions/createIslandElementConstructor.ts&#45;&gt;../constants.ts -->
<g id="edge29" class="edge">
<title>functions/createIslandElementConstructor.ts&#45;&gt;../constants.ts</title>
<path fill="none" stroke="#757575" d="M267.58,-295.92C307.78,-278.73 383.34,-246.42 428.42,-227.14"/>
<polygon fill="#757575" stroke="#757575" points="430.01,-230.27 437.82,-223.12 427.25,-223.83 430.01,-230.27"/>
</g>
<!-- functions/createIslandElementConstructor.ts&#45;&gt;collections.ts -->
<g id="edge32" class="edge">
<title>functions/createIslandElementConstructor.ts&#45;&gt;collections.ts</title>
<path fill="none" stroke="#757575" d="M250.73,-319.07C286.16,-359.16 403.85,-492.32 448.04,-542.31"/>
<polygon fill="#757575" stroke="#757575" points="445.47,-544.68 454.71,-549.86 450.71,-540.05 445.47,-544.68"/>
</g>
<!-- functions/createIslandElementConstructor.ts&#45;&gt;Island.ts -->
<g id="edge31" class="edge">
<title>functions/createIslandElementConstructor.ts&#45;&gt;Island.ts</title>
<path fill="none" stroke="#757575" d="M273.53,-319.04C343.08,-343.34 504.55,-399.76 581.61,-426.69"/>
<polygon fill="#757575" stroke="#757575" points="580.86,-430.13 591.46,-430.13 583.17,-423.53 580.86,-430.13"/>
</g>
<!-- index.ts -->
<g id="node25" class="node">
<title>index.ts</title>
<path fill="none" stroke="#c6c5fe" d="M55.33,-513C55.33,-513 7.67,-513 7.67,-513 3.83,-513 0,-509.17 0,-505.33 0,-505.33 0,-497.67 0,-497.67 0,-493.83 3.83,-490 7.67,-490 7.67,-490 55.33,-490 55.33,-490 59.17,-490 63,-493.83 63,-497.67 63,-497.67 63,-505.33 63,-505.33 63,-509.17 59.17,-513 55.33,-513"/>
<text text-anchor="middle" x="31.5" y="-497.8" font-family="Arial" font-size="14.00" fill="#c6c5fe">index.ts</text>
</g>
<!-- index.ts&#45;&gt;../Error.ts -->
<g id="edge33" class="edge">
<title>index.ts&#45;&gt;../Error.ts</title>
<path fill="none" stroke="#757575" d="M32.65,-513.1C33.76,-546.53 41.99,-643.5 99,-687.5 228.26,-787.27 301.71,-719.5 465,-719.5 465,-719.5 465,-719.5 983.5,-719.5 1078.34,-719.5 1124.71,-749.26 1194,-684.5 1234.77,-646.39 1256.08,-470.39 1262.43,-408.27"/>
<polygon fill="#757575" stroke="#757575" points="1265.94,-408.36 1263.45,-398.06 1258.98,-407.67 1265.94,-408.36"/>
</g>
<!-- index.ts&#45;&gt;../Observable.ts -->
<g id="edge35" class="edge">
<title>index.ts&#45;&gt;../Observable.ts</title>
<path fill="none" stroke="#757575" d="M43.44,-513.39C55.65,-525.79 76.66,-544.64 99,-553.5 271.7,-621.97 332.64,-612.41 516,-582.5 672.62,-556.95 710.03,-533.38 853,-464.5 890.27,-446.54 930.66,-420.91 956.01,-404"/>
<polygon fill="#757575" stroke="#757575" points="958.3,-406.68 964.64,-398.2 954.39,-400.88 958.3,-406.68"/>
</g>
<!-- index.ts&#45;&gt;../collections/InstanceMap.ts -->
<g id="edge36" class="edge">
<title>index.ts&#45;&gt;../collections/InstanceMap.ts</title>
<path fill="none" stroke="#757575" d="M33.34,-489.94C37.36,-437.21 56.35,-219.85 99,-169.5 211.46,-36.73 291,-30.5 465,-30.5 465,-30.5 465,-30.5 626,-30.5 711.12,-30.5 807.55,-25 878.48,-19.92"/>
<polygon fill="#757575" stroke="#757575" points="879.04,-23.39 888.76,-19.17 878.53,-16.41 879.04,-23.39"/>
</g>
<!-- index.ts&#45;&gt;../Monad.ts -->
<g id="edge34" class="edge">
<title>index.ts&#45;&gt;../Monad.ts</title>
<path fill="none" stroke="#757575" d="M42.42,-489.76C54.35,-476.52 75.72,-455.55 99,-445.5 322.6,-349.01 622.44,-354.71 741.08,-361.62"/>
<polygon fill="#757575" stroke="#757575" points="741.13,-365.13 751.32,-362.25 741.55,-358.14 741.13,-365.13"/>
</g>
<!-- index.ts&#45;&gt;Evaluator.ts -->
<g id="edge37" class="edge">
<title>index.ts&#45;&gt;Evaluator.ts</title>
<path fill="none" stroke="#757575" d="M33.35,-513.27C36.25,-543.69 48.59,-625.02 99,-660.5 147.99,-694.98 322.92,-689.02 412.02,-683.45"/>
<polygon fill="#757575" stroke="#757575" points="412.43,-686.93 422.19,-682.79 411.98,-679.95 412.43,-686.93"/>
</g>
<!-- index.ts&#45;&gt;Interpolator.ts -->
<g id="edge38" class="edge">
<title>index.ts&#45;&gt;Interpolator.ts</title>
<path fill="none" stroke="#757575" d="M35.87,-513.25C43.19,-536.48 62.85,-588.25 99,-613.5 122.55,-629.95 153.59,-636.81 180.41,-639.4"/>
<polygon fill="#757575" stroke="#757575" points="180.21,-642.89 190.46,-640.19 180.76,-635.92 180.21,-642.89"/>
</g>
<!-- index.ts&#45;&gt;collections.ts -->
<g id="edge40" class="edge">
<title>index.ts&#45;&gt;collections.ts</title>
<path fill="none" stroke="#757575" d="M63.28,-512.63C74.41,-516.28 87.15,-520.02 99,-522.5 207.21,-545.11 336.3,-554.97 408.64,-558.99"/>
<polygon fill="#757575" stroke="#757575" points="408.72,-562.5 418.9,-559.54 409.1,-555.51 408.72,-562.5"/>
</g>
<!-- index.ts&#45;&gt;Island.ts -->
<g id="edge39" class="edge">
<title>index.ts&#45;&gt;Island.ts</title>
<path fill="none" stroke="#757575" d="M63.28,-490.73C74.41,-487.24 87.15,-483.71 99,-481.5 275.99,-448.54 491.39,-442.62 581.34,-441.64"/>
<polygon fill="#757575" stroke="#757575" points="581.46,-445.14 591.42,-441.55 581.39,-438.14 581.46,-445.14"/>
</g>
<!-- index.ts&#45;&gt;directives/RouteDirective.ts -->
<g id="edge41" class="edge">
<title>index.ts&#45;&gt;directives/RouteDirective.ts</title>
<path fill="none" stroke="#757575" d="M33.51,-489.65C36.96,-455.23 50.88,-353.52 99,-287.5 126.1,-250.33 171.71,-222.17 203.37,-205.78"/>
<polygon fill="#757575" stroke="#757575" points="205.35,-208.7 212.71,-201.08 202.2,-202.45 205.35,-208.7"/>
</g>
<!-- index.ts&#45;&gt;events.ts -->
<g id="edge42" class="edge">
<title>index.ts&#45;&gt;events.ts</title>
<path fill="none" stroke="#757575" d="M63.34,-501.5C97.86,-501.5 154.1,-501.5 193.52,-501.5"/>
<polygon fill="#757575" stroke="#757575" points="193.65,-505 203.65,-501.5 193.65,-498 193.65,-505"/>
</g>
<!-- index.ts&#45;&gt;functions/createIslandElementConstructor.ts -->
<g id="edge43" class="edge">
<title>index.ts&#45;&gt;functions/createIslandElementConstructor.ts</title>
<path fill="none" stroke="#757575" d="M34.33,-489.83C39.33,-461.78 55.89,-390.04 99,-351.5 114.14,-337.96 133.44,-328.59 152.82,-322.1"/>
<polygon fill="#757575" stroke="#757575" points="154.12,-325.36 162.63,-319.05 152.04,-318.67 154.12,-325.36"/>
</g>
</g>
</svg>
