<?xml version="1.0" encoding="UTF-8" standalone="no"?>
<!DOCTYPE svg PUBLIC "-//W3C//DTD SVG 1.1//EN"
 "http://www.w3.org/Graphics/SVG/1.1/DTD/svg11.dtd">
<!-- Generated by graphviz version 2.43.0 (0)
 -->
<!-- Title: G Pages: 1 -->
<svg width="950pt" height="539pt"
 viewBox="0.00 0.00 950.20 539.11" xmlns="http://www.w3.org/2000/svg" xmlns:xlink="http://www.w3.org/1999/xlink">
<g id="graph0" class="graph" transform="scale(1 1) rotate(0) translate(21.6 517.51)">
<title>G</title>
<polygon fill="#111111" stroke="transparent" points="-21.6,21.6 -21.6,-517.51 928.6,-517.51 928.6,21.6 -21.6,21.6"/>
<!-- ../Debug.ts -->
<g id="node1" class="node">
<title>../Debug.ts</title>
<path fill="none" stroke="#c6c5fe" d="M666.33,-306.25C666.33,-306.25 599.67,-306.25 599.67,-306.25 595.83,-306.25 592,-302.42 592,-298.59 592,-298.59 592,-290.92 592,-290.92 592,-287.09 595.83,-283.25 599.67,-283.25 599.67,-283.25 666.33,-283.25 666.33,-283.25 670.17,-283.25 674,-287.09 674,-290.92 674,-290.92 674,-298.59 674,-298.59 674,-302.42 670.17,-306.25 666.33,-306.25"/>
<text text-anchor="middle" x="633" y="-291.05" font-family="Arial" font-size="14.00" fill="#c6c5fe">../Debug.ts</text>
</g>
<!-- ../Error.ts -->
<g id="node2" class="node">
<title>../Error.ts</title>
<path fill="none" stroke="#cfffac" d="M779.33,-366.25C779.33,-366.25 723.67,-366.25 723.67,-366.25 719.83,-366.25 716,-362.42 716,-358.59 716,-358.59 716,-350.92 716,-350.92 716,-347.09 719.83,-343.25 723.67,-343.25 723.67,-343.25 779.33,-343.25 779.33,-343.25 783.17,-343.25 787,-347.09 787,-350.92 787,-350.92 787,-358.59 787,-358.59 787,-362.42 783.17,-366.25 779.33,-366.25"/>
<text text-anchor="middle" x="751.5" y="-351.05" font-family="Arial" font-size="14.00" fill="#cfffac">../Error.ts</text>
</g>
<!-- ../Debug.ts&#45;&gt;../Error.ts -->
<g id="edge1" class="edge">
<title>../Debug.ts&#45;&gt;../Error.ts</title>
<path fill="none" stroke="#757575" d="M656.46,-306.32C674.27,-315.49 699.37,-328.42 719.15,-338.61"/>
<polygon fill="#757575" stroke="#757575" points="717.61,-341.75 728.11,-343.22 720.82,-335.53 717.61,-341.75"/>
</g>
<!-- ../Monad.ts -->
<g id="node3" class="node">
<title>../Monad.ts</title>
<path fill="none" stroke="#cfffac" d="M899.33,-112.25C899.33,-112.25 830.67,-112.25 830.67,-112.25 826.83,-112.25 823,-108.42 823,-104.59 823,-104.59 823,-96.92 823,-96.92 823,-93.09 826.83,-89.25 830.67,-89.25 830.67,-89.25 899.33,-89.25 899.33,-89.25 903.17,-89.25 907,-93.09 907,-96.92 907,-96.92 907,-104.59 907,-104.59 907,-108.42 903.17,-112.25 899.33,-112.25"/>
<text text-anchor="middle" x="865" y="-97.05" font-family="Arial" font-size="14.00" fill="#cfffac">../Monad.ts</text>
</g>
<!-- ../Observable.ts -->
<g id="node4" class="node">
<title>../Observable.ts</title>
<path fill="none" stroke="#c6c5fe" d="M531.33,-307.25C531.33,-307.25 434.67,-307.25 434.67,-307.25 430.83,-307.25 427,-303.42 427,-299.59 427,-299.59 427,-291.92 427,-291.92 427,-288.09 430.83,-284.25 434.67,-284.25 434.67,-284.25 531.33,-284.25 531.33,-284.25 535.17,-284.25 539,-288.09 539,-291.92 539,-291.92 539,-299.59 539,-299.59 539,-303.42 535.17,-307.25 531.33,-307.25"/>
<text text-anchor="middle" x="483" y="-292.05" font-family="Arial" font-size="14.00" fill="#c6c5fe">../Observable.ts</text>
</g>
<!-- ../Observable.ts&#45;&gt;../Debug.ts -->
<g id="edge2" class="edge">
<title>../Observable.ts&#45;&gt;../Debug.ts</title>
<path fill="none" stroke="#757575" d="M539.11,-295.38C552.99,-295.29 567.83,-295.19 581.48,-295.1"/>
<polygon fill="#757575" stroke="#757575" points="581.67,-298.59 591.64,-295.03 581.62,-291.59 581.67,-298.59"/>
</g>
<!-- AttributeDirective.ts -->
<g id="node5" class="node">
<title>AttributeDirective.ts</title>
<path fill="none" stroke="#c6c5fe" d="M542.33,-425.25C542.33,-425.25 423.67,-425.25 423.67,-425.25 419.83,-425.25 416,-421.42 416,-417.59 416,-417.59 416,-409.92 416,-409.92 416,-406.09 419.83,-402.25 423.67,-402.25 423.67,-402.25 542.33,-402.25 542.33,-402.25 546.17,-402.25 550,-406.09 550,-409.92 550,-409.92 550,-417.59 550,-417.59 550,-421.42 546.17,-425.25 542.33,-425.25"/>
<text text-anchor="middle" x="483" y="-410.05" font-family="Arial" font-size="14.00" fill="#c6c5fe">AttributeDirective.ts</text>
</g>
<!-- AttributeDirective.ts&#45;&gt;../Error.ts -->
<g id="edge3" class="edge">
<title>AttributeDirective.ts&#45;&gt;../Error.ts</title>
<path fill="none" stroke="#757575" d="M510.42,-425.31C549.41,-440.54 623.8,-462.55 680,-436.75 707.27,-424.23 727.97,-395.38 739.68,-375.47"/>
<polygon fill="#757575" stroke="#757575" points="742.85,-376.96 744.69,-366.53 736.75,-373.54 742.85,-376.96"/>
</g>
<!-- Evaluator.ts -->
<g id="node6" class="node">
<title>Evaluator.ts</title>
<path fill="none" stroke="#c6c5fe" d="M668.83,-386.25C668.83,-386.25 597.17,-386.25 597.17,-386.25 593.33,-386.25 589.5,-382.42 589.5,-378.59 589.5,-378.59 589.5,-370.92 589.5,-370.92 589.5,-367.09 593.33,-363.25 597.17,-363.25 597.17,-363.25 668.83,-363.25 668.83,-363.25 672.67,-363.25 676.5,-367.09 676.5,-370.92 676.5,-370.92 676.5,-378.59 676.5,-378.59 676.5,-382.42 672.67,-386.25 668.83,-386.25"/>
<text text-anchor="middle" x="633" y="-371.05" font-family="Arial" font-size="14.00" fill="#c6c5fe">Evaluator.ts</text>
</g>
<!-- AttributeDirective.ts&#45;&gt;Evaluator.ts -->
<g id="edge4" class="edge">
<title>AttributeDirective.ts&#45;&gt;Evaluator.ts</title>
<path fill="none" stroke="#757575" d="M528,-402.16C544.24,-397.88 562.8,-392.99 579.71,-388.53"/>
<polygon fill="#757575" stroke="#757575" points="580.66,-391.9 589.44,-385.97 578.88,-385.13 580.66,-391.9"/>
</g>
<!-- collections.ts -->
<g id="node7" class="node">
<title>collections.ts</title>
<path fill="none" stroke="#c6c5fe" d="M672.33,-148.25C672.33,-148.25 593.67,-148.25 593.67,-148.25 589.83,-148.25 586,-144.42 586,-140.59 586,-140.59 586,-132.92 586,-132.92 586,-129.09 589.83,-125.25 593.67,-125.25 593.67,-125.25 672.33,-125.25 672.33,-125.25 676.17,-125.25 680,-129.09 680,-132.92 680,-132.92 680,-140.59 680,-140.59 680,-144.42 676.17,-148.25 672.33,-148.25"/>
<text text-anchor="middle" x="633" y="-133.05" font-family="Arial" font-size="14.00" fill="#c6c5fe">collections.ts</text>
</g>
<!-- AttributeDirective.ts&#45;&gt;collections.ts -->
<g id="edge5" class="edge">
<title>AttributeDirective.ts&#45;&gt;collections.ts</title>
<path fill="none" stroke="#757575" d="M492.78,-402.08C506.08,-384.11 531.74,-348.32 550,-315.75 580.91,-260.64 609.94,-191.77 623.69,-157.76"/>
<polygon fill="#757575" stroke="#757575" points="626.98,-158.97 627.45,-148.38 620.48,-156.36 626.98,-158.97"/>
</g>
<!-- util.ts -->
<g id="node8" class="node">
<title>util.ts</title>
<path fill="none" stroke="#cfffac" d="M652.33,-427.25C652.33,-427.25 613.67,-427.25 613.67,-427.25 609.83,-427.25 606,-423.42 606,-419.59 606,-419.59 606,-411.92 606,-411.92 606,-408.09 609.83,-404.25 613.67,-404.25 613.67,-404.25 652.33,-404.25 652.33,-404.25 656.17,-404.25 660,-408.09 660,-411.92 660,-411.92 660,-419.59 660,-419.59 660,-423.42 656.17,-427.25 652.33,-427.25"/>
<text text-anchor="middle" x="633" y="-412.05" font-family="Arial" font-size="14.00" fill="#cfffac">util.ts</text>
</g>
<!-- AttributeDirective.ts&#45;&gt;util.ts -->
<g id="edge6" class="edge">
<title>AttributeDirective.ts&#45;&gt;util.ts</title>
<path fill="none" stroke="#757575" d="M550.21,-414.65C565.91,-414.86 582.08,-415.08 595.86,-415.27"/>
<polygon fill="#757575" stroke="#757575" points="595.83,-418.77 605.88,-415.4 595.93,-411.77 595.83,-418.77"/>
</g>
<!-- Evaluator.ts&#45;&gt;../Error.ts -->
<g id="edge7" class="edge">
<title>Evaluator.ts&#45;&gt;../Error.ts</title>
<path fill="none" stroke="#757575" d="M676.72,-367.42C686.16,-365.8 696.19,-364.08 705.71,-362.44"/>
<polygon fill="#757575" stroke="#757575" points="706.53,-365.85 715.8,-360.71 705.35,-358.95 706.53,-365.85"/>
</g>
<!-- Island.ts -->
<g id="node11" class="node">
<title>Island.ts</title>
<path fill="none" stroke="#c6c5fe" d="M777.33,-112.25C777.33,-112.25 725.67,-112.25 725.67,-112.25 721.83,-112.25 718,-108.42 718,-104.59 718,-104.59 718,-96.92 718,-96.92 718,-93.09 721.83,-89.25 725.67,-89.25 725.67,-89.25 777.33,-89.25 777.33,-89.25 781.17,-89.25 785,-93.09 785,-96.92 785,-96.92 785,-104.59 785,-104.59 785,-108.42 781.17,-112.25 777.33,-112.25"/>
<text text-anchor="middle" x="751.5" y="-97.05" font-family="Arial" font-size="14.00" fill="#c6c5fe">Island.ts</text>
</g>
<!-- collections.ts&#45;&gt;Island.ts -->
<g id="edge16" class="edge">
<title>collections.ts&#45;&gt;Island.ts</title>
<path fill="none" stroke="#757575" d="M671.5,-125.17C683.14,-121.57 696.06,-117.58 708.01,-113.88"/>
<polygon fill="#757575" stroke="#757575" points="709.26,-117.16 717.78,-110.87 707.19,-110.47 709.26,-117.16"/>
</g>
<!-- HandleClickDirective.ts -->
<g id="node9" class="node">
<title>HandleClickDirective.ts</title>
<path fill="none" stroke="#c6c5fe" d="M309.33,-307.25C309.33,-307.25 169.67,-307.25 169.67,-307.25 165.83,-307.25 162,-303.42 162,-299.59 162,-299.59 162,-291.92 162,-291.92 162,-288.09 165.83,-284.25 169.67,-284.25 169.67,-284.25 309.33,-284.25 309.33,-284.25 313.17,-284.25 317,-288.09 317,-291.92 317,-291.92 317,-299.59 317,-299.59 317,-303.42 313.17,-307.25 309.33,-307.25"/>
<text text-anchor="middle" x="239.5" y="-292.05" font-family="Arial" font-size="14.00" fill="#c6c5fe">HandleClickDirective.ts</text>
</g>
<!-- HandleClickDirective.ts&#45;&gt;../Observable.ts -->
<g id="edge8" class="edge">
<title>HandleClickDirective.ts&#45;&gt;../Observable.ts</title>
<path fill="none" stroke="#757575" d="M317.24,-295.75C349.26,-295.75 386.05,-295.75 416.74,-295.75"/>
<polygon fill="#757575" stroke="#757575" points="416.9,-299.25 426.9,-295.75 416.9,-292.25 416.9,-299.25"/>
</g>
<!-- HandleClickDirective.ts&#45;&gt;AttributeDirective.ts -->
<g id="edge9" class="edge">
<title>HandleClickDirective.ts&#45;&gt;AttributeDirective.ts</title>
<path fill="none" stroke="#757575" d="M264.1,-307.28C307.47,-328.48 399.94,-373.66 449.32,-397.79"/>
<polygon fill="#757575" stroke="#757575" points="447.79,-400.93 458.31,-402.18 450.86,-394.64 447.79,-400.93"/>
</g>
<!-- Interpolator.ts -->
<g id="node10" class="node">
<title>Interpolator.ts</title>
<path fill="none" stroke="#c6c5fe" d="M524.33,-266.25C524.33,-266.25 441.67,-266.25 441.67,-266.25 437.83,-266.25 434,-262.42 434,-258.59 434,-258.59 434,-250.92 434,-250.92 434,-247.09 437.83,-243.25 441.67,-243.25 441.67,-243.25 524.33,-243.25 524.33,-243.25 528.17,-243.25 532,-247.09 532,-250.92 532,-250.92 532,-258.59 532,-258.59 532,-262.42 528.17,-266.25 524.33,-266.25"/>
<text text-anchor="middle" x="483" y="-251.05" font-family="Arial" font-size="14.00" fill="#c6c5fe">Interpolator.ts</text>
</g>
<!-- Interpolator.ts&#45;&gt;Evaluator.ts -->
<g id="edge10" class="edge">
<title>Interpolator.ts&#45;&gt;Evaluator.ts</title>
<path fill="none" stroke="#757575" d="M532.04,-265.61C538.36,-268.09 544.52,-271.1 550,-274.75 558.38,-280.35 595.35,-327.3 616.68,-354.83"/>
<polygon fill="#757575" stroke="#757575" points="614.11,-357.24 623,-363.01 619.65,-352.96 614.11,-357.24"/>
</g>
<!-- Interpolator.ts&#45;&gt;collections.ts -->
<g id="edge11" class="edge">
<title>Interpolator.ts&#45;&gt;collections.ts</title>
<path fill="none" stroke="#757575" d="M498.46,-243.22C524.26,-222.66 578.39,-179.5 609.23,-154.91"/>
<polygon fill="#757575" stroke="#757575" points="611.62,-157.48 617.26,-148.5 607.26,-152 611.62,-157.48"/>
</g>
<!-- Island.ts&#45;&gt;../Monad.ts -->
<g id="edge12" class="edge">
<title>Island.ts&#45;&gt;../Monad.ts</title>
<path fill="none" stroke="#757575" d="M785.05,-100.75C793.74,-100.75 803.34,-100.75 812.76,-100.75"/>
<polygon fill="#757575" stroke="#757575" points="812.87,-104.25 822.87,-100.75 812.87,-97.25 812.87,-104.25"/>
</g>
<!-- MapDirective.ts -->
<g id="node12" class="node">
<title>MapDirective.ts</title>
<path fill="none" stroke="#c6c5fe" d="M286.83,-466.25C286.83,-466.25 192.17,-466.25 192.17,-466.25 188.33,-466.25 184.5,-462.42 184.5,-458.59 184.5,-458.59 184.5,-450.92 184.5,-450.92 184.5,-447.09 188.33,-443.25 192.17,-443.25 192.17,-443.25 286.83,-443.25 286.83,-443.25 290.67,-443.25 294.5,-447.09 294.5,-450.92 294.5,-450.92 294.5,-458.59 294.5,-458.59 294.5,-462.42 290.67,-466.25 286.83,-466.25"/>
<text text-anchor="middle" x="239.5" y="-451.05" font-family="Arial" font-size="14.00" fill="#c6c5fe">MapDirective.ts</text>
</g>
<!-- MapDirective.ts&#45;&gt;../Error.ts -->
<g id="edge13" class="edge">
<title>MapDirective.ts&#45;&gt;../Error.ts</title>
<path fill="none" stroke="#757575" d="M279.76,-466.29C360.22,-487.58 547.4,-524.91 680,-455.75 712.19,-438.97 732.69,-400.04 742.84,-375.71"/>
<polygon fill="#757575" stroke="#757575" points="746.15,-376.87 746.57,-366.28 739.64,-374.3 746.15,-376.87"/>
</g>
<!-- MapDirective.ts&#45;&gt;AttributeDirective.ts -->
<g id="edge14" class="edge">
<title>MapDirective.ts&#45;&gt;AttributeDirective.ts</title>
<path fill="none" stroke="#757575" d="M294.61,-447.77C320.51,-444.23 351.92,-439.65 380,-434.75 392.65,-432.55 406.13,-429.95 419.01,-427.35"/>
<polygon fill="#757575" stroke="#757575" points="420.08,-430.7 429.18,-425.26 418.68,-423.84 420.08,-430.7"/>
</g>
<!-- ShowDirective.ts -->
<g id="node13" class="node">
<title>ShowDirective.ts</title>
<path fill="none" stroke="#c6c5fe" d="M290.33,-425.25C290.33,-425.25 188.67,-425.25 188.67,-425.25 184.83,-425.25 181,-421.42 181,-417.59 181,-417.59 181,-409.92 181,-409.92 181,-406.09 184.83,-402.25 188.67,-402.25 188.67,-402.25 290.33,-402.25 290.33,-402.25 294.17,-402.25 298,-406.09 298,-409.92 298,-409.92 298,-417.59 298,-417.59 298,-421.42 294.17,-425.25 290.33,-425.25"/>
<text text-anchor="middle" x="239.5" y="-410.05" font-family="Arial" font-size="14.00" fill="#c6c5fe">ShowDirective.ts</text>
</g>
<!-- ShowDirective.ts&#45;&gt;AttributeDirective.ts -->
<g id="edge15" class="edge">
<title>ShowDirective.ts&#45;&gt;AttributeDirective.ts</title>
<path fill="none" stroke="#757575" d="M298.04,-413.75C330.29,-413.75 370.92,-413.75 405.79,-413.75"/>
<polygon fill="#757575" stroke="#757575" points="405.94,-417.25 415.94,-413.75 405.94,-410.25 405.94,-417.25"/>
</g>
<!-- functions/createIslandElementConstructor.ts -->
<g id="node14" class="node">
<title>functions/createIslandElementConstructor.ts</title>
<path fill="none" stroke="#c6c5fe" d="M372.33,-189.25C372.33,-189.25 106.67,-189.25 106.67,-189.25 102.83,-189.25 99,-185.42 99,-181.59 99,-181.59 99,-173.92 99,-173.92 99,-170.09 102.83,-166.25 106.67,-166.25 106.67,-166.25 372.33,-166.25 372.33,-166.25 376.17,-166.25 380,-170.09 380,-173.92 380,-173.92 380,-181.59 380,-181.59 380,-185.42 376.17,-189.25 372.33,-189.25"/>
<text text-anchor="middle" x="239.5" y="-174.05" font-family="Arial" font-size="14.00" fill="#c6c5fe">functions/createIslandElementConstructor.ts</text>
</g>
<!-- functions/createIslandElementConstructor.ts&#45;&gt;../Error.ts -->
<g id="edge17" class="edge">
<title>functions/createIslandElementConstructor.ts&#45;&gt;../Error.ts</title>
<path fill="none" stroke="#757575" d="M327.45,-189.32C438.37,-205.32 622.71,-236.5 680,-273.75 704.33,-289.58 725.15,-316.11 737.72,-334.48"/>
<polygon fill="#757575" stroke="#757575" points="734.92,-336.6 743.36,-343 740.76,-332.73 734.92,-336.6"/>
</g>
<!-- functions/createIslandElementConstructor.ts&#45;&gt;../Monad.ts -->
<g id="edge18" class="edge">
<title>functions/createIslandElementConstructor.ts&#45;&gt;../Monad.ts</title>
<path fill="none" stroke="#757575" d="M380.02,-179.86C466.9,-179.02 580.65,-173.97 680,-156.75 730.97,-147.92 787.64,-129.27 824.44,-115.92"/>
<polygon fill="#757575" stroke="#757575" points="826.1,-119.04 834.28,-112.3 823.68,-112.47 826.1,-119.04"/>
</g>
<!-- functions/createIslandElementConstructor.ts&#45;&gt;../Observable.ts -->
<g id="edge19" class="edge">
<title>functions/createIslandElementConstructor.ts&#45;&gt;../Observable.ts</title>
<path fill="none" stroke="#757575" d="M273.01,-189.33C302.27,-200.51 345.81,-219.06 380,-241.75 398.08,-253.76 397.22,-263.88 416,-274.75 419.47,-276.76 423.16,-278.61 426.95,-280.29"/>
<polygon fill="#757575" stroke="#757575" points="425.92,-283.65 436.5,-284.16 428.55,-277.17 425.92,-283.65"/>
</g>
<!-- functions/createIslandElementConstructor.ts&#45;&gt;collections.ts -->
<g id="edge20" class="edge">
<title>functions/createIslandElementConstructor.ts&#45;&gt;collections.ts</title>
<path fill="none" stroke="#757575" d="M350.34,-166.25C423.63,-158.58 516.97,-148.8 575.63,-142.66"/>
<polygon fill="#757575" stroke="#757575" points="576.22,-146.11 585.81,-141.59 575.49,-139.15 576.22,-146.11"/>
</g>
<!-- index.ts -->
<g id="node15" class="node">
<title>index.ts</title>
<path fill="none" stroke="#c6c5fe" d="M55.33,-267.25C55.33,-267.25 7.67,-267.25 7.67,-267.25 3.83,-267.25 0,-263.42 0,-259.59 0,-259.59 0,-251.92 0,-251.92 0,-248.09 3.83,-244.25 7.67,-244.25 7.67,-244.25 55.33,-244.25 55.33,-244.25 59.17,-244.25 63,-248.09 63,-251.92 63,-251.92 63,-259.59 63,-259.59 63,-263.42 59.17,-267.25 55.33,-267.25"/>
<text text-anchor="middle" x="31.5" y="-252.05" font-family="Arial" font-size="14.00" fill="#c6c5fe">index.ts</text>
</g>
<!-- index.ts&#45;&gt;../Error.ts -->
<g id="edge21" class="edge">
<title>index.ts&#45;&gt;../Error.ts</title>
<path fill="none" stroke="#757575" d="M41.31,-267.55C52.79,-281.88 74.33,-305.41 99,-315.75 154.57,-339.05 567.58,-350.56 705.68,-353.78"/>
<polygon fill="#757575" stroke="#757575" points="705.82,-357.29 715.9,-354.02 705.98,-350.29 705.82,-357.29"/>
</g>
<!-- index.ts&#45;&gt;../Monad.ts -->
<g id="edge22" class="edge">
<title>index.ts&#45;&gt;../Monad.ts</title>
<path fill="none" stroke="#757575" d="M32.36,-244.18C32.65,-209.38 38.71,-105.16 99,-57.75 233.3,47.86 311.15,-24.75 482,-24.75 482,-24.75 482,-24.75 634,-24.75 709.46,-24.75 792.13,-62.09 834.83,-84.42"/>
<polygon fill="#757575" stroke="#757575" points="833.34,-87.6 843.81,-89.21 836.64,-81.42 833.34,-87.6"/>
</g>
<!-- index.ts&#45;&gt;../Observable.ts -->
<g id="edge23" class="edge">
<title>index.ts&#45;&gt;../Observable.ts</title>
<path fill="none" stroke="#757575" d="M63.32,-255.91C124.13,-256.55 263.76,-259.69 380,-274.75 394.14,-276.59 409.25,-279.28 423.38,-282.14"/>
<polygon fill="#757575" stroke="#757575" points="422.98,-285.63 433.48,-284.23 424.4,-278.77 422.98,-285.63"/>
</g>
<!-- index.ts&#45;&gt;Evaluator.ts -->
<g id="edge24" class="edge">
<title>index.ts&#45;&gt;Evaluator.ts</title>
<path fill="none" stroke="#757575" d="M36.71,-267.31C44.98,-288.12 65.51,-331.42 99,-349.75 180.44,-394.35 461.13,-384.43 579.11,-378.03"/>
<polygon fill="#757575" stroke="#757575" points="579.54,-381.51 589.33,-377.46 579.15,-374.52 579.54,-381.51"/>
</g>
<!-- index.ts&#45;&gt;collections.ts -->
<g id="edge30" class="edge">
<title>index.ts&#45;&gt;collections.ts</title>
<path fill="none" stroke="#757575" d="M36.4,-243.95C44.28,-222.2 64.37,-176.28 99,-156.75 252.99,-69.95 473.69,-101.48 575.99,-123.13"/>
<polygon fill="#757575" stroke="#757575" points="575.3,-126.56 585.81,-125.26 576.78,-119.72 575.3,-126.56"/>
</g>
<!-- index.ts&#45;&gt;HandleClickDirective.ts -->
<g id="edge25" class="edge">
<title>index.ts&#45;&gt;HandleClickDirective.ts</title>
<path fill="none" stroke="#757575" d="M63.26,-262.39C74.5,-264.77 87.31,-267.43 99,-269.75 120.38,-274 143.65,-278.41 164.94,-282.38"/>
<polygon fill="#757575" stroke="#757575" points="164.43,-285.84 174.9,-284.22 165.7,-278.96 164.43,-285.84"/>
</g>
<!-- index.ts&#45;&gt;Interpolator.ts -->
<g id="edge26" class="edge">
<title>index.ts&#45;&gt;Interpolator.ts</title>
<path fill="none" stroke="#757575" d="M63.08,-247.93C74.3,-245.43 87.15,-242.99 99,-241.75 223.22,-228.82 255.36,-233.84 380,-241.75 394.19,-242.65 409.43,-244.25 423.69,-246.03"/>
<polygon fill="#757575" stroke="#757575" points="423.5,-249.53 433.87,-247.35 424.4,-242.59 423.5,-249.53"/>
</g>
<!-- index.ts&#45;&gt;Island.ts -->
<g id="edge27" class="edge">
<title>index.ts&#45;&gt;Island.ts</title>
<path fill="none" stroke="#757575" d="M33.18,-244.21C35.69,-213.6 47.2,-130.32 99,-95.75 198.52,-29.34 578.47,-76.11 707.4,-94.35"/>
<polygon fill="#757575" stroke="#757575" points="707.27,-97.87 717.67,-95.82 708.26,-90.94 707.27,-97.87"/>
</g>
<!-- index.ts&#45;&gt;MapDirective.ts -->
<g id="edge28" class="edge">
<title>index.ts&#45;&gt;MapDirective.ts</title>
<path fill="none" stroke="#757575" d="M32.98,-267.71C34.97,-300.35 45.33,-391.46 99,-434.75 119.85,-451.57 148.37,-457.66 174.2,-459.12"/>
<polygon fill="#757575" stroke="#757575" points="174.2,-462.63 184.32,-459.48 174.44,-455.63 174.2,-462.63"/>
</g>
<!-- index.ts&#45;&gt;ShowDirective.ts -->
<g id="edge29" class="edge">
<title>index.ts&#45;&gt;ShowDirective.ts</title>
<path fill="none" stroke="#757575" d="M34.76,-267.52C40.46,-293.7 57.96,-356.93 99,-387.75 119.43,-403.1 146.2,-410.28 170.82,-413.39"/>
<polygon fill="#757575" stroke="#757575" points="170.54,-416.88 180.86,-414.45 171.28,-409.92 170.54,-416.88"/>
</g>
<!-- index.ts&#45;&gt;functions/createIslandElementConstructor.ts -->
<g id="edge31" class="edge">
<title>index.ts&#45;&gt;functions/createIslandElementConstructor.ts</title>
<path fill="none" stroke="#757575" d="M44.06,-243.82C56.48,-231.75 77.36,-213.52 99,-203.75 109.7,-198.92 121.25,-194.99 132.97,-191.79"/>
<polygon fill="#757575" stroke="#757575" points="134.01,-195.14 142.83,-189.27 132.27,-188.35 134.01,-195.14"/>
</g>
</g>
</svg>
