<?xml version="1.0" encoding="UTF-8" standalone="no"?>
<!DOCTYPE svg PUBLIC "-//W3C//DTD SVG 1.1//EN"
 "http://www.w3.org/Graphics/SVG/1.1/DTD/svg11.dtd">
<!-- Generated by graphviz version 2.43.0 (0)
 -->
<!-- Title: G Pages: 1 -->
<svg width="2649pt" height="1257pt"
 viewBox="0.00 0.00 2649.20 1257.03" xmlns="http://www.w3.org/2000/svg" xmlns:xlink="http://www.w3.org/1999/xlink">
<g id="graph0" class="graph" transform="scale(1 1) rotate(0) translate(21.6 1235.43)">
<title>G</title>
<polygon fill="#111111" stroke="transparent" points="-21.6,21.6 -21.6,-1235.43 2627.6,-1235.43 2627.6,21.6 -21.6,21.6"/>
<!-- ../Action.ts -->
<g id="node1" class="node">
<title>../Action.ts</title>
<path fill="none" stroke="#c6c5fe" d="M1891.83,-632.33C1891.83,-632.33 1827.17,-632.33 1827.17,-632.33 1823.33,-632.33 1819.5,-628.49 1819.5,-624.66 1819.5,-624.66 1819.5,-616.99 1819.5,-616.99 1819.5,-613.16 1823.33,-609.33 1827.17,-609.33 1827.17,-609.33 1891.83,-609.33 1891.83,-609.33 1895.67,-609.33 1899.5,-613.16 1899.5,-616.99 1899.5,-616.99 1899.5,-624.66 1899.5,-624.66 1899.5,-628.49 1895.67,-632.33 1891.83,-632.33"/>
<text text-anchor="middle" x="1859.5" y="-617.13" font-family="Arial" font-size="14.00" fill="#c6c5fe">../Action.ts</text>
</g>
<!-- ../Component.ts -->
<g id="node2" class="node">
<title>../Component.ts</title>
<path fill="none" stroke="#ff6c60" d="M2060.33,-673.33C2060.33,-673.33 1962.67,-673.33 1962.67,-673.33 1958.83,-673.33 1955,-669.49 1955,-665.66 1955,-665.66 1955,-657.99 1955,-657.99 1955,-654.16 1958.83,-650.33 1962.67,-650.33 1962.67,-650.33 2060.33,-650.33 2060.33,-650.33 2064.17,-650.33 2068,-654.16 2068,-657.99 2068,-657.99 2068,-665.66 2068,-665.66 2068,-669.49 2064.17,-673.33 2060.33,-673.33"/>
<text text-anchor="middle" x="2011.5" y="-658.13" font-family="Arial" font-size="14.00" fill="#ff6c60">../Component.ts</text>
</g>
<!-- ../Action.ts&#45;&gt;../Component.ts -->
<g id="edge1" class="edge">
<title>../Action.ts&#45;&gt;../Component.ts</title>
<path fill="none" stroke="#757575" d="M1899.52,-631.49C1917.48,-636.4 1939.05,-642.3 1958.38,-647.58"/>
<polygon fill="#757575" stroke="#757575" points="1957.69,-651.02 1968.25,-650.28 1959.53,-644.27 1957.69,-651.02"/>
</g>
<!-- ../Debug.ts -->
<g id="node3" class="node">
<title>../Debug.ts</title>
<path fill="none" stroke="#c6c5fe" d="M2491.33,-809.33C2491.33,-809.33 2424.67,-809.33 2424.67,-809.33 2420.83,-809.33 2417,-805.49 2417,-801.66 2417,-801.66 2417,-793.99 2417,-793.99 2417,-790.16 2420.83,-786.33 2424.67,-786.33 2424.67,-786.33 2491.33,-786.33 2491.33,-786.33 2495.17,-786.33 2499,-790.16 2499,-793.99 2499,-793.99 2499,-801.66 2499,-801.66 2499,-805.49 2495.17,-809.33 2491.33,-809.33"/>
<text text-anchor="middle" x="2458" y="-794.13" font-family="Arial" font-size="14.00" fill="#c6c5fe">../Debug.ts</text>
</g>
<!-- ../Component.ts&#45;&gt;../Debug.ts -->
<g id="edge2" class="edge">
<title>../Component.ts&#45;&gt;../Debug.ts</title>
<path fill="none" stroke="#757575" d="M2041.97,-673.41C2059.81,-680.27 2083.08,-688.93 2104,-695.83 2160.83,-714.57 2323.97,-760.63 2407.07,-783.9"/>
<polygon fill="#757575" stroke="#757575" points="2406.22,-787.29 2416.79,-786.62 2408.1,-780.55 2406.22,-787.29"/>
</g>
<!-- ../EntityManager.ts -->
<g id="node4" class="node">
<title>../EntityManager.ts</title>
<path fill="none" stroke="#ff6c60" d="M2225.33,-771.33C2225.33,-771.33 2111.67,-771.33 2111.67,-771.33 2107.83,-771.33 2104,-767.49 2104,-763.66 2104,-763.66 2104,-755.99 2104,-755.99 2104,-752.16 2107.83,-748.33 2111.67,-748.33 2111.67,-748.33 2225.33,-748.33 2225.33,-748.33 2229.17,-748.33 2233,-752.16 2233,-755.99 2233,-755.99 2233,-763.66 2233,-763.66 2233,-767.49 2229.17,-771.33 2225.33,-771.33"/>
<text text-anchor="middle" x="2168.5" y="-756.13" font-family="Arial" font-size="14.00" fill="#ff6c60">../EntityManager.ts</text>
</g>
<!-- ../Component.ts&#45;&gt;../EntityManager.ts -->
<g id="edge3" class="edge">
<title>../Component.ts&#45;&gt;../EntityManager.ts</title>
<path fill="none" stroke="#757575" d="M2033.1,-673.6C2050.89,-687.47 2077.8,-709.56 2104,-724.83 2116.59,-732.16 2131.64,-738.42 2143.93,-743.94"/>
<polygon fill="#757575" stroke="#757575" points="2142.55,-747.16 2153.1,-748.22 2145.51,-740.82 2142.55,-747.16"/>
</g>
<!-- ../Error.ts -->
<g id="node5" class="node">
<title>../Error.ts</title>
<path fill="none" stroke="#cfffac" d="M2598.33,-731.33C2598.33,-731.33 2542.67,-731.33 2542.67,-731.33 2538.83,-731.33 2535,-727.49 2535,-723.66 2535,-723.66 2535,-715.99 2535,-715.99 2535,-712.16 2538.83,-708.33 2542.67,-708.33 2542.67,-708.33 2598.33,-708.33 2598.33,-708.33 2602.17,-708.33 2606,-712.16 2606,-715.99 2606,-715.99 2606,-723.66 2606,-723.66 2606,-727.49 2602.17,-731.33 2598.33,-731.33"/>
<text text-anchor="middle" x="2570.5" y="-716.13" font-family="Arial" font-size="14.00" fill="#cfffac">../Error.ts</text>
</g>
<!-- ../Component.ts&#45;&gt;../Error.ts -->
<g id="edge4" class="edge">
<title>../Component.ts&#45;&gt;../Error.ts</title>
<path fill="none" stroke="#757575" d="M2068.2,-667.63C2178.77,-679.14 2423.97,-704.67 2524.84,-715.18"/>
<polygon fill="#757575" stroke="#757575" points="2524.68,-718.68 2534.99,-716.23 2525.41,-711.72 2524.68,-718.68"/>
</g>
<!-- ../Observable.ts -->
<g id="node6" class="node">
<title>../Observable.ts</title>
<path fill="none" stroke="#c6c5fe" d="M2373.33,-617.33C2373.33,-617.33 2276.67,-617.33 2276.67,-617.33 2272.83,-617.33 2269,-613.49 2269,-609.66 2269,-609.66 2269,-601.99 2269,-601.99 2269,-598.16 2272.83,-594.33 2276.67,-594.33 2276.67,-594.33 2373.33,-594.33 2373.33,-594.33 2377.17,-594.33 2381,-598.16 2381,-601.99 2381,-601.99 2381,-609.66 2381,-609.66 2381,-613.49 2377.17,-617.33 2373.33,-617.33"/>
<text text-anchor="middle" x="2325" y="-602.13" font-family="Arial" font-size="14.00" fill="#c6c5fe">../Observable.ts</text>
</g>
<!-- ../Component.ts&#45;&gt;../Observable.ts -->
<g id="edge5" class="edge">
<title>../Component.ts&#45;&gt;../Observable.ts</title>
<path fill="none" stroke="#757575" d="M2040.45,-650.19C2058.33,-643.21 2082.17,-634.77 2104,-629.83 2155.28,-618.22 2214.6,-612.17 2258.71,-609.04"/>
<polygon fill="#757575" stroke="#757575" points="2258.99,-612.53 2268.73,-608.37 2258.52,-605.55 2258.99,-612.53"/>
</g>
<!-- ../Debug.ts&#45;&gt;../Error.ts -->
<g id="edge6" class="edge">
<title>../Debug.ts&#45;&gt;../Error.ts</title>
<path fill="none" stroke="#757575" d="M2477.47,-786.14C2484.3,-781.74 2492.06,-776.64 2499,-771.83 2514.89,-760.81 2532.39,-747.91 2545.98,-737.72"/>
<polygon fill="#757575" stroke="#757575" points="2548.41,-740.27 2554.29,-731.45 2544.19,-734.68 2548.41,-740.27"/>
</g>
<!-- ../EntityManager.ts&#45;&gt;../Component.ts -->
<g id="edge7" class="edge">
<title>../EntityManager.ts&#45;&gt;../Component.ts</title>
<path fill="none" stroke="#757575" d="M2113.96,-748.17C2110.54,-746.48 2107.19,-744.69 2104,-742.83 2074.32,-725.53 2043.71,-699.46 2026.5,-681.26"/>
<polygon fill="#757575" stroke="#757575" points="2028.85,-678.64 2019.58,-673.51 2023.63,-683.3 2028.85,-678.64"/>
</g>
<!-- ../EntityManager.ts&#45;&gt;../Debug.ts -->
<g id="edge8" class="edge">
<title>../EntityManager.ts&#45;&gt;../Debug.ts</title>
<path fill="none" stroke="#757575" d="M2183.88,-771.57C2202.3,-785.76 2235.8,-808.86 2269,-817.83 2316.41,-830.64 2372.63,-821.64 2411.16,-811.95"/>
<polygon fill="#757575" stroke="#757575" points="2412.26,-815.28 2421.04,-809.35 2410.48,-808.51 2412.26,-815.28"/>
</g>
<!-- ../EntityManager.ts&#45;&gt;../Error.ts -->
<g id="edge10" class="edge">
<title>../EntityManager.ts&#45;&gt;../Error.ts</title>
<path fill="none" stroke="#757575" d="M2233.32,-753.45C2314.89,-745.29 2454.01,-731.38 2524.99,-724.28"/>
<polygon fill="#757575" stroke="#757575" points="2525.35,-727.76 2534.96,-723.28 2524.66,-720.79 2525.35,-727.76"/>
</g>
<!-- ../EntityManager.ts&#45;&gt;../Observable.ts -->
<g id="edge11" class="edge">
<title>../EntityManager.ts&#45;&gt;../Observable.ts</title>
<path fill="none" stroke="#757575" d="M2181.11,-748.25C2207.62,-721.83 2272.78,-656.88 2305.14,-624.63"/>
<polygon fill="#757575" stroke="#757575" points="2307.64,-627.08 2312.25,-617.54 2302.7,-622.12 2307.64,-627.08"/>
</g>
<!-- ../EntityMeta.ts -->
<g id="node7" class="node">
<title>../EntityMeta.ts</title>
<path fill="none" stroke="#cfffac" d="M2370.83,-809.33C2370.83,-809.33 2279.17,-809.33 2279.17,-809.33 2275.33,-809.33 2271.5,-805.49 2271.5,-801.66 2271.5,-801.66 2271.5,-793.99 2271.5,-793.99 2271.5,-790.16 2275.33,-786.33 2279.17,-786.33 2279.17,-786.33 2370.83,-786.33 2370.83,-786.33 2374.67,-786.33 2378.5,-790.16 2378.5,-793.99 2378.5,-793.99 2378.5,-801.66 2378.5,-801.66 2378.5,-805.49 2374.67,-809.33 2370.83,-809.33"/>
<text text-anchor="middle" x="2325" y="-794.13" font-family="Arial" font-size="14.00" fill="#cfffac">../EntityMeta.ts</text>
</g>
<!-- ../EntityManager.ts&#45;&gt;../EntityMeta.ts -->
<g id="edge9" class="edge">
<title>../EntityManager.ts&#45;&gt;../EntityMeta.ts</title>
<path fill="none" stroke="#757575" d="M2216.27,-771.33C2232.23,-775.26 2250.26,-779.69 2266.94,-783.79"/>
<polygon fill="#757575" stroke="#757575" points="2266.57,-787.31 2277.12,-786.3 2268.24,-780.51 2266.57,-787.31"/>
</g>
<!-- ../Observable.ts&#45;&gt;../Debug.ts -->
<g id="edge19" class="edge">
<title>../Observable.ts&#45;&gt;../Debug.ts</title>
<path fill="none" stroke="#757575" d="M2334,-617.55C2355.75,-649.42 2416.15,-737.96 2443.38,-777.87"/>
<polygon fill="#757575" stroke="#757575" points="2440.58,-779.97 2449.11,-786.26 2446.36,-776.03 2440.58,-779.97"/>
</g>
<!-- ../HeadingDirection.ts -->
<g id="node8" class="node">
<title>../HeadingDirection.ts</title>
<path fill="none" stroke="#c6c5fe" d="M1305.83,-331.33C1305.83,-331.33 1175.17,-331.33 1175.17,-331.33 1171.33,-331.33 1167.5,-327.49 1167.5,-323.66 1167.5,-323.66 1167.5,-315.99 1167.5,-315.99 1167.5,-312.16 1171.33,-308.33 1175.17,-308.33 1175.17,-308.33 1305.83,-308.33 1305.83,-308.33 1309.67,-308.33 1313.5,-312.16 1313.5,-315.99 1313.5,-315.99 1313.5,-323.66 1313.5,-323.66 1313.5,-327.49 1309.67,-331.33 1305.83,-331.33"/>
<text text-anchor="middle" x="1240.5" y="-316.13" font-family="Arial" font-size="14.00" fill="#c6c5fe">../HeadingDirection.ts</text>
</g>
<!-- ../HeadingDirection.ts&#45;&gt;../Error.ts -->
<g id="edge12" class="edge">
<title>../HeadingDirection.ts&#45;&gt;../Error.ts</title>
<path fill="none" stroke="#757575" d="M1267.36,-308.28C1351,-272.03 1622.52,-162.83 1858.5,-162.83 1858.5,-162.83 1858.5,-162.83 2326,-162.83 2564.04,-162.83 2571.65,-595.18 2570.09,-698.05"/>
<polygon fill="#757575" stroke="#757575" points="2566.59,-698.13 2569.89,-708.19 2573.58,-698.27 2566.59,-698.13"/>
</g>
<!-- ../units/convert.ts -->
<g id="node9" class="node">
<title>../units/convert.ts</title>
<path fill="none" stroke="#cfffac" d="M1911.33,-908.33C1911.33,-908.33 1807.67,-908.33 1807.67,-908.33 1803.83,-908.33 1800,-904.49 1800,-900.66 1800,-900.66 1800,-892.99 1800,-892.99 1800,-889.16 1803.83,-885.33 1807.67,-885.33 1807.67,-885.33 1911.33,-885.33 1911.33,-885.33 1915.17,-885.33 1919,-889.16 1919,-892.99 1919,-892.99 1919,-900.66 1919,-900.66 1919,-904.49 1915.17,-908.33 1911.33,-908.33"/>
<text text-anchor="middle" x="1859.5" y="-893.13" font-family="Arial" font-size="14.00" fill="#cfffac">../units/convert.ts</text>
</g>
<!-- ../HeadingDirection.ts&#45;&gt;../units/convert.ts -->
<g id="edge13" class="edge">
<title>../HeadingDirection.ts&#45;&gt;../units/convert.ts</title>
<path fill="none" stroke="#757575" d="M1274.44,-331.44C1339.49,-356.26 1483.76,-421.19 1549,-528.83 1620.67,-647.07 1490.8,-736.62 1585,-837.83 1640.17,-897.1 1685.03,-853.91 1764,-871.83 1778.12,-875.03 1793.32,-878.88 1807.31,-882.58"/>
<polygon fill="#757575" stroke="#757575" points="1806.69,-886.03 1817.26,-885.24 1808.5,-879.27 1806.69,-886.03"/>
</g>
<!-- ../Input.ts -->
<g id="node10" class="node">
<title>../Input.ts</title>
<path fill="none" stroke="#cfffac" d="M1268.83,-901.33C1268.83,-901.33 1212.17,-901.33 1212.17,-901.33 1208.33,-901.33 1204.5,-897.49 1204.5,-893.66 1204.5,-893.66 1204.5,-885.99 1204.5,-885.99 1204.5,-882.16 1208.33,-878.33 1212.17,-878.33 1212.17,-878.33 1268.83,-878.33 1268.83,-878.33 1272.67,-878.33 1276.5,-882.16 1276.5,-885.99 1276.5,-885.99 1276.5,-893.66 1276.5,-893.66 1276.5,-897.49 1272.67,-901.33 1268.83,-901.33"/>
<text text-anchor="middle" x="1240.5" y="-886.13" font-family="Arial" font-size="14.00" fill="#cfffac">../Input.ts</text>
</g>
<!-- ../Message.ts -->
<g id="node11" class="node">
<title>../Message.ts</title>
<path fill="none" stroke="#c6c5fe" d="M1715.83,-985.33C1715.83,-985.33 1633.17,-985.33 1633.17,-985.33 1629.33,-985.33 1625.5,-981.49 1625.5,-977.66 1625.5,-977.66 1625.5,-969.99 1625.5,-969.99 1625.5,-966.16 1629.33,-962.33 1633.17,-962.33 1633.17,-962.33 1715.83,-962.33 1715.83,-962.33 1719.67,-962.33 1723.5,-966.16 1723.5,-969.99 1723.5,-969.99 1723.5,-977.66 1723.5,-977.66 1723.5,-981.49 1719.67,-985.33 1715.83,-985.33"/>
<text text-anchor="middle" x="1674.5" y="-970.13" font-family="Arial" font-size="14.00" fill="#c6c5fe">../Message.ts</text>
</g>
<!-- ../Message.ts&#45;&gt;../Error.ts -->
<g id="edge14" class="edge">
<title>../Message.ts&#45;&gt;../Error.ts</title>
<path fill="none" stroke="#757575" d="M1692.78,-985.46C1740.88,-1016.65 1881.25,-1099.83 2010.5,-1099.83 2010.5,-1099.83 2010.5,-1099.83 2326,-1099.83 2407.68,-1099.83 2444.99,-1099.1 2499,-1037.83 2538.42,-993.1 2560.73,-806.35 2567.37,-741.85"/>
<polygon fill="#757575" stroke="#757575" points="2570.88,-741.91 2568.4,-731.61 2563.92,-741.21 2570.88,-741.91"/>
</g>
<!-- ../NetworkedEntityServer.ts -->
<g id="node12" class="node">
<title>../NetworkedEntityServer.ts</title>
<path fill="none" stroke="#c6c5fe" d="M368.33,-134.33C368.33,-134.33 204.67,-134.33 204.67,-134.33 200.83,-134.33 197,-130.49 197,-126.66 197,-126.66 197,-118.99 197,-118.99 197,-115.16 200.83,-111.33 204.67,-111.33 204.67,-111.33 368.33,-111.33 368.33,-111.33 372.17,-111.33 376,-115.16 376,-118.99 376,-118.99 376,-126.66 376,-126.66 376,-130.49 372.17,-134.33 368.33,-134.33"/>
<text text-anchor="middle" x="286.5" y="-119.13" font-family="Arial" font-size="14.00" fill="#c6c5fe">../NetworkedEntityServer.ts</text>
</g>
<!-- ../NetworkedEntityServer.ts&#45;&gt;../Component.ts -->
<g id="edge15" class="edge">
<title>../NetworkedEntityServer.ts&#45;&gt;../Component.ts</title>
<path fill="none" stroke="#757575" d="M376.23,-128.06C608.48,-143.53 1251.71,-197.73 1764,-347.83 1834.74,-368.55 1867.38,-354.21 1919,-406.83 1984.85,-473.96 2003.65,-591.76 2008.73,-640.15"/>
<polygon fill="#757575" stroke="#757575" points="2005.25,-640.51 2009.68,-650.13 2012.22,-639.85 2005.25,-640.51"/>
</g>
<!-- ../NetworkedEntityServer.ts&#45;&gt;../Error.ts -->
<g id="edge16" class="edge">
<title>../NetworkedEntityServer.ts&#45;&gt;../Error.ts</title>
<path fill="none" stroke="#757575" d="M363.37,-111.29C439.27,-100.76 559.43,-86.83 664,-86.83 664,-86.83 664,-86.83 2326,-86.83 2415.26,-86.83 2449.71,-114.41 2499,-188.83 2555.82,-274.62 2567.09,-608.89 2569.1,-697.93"/>
<polygon fill="#757575" stroke="#757575" points="2565.6,-698.26 2569.31,-708.19 2572.6,-698.12 2565.6,-698.26"/>
</g>
<!-- ../functions/Networking.ts -->
<g id="node13" class="node">
<title>../functions/Networking.ts</title>
<path fill="none" stroke="#c6c5fe" d="M571.33,-214.33C571.33,-214.33 419.67,-214.33 419.67,-214.33 415.83,-214.33 412,-210.49 412,-206.66 412,-206.66 412,-198.99 412,-198.99 412,-195.16 415.83,-191.33 419.67,-191.33 419.67,-191.33 571.33,-191.33 571.33,-191.33 575.17,-191.33 579,-195.16 579,-198.99 579,-198.99 579,-206.66 579,-206.66 579,-210.49 575.17,-214.33 571.33,-214.33"/>
<text text-anchor="middle" x="495.5" y="-199.13" font-family="Arial" font-size="14.00" fill="#c6c5fe">../functions/Networking.ts</text>
</g>
<!-- ../NetworkedEntityServer.ts&#45;&gt;../functions/Networking.ts -->
<g id="edge17" class="edge">
<title>../NetworkedEntityServer.ts&#45;&gt;../functions/Networking.ts</title>
<path fill="none" stroke="#757575" d="M317.6,-134.46C353.96,-148.51 415.22,-172.19 455.26,-187.66"/>
<polygon fill="#757575" stroke="#757575" points="454.11,-190.97 464.7,-191.31 456.63,-184.44 454.11,-190.97"/>
</g>
<!-- ../util.ts -->
<g id="node14" class="node">
<title>../util.ts</title>
<path fill="none" stroke="#cfffac" d="M517.33,-58.33C517.33,-58.33 473.67,-58.33 473.67,-58.33 469.83,-58.33 466,-54.49 466,-50.66 466,-50.66 466,-42.99 466,-42.99 466,-39.16 469.83,-35.33 473.67,-35.33 473.67,-35.33 517.33,-35.33 517.33,-35.33 521.17,-35.33 525,-39.16 525,-42.99 525,-42.99 525,-50.66 525,-50.66 525,-54.49 521.17,-58.33 517.33,-58.33"/>
<text text-anchor="middle" x="495.5" y="-43.13" font-family="Arial" font-size="14.00" fill="#cfffac">../util.ts</text>
</g>
<!-- ../NetworkedEntityServer.ts&#45;&gt;../util.ts -->
<g id="edge18" class="edge">
<title>../NetworkedEntityServer.ts&#45;&gt;../util.ts</title>
<path fill="none" stroke="#757575" d="M314.47,-111.3C339.54,-100.75 378.01,-84.99 412,-72.83 426.22,-67.74 442,-62.64 455.93,-58.31"/>
<polygon fill="#757575" stroke="#757575" points="457.15,-61.6 465.68,-55.32 455.1,-54.91 457.15,-61.6"/>
</g>
<!-- ../functions/Networking.ts&#45;&gt;../Component.ts -->
<g id="edge73" class="edge">
<title>../functions/Networking.ts&#45;&gt;../Component.ts</title>
<path fill="none" stroke="#757575" d="M579.1,-208.02C727.97,-218.37 1050.66,-245.32 1318,-298.83 1454.22,-326.09 1812.87,-381.19 1919,-470.83 1946.82,-494.33 1986.38,-595.85 2002.85,-640.55"/>
<polygon fill="#757575" stroke="#757575" points="1999.63,-641.95 2006.35,-650.14 2006.21,-639.55 1999.63,-641.95"/>
</g>
<!-- ../constants.ts -->
<g id="node19" class="node">
<title>../constants.ts</title>
<path fill="none" stroke="#ff6c60" d="M707.33,-728.33C707.33,-728.33 622.67,-728.33 622.67,-728.33 618.83,-728.33 615,-724.49 615,-720.66 615,-720.66 615,-712.99 615,-712.99 615,-709.16 618.83,-705.33 622.67,-705.33 622.67,-705.33 707.33,-705.33 707.33,-705.33 711.17,-705.33 715,-709.16 715,-712.99 715,-712.99 715,-720.66 715,-720.66 715,-724.49 711.17,-728.33 707.33,-728.33"/>
<text text-anchor="middle" x="665" y="-713.13" font-family="Arial" font-size="14.00" fill="#ff6c60">../constants.ts</text>
</g>
<!-- ../functions/Networking.ts&#45;&gt;../constants.ts -->
<g id="edge74" class="edge">
<title>../functions/Networking.ts&#45;&gt;../constants.ts</title>
<path fill="none" stroke="#757575" d="M500.31,-214.53C521.86,-280.66 628.45,-607.73 656.97,-695.25"/>
<polygon fill="#757575" stroke="#757575" points="653.69,-696.5 660.12,-704.92 660.35,-694.33 653.69,-696.5"/>
</g>
<!-- ../Query.ts -->
<g id="node15" class="node">
<title>../Query.ts</title>
<path fill="none" stroke="#c6c5fe" d="M1891.33,-867.33C1891.33,-867.33 1827.67,-867.33 1827.67,-867.33 1823.83,-867.33 1820,-863.49 1820,-859.66 1820,-859.66 1820,-851.99 1820,-851.99 1820,-848.16 1823.83,-844.33 1827.67,-844.33 1827.67,-844.33 1891.33,-844.33 1891.33,-844.33 1895.17,-844.33 1899,-848.16 1899,-851.99 1899,-851.99 1899,-859.66 1899,-859.66 1899,-863.49 1895.17,-867.33 1891.33,-867.33"/>
<text text-anchor="middle" x="1859.5" y="-852.13" font-family="Arial" font-size="14.00" fill="#c6c5fe">../Query.ts</text>
</g>
<!-- ../Query.ts&#45;&gt;../Component.ts -->
<g id="edge20" class="edge">
<title>../Query.ts&#45;&gt;../Component.ts</title>
<path fill="none" stroke="#757575" d="M1899.12,-844.62C1906.57,-840.94 1913.7,-836.12 1919,-829.83 1960.96,-780.05 1913.53,-738.02 1955,-687.83 1957.9,-684.32 1961.38,-681.26 1965.17,-678.59"/>
<polygon fill="#757575" stroke="#757575" points="1967.08,-681.52 1973.84,-673.36 1963.46,-675.53 1967.08,-681.52"/>
</g>
<!-- ../Query.ts&#45;&gt;../Debug.ts -->
<g id="edge21" class="edge">
<title>../Query.ts&#45;&gt;../Debug.ts</title>
<path fill="none" stroke="#757575" d="M1899.26,-860.14C1986.92,-868.66 2206.39,-882.98 2381,-835.83 2398.29,-831.16 2416.27,-822.37 2430.4,-814.42"/>
<polygon fill="#757575" stroke="#757575" points="2432.2,-817.43 2439.09,-809.37 2428.68,-811.37 2432.2,-817.43"/>
</g>
<!-- ../Query.ts&#45;&gt;../Observable.ts -->
<g id="edge22" class="edge">
<title>../Query.ts&#45;&gt;../Observable.ts</title>
<path fill="none" stroke="#757575" d="M1881.93,-844.27C1956.74,-803.92 2206.5,-669.2 2293.67,-622.19"/>
<polygon fill="#757575" stroke="#757575" points="2295.39,-625.23 2302.53,-617.41 2292.07,-619.07 2295.39,-625.23"/>
</g>
<!-- ../Rectangle.ts -->
<g id="node16" class="node">
<title>../Rectangle.ts</title>
<path fill="none" stroke="#cfffac" d="M2055.33,-847.33C2055.33,-847.33 1967.67,-847.33 1967.67,-847.33 1963.83,-847.33 1960,-843.49 1960,-839.66 1960,-839.66 1960,-831.99 1960,-831.99 1960,-828.16 1963.83,-824.33 1967.67,-824.33 1967.67,-824.33 2055.33,-824.33 2055.33,-824.33 2059.17,-824.33 2063,-828.16 2063,-831.99 2063,-831.99 2063,-839.66 2063,-839.66 2063,-843.49 2059.17,-847.33 2055.33,-847.33"/>
<text text-anchor="middle" x="2011.5" y="-832.13" font-family="Arial" font-size="14.00" fill="#cfffac">../Rectangle.ts</text>
</g>
<!-- ../Query.ts&#45;&gt;../Rectangle.ts -->
<g id="edge23" class="edge">
<title>../Query.ts&#45;&gt;../Rectangle.ts</title>
<path fill="none" stroke="#757575" d="M1899.13,-850.68C1914.58,-848.62 1932.76,-846.19 1949.89,-843.91"/>
<polygon fill="#757575" stroke="#757575" points="1950.38,-847.37 1959.83,-842.58 1949.46,-840.44 1950.38,-847.37"/>
</g>
<!-- ../System.ts -->
<g id="node17" class="node">
<title>../System.ts</title>
<path fill="none" stroke="#c6c5fe" d="M1895.83,-673.33C1895.83,-673.33 1823.17,-673.33 1823.17,-673.33 1819.33,-673.33 1815.5,-669.49 1815.5,-665.66 1815.5,-665.66 1815.5,-657.99 1815.5,-657.99 1815.5,-654.16 1819.33,-650.33 1823.17,-650.33 1823.17,-650.33 1895.83,-650.33 1895.83,-650.33 1899.67,-650.33 1903.5,-654.16 1903.5,-657.99 1903.5,-657.99 1903.5,-665.66 1903.5,-665.66 1903.5,-669.49 1899.67,-673.33 1895.83,-673.33"/>
<text text-anchor="middle" x="1859.5" y="-658.13" font-family="Arial" font-size="14.00" fill="#c6c5fe">../System.ts</text>
</g>
<!-- ../System.ts&#45;&gt;../Component.ts -->
<g id="edge24" class="edge">
<title>../System.ts&#45;&gt;../Component.ts</title>
<path fill="none" stroke="#757575" d="M1903.89,-661.83C1916.7,-661.83 1931.01,-661.83 1944.9,-661.83"/>
<polygon fill="#757575" stroke="#757575" points="1944.9,-665.33 1954.9,-661.83 1944.9,-658.33 1944.9,-665.33"/>
</g>
<!-- ../UIElement.ts -->
<g id="node18" class="node">
<title>../UIElement.ts</title>
<path fill="none" stroke="#c6c5fe" d="M2213.83,-539.33C2213.83,-539.33 2123.17,-539.33 2123.17,-539.33 2119.33,-539.33 2115.5,-535.49 2115.5,-531.66 2115.5,-531.66 2115.5,-523.99 2115.5,-523.99 2115.5,-520.16 2119.33,-516.33 2123.17,-516.33 2123.17,-516.33 2213.83,-516.33 2213.83,-516.33 2217.67,-516.33 2221.5,-520.16 2221.5,-523.99 2221.5,-523.99 2221.5,-531.66 2221.5,-531.66 2221.5,-535.49 2217.67,-539.33 2213.83,-539.33"/>
<text text-anchor="middle" x="2168.5" y="-524.13" font-family="Arial" font-size="14.00" fill="#c6c5fe">../UIElement.ts</text>
</g>
<!-- ../UIElement.ts&#45;&gt;../Observable.ts -->
<g id="edge25" class="edge">
<title>../UIElement.ts&#45;&gt;../Observable.ts</title>
<path fill="none" stroke="#757575" d="M2199.9,-539.34C2210.5,-543.6 2222.4,-548.66 2233,-553.83 2254.86,-564.49 2278.71,-578.2 2296.51,-588.87"/>
<polygon fill="#757575" stroke="#757575" points="2294.85,-591.95 2305.22,-594.13 2298.47,-585.96 2294.85,-591.95"/>
</g>
<!-- ../constants.ts&#45;&gt;../EntityManager.ts -->
<g id="edge26" class="edge">
<title>../constants.ts&#45;&gt;../EntityManager.ts</title>
<path fill="none" stroke="#757575" d="M665.73,-728.38C665.26,-773.71 669.36,-941.81 751,-1039.83 841.98,-1149.06 898.34,-1175.83 1040.5,-1175.83 1040.5,-1175.83 1040.5,-1175.83 1860.5,-1175.83 1956.14,-1175.83 2000.3,-1186.38 2068,-1118.83 2163.9,-1023.14 2169.48,-843.7 2168.34,-781.62"/>
<polygon fill="#757575" stroke="#757575" points="2171.83,-781.34 2168.07,-771.44 2164.84,-781.53 2171.83,-781.34"/>
</g>
<!-- ../constants.ts&#45;&gt;../HeadingDirection.ts -->
<g id="edge27" class="edge">
<title>../constants.ts&#45;&gt;../HeadingDirection.ts</title>
<path fill="none" stroke="#757575" d="M668.03,-705.09C674.32,-672.01 696.46,-576.97 751,-522.83 865.91,-408.74 1054.25,-355.51 1160.37,-333.43"/>
<polygon fill="#757575" stroke="#757575" points="1161.28,-336.81 1170.38,-331.39 1159.88,-329.96 1161.28,-336.81"/>
</g>
<!-- ../constants.ts&#45;&gt;../Input.ts -->
<g id="edge28" class="edge">
<title>../constants.ts&#45;&gt;../Input.ts</title>
<path fill="none" stroke="#757575" d="M704.52,-728.45C806.93,-759.34 1085.55,-843.39 1194.75,-876.33"/>
<polygon fill="#757575" stroke="#757575" points="1193.88,-879.72 1204.47,-879.26 1195.9,-873.02 1193.88,-879.72"/>
</g>
<!-- ../entities/BlockEntity.ts -->
<g id="node20" class="node">
<title>../entities/BlockEntity.ts</title>
<path fill="none" stroke="#ff6c60" d="M1310.33,-1095.33C1310.33,-1095.33 1170.67,-1095.33 1170.67,-1095.33 1166.83,-1095.33 1163,-1091.49 1163,-1087.66 1163,-1087.66 1163,-1079.99 1163,-1079.99 1163,-1076.16 1166.83,-1072.33 1170.67,-1072.33 1170.67,-1072.33 1310.33,-1072.33 1310.33,-1072.33 1314.17,-1072.33 1318,-1076.16 1318,-1079.99 1318,-1079.99 1318,-1087.66 1318,-1087.66 1318,-1091.49 1314.17,-1095.33 1310.33,-1095.33"/>
<text text-anchor="middle" x="1240.5" y="-1080.13" font-family="Arial" font-size="14.00" fill="#ff6c60">../entities/BlockEntity.ts</text>
</g>
<!-- ../constants.ts&#45;&gt;../entities/BlockEntity.ts -->
<g id="edge29" class="edge">
<title>../constants.ts&#45;&gt;../entities/BlockEntity.ts</title>
<path fill="none" stroke="#757575" d="M666.99,-728.45C670.52,-766.95 686.01,-889.12 751,-959.83 853.48,-1071.33 1042.01,-1084.43 1152.49,-1084.17"/>
<polygon fill="#757575" stroke="#757575" points="1152.62,-1087.67 1162.6,-1084.11 1152.58,-1080.67 1152.62,-1087.67"/>
</g>
<!-- ../entities/MonsterEntity.ts -->
<g id="node21" class="node">
<title>../entities/MonsterEntity.ts</title>
<path fill="none" stroke="#ff6c60" d="M1119.33,-515.33C1119.33,-515.33 963.67,-515.33 963.67,-515.33 959.83,-515.33 956,-511.49 956,-507.66 956,-507.66 956,-499.99 956,-499.99 956,-496.16 959.83,-492.33 963.67,-492.33 963.67,-492.33 1119.33,-492.33 1119.33,-492.33 1123.17,-492.33 1127,-496.16 1127,-499.99 1127,-499.99 1127,-507.66 1127,-507.66 1127,-511.49 1123.17,-515.33 1119.33,-515.33"/>
<text text-anchor="middle" x="1041.5" y="-500.13" font-family="Arial" font-size="14.00" fill="#ff6c60">../entities/MonsterEntity.ts</text>
</g>
<!-- ../constants.ts&#45;&gt;../entities/MonsterEntity.ts -->
<g id="edge30" class="edge">
<title>../constants.ts&#45;&gt;../entities/MonsterEntity.ts</title>
<path fill="none" stroke="#757575" d="M669.37,-705.04C679,-679.36 708.62,-620.84 751,-589.83 808.52,-547.73 885.69,-523.63 945.9,-511.56"/>
<polygon fill="#757575" stroke="#757575" points="946.63,-514.98 955.79,-509.65 945.31,-508.1 946.63,-514.98"/>
</g>
<!-- ../entities/PlayerPrefab.ts -->
<g id="node22" class="node">
<title>../entities/PlayerPrefab.ts</title>
<path fill="none" stroke="#ff6c60" d="M1117.33,-728.33C1117.33,-728.33 965.67,-728.33 965.67,-728.33 961.83,-728.33 958,-724.49 958,-720.66 958,-720.66 958,-712.99 958,-712.99 958,-709.16 961.83,-705.33 965.67,-705.33 965.67,-705.33 1117.33,-705.33 1117.33,-705.33 1121.17,-705.33 1125,-709.16 1125,-712.99 1125,-712.99 1125,-720.66 1125,-720.66 1125,-724.49 1121.17,-728.33 1117.33,-728.33"/>
<text text-anchor="middle" x="1041.5" y="-713.13" font-family="Arial" font-size="14.00" fill="#ff6c60">../entities/PlayerPrefab.ts</text>
</g>
<!-- ../constants.ts&#45;&gt;../entities/PlayerPrefab.ts -->
<g id="edge31" class="edge">
<title>../constants.ts&#45;&gt;../entities/PlayerPrefab.ts</title>
<path fill="none" stroke="#757575" d="M715.34,-712.08C774.25,-709.89 874,-709.49 947.52,-710.9"/>
<polygon fill="#757575" stroke="#757575" points="947.64,-714.41 957.71,-711.11 947.79,-707.41 947.64,-714.41"/>
</g>
<!-- ../entities/RoosterEntity.ts -->
<g id="node23" class="node">
<title>../entities/RoosterEntity.ts</title>
<path fill="none" stroke="#ff6c60" d="M912.33,-960.33C912.33,-960.33 758.67,-960.33 758.67,-960.33 754.83,-960.33 751,-956.49 751,-952.66 751,-952.66 751,-944.99 751,-944.99 751,-941.16 754.83,-937.33 758.67,-937.33 758.67,-937.33 912.33,-937.33 912.33,-937.33 916.17,-937.33 920,-941.16 920,-944.99 920,-944.99 920,-952.66 920,-952.66 920,-956.49 916.17,-960.33 912.33,-960.33"/>
<text text-anchor="middle" x="835.5" y="-945.13" font-family="Arial" font-size="14.00" fill="#ff6c60">../entities/RoosterEntity.ts</text>
</g>
<!-- ../constants.ts&#45;&gt;../entities/RoosterEntity.ts -->
<g id="edge32" class="edge">
<title>../constants.ts&#45;&gt;../entities/RoosterEntity.ts</title>
<path fill="none" stroke="#757575" d="M677.06,-728.49C707.33,-765.95 791.37,-881.63 822.61,-928.78"/>
<polygon fill="#757575" stroke="#757575" points="819.73,-930.78 828.12,-937.25 825.6,-926.96 819.73,-930.78"/>
</g>
<!-- ../entities/WallEntity.ts -->
<g id="node24" class="node">
<title>../entities/WallEntity.ts</title>
<path fill="none" stroke="#ff6c60" d="M1306.83,-593.33C1306.83,-593.33 1174.17,-593.33 1174.17,-593.33 1170.33,-593.33 1166.5,-589.49 1166.5,-585.66 1166.5,-585.66 1166.5,-577.99 1166.5,-577.99 1166.5,-574.16 1170.33,-570.33 1174.17,-570.33 1174.17,-570.33 1306.83,-570.33 1306.83,-570.33 1310.67,-570.33 1314.5,-574.16 1314.5,-577.99 1314.5,-577.99 1314.5,-585.66 1314.5,-585.66 1314.5,-589.49 1310.67,-593.33 1306.83,-593.33"/>
<text text-anchor="middle" x="1240.5" y="-578.13" font-family="Arial" font-size="14.00" fill="#ff6c60">../entities/WallEntity.ts</text>
</g>
<!-- ../constants.ts&#45;&gt;../entities/WallEntity.ts -->
<g id="edge33" class="edge">
<title>../constants.ts&#45;&gt;../entities/WallEntity.ts</title>
<path fill="none" stroke="#757575" d="M700.58,-705.26C790.65,-680.15 1034.25,-622.35 1160.79,-595.54"/>
<polygon fill="#757575" stroke="#757575" points="1161.74,-598.91 1170.81,-593.43 1160.3,-592.06 1161.74,-598.91"/>
</g>
<!-- ../entities/BlockEntity.ts&#45;&gt;../Component.ts -->
<g id="edge34" class="edge">
<title>../entities/BlockEntity.ts&#45;&gt;../Component.ts</title>
<path fill="none" stroke="#757575" d="M1318.19,-1084.23C1421.31,-1082.99 1609.56,-1074.48 1764,-1032.83 1837.16,-1013.1 1870.73,-1020.23 1919,-961.83 1961.85,-909.98 1935.5,-879.2 1955,-814.83 1969.44,-767.14 1990.32,-712.55 2001.92,-683.2"/>
<polygon fill="#757575" stroke="#757575" points="2005.3,-684.17 2005.74,-673.58 1998.79,-681.58 2005.3,-684.17"/>
</g>
<!-- ../entities/BlockEntity.ts&#45;&gt;../EntityManager.ts -->
<g id="edge35" class="edge">
<title>../entities/BlockEntity.ts&#45;&gt;../EntityManager.ts</title>
<path fill="none" stroke="#757575" d="M1297.49,-1095.35C1379.59,-1111.2 1537.64,-1137.83 1673.5,-1137.83 1673.5,-1137.83 1673.5,-1137.83 1860.5,-1137.83 1956.75,-1137.83 1999.44,-1143.39 2068,-1075.83 2152.5,-992.56 2165.43,-838.35 2167.26,-781.56"/>
<polygon fill="#757575" stroke="#757575" points="2170.76,-781.63 2167.5,-771.55 2163.76,-781.46 2170.76,-781.63"/>
</g>
<!-- ../entities/BlockEntity.ts&#45;&gt;../Message.ts -->
<g id="edge36" class="edge">
<title>../entities/BlockEntity.ts&#45;&gt;../Message.ts</title>
<path fill="none" stroke="#757575" d="M1275.25,-1072.23C1297.48,-1064.79 1327.31,-1055.18 1354,-1047.83 1444.54,-1022.9 1551.03,-999.38 1615.34,-985.8"/>
<polygon fill="#757575" stroke="#757575" points="1616.22,-989.19 1625.29,-983.7 1614.78,-982.34 1616.22,-989.19"/>
</g>
<!-- ../entities/BlockEntity.ts&#45;&gt;../constants.ts -->
<g id="edge37" class="edge">
<title>../entities/BlockEntity.ts&#45;&gt;../constants.ts</title>
<path fill="none" stroke="#757575" d="M1170.62,-1095.36C1063.83,-1103.61 859.34,-1095.7 751,-977.83 686.8,-907.97 670.9,-787.89 667.12,-738.57"/>
<polygon fill="#757575" stroke="#757575" points="670.6,-738.14 666.44,-728.39 663.62,-738.6 670.6,-738.14"/>
</g>
<!-- ../messages.ts -->
<g id="node25" class="node">
<title>../messages.ts</title>
<path fill="none" stroke="#c6c5fe" d="M1495.83,-829.33C1495.83,-829.33 1407.17,-829.33 1407.17,-829.33 1403.33,-829.33 1399.5,-825.49 1399.5,-821.66 1399.5,-821.66 1399.5,-813.99 1399.5,-813.99 1399.5,-810.16 1403.33,-806.33 1407.17,-806.33 1407.17,-806.33 1495.83,-806.33 1495.83,-806.33 1499.67,-806.33 1503.5,-810.16 1503.5,-813.99 1503.5,-813.99 1503.5,-821.66 1503.5,-821.66 1503.5,-825.49 1499.67,-829.33 1495.83,-829.33"/>
<text text-anchor="middle" x="1451.5" y="-814.13" font-family="Arial" font-size="14.00" fill="#c6c5fe">../messages.ts</text>
</g>
<!-- ../entities/BlockEntity.ts&#45;&gt;../messages.ts -->
<g id="edge38" class="edge">
<title>../entities/BlockEntity.ts&#45;&gt;../messages.ts</title>
<path fill="none" stroke="#757575" d="M1250.75,-1072.05C1283.46,-1030.42 1393.9,-889.87 1434.96,-837.61"/>
<polygon fill="#757575" stroke="#757575" points="1437.93,-839.49 1441.36,-829.46 1432.43,-835.17 1437.93,-839.49"/>
</g>
<!-- ../systems/BehaviorSystem.ts -->
<g id="node26" class="node">
<title>../systems/BehaviorSystem.ts</title>
<path fill="none" stroke="#c6c5fe" d="M1541.33,-711.33C1541.33,-711.33 1361.67,-711.33 1361.67,-711.33 1357.83,-711.33 1354,-707.49 1354,-703.66 1354,-703.66 1354,-695.99 1354,-695.99 1354,-692.16 1357.83,-688.33 1361.67,-688.33 1361.67,-688.33 1541.33,-688.33 1541.33,-688.33 1545.17,-688.33 1549,-692.16 1549,-695.99 1549,-695.99 1549,-703.66 1549,-703.66 1549,-707.49 1545.17,-711.33 1541.33,-711.33"/>
<text text-anchor="middle" x="1451.5" y="-696.13" font-family="Arial" font-size="14.00" fill="#c6c5fe">../systems/BehaviorSystem.ts</text>
</g>
<!-- ../entities/BlockEntity.ts&#45;&gt;../systems/BehaviorSystem.ts -->
<g id="edge39" class="edge">
<title>../entities/BlockEntity.ts&#45;&gt;../systems/BehaviorSystem.ts</title>
<path fill="none" stroke="#757575" d="M1249.37,-1071.98C1264.65,-1048.49 1298.56,-993.92 1318,-943.83 1342.33,-881.12 1321.08,-855.48 1354,-796.83 1372.25,-764.32 1404.39,-735.21 1426.54,-717.55"/>
<polygon fill="#757575" stroke="#757575" points="1428.74,-720.27 1434.48,-711.36 1424.44,-714.75 1428.74,-720.27"/>
</g>
<!-- ../entities/MonsterEntity.ts&#45;&gt;../Component.ts -->
<g id="edge40" class="edge">
<title>../entities/MonsterEntity.ts&#45;&gt;../Component.ts</title>
<path fill="none" stroke="#757575" d="M1082.02,-492.27C1212.7,-456.49 1638.51,-359.68 1919,-526.83 1963.14,-553.13 1990.68,-609.99 2002.98,-640.86"/>
<polygon fill="#757575" stroke="#757575" points="1999.72,-642.16 2006.56,-650.25 2006.26,-639.66 1999.72,-642.16"/>
</g>
<!-- ../entities/MonsterEntity.ts&#45;&gt;../EntityManager.ts -->
<g id="edge41" class="edge">
<title>../entities/MonsterEntity.ts&#45;&gt;../EntityManager.ts</title>
<path fill="none" stroke="#757575" d="M1059.54,-492.23C1082.09,-477.57 1123.59,-452.91 1163,-441.83 1420.18,-369.49 1501.04,-383.66 1764,-430.83 1905.43,-456.19 1962.77,-442.99 2068,-540.83 2098.92,-569.57 2143.06,-689.49 2160.25,-738.66"/>
<polygon fill="#757575" stroke="#757575" points="2157,-739.97 2163.59,-748.28 2163.62,-737.68 2157,-739.97"/>
</g>
<!-- ../entities/MonsterEntity.ts&#45;&gt;../HeadingDirection.ts -->
<g id="edge42" class="edge">
<title>../entities/MonsterEntity.ts&#45;&gt;../HeadingDirection.ts</title>
<path fill="none" stroke="#757575" d="M1074.92,-492.18C1092.54,-484.36 1113.44,-472.42 1127,-455.83 1159.55,-416 1126.83,-382.41 1163,-345.83 1166.73,-342.06 1171.02,-338.84 1175.63,-336.08"/>
<polygon fill="#757575" stroke="#757575" points="1177.54,-339.03 1184.82,-331.34 1174.33,-332.81 1177.54,-339.03"/>
</g>
<!-- ../entities/MonsterEntity.ts&#45;&gt;../Message.ts -->
<g id="edge43" class="edge">
<title>../entities/MonsterEntity.ts&#45;&gt;../Message.ts</title>
<path fill="none" stroke="#757575" d="M1127.04,-496.7C1182.74,-494.81 1256.49,-497.75 1318,-518.83 1436.15,-559.31 1481.11,-574 1549,-678.83 1596.43,-752.07 1547.08,-793.24 1585,-871.83 1601.19,-905.38 1631.38,-936.58 1651.95,-955.42"/>
<polygon fill="#757575" stroke="#757575" points="1649.79,-958.19 1659.58,-962.25 1654.46,-952.97 1649.79,-958.19"/>
</g>
<!-- ../entities/MonsterEntity.ts&#45;&gt;../constants.ts -->
<g id="edge44" class="edge">
<title>../entities/MonsterEntity.ts&#45;&gt;../constants.ts</title>
<path fill="none" stroke="#757575" d="M997.66,-515.34C937.57,-527.94 827.09,-552.14 751,-607.83 718.44,-631.65 693.41,-671.71 679.2,-696.26"/>
<polygon fill="#757575" stroke="#757575" points="676.04,-694.73 674.12,-705.15 682.12,-698.2 676.04,-694.73"/>
</g>
<!-- ../entities/MonsterEntity.ts&#45;&gt;../entities/WallEntity.ts -->
<g id="edge45" class="edge">
<title>../entities/MonsterEntity.ts&#45;&gt;../entities/WallEntity.ts</title>
<path fill="none" stroke="#757575" d="M1067.65,-515.38C1091.86,-526.33 1129.62,-542.97 1163,-555.83 1172.92,-559.65 1183.67,-563.48 1193.89,-566.99"/>
<polygon fill="#757575" stroke="#757575" points="1192.89,-570.35 1203.48,-570.24 1195.14,-563.72 1192.89,-570.35"/>
</g>
<!-- ../entities/MonsterEntity.ts&#45;&gt;../messages.ts -->
<g id="edge46" class="edge">
<title>../entities/MonsterEntity.ts&#45;&gt;../messages.ts</title>
<path fill="none" stroke="#757575" d="M1056.1,-515.52C1098.87,-552.11 1234.84,-667.15 1354,-753.83 1376.98,-770.54 1404,-788.31 1423.6,-800.87"/>
<polygon fill="#757575" stroke="#757575" points="1421.73,-803.83 1432.04,-806.26 1425.49,-797.93 1421.73,-803.83"/>
</g>
<!-- ../entities/MonsterEntity.ts&#45;&gt;../systems/BehaviorSystem.ts -->
<g id="edge48" class="edge">
<title>../entities/MonsterEntity.ts&#45;&gt;../systems/BehaviorSystem.ts</title>
<path fill="none" stroke="#757575" d="M1124.88,-515.33C1193.6,-525.93 1285.38,-542.72 1318,-560.83 1371.36,-590.44 1416.16,-648.78 1437.36,-679.62"/>
<polygon fill="#757575" stroke="#757575" points="1434.67,-681.9 1443.16,-688.24 1440.48,-677.99 1434.67,-681.9"/>
</g>
<!-- ../systems/ActionSystem.ts -->
<g id="node27" class="node">
<title>../systems/ActionSystem.ts</title>
<path fill="none" stroke="#c6c5fe" d="M1756.33,-559.33C1756.33,-559.33 1592.67,-559.33 1592.67,-559.33 1588.83,-559.33 1585,-555.49 1585,-551.66 1585,-551.66 1585,-543.99 1585,-543.99 1585,-540.16 1588.83,-536.33 1592.67,-536.33 1592.67,-536.33 1756.33,-536.33 1756.33,-536.33 1760.17,-536.33 1764,-540.16 1764,-543.99 1764,-543.99 1764,-551.66 1764,-551.66 1764,-555.49 1760.17,-559.33 1756.33,-559.33"/>
<text text-anchor="middle" x="1674.5" y="-544.13" font-family="Arial" font-size="14.00" fill="#c6c5fe">../systems/ActionSystem.ts</text>
</g>
<!-- ../entities/MonsterEntity.ts&#45;&gt;../systems/ActionSystem.ts -->
<g id="edge47" class="edge">
<title>../entities/MonsterEntity.ts&#45;&gt;../systems/ActionSystem.ts</title>
<path fill="none" stroke="#757575" d="M1127.32,-492.73C1139.28,-491.53 1151.44,-490.5 1163,-489.83 1231.77,-485.85 1249.34,-484.26 1318,-489.83 1420.93,-498.17 1538.98,-519.88 1609.83,-534.24"/>
<polygon fill="#757575" stroke="#757575" points="1609.43,-537.74 1619.93,-536.31 1610.83,-530.88 1609.43,-537.74"/>
</g>
<!-- ../systems/LogSystem.ts -->
<g id="node28" class="node">
<title>../systems/LogSystem.ts</title>
<path fill="none" stroke="#c6c5fe" d="M1748.83,-252.33C1748.83,-252.33 1600.17,-252.33 1600.17,-252.33 1596.33,-252.33 1592.5,-248.49 1592.5,-244.66 1592.5,-244.66 1592.5,-236.99 1592.5,-236.99 1592.5,-233.16 1596.33,-229.33 1600.17,-229.33 1600.17,-229.33 1748.83,-229.33 1748.83,-229.33 1752.67,-229.33 1756.5,-233.16 1756.5,-236.99 1756.5,-236.99 1756.5,-244.66 1756.5,-244.66 1756.5,-248.49 1752.67,-252.33 1748.83,-252.33"/>
<text text-anchor="middle" x="1674.5" y="-237.13" font-family="Arial" font-size="14.00" fill="#c6c5fe">../systems/LogSystem.ts</text>
</g>
<!-- ../entities/MonsterEntity.ts&#45;&gt;../systems/LogSystem.ts -->
<g id="edge49" class="edge">
<title>../entities/MonsterEntity.ts&#45;&gt;../systems/LogSystem.ts</title>
<path fill="none" stroke="#757575" d="M1045.45,-491.97C1055.14,-455.81 1089.61,-346.52 1163,-298.83 1290.89,-215.72 1475.67,-217.76 1584.3,-228.27"/>
<polygon fill="#757575" stroke="#757575" points="1584.27,-231.79 1594.57,-229.31 1584.98,-224.82 1584.27,-231.79"/>
</g>
<!-- ../entities/PlayerPrefab.ts&#45;&gt;../Action.ts -->
<g id="edge50" class="edge">
<title>../entities/PlayerPrefab.ts&#45;&gt;../Action.ts</title>
<path fill="none" stroke="#757575" d="M1056.6,-705.29C1078.04,-688.54 1120.81,-658.15 1163,-645.83 1396.89,-577.51 1693.88,-601.31 1809.41,-614.49"/>
<polygon fill="#757575" stroke="#757575" points="1809.03,-617.97 1819.37,-615.66 1809.84,-611.02 1809.03,-617.97"/>
</g>
<!-- ../entities/PlayerPrefab.ts&#45;&gt;../Component.ts -->
<g id="edge51" class="edge">
<title>../entities/PlayerPrefab.ts&#45;&gt;../Component.ts</title>
<path fill="none" stroke="#757575" d="M1125.14,-706.5C1137.82,-704.92 1150.76,-703.33 1163,-701.83 1247.87,-691.44 1268.65,-683.95 1354,-678.83 1551.87,-666.96 1601.78,-680.64 1800,-681.83 1852.89,-682.14 1866.42,-687.51 1919,-681.83 1931.25,-680.5 1944.27,-678.21 1956.52,-675.64"/>
<polygon fill="#757575" stroke="#757575" points="1957.58,-678.99 1966.6,-673.43 1956.08,-672.15 1957.58,-678.99"/>
</g>
<!-- ../entities/PlayerPrefab.ts&#45;&gt;../EntityManager.ts -->
<g id="edge52" class="edge">
<title>../entities/PlayerPrefab.ts&#45;&gt;../EntityManager.ts</title>
<path fill="none" stroke="#757575" d="M1114.68,-728.37C1231.68,-746.06 1470.17,-777.83 1673.5,-777.83 1673.5,-777.83 1673.5,-777.83 1860.5,-777.83 1940.28,-777.83 2031.53,-771.69 2093.67,-766.59"/>
<polygon fill="#757575" stroke="#757575" points="2094.09,-770.07 2103.77,-765.75 2093.51,-763.09 2094.09,-770.07"/>
</g>
<!-- ../entities/PlayerPrefab.ts&#45;&gt;../HeadingDirection.ts -->
<g id="edge53" class="edge">
<title>../entities/PlayerPrefab.ts&#45;&gt;../HeadingDirection.ts</title>
<path fill="none" stroke="#757575" d="M1048.4,-704.95C1076.09,-649.13 1193.44,-412.65 1229.15,-340.69"/>
<polygon fill="#757575" stroke="#757575" points="1232.32,-342.18 1233.63,-331.66 1226.05,-339.06 1232.32,-342.18"/>
</g>
<!-- ../entities/PlayerPrefab.ts&#45;&gt;../Input.ts -->
<g id="edge54" class="edge">
<title>../entities/PlayerPrefab.ts&#45;&gt;../Input.ts</title>
<path fill="none" stroke="#757575" d="M1055.48,-728.4C1072.94,-744.35 1104.41,-774.45 1127,-803.83 1145.96,-828.48 1138.8,-844.3 1163,-863.83 1172.12,-871.19 1183.43,-876.51 1194.54,-880.35"/>
<polygon fill="#757575" stroke="#757575" points="1193.59,-883.72 1204.18,-883.35 1195.67,-877.03 1193.59,-883.72"/>
</g>
<!-- ../entities/PlayerPrefab.ts&#45;&gt;../Message.ts -->
<g id="edge55" class="edge">
<title>../entities/PlayerPrefab.ts&#45;&gt;../Message.ts</title>
<path fill="none" stroke="#757575" d="M1053.36,-728.33C1073.25,-748.76 1117.66,-791.52 1163,-815.83 1202.52,-837.02 1506.63,-919.13 1549,-933.83 1565.22,-939.45 1568.75,-942.29 1585,-947.83 1596.72,-951.82 1609.44,-955.78 1621.48,-959.35"/>
<polygon fill="#757575" stroke="#757575" points="1620.82,-962.8 1631.4,-962.25 1622.79,-956.08 1620.82,-962.8"/>
</g>
<!-- ../entities/PlayerPrefab.ts&#45;&gt;../constants.ts -->
<g id="edge56" class="edge">
<title>../entities/PlayerPrefab.ts&#45;&gt;../constants.ts</title>
<path fill="none" stroke="#757575" d="M957.71,-722.54C887.39,-724.11 788.15,-723.9 725.46,-721.92"/>
<polygon fill="#757575" stroke="#757575" points="725.46,-718.42 715.34,-721.57 725.22,-725.41 725.46,-718.42"/>
</g>
<!-- ../entities/PlayerPrefab.ts&#45;&gt;../entities/WallEntity.ts -->
<g id="edge57" class="edge">
<title>../entities/PlayerPrefab.ts&#45;&gt;../entities/WallEntity.ts</title>
<path fill="none" stroke="#757575" d="M1056.91,-705.25C1074.01,-691.33 1103.22,-667.09 1127,-644.83 1143.75,-629.15 1143.6,-620.08 1163,-607.83 1169.59,-603.67 1176.92,-600.09 1184.36,-597.03"/>
<polygon fill="#757575" stroke="#757575" points="1185.69,-600.27 1193.8,-593.44 1183.2,-593.73 1185.69,-600.27"/>
</g>
<!-- ../entities/PlayerPrefab.ts&#45;&gt;../messages.ts -->
<g id="edge58" class="edge">
<title>../entities/PlayerPrefab.ts&#45;&gt;../messages.ts</title>
<path fill="none" stroke="#757575" d="M1057.44,-728.54C1079.25,-744.93 1121.72,-774.23 1163,-787.83 1238.09,-812.56 1329.64,-818.22 1388.95,-818.9"/>
<polygon fill="#757575" stroke="#757575" points="1389.25,-822.41 1399.28,-818.98 1389.3,-815.41 1389.25,-822.41"/>
</g>
<!-- ../entities/PlayerPrefab.ts&#45;&gt;../systems/BehaviorSystem.ts -->
<g id="edge59" class="edge">
<title>../entities/PlayerPrefab.ts&#45;&gt;../systems/BehaviorSystem.ts</title>
<path fill="none" stroke="#757575" d="M1125.06,-713.39C1187.97,-710.77 1275.08,-707.14 1343.35,-704.29"/>
<polygon fill="#757575" stroke="#757575" points="1343.87,-707.77 1353.71,-703.86 1343.58,-700.78 1343.87,-707.77"/>
</g>
<!-- ../entities/RoosterEntity.ts&#45;&gt;../Component.ts -->
<g id="edge60" class="edge">
<title>../entities/RoosterEntity.ts&#45;&gt;../Component.ts</title>
<path fill="none" stroke="#757575" d="M911.26,-960.33C914.28,-961.67 917.21,-963.17 920,-964.83 941.71,-977.76 933.19,-997.95 956,-1008.83 1084.77,-1070.23 1752.71,-998.35 1764,-993.83 1783.87,-985.86 1781.68,-972.91 1800,-961.83 1848.38,-932.56 1879.46,-957.25 1919,-916.83 1952.61,-882.46 1938.8,-860.09 1955,-814.83 1971.87,-767.68 1991.98,-712.48 2002.76,-682.98"/>
<polygon fill="#757575" stroke="#757575" points="2006.14,-683.92 2006.29,-673.33 1999.57,-681.52 2006.14,-683.92"/>
</g>
<!-- ../entities/RoosterEntity.ts&#45;&gt;../EntityManager.ts -->
<g id="edge61" class="edge">
<title>../entities/RoosterEntity.ts&#45;&gt;../EntityManager.ts</title>
<path fill="none" stroke="#757575" d="M849.96,-960.6C871.21,-978.68 914.4,-1013.44 956,-1034.83 1042.37,-1079.24 1067.17,-1089.06 1163,-1104.83 1427.18,-1148.29 1502.98,-1123.39 1764,-1063.83 1835.41,-1047.53 1857.16,-1047.08 1919,-1007.83 2022.94,-941.86 2117.56,-825.6 2152.86,-779.48"/>
<polygon fill="#757575" stroke="#757575" points="2155.68,-781.55 2158.93,-771.47 2150.1,-777.32 2155.68,-781.55"/>
</g>
<!-- ../entities/RoosterEntity.ts&#45;&gt;../Message.ts -->
<g id="edge62" class="edge">
<title>../entities/RoosterEntity.ts&#45;&gt;../Message.ts</title>
<path fill="none" stroke="#757575" d="M908.19,-960.4C912.24,-961.72 916.21,-963.19 920,-964.83 938.12,-972.65 937.22,-984.76 956,-990.83 1017.85,-1010.83 1455.58,-986.93 1615.33,-977.41"/>
<polygon fill="#757575" stroke="#757575" points="1615.67,-980.89 1625.44,-976.8 1615.25,-973.91 1615.67,-980.89"/>
</g>
<!-- ../entities/RoosterEntity.ts&#45;&gt;../constants.ts -->
<g id="edge63" class="edge">
<title>../entities/RoosterEntity.ts&#45;&gt;../constants.ts</title>
<path fill="none" stroke="#757575" d="M823.36,-937.06C793.02,-899.49 709.13,-784.02 677.91,-736.9"/>
<polygon fill="#757575" stroke="#757575" points="680.79,-734.91 672.4,-728.43 674.92,-738.72 680.79,-734.91"/>
</g>
<!-- ../entities/RoosterEntity.ts&#45;&gt;../entities/PlayerPrefab.ts -->
<g id="edge64" class="edge">
<title>../entities/RoosterEntity.ts&#45;&gt;../entities/PlayerPrefab.ts</title>
<path fill="none" stroke="#757575" d="M846.62,-937.32C879.38,-900.06 982.82,-782.42 1023.67,-735.97"/>
<polygon fill="#757575" stroke="#757575" points="1026.35,-738.22 1030.32,-728.4 1021.09,-733.6 1026.35,-738.22"/>
</g>
<!-- ../entities/RoosterEntity.ts&#45;&gt;../messages.ts -->
<g id="edge65" class="edge">
<title>../entities/RoosterEntity.ts&#45;&gt;../messages.ts</title>
<path fill="none" stroke="#757575" d="M889.18,-960.39C980.44,-977.84 1172.17,-1002.98 1318,-943.83 1371.58,-922.09 1416,-867.5 1437.16,-837.81"/>
<polygon fill="#757575" stroke="#757575" points="1440.13,-839.66 1442.97,-829.46 1434.39,-835.67 1440.13,-839.66"/>
</g>
<!-- ../entities/RoosterEntity.ts&#45;&gt;../systems/BehaviorSystem.ts -->
<g id="edge66" class="edge">
<title>../entities/RoosterEntity.ts&#45;&gt;../systems/BehaviorSystem.ts</title>
<path fill="none" stroke="#757575" d="M920.06,-947.06C1049.7,-943.58 1287.64,-933.96 1318,-909.83 1359.26,-877.03 1326.65,-841.88 1354,-796.83 1373.35,-764.96 1405.24,-735.71 1427.03,-717.84"/>
<polygon fill="#757575" stroke="#757575" points="1429.23,-720.56 1434.84,-711.57 1424.85,-715.1 1429.23,-720.56"/>
</g>
<!-- ../entities/WallEntity.ts&#45;&gt;../Component.ts -->
<g id="edge67" class="edge">
<title>../entities/WallEntity.ts&#45;&gt;../Component.ts</title>
<path fill="none" stroke="#757575" d="M1287.65,-570.26C1378.75,-548.91 1588.14,-507.22 1764,-526.83 1834.19,-534.65 1857.92,-526.37 1919,-561.83 1953.32,-581.75 1982.12,-618.81 1997.79,-641.79"/>
<polygon fill="#757575" stroke="#757575" points="1994.87,-643.72 2003.32,-650.12 2000.71,-639.86 1994.87,-643.72"/>
</g>
<!-- ../entities/WallEntity.ts&#45;&gt;../EntityManager.ts -->
<g id="edge68" class="edge">
<title>../entities/WallEntity.ts&#45;&gt;../EntityManager.ts</title>
<path fill="none" stroke="#757575" d="M1258.06,-570.22C1279.19,-556.17 1317.39,-533.21 1354,-523.83 1597.25,-461.46 1683.59,-439.41 1919,-526.83 2031.76,-568.7 2122.21,-691.11 2154.62,-739.66"/>
<polygon fill="#757575" stroke="#757575" points="2151.73,-741.64 2160.15,-748.08 2157.59,-737.8 2151.73,-741.64"/>
</g>
<!-- ../entities/WallEntity.ts&#45;&gt;../Message.ts -->
<g id="edge69" class="edge">
<title>../entities/WallEntity.ts&#45;&gt;../Message.ts</title>
<path fill="none" stroke="#757575" d="M1301.57,-593.44C1307.62,-596.41 1313.27,-600.15 1318,-604.83 1356.08,-642.48 1317.53,-680.61 1354,-719.83 1417.45,-788.07 1480.8,-733.34 1549,-796.83 1576.06,-822.02 1564.7,-840.92 1585,-871.83 1605.59,-903.17 1635,-935.17 1654.17,-954.77"/>
<polygon fill="#757575" stroke="#757575" points="1651.94,-957.49 1661.46,-962.13 1656.91,-952.56 1651.94,-957.49"/>
</g>
<!-- ../entities/WallEntity.ts&#45;&gt;../constants.ts -->
<g id="edge70" class="edge">
<title>../entities/WallEntity.ts&#45;&gt;../constants.ts</title>
<path fill="none" stroke="#757575" d="M1205.17,-593.33C1110.51,-619.73 844.86,-682.56 725.45,-707.15"/>
<polygon fill="#757575" stroke="#757575" points="724.49,-703.77 715.39,-709.2 725.89,-710.63 724.49,-703.77"/>
</g>
<!-- ../entities/WallEntity.ts&#45;&gt;../messages.ts -->
<g id="edge71" class="edge">
<title>../entities/WallEntity.ts&#45;&gt;../messages.ts</title>
<path fill="none" stroke="#757575" d="M1246.98,-593.41C1261.32,-622.86 1302.44,-701.94 1354,-753.83 1373.05,-773 1398.7,-789.68 1418.76,-801.2"/>
<polygon fill="#757575" stroke="#757575" points="1417.11,-804.29 1427.55,-806.12 1420.53,-798.18 1417.11,-804.29"/>
</g>
<!-- ../entities/WallEntity.ts&#45;&gt;../systems/BehaviorSystem.ts -->
<g id="edge72" class="edge">
<title>../entities/WallEntity.ts&#45;&gt;../systems/BehaviorSystem.ts</title>
<path fill="none" stroke="#757575" d="M1261.92,-593.36C1299.14,-614.37 1378.15,-658.98 1421.15,-683.25"/>
<polygon fill="#757575" stroke="#757575" points="1419.57,-686.38 1430,-688.25 1423.01,-680.29 1419.57,-686.38"/>
</g>
<!-- ../messages.ts&#45;&gt;../Error.ts -->
<g id="edge75" class="edge">
<title>../messages.ts&#45;&gt;../Error.ts</title>
<path fill="none" stroke="#757575" d="M1474.02,-829.36C1493.87,-840.22 1523.96,-857.26 1549,-873.83 1565.68,-884.87 1567.1,-891.9 1585,-900.83 1585.69,-901.17 2009.73,-1023.83 2010.5,-1023.83 2010.5,-1023.83 2010.5,-1023.83 2326,-1023.83 2471.06,-1023.83 2543.99,-810.35 2563.82,-741.18"/>
<polygon fill="#757575" stroke="#757575" points="2567.24,-741.95 2566.55,-731.37 2560.5,-740.07 2567.24,-741.95"/>
</g>
<!-- ../messages.ts&#45;&gt;../units/convert.ts -->
<g id="edge78" class="edge">
<title>../messages.ts&#45;&gt;../units/convert.ts</title>
<path fill="none" stroke="#757575" d="M1503.97,-827.66C1518.95,-831.58 1535.02,-836.87 1549,-843.83 1567.14,-852.86 1566.15,-864.38 1585,-871.83 1650.96,-897.88 1732.61,-902.09 1789.44,-901.06"/>
<polygon fill="#757575" stroke="#757575" points="1789.84,-904.55 1799.75,-900.81 1789.67,-897.55 1789.84,-904.55"/>
</g>
<!-- ../messages.ts&#45;&gt;../Message.ts -->
<g id="edge76" class="edge">
<title>../messages.ts&#45;&gt;../Message.ts</title>
<path fill="none" stroke="#757575" d="M1503.69,-822.18C1519.85,-825.84 1536.69,-832.35 1549,-843.83 1584.78,-877.18 1549.6,-914.07 1585,-947.83 1593.43,-955.86 1604.2,-961.43 1615.32,-965.28"/>
<polygon fill="#757575" stroke="#757575" points="1614.54,-968.7 1625.12,-968.25 1616.56,-962 1614.54,-968.7"/>
</g>
<!-- ../systems/TileSystem.ts -->
<g id="node29" class="node">
<title>../systems/TileSystem.ts</title>
<path fill="none" stroke="#c6c5fe" d="M1748.83,-829.33C1748.83,-829.33 1600.17,-829.33 1600.17,-829.33 1596.33,-829.33 1592.5,-825.49 1592.5,-821.66 1592.5,-821.66 1592.5,-813.99 1592.5,-813.99 1592.5,-810.16 1596.33,-806.33 1600.17,-806.33 1600.17,-806.33 1748.83,-806.33 1748.83,-806.33 1752.67,-806.33 1756.5,-810.16 1756.5,-813.99 1756.5,-813.99 1756.5,-821.66 1756.5,-821.66 1756.5,-825.49 1752.67,-829.33 1748.83,-829.33"/>
<text text-anchor="middle" x="1674.5" y="-814.13" font-family="Arial" font-size="14.00" fill="#c6c5fe">../systems/TileSystem.ts</text>
</g>
<!-- ../messages.ts&#45;&gt;../systems/TileSystem.ts -->
<g id="edge77" class="edge">
<title>../messages.ts&#45;&gt;../systems/TileSystem.ts</title>
<path fill="none" stroke="#757575" d="M1503.76,-817.83C1527.05,-817.83 1555.33,-817.83 1582.07,-817.83"/>
<polygon fill="#757575" stroke="#757575" points="1582.23,-821.33 1592.23,-817.83 1582.23,-814.33 1582.23,-821.33"/>
</g>
<!-- ../systems/BehaviorSystem.ts&#45;&gt;../Action.ts -->
<g id="edge83" class="edge">
<title>../systems/BehaviorSystem.ts&#45;&gt;../Action.ts</title>
<path fill="none" stroke="#757575" d="M1497.1,-688.27C1522.73,-681.83 1555.57,-673.9 1585,-667.83 1663.02,-651.72 1754.35,-636.81 1809.25,-628.28"/>
<polygon fill="#757575" stroke="#757575" points="1810.05,-631.69 1819.4,-626.71 1808.98,-624.78 1810.05,-631.69"/>
</g>
<!-- ../systems/BehaviorSystem.ts&#45;&gt;../Component.ts -->
<g id="edge84" class="edge">
<title>../systems/BehaviorSystem.ts&#45;&gt;../Component.ts</title>
<path fill="none" stroke="#757575" d="M1549.18,-711.2C1665.43,-723.47 1853.13,-738.43 1919,-715.83 1938.17,-709.25 1937.72,-698.41 1955,-687.83 1960.85,-684.24 1967.28,-680.81 1973.62,-677.69"/>
<polygon fill="#757575" stroke="#757575" points="1975.23,-680.8 1982.77,-673.35 1972.23,-674.47 1975.23,-680.8"/>
</g>
<!-- ../systems/BehaviorSystem.ts&#45;&gt;../Message.ts -->
<g id="edge85" class="edge">
<title>../systems/BehaviorSystem.ts&#45;&gt;../Message.ts</title>
<path fill="none" stroke="#757575" d="M1528.08,-711.42C1535.85,-715.05 1543.05,-719.75 1549,-725.83 1595.75,-773.59 1554.24,-812.49 1585,-871.83 1602.14,-904.9 1632.1,-936.22 1652.36,-955.21"/>
<polygon fill="#757575" stroke="#757575" points="1650.13,-957.92 1659.87,-962.1 1654.87,-952.76 1650.13,-957.92"/>
</g>
<!-- ../systems/BehaviorSystem.ts&#45;&gt;../System.ts -->
<g id="edge86" class="edge">
<title>../systems/BehaviorSystem.ts&#45;&gt;../System.ts</title>
<path fill="none" stroke="#757575" d="M1549.23,-690.77C1629.49,-683.26 1740.61,-672.86 1805.5,-666.79"/>
<polygon fill="#757575" stroke="#757575" points="1805.87,-670.27 1815.5,-665.85 1805.22,-663.3 1805.87,-670.27"/>
</g>
<!-- ../systems/BehaviorSystem.ts&#45;&gt;../systems/ActionSystem.ts -->
<g id="edge87" class="edge">
<title>../systems/BehaviorSystem.ts&#45;&gt;../systems/ActionSystem.ts</title>
<path fill="none" stroke="#757575" d="M1469.47,-688.15C1508.14,-661.56 1602.9,-596.38 1648.37,-565.11"/>
<polygon fill="#757575" stroke="#757575" points="1650.51,-567.88 1656.77,-559.33 1646.55,-562.12 1650.51,-567.88"/>
</g>
<!-- ../systems/ActionSystem.ts&#45;&gt;../Action.ts -->
<g id="edge79" class="edge">
<title>../systems/ActionSystem.ts&#45;&gt;../Action.ts</title>
<path fill="none" stroke="#757575" d="M1722.64,-559.38C1736.23,-563.33 1750.91,-568.19 1764,-573.83 1781.01,-581.16 1783.51,-586.39 1800,-594.83 1806.8,-598.31 1814.17,-601.8 1821.31,-605.03"/>
<polygon fill="#757575" stroke="#757575" points="1820.27,-608.4 1830.83,-609.27 1823.11,-602.01 1820.27,-608.4"/>
</g>
<!-- ../systems/ActionSystem.ts&#45;&gt;../Component.ts -->
<g id="edge80" class="edge">
<title>../systems/ActionSystem.ts&#45;&gt;../Component.ts</title>
<path fill="none" stroke="#757575" d="M1764.2,-558.37C1811.49,-566.05 1869.89,-578.89 1919,-599.83 1944.94,-610.89 1971.25,-629.68 1988.96,-643.68"/>
<polygon fill="#757575" stroke="#757575" points="1986.94,-646.55 1996.92,-650.12 1991.34,-641.11 1986.94,-646.55"/>
</g>
<!-- ../systems/ActionSystem.ts&#45;&gt;../Error.ts -->
<g id="edge81" class="edge">
<title>../systems/ActionSystem.ts&#45;&gt;../Error.ts</title>
<path fill="none" stroke="#757575" d="M1716.11,-536.29C1809.12,-511.72 2044.11,-460.1 2233,-506.83 2369.73,-540.65 2501.93,-655.52 2550.23,-701.03"/>
<polygon fill="#757575" stroke="#757575" points="2548.11,-703.84 2557.76,-708.21 2552.94,-698.77 2548.11,-703.84"/>
</g>
<!-- ../systems/ActionSystem.ts&#45;&gt;../System.ts -->
<g id="edge82" class="edge">
<title>../systems/ActionSystem.ts&#45;&gt;../System.ts</title>
<path fill="none" stroke="#757575" d="M1688.42,-559.56C1710.1,-578.74 1755.8,-617.07 1800,-640.83 1803.69,-642.81 1807.6,-644.67 1811.59,-646.41"/>
<polygon fill="#757575" stroke="#757575" points="1810.38,-649.69 1820.96,-650.22 1813.02,-643.21 1810.38,-649.69"/>
</g>
<!-- ../systems/LogSystem.ts&#45;&gt;../Observable.ts -->
<g id="edge88" class="edge">
<title>../systems/LogSystem.ts&#45;&gt;../Observable.ts</title>
<path fill="none" stroke="#757575" d="M1756.78,-236.89C1846.48,-237.31 1988.65,-252.93 2068,-338.83 2131.96,-408.06 2040.32,-478.34 2104,-547.83 2142.95,-590.33 2208.99,-603.22 2258.58,-606.45"/>
<polygon fill="#757575" stroke="#757575" points="2258.4,-609.95 2268.58,-606.99 2258.78,-602.96 2258.4,-609.95"/>
</g>
<!-- ../systems/LogSystem.ts&#45;&gt;../System.ts -->
<g id="edge89" class="edge">
<title>../systems/LogSystem.ts&#45;&gt;../System.ts</title>
<path fill="none" stroke="#757575" d="M1679.06,-252.34C1699.32,-317.76 1799.1,-639.88 1800,-640.83 1802.03,-642.95 1804.29,-644.85 1806.7,-646.56"/>
<polygon fill="#757575" stroke="#757575" points="1805.02,-649.64 1815.42,-651.68 1808.57,-643.6 1805.02,-649.64"/>
</g>
<!-- ../systems/LogSystem.ts&#45;&gt;../UIElement.ts -->
<g id="edge90" class="edge">
<title>../systems/LogSystem.ts&#45;&gt;../UIElement.ts</title>
<path fill="none" stroke="#757575" d="M1718.86,-229.29C1797.05,-211.24 1963.24,-185.83 2068,-262.83 2148.42,-321.94 2163.86,-454.05 2166.81,-506.13"/>
<polygon fill="#757575" stroke="#757575" points="2163.32,-506.41 2167.28,-516.24 2170.31,-506.09 2163.32,-506.41"/>
</g>
<!-- ../systems/TileSystem.ts&#45;&gt;../Component.ts -->
<g id="edge91" class="edge">
<title>../systems/TileSystem.ts&#45;&gt;../Component.ts</title>
<path fill="none" stroke="#757575" d="M1756.7,-812.75C1807.85,-805.89 1872.71,-790.07 1919,-753.83 1945.31,-733.23 1930.66,-710.72 1955,-687.83 1958.83,-684.23 1963.24,-681.05 1967.87,-678.27"/>
<polygon fill="#757575" stroke="#757575" points="1969.8,-681.2 1976.95,-673.39 1966.49,-675.04 1969.8,-681.2"/>
</g>
<!-- ../systems/TileSystem.ts&#45;&gt;../units/convert.ts -->
<g id="edge94" class="edge">
<title>../systems/TileSystem.ts&#45;&gt;../units/convert.ts</title>
<path fill="none" stroke="#757575" d="M1728.98,-829.42C1740.91,-833.11 1753.22,-837.85 1764,-843.83 1782.72,-854.21 1781.59,-864.9 1800,-875.83 1803.35,-877.82 1806.92,-879.66 1810.58,-881.36"/>
<polygon fill="#757575" stroke="#757575" points="1809.21,-884.59 1819.78,-885.3 1811.96,-878.15 1809.21,-884.59"/>
</g>
<!-- ../systems/TileSystem.ts&#45;&gt;../Query.ts -->
<g id="edge92" class="edge">
<title>../systems/TileSystem.ts&#45;&gt;../Query.ts</title>
<path fill="none" stroke="#757575" d="M1730.9,-829.33C1756.03,-834.55 1785.49,-840.67 1809.76,-845.71"/>
<polygon fill="#757575" stroke="#757575" points="1809.32,-849.19 1819.82,-847.8 1810.74,-842.34 1809.32,-849.19"/>
</g>
<!-- ../systems/TileSystem.ts&#45;&gt;../System.ts -->
<g id="edge93" class="edge">
<title>../systems/TileSystem.ts&#45;&gt;../System.ts</title>
<path fill="none" stroke="#757575" d="M1689.25,-806.1C1720.78,-779.22 1798.49,-712.99 1836.64,-680.46"/>
<polygon fill="#757575" stroke="#757575" points="1839.25,-682.84 1844.59,-673.69 1834.7,-677.51 1839.25,-682.84"/>
</g>
<!-- auth.ts -->
<g id="node30" class="node">
<title>auth.ts</title>
<path fill="none" stroke="#c6c5fe" d="M516.33,-748.33C516.33,-748.33 474.67,-748.33 474.67,-748.33 470.83,-748.33 467,-744.49 467,-740.66 467,-740.66 467,-732.99 467,-732.99 467,-729.16 470.83,-725.33 474.67,-725.33 474.67,-725.33 516.33,-725.33 516.33,-725.33 520.17,-725.33 524,-729.16 524,-732.99 524,-732.99 524,-740.66 524,-740.66 524,-744.49 520.17,-748.33 516.33,-748.33"/>
<text text-anchor="middle" x="495.5" y="-733.13" font-family="Arial" font-size="14.00" fill="#c6c5fe">auth.ts</text>
</g>
<!-- auth.ts&#45;&gt;../Error.ts -->
<g id="edge95" class="edge">
<title>auth.ts&#45;&gt;../Error.ts</title>
<path fill="none" stroke="#757575" d="M498.65,-748.62C512.75,-822.07 599.03,-1213.83 834.5,-1213.83 834.5,-1213.83 834.5,-1213.83 2326,-1213.83 2539.62,-1213.83 2565.84,-837.57 2569.05,-741.8"/>
<polygon fill="#757575" stroke="#757575" points="2572.56,-741.65 2569.34,-731.55 2565.56,-741.45 2572.56,-741.65"/>
</g>
<!-- auth.ts&#45;&gt;../constants.ts -->
<g id="edge96" class="edge">
<title>auth.ts&#45;&gt;../constants.ts</title>
<path fill="none" stroke="#757575" d="M524.16,-733.52C546.09,-730.91 577.52,-727.15 605.02,-723.87"/>
<polygon fill="#757575" stroke="#757575" points="605.44,-727.34 614.96,-722.68 604.61,-720.39 605.44,-727.34"/>
</g>
<!-- entity.ts -->
<g id="node31" class="node">
<title>entity.ts</title>
<path fill="none" stroke="#c6c5fe" d="M153.33,-174.33C153.33,-174.33 106.67,-174.33 106.67,-174.33 102.83,-174.33 99,-170.49 99,-166.66 99,-166.66 99,-158.99 99,-158.99 99,-155.16 102.83,-151.33 106.67,-151.33 106.67,-151.33 153.33,-151.33 153.33,-151.33 157.17,-151.33 161,-155.16 161,-158.99 161,-158.99 161,-166.66 161,-166.66 161,-170.49 157.17,-174.33 153.33,-174.33"/>
<text text-anchor="middle" x="130" y="-159.13" font-family="Arial" font-size="14.00" fill="#c6c5fe">entity.ts</text>
</g>
<!-- entity.ts&#45;&gt;../EntityManager.ts -->
<g id="edge97" class="edge">
<title>entity.ts&#45;&gt;../EntityManager.ts</title>
<path fill="none" stroke="#757575" d="M146.65,-174.38C159.49,-183.21 178.5,-194.86 197,-200.83 358.84,-253.06 408.94,-223.16 579,-222.83 1105.67,-221.81 1267.16,-45.1 1764,-219.83 1927.44,-277.31 1968.84,-321.76 2068,-463.83 2084.43,-487.36 2141.75,-674.48 2161.08,-738.46"/>
<polygon fill="#757575" stroke="#757575" points="2157.8,-739.71 2164.04,-748.28 2164.5,-737.69 2157.8,-739.71"/>
</g>
<!-- entity.ts&#45;&gt;../Error.ts -->
<g id="edge98" class="edge">
<title>entity.ts&#45;&gt;../Error.ts</title>
<path fill="none" stroke="#757575" d="M134.13,-151.33C141.11,-128.06 160.31,-75.53 197,-50.83 307.87,23.82 360.84,-6.83 494.5,-6.83 494.5,-6.83 494.5,-6.83 2326,-6.83 2413.51,-6.83 2450.08,-28.27 2499,-100.83 2566.76,-201.32 2569.91,-600.31 2569.64,-698.1"/>
<polygon fill="#757575" stroke="#757575" points="2566.14,-698.25 2569.6,-708.27 2573.14,-698.28 2566.14,-698.25"/>
</g>
<!-- entity.ts&#45;&gt;../Observable.ts -->
<g id="edge100" class="edge">
<title>entity.ts&#45;&gt;../Observable.ts</title>
<path fill="none" stroke="#757575" d="M161.21,-160.65C275.82,-152.57 694.79,-124.83 1040.5,-124.83 1040.5,-124.83 1040.5,-124.83 1675.5,-124.83 1854.47,-124.83 1921.13,-112.56 2068,-214.83 2209.6,-313.43 2292.6,-518.03 2316.65,-584.48"/>
<polygon fill="#757575" stroke="#757575" points="2313.47,-586 2320.12,-594.25 2320.07,-583.66 2313.47,-586"/>
</g>
<!-- entity.ts&#45;&gt;../NetworkedEntityServer.ts -->
<g id="edge99" class="edge">
<title>entity.ts&#45;&gt;../NetworkedEntityServer.ts</title>
<path fill="none" stroke="#757575" d="M161.16,-155.02C180.98,-149.89 207.5,-143.02 230.95,-136.95"/>
<polygon fill="#757575" stroke="#757575" points="231.98,-140.3 240.78,-134.4 230.23,-133.52 231.98,-140.3"/>
</g>
<!-- entity.ts&#45;&gt;../functions/Networking.ts -->
<g id="edge101" class="edge">
<title>entity.ts&#45;&gt;../functions/Networking.ts</title>
<path fill="none" stroke="#757575" d="M161.09,-170.02C172.31,-172.48 185.18,-175.06 197,-176.83 265.23,-187.01 342.9,-193.63 401.76,-197.64"/>
<polygon fill="#757575" stroke="#757575" points="401.57,-201.14 411.79,-198.31 402.04,-194.15 401.57,-201.14"/>
</g>
<!-- entity.ts&#45;&gt;../util.ts -->
<g id="edge102" class="edge">
<title>entity.ts&#45;&gt;../util.ts</title>
<path fill="none" stroke="#757575" d="M139.9,-151.32C151.46,-137.25 173.01,-113.85 197,-101.83 282.5,-58.99 396.86,-49.27 455.79,-47.22"/>
<polygon fill="#757575" stroke="#757575" points="455.89,-50.72 465.78,-46.93 455.69,-43.72 455.89,-50.72"/>
</g>
<!-- index.ts -->
<g id="node32" class="node">
<title>index.ts</title>
<path fill="none" stroke="#c6c5fe" d="M55.33,-708.33C55.33,-708.33 7.67,-708.33 7.67,-708.33 3.83,-708.33 0,-704.49 0,-700.66 0,-700.66 0,-692.99 0,-692.99 0,-689.16 3.83,-685.33 7.67,-685.33 7.67,-685.33 55.33,-685.33 55.33,-685.33 59.17,-685.33 63,-689.16 63,-692.99 63,-692.99 63,-700.66 63,-700.66 63,-704.49 59.17,-708.33 55.33,-708.33"/>
<text text-anchor="middle" x="31.5" y="-693.13" font-family="Arial" font-size="14.00" fill="#c6c5fe">index.ts</text>
</g>
<!-- index.ts&#45;&gt;../constants.ts -->
<g id="edge103" class="edge">
<title>index.ts&#45;&gt;../constants.ts</title>
<path fill="none" stroke="#757575" d="M63.39,-697.81C162.48,-700.94 473.56,-710.8 604.73,-714.95"/>
<polygon fill="#757575" stroke="#757575" points="604.88,-718.46 614.99,-715.28 605.1,-711.46 604.88,-718.46"/>
</g>
<!-- index.ts&#45;&gt;auth.ts -->
<g id="edge104" class="edge">
<title>index.ts&#45;&gt;auth.ts</title>
<path fill="none" stroke="#757575" d="M63.13,-704.23C74.35,-706.68 87.19,-709.21 99,-710.83 229.33,-728.74 385.58,-734.4 456.34,-736.12"/>
<polygon fill="#757575" stroke="#757575" points="456.47,-739.62 466.55,-736.35 456.63,-732.62 456.47,-739.62"/>
</g>
<!-- index.ts&#45;&gt;entity.ts -->
<g id="edge105" class="edge">
<title>index.ts&#45;&gt;entity.ts</title>
<path fill="none" stroke="#757575" d="M34.61,-685.18C46.83,-617.53 108.7,-275.14 125.04,-184.74"/>
<polygon fill="#757575" stroke="#757575" points="128.51,-185.25 126.84,-174.78 121.62,-184 128.51,-185.25"/>
</g>
</g>
</svg>
