<?xml version="1.0" encoding="UTF-8" standalone="no"?>
<!DOCTYPE svg PUBLIC "-//W3C//DTD SVG 1.1//EN"
 "http://www.w3.org/Graphics/SVG/1.1/DTD/svg11.dtd">
<!-- Generated by graphviz version 2.43.0 (0)
 -->
<!-- Title: G Pages: 1 -->
<svg width="1425pt" height="704pt"
 viewBox="0.00 0.00 1425.20 704.46" xmlns="http://www.w3.org/2000/svg" xmlns:xlink="http://www.w3.org/1999/xlink">
<g id="graph0" class="graph" transform="scale(1 1) rotate(0) translate(21.6 682.86)">
<title>G</title>
<polygon fill="#111111" stroke="transparent" points="-21.6,21.6 -21.6,-682.86 1403.6,-682.86 1403.6,21.6 -21.6,21.6"/>
<!-- ../Component.ts -->
<g id="node1" class="node">
<title>../Component.ts</title>
<path fill="none" stroke="#c6c5fe" d="M754.83,-465.26C754.83,-465.26 657.17,-465.26 657.17,-465.26 653.33,-465.26 649.5,-461.43 649.5,-457.6 649.5,-457.6 649.5,-449.93 649.5,-449.93 649.5,-446.1 653.33,-442.26 657.17,-442.26 657.17,-442.26 754.83,-442.26 754.83,-442.26 758.67,-442.26 762.5,-446.1 762.5,-449.93 762.5,-449.93 762.5,-457.6 762.5,-457.6 762.5,-461.43 758.67,-465.26 754.83,-465.26"/>
<text text-anchor="middle" x="706" y="-450.06" font-family="Arial" font-size="14.00" fill="#c6c5fe">../Component.ts</text>
</g>
<!-- ../Debug.ts -->
<g id="node2" class="node">
<title>../Debug.ts</title>
<path fill="none" stroke="#c6c5fe" d="M1267.33,-429.26C1267.33,-429.26 1200.67,-429.26 1200.67,-429.26 1196.83,-429.26 1193,-425.43 1193,-421.6 1193,-421.6 1193,-413.93 1193,-413.93 1193,-410.1 1196.83,-406.26 1200.67,-406.26 1200.67,-406.26 1267.33,-406.26 1267.33,-406.26 1271.17,-406.26 1275,-410.1 1275,-413.93 1275,-413.93 1275,-421.6 1275,-421.6 1275,-425.43 1271.17,-429.26 1267.33,-429.26"/>
<text text-anchor="middle" x="1234" y="-414.06" font-family="Arial" font-size="14.00" fill="#c6c5fe">../Debug.ts</text>
</g>
<!-- ../Component.ts&#45;&gt;../Debug.ts -->
<g id="edge1" class="edge">
<title>../Component.ts&#45;&gt;../Debug.ts</title>
<path fill="none" stroke="#757575" d="M762.66,-449.62C815.89,-445.69 898.41,-439.66 970,-434.76 1044.04,-429.7 1129.82,-424.23 1182.76,-420.9"/>
<polygon fill="#757575" stroke="#757575" points="1183.13,-424.38 1192.89,-420.26 1182.69,-417.4 1183.13,-424.38"/>
</g>
<!-- ../Entity.ts -->
<g id="node3" class="node">
<title>../Entity.ts</title>
<path fill="none" stroke="#cfffac" d="M904.33,-543.26C904.33,-543.26 844.67,-543.26 844.67,-543.26 840.83,-543.26 837,-539.43 837,-535.6 837,-535.6 837,-527.93 837,-527.93 837,-524.1 840.83,-520.26 844.67,-520.26 844.67,-520.26 904.33,-520.26 904.33,-520.26 908.17,-520.26 912,-524.1 912,-527.93 912,-527.93 912,-535.6 912,-535.6 912,-539.43 908.17,-543.26 904.33,-543.26"/>
<text text-anchor="middle" x="874.5" y="-528.06" font-family="Arial" font-size="14.00" fill="#cfffac">../Entity.ts</text>
</g>
<!-- ../Component.ts&#45;&gt;../Entity.ts -->
<g id="edge2" class="edge">
<title>../Component.ts&#45;&gt;../Entity.ts</title>
<path fill="none" stroke="#757575" d="M730.5,-465.33C752.31,-476.01 785.73,-492.22 815,-505.76 822.3,-509.14 830.16,-512.69 837.67,-516.04"/>
<polygon fill="#757575" stroke="#757575" points="836.36,-519.3 846.92,-520.16 839.2,-512.9 836.36,-519.3"/>
</g>
<!-- ../Error.ts -->
<g id="node4" class="node">
<title>../Error.ts</title>
<path fill="none" stroke="#cfffac" d="M1374.33,-389.26C1374.33,-389.26 1318.67,-389.26 1318.67,-389.26 1314.83,-389.26 1311,-385.43 1311,-381.6 1311,-381.6 1311,-373.93 1311,-373.93 1311,-370.1 1314.83,-366.26 1318.67,-366.26 1318.67,-366.26 1374.33,-366.26 1374.33,-366.26 1378.17,-366.26 1382,-370.1 1382,-373.93 1382,-373.93 1382,-381.6 1382,-381.6 1382,-385.43 1378.17,-389.26 1374.33,-389.26"/>
<text text-anchor="middle" x="1346.5" y="-374.06" font-family="Arial" font-size="14.00" fill="#cfffac">../Error.ts</text>
</g>
<!-- ../Component.ts&#45;&gt;../Error.ts -->
<g id="edge3" class="edge">
<title>../Component.ts&#45;&gt;../Error.ts</title>
<path fill="none" stroke="#757575" d="M762.83,-464.09C848.29,-478.22 1016.44,-499.39 1157,-476.76 1211.53,-467.99 1226.85,-464.83 1275,-437.76 1294.68,-426.7 1313.98,-409.72 1327.4,-396.64"/>
<polygon fill="#757575" stroke="#757575" points="1329.98,-399.01 1334.58,-389.47 1325.03,-394.06 1329.98,-399.01"/>
</g>
<!-- ../Observable.ts -->
<g id="node5" class="node">
<title>../Observable.ts</title>
<path fill="none" stroke="#c6c5fe" d="M1111.83,-467.26C1111.83,-467.26 1015.17,-467.26 1015.17,-467.26 1011.33,-467.26 1007.5,-463.43 1007.5,-459.6 1007.5,-459.6 1007.5,-451.93 1007.5,-451.93 1007.5,-448.1 1011.33,-444.26 1015.17,-444.26 1015.17,-444.26 1111.83,-444.26 1111.83,-444.26 1115.67,-444.26 1119.5,-448.1 1119.5,-451.93 1119.5,-451.93 1119.5,-459.6 1119.5,-459.6 1119.5,-463.43 1115.67,-467.26 1111.83,-467.26"/>
<text text-anchor="middle" x="1063.5" y="-452.06" font-family="Arial" font-size="14.00" fill="#c6c5fe">../Observable.ts</text>
</g>
<!-- ../Component.ts&#45;&gt;../Observable.ts -->
<g id="edge4" class="edge">
<title>../Component.ts&#45;&gt;../Observable.ts</title>
<path fill="none" stroke="#757575" d="M762.55,-454.08C826.07,-454.43 929.96,-455.02 997.28,-455.4"/>
<polygon fill="#757575" stroke="#757575" points="997.32,-458.9 1007.34,-455.45 997.36,-451.9 997.32,-458.9"/>
</g>
<!-- ../Debug.ts&#45;&gt;../Error.ts -->
<g id="edge5" class="edge">
<title>../Debug.ts&#45;&gt;../Error.ts</title>
<path fill="none" stroke="#757575" d="M1266.96,-406.19C1278.53,-402.01 1291.76,-397.22 1304.03,-392.78"/>
<polygon fill="#757575" stroke="#757575" points="1305.4,-396 1313.61,-389.31 1303.02,-389.42 1305.4,-396"/>
</g>
<!-- ../Observable.ts&#45;&gt;../Debug.ts -->
<g id="edge20" class="edge">
<title>../Observable.ts&#45;&gt;../Debug.ts</title>
<path fill="none" stroke="#757575" d="M1115.51,-444.26C1136.92,-439.43 1161.74,-433.84 1183.03,-429.03"/>
<polygon fill="#757575" stroke="#757575" points="1183.87,-432.43 1192.85,-426.82 1182.33,-425.6 1183.87,-432.43"/>
</g>
<!-- ../HeadingDirection.ts -->
<g id="node6" class="node">
<title>../HeadingDirection.ts</title>
<path fill="none" stroke="#c6c5fe" d="M771.33,-28.26C771.33,-28.26 640.67,-28.26 640.67,-28.26 636.83,-28.26 633,-24.43 633,-20.6 633,-20.6 633,-12.93 633,-12.93 633,-9.1 636.83,-5.26 640.67,-5.26 640.67,-5.26 771.33,-5.26 771.33,-5.26 775.17,-5.26 779,-9.1 779,-12.93 779,-12.93 779,-20.6 779,-20.6 779,-24.43 775.17,-28.26 771.33,-28.26"/>
<text text-anchor="middle" x="706" y="-13.06" font-family="Arial" font-size="14.00" fill="#c6c5fe">../HeadingDirection.ts</text>
</g>
<!-- ../HeadingDirection.ts&#45;&gt;../Error.ts -->
<g id="edge6" class="edge">
<title>../HeadingDirection.ts&#45;&gt;../Error.ts</title>
<path fill="none" stroke="#757575" d="M779.17,-6.42C900.36,6.48 1144.3,12.5 1275,-122.76 1338.82,-188.82 1345.95,-307.27 1346.02,-355.96"/>
<polygon fill="#757575" stroke="#757575" points="1342.52,-356.23 1345.92,-366.26 1349.52,-356.29 1342.52,-356.23"/>
</g>
<!-- ../Three.ts -->
<g id="node7" class="node">
<title>../Three.ts</title>
<path fill="none" stroke="#cfffac" d="M905.33,-89.26C905.33,-89.26 843.67,-89.26 843.67,-89.26 839.83,-89.26 836,-85.43 836,-81.6 836,-81.6 836,-73.93 836,-73.93 836,-70.1 839.83,-66.26 843.67,-66.26 843.67,-66.26 905.33,-66.26 905.33,-66.26 909.17,-66.26 913,-70.1 913,-73.93 913,-73.93 913,-81.6 913,-81.6 913,-85.43 909.17,-89.26 905.33,-89.26"/>
<text text-anchor="middle" x="874.5" y="-74.06" font-family="Arial" font-size="14.00" fill="#cfffac">../Three.ts</text>
</g>
<!-- ../HeadingDirection.ts&#45;&gt;../Three.ts -->
<g id="edge7" class="edge">
<title>../HeadingDirection.ts&#45;&gt;../Three.ts</title>
<path fill="none" stroke="#757575" d="M739.68,-28.37C752.02,-32.81 766.18,-37.96 779,-42.76 795.07,-48.79 798.92,-50.75 815,-56.76 820.24,-58.72 825.76,-60.75 831.23,-62.74"/>
<polygon fill="#757575" stroke="#757575" points="830.36,-66.15 840.95,-66.25 832.74,-59.56 830.36,-66.15"/>
</g>
<!-- ../units/convert.ts -->
<g id="node8" class="node">
<title>../units/convert.ts</title>
<path fill="none" stroke="#cfffac" d="M926.33,-48.26C926.33,-48.26 822.67,-48.26 822.67,-48.26 818.83,-48.26 815,-44.43 815,-40.6 815,-40.6 815,-32.93 815,-32.93 815,-29.1 818.83,-25.26 822.67,-25.26 822.67,-25.26 926.33,-25.26 926.33,-25.26 930.17,-25.26 934,-29.1 934,-32.93 934,-32.93 934,-40.6 934,-40.6 934,-44.43 930.17,-48.26 926.33,-48.26"/>
<text text-anchor="middle" x="874.5" y="-33.06" font-family="Arial" font-size="14.00" fill="#cfffac">../units/convert.ts</text>
</g>
<!-- ../HeadingDirection.ts&#45;&gt;../units/convert.ts -->
<g id="edge8" class="edge">
<title>../HeadingDirection.ts&#45;&gt;../units/convert.ts</title>
<path fill="none" stroke="#757575" d="M779.06,-25.42C787.56,-26.44 796.21,-27.48 804.67,-28.5"/>
<polygon fill="#757575" stroke="#757575" points="804.5,-32 814.85,-29.72 805.34,-25.05 804.5,-32"/>
</g>
<!-- ../Input.ts -->
<g id="node9" class="node">
<title>../Input.ts</title>
<path fill="none" stroke="#cfffac" d="M734.33,-108.26C734.33,-108.26 677.67,-108.26 677.67,-108.26 673.83,-108.26 670,-104.43 670,-100.6 670,-100.6 670,-92.93 670,-92.93 670,-89.1 673.83,-85.26 677.67,-85.26 677.67,-85.26 734.33,-85.26 734.33,-85.26 738.17,-85.26 742,-89.1 742,-92.93 742,-92.93 742,-100.6 742,-100.6 742,-104.43 738.17,-108.26 734.33,-108.26"/>
<text text-anchor="middle" x="706" y="-93.06" font-family="Arial" font-size="14.00" fill="#cfffac">../Input.ts</text>
</g>
<!-- ../Log.ts -->
<g id="node10" class="node">
<title>../Log.ts</title>
<path fill="none" stroke="#c6c5fe" d="M899.33,-327.26C899.33,-327.26 849.67,-327.26 849.67,-327.26 845.83,-327.26 842,-323.43 842,-319.6 842,-319.6 842,-311.93 842,-311.93 842,-308.1 845.83,-304.26 849.67,-304.26 849.67,-304.26 899.33,-304.26 899.33,-304.26 903.17,-304.26 907,-308.1 907,-311.93 907,-311.93 907,-319.6 907,-319.6 907,-323.43 903.17,-327.26 899.33,-327.26"/>
<text text-anchor="middle" x="874.5" y="-312.06" font-family="Arial" font-size="14.00" fill="#c6c5fe">../Log.ts</text>
</g>
<!-- ../Log.ts&#45;&gt;../Error.ts -->
<g id="edge9" class="edge">
<title>../Log.ts&#45;&gt;../Error.ts</title>
<path fill="none" stroke="#757575" d="M895.75,-327.38C914.38,-337.42 943.12,-351.31 970,-357.76 1086.68,-385.79 1229.39,-383.88 1300.6,-380.57"/>
<polygon fill="#757575" stroke="#757575" points="1301.17,-384.05 1310.99,-380.06 1300.83,-377.06 1301.17,-384.05"/>
</g>
<!-- ../Log.ts&#45;&gt;../Observable.ts -->
<g id="edge10" class="edge">
<title>../Log.ts&#45;&gt;../Observable.ts</title>
<path fill="none" stroke="#757575" d="M889.34,-327.42C907.54,-342.61 940.64,-369.85 970,-391.76 992.02,-408.2 1017.78,-425.91 1036.52,-438.52"/>
<polygon fill="#757575" stroke="#757575" points="1034.59,-441.44 1044.85,-444.1 1038.49,-435.63 1034.59,-441.44"/>
</g>
<!-- ../collections/InstanceMap.ts -->
<g id="node11" class="node">
<title>../collections/InstanceMap.ts</title>
<path fill="none" stroke="#cfffac" d="M1149.33,-349.26C1149.33,-349.26 977.67,-349.26 977.67,-349.26 973.83,-349.26 970,-345.43 970,-341.6 970,-341.6 970,-333.93 970,-333.93 970,-330.1 973.83,-326.26 977.67,-326.26 977.67,-326.26 1149.33,-326.26 1149.33,-326.26 1153.17,-326.26 1157,-330.1 1157,-333.93 1157,-333.93 1157,-341.6 1157,-341.6 1157,-345.43 1153.17,-349.26 1149.33,-349.26"/>
<text text-anchor="middle" x="1063.5" y="-334.06" font-family="Arial" font-size="14.00" fill="#cfffac">../collections/InstanceMap.ts</text>
</g>
<!-- ../Log.ts&#45;&gt;../collections/InstanceMap.ts -->
<g id="edge11" class="edge">
<title>../Log.ts&#45;&gt;../collections/InstanceMap.ts</title>
<path fill="none" stroke="#757575" d="M907.22,-319.5C922.04,-321.24 940.61,-323.42 959.7,-325.67"/>
<polygon fill="#757575" stroke="#757575" points="959.37,-329.15 969.71,-326.85 960.19,-322.2 959.37,-329.15"/>
</g>
<!-- ../functions/Array.ts -->
<g id="node12" class="node">
<title>../functions/Array.ts</title>
<path fill="none" stroke="#cfffac" d="M1121.33,-308.26C1121.33,-308.26 1005.67,-308.26 1005.67,-308.26 1001.83,-308.26 998,-304.43 998,-300.6 998,-300.6 998,-292.93 998,-292.93 998,-289.1 1001.83,-285.26 1005.67,-285.26 1005.67,-285.26 1121.33,-285.26 1121.33,-285.26 1125.17,-285.26 1129,-289.1 1129,-292.93 1129,-292.93 1129,-300.6 1129,-300.6 1129,-304.43 1125.17,-308.26 1121.33,-308.26"/>
<text text-anchor="middle" x="1063.5" y="-293.06" font-family="Arial" font-size="14.00" fill="#cfffac">../functions/Array.ts</text>
</g>
<!-- ../Log.ts&#45;&gt;../functions/Array.ts -->
<g id="edge12" class="edge">
<title>../Log.ts&#45;&gt;../functions/Array.ts</title>
<path fill="none" stroke="#757575" d="M907.22,-312.54C929.31,-310.3 959.72,-307.21 987.78,-304.36"/>
<polygon fill="#757575" stroke="#757575" points="988.4,-307.81 997.99,-303.32 987.69,-300.85 988.4,-307.81"/>
</g>
<!-- ../functions/Map.ts -->
<g id="node13" class="node">
<title>../functions/Map.ts</title>
<path fill="none" stroke="#cfffac" d="M1119.33,-267.26C1119.33,-267.26 1007.67,-267.26 1007.67,-267.26 1003.83,-267.26 1000,-263.43 1000,-259.6 1000,-259.6 1000,-251.93 1000,-251.93 1000,-248.1 1003.83,-244.26 1007.67,-244.26 1007.67,-244.26 1119.33,-244.26 1119.33,-244.26 1123.17,-244.26 1127,-248.1 1127,-251.93 1127,-251.93 1127,-259.6 1127,-259.6 1127,-263.43 1123.17,-267.26 1119.33,-267.26"/>
<text text-anchor="middle" x="1063.5" y="-252.06" font-family="Arial" font-size="14.00" fill="#cfffac">../functions/Map.ts</text>
</g>
<!-- ../Log.ts&#45;&gt;../functions/Map.ts -->
<g id="edge13" class="edge">
<title>../Log.ts&#45;&gt;../functions/Map.ts</title>
<path fill="none" stroke="#757575" d="M899.5,-304.12C918.33,-295.36 945.37,-283.56 970,-275.76 976.89,-273.58 984.15,-271.56 991.44,-269.7"/>
<polygon fill="#757575" stroke="#757575" points="992.48,-273.05 1001.37,-267.28 990.83,-266.25 992.48,-273.05"/>
</g>
<!-- ../functions/Set.ts -->
<g id="node14" class="node">
<title>../functions/Set.ts</title>
<path fill="none" stroke="#cfffac" d="M1115.83,-226.26C1115.83,-226.26 1011.17,-226.26 1011.17,-226.26 1007.33,-226.26 1003.5,-222.43 1003.5,-218.6 1003.5,-218.6 1003.5,-210.93 1003.5,-210.93 1003.5,-207.1 1007.33,-203.26 1011.17,-203.26 1011.17,-203.26 1115.83,-203.26 1115.83,-203.26 1119.67,-203.26 1123.5,-207.1 1123.5,-210.93 1123.5,-210.93 1123.5,-218.6 1123.5,-218.6 1123.5,-222.43 1119.67,-226.26 1115.83,-226.26"/>
<text text-anchor="middle" x="1063.5" y="-211.06" font-family="Arial" font-size="14.00" fill="#cfffac">../functions/Set.ts</text>
</g>
<!-- ../Log.ts&#45;&gt;../functions/Set.ts -->
<g id="edge14" class="edge">
<title>../Log.ts&#45;&gt;../functions/Set.ts</title>
<path fill="none" stroke="#757575" d="M885.53,-304.05C901.51,-286.18 934.58,-252.35 970,-234.76 977.32,-231.13 985.3,-228.15 993.39,-225.71"/>
<polygon fill="#757575" stroke="#757575" points="994.56,-229.02 1003.28,-223 992.71,-222.27 994.56,-229.02"/>
</g>
<!-- ../NetworkedEntityServer.ts -->
<g id="node15" class="node">
<title>../NetworkedEntityServer.ts</title>
<path fill="none" stroke="#c6c5fe" d="M386.33,-329.26C386.33,-329.26 222.67,-329.26 222.67,-329.26 218.83,-329.26 215,-325.43 215,-321.6 215,-321.6 215,-313.93 215,-313.93 215,-310.1 218.83,-306.26 222.67,-306.26 222.67,-306.26 386.33,-306.26 386.33,-306.26 390.17,-306.26 394,-310.1 394,-313.93 394,-313.93 394,-321.6 394,-321.6 394,-325.43 390.17,-329.26 386.33,-329.26"/>
<text text-anchor="middle" x="304.5" y="-314.06" font-family="Arial" font-size="14.00" fill="#c6c5fe">../NetworkedEntityServer.ts</text>
</g>
<!-- ../NetworkedEntityServer.ts&#45;&gt;../Component.ts -->
<g id="edge15" class="edge">
<title>../NetworkedEntityServer.ts&#45;&gt;../Component.ts</title>
<path fill="none" stroke="#757575" d="M379.01,-329.4C384.31,-331.71 389.38,-334.47 394,-337.76 418.71,-355.36 405.16,-378.34 430,-395.76 491.93,-439.2 579.71,-451.3 639.31,-454.08"/>
<polygon fill="#757575" stroke="#757575" points="639.23,-457.58 649.36,-454.48 639.51,-450.59 639.23,-457.58"/>
</g>
<!-- ../NetworkedEntityServer.ts&#45;&gt;../Error.ts -->
<g id="edge16" class="edge">
<title>../NetworkedEntityServer.ts&#45;&gt;../Error.ts</title>
<path fill="none" stroke="#757575" d="M328.23,-306.19C429.46,-256.31 847.76,-67.86 1157,-193.76 1239.91,-227.52 1306.24,-317.24 1332.87,-357.6"/>
<polygon fill="#757575" stroke="#757575" points="1329.99,-359.59 1338.36,-366.08 1335.86,-355.78 1329.99,-359.59"/>
</g>
<!-- ../NetworkedEntityServer.ts&#45;&gt;../Log.ts -->
<g id="edge17" class="edge">
<title>../NetworkedEntityServer.ts&#45;&gt;../Log.ts</title>
<path fill="none" stroke="#757575" d="M394.25,-320.16C406.26,-320.41 418.43,-320.62 430,-320.76 577.44,-322.54 752.46,-318.86 831.3,-316.89"/>
<polygon fill="#757575" stroke="#757575" points="831.86,-320.38 841.77,-316.63 831.69,-313.38 831.86,-320.38"/>
</g>
<!-- ../functions/Networking.ts -->
<g id="node16" class="node">
<title>../functions/Networking.ts</title>
<path fill="none" stroke="#c6c5fe" d="M589.33,-387.26C589.33,-387.26 437.67,-387.26 437.67,-387.26 433.83,-387.26 430,-383.43 430,-379.6 430,-379.6 430,-371.93 430,-371.93 430,-368.1 433.83,-364.26 437.67,-364.26 437.67,-364.26 589.33,-364.26 589.33,-364.26 593.17,-364.26 597,-368.1 597,-371.93 597,-371.93 597,-379.6 597,-379.6 597,-383.43 593.17,-387.26 589.33,-387.26"/>
<text text-anchor="middle" x="513.5" y="-372.06" font-family="Arial" font-size="14.00" fill="#c6c5fe">../functions/Networking.ts</text>
</g>
<!-- ../NetworkedEntityServer.ts&#45;&gt;../functions/Networking.ts -->
<g id="edge18" class="edge">
<title>../NetworkedEntityServer.ts&#45;&gt;../functions/Networking.ts</title>
<path fill="none" stroke="#757575" d="M360.48,-329.29C371.62,-331.88 383.23,-334.76 394,-337.76 410.25,-342.29 413.96,-344.56 430,-349.76 441.61,-353.53 454.16,-357.52 465.88,-361.22"/>
<polygon fill="#757575" stroke="#757575" points="464.91,-364.58 475.5,-364.24 467.01,-357.9 464.91,-364.58"/>
</g>
<!-- ../util.ts -->
<g id="node17" class="node">
<title>../util.ts</title>
<path fill="none" stroke="#c6c5fe" d="M727.83,-307.26C727.83,-307.26 684.17,-307.26 684.17,-307.26 680.33,-307.26 676.5,-303.43 676.5,-299.6 676.5,-299.6 676.5,-291.93 676.5,-291.93 676.5,-288.1 680.33,-284.26 684.17,-284.26 684.17,-284.26 727.83,-284.26 727.83,-284.26 731.67,-284.26 735.5,-288.1 735.5,-291.93 735.5,-291.93 735.5,-299.6 735.5,-299.6 735.5,-303.43 731.67,-307.26 727.83,-307.26"/>
<text text-anchor="middle" x="706" y="-292.06" font-family="Arial" font-size="14.00" fill="#c6c5fe">../util.ts</text>
</g>
<!-- ../NetworkedEntityServer.ts&#45;&gt;../util.ts -->
<g id="edge19" class="edge">
<title>../NetworkedEntityServer.ts&#45;&gt;../util.ts</title>
<path fill="none" stroke="#757575" d="M394.16,-312.88C479.13,-308.2 603.41,-301.36 665.97,-297.91"/>
<polygon fill="#757575" stroke="#757575" points="666.39,-301.4 676.18,-297.35 666.01,-294.41 666.39,-301.4"/>
</g>
<!-- ../functions/Networking.ts&#45;&gt;../Component.ts -->
<g id="edge26" class="edge">
<title>../functions/Networking.ts&#45;&gt;../Component.ts</title>
<path fill="none" stroke="#757575" d="M542.61,-387.27C575.67,-400.81 630.69,-423.34 667.4,-438.37"/>
<polygon fill="#757575" stroke="#757575" points="666.2,-441.66 676.78,-442.21 668.85,-435.18 666.2,-441.66"/>
</g>
<!-- ../functions/Networking.ts&#45;&gt;../Log.ts -->
<g id="edge27" class="edge">
<title>../functions/Networking.ts&#45;&gt;../Log.ts</title>
<path fill="none" stroke="#757575" d="M597.25,-372.89C649.82,-369.77 719.02,-363.28 779,-349.76 798.62,-345.34 819.75,-338 837.04,-331.27"/>
<polygon fill="#757575" stroke="#757575" points="838.74,-334.36 846.74,-327.4 836.15,-327.86 838.74,-334.36"/>
</g>
<!-- ../functions/Networking.ts&#45;&gt;../util.ts -->
<g id="edge28" class="edge">
<title>../functions/Networking.ts&#45;&gt;../util.ts</title>
<path fill="none" stroke="#757575" d="M542.2,-364.13C575.45,-350.17 631.32,-326.7 668.18,-311.23"/>
<polygon fill="#757575" stroke="#757575" points="669.71,-314.38 677.58,-307.28 667,-307.93 669.71,-314.38"/>
</g>
<!-- ../util.ts&#45;&gt;../Three.ts -->
<g id="edge31" class="edge">
<title>../util.ts&#45;&gt;../Three.ts</title>
<path fill="none" stroke="#757575" d="M715.95,-284.04C743.12,-248.47 824.82,-141.5 858.62,-97.25"/>
<polygon fill="#757575" stroke="#757575" points="861.42,-99.35 864.71,-89.28 855.85,-95.1 861.42,-99.35"/>
</g>
<!-- ../util.ts&#45;&gt;../Log.ts -->
<g id="edge30" class="edge">
<title>../util.ts&#45;&gt;../Log.ts</title>
<path fill="none" stroke="#757575" d="M735.62,-299.2C762.07,-302.38 801.69,-307.14 831.68,-310.74"/>
<polygon fill="#757575" stroke="#757575" points="831.5,-314.24 841.85,-311.96 832.34,-307.29 831.5,-314.24"/>
</g>
<!-- ../Route.ts -->
<g id="node18" class="node">
<title>../Route.ts</title>
<path fill="none" stroke="#c6c5fe" d="M335.83,-661.26C335.83,-661.26 273.17,-661.26 273.17,-661.26 269.33,-661.26 265.5,-657.43 265.5,-653.6 265.5,-653.6 265.5,-645.93 265.5,-645.93 265.5,-642.1 269.33,-638.26 273.17,-638.26 273.17,-638.26 335.83,-638.26 335.83,-638.26 339.67,-638.26 343.5,-642.1 343.5,-645.93 343.5,-645.93 343.5,-653.6 343.5,-653.6 343.5,-657.43 339.67,-661.26 335.83,-661.26"/>
<text text-anchor="middle" x="304.5" y="-646.06" font-family="Arial" font-size="14.00" fill="#c6c5fe">../Route.ts</text>
</g>
<!-- ../Route.ts&#45;&gt;../util.ts -->
<g id="edge22" class="edge">
<title>../Route.ts&#45;&gt;../util.ts</title>
<path fill="none" stroke="#757575" d="M318.99,-638.26C360.7,-602.64 491.14,-490.86 597,-395.76 628.18,-367.75 663.75,-334.58 685.28,-314.36"/>
<polygon fill="#757575" stroke="#757575" points="687.91,-316.68 692.8,-307.28 683.12,-311.58 687.91,-316.68"/>
</g>
<!-- ../globals.ts -->
<g id="node19" class="node">
<title>../globals.ts</title>
<path fill="none" stroke="#cfffac" d="M548.33,-661.26C548.33,-661.26 478.67,-661.26 478.67,-661.26 474.83,-661.26 471,-657.43 471,-653.6 471,-653.6 471,-645.93 471,-645.93 471,-642.1 474.83,-638.26 478.67,-638.26 478.67,-638.26 548.33,-638.26 548.33,-638.26 552.17,-638.26 556,-642.1 556,-645.93 556,-645.93 556,-653.6 556,-653.6 556,-657.43 552.17,-661.26 548.33,-661.26"/>
<text text-anchor="middle" x="513.5" y="-646.06" font-family="Arial" font-size="14.00" fill="#cfffac">../globals.ts</text>
</g>
<!-- ../Route.ts&#45;&gt;../globals.ts -->
<g id="edge21" class="edge">
<title>../Route.ts&#45;&gt;../globals.ts</title>
<path fill="none" stroke="#757575" d="M343.95,-649.76C376.73,-649.76 424.14,-649.76 460.33,-649.76"/>
<polygon fill="#757575" stroke="#757575" points="460.7,-653.26 470.7,-649.76 460.7,-646.26 460.7,-653.26"/>
</g>
<!-- ../common.ts -->
<g id="node20" class="node">
<title>../common.ts</title>
<path fill="none" stroke="#cfffac" d="M344.33,-370.26C344.33,-370.26 264.67,-370.26 264.67,-370.26 260.83,-370.26 257,-366.43 257,-362.6 257,-362.6 257,-354.93 257,-354.93 257,-351.1 260.83,-347.26 264.67,-347.26 264.67,-347.26 344.33,-347.26 344.33,-347.26 348.17,-347.26 352,-351.1 352,-354.93 352,-354.93 352,-362.6 352,-362.6 352,-366.43 348.17,-370.26 344.33,-370.26"/>
<text text-anchor="middle" x="304.5" y="-355.06" font-family="Arial" font-size="14.00" fill="#cfffac">../common.ts</text>
</g>
<!-- ../constants.ts -->
<g id="node21" class="node">
<title>../constants.ts</title>
<path fill="none" stroke="#c6c5fe" d="M555.83,-108.26C555.83,-108.26 471.17,-108.26 471.17,-108.26 467.33,-108.26 463.5,-104.43 463.5,-100.6 463.5,-100.6 463.5,-92.93 463.5,-92.93 463.5,-89.1 467.33,-85.26 471.17,-85.26 471.17,-85.26 555.83,-85.26 555.83,-85.26 559.67,-85.26 563.5,-89.1 563.5,-92.93 563.5,-92.93 563.5,-100.6 563.5,-100.6 563.5,-104.43 559.67,-108.26 555.83,-108.26"/>
<text text-anchor="middle" x="513.5" y="-93.06" font-family="Arial" font-size="14.00" fill="#c6c5fe">../constants.ts</text>
</g>
<!-- ../constants.ts&#45;&gt;../HeadingDirection.ts -->
<g id="edge23" class="edge">
<title>../constants.ts&#45;&gt;../HeadingDirection.ts</title>
<path fill="none" stroke="#757575" d="M538.31,-85.22C562.06,-73.88 599.71,-56.33 633,-42.76 642.13,-39.04 652.02,-35.29 661.46,-31.84"/>
<polygon fill="#757575" stroke="#757575" points="662.87,-35.06 671.09,-28.37 660.49,-28.47 662.87,-35.06"/>
</g>
<!-- ../constants.ts&#45;&gt;../Three.ts -->
<g id="edge25" class="edge">
<title>../constants.ts&#45;&gt;../Three.ts</title>
<path fill="none" stroke="#757575" d="M563.54,-86.08C584.78,-81.97 610,-77.79 633,-75.76 697.64,-70.08 714.11,-75.08 779,-75.76 794.2,-75.92 810.77,-76.23 825.73,-76.56"/>
<polygon fill="#757575" stroke="#757575" points="825.72,-80.06 835.8,-76.78 825.88,-73.06 825.72,-80.06"/>
</g>
<!-- ../constants.ts&#45;&gt;../Input.ts -->
<g id="edge24" class="edge">
<title>../constants.ts&#45;&gt;../Input.ts</title>
<path fill="none" stroke="#757575" d="M563.56,-96.76C593.21,-96.76 630.74,-96.76 659.69,-96.76"/>
<polygon fill="#757575" stroke="#757575" points="659.94,-100.26 669.94,-96.76 659.94,-93.26 659.94,-100.26"/>
</g>
<!-- ../routes.ts -->
<g id="node22" class="node">
<title>../routes.ts</title>
<path fill="none" stroke="#c6c5fe" d="M171.33,-545.26C171.33,-545.26 106.67,-545.26 106.67,-545.26 102.83,-545.26 99,-541.43 99,-537.6 99,-537.6 99,-529.93 99,-529.93 99,-526.1 102.83,-522.26 106.67,-522.26 106.67,-522.26 171.33,-522.26 171.33,-522.26 175.17,-522.26 179,-526.1 179,-529.93 179,-529.93 179,-537.6 179,-537.6 179,-541.43 175.17,-545.26 171.33,-545.26"/>
<text text-anchor="middle" x="139" y="-530.06" font-family="Arial" font-size="14.00" fill="#c6c5fe">../routes.ts</text>
</g>
<!-- ../routes.ts&#45;&gt;../Route.ts -->
<g id="edge29" class="edge">
<title>../routes.ts&#45;&gt;../Route.ts</title>
<path fill="none" stroke="#757575" d="M146.48,-545.31C157.84,-564.49 183.2,-602.89 215,-623.76 227.07,-631.68 241.6,-637.25 255.38,-641.14"/>
<polygon fill="#757575" stroke="#757575" points="254.67,-644.57 265.23,-643.68 256.42,-637.79 254.67,-644.57"/>
</g>
<!-- auth.ts -->
<g id="node23" class="node">
<title>auth.ts</title>
<path fill="none" stroke="#c6c5fe" d="M325.33,-148.26C325.33,-148.26 283.67,-148.26 283.67,-148.26 279.83,-148.26 276,-144.43 276,-140.6 276,-140.6 276,-132.93 276,-132.93 276,-129.1 279.83,-125.26 283.67,-125.26 283.67,-125.26 325.33,-125.26 325.33,-125.26 329.17,-125.26 333,-129.1 333,-132.93 333,-132.93 333,-140.6 333,-140.6 333,-144.43 329.17,-148.26 325.33,-148.26"/>
<text text-anchor="middle" x="304.5" y="-133.06" font-family="Arial" font-size="14.00" fill="#c6c5fe">auth.ts</text>
</g>
<!-- auth.ts&#45;&gt;../Error.ts -->
<g id="edge32" class="edge">
<title>auth.ts&#45;&gt;../Error.ts</title>
<path fill="none" stroke="#757575" d="M333.11,-136.76C397.99,-136.76 565.24,-136.76 705,-136.76 705,-136.76 705,-136.76 1064.5,-136.76 1163.38,-136.76 1207.27,-136.73 1275,-208.76 1315.28,-251.61 1334.16,-320.77 1341.53,-355.85"/>
<polygon fill="#757575" stroke="#757575" points="1338.16,-356.84 1343.54,-365.97 1345.03,-355.48 1338.16,-356.84"/>
</g>
<!-- auth.ts&#45;&gt;../constants.ts -->
<g id="edge33" class="edge">
<title>auth.ts&#45;&gt;../constants.ts</title>
<path fill="none" stroke="#757575" d="M333.42,-131.37C363.97,-125.46 413.86,-115.83 453.23,-108.22"/>
<polygon fill="#757575" stroke="#757575" points="454.09,-111.61 463.25,-106.28 452.77,-104.74 454.09,-111.61"/>
</g>
<!-- entity.ts -->
<g id="node24" class="node">
<title>entity.ts</title>
<path fill="none" stroke="#c6c5fe" d="M162.33,-370.26C162.33,-370.26 115.67,-370.26 115.67,-370.26 111.83,-370.26 108,-366.43 108,-362.6 108,-362.6 108,-354.93 108,-354.93 108,-351.1 111.83,-347.26 115.67,-347.26 115.67,-347.26 162.33,-347.26 162.33,-347.26 166.17,-347.26 170,-351.1 170,-354.93 170,-354.93 170,-362.6 170,-362.6 170,-366.43 166.17,-370.26 162.33,-370.26"/>
<text text-anchor="middle" x="139" y="-355.06" font-family="Arial" font-size="14.00" fill="#c6c5fe">entity.ts</text>
</g>
<!-- entity.ts&#45;&gt;../Entity.ts -->
<g id="edge34" class="edge">
<title>entity.ts&#45;&gt;../Entity.ts</title>
<path fill="none" stroke="#757575" d="M159.42,-370.42C174.2,-378.84 195.29,-389.89 215,-396.76 437.03,-474.21 717.51,-513.37 826.86,-526.54"/>
<polygon fill="#757575" stroke="#757575" points="826.56,-530.03 836.9,-527.74 827.39,-523.08 826.56,-530.03"/>
</g>
<!-- entity.ts&#45;&gt;../Error.ts -->
<g id="edge35" class="edge">
<title>entity.ts&#45;&gt;../Error.ts</title>
<path fill="none" stroke="#757575" d="M142.62,-370.31C149.51,-398.06 170.72,-469.09 215,-507.76 320.27,-599.72 372.72,-609.76 512.5,-609.76 512.5,-609.76 512.5,-609.76 1064.5,-609.76 1196.97,-609.76 1300.72,-454.56 1334.12,-398.04"/>
<polygon fill="#757575" stroke="#757575" points="1337.22,-399.68 1339.2,-389.27 1331.16,-396.17 1337.22,-399.68"/>
</g>
<!-- entity.ts&#45;&gt;../Observable.ts -->
<g id="edge38" class="edge">
<title>entity.ts&#45;&gt;../Observable.ts</title>
<path fill="none" stroke="#757575" d="M148.82,-370.42C161.82,-386.95 187.54,-417.35 215,-436.76 333.55,-520.6 367.3,-571.76 512.5,-571.76 512.5,-571.76 512.5,-571.76 707,-571.76 808.24,-571.76 839.43,-588.91 934,-552.76 979.04,-535.55 1021.73,-497.49 1044.78,-474.5"/>
<polygon fill="#757575" stroke="#757575" points="1047.31,-476.91 1051.82,-467.33 1042.32,-472.01 1047.31,-476.91"/>
</g>
<!-- entity.ts&#45;&gt;../Log.ts -->
<g id="edge36" class="edge">
<title>entity.ts&#45;&gt;../Log.ts</title>
<path fill="none" stroke="#757575" d="M144.66,-347.22C154.15,-325.52 177.97,-279.16 215,-260.76 439.56,-149.2 535.79,-213.75 779,-274.76 801.25,-280.34 824.92,-290.62 843.01,-299.49"/>
<polygon fill="#757575" stroke="#757575" points="841.93,-302.87 852.44,-304.24 845.08,-296.62 841.93,-302.87"/>
</g>
<!-- entity.ts&#45;&gt;../NetworkedEntityServer.ts -->
<g id="edge37" class="edge">
<title>entity.ts&#45;&gt;../NetworkedEntityServer.ts</title>
<path fill="none" stroke="#757575" d="M170.2,-349.93C183.84,-346.04 200.19,-341.51 215,-337.76 223.23,-335.68 231.92,-333.59 240.51,-331.59"/>
<polygon fill="#757575" stroke="#757575" points="241.56,-334.94 250.51,-329.28 239.98,-328.12 241.56,-334.94"/>
</g>
<!-- entity.ts&#45;&gt;../functions/Networking.ts -->
<g id="edge40" class="edge">
<title>entity.ts&#45;&gt;../functions/Networking.ts</title>
<path fill="none" stroke="#757575" d="M170.29,-368.77C183.81,-372.73 200.03,-376.8 215,-378.76 283.14,-387.69 360.81,-386.53 419.7,-383.35"/>
<polygon fill="#757575" stroke="#757575" points="419.95,-386.85 429.73,-382.78 419.55,-379.86 419.95,-386.85"/>
</g>
<!-- entity.ts&#45;&gt;../util.ts -->
<g id="edge41" class="edge">
<title>entity.ts&#45;&gt;../util.ts</title>
<path fill="none" stroke="#757575" d="M149.42,-347.09C162.36,-332.09 187.19,-306.8 215,-296.76 374,-239.37 581.4,-270.47 666.26,-287.27"/>
<polygon fill="#757575" stroke="#757575" points="665.73,-290.73 676.22,-289.29 667.12,-283.87 665.73,-290.73"/>
</g>
<!-- entity.ts&#45;&gt;../common.ts -->
<g id="edge39" class="edge">
<title>entity.ts&#45;&gt;../common.ts</title>
<path fill="none" stroke="#757575" d="M170.37,-358.76C191.81,-358.76 221.18,-358.76 246.88,-358.76"/>
<polygon fill="#757575" stroke="#757575" points="246.9,-362.26 256.9,-358.76 246.9,-355.26 246.9,-362.26"/>
</g>
<!-- index.ts -->
<g id="node25" class="node">
<title>index.ts</title>
<path fill="none" stroke="#c6c5fe" d="M55.33,-310.26C55.33,-310.26 7.67,-310.26 7.67,-310.26 3.83,-310.26 0,-306.43 0,-302.6 0,-302.6 0,-294.93 0,-294.93 0,-291.1 3.83,-287.26 7.67,-287.26 7.67,-287.26 55.33,-287.26 55.33,-287.26 59.17,-287.26 63,-291.1 63,-294.93 63,-294.93 63,-302.6 63,-302.6 63,-306.43 59.17,-310.26 55.33,-310.26"/>
<text text-anchor="middle" x="31.5" y="-295.06" font-family="Arial" font-size="14.00" fill="#c6c5fe">index.ts</text>
</g>
<!-- index.ts&#45;&gt;../constants.ts -->
<g id="edge42" class="edge">
<title>index.ts&#45;&gt;../constants.ts</title>
<path fill="none" stroke="#757575" d="M36.63,-287.02C45.17,-264.13 66.7,-212.98 99,-180.76 140.84,-139.03 158.32,-132.51 215,-115.76 295,-92.13 392.19,-90.72 453.21,-92.93"/>
<polygon fill="#757575" stroke="#757575" points="453.3,-96.43 463.43,-93.34 453.58,-89.44 453.3,-96.43"/>
</g>
<!-- index.ts&#45;&gt;../routes.ts -->
<g id="edge43" class="edge">
<title>index.ts&#45;&gt;../routes.ts</title>
<path fill="none" stroke="#757575" d="M37.73,-310.42C54.5,-347.77 107.07,-464.86 128.63,-512.89"/>
<polygon fill="#757575" stroke="#757575" points="125.45,-514.35 132.74,-522.04 131.83,-511.48 125.45,-514.35"/>
</g>
<!-- index.ts&#45;&gt;auth.ts -->
<g id="edge44" class="edge">
<title>index.ts&#45;&gt;auth.ts</title>
<path fill="none" stroke="#757575" d="M44.73,-287.16C72.68,-261.22 144.3,-198.07 215,-162.76 230.87,-154.84 249.57,-148.91 265.68,-144.73"/>
<polygon fill="#757575" stroke="#757575" points="266.97,-148.01 275.84,-142.23 265.29,-141.22 266.97,-148.01"/>
</g>
<!-- index.ts&#45;&gt;entity.ts -->
<g id="edge45" class="edge">
<title>index.ts&#45;&gt;entity.ts</title>
<path fill="none" stroke="#757575" d="M52.84,-310.33C68.75,-319.38 91.08,-332.08 108.88,-342.2"/>
<polygon fill="#757575" stroke="#757575" points="107.3,-345.33 117.72,-347.23 110.76,-339.24 107.3,-345.33"/>
</g>
</g>
</svg>
