<?xml version="1.0" encoding="UTF-8" standalone="no"?>
<!DOCTYPE svg PUBLIC "-//W3C//DTD SVG 1.1//EN"
 "http://www.w3.org/Graphics/SVG/1.1/DTD/svg11.dtd">
<!-- Generated by graphviz version 2.43.0 (0)
 -->
<!-- Title: G Pages: 1 -->
<svg width="1401pt" height="611pt"
 viewBox="0.00 0.00 1401.20 610.94" xmlns="http://www.w3.org/2000/svg" xmlns:xlink="http://www.w3.org/1999/xlink">
<g id="graph0" class="graph" transform="scale(1 1) rotate(0) translate(21.6 589.34)">
<title>G</title>
<polygon fill="#111111" stroke="transparent" points="-21.6,21.6 -21.6,-589.34 1379.6,-589.34 1379.6,21.6 -21.6,21.6"/>
<!-- ../Component.ts -->
<g id="node1" class="node">
<title>../Component.ts</title>
<path fill="none" stroke="#c6c5fe" d="M720.33,-259C720.33,-259 622.67,-259 622.67,-259 618.83,-259 615,-255.17 615,-251.33 615,-251.33 615,-243.67 615,-243.67 615,-239.83 618.83,-236 622.67,-236 622.67,-236 720.33,-236 720.33,-236 724.17,-236 728,-239.83 728,-243.67 728,-243.67 728,-251.33 728,-251.33 728,-255.17 724.17,-259 720.33,-259"/>
<text text-anchor="middle" x="671.5" y="-243.8" font-family="Arial" font-size="14.00" fill="#c6c5fe">../Component.ts</text>
</g>
<!-- ../Debug.ts -->
<g id="node2" class="node">
<title>../Debug.ts</title>
<path fill="none" stroke="#c6c5fe" d="M1243.33,-297C1243.33,-297 1176.67,-297 1176.67,-297 1172.83,-297 1169,-293.17 1169,-289.33 1169,-289.33 1169,-281.67 1169,-281.67 1169,-277.83 1172.83,-274 1176.67,-274 1176.67,-274 1243.33,-274 1243.33,-274 1247.17,-274 1251,-277.83 1251,-281.67 1251,-281.67 1251,-289.33 1251,-289.33 1251,-293.17 1247.17,-297 1243.33,-297"/>
<text text-anchor="middle" x="1210" y="-281.8" font-family="Arial" font-size="14.00" fill="#c6c5fe">../Debug.ts</text>
</g>
<!-- ../Component.ts&#45;&gt;../Debug.ts -->
<g id="edge1" class="edge">
<title>../Component.ts&#45;&gt;../Debug.ts</title>
<path fill="none" stroke="#757575" d="M697.19,-259.16C715.29,-267.22 740.68,-277.54 764,-283.5 923.2,-324.2 970.17,-328.58 1133,-306.5 1143.59,-305.06 1154.78,-302.55 1165.23,-299.75"/>
<polygon fill="#757575" stroke="#757575" points="1166.3,-303.09 1174.98,-297.01 1164.41,-296.35 1166.3,-303.09"/>
</g>
<!-- ../Entity.ts -->
<g id="node3" class="node">
<title>../Entity.ts</title>
<path fill="none" stroke="#cfffac" d="M866.83,-221C866.83,-221 807.17,-221 807.17,-221 803.33,-221 799.5,-217.17 799.5,-213.33 799.5,-213.33 799.5,-205.67 799.5,-205.67 799.5,-201.83 803.33,-198 807.17,-198 807.17,-198 866.83,-198 866.83,-198 870.67,-198 874.5,-201.83 874.5,-205.67 874.5,-205.67 874.5,-213.33 874.5,-213.33 874.5,-217.17 870.67,-221 866.83,-221"/>
<text text-anchor="middle" x="837" y="-205.8" font-family="Arial" font-size="14.00" fill="#cfffac">../Entity.ts</text>
</g>
<!-- ../Component.ts&#45;&gt;../Entity.ts -->
<g id="edge2" class="edge">
<title>../Component.ts&#45;&gt;../Entity.ts</title>
<path fill="none" stroke="#757575" d="M722,-236C743.4,-231.02 768.32,-225.23 789.39,-220.33"/>
<polygon fill="#757575" stroke="#757575" points="790.45,-223.68 799.39,-218.01 788.86,-216.86 790.45,-223.68"/>
</g>
<!-- ../Error.ts -->
<g id="node4" class="node">
<title>../Error.ts</title>
<path fill="none" stroke="#cfffac" d="M1350.33,-257C1350.33,-257 1294.67,-257 1294.67,-257 1290.83,-257 1287,-253.17 1287,-249.33 1287,-249.33 1287,-241.67 1287,-241.67 1287,-237.83 1290.83,-234 1294.67,-234 1294.67,-234 1350.33,-234 1350.33,-234 1354.17,-234 1358,-237.83 1358,-241.67 1358,-241.67 1358,-249.33 1358,-249.33 1358,-253.17 1354.17,-257 1350.33,-257"/>
<text text-anchor="middle" x="1322.5" y="-241.8" font-family="Arial" font-size="14.00" fill="#cfffac">../Error.ts</text>
</g>
<!-- ../Component.ts&#45;&gt;../Error.ts -->
<g id="edge3" class="edge">
<title>../Component.ts&#45;&gt;../Error.ts</title>
<path fill="none" stroke="#757575" d="M728.11,-247.33C854.49,-246.94 1161.23,-245.99 1276.61,-245.64"/>
<polygon fill="#757575" stroke="#757575" points="1276.86,-249.14 1286.85,-245.61 1276.84,-242.14 1276.86,-249.14"/>
</g>
<!-- ../Observable.ts -->
<g id="node5" class="node">
<title>../Observable.ts</title>
<path fill="none" stroke="#c6c5fe" d="M1087.83,-297C1087.83,-297 991.17,-297 991.17,-297 987.33,-297 983.5,-293.17 983.5,-289.33 983.5,-289.33 983.5,-281.67 983.5,-281.67 983.5,-277.83 987.33,-274 991.17,-274 991.17,-274 1087.83,-274 1087.83,-274 1091.67,-274 1095.5,-277.83 1095.5,-281.67 1095.5,-281.67 1095.5,-289.33 1095.5,-289.33 1095.5,-293.17 1091.67,-297 1087.83,-297"/>
<text text-anchor="middle" x="1039.5" y="-281.8" font-family="Arial" font-size="14.00" fill="#c6c5fe">../Observable.ts</text>
</g>
<!-- ../Component.ts&#45;&gt;../Observable.ts -->
<g id="edge4" class="edge">
<title>../Component.ts&#45;&gt;../Observable.ts</title>
<path fill="none" stroke="#757575" d="M728.02,-258.06C739.86,-260.07 752.32,-262.01 764,-263.5 835.32,-272.57 917.58,-278.58 973.31,-281.99"/>
<polygon fill="#757575" stroke="#757575" points="973.21,-285.49 983.4,-282.6 973.63,-278.5 973.21,-285.49"/>
</g>
<!-- ../Debug.ts&#45;&gt;../Error.ts -->
<g id="edge5" class="edge">
<title>../Debug.ts&#45;&gt;../Error.ts</title>
<path fill="none" stroke="#757575" d="M1242.96,-273.93C1254.53,-269.74 1267.76,-264.95 1280.03,-260.51"/>
<polygon fill="#757575" stroke="#757575" points="1281.4,-263.74 1289.61,-257.04 1279.02,-257.16 1281.4,-263.74"/>
</g>
<!-- ../Observable.ts&#45;&gt;../Debug.ts -->
<g id="edge19" class="edge">
<title>../Observable.ts&#45;&gt;../Debug.ts</title>
<path fill="none" stroke="#757575" d="M1095.67,-285.5C1116.02,-285.5 1138.96,-285.5 1158.84,-285.5"/>
<polygon fill="#757575" stroke="#757575" points="1158.93,-289 1168.93,-285.5 1158.93,-282 1158.93,-289"/>
</g>
<!-- ../HeadingDirection.ts -->
<g id="node6" class="node">
<title>../HeadingDirection.ts</title>
<path fill="none" stroke="#c6c5fe" d="M902.33,-62C902.33,-62 771.67,-62 771.67,-62 767.83,-62 764,-58.17 764,-54.33 764,-54.33 764,-46.67 764,-46.67 764,-42.83 767.83,-39 771.67,-39 771.67,-39 902.33,-39 902.33,-39 906.17,-39 910,-42.83 910,-46.67 910,-46.67 910,-54.33 910,-54.33 910,-58.17 906.17,-62 902.33,-62"/>
<text text-anchor="middle" x="837" y="-46.8" font-family="Arial" font-size="14.00" fill="#c6c5fe">../HeadingDirection.ts</text>
</g>
<!-- ../HeadingDirection.ts&#45;&gt;../Error.ts -->
<g id="edge6" class="edge">
<title>../HeadingDirection.ts&#45;&gt;../Error.ts</title>
<path fill="none" stroke="#757575" d="M910.28,-44.53C971.44,-42 1060.44,-44.35 1133,-70.5 1214.67,-99.94 1281.01,-185.59 1308.2,-225.1"/>
<polygon fill="#757575" stroke="#757575" points="1305.48,-227.33 1313.97,-233.66 1311.28,-223.41 1305.48,-227.33"/>
</g>
<!-- ../units/convert.ts -->
<g id="node7" class="node">
<title>../units/convert.ts</title>
<path fill="none" stroke="#cfffac" d="M1091.33,-102C1091.33,-102 987.67,-102 987.67,-102 983.83,-102 980,-98.17 980,-94.33 980,-94.33 980,-86.67 980,-86.67 980,-82.83 983.83,-79 987.67,-79 987.67,-79 1091.33,-79 1091.33,-79 1095.17,-79 1099,-82.83 1099,-86.67 1099,-86.67 1099,-94.33 1099,-94.33 1099,-98.17 1095.17,-102 1091.33,-102"/>
<text text-anchor="middle" x="1039.5" y="-86.8" font-family="Arial" font-size="14.00" fill="#cfffac">../units/convert.ts</text>
</g>
<!-- ../HeadingDirection.ts&#45;&gt;../units/convert.ts -->
<g id="edge7" class="edge">
<title>../HeadingDirection.ts&#45;&gt;../units/convert.ts</title>
<path fill="none" stroke="#757575" d="M895.72,-62.02C919.21,-66.7 946.52,-72.15 970.93,-77.02"/>
<polygon fill="#757575" stroke="#757575" points="970.34,-80.47 980.84,-79 971.71,-73.61 970.34,-80.47"/>
</g>
<!-- ../Input.ts -->
<g id="node8" class="node">
<title>../Input.ts</title>
<path fill="none" stroke="#cfffac" d="M865.33,-103C865.33,-103 808.67,-103 808.67,-103 804.83,-103 801,-99.17 801,-95.33 801,-95.33 801,-87.67 801,-87.67 801,-83.83 804.83,-80 808.67,-80 808.67,-80 865.33,-80 865.33,-80 869.17,-80 873,-83.83 873,-87.67 873,-87.67 873,-95.33 873,-95.33 873,-99.17 869.17,-103 865.33,-103"/>
<text text-anchor="middle" x="837" y="-87.8" font-family="Arial" font-size="14.00" fill="#cfffac">../Input.ts</text>
</g>
<!-- ../Log.ts -->
<g id="node9" class="node">
<title>../Log.ts</title>
<path fill="none" stroke="#c6c5fe" d="M861.83,-409C861.83,-409 812.17,-409 812.17,-409 808.33,-409 804.5,-405.17 804.5,-401.33 804.5,-401.33 804.5,-393.67 804.5,-393.67 804.5,-389.83 808.33,-386 812.17,-386 812.17,-386 861.83,-386 861.83,-386 865.67,-386 869.5,-389.83 869.5,-393.67 869.5,-393.67 869.5,-401.33 869.5,-401.33 869.5,-405.17 865.67,-409 861.83,-409"/>
<text text-anchor="middle" x="837" y="-393.8" font-family="Arial" font-size="14.00" fill="#c6c5fe">../Log.ts</text>
</g>
<!-- ../Log.ts&#45;&gt;../Error.ts -->
<g id="edge8" class="edge">
<title>../Log.ts&#45;&gt;../Error.ts</title>
<path fill="none" stroke="#757575" d="M869.52,-392.62C953.87,-379.23 1182.92,-340.66 1251,-306.5 1271.56,-296.18 1291.02,-278.52 1304.26,-264.85"/>
<polygon fill="#757575" stroke="#757575" points="1307.01,-267.04 1311.3,-257.35 1301.91,-262.25 1307.01,-267.04"/>
</g>
<!-- ../Log.ts&#45;&gt;../Observable.ts -->
<g id="edge9" class="edge">
<title>../Log.ts&#45;&gt;../Observable.ts</title>
<path fill="none" stroke="#757575" d="M858.7,-385.94C894.44,-365.97 967.82,-324.98 1008.92,-302.02"/>
<polygon fill="#757575" stroke="#757575" points="1010.89,-304.93 1017.91,-297 1007.47,-298.82 1010.89,-304.93"/>
</g>
<!-- ../collections/InstanceMap.ts -->
<g id="node10" class="node">
<title>../collections/InstanceMap.ts</title>
<path fill="none" stroke="#cfffac" d="M1125.33,-497C1125.33,-497 953.67,-497 953.67,-497 949.83,-497 946,-493.17 946,-489.33 946,-489.33 946,-481.67 946,-481.67 946,-477.83 949.83,-474 953.67,-474 953.67,-474 1125.33,-474 1125.33,-474 1129.17,-474 1133,-477.83 1133,-481.67 1133,-481.67 1133,-489.33 1133,-489.33 1133,-493.17 1129.17,-497 1125.33,-497"/>
<text text-anchor="middle" x="1039.5" y="-481.8" font-family="Arial" font-size="14.00" fill="#cfffac">../collections/InstanceMap.ts</text>
</g>
<!-- ../Log.ts&#45;&gt;../collections/InstanceMap.ts -->
<g id="edge10" class="edge">
<title>../Log.ts&#45;&gt;../collections/InstanceMap.ts</title>
<path fill="none" stroke="#757575" d="M852.81,-409.22C872.81,-424.45 910.1,-450.85 946,-465.5 951.04,-467.56 956.32,-469.42 961.7,-471.09"/>
<polygon fill="#757575" stroke="#757575" points="960.88,-474.5 971.46,-473.92 962.83,-467.78 960.88,-474.5"/>
</g>
<!-- ../functions/Array.ts -->
<g id="node11" class="node">
<title>../functions/Array.ts</title>
<path fill="none" stroke="#cfffac" d="M1097.33,-456C1097.33,-456 981.67,-456 981.67,-456 977.83,-456 974,-452.17 974,-448.33 974,-448.33 974,-440.67 974,-440.67 974,-436.83 977.83,-433 981.67,-433 981.67,-433 1097.33,-433 1097.33,-433 1101.17,-433 1105,-436.83 1105,-440.67 1105,-440.67 1105,-448.33 1105,-448.33 1105,-452.17 1101.17,-456 1097.33,-456"/>
<text text-anchor="middle" x="1039.5" y="-440.8" font-family="Arial" font-size="14.00" fill="#cfffac">../functions/Array.ts</text>
</g>
<!-- ../Log.ts&#45;&gt;../functions/Array.ts -->
<g id="edge11" class="edge">
<title>../Log.ts&#45;&gt;../functions/Array.ts</title>
<path fill="none" stroke="#757575" d="M869.6,-405.68C891.1,-411.18 920.21,-418.49 946,-424.5 954.93,-426.58 964.36,-428.71 973.66,-430.76"/>
<polygon fill="#757575" stroke="#757575" points="973.14,-434.22 983.65,-432.94 974.63,-427.39 973.14,-434.22"/>
</g>
<!-- ../functions/Map.ts -->
<g id="node12" class="node">
<title>../functions/Map.ts</title>
<path fill="none" stroke="#cfffac" d="M1095.33,-415C1095.33,-415 983.67,-415 983.67,-415 979.83,-415 976,-411.17 976,-407.33 976,-407.33 976,-399.67 976,-399.67 976,-395.83 979.83,-392 983.67,-392 983.67,-392 1095.33,-392 1095.33,-392 1099.17,-392 1103,-395.83 1103,-399.67 1103,-399.67 1103,-407.33 1103,-407.33 1103,-411.17 1099.17,-415 1095.33,-415"/>
<text text-anchor="middle" x="1039.5" y="-399.8" font-family="Arial" font-size="14.00" fill="#cfffac">../functions/Map.ts</text>
</g>
<!-- ../Log.ts&#45;&gt;../functions/Map.ts -->
<g id="edge12" class="edge">
<title>../Log.ts&#45;&gt;../functions/Map.ts</title>
<path fill="none" stroke="#757575" d="M869.77,-398.45C895.49,-399.22 932.72,-400.33 965.68,-401.32"/>
<polygon fill="#757575" stroke="#757575" points="965.65,-404.82 975.75,-401.62 965.86,-397.82 965.65,-404.82"/>
</g>
<!-- ../functions/Set.ts -->
<g id="node13" class="node">
<title>../functions/Set.ts</title>
<path fill="none" stroke="#cfffac" d="M1091.83,-538C1091.83,-538 987.17,-538 987.17,-538 983.33,-538 979.5,-534.17 979.5,-530.33 979.5,-530.33 979.5,-522.67 979.5,-522.67 979.5,-518.83 983.33,-515 987.17,-515 987.17,-515 1091.83,-515 1091.83,-515 1095.67,-515 1099.5,-518.83 1099.5,-522.67 1099.5,-522.67 1099.5,-530.33 1099.5,-530.33 1099.5,-534.17 1095.67,-538 1091.83,-538"/>
<text text-anchor="middle" x="1039.5" y="-522.8" font-family="Arial" font-size="14.00" fill="#cfffac">../functions/Set.ts</text>
</g>
<!-- ../Log.ts&#45;&gt;../functions/Set.ts -->
<g id="edge13" class="edge">
<title>../Log.ts&#45;&gt;../functions/Set.ts</title>
<path fill="none" stroke="#757575" d="M845.96,-409.21C862.03,-431.87 900.68,-481.66 946,-506.5 953.35,-510.53 961.45,-513.75 969.7,-516.32"/>
<polygon fill="#757575" stroke="#757575" points="968.85,-519.72 979.42,-519.05 970.74,-512.98 968.85,-519.72"/>
</g>
<!-- ../NetworkedEntityServer.ts -->
<g id="node14" class="node">
<title>../NetworkedEntityServer.ts</title>
<path fill="none" stroke="#c6c5fe" d="M368.33,-296C368.33,-296 204.67,-296 204.67,-296 200.83,-296 197,-292.17 197,-288.33 197,-288.33 197,-280.67 197,-280.67 197,-276.83 200.83,-273 204.67,-273 204.67,-273 368.33,-273 368.33,-273 372.17,-273 376,-276.83 376,-280.67 376,-280.67 376,-288.33 376,-288.33 376,-292.17 372.17,-296 368.33,-296"/>
<text text-anchor="middle" x="286.5" y="-280.8" font-family="Arial" font-size="14.00" fill="#c6c5fe">../NetworkedEntityServer.ts</text>
</g>
<!-- ../NetworkedEntityServer.ts&#45;&gt;../Component.ts -->
<g id="edge14" class="edge">
<title>../NetworkedEntityServer.ts&#45;&gt;../Component.ts</title>
<path fill="none" stroke="#757575" d="M376.23,-274.27C388.25,-272.96 400.42,-271.67 412,-270.5 477.56,-263.9 552.58,-257.33 604.85,-252.92"/>
<polygon fill="#757575" stroke="#757575" points="605.33,-256.39 615,-252.06 604.74,-249.41 605.33,-256.39"/>
</g>
<!-- ../NetworkedEntityServer.ts&#45;&gt;../Error.ts -->
<g id="edge15" class="edge">
<title>../NetworkedEntityServer.ts&#45;&gt;../Error.ts</title>
<path fill="none" stroke="#757575" d="M348.34,-272.98C357.68,-270.77 367.15,-268.27 376,-265.5 392.54,-260.33 395.36,-255.34 412,-250.5 626.11,-188.19 687.52,-174.43 910,-189.5 1044.31,-198.6 1201.61,-224.21 1276.91,-237.41"/>
<polygon fill="#757575" stroke="#757575" points="1276.52,-240.9 1286.98,-239.19 1277.74,-234.01 1276.52,-240.9"/>
</g>
<!-- ../NetworkedEntityServer.ts&#45;&gt;../Log.ts -->
<g id="edge16" class="edge">
<title>../NetworkedEntityServer.ts&#45;&gt;../Log.ts</title>
<path fill="none" stroke="#757575" d="M376.04,-286.12C434.08,-288.28 511.45,-293.23 579,-304.5 646.63,-315.79 663.81,-320.39 728,-344.5 755.42,-354.8 785.21,-369.72 806.55,-381.11"/>
<polygon fill="#757575" stroke="#757575" points="804.96,-384.23 815.43,-385.91 808.29,-378.07 804.96,-384.23"/>
</g>
<!-- ../functions/Networking.ts -->
<g id="node15" class="node">
<title>../functions/Networking.ts</title>
<path fill="none" stroke="#c6c5fe" d="M571.33,-336C571.33,-336 419.67,-336 419.67,-336 415.83,-336 412,-332.17 412,-328.33 412,-328.33 412,-320.67 412,-320.67 412,-316.83 415.83,-313 419.67,-313 419.67,-313 571.33,-313 571.33,-313 575.17,-313 579,-316.83 579,-320.67 579,-320.67 579,-328.33 579,-328.33 579,-332.17 575.17,-336 571.33,-336"/>
<text text-anchor="middle" x="495.5" y="-320.8" font-family="Arial" font-size="14.00" fill="#c6c5fe">../functions/Networking.ts</text>
</g>
<!-- ../NetworkedEntityServer.ts&#45;&gt;../functions/Networking.ts -->
<g id="edge17" class="edge">
<title>../NetworkedEntityServer.ts&#45;&gt;../functions/Networking.ts</title>
<path fill="none" stroke="#757575" d="M347.1,-296.02C371.45,-300.72 399.79,-306.2 425.08,-311.08"/>
<polygon fill="#757575" stroke="#757575" points="424.48,-314.54 434.97,-313 425.81,-307.66 424.48,-314.54"/>
</g>
<!-- ../util.ts -->
<g id="node16" class="node">
<title>../util.ts</title>
<path fill="none" stroke="#c6c5fe" d="M693.33,-403C693.33,-403 649.67,-403 649.67,-403 645.83,-403 642,-399.17 642,-395.33 642,-395.33 642,-387.67 642,-387.67 642,-383.83 645.83,-380 649.67,-380 649.67,-380 693.33,-380 693.33,-380 697.17,-380 701,-383.83 701,-387.67 701,-387.67 701,-395.33 701,-395.33 701,-399.17 697.17,-403 693.33,-403"/>
<text text-anchor="middle" x="671.5" y="-387.8" font-family="Arial" font-size="14.00" fill="#c6c5fe">../util.ts</text>
</g>
<!-- ../NetworkedEntityServer.ts&#45;&gt;../util.ts -->
<g id="edge18" class="edge">
<title>../NetworkedEntityServer.ts&#45;&gt;../util.ts</title>
<path fill="none" stroke="#757575" d="M307.04,-296.22C330.97,-310.06 373.11,-332.79 412,-345.5 487.8,-370.27 580.72,-382.67 631.97,-388.04"/>
<polygon fill="#757575" stroke="#757575" points="631.64,-391.52 641.94,-389.05 632.35,-384.56 631.64,-391.52"/>
</g>
<!-- ../functions/Networking.ts&#45;&gt;../Component.ts -->
<g id="edge22" class="edge">
<title>../functions/Networking.ts&#45;&gt;../Component.ts</title>
<path fill="none" stroke="#757575" d="M522.55,-312.97C552.4,-299.76 601.5,-278.03 634.88,-263.26"/>
<polygon fill="#757575" stroke="#757575" points="636.54,-266.35 644.27,-259.11 633.71,-259.95 636.54,-266.35"/>
</g>
<!-- ../functions/Networking.ts&#45;&gt;../Log.ts -->
<g id="edge23" class="edge">
<title>../functions/Networking.ts&#45;&gt;../Log.ts</title>
<path fill="none" stroke="#757575" d="M556.58,-336.08C603.39,-345.25 669.95,-358.62 728,-371.5 750.07,-376.39 774.56,-382.26 794.64,-387.17"/>
<polygon fill="#757575" stroke="#757575" points="793.86,-390.59 804.41,-389.58 795.53,-383.79 793.86,-390.59"/>
</g>
<!-- ../functions/Networking.ts&#45;&gt;../util.ts -->
<g id="edge25" class="edge">
<title>../functions/Networking.ts&#45;&gt;../util.ts</title>
<path fill="none" stroke="#757575" d="M536.27,-336.01C549.93,-340.23 565.24,-345.27 579,-350.5 598.77,-358.02 620.38,-367.63 637.64,-375.66"/>
<polygon fill="#757575" stroke="#757575" points="636.2,-378.85 646.74,-379.94 639.18,-372.52 636.2,-378.85"/>
</g>
<!-- ../constants.ts -->
<g id="node18" class="node">
<title>../constants.ts</title>
<path fill="none" stroke="#c6c5fe" d="M713.83,-63C713.83,-63 629.17,-63 629.17,-63 625.33,-63 621.5,-59.17 621.5,-55.33 621.5,-55.33 621.5,-47.67 621.5,-47.67 621.5,-43.83 625.33,-40 629.17,-40 629.17,-40 713.83,-40 713.83,-40 717.67,-40 721.5,-43.83 721.5,-47.67 721.5,-47.67 721.5,-55.33 721.5,-55.33 721.5,-59.17 717.67,-63 713.83,-63"/>
<text text-anchor="middle" x="671.5" y="-47.8" font-family="Arial" font-size="14.00" fill="#c6c5fe">../constants.ts</text>
</g>
<!-- ../functions/Networking.ts&#45;&gt;../constants.ts -->
<g id="edge24" class="edge">
<title>../functions/Networking.ts&#45;&gt;../constants.ts</title>
<path fill="none" stroke="#757575" d="M503.98,-312.77C530.92,-270.5 623.22,-125.68 657.53,-71.86"/>
<polygon fill="#757575" stroke="#757575" points="660.63,-73.5 663.05,-63.19 654.73,-69.74 660.63,-73.5"/>
</g>
<!-- ../util.ts&#45;&gt;../Log.ts -->
<g id="edge26" class="edge">
<title>../util.ts&#45;&gt;../Log.ts</title>
<path fill="none" stroke="#757575" d="M701.35,-392.56C727.07,-393.5 765.03,-394.9 794.1,-395.96"/>
<polygon fill="#757575" stroke="#757575" points="794.24,-399.47 804.36,-396.34 794.5,-392.47 794.24,-399.47"/>
</g>
<!-- ../common.ts -->
<g id="node17" class="node">
<title>../common.ts</title>
<path fill="none" stroke="#cfffac" d="M326.33,-103C326.33,-103 246.67,-103 246.67,-103 242.83,-103 239,-99.17 239,-95.33 239,-95.33 239,-87.67 239,-87.67 239,-83.83 242.83,-80 246.67,-80 246.67,-80 326.33,-80 326.33,-80 330.17,-80 334,-83.83 334,-87.67 334,-87.67 334,-95.33 334,-95.33 334,-99.17 330.17,-103 326.33,-103"/>
<text text-anchor="middle" x="286.5" y="-87.8" font-family="Arial" font-size="14.00" fill="#cfffac">../common.ts</text>
</g>
<!-- ../constants.ts&#45;&gt;../HeadingDirection.ts -->
<g id="edge20" class="edge">
<title>../constants.ts&#45;&gt;../HeadingDirection.ts</title>
<path fill="none" stroke="#757575" d="M721.56,-51.2C731.71,-51.14 742.67,-51.07 753.64,-51"/>
<polygon fill="#757575" stroke="#757575" points="753.73,-54.5 763.7,-50.94 753.68,-47.5 753.73,-54.5"/>
</g>
<!-- ../constants.ts&#45;&gt;../Input.ts -->
<g id="edge21" class="edge">
<title>../constants.ts&#45;&gt;../Input.ts</title>
<path fill="none" stroke="#757575" d="M719.79,-63.07C742.2,-68.55 768.84,-75.07 790.95,-80.48"/>
<polygon fill="#757575" stroke="#757575" points="790.22,-83.9 800.77,-82.88 791.88,-77.1 790.22,-83.9"/>
</g>
<!-- auth.ts -->
<g id="node19" class="node">
<title>auth.ts</title>
<path fill="none" stroke="#c6c5fe" d="M516.33,-23C516.33,-23 474.67,-23 474.67,-23 470.83,-23 467,-19.17 467,-15.33 467,-15.33 467,-7.67 467,-7.67 467,-3.83 470.83,0 474.67,0 474.67,0 516.33,0 516.33,0 520.17,0 524,-3.83 524,-7.67 524,-7.67 524,-15.33 524,-15.33 524,-19.17 520.17,-23 516.33,-23"/>
<text text-anchor="middle" x="495.5" y="-7.8" font-family="Arial" font-size="14.00" fill="#c6c5fe">auth.ts</text>
</g>
<!-- auth.ts&#45;&gt;../Error.ts -->
<g id="edge27" class="edge">
<title>auth.ts&#45;&gt;../Error.ts</title>
<path fill="none" stroke="#757575" d="M524.22,-11.36C582.14,-11.09 720.18,-10.5 836,-10.5 836,-10.5 836,-10.5 1040.5,-10.5 1139.82,-10.5 1179.02,-17.08 1251,-85.5 1291.5,-124 1310.21,-189.86 1317.52,-223.83"/>
<polygon fill="#757575" stroke="#757575" points="1314.1,-224.55 1319.51,-233.66 1320.96,-223.16 1314.1,-224.55"/>
</g>
<!-- auth.ts&#45;&gt;../constants.ts -->
<g id="edge28" class="edge">
<title>auth.ts&#45;&gt;../constants.ts</title>
<path fill="none" stroke="#757575" d="M524.07,-17.84C547.49,-23.22 581.91,-31.13 611.5,-37.94"/>
<polygon fill="#757575" stroke="#757575" points="610.79,-41.37 621.32,-40.19 612.36,-34.54 610.79,-41.37"/>
</g>
<!-- entity.ts -->
<g id="node20" class="node">
<title>entity.ts</title>
<path fill="none" stroke="#c6c5fe" d="M153.33,-296C153.33,-296 106.67,-296 106.67,-296 102.83,-296 99,-292.17 99,-288.33 99,-288.33 99,-280.67 99,-280.67 99,-276.83 102.83,-273 106.67,-273 106.67,-273 153.33,-273 153.33,-273 157.17,-273 161,-276.83 161,-280.67 161,-280.67 161,-288.33 161,-288.33 161,-292.17 157.17,-296 153.33,-296"/>
<text text-anchor="middle" x="130" y="-280.8" font-family="Arial" font-size="14.00" fill="#c6c5fe">entity.ts</text>
</g>
<!-- entity.ts&#45;&gt;../Entity.ts -->
<g id="edge29" class="edge">
<title>entity.ts&#45;&gt;../Entity.ts</title>
<path fill="none" stroke="#757575" d="M161.23,-273.91C172.35,-270.4 185.13,-266.8 197,-264.5 380.1,-229.05 429.17,-243.29 615,-227.5 675.14,-222.39 744.51,-216.79 789.25,-213.21"/>
<polygon fill="#757575" stroke="#757575" points="789.55,-216.7 799.24,-212.41 788.99,-209.72 789.55,-216.7"/>
</g>
<!-- entity.ts&#45;&gt;../Error.ts -->
<g id="edge30" class="edge">
<title>entity.ts&#45;&gt;../Error.ts</title>
<path fill="none" stroke="#757575" d="M134.79,-296.33C142.86,-319.91 163.75,-373.34 197,-406.5 303.29,-512.53 344.37,-566.5 494.5,-566.5 494.5,-566.5 494.5,-566.5 1040.5,-566.5 1082.47,-566.5 1098.54,-571.46 1133,-547.5 1237.87,-474.56 1296.27,-322.55 1314.88,-266.69"/>
<polygon fill="#757575" stroke="#757575" points="1318.23,-267.72 1317.99,-257.13 1311.57,-265.56 1318.23,-267.72"/>
</g>
<!-- entity.ts&#45;&gt;../Observable.ts -->
<g id="edge33" class="edge">
<title>entity.ts&#45;&gt;../Observable.ts</title>
<path fill="none" stroke="#757575" d="M144.34,-272.68C157.12,-261.84 177.33,-245.93 197,-235.5 320.75,-169.89 354.43,-131.5 494.5,-131.5 494.5,-131.5 494.5,-131.5 672.5,-131.5 781.16,-131.5 811.72,-143.16 910,-189.5 952.58,-209.58 994.97,-245.01 1018.84,-266.75"/>
<polygon fill="#757575" stroke="#757575" points="1016.77,-269.6 1026.48,-273.83 1021.52,-264.47 1016.77,-269.6"/>
</g>
<!-- entity.ts&#45;&gt;../Log.ts -->
<g id="edge31" class="edge">
<title>entity.ts&#45;&gt;../Log.ts</title>
<path fill="none" stroke="#757575" d="M137.08,-296.29C147,-314.23 168.46,-348.03 197,-364.5 358.96,-457.98 428.08,-406.98 615,-412.5 665.2,-413.98 677.9,-415.96 728,-412.5 750.03,-410.98 774.41,-407.73 794.43,-404.64"/>
<polygon fill="#757575" stroke="#757575" points="795.13,-408.07 804.46,-403.05 794.03,-401.16 795.13,-408.07"/>
</g>
<!-- entity.ts&#45;&gt;../NetworkedEntityServer.ts -->
<g id="edge32" class="edge">
<title>entity.ts&#45;&gt;../NetworkedEntityServer.ts</title>
<path fill="none" stroke="#757575" d="M161.16,-284.5C168.89,-284.5 177.65,-284.5 186.85,-284.5"/>
<polygon fill="#757575" stroke="#757575" points="186.98,-288 196.98,-284.5 186.98,-281 186.98,-288"/>
</g>
<!-- entity.ts&#45;&gt;../functions/Networking.ts -->
<g id="edge35" class="edge">
<title>entity.ts&#45;&gt;../functions/Networking.ts</title>
<path fill="none" stroke="#757575" d="M161.16,-295.8C172.27,-299.51 185.06,-303.26 197,-305.5 264.79,-318.25 342.64,-322.88 401.7,-324.38"/>
<polygon fill="#757575" stroke="#757575" points="401.67,-327.88 411.75,-324.61 401.83,-320.88 401.67,-327.88"/>
</g>
<!-- entity.ts&#45;&gt;../util.ts -->
<g id="edge36" class="edge">
<title>entity.ts&#45;&gt;../util.ts</title>
<path fill="none" stroke="#757575" d="M145.35,-296.01C158.18,-305.75 177.86,-319.39 197,-327.5 348.25,-391.58 548.84,-394.82 631.92,-393"/>
<polygon fill="#757575" stroke="#757575" points="632.02,-396.5 641.93,-392.74 631.84,-389.5 632.02,-396.5"/>
</g>
<!-- entity.ts&#45;&gt;../common.ts -->
<g id="edge34" class="edge">
<title>entity.ts&#45;&gt;../common.ts</title>
<path fill="none" stroke="#757575" d="M132.14,-272.83C135.74,-242.55 149.58,-160.81 197,-117.5 205.96,-109.32 217.37,-103.7 229,-99.85"/>
<polygon fill="#757575" stroke="#757575" points="230.14,-103.16 238.76,-97.01 228.18,-96.44 230.14,-103.16"/>
</g>
<!-- index.ts -->
<g id="node21" class="node">
<title>index.ts</title>
<path fill="none" stroke="#c6c5fe" d="M55.33,-63C55.33,-63 7.67,-63 7.67,-63 3.83,-63 0,-59.17 0,-55.33 0,-55.33 0,-47.67 0,-47.67 0,-43.83 3.83,-40 7.67,-40 7.67,-40 55.33,-40 55.33,-40 59.17,-40 63,-43.83 63,-47.67 63,-47.67 63,-55.33 63,-55.33 63,-59.17 59.17,-63 55.33,-63"/>
<text text-anchor="middle" x="31.5" y="-47.8" font-family="Arial" font-size="14.00" fill="#c6c5fe">index.ts</text>
</g>
<!-- index.ts&#45;&gt;../constants.ts -->
<g id="edge37" class="edge">
<title>index.ts&#45;&gt;../constants.ts</title>
<path fill="none" stroke="#757575" d="M63.27,-51.5C163,-51.5 478.48,-51.5 610.98,-51.5"/>
<polygon fill="#757575" stroke="#757575" points="611.34,-55 621.34,-51.5 611.34,-48 611.34,-55"/>
</g>
<!-- index.ts&#45;&gt;auth.ts -->
<g id="edge38" class="edge">
<title>index.ts&#45;&gt;auth.ts</title>
<path fill="none" stroke="#757575" d="M63.13,-44.1C74.35,-41.64 87.19,-39.12 99,-37.5 229.33,-19.59 385.58,-13.93 456.34,-12.21"/>
<polygon fill="#757575" stroke="#757575" points="456.63,-15.71 466.55,-11.98 456.47,-8.71 456.63,-15.71"/>
</g>
<!-- index.ts&#45;&gt;entity.ts -->
<g id="edge39" class="edge">
<title>index.ts&#45;&gt;entity.ts</title>
<path fill="none" stroke="#757575" d="M37.29,-63.05C52.59,-100.01 100.51,-215.7 120.31,-263.51"/>
<polygon fill="#757575" stroke="#757575" points="117.13,-264.98 124.19,-272.88 123.59,-262.3 117.13,-264.98"/>
</g>
</g>
</svg>
