<?xml version="1.0" encoding="UTF-8" standalone="no"?>
<!DOCTYPE svg PUBLIC "-//W3C//DTD SVG 1.1//EN"
 "http://www.w3.org/Graphics/SVG/1.1/DTD/svg11.dtd">
<!-- Generated by graphviz version 2.43.0 (0)
 -->
<!-- Title: G Pages: 1 -->
<svg width="1401pt" height="583pt"
 viewBox="0.00 0.00 1401.20 583.34" xmlns="http://www.w3.org/2000/svg" xmlns:xlink="http://www.w3.org/1999/xlink">
<g id="graph0" class="graph" transform="scale(1 1) rotate(0) translate(21.6 561.74)">
<title>G</title>
<polygon fill="#111111" stroke="transparent" points="-21.6,21.6 -21.6,-561.74 1379.6,-561.74 1379.6,21.6 -21.6,21.6"/>
<!-- ../Component.ts -->
<g id="node1" class="node">
<title>../Component.ts</title>
<path fill="none" stroke="#c6c5fe" d="M720.33,-357.73C720.33,-357.73 622.67,-357.73 622.67,-357.73 618.83,-357.73 615,-353.9 615,-350.07 615,-350.07 615,-342.4 615,-342.4 615,-338.57 618.83,-334.73 622.67,-334.73 622.67,-334.73 720.33,-334.73 720.33,-334.73 724.17,-334.73 728,-338.57 728,-342.4 728,-342.4 728,-350.07 728,-350.07 728,-353.9 724.17,-357.73 720.33,-357.73"/>
<text text-anchor="middle" x="671.5" y="-342.53" font-family="Arial" font-size="14.00" fill="#c6c5fe">../Component.ts</text>
</g>
<!-- ../Debug.ts -->
<g id="node2" class="node">
<title>../Debug.ts</title>
<path fill="none" stroke="#c6c5fe" d="M1243.33,-353.73C1243.33,-353.73 1176.67,-353.73 1176.67,-353.73 1172.83,-353.73 1169,-349.9 1169,-346.07 1169,-346.07 1169,-338.4 1169,-338.4 1169,-334.57 1172.83,-330.73 1176.67,-330.73 1176.67,-330.73 1243.33,-330.73 1243.33,-330.73 1247.17,-330.73 1251,-334.57 1251,-338.4 1251,-338.4 1251,-346.07 1251,-346.07 1251,-349.9 1247.17,-353.73 1243.33,-353.73"/>
<text text-anchor="middle" x="1210" y="-338.53" font-family="Arial" font-size="14.00" fill="#c6c5fe">../Debug.ts</text>
</g>
<!-- ../Component.ts&#45;&gt;../Debug.ts -->
<g id="edge1" class="edge">
<title>../Component.ts&#45;&gt;../Debug.ts</title>
<path fill="none" stroke="#757575" d="M728.15,-345.82C833,-345.04 1058.3,-343.36 1158.81,-342.61"/>
<polygon fill="#757575" stroke="#757575" points="1159.03,-346.11 1169,-342.53 1158.97,-339.11 1159.03,-346.11"/>
</g>
<!-- ../Entity.ts -->
<g id="node3" class="node">
<title>../Entity.ts</title>
<path fill="none" stroke="#cfffac" d="M866.83,-433.73C866.83,-433.73 807.17,-433.73 807.17,-433.73 803.33,-433.73 799.5,-429.9 799.5,-426.07 799.5,-426.07 799.5,-418.4 799.5,-418.4 799.5,-414.57 803.33,-410.73 807.17,-410.73 807.17,-410.73 866.83,-410.73 866.83,-410.73 870.67,-410.73 874.5,-414.57 874.5,-418.4 874.5,-418.4 874.5,-426.07 874.5,-426.07 874.5,-429.9 870.67,-433.73 866.83,-433.73"/>
<text text-anchor="middle" x="837" y="-418.53" font-family="Arial" font-size="14.00" fill="#cfffac">../Entity.ts</text>
</g>
<!-- ../Component.ts&#45;&gt;../Entity.ts -->
<g id="edge2" class="edge">
<title>../Component.ts&#45;&gt;../Entity.ts</title>
<path fill="none" stroke="#757575" d="M691.69,-357.85C709.91,-368.6 738.25,-384.63 764,-396.23 772.63,-400.12 782.03,-403.86 791.11,-407.23"/>
<polygon fill="#757575" stroke="#757575" points="790.19,-410.62 800.78,-410.73 792.57,-404.03 790.19,-410.62"/>
</g>
<!-- ../Error.ts -->
<g id="node4" class="node">
<title>../Error.ts</title>
<path fill="none" stroke="#cfffac" d="M1350.33,-373.73C1350.33,-373.73 1294.67,-373.73 1294.67,-373.73 1290.83,-373.73 1287,-369.9 1287,-366.07 1287,-366.07 1287,-358.4 1287,-358.4 1287,-354.57 1290.83,-350.73 1294.67,-350.73 1294.67,-350.73 1350.33,-350.73 1350.33,-350.73 1354.17,-350.73 1358,-354.57 1358,-358.4 1358,-358.4 1358,-366.07 1358,-366.07 1358,-369.9 1354.17,-373.73 1350.33,-373.73"/>
<text text-anchor="middle" x="1322.5" y="-358.53" font-family="Arial" font-size="14.00" fill="#cfffac">../Error.ts</text>
</g>
<!-- ../Component.ts&#45;&gt;../Error.ts -->
<g id="edge3" class="edge">
<title>../Component.ts&#45;&gt;../Error.ts</title>
<path fill="none" stroke="#757575" d="M728.04,-354.58C739.88,-356.06 752.33,-357.4 764,-358.23 943.56,-371.07 988.99,-362.12 1169,-363.23 1205.44,-363.46 1214.56,-363.49 1251,-363.23 1259.27,-363.17 1268.08,-363.08 1276.57,-362.97"/>
<polygon fill="#757575" stroke="#757575" points="1276.77,-366.46 1286.72,-362.82 1276.67,-359.46 1276.77,-366.46"/>
</g>
<!-- ../Observable.ts -->
<g id="node5" class="node">
<title>../Observable.ts</title>
<path fill="none" stroke="#c6c5fe" d="M1087.83,-315.73C1087.83,-315.73 991.17,-315.73 991.17,-315.73 987.33,-315.73 983.5,-311.9 983.5,-308.07 983.5,-308.07 983.5,-300.4 983.5,-300.4 983.5,-296.57 987.33,-292.73 991.17,-292.73 991.17,-292.73 1087.83,-292.73 1087.83,-292.73 1091.67,-292.73 1095.5,-296.57 1095.5,-300.4 1095.5,-300.4 1095.5,-308.07 1095.5,-308.07 1095.5,-311.9 1091.67,-315.73 1087.83,-315.73"/>
<text text-anchor="middle" x="1039.5" y="-300.53" font-family="Arial" font-size="14.00" fill="#c6c5fe">../Observable.ts</text>
</g>
<!-- ../Component.ts&#45;&gt;../Observable.ts -->
<g id="edge4" class="edge">
<title>../Component.ts&#45;&gt;../Observable.ts</title>
<path fill="none" stroke="#757575" d="M728.04,-335.8C739.88,-333.78 752.33,-331.8 764,-330.23 835.35,-320.63 917.6,-313.34 973.32,-308.95"/>
<polygon fill="#757575" stroke="#757575" points="973.71,-312.43 983.41,-308.17 973.17,-305.46 973.71,-312.43"/>
</g>
<!-- ../Debug.ts&#45;&gt;../Error.ts -->
<g id="edge5" class="edge">
<title>../Debug.ts&#45;&gt;../Error.ts</title>
<path fill="none" stroke="#757575" d="M1251.21,-349.51C1259.54,-351.02 1268.37,-352.62 1276.85,-354.15"/>
<polygon fill="#757575" stroke="#757575" points="1276.51,-357.65 1286.97,-355.98 1277.76,-350.76 1276.51,-357.65"/>
</g>
<!-- ../Observable.ts&#45;&gt;../Debug.ts -->
<g id="edge17" class="edge">
<title>../Observable.ts&#45;&gt;../Debug.ts</title>
<path fill="none" stroke="#757575" d="M1091.51,-315.74C1112.92,-320.56 1137.74,-326.16 1159.03,-330.96"/>
<polygon fill="#757575" stroke="#757575" points="1158.33,-334.39 1168.85,-333.18 1159.87,-327.56 1158.33,-334.39"/>
</g>
<!-- ../HeadingDirection.ts -->
<g id="node6" class="node">
<title>../HeadingDirection.ts</title>
<path fill="none" stroke="#c6c5fe" d="M902.33,-30.73C902.33,-30.73 771.67,-30.73 771.67,-30.73 767.83,-30.73 764,-26.9 764,-23.07 764,-23.07 764,-15.4 764,-15.4 764,-11.57 767.83,-7.73 771.67,-7.73 771.67,-7.73 902.33,-7.73 902.33,-7.73 906.17,-7.73 910,-11.57 910,-15.4 910,-15.4 910,-23.07 910,-23.07 910,-26.9 906.17,-30.73 902.33,-30.73"/>
<text text-anchor="middle" x="837" y="-15.53" font-family="Arial" font-size="14.00" fill="#c6c5fe">../HeadingDirection.ts</text>
</g>
<!-- ../HeadingDirection.ts&#45;&gt;../Error.ts -->
<g id="edge6" class="edge">
<title>../HeadingDirection.ts&#45;&gt;../Error.ts</title>
<path fill="none" stroke="#757575" d="M900.56,-7.71C992.96,5.27 1164.34,13.12 1251,-86.23 1316.58,-161.42 1322.58,-289.51 1322.18,-340.43"/>
<polygon fill="#757575" stroke="#757575" points="1318.68,-340.54 1322,-350.6 1325.68,-340.66 1318.68,-340.54"/>
</g>
<!-- ../units/convert.ts -->
<g id="node7" class="node">
<title>../units/convert.ts</title>
<path fill="none" stroke="#cfffac" d="M1091.33,-70.73C1091.33,-70.73 987.67,-70.73 987.67,-70.73 983.83,-70.73 980,-66.9 980,-63.07 980,-63.07 980,-55.4 980,-55.4 980,-51.57 983.83,-47.73 987.67,-47.73 987.67,-47.73 1091.33,-47.73 1091.33,-47.73 1095.17,-47.73 1099,-51.57 1099,-55.4 1099,-55.4 1099,-63.07 1099,-63.07 1099,-66.9 1095.17,-70.73 1091.33,-70.73"/>
<text text-anchor="middle" x="1039.5" y="-55.53" font-family="Arial" font-size="14.00" fill="#cfffac">../units/convert.ts</text>
</g>
<!-- ../HeadingDirection.ts&#45;&gt;../units/convert.ts -->
<g id="edge7" class="edge">
<title>../HeadingDirection.ts&#45;&gt;../units/convert.ts</title>
<path fill="none" stroke="#757575" d="M895.72,-30.75C919.21,-35.43 946.52,-40.88 970.93,-45.75"/>
<polygon fill="#757575" stroke="#757575" points="970.34,-49.2 980.84,-47.73 971.71,-42.34 970.34,-49.2"/>
</g>
<!-- ../Input.ts -->
<g id="node8" class="node">
<title>../Input.ts</title>
<path fill="none" stroke="#cfffac" d="M865.33,-71.73C865.33,-71.73 808.67,-71.73 808.67,-71.73 804.83,-71.73 801,-67.9 801,-64.07 801,-64.07 801,-56.4 801,-56.4 801,-52.57 804.83,-48.73 808.67,-48.73 808.67,-48.73 865.33,-48.73 865.33,-48.73 869.17,-48.73 873,-52.57 873,-56.4 873,-56.4 873,-64.07 873,-64.07 873,-67.9 869.17,-71.73 865.33,-71.73"/>
<text text-anchor="middle" x="837" y="-56.53" font-family="Arial" font-size="14.00" fill="#cfffac">../Input.ts</text>
</g>
<!-- ../Log.ts -->
<g id="node9" class="node">
<title>../Log.ts</title>
<path fill="none" stroke="#c6c5fe" d="M861.83,-253.73C861.83,-253.73 812.17,-253.73 812.17,-253.73 808.33,-253.73 804.5,-249.9 804.5,-246.07 804.5,-246.07 804.5,-238.4 804.5,-238.4 804.5,-234.57 808.33,-230.73 812.17,-230.73 812.17,-230.73 861.83,-230.73 861.83,-230.73 865.67,-230.73 869.5,-234.57 869.5,-238.4 869.5,-238.4 869.5,-246.07 869.5,-246.07 869.5,-249.9 865.67,-253.73 861.83,-253.73"/>
<text text-anchor="middle" x="837" y="-238.53" font-family="Arial" font-size="14.00" fill="#c6c5fe">../Log.ts</text>
</g>
<!-- ../Log.ts&#45;&gt;../Observable.ts -->
<g id="edge8" class="edge">
<title>../Log.ts&#45;&gt;../Observable.ts</title>
<path fill="none" stroke="#757575" d="M864.22,-253.78C885.84,-262.97 917.49,-275.66 946,-284.23 954.78,-286.87 964.13,-289.31 973.38,-291.51"/>
<polygon fill="#757575" stroke="#757575" points="972.82,-294.97 983.35,-293.8 974.39,-288.15 972.82,-294.97"/>
</g>
<!-- ../collections/InstanceMap.ts -->
<g id="node10" class="node">
<title>../collections/InstanceMap.ts</title>
<path fill="none" stroke="#cfffac" d="M1125.33,-274.73C1125.33,-274.73 953.67,-274.73 953.67,-274.73 949.83,-274.73 946,-270.9 946,-267.07 946,-267.07 946,-259.4 946,-259.4 946,-255.57 949.83,-251.73 953.67,-251.73 953.67,-251.73 1125.33,-251.73 1125.33,-251.73 1129.17,-251.73 1133,-255.57 1133,-259.4 1133,-259.4 1133,-267.07 1133,-267.07 1133,-270.9 1129.17,-274.73 1125.33,-274.73"/>
<text text-anchor="middle" x="1039.5" y="-259.53" font-family="Arial" font-size="14.00" fill="#cfffac">../collections/InstanceMap.ts</text>
</g>
<!-- ../Log.ts&#45;&gt;../collections/InstanceMap.ts -->
<g id="edge9" class="edge">
<title>../Log.ts&#45;&gt;../collections/InstanceMap.ts</title>
<path fill="none" stroke="#757575" d="M869.77,-245.56C887.84,-247.45 911.59,-249.94 935.55,-252.45"/>
<polygon fill="#757575" stroke="#757575" points="935.5,-255.96 945.81,-253.52 936.23,-249 935.5,-255.96"/>
</g>
<!-- ../functions/Array.ts -->
<g id="node11" class="node">
<title>../functions/Array.ts</title>
<path fill="none" stroke="#cfffac" d="M1097.33,-233.73C1097.33,-233.73 981.67,-233.73 981.67,-233.73 977.83,-233.73 974,-229.9 974,-226.07 974,-226.07 974,-218.4 974,-218.4 974,-214.57 977.83,-210.73 981.67,-210.73 981.67,-210.73 1097.33,-210.73 1097.33,-210.73 1101.17,-210.73 1105,-214.57 1105,-218.4 1105,-218.4 1105,-226.07 1105,-226.07 1105,-229.9 1101.17,-233.73 1097.33,-233.73"/>
<text text-anchor="middle" x="1039.5" y="-218.53" font-family="Arial" font-size="14.00" fill="#cfffac">../functions/Array.ts</text>
</g>
<!-- ../Log.ts&#45;&gt;../functions/Array.ts -->
<g id="edge10" class="edge">
<title>../Log.ts&#45;&gt;../functions/Array.ts</title>
<path fill="none" stroke="#757575" d="M869.77,-239.06C894.88,-236.56 930.97,-232.96 963.33,-229.73"/>
<polygon fill="#757575" stroke="#757575" points="964.08,-233.17 973.68,-228.7 963.39,-226.21 964.08,-233.17"/>
</g>
<!-- ../functions/Map.ts -->
<g id="node12" class="node">
<title>../functions/Map.ts</title>
<path fill="none" stroke="#cfffac" d="M1095.33,-192.73C1095.33,-192.73 983.67,-192.73 983.67,-192.73 979.83,-192.73 976,-188.9 976,-185.07 976,-185.07 976,-177.4 976,-177.4 976,-173.57 979.83,-169.73 983.67,-169.73 983.67,-169.73 1095.33,-169.73 1095.33,-169.73 1099.17,-169.73 1103,-173.57 1103,-177.4 1103,-177.4 1103,-185.07 1103,-185.07 1103,-188.9 1099.17,-192.73 1095.33,-192.73"/>
<text text-anchor="middle" x="1039.5" y="-177.53" font-family="Arial" font-size="14.00" fill="#cfffac">../functions/Map.ts</text>
</g>
<!-- ../Log.ts&#45;&gt;../functions/Map.ts -->
<g id="edge11" class="edge">
<title>../Log.ts&#45;&gt;../functions/Map.ts</title>
<path fill="none" stroke="#757575" d="M866.08,-230.67C887.68,-222.07 918.4,-210.44 946,-202.23 954.37,-199.74 963.25,-197.38 972.05,-195.21"/>
<polygon fill="#757575" stroke="#757575" points="973.03,-198.57 981.94,-192.83 971.4,-191.77 973.03,-198.57"/>
</g>
<!-- ../functions/Set.ts -->
<g id="node13" class="node">
<title>../functions/Set.ts</title>
<path fill="none" stroke="#cfffac" d="M1091.83,-151.73C1091.83,-151.73 987.17,-151.73 987.17,-151.73 983.33,-151.73 979.5,-147.9 979.5,-144.07 979.5,-144.07 979.5,-136.4 979.5,-136.4 979.5,-132.57 983.33,-128.73 987.17,-128.73 987.17,-128.73 1091.83,-128.73 1091.83,-128.73 1095.67,-128.73 1099.5,-132.57 1099.5,-136.4 1099.5,-136.4 1099.5,-144.07 1099.5,-144.07 1099.5,-147.9 1095.67,-151.73 1091.83,-151.73"/>
<text text-anchor="middle" x="1039.5" y="-136.53" font-family="Arial" font-size="14.00" fill="#cfffac">../functions/Set.ts</text>
</g>
<!-- ../Log.ts&#45;&gt;../functions/Set.ts -->
<g id="edge12" class="edge">
<title>../Log.ts&#45;&gt;../functions/Set.ts</title>
<path fill="none" stroke="#757575" d="M849.84,-230.62C868.61,-212.9 907.07,-179.24 946,-161.23 953.33,-157.84 961.25,-154.98 969.26,-152.56"/>
<polygon fill="#757575" stroke="#757575" points="970.35,-155.89 979.04,-149.84 968.47,-149.15 970.35,-155.89"/>
</g>
<!-- ../NetworkedEntityServer.ts -->
<g id="node14" class="node">
<title>../NetworkedEntityServer.ts</title>
<path fill="none" stroke="#c6c5fe" d="M368.33,-345.73C368.33,-345.73 204.67,-345.73 204.67,-345.73 200.83,-345.73 197,-341.9 197,-338.07 197,-338.07 197,-330.4 197,-330.4 197,-326.57 200.83,-322.73 204.67,-322.73 204.67,-322.73 368.33,-322.73 368.33,-322.73 372.17,-322.73 376,-326.57 376,-330.4 376,-330.4 376,-338.07 376,-338.07 376,-341.9 372.17,-345.73 368.33,-345.73"/>
<text text-anchor="middle" x="286.5" y="-330.53" font-family="Arial" font-size="14.00" fill="#c6c5fe">../NetworkedEntityServer.ts</text>
</g>
<!-- ../NetworkedEntityServer.ts&#45;&gt;../Component.ts -->
<g id="edge13" class="edge">
<title>../NetworkedEntityServer.ts&#45;&gt;../Component.ts</title>
<path fill="none" stroke="#757575" d="M376.33,-337.02C446.04,-339.2 541.51,-342.19 604.54,-344.17"/>
<polygon fill="#757575" stroke="#757575" points="604.65,-347.67 614.76,-344.49 604.87,-340.67 604.65,-347.67"/>
</g>
<!-- ../NetworkedEntityServer.ts&#45;&gt;../Error.ts -->
<g id="edge14" class="edge">
<title>../NetworkedEntityServer.ts&#45;&gt;../Error.ts</title>
<path fill="none" stroke="#757575" d="M336.49,-345.82C469.8,-377.33 829.63,-462.23 836,-462.23 836,-462.23 836,-462.23 1040.5,-462.23 1138.52,-462.23 1245.23,-407.55 1294.18,-379.06"/>
<polygon fill="#757575" stroke="#757575" points="1296.08,-382 1302.9,-373.9 1292.51,-375.98 1296.08,-382"/>
</g>
<!-- ../functions/Networking.ts -->
<g id="node15" class="node">
<title>../functions/Networking.ts</title>
<path fill="none" stroke="#c6c5fe" d="M571.33,-281.73C571.33,-281.73 419.67,-281.73 419.67,-281.73 415.83,-281.73 412,-277.9 412,-274.07 412,-274.07 412,-266.4 412,-266.4 412,-262.57 415.83,-258.73 419.67,-258.73 419.67,-258.73 571.33,-258.73 571.33,-258.73 575.17,-258.73 579,-262.57 579,-266.4 579,-266.4 579,-274.07 579,-274.07 579,-277.9 575.17,-281.73 571.33,-281.73"/>
<text text-anchor="middle" x="495.5" y="-266.53" font-family="Arial" font-size="14.00" fill="#c6c5fe">../functions/Networking.ts</text>
</g>
<!-- ../NetworkedEntityServer.ts&#45;&gt;../functions/Networking.ts -->
<g id="edge15" class="edge">
<title>../NetworkedEntityServer.ts&#45;&gt;../functions/Networking.ts</title>
<path fill="none" stroke="#757575" d="M324.99,-322.64C359.42,-312 410.6,-296.17 447.7,-284.7"/>
<polygon fill="#757575" stroke="#757575" points="448.77,-288.03 457.29,-281.74 446.71,-281.35 448.77,-288.03"/>
</g>
<!-- ../util.ts -->
<g id="node16" class="node">
<title>../util.ts</title>
<path fill="none" stroke="#c6c5fe" d="M693.33,-267.73C693.33,-267.73 649.67,-267.73 649.67,-267.73 645.83,-267.73 642,-263.9 642,-260.07 642,-260.07 642,-252.4 642,-252.4 642,-248.57 645.83,-244.73 649.67,-244.73 649.67,-244.73 693.33,-244.73 693.33,-244.73 697.17,-244.73 701,-248.57 701,-252.4 701,-252.4 701,-260.07 701,-260.07 701,-263.9 697.17,-267.73 693.33,-267.73"/>
<text text-anchor="middle" x="671.5" y="-252.53" font-family="Arial" font-size="14.00" fill="#c6c5fe">../util.ts</text>
</g>
<!-- ../NetworkedEntityServer.ts&#45;&gt;../util.ts -->
<g id="edge16" class="edge">
<title>../NetworkedEntityServer.ts&#45;&gt;../util.ts</title>
<path fill="none" stroke="#757575" d="M376.21,-326.25C434.49,-319.76 512.07,-308.74 579,-291.23 597.98,-286.27 618.44,-278.67 635.18,-271.82"/>
<polygon fill="#757575" stroke="#757575" points="636.69,-274.98 644.57,-267.9 634,-268.52 636.69,-274.98"/>
</g>
<!-- ../functions/Networking.ts&#45;&gt;../Component.ts -->
<g id="edge20" class="edge">
<title>../functions/Networking.ts&#45;&gt;../Component.ts</title>
<path fill="none" stroke="#757575" d="M522.93,-281.78C552.78,-294.81 601.52,-316.1 634.75,-330.62"/>
<polygon fill="#757575" stroke="#757575" points="633.55,-333.91 644.11,-334.71 636.35,-327.5 633.55,-333.91"/>
</g>
<!-- ../functions/Networking.ts&#45;&gt;../util.ts -->
<g id="edge22" class="edge">
<title>../functions/Networking.ts&#45;&gt;../util.ts</title>
<path fill="none" stroke="#757575" d="M579.17,-263.58C597.41,-262.11 615.9,-260.63 631.43,-259.38"/>
<polygon fill="#757575" stroke="#757575" points="631.98,-262.84 641.67,-258.55 631.42,-255.87 631.98,-262.84"/>
</g>
<!-- ../constants.ts -->
<g id="node18" class="node">
<title>../constants.ts</title>
<path fill="none" stroke="#c6c5fe" d="M713.83,-71.73C713.83,-71.73 629.17,-71.73 629.17,-71.73 625.33,-71.73 621.5,-67.9 621.5,-64.07 621.5,-64.07 621.5,-56.4 621.5,-56.4 621.5,-52.57 625.33,-48.73 629.17,-48.73 629.17,-48.73 713.83,-48.73 713.83,-48.73 717.67,-48.73 721.5,-52.57 721.5,-56.4 721.5,-56.4 721.5,-64.07 721.5,-64.07 721.5,-67.9 717.67,-71.73 713.83,-71.73"/>
<text text-anchor="middle" x="671.5" y="-56.53" font-family="Arial" font-size="14.00" fill="#c6c5fe">../constants.ts</text>
</g>
<!-- ../functions/Networking.ts&#45;&gt;../constants.ts -->
<g id="edge21" class="edge">
<title>../functions/Networking.ts&#45;&gt;../constants.ts</title>
<path fill="none" stroke="#757575" d="M506.1,-258.64C534.62,-224.22 619.04,-122.34 654.52,-79.52"/>
<polygon fill="#757575" stroke="#757575" points="657.24,-81.72 660.93,-71.79 651.85,-77.25 657.24,-81.72"/>
</g>
<!-- ../util.ts&#45;&gt;../Log.ts -->
<g id="edge23" class="edge">
<title>../util.ts&#45;&gt;../Log.ts</title>
<path fill="none" stroke="#757575" d="M701.35,-253.76C727.07,-251.56 765.03,-248.31 794.1,-245.82"/>
<polygon fill="#757575" stroke="#757575" points="794.7,-249.28 804.36,-244.94 794.1,-242.31 794.7,-249.28"/>
</g>
<!-- ../common.ts -->
<g id="node17" class="node">
<title>../common.ts</title>
<path fill="none" stroke="#cfffac" d="M326.33,-386.73C326.33,-386.73 246.67,-386.73 246.67,-386.73 242.83,-386.73 239,-382.9 239,-379.07 239,-379.07 239,-371.4 239,-371.4 239,-367.57 242.83,-363.73 246.67,-363.73 246.67,-363.73 326.33,-363.73 326.33,-363.73 330.17,-363.73 334,-367.57 334,-371.4 334,-371.4 334,-379.07 334,-379.07 334,-382.9 330.17,-386.73 326.33,-386.73"/>
<text text-anchor="middle" x="286.5" y="-371.53" font-family="Arial" font-size="14.00" fill="#cfffac">../common.ts</text>
</g>
<!-- ../constants.ts&#45;&gt;../HeadingDirection.ts -->
<g id="edge18" class="edge">
<title>../constants.ts&#45;&gt;../HeadingDirection.ts</title>
<path fill="none" stroke="#757575" d="M718.48,-48.7C737.63,-43.9 760.04,-38.28 780.13,-33.24"/>
<polygon fill="#757575" stroke="#757575" points="781.23,-36.57 790.08,-30.75 779.53,-29.78 781.23,-36.57"/>
</g>
<!-- ../constants.ts&#45;&gt;../Input.ts -->
<g id="edge19" class="edge">
<title>../constants.ts&#45;&gt;../Input.ts</title>
<path fill="none" stroke="#757575" d="M721.56,-60.23C743.46,-60.23 769.12,-60.23 790.58,-60.23"/>
<polygon fill="#757575" stroke="#757575" points="790.74,-63.73 800.74,-60.23 790.74,-56.73 790.74,-63.73"/>
</g>
<!-- auth.ts -->
<g id="node19" class="node">
<title>auth.ts</title>
<path fill="none" stroke="#c6c5fe" d="M516.33,-111.73C516.33,-111.73 474.67,-111.73 474.67,-111.73 470.83,-111.73 467,-107.9 467,-104.07 467,-104.07 467,-96.4 467,-96.4 467,-92.57 470.83,-88.73 474.67,-88.73 474.67,-88.73 516.33,-88.73 516.33,-88.73 520.17,-88.73 524,-92.57 524,-96.4 524,-96.4 524,-104.07 524,-104.07 524,-107.9 520.17,-111.73 516.33,-111.73"/>
<text text-anchor="middle" x="495.5" y="-96.53" font-family="Arial" font-size="14.00" fill="#c6c5fe">auth.ts</text>
</g>
<!-- auth.ts&#45;&gt;../Error.ts -->
<g id="edge24" class="edge">
<title>auth.ts&#45;&gt;../Error.ts</title>
<path fill="none" stroke="#757575" d="M524.22,-100.23C582.14,-100.23 720.18,-100.23 836,-100.23 836,-100.23 836,-100.23 1040.5,-100.23 1082.47,-100.23 1097.37,-97.05 1133,-119.23 1224.19,-176 1288.47,-293.63 1311.82,-341.39"/>
<polygon fill="#757575" stroke="#757575" points="1308.69,-342.97 1316.17,-350.48 1315.01,-339.95 1308.69,-342.97"/>
</g>
<!-- auth.ts&#45;&gt;../constants.ts -->
<g id="edge25" class="edge">
<title>auth.ts&#45;&gt;../constants.ts</title>
<path fill="none" stroke="#757575" d="M524.07,-93.89C547.49,-88.51 581.91,-80.6 611.5,-73.8"/>
<polygon fill="#757575" stroke="#757575" points="612.36,-77.19 621.32,-71.54 610.79,-70.37 612.36,-77.19"/>
</g>
<!-- entity.ts -->
<g id="node20" class="node">
<title>entity.ts</title>
<path fill="none" stroke="#c6c5fe" d="M153.33,-365.73C153.33,-365.73 106.67,-365.73 106.67,-365.73 102.83,-365.73 99,-361.9 99,-358.07 99,-358.07 99,-350.4 99,-350.4 99,-346.57 102.83,-342.73 106.67,-342.73 106.67,-342.73 153.33,-342.73 153.33,-342.73 157.17,-342.73 161,-346.57 161,-350.4 161,-350.4 161,-358.07 161,-358.07 161,-361.9 157.17,-365.73 153.33,-365.73"/>
<text text-anchor="middle" x="130" y="-350.53" font-family="Arial" font-size="14.00" fill="#c6c5fe">entity.ts</text>
</g>
<!-- entity.ts&#45;&gt;../Entity.ts -->
<g id="edge26" class="edge">
<title>entity.ts&#45;&gt;../Entity.ts</title>
<path fill="none" stroke="#757575" d="M144.58,-365.94C157.21,-376.05 177.04,-389.98 197,-396.23 409.5,-462.83 681.27,-441.03 788.99,-428.47"/>
<polygon fill="#757575" stroke="#757575" points="789.68,-431.91 799.2,-427.25 788.85,-424.96 789.68,-431.91"/>
</g>
<!-- entity.ts&#45;&gt;../Error.ts -->
<g id="edge27" class="edge">
<title>entity.ts&#45;&gt;../Error.ts</title>
<path fill="none" stroke="#757575" d="M133.88,-366.06C140.49,-390.6 159.19,-447.08 197,-475.23 305.4,-555.95 359.35,-538.23 494.5,-538.23 494.5,-538.23 494.5,-538.23 1040.5,-538.23 1157.55,-538.23 1265.94,-427.19 1305.58,-381.51"/>
<polygon fill="#757575" stroke="#757575" points="1308.35,-383.66 1312.17,-373.78 1303.02,-379.12 1308.35,-383.66"/>
</g>
<!-- entity.ts&#45;&gt;../Observable.ts -->
<g id="edge29" class="edge">
<title>entity.ts&#45;&gt;../Observable.ts</title>
<path fill="none" stroke="#757575" d="M138.19,-365.82C148.94,-382.11 170.74,-411.56 197,-427.23 313.9,-497.02 358.36,-500.23 494.5,-500.23 494.5,-500.23 494.5,-500.23 672.5,-500.23 781.05,-500.23 816.34,-498.12 910,-443.23 961.65,-412.96 1004.86,-355.4 1025.48,-324.7"/>
<polygon fill="#757575" stroke="#757575" points="1028.57,-326.38 1031.15,-316.1 1022.73,-322.53 1028.57,-326.38"/>
</g>
<!-- entity.ts&#45;&gt;../NetworkedEntityServer.ts -->
<g id="edge28" class="edge">
<title>entity.ts&#45;&gt;../NetworkedEntityServer.ts</title>
<path fill="none" stroke="#757575" d="M161.16,-350.33C168.89,-349.33 177.65,-348.19 186.85,-347"/>
<polygon fill="#757575" stroke="#757575" points="187.51,-350.45 196.98,-345.69 186.61,-343.5 187.51,-350.45"/>
</g>
<!-- entity.ts&#45;&gt;../functions/Networking.ts -->
<g id="edge31" class="edge">
<title>entity.ts&#45;&gt;../functions/Networking.ts</title>
<path fill="none" stroke="#757575" d="M146.11,-342.66C158.94,-333.44 178.22,-321 197,-314.23 263.05,-290.43 341.8,-279.5 401.68,-274.47"/>
<polygon fill="#757575" stroke="#757575" points="402.18,-277.95 411.87,-273.66 401.63,-270.97 402.18,-277.95"/>
</g>
<!-- entity.ts&#45;&gt;../util.ts -->
<g id="edge32" class="edge">
<title>entity.ts&#45;&gt;../util.ts</title>
<path fill="none" stroke="#757575" d="M136.61,-342.69C146.17,-324.41 167.5,-289.23 197,-273.23 340.87,-195.23 547.1,-228.2 631.87,-246.77"/>
<polygon fill="#757575" stroke="#757575" points="631.31,-250.23 641.83,-249.01 632.84,-243.4 631.31,-250.23"/>
</g>
<!-- entity.ts&#45;&gt;../common.ts -->
<g id="edge30" class="edge">
<title>entity.ts&#45;&gt;../common.ts</title>
<path fill="none" stroke="#757575" d="M161.16,-358.33C180.43,-360.95 206.04,-364.43 229,-367.55"/>
<polygon fill="#757575" stroke="#757575" points="228.61,-371.03 238.99,-368.91 229.55,-364.1 228.61,-371.03"/>
</g>
<!-- index.ts -->
<g id="node21" class="node">
<title>index.ts</title>
<path fill="none" stroke="#c6c5fe" d="M55.33,-111.73C55.33,-111.73 7.67,-111.73 7.67,-111.73 3.83,-111.73 0,-107.9 0,-104.07 0,-104.07 0,-96.4 0,-96.4 0,-92.57 3.83,-88.73 7.67,-88.73 7.67,-88.73 55.33,-88.73 55.33,-88.73 59.17,-88.73 63,-92.57 63,-96.4 63,-96.4 63,-104.07 63,-104.07 63,-107.9 59.17,-111.73 55.33,-111.73"/>
<text text-anchor="middle" x="31.5" y="-96.53" font-family="Arial" font-size="14.00" fill="#c6c5fe">index.ts</text>
</g>
<!-- index.ts&#45;&gt;../constants.ts -->
<g id="edge33" class="edge">
<title>index.ts&#45;&gt;../constants.ts</title>
<path fill="none" stroke="#757575" d="M63.27,-98.3C163,-92.05 478.48,-72.27 610.98,-63.96"/>
<polygon fill="#757575" stroke="#757575" points="611.57,-67.43 621.34,-63.31 611.14,-60.45 611.57,-67.43"/>
</g>
<!-- index.ts&#45;&gt;auth.ts -->
<g id="edge34" class="edge">
<title>index.ts&#45;&gt;auth.ts</title>
<path fill="none" stroke="#757575" d="M63.17,-100.23C144.8,-100.23 367.21,-100.23 456.58,-100.23"/>
<polygon fill="#757575" stroke="#757575" points="456.8,-103.73 466.8,-100.23 456.8,-96.73 456.8,-103.73"/>
</g>
<!-- index.ts&#45;&gt;entity.ts -->
<g id="edge35" class="edge">
<title>index.ts&#45;&gt;entity.ts</title>
<path fill="none" stroke="#757575" d="M36.9,-111.81C51.94,-151.39 101.47,-281.77 120.99,-333.15"/>
<polygon fill="#757575" stroke="#757575" points="117.75,-334.49 124.58,-342.59 124.3,-332 117.75,-334.49"/>
</g>
</g>
</svg>
