<?xml version="1.0" encoding="UTF-8" standalone="no"?>
<!DOCTYPE svg PUBLIC "-//W3C//DTD SVG 1.1//EN"
 "http://www.w3.org/Graphics/SVG/1.1/DTD/svg11.dtd">
<!-- Generated by graphviz version 2.43.0 (0)
 -->
<!-- Title: G Pages: 1 -->
<svg width="1928pt" height="822pt"
 viewBox="0.00 0.00 1928.20 822.31" xmlns="http://www.w3.org/2000/svg" xmlns:xlink="http://www.w3.org/1999/xlink">
<g id="graph0" class="graph" transform="scale(1 1) rotate(0) translate(21.6 800.71)">
<title>G</title>
<polygon fill="#111111" stroke="transparent" points="-21.6,21.6 -21.6,-800.71 1906.6,-800.71 1906.6,21.6 -21.6,21.6"/>
<!-- ../Component.ts -->
<g id="node1" class="node">
<title>../Component.ts</title>
<path fill="none" stroke="#c6c5fe" d="M1504.33,-400.61C1504.33,-400.61 1406.67,-400.61 1406.67,-400.61 1402.83,-400.61 1399,-396.78 1399,-392.94 1399,-392.94 1399,-385.28 1399,-385.28 1399,-381.44 1402.83,-377.61 1406.67,-377.61 1406.67,-377.61 1504.33,-377.61 1504.33,-377.61 1508.17,-377.61 1512,-381.44 1512,-385.28 1512,-385.28 1512,-392.94 1512,-392.94 1512,-396.78 1508.17,-400.61 1504.33,-400.61"/>
<text text-anchor="middle" x="1455.5" y="-385.41" font-family="Arial" font-size="14.00" fill="#c6c5fe">../Component.ts</text>
</g>
<!-- ../Debug.ts -->
<g id="node2" class="node">
<title>../Debug.ts</title>
<path fill="none" stroke="#c6c5fe" d="M1770.33,-421.61C1770.33,-421.61 1703.67,-421.61 1703.67,-421.61 1699.83,-421.61 1696,-417.78 1696,-413.94 1696,-413.94 1696,-406.28 1696,-406.28 1696,-402.44 1699.83,-398.61 1703.67,-398.61 1703.67,-398.61 1770.33,-398.61 1770.33,-398.61 1774.17,-398.61 1778,-402.44 1778,-406.28 1778,-406.28 1778,-413.94 1778,-413.94 1778,-417.78 1774.17,-421.61 1770.33,-421.61"/>
<text text-anchor="middle" x="1737" y="-406.41" font-family="Arial" font-size="14.00" fill="#c6c5fe">../Debug.ts</text>
</g>
<!-- ../Component.ts&#45;&gt;../Debug.ts -->
<g id="edge1" class="edge">
<title>../Component.ts&#45;&gt;../Debug.ts</title>
<path fill="none" stroke="#757575" d="M1512.05,-393.28C1562.74,-397.09 1636.97,-402.67 1685.88,-406.34"/>
<polygon fill="#757575" stroke="#757575" points="1685.68,-409.84 1695.91,-407.1 1686.2,-402.86 1685.68,-409.84"/>
</g>
<!-- ../Error.ts -->
<g id="node3" class="node">
<title>../Error.ts</title>
<path fill="none" stroke="#cfffac" d="M1877.33,-401.61C1877.33,-401.61 1821.67,-401.61 1821.67,-401.61 1817.83,-401.61 1814,-397.78 1814,-393.94 1814,-393.94 1814,-386.28 1814,-386.28 1814,-382.44 1817.83,-378.61 1821.67,-378.61 1821.67,-378.61 1877.33,-378.61 1877.33,-378.61 1881.17,-378.61 1885,-382.44 1885,-386.28 1885,-386.28 1885,-393.94 1885,-393.94 1885,-397.78 1881.17,-401.61 1877.33,-401.61"/>
<text text-anchor="middle" x="1849.5" y="-386.41" font-family="Arial" font-size="14.00" fill="#cfffac">../Error.ts</text>
</g>
<!-- ../Component.ts&#45;&gt;../Error.ts -->
<g id="edge2" class="edge">
<title>../Component.ts&#45;&gt;../Error.ts</title>
<path fill="none" stroke="#757575" d="M1512.26,-388.87C1576.37,-388.65 1684.79,-388.45 1778,-389.11 1786.27,-389.17 1795.08,-389.27 1803.57,-389.38"/>
<polygon fill="#757575" stroke="#757575" points="1803.67,-392.88 1813.72,-389.52 1803.77,-385.88 1803.67,-392.88"/>
</g>
<!-- ../Observable.ts -->
<g id="node4" class="node">
<title>../Observable.ts</title>
<path fill="none" stroke="#c6c5fe" d="M1652.33,-459.61C1652.33,-459.61 1555.67,-459.61 1555.67,-459.61 1551.83,-459.61 1548,-455.78 1548,-451.94 1548,-451.94 1548,-444.28 1548,-444.28 1548,-440.44 1551.83,-436.61 1555.67,-436.61 1555.67,-436.61 1652.33,-436.61 1652.33,-436.61 1656.17,-436.61 1660,-440.44 1660,-444.28 1660,-444.28 1660,-451.94 1660,-451.94 1660,-455.78 1656.17,-459.61 1652.33,-459.61"/>
<text text-anchor="middle" x="1604" y="-444.41" font-family="Arial" font-size="14.00" fill="#c6c5fe">../Observable.ts</text>
</g>
<!-- ../Component.ts&#45;&gt;../Observable.ts -->
<g id="edge3" class="edge">
<title>../Component.ts&#45;&gt;../Observable.ts</title>
<path fill="none" stroke="#757575" d="M1485.09,-400.63C1507.81,-409.77 1539.79,-422.65 1564.71,-432.69"/>
<polygon fill="#757575" stroke="#757575" points="1563.64,-436.03 1574.23,-436.52 1566.26,-429.54 1563.64,-436.03"/>
</g>
<!-- ../Debug.ts&#45;&gt;../Error.ts -->
<g id="edge4" class="edge">
<title>../Debug.ts&#45;&gt;../Error.ts</title>
<path fill="none" stroke="#757575" d="M1778.21,-402.83C1786.54,-401.32 1795.37,-399.73 1803.85,-398.19"/>
<polygon fill="#757575" stroke="#757575" points="1804.76,-401.58 1813.97,-396.36 1803.51,-394.7 1804.76,-401.58"/>
</g>
<!-- ../Observable.ts&#45;&gt;../Debug.ts -->
<g id="edge13" class="edge">
<title>../Observable.ts&#45;&gt;../Debug.ts</title>
<path fill="none" stroke="#757575" d="M1644.66,-436.61C1657.75,-432.81 1672.48,-428.54 1686.22,-424.55"/>
<polygon fill="#757575" stroke="#757575" points="1687.39,-427.85 1696.02,-421.71 1685.44,-421.13 1687.39,-427.85"/>
</g>
<!-- ../EntityManager.ts -->
<g id="node5" class="node">
<title>../EntityManager.ts</title>
<path fill="none" stroke="#c6c5fe" d="M1127.33,-529.61C1127.33,-529.61 1013.67,-529.61 1013.67,-529.61 1009.83,-529.61 1006,-525.78 1006,-521.94 1006,-521.94 1006,-514.28 1006,-514.28 1006,-510.44 1009.83,-506.61 1013.67,-506.61 1013.67,-506.61 1127.33,-506.61 1127.33,-506.61 1131.17,-506.61 1135,-510.44 1135,-514.28 1135,-514.28 1135,-521.94 1135,-521.94 1135,-525.78 1131.17,-529.61 1127.33,-529.61"/>
<text text-anchor="middle" x="1070.5" y="-514.41" font-family="Arial" font-size="14.00" fill="#c6c5fe">../EntityManager.ts</text>
</g>
<!-- ../EntityManager.ts&#45;&gt;../Observable.ts -->
<g id="edge5" class="edge">
<title>../EntityManager.ts&#45;&gt;../Observable.ts</title>
<path fill="none" stroke="#757575" d="M1135.21,-510.22C1194.28,-502.85 1284.61,-491.47 1363,-481.11 1422.17,-473.29 1489.49,-464 1537.74,-457.27"/>
<polygon fill="#757575" stroke="#757575" points="1538.31,-460.72 1547.73,-455.87 1537.35,-453.79 1538.31,-460.72"/>
</g>
<!-- ../HeadingDirection.ts -->
<g id="node6" class="node">
<title>../HeadingDirection.ts</title>
<path fill="none" stroke="#c6c5fe" d="M697.83,-402.61C697.83,-402.61 567.17,-402.61 567.17,-402.61 563.33,-402.61 559.5,-398.78 559.5,-394.94 559.5,-394.94 559.5,-387.28 559.5,-387.28 559.5,-383.44 563.33,-379.61 567.17,-379.61 567.17,-379.61 697.83,-379.61 697.83,-379.61 701.67,-379.61 705.5,-383.44 705.5,-387.28 705.5,-387.28 705.5,-394.94 705.5,-394.94 705.5,-398.78 701.67,-402.61 697.83,-402.61"/>
<text text-anchor="middle" x="632.5" y="-387.41" font-family="Arial" font-size="14.00" fill="#c6c5fe">../HeadingDirection.ts</text>
</g>
<!-- ../HeadingDirection.ts&#45;&gt;../Error.ts -->
<g id="edge6" class="edge">
<title>../HeadingDirection.ts&#45;&gt;../Error.ts</title>
<path fill="none" stroke="#757575" d="M636.55,-402.61C647.45,-441.7 688.07,-571.01 766,-644.11 873.67,-745.11 921.87,-779.11 1069.5,-779.11 1069.5,-779.11 1069.5,-779.11 1605,-779.11 1657.41,-779.11 1768.36,-688.02 1778,-674.11 1836.26,-590.08 1846.49,-462.62 1848.2,-411.97"/>
<polygon fill="#757575" stroke="#757575" points="1851.7,-411.94 1848.46,-401.85 1844.7,-411.76 1851.7,-411.94"/>
</g>
<!-- ../units/convert.ts -->
<g id="node7" class="node">
<title>../units/convert.ts</title>
<path fill="none" stroke="#cfffac" d="M907.33,-402.61C907.33,-402.61 803.67,-402.61 803.67,-402.61 799.83,-402.61 796,-398.78 796,-394.94 796,-394.94 796,-387.28 796,-387.28 796,-383.44 799.83,-379.61 803.67,-379.61 803.67,-379.61 907.33,-379.61 907.33,-379.61 911.17,-379.61 915,-383.44 915,-387.28 915,-387.28 915,-394.94 915,-394.94 915,-398.78 911.17,-402.61 907.33,-402.61"/>
<text text-anchor="middle" x="855.5" y="-387.41" font-family="Arial" font-size="14.00" fill="#cfffac">../units/convert.ts</text>
</g>
<!-- ../HeadingDirection.ts&#45;&gt;../units/convert.ts -->
<g id="edge7" class="edge">
<title>../HeadingDirection.ts&#45;&gt;../units/convert.ts</title>
<path fill="none" stroke="#757575" d="M705.56,-391.11C731.24,-391.11 760.09,-391.11 785.51,-391.11"/>
<polygon fill="#757575" stroke="#757575" points="785.81,-394.61 795.81,-391.11 785.81,-387.61 785.81,-394.61"/>
</g>
<!-- ../Input.ts -->
<g id="node8" class="node">
<title>../Input.ts</title>
<path fill="none" stroke="#cfffac" d="M660.83,-51.61C660.83,-51.61 604.17,-51.61 604.17,-51.61 600.33,-51.61 596.5,-47.78 596.5,-43.94 596.5,-43.94 596.5,-36.28 596.5,-36.28 596.5,-32.44 600.33,-28.61 604.17,-28.61 604.17,-28.61 660.83,-28.61 660.83,-28.61 664.67,-28.61 668.5,-32.44 668.5,-36.28 668.5,-36.28 668.5,-43.94 668.5,-43.94 668.5,-47.78 664.67,-51.61 660.83,-51.61"/>
<text text-anchor="middle" x="632.5" y="-36.41" font-family="Arial" font-size="14.00" fill="#cfffac">../Input.ts</text>
</g>
<!-- ../Matrix.ts -->
<g id="node9" class="node">
<title>../Matrix.ts</title>
<path fill="none" stroke="#c6c5fe" d="M1487.83,-87.61C1487.83,-87.61 1423.17,-87.61 1423.17,-87.61 1419.33,-87.61 1415.5,-83.78 1415.5,-79.94 1415.5,-79.94 1415.5,-72.28 1415.5,-72.28 1415.5,-68.44 1419.33,-64.61 1423.17,-64.61 1423.17,-64.61 1487.83,-64.61 1487.83,-64.61 1491.67,-64.61 1495.5,-68.44 1495.5,-72.28 1495.5,-72.28 1495.5,-79.94 1495.5,-79.94 1495.5,-83.78 1491.67,-87.61 1487.83,-87.61"/>
<text text-anchor="middle" x="1455.5" y="-72.41" font-family="Arial" font-size="14.00" fill="#c6c5fe">../Matrix.ts</text>
</g>
<!-- ../Matrix.ts&#45;&gt;../Error.ts -->
<g id="edge8" class="edge">
<title>../Matrix.ts&#45;&gt;../Error.ts</title>
<path fill="none" stroke="#757575" d="M1495.54,-66.19C1562.04,-51.81 1697.87,-33.83 1778,-102.11 1819.04,-137.08 1840.12,-307.63 1846.43,-368.48"/>
<polygon fill="#757575" stroke="#757575" points="1842.95,-368.91 1847.43,-378.51 1849.92,-368.21 1842.95,-368.91"/>
</g>
<!-- ../NetworkedEntityServer.ts -->
<g id="node10" class="node">
<title>../NetworkedEntityServer.ts</title>
<path fill="none" stroke="#c6c5fe" d="M1152.33,-634.61C1152.33,-634.61 988.67,-634.61 988.67,-634.61 984.83,-634.61 981,-630.78 981,-626.94 981,-626.94 981,-619.28 981,-619.28 981,-615.44 984.83,-611.61 988.67,-611.61 988.67,-611.61 1152.33,-611.61 1152.33,-611.61 1156.17,-611.61 1160,-615.44 1160,-619.28 1160,-619.28 1160,-626.94 1160,-626.94 1160,-630.78 1156.17,-634.61 1152.33,-634.61"/>
<text text-anchor="middle" x="1070.5" y="-619.41" font-family="Arial" font-size="14.00" fill="#c6c5fe">../NetworkedEntityServer.ts</text>
</g>
<!-- ../NetworkedEntityServer.ts&#45;&gt;../Component.ts -->
<g id="edge9" class="edge">
<title>../NetworkedEntityServer.ts&#45;&gt;../Component.ts</title>
<path fill="none" stroke="#757575" d="M1148.63,-611.57C1229.1,-598.98 1345.93,-578.91 1363,-566.11 1415.39,-526.82 1440.34,-448.85 1449.77,-410.89"/>
<polygon fill="#757575" stroke="#757575" points="1453.24,-411.43 1452.13,-400.89 1446.43,-409.82 1453.24,-411.43"/>
</g>
<!-- ../NetworkedEntityServer.ts&#45;&gt;../Error.ts -->
<g id="edge10" class="edge">
<title>../NetworkedEntityServer.ts&#45;&gt;../Error.ts</title>
<path fill="none" stroke="#757575" d="M1160.11,-623.11C1237.74,-623.11 1353.6,-623.11 1454.5,-623.11 1454.5,-623.11 1454.5,-623.11 1605,-623.11 1727.26,-623.11 1812.16,-467.88 1839.24,-410.82"/>
<polygon fill="#757575" stroke="#757575" points="1842.45,-412.21 1843.49,-401.66 1836.1,-409.26 1842.45,-412.21"/>
</g>
<!-- ../functions/Networking.ts -->
<g id="node11" class="node">
<title>../functions/Networking.ts</title>
<path fill="none" stroke="#c6c5fe" d="M1355.33,-556.61C1355.33,-556.61 1203.67,-556.61 1203.67,-556.61 1199.83,-556.61 1196,-552.78 1196,-548.94 1196,-548.94 1196,-541.28 1196,-541.28 1196,-537.44 1199.83,-533.61 1203.67,-533.61 1203.67,-533.61 1355.33,-533.61 1355.33,-533.61 1359.17,-533.61 1363,-537.44 1363,-541.28 1363,-541.28 1363,-548.94 1363,-548.94 1363,-552.78 1359.17,-556.61 1355.33,-556.61"/>
<text text-anchor="middle" x="1279.5" y="-541.41" font-family="Arial" font-size="14.00" fill="#c6c5fe">../functions/Networking.ts</text>
</g>
<!-- ../NetworkedEntityServer.ts&#45;&gt;../functions/Networking.ts -->
<g id="edge11" class="edge">
<title>../NetworkedEntityServer.ts&#45;&gt;../functions/Networking.ts</title>
<path fill="none" stroke="#757575" d="M1103.76,-611.57C1120.67,-605.31 1141.63,-597.21 1160,-589.11 1176.37,-581.89 1179.42,-577.82 1196,-571.11 1206.13,-567.01 1217.16,-563.15 1227.76,-559.71"/>
<polygon fill="#757575" stroke="#757575" points="1228.86,-563.03 1237.34,-556.68 1226.75,-556.36 1228.86,-563.03"/>
</g>
<!-- ../util.ts -->
<g id="node12" class="node">
<title>../util.ts</title>
<path fill="none" stroke="#cfffac" d="M1301.33,-674.61C1301.33,-674.61 1257.67,-674.61 1257.67,-674.61 1253.83,-674.61 1250,-670.78 1250,-666.94 1250,-666.94 1250,-659.28 1250,-659.28 1250,-655.44 1253.83,-651.61 1257.67,-651.61 1257.67,-651.61 1301.33,-651.61 1301.33,-651.61 1305.17,-651.61 1309,-655.44 1309,-659.28 1309,-659.28 1309,-666.94 1309,-666.94 1309,-670.78 1305.17,-674.61 1301.33,-674.61"/>
<text text-anchor="middle" x="1279.5" y="-659.41" font-family="Arial" font-size="14.00" fill="#cfffac">../util.ts</text>
</g>
<!-- ../NetworkedEntityServer.ts&#45;&gt;../util.ts -->
<g id="edge12" class="edge">
<title>../NetworkedEntityServer.ts&#45;&gt;../util.ts</title>
<path fill="none" stroke="#757575" d="M1131.1,-634.63C1166.18,-641.41 1209.54,-649.78 1240.12,-655.69"/>
<polygon fill="#757575" stroke="#757575" points="1239.49,-659.14 1249.97,-657.6 1240.82,-652.26 1239.49,-659.14"/>
</g>
<!-- ../functions/Networking.ts&#45;&gt;../Component.ts -->
<g id="edge40" class="edge">
<title>../functions/Networking.ts&#45;&gt;../Component.ts</title>
<path fill="none" stroke="#757575" d="M1296.8,-533.43C1313.81,-521.02 1341,-500.56 1363,-481.11 1390.02,-457.22 1419.04,-427.22 1436.98,-408.1"/>
<polygon fill="#757575" stroke="#757575" points="1439.7,-410.33 1443.96,-400.62 1434.58,-405.55 1439.7,-410.33"/>
</g>
<!-- ../System.ts -->
<g id="node13" class="node">
<title>../System.ts</title>
<path fill="none" stroke="#c6c5fe" d="M1315.83,-400.61C1315.83,-400.61 1243.17,-400.61 1243.17,-400.61 1239.33,-400.61 1235.5,-396.78 1235.5,-392.94 1235.5,-392.94 1235.5,-385.28 1235.5,-385.28 1235.5,-381.44 1239.33,-377.61 1243.17,-377.61 1243.17,-377.61 1315.83,-377.61 1315.83,-377.61 1319.67,-377.61 1323.5,-381.44 1323.5,-385.28 1323.5,-385.28 1323.5,-392.94 1323.5,-392.94 1323.5,-396.78 1319.67,-400.61 1315.83,-400.61"/>
<text text-anchor="middle" x="1279.5" y="-385.41" font-family="Arial" font-size="14.00" fill="#c6c5fe">../System.ts</text>
</g>
<!-- ../System.ts&#45;&gt;../Component.ts -->
<g id="edge14" class="edge">
<title>../System.ts&#45;&gt;../Component.ts</title>
<path fill="none" stroke="#757575" d="M1323.51,-389.11C1343.15,-389.11 1366.84,-389.11 1388.64,-389.11"/>
<polygon fill="#757575" stroke="#757575" points="1388.84,-392.61 1398.84,-389.11 1388.84,-385.61 1388.84,-392.61"/>
</g>
<!-- ../constants.ts -->
<g id="node14" class="node">
<title>../constants.ts</title>
<path fill="none" stroke="#ff6c60" d="M284.33,-292.61C284.33,-292.61 199.67,-292.61 199.67,-292.61 195.83,-292.61 192,-288.78 192,-284.94 192,-284.94 192,-277.28 192,-277.28 192,-273.44 195.83,-269.61 199.67,-269.61 199.67,-269.61 284.33,-269.61 284.33,-269.61 288.17,-269.61 292,-273.44 292,-277.28 292,-277.28 292,-284.94 292,-284.94 292,-288.78 288.17,-292.61 284.33,-292.61"/>
<text text-anchor="middle" x="242" y="-277.41" font-family="Arial" font-size="14.00" fill="#ff6c60">../constants.ts</text>
</g>
<!-- ../constants.ts&#45;&gt;../EntityManager.ts -->
<g id="edge15" class="edge">
<title>../constants.ts&#45;&gt;../EntityManager.ts</title>
<path fill="none" stroke="#757575" d="M249.76,-292.8C262.81,-314.63 293.24,-362.27 328,-394.11 407.94,-467.33 432.84,-486.85 535,-523.11 707.15,-584.22 763.94,-576.39 945,-552.11 972.79,-548.38 1003.15,-540.18 1026.94,-532.76"/>
<polygon fill="#757575" stroke="#757575" points="1028.24,-536.02 1036.7,-529.65 1026.11,-529.35 1028.24,-536.02"/>
</g>
<!-- ../constants.ts&#45;&gt;../HeadingDirection.ts -->
<g id="edge16" class="edge">
<title>../constants.ts&#45;&gt;../HeadingDirection.ts</title>
<path fill="none" stroke="#757575" d="M284.25,-292.64C334.86,-306.81 423.28,-331.6 499,-353.11 526.31,-360.87 556.77,-369.6 581.59,-376.73"/>
<polygon fill="#757575" stroke="#757575" points="580.93,-380.18 591.51,-379.58 582.86,-373.45 580.93,-380.18"/>
</g>
<!-- ../constants.ts&#45;&gt;../Input.ts -->
<g id="edge17" class="edge">
<title>../constants.ts&#45;&gt;../Input.ts</title>
<path fill="none" stroke="#757575" d="M254.95,-269.55C292.71,-233.7 414.08,-123.33 535,-66.11 550.98,-58.55 569.52,-52.89 586.05,-48.82"/>
<polygon fill="#757575" stroke="#757575" points="587.1,-52.16 596.05,-46.48 585.51,-45.35 587.1,-52.16"/>
</g>
<!-- ../entities/BlockEntity.ts -->
<g id="node15" class="node">
<title>../entities/BlockEntity.ts</title>
<path fill="none" stroke="#ff6c60" d="M483.33,-292.61C483.33,-292.61 343.67,-292.61 343.67,-292.61 339.83,-292.61 336,-288.78 336,-284.94 336,-284.94 336,-277.28 336,-277.28 336,-273.44 339.83,-269.61 343.67,-269.61 343.67,-269.61 483.33,-269.61 483.33,-269.61 487.17,-269.61 491,-273.44 491,-277.28 491,-277.28 491,-284.94 491,-284.94 491,-288.78 487.17,-292.61 483.33,-292.61"/>
<text text-anchor="middle" x="413.5" y="-277.41" font-family="Arial" font-size="14.00" fill="#ff6c60">../entities/BlockEntity.ts</text>
</g>
<!-- ../constants.ts&#45;&gt;../entities/BlockEntity.ts -->
<g id="edge18" class="edge">
<title>../constants.ts&#45;&gt;../entities/BlockEntity.ts</title>
<path fill="none" stroke="#757575" d="M292.03,-274.92C302.61,-274.57 314.11,-274.38 325.66,-274.36"/>
<polygon fill="#757575" stroke="#757575" points="325.79,-277.86 335.8,-274.39 325.81,-270.86 325.79,-277.86"/>
</g>
<!-- ../entities/MonsterEntity.ts -->
<g id="node16" class="node">
<title>../entities/MonsterEntity.ts</title>
<path fill="none" stroke="#ff6c60" d="M491.33,-385.61C491.33,-385.61 335.67,-385.61 335.67,-385.61 331.83,-385.61 328,-381.78 328,-377.94 328,-377.94 328,-370.28 328,-370.28 328,-366.44 331.83,-362.61 335.67,-362.61 335.67,-362.61 491.33,-362.61 491.33,-362.61 495.17,-362.61 499,-366.44 499,-370.28 499,-370.28 499,-377.94 499,-377.94 499,-381.78 495.17,-385.61 491.33,-385.61"/>
<text text-anchor="middle" x="413.5" y="-370.41" font-family="Arial" font-size="14.00" fill="#ff6c60">../entities/MonsterEntity.ts</text>
</g>
<!-- ../constants.ts&#45;&gt;../entities/MonsterEntity.ts -->
<g id="edge19" class="edge">
<title>../constants.ts&#45;&gt;../entities/MonsterEntity.ts</title>
<path fill="none" stroke="#757575" d="M264.86,-292.7C281.34,-304.8 304.98,-322.85 328,-335.11 346.15,-344.78 368.06,-352.45 385.02,-358.86"/>
<polygon fill="#757575" stroke="#757575" points="383.79,-362.13 394.38,-362.49 386.32,-355.61 383.79,-362.13"/>
</g>
<!-- ../entities/PlayerPrefab.ts -->
<g id="node17" class="node">
<title>../entities/PlayerPrefab.ts</title>
<path fill="none" stroke="#ff6c60" d="M489.33,-246.61C489.33,-246.61 337.67,-246.61 337.67,-246.61 333.83,-246.61 330,-242.78 330,-238.94 330,-238.94 330,-231.28 330,-231.28 330,-227.44 333.83,-223.61 337.67,-223.61 337.67,-223.61 489.33,-223.61 489.33,-223.61 493.17,-223.61 497,-227.44 497,-231.28 497,-231.28 497,-238.94 497,-238.94 497,-242.78 493.17,-246.61 489.33,-246.61"/>
<text text-anchor="middle" x="413.5" y="-231.41" font-family="Arial" font-size="14.00" fill="#ff6c60">../entities/PlayerPrefab.ts</text>
</g>
<!-- ../constants.ts&#45;&gt;../entities/PlayerPrefab.ts -->
<g id="edge20" class="edge">
<title>../constants.ts&#45;&gt;../entities/PlayerPrefab.ts</title>
<path fill="none" stroke="#757575" d="M267.65,-269.49C285.72,-263.22 311.31,-255.68 335.97,-249.16"/>
<polygon fill="#757575" stroke="#757575" points="336.92,-252.53 345.72,-246.62 335.16,-245.75 336.92,-252.53"/>
</g>
<!-- ../entities/BlockEntity.ts&#45;&gt;../Component.ts -->
<g id="edge21" class="edge">
<title>../entities/BlockEntity.ts&#45;&gt;../Component.ts</title>
<path fill="none" stroke="#757575" d="M473.4,-269.49C482.59,-265.91 491.51,-261.23 499,-255.11 524.88,-233.97 506.58,-206.68 535,-189.11 771.36,-43.01 891.97,-99.81 1160,-173.11 1261.1,-200.76 1280.96,-227.89 1363,-293.11 1392.46,-316.53 1421.61,-349.19 1438.83,-369.73"/>
<polygon fill="#757575" stroke="#757575" points="1436.17,-372 1445.24,-377.48 1441.56,-367.54 1436.17,-372"/>
</g>
<!-- ../entities/BlockEntity.ts&#45;&gt;../EntityManager.ts -->
<g id="edge22" class="edge">
<title>../entities/BlockEntity.ts&#45;&gt;../EntityManager.ts</title>
<path fill="none" stroke="#757575" d="M465.56,-292.69C476.62,-295.34 488.22,-298.23 499,-301.11 602.51,-328.79 639.81,-312.27 730,-370.11 750.41,-383.2 745.91,-397.53 766,-411.11 838.27,-459.98 935.29,-489.04 999.98,-504.28"/>
<polygon fill="#757575" stroke="#757575" points="999.55,-507.77 1010.08,-506.6 1001.12,-500.95 999.55,-507.77"/>
</g>
<!-- ../entities/BlockEntity.ts&#45;&gt;../HeadingDirection.ts -->
<g id="edge23" class="edge">
<title>../entities/BlockEntity.ts&#45;&gt;../HeadingDirection.ts</title>
<path fill="none" stroke="#757575" d="M445.01,-292.7C461.25,-299.13 481.45,-307.55 499,-316.11 536.19,-334.25 577.44,-358.25 603.88,-374.16"/>
<polygon fill="#757575" stroke="#757575" points="602.22,-377.24 612.59,-379.43 605.84,-371.26 602.22,-377.24"/>
</g>
<!-- ../entities/BlockEntity.ts&#45;&gt;../constants.ts -->
<g id="edge24" class="edge">
<title>../entities/BlockEntity.ts&#45;&gt;../constants.ts</title>
<path fill="none" stroke="#757575" d="M335.8,-287.83C324.53,-287.91 313.06,-287.82 302.21,-287.58"/>
<polygon fill="#757575" stroke="#757575" points="302.12,-284.08 292.03,-287.3 301.92,-291.07 302.12,-284.08"/>
</g>
<!-- ../systems/ActionSystem.ts -->
<g id="node18" class="node">
<title>../systems/ActionSystem.ts</title>
<path fill="none" stroke="#c6c5fe" d="M937.33,-246.61C937.33,-246.61 773.67,-246.61 773.67,-246.61 769.83,-246.61 766,-242.78 766,-238.94 766,-238.94 766,-231.28 766,-231.28 766,-227.44 769.83,-223.61 773.67,-223.61 773.67,-223.61 937.33,-223.61 937.33,-223.61 941.17,-223.61 945,-227.44 945,-231.28 945,-231.28 945,-238.94 945,-238.94 945,-242.78 941.17,-246.61 937.33,-246.61"/>
<text text-anchor="middle" x="855.5" y="-231.41" font-family="Arial" font-size="14.00" fill="#c6c5fe">../systems/ActionSystem.ts</text>
</g>
<!-- ../entities/BlockEntity.ts&#45;&gt;../systems/ActionSystem.ts -->
<g id="edge25" class="edge">
<title>../entities/BlockEntity.ts&#45;&gt;../systems/ActionSystem.ts</title>
<path fill="none" stroke="#757575" d="M467.88,-269.58C478.68,-265.93 489.59,-261.2 499,-255.11 519.36,-241.93 512.91,-224.11 535,-214.11 627.29,-172.33 750.11,-200.68 813.21,-220.48"/>
<polygon fill="#757575" stroke="#757575" points="812.22,-223.84 822.81,-223.57 814.36,-217.18 812.22,-223.84"/>
</g>
<!-- ../systems/BehaviorSystem.ts -->
<g id="node19" class="node">
<title>../systems/BehaviorSystem.ts</title>
<path fill="none" stroke="#c6c5fe" d="M722.33,-246.61C722.33,-246.61 542.67,-246.61 542.67,-246.61 538.83,-246.61 535,-242.78 535,-238.94 535,-238.94 535,-231.28 535,-231.28 535,-227.44 538.83,-223.61 542.67,-223.61 542.67,-223.61 722.33,-223.61 722.33,-223.61 726.17,-223.61 730,-227.44 730,-231.28 730,-231.28 730,-238.94 730,-238.94 730,-242.78 726.17,-246.61 722.33,-246.61"/>
<text text-anchor="middle" x="632.5" y="-231.41" font-family="Arial" font-size="14.00" fill="#c6c5fe">../systems/BehaviorSystem.ts</text>
</g>
<!-- ../entities/BlockEntity.ts&#45;&gt;../systems/BehaviorSystem.ts -->
<g id="edge26" class="edge">
<title>../entities/BlockEntity.ts&#45;&gt;../systems/BehaviorSystem.ts</title>
<path fill="none" stroke="#757575" d="M468.98,-269.56C498.77,-263.25 535.86,-255.38 567.09,-248.76"/>
<polygon fill="#757575" stroke="#757575" points="567.94,-252.16 577,-246.66 566.49,-245.31 567.94,-252.16"/>
</g>
<!-- ../entities/MonsterEntity.ts&#45;&gt;../Component.ts -->
<g id="edge27" class="edge">
<title>../entities/MonsterEntity.ts&#45;&gt;../Component.ts</title>
<path fill="none" stroke="#757575" d="M490.6,-385.72C493.5,-387.03 496.31,-388.49 499,-390.11 520.95,-403.31 512.24,-423.37 535,-435.11 658.47,-498.79 1021.73,-462.6 1160,-449.11 1245.91,-440.73 1343.77,-418.12 1402.26,-403.18"/>
<polygon fill="#757575" stroke="#757575" points="1403.19,-406.55 1412,-400.67 1401.45,-399.77 1403.19,-406.55"/>
</g>
<!-- ../entities/MonsterEntity.ts&#45;&gt;../EntityManager.ts -->
<g id="edge28" class="edge">
<title>../entities/MonsterEntity.ts&#45;&gt;../EntityManager.ts</title>
<path fill="none" stroke="#757575" d="M423.32,-385.66C441.47,-408.48 485.45,-459.22 535,-483.11 685.74,-555.77 888.65,-543.58 995.92,-529.92"/>
<polygon fill="#757575" stroke="#757575" points="996.53,-533.37 1005.99,-528.59 995.62,-526.43 996.53,-533.37"/>
</g>
<!-- ../entities/MonsterEntity.ts&#45;&gt;../HeadingDirection.ts -->
<g id="edge29" class="edge">
<title>../entities/MonsterEntity.ts&#45;&gt;../HeadingDirection.ts</title>
<path fill="none" stroke="#757575" d="M499.02,-380.73C515.48,-382.02 532.71,-383.37 549.1,-384.65"/>
<polygon fill="#757575" stroke="#757575" points="548.94,-388.15 559.18,-385.44 549.48,-381.17 548.94,-388.15"/>
</g>
<!-- ../entities/MonsterEntity.ts&#45;&gt;../constants.ts -->
<g id="edge30" class="edge">
<title>../entities/MonsterEntity.ts&#45;&gt;../constants.ts</title>
<path fill="none" stroke="#757575" d="M348.41,-362.59C341.39,-359.74 334.46,-356.55 328,-353.11 301.25,-338.86 273.67,-316.81 257.45,-300.52"/>
<polygon fill="#757575" stroke="#757575" points="259.84,-297.95 250.45,-293.05 254.73,-302.74 259.84,-297.95"/>
</g>
<!-- ../entities/MonsterEntity.ts&#45;&gt;../systems/ActionSystem.ts -->
<g id="edge31" class="edge">
<title>../entities/MonsterEntity.ts&#45;&gt;../systems/ActionSystem.ts</title>
<path fill="none" stroke="#757575" d="M451.26,-362.5C531.11,-337.27 720.28,-277.51 808.15,-249.75"/>
<polygon fill="#757575" stroke="#757575" points="809.37,-253.04 817.85,-246.69 807.26,-246.36 809.37,-253.04"/>
</g>
<!-- ../entities/MonsterEntity.ts&#45;&gt;../systems/BehaviorSystem.ts -->
<g id="edge32" class="edge">
<title>../entities/MonsterEntity.ts&#45;&gt;../systems/BehaviorSystem.ts</title>
<path fill="none" stroke="#757575" d="M432.63,-362.5C470.84,-338.02 559.83,-281.02 604.66,-252.3"/>
<polygon fill="#757575" stroke="#757575" points="606.74,-255.13 613.27,-246.79 602.96,-249.23 606.74,-255.13"/>
</g>
<!-- ../systems/LogSystem.ts -->
<g id="node20" class="node">
<title>../systems/LogSystem.ts</title>
<path fill="none" stroke="#c6c5fe" d="M1144.83,-440.61C1144.83,-440.61 996.17,-440.61 996.17,-440.61 992.33,-440.61 988.5,-436.78 988.5,-432.94 988.5,-432.94 988.5,-425.28 988.5,-425.28 988.5,-421.44 992.33,-417.61 996.17,-417.61 996.17,-417.61 1144.83,-417.61 1144.83,-417.61 1148.67,-417.61 1152.5,-421.44 1152.5,-425.28 1152.5,-425.28 1152.5,-432.94 1152.5,-432.94 1152.5,-436.78 1148.67,-440.61 1144.83,-440.61"/>
<text text-anchor="middle" x="1070.5" y="-425.41" font-family="Arial" font-size="14.00" fill="#c6c5fe">../systems/LogSystem.ts</text>
</g>
<!-- ../entities/MonsterEntity.ts&#45;&gt;../systems/LogSystem.ts -->
<g id="edge33" class="edge">
<title>../entities/MonsterEntity.ts&#45;&gt;../systems/LogSystem.ts</title>
<path fill="none" stroke="#757575" d="M444.18,-385.63C468.25,-394.39 503.27,-405.8 535,-411.11 688.92,-436.86 871.13,-436.56 978.13,-433.31"/>
<polygon fill="#757575" stroke="#757575" points="978.37,-436.81 988.25,-432.99 978.14,-429.81 978.37,-436.81"/>
</g>
<!-- ../entities/PlayerPrefab.ts&#45;&gt;../Component.ts -->
<g id="edge34" class="edge">
<title>../entities/PlayerPrefab.ts&#45;&gt;../Component.ts</title>
<path fill="none" stroke="#757575" d="M431.36,-223.39C454.04,-208.04 496.05,-181.1 535,-164.11 790.21,-52.78 887.33,-64.74 1160,-121.11 1252.13,-140.16 1292.39,-118.94 1363,-181.11 1420.49,-231.72 1443.41,-325.2 1451.12,-367.42"/>
<polygon fill="#757575" stroke="#757575" points="1447.7,-368.17 1452.84,-377.44 1454.6,-366.99 1447.7,-368.17"/>
</g>
<!-- ../entities/PlayerPrefab.ts&#45;&gt;../EntityManager.ts -->
<g id="edge35" class="edge">
<title>../entities/PlayerPrefab.ts&#45;&gt;../EntityManager.ts</title>
<path fill="none" stroke="#757575" d="M476.21,-246.66C554.38,-261.7 684.41,-288.18 730,-306.11 747.24,-312.89 748.81,-320.21 766,-327.11 841.92,-357.6 881.87,-318.06 945,-370.11 974.77,-394.65 957.1,-418.82 981,-449.11 997.67,-470.23 1022.12,-488.65 1041.09,-501.13"/>
<polygon fill="#757575" stroke="#757575" points="1039.33,-504.16 1049.64,-506.6 1043.11,-498.26 1039.33,-504.16"/>
</g>
<!-- ../entities/PlayerPrefab.ts&#45;&gt;../Input.ts -->
<g id="edge36" class="edge">
<title>../entities/PlayerPrefab.ts&#45;&gt;../Input.ts</title>
<path fill="none" stroke="#757575" d="M425.42,-223.32C442.33,-204.76 475.34,-167.21 499,-132.11 517.68,-104.4 508.75,-86.79 535,-66.11 549.58,-54.62 568.83,-48.19 586.3,-44.6"/>
<polygon fill="#757575" stroke="#757575" points="587.11,-48.01 596.33,-42.8 585.87,-41.12 587.11,-48.01"/>
</g>
<!-- ../entities/PlayerPrefab.ts&#45;&gt;../constants.ts -->
<g id="edge37" class="edge">
<title>../entities/PlayerPrefab.ts&#45;&gt;../constants.ts</title>
<path fill="none" stroke="#757575" d="M388.05,-246.66C365.58,-254.47 331.39,-264.26 301.84,-271.6"/>
<polygon fill="#757575" stroke="#757575" points="300.92,-268.23 292.03,-273.99 302.57,-275.03 300.92,-268.23"/>
</g>
<!-- ../entities/PlayerPrefab.ts&#45;&gt;../systems/ActionSystem.ts -->
<g id="edge38" class="edge">
<title>../entities/PlayerPrefab.ts&#45;&gt;../systems/ActionSystem.ts</title>
<path fill="none" stroke="#757575" d="M433.66,-223.45C456.73,-210.15 497.11,-189.21 535,-181.11 619.75,-162.99 645.14,-163.5 730,-181.11 764.42,-188.25 801,-205.41 825.54,-218.48"/>
<polygon fill="#757575" stroke="#757575" points="824.19,-221.73 834.64,-223.44 827.54,-215.58 824.19,-221.73"/>
</g>
<!-- ../entities/PlayerPrefab.ts&#45;&gt;../systems/BehaviorSystem.ts -->
<g id="edge39" class="edge">
<title>../entities/PlayerPrefab.ts&#45;&gt;../systems/BehaviorSystem.ts</title>
<path fill="none" stroke="#757575" d="M497.16,-235.11C506.22,-235.11 515.53,-235.11 524.83,-235.11"/>
<polygon fill="#757575" stroke="#757575" points="524.9,-238.61 534.9,-235.11 524.9,-231.61 524.9,-238.61"/>
</g>
<!-- ../systems/ActionSystem.ts&#45;&gt;../Component.ts -->
<g id="edge41" class="edge">
<title>../systems/ActionSystem.ts&#45;&gt;../Component.ts</title>
<path fill="none" stroke="#757575" d="M926.59,-246.62C988.22,-256.98 1080.26,-272.99 1160,-289.11 1250.68,-307.44 1277.02,-300.97 1363,-335.11 1386.94,-344.62 1411.99,-359.82 1429.82,-371.68"/>
<polygon fill="#757575" stroke="#757575" points="1428.19,-374.81 1438.44,-377.53 1432.13,-369.01 1428.19,-374.81"/>
</g>
<!-- ../systems/ActionSystem.ts&#45;&gt;../Error.ts -->
<g id="edge42" class="edge">
<title>../systems/ActionSystem.ts&#45;&gt;../Error.ts</title>
<path fill="none" stroke="#757575" d="M875.62,-223.51C899.47,-209.55 941.88,-186.32 981,-173.11 1108.55,-130.04 1143.87,-116.11 1278.5,-116.11 1278.5,-116.11 1278.5,-116.11 1605,-116.11 1740.03,-116.11 1818.51,-304.35 1841.41,-368.78"/>
<polygon fill="#757575" stroke="#757575" points="1838.14,-370.03 1844.72,-378.34 1844.75,-367.74 1838.14,-370.03"/>
</g>
<!-- ../systems/ActionSystem.ts&#45;&gt;../System.ts -->
<g id="edge43" class="edge">
<title>../systems/ActionSystem.ts&#45;&gt;../System.ts</title>
<path fill="none" stroke="#757575" d="M881.52,-246.71C906.47,-258.1 946.03,-275.68 981,-289.11 1068.03,-322.54 1171.62,-355.96 1230.76,-374.44"/>
<polygon fill="#757575" stroke="#757575" points="1229.98,-377.86 1240.56,-377.5 1232.06,-371.18 1229.98,-377.86"/>
</g>
<!-- ../systems/ActionSystem.ts&#45;&gt;../systems/LogSystem.ts -->
<g id="edge46" class="edge">
<title>../systems/ActionSystem.ts&#45;&gt;../systems/LogSystem.ts</title>
<path fill="none" stroke="#757575" d="M869.19,-246.66C904.77,-279.07 1005.73,-371.03 1049.19,-410.61"/>
<polygon fill="#757575" stroke="#757575" points="1046.86,-413.22 1056.61,-417.37 1051.57,-408.05 1046.86,-413.22"/>
</g>
<!-- ../functions/Array.ts -->
<g id="node21" class="node">
<title>../functions/Array.ts</title>
<path fill="none" stroke="#cfffac" d="M1128.33,-205.61C1128.33,-205.61 1012.67,-205.61 1012.67,-205.61 1008.83,-205.61 1005,-201.78 1005,-197.94 1005,-197.94 1005,-190.28 1005,-190.28 1005,-186.44 1008.83,-182.61 1012.67,-182.61 1012.67,-182.61 1128.33,-182.61 1128.33,-182.61 1132.17,-182.61 1136,-186.44 1136,-190.28 1136,-190.28 1136,-197.94 1136,-197.94 1136,-201.78 1132.17,-205.61 1128.33,-205.61"/>
<text text-anchor="middle" x="1070.5" y="-190.41" font-family="Arial" font-size="14.00" fill="#cfffac">../functions/Array.ts</text>
</g>
<!-- ../systems/ActionSystem.ts&#45;&gt;../functions/Array.ts -->
<g id="edge44" class="edge">
<title>../systems/ActionSystem.ts&#45;&gt;../functions/Array.ts</title>
<path fill="none" stroke="#757575" d="M916.4,-223.58C942.26,-218.6 972.68,-212.75 999.57,-207.57"/>
<polygon fill="#757575" stroke="#757575" points="1000.52,-210.95 1009.68,-205.62 999.2,-204.08 1000.52,-210.95"/>
</g>
<!-- ../functions/Set.ts -->
<g id="node22" class="node">
<title>../functions/Set.ts</title>
<path fill="none" stroke="#cfffac" d="M1122.83,-246.61C1122.83,-246.61 1018.17,-246.61 1018.17,-246.61 1014.33,-246.61 1010.5,-242.78 1010.5,-238.94 1010.5,-238.94 1010.5,-231.28 1010.5,-231.28 1010.5,-227.44 1014.33,-223.61 1018.17,-223.61 1018.17,-223.61 1122.83,-223.61 1122.83,-223.61 1126.67,-223.61 1130.5,-227.44 1130.5,-231.28 1130.5,-231.28 1130.5,-238.94 1130.5,-238.94 1130.5,-242.78 1126.67,-246.61 1122.83,-246.61"/>
<text text-anchor="middle" x="1070.5" y="-231.41" font-family="Arial" font-size="14.00" fill="#cfffac">../functions/Set.ts</text>
</g>
<!-- ../systems/ActionSystem.ts&#45;&gt;../functions/Set.ts -->
<g id="edge45" class="edge">
<title>../systems/ActionSystem.ts&#45;&gt;../functions/Set.ts</title>
<path fill="none" stroke="#757575" d="M945.29,-235.11C963.61,-235.11 982.65,-235.11 1000.16,-235.11"/>
<polygon fill="#757575" stroke="#757575" points="1000.27,-238.61 1010.27,-235.11 1000.27,-231.61 1000.27,-238.61"/>
</g>
<!-- ../systems/BehaviorSystem.ts&#45;&gt;../Component.ts -->
<g id="edge47" class="edge">
<title>../systems/BehaviorSystem.ts&#45;&gt;../Component.ts</title>
<path fill="none" stroke="#757575" d="M703.39,-246.61C833.57,-268.32 1121.85,-317.67 1363,-368.11 1373.63,-370.33 1384.92,-372.82 1395.81,-375.28"/>
<polygon fill="#757575" stroke="#757575" points="1395.14,-378.72 1405.67,-377.53 1396.69,-371.9 1395.14,-378.72"/>
</g>
<!-- ../systems/BehaviorSystem.ts&#45;&gt;../units/convert.ts -->
<g id="edge51" class="edge">
<title>../systems/BehaviorSystem.ts&#45;&gt;../units/convert.ts</title>
<path fill="none" stroke="#757575" d="M651.92,-246.74C671.55,-259.27 703.39,-279.98 730,-299.11 746.46,-310.94 749.79,-314.95 766,-327.11 787.38,-343.15 812.04,-360.92 829.89,-373.66"/>
<polygon fill="#757575" stroke="#757575" points="827.89,-376.53 838.06,-379.48 831.95,-370.83 827.89,-376.53"/>
</g>
<!-- ../systems/BehaviorSystem.ts&#45;&gt;../Matrix.ts -->
<g id="edge48" class="edge">
<title>../systems/BehaviorSystem.ts&#45;&gt;../Matrix.ts</title>
<path fill="none" stroke="#757575" d="M656.33,-223.49C710.8,-196.4 853.38,-129.34 981,-102.11 1133.03,-69.67 1318.4,-70.94 1405.21,-73.84"/>
<polygon fill="#757575" stroke="#757575" points="1405.18,-77.34 1415.29,-74.2 1405.43,-70.35 1405.18,-77.34"/>
</g>
<!-- ../systems/BehaviorSystem.ts&#45;&gt;../System.ts -->
<g id="edge49" class="edge">
<title>../systems/BehaviorSystem.ts&#45;&gt;../System.ts</title>
<path fill="none" stroke="#757575" d="M691.27,-246.66C704.37,-250.37 717.96,-255.11 730,-261.11 748.14,-270.15 747.85,-280.08 766,-289.11 839.75,-325.79 871.25,-300.43 945,-337.11 963.15,-346.14 962.11,-357.77 981,-365.11 1061.81,-396.52 1164.07,-397.13 1225.23,-393.77"/>
<polygon fill="#757575" stroke="#757575" points="1225.64,-397.26 1235.41,-393.16 1225.22,-390.27 1225.64,-397.26"/>
</g>
<!-- ../systems/BehaviorSystem.ts&#45;&gt;../systems/ActionSystem.ts -->
<g id="edge50" class="edge">
<title>../systems/BehaviorSystem.ts&#45;&gt;../systems/ActionSystem.ts</title>
<path fill="none" stroke="#757575" d="M730.11,-235.11C738.53,-235.11 747.07,-235.11 755.51,-235.11"/>
<polygon fill="#757575" stroke="#757575" points="755.75,-238.61 765.75,-235.11 755.75,-231.61 755.75,-238.61"/>
</g>
<!-- ../systems/LogSystem.ts&#45;&gt;../Observable.ts -->
<g id="edge52" class="edge">
<title>../systems/LogSystem.ts&#45;&gt;../Observable.ts</title>
<path fill="none" stroke="#757575" d="M1152.51,-432.01C1257.94,-435.77 1440.13,-442.29 1537.38,-445.76"/>
<polygon fill="#757575" stroke="#757575" points="1537.54,-449.27 1547.66,-446.13 1537.79,-442.28 1537.54,-449.27"/>
</g>
<!-- ../systems/LogSystem.ts&#45;&gt;../System.ts -->
<g id="edge53" class="edge">
<title>../systems/LogSystem.ts&#45;&gt;../System.ts</title>
<path fill="none" stroke="#757575" d="M1131.1,-417.59C1160.9,-411.83 1196.68,-404.92 1225.52,-399.35"/>
<polygon fill="#757575" stroke="#757575" points="1226.25,-402.77 1235.41,-397.44 1224.92,-395.9 1226.25,-402.77"/>
</g>
<!-- auth.ts -->
<g id="node23" class="node">
<title>auth.ts</title>
<path fill="none" stroke="#c6c5fe" d="M148.33,-272.61C148.33,-272.61 106.67,-272.61 106.67,-272.61 102.83,-272.61 99,-268.78 99,-264.94 99,-264.94 99,-257.28 99,-257.28 99,-253.44 102.83,-249.61 106.67,-249.61 106.67,-249.61 148.33,-249.61 148.33,-249.61 152.17,-249.61 156,-253.44 156,-257.28 156,-257.28 156,-264.94 156,-264.94 156,-268.78 152.17,-272.61 148.33,-272.61"/>
<text text-anchor="middle" x="127.5" y="-257.41" font-family="Arial" font-size="14.00" fill="#c6c5fe">auth.ts</text>
</g>
<!-- auth.ts&#45;&gt;../Error.ts -->
<g id="edge54" class="edge">
<title>auth.ts&#45;&gt;../Error.ts</title>
<path fill="none" stroke="#757575" d="M133.83,-249.56C158.03,-199.05 262.83,-0.11 412.5,-0.11 412.5,-0.11 412.5,-0.11 1605,-0.11 1686.24,-0.11 1724.07,1.64 1778,-59.11 1819.39,-105.73 1840.61,-302.53 1846.65,-368.47"/>
<polygon fill="#757575" stroke="#757575" points="1843.18,-368.9 1847.55,-378.55 1850.15,-368.28 1843.18,-368.9"/>
</g>
<!-- auth.ts&#45;&gt;../constants.ts -->
<g id="edge55" class="edge">
<title>auth.ts&#45;&gt;../constants.ts</title>
<path fill="none" stroke="#757575" d="M156.02,-266C163.87,-267.4 172.73,-268.97 181.7,-270.57"/>
<polygon fill="#757575" stroke="#757575" points="181.36,-274.06 191.82,-272.37 182.59,-267.17 181.36,-274.06"/>
</g>
<!-- entity.ts -->
<g id="node24" class="node">
<title>entity.ts</title>
<path fill="none" stroke="#c6c5fe" d="M878.83,-634.61C878.83,-634.61 832.17,-634.61 832.17,-634.61 828.33,-634.61 824.5,-630.78 824.5,-626.94 824.5,-626.94 824.5,-619.28 824.5,-619.28 824.5,-615.44 828.33,-611.61 832.17,-611.61 832.17,-611.61 878.83,-611.61 878.83,-611.61 882.67,-611.61 886.5,-615.44 886.5,-619.28 886.5,-619.28 886.5,-626.94 886.5,-626.94 886.5,-630.78 882.67,-634.61 878.83,-634.61"/>
<text text-anchor="middle" x="855.5" y="-619.41" font-family="Arial" font-size="14.00" fill="#c6c5fe">entity.ts</text>
</g>
<!-- entity.ts&#45;&gt;../Error.ts -->
<g id="edge57" class="edge">
<title>entity.ts&#45;&gt;../Error.ts</title>
<path fill="none" stroke="#757575" d="M869.93,-634.86C891.61,-653.11 936.43,-687.83 981,-704.11 1106.15,-749.83 1145.26,-741.11 1278.5,-741.11 1278.5,-741.11 1278.5,-741.11 1605,-741.11 1766.17,-741.11 1829.18,-488.18 1844.54,-411.74"/>
<polygon fill="#757575" stroke="#757575" points="1848,-412.27 1846.47,-401.79 1841.13,-410.94 1848,-412.27"/>
</g>
<!-- entity.ts&#45;&gt;../Observable.ts -->
<g id="edge59" class="edge">
<title>entity.ts&#45;&gt;../Observable.ts</title>
<path fill="none" stroke="#757575" d="M881.92,-634.66C958.11,-667.56 1190.05,-754.9 1363,-684.11 1472.77,-639.18 1559.34,-517.14 1590.5,-468.51"/>
<polygon fill="#757575" stroke="#757575" points="1593.62,-470.14 1595.98,-459.81 1587.69,-466.4 1593.62,-470.14"/>
</g>
<!-- entity.ts&#45;&gt;../EntityManager.ts -->
<g id="edge56" class="edge">
<title>entity.ts&#45;&gt;../EntityManager.ts</title>
<path fill="none" stroke="#757575" d="M886.7,-618.14C904.55,-614.27 927.1,-607.73 945,-597.11 964.46,-585.56 962.57,-574.24 981,-561.11 995.98,-550.44 1014.01,-541.14 1029.88,-533.95"/>
<polygon fill="#757575" stroke="#757575" points="1031.69,-536.97 1039.43,-529.74 1028.87,-530.57 1031.69,-536.97"/>
</g>
<!-- entity.ts&#45;&gt;../NetworkedEntityServer.ts -->
<g id="edge58" class="edge">
<title>entity.ts&#45;&gt;../NetworkedEntityServer.ts</title>
<path fill="none" stroke="#757575" d="M886.57,-623.11C908.61,-623.11 939.9,-623.11 970.38,-623.11"/>
<polygon fill="#757575" stroke="#757575" points="970.67,-626.61 980.67,-623.11 970.67,-619.61 970.67,-626.61"/>
</g>
<!-- entity.ts&#45;&gt;../functions/Networking.ts -->
<g id="edge60" class="edge">
<title>entity.ts&#45;&gt;../functions/Networking.ts</title>
<path fill="none" stroke="#757575" d="M886.51,-617.56C952.55,-605.36 1112.05,-575.88 1205.98,-558.51"/>
<polygon fill="#757575" stroke="#757575" points="1206.78,-561.93 1215.98,-556.67 1205.51,-555.04 1206.78,-561.93"/>
</g>
<!-- entity.ts&#45;&gt;../util.ts -->
<g id="edge61" class="edge">
<title>entity.ts&#45;&gt;../util.ts</title>
<path fill="none" stroke="#757575" d="M886.56,-629.08C911.7,-633.85 948.56,-640.35 981,-644.11 1073.44,-654.83 1182.79,-659.86 1239.69,-661.91"/>
<polygon fill="#757575" stroke="#757575" points="1239.58,-665.41 1249.69,-662.26 1239.82,-658.41 1239.58,-665.41"/>
</g>
<!-- index.ts -->
<g id="node25" class="node">
<title>index.ts</title>
<path fill="none" stroke="#c6c5fe" d="M55.33,-312.61C55.33,-312.61 7.67,-312.61 7.67,-312.61 3.83,-312.61 0,-308.78 0,-304.94 0,-304.94 0,-297.28 0,-297.28 0,-293.44 3.83,-289.61 7.67,-289.61 7.67,-289.61 55.33,-289.61 55.33,-289.61 59.17,-289.61 63,-293.44 63,-297.28 63,-297.28 63,-304.94 63,-304.94 63,-308.78 59.17,-312.61 55.33,-312.61"/>
<text text-anchor="middle" x="31.5" y="-297.41" font-family="Arial" font-size="14.00" fill="#c6c5fe">index.ts</text>
</g>
<!-- index.ts&#45;&gt;../constants.ts -->
<g id="edge62" class="edge">
<title>index.ts&#45;&gt;../constants.ts</title>
<path fill="none" stroke="#757575" d="M63.26,-298.16C94.36,-295.18 143.19,-290.49 181.81,-286.79"/>
<polygon fill="#757575" stroke="#757575" points="182.28,-290.26 191.9,-285.82 181.61,-283.29 182.28,-290.26"/>
</g>
<!-- index.ts&#45;&gt;auth.ts -->
<g id="edge63" class="edge">
<title>index.ts&#45;&gt;auth.ts</title>
<path fill="none" stroke="#757575" d="M59.69,-289.54C69.14,-285.52 79.9,-280.94 89.98,-276.65"/>
<polygon fill="#757575" stroke="#757575" points="91.54,-279.79 99.37,-272.65 88.8,-273.35 91.54,-279.79"/>
</g>
<!-- index.ts&#45;&gt;entity.ts -->
<g id="edge64" class="edge">
<title>index.ts&#45;&gt;entity.ts</title>
<path fill="none" stroke="#757575" d="M34.17,-312.91C43.09,-370.83 90.48,-622.11 241,-622.11 241,-622.11 241,-622.11 414.5,-622.11 561.69,-622.11 736.58,-622.68 814.08,-622.96"/>
<polygon fill="#757575" stroke="#757575" points="814.35,-626.46 824.36,-622.99 814.37,-619.46 814.35,-626.46"/>
</g>
</g>
</svg>
