<?xml version="1.0" encoding="UTF-8" standalone="no"?>
<!DOCTYPE svg PUBLIC "-//W3C//DTD SVG 1.1//EN"
 "http://www.w3.org/Graphics/SVG/1.1/DTD/svg11.dtd">
<!-- Generated by graphviz version 2.43.0 (0)
 -->
<!-- Title: G Pages: 1 -->
<svg width="1502pt" height="827pt"
 viewBox="0.00 0.00 1502.20 826.67" xmlns="http://www.w3.org/2000/svg" xmlns:xlink="http://www.w3.org/1999/xlink">
<g id="graph0" class="graph" transform="scale(1 1) rotate(0) translate(21.6 805.07)">
<title>G</title>
<polygon fill="#111111" stroke="transparent" points="-21.6,21.6 -21.6,-805.07 1480.6,-805.07 1480.6,21.6 -21.6,21.6"/>
<!-- ../Component.ts -->
<g id="node1" class="node">
<title>../Component.ts</title>
<path fill="none" stroke="#c6c5fe" d="M1041.33,-313.47C1041.33,-313.47 943.67,-313.47 943.67,-313.47 939.83,-313.47 936,-309.63 936,-305.8 936,-305.8 936,-298.13 936,-298.13 936,-294.3 939.83,-290.47 943.67,-290.47 943.67,-290.47 1041.33,-290.47 1041.33,-290.47 1045.17,-290.47 1049,-294.3 1049,-298.13 1049,-298.13 1049,-305.8 1049,-305.8 1049,-309.63 1045.17,-313.47 1041.33,-313.47"/>
<text text-anchor="middle" x="992.5" y="-298.27" font-family="Arial" font-size="14.00" fill="#c6c5fe">../Component.ts</text>
</g>
<!-- ../Debug.ts -->
<g id="node2" class="node">
<title>../Debug.ts</title>
<path fill="none" stroke="#c6c5fe" d="M1344.33,-352.47C1344.33,-352.47 1277.67,-352.47 1277.67,-352.47 1273.83,-352.47 1270,-348.63 1270,-344.8 1270,-344.8 1270,-337.13 1270,-337.13 1270,-333.3 1273.83,-329.47 1277.67,-329.47 1277.67,-329.47 1344.33,-329.47 1344.33,-329.47 1348.17,-329.47 1352,-333.3 1352,-337.13 1352,-337.13 1352,-344.8 1352,-344.8 1352,-348.63 1348.17,-352.47 1344.33,-352.47"/>
<text text-anchor="middle" x="1311" y="-337.27" font-family="Arial" font-size="14.00" fill="#c6c5fe">../Debug.ts</text>
</g>
<!-- ../Component.ts&#45;&gt;../Debug.ts -->
<g id="edge1" class="edge">
<title>../Component.ts&#45;&gt;../Debug.ts</title>
<path fill="none" stroke="#757575" d="M1049.36,-308.85C1108.83,-316.18 1202.12,-327.68 1259.47,-334.74"/>
<polygon fill="#757575" stroke="#757575" points="1259.4,-338.26 1269.75,-336.01 1260.25,-331.31 1259.4,-338.26"/>
</g>
<!-- ../Entity.ts -->
<g id="node3" class="node">
<title>../Entity.ts</title>
<path fill="none" stroke="#cfffac" d="M1207.83,-233.47C1207.83,-233.47 1148.17,-233.47 1148.17,-233.47 1144.33,-233.47 1140.5,-229.63 1140.5,-225.8 1140.5,-225.8 1140.5,-218.13 1140.5,-218.13 1140.5,-214.3 1144.33,-210.47 1148.17,-210.47 1148.17,-210.47 1207.83,-210.47 1207.83,-210.47 1211.67,-210.47 1215.5,-214.3 1215.5,-218.13 1215.5,-218.13 1215.5,-225.8 1215.5,-225.8 1215.5,-229.63 1211.67,-233.47 1207.83,-233.47"/>
<text text-anchor="middle" x="1178" y="-218.27" font-family="Arial" font-size="14.00" fill="#cfffac">../Entity.ts</text>
</g>
<!-- ../Component.ts&#45;&gt;../Entity.ts -->
<g id="edge2" class="edge">
<title>../Component.ts&#45;&gt;../Entity.ts</title>
<path fill="none" stroke="#757575" d="M1020.18,-290.34C1052.07,-276.43 1105.57,-253.11 1141.08,-237.63"/>
<polygon fill="#757575" stroke="#757575" points="1142.82,-240.69 1150.58,-233.49 1140.02,-234.27 1142.82,-240.69"/>
</g>
<!-- ../Error.ts -->
<g id="node4" class="node">
<title>../Error.ts</title>
<path fill="none" stroke="#cfffac" d="M1451.33,-312.47C1451.33,-312.47 1395.67,-312.47 1395.67,-312.47 1391.83,-312.47 1388,-308.63 1388,-304.8 1388,-304.8 1388,-297.13 1388,-297.13 1388,-293.3 1391.83,-289.47 1395.67,-289.47 1395.67,-289.47 1451.33,-289.47 1451.33,-289.47 1455.17,-289.47 1459,-293.3 1459,-297.13 1459,-297.13 1459,-304.8 1459,-304.8 1459,-308.63 1455.17,-312.47 1451.33,-312.47"/>
<text text-anchor="middle" x="1423.5" y="-297.27" font-family="Arial" font-size="14.00" fill="#cfffac">../Error.ts</text>
</g>
<!-- ../Component.ts&#45;&gt;../Error.ts -->
<g id="edge3" class="edge">
<title>../Component.ts&#45;&gt;../Error.ts</title>
<path fill="none" stroke="#757575" d="M1049.14,-301.84C1135.17,-301.64 1298.76,-301.26 1377.69,-301.07"/>
<polygon fill="#757575" stroke="#757575" points="1377.8,-304.57 1387.8,-301.05 1377.79,-297.57 1377.8,-304.57"/>
</g>
<!-- ../Observable.ts -->
<g id="node5" class="node">
<title>../Observable.ts</title>
<path fill="none" stroke="#c6c5fe" d="M1226.33,-391.47C1226.33,-391.47 1129.67,-391.47 1129.67,-391.47 1125.83,-391.47 1122,-387.63 1122,-383.8 1122,-383.8 1122,-376.13 1122,-376.13 1122,-372.3 1125.83,-368.47 1129.67,-368.47 1129.67,-368.47 1226.33,-368.47 1226.33,-368.47 1230.17,-368.47 1234,-372.3 1234,-376.13 1234,-376.13 1234,-383.8 1234,-383.8 1234,-387.63 1230.17,-391.47 1226.33,-391.47"/>
<text text-anchor="middle" x="1178" y="-376.27" font-family="Arial" font-size="14.00" fill="#c6c5fe">../Observable.ts</text>
</g>
<!-- ../Component.ts&#45;&gt;../Observable.ts -->
<g id="edge4" class="edge">
<title>../Component.ts&#45;&gt;../Observable.ts</title>
<path fill="none" stroke="#757575" d="M1047.02,-313.57C1060.1,-317.33 1073.83,-322.09 1086,-327.97 1103.77,-336.55 1105.01,-343.93 1122,-353.97 1127.93,-357.47 1134.4,-360.87 1140.76,-364"/>
<polygon fill="#757575" stroke="#757575" points="1139.38,-367.22 1149.91,-368.37 1142.39,-360.9 1139.38,-367.22"/>
</g>
<!-- ../Debug.ts&#45;&gt;../Error.ts -->
<g id="edge5" class="edge">
<title>../Debug.ts&#45;&gt;../Error.ts</title>
<path fill="none" stroke="#757575" d="M1343.96,-329.4C1355.53,-325.21 1368.76,-320.42 1381.03,-315.98"/>
<polygon fill="#757575" stroke="#757575" points="1382.4,-319.21 1390.61,-312.51 1380.02,-312.62 1382.4,-319.21"/>
</g>
<!-- ../Observable.ts&#45;&gt;../Debug.ts -->
<g id="edge21" class="edge">
<title>../Observable.ts&#45;&gt;../Debug.ts</title>
<path fill="none" stroke="#757575" d="M1217.95,-368.37C1231.55,-364.32 1247,-359.72 1261.3,-355.47"/>
<polygon fill="#757575" stroke="#757575" points="1262.39,-358.79 1270.97,-352.59 1260.39,-352.09 1262.39,-358.79"/>
</g>
<!-- ../EntityManager.ts -->
<g id="node6" class="node">
<title>../EntityManager.ts</title>
<path fill="none" stroke="#c6c5fe" d="M855.33,-313.47C855.33,-313.47 741.67,-313.47 741.67,-313.47 737.83,-313.47 734,-309.63 734,-305.8 734,-305.8 734,-298.13 734,-298.13 734,-294.3 737.83,-290.47 741.67,-290.47 741.67,-290.47 855.33,-290.47 855.33,-290.47 859.17,-290.47 863,-294.3 863,-298.13 863,-298.13 863,-305.8 863,-305.8 863,-309.63 859.17,-313.47 855.33,-313.47"/>
<text text-anchor="middle" x="798.5" y="-298.27" font-family="Arial" font-size="14.00" fill="#c6c5fe">../EntityManager.ts</text>
</g>
<!-- ../EntityManager.ts&#45;&gt;../Component.ts -->
<g id="edge6" class="edge">
<title>../EntityManager.ts&#45;&gt;../Component.ts</title>
<path fill="none" stroke="#757575" d="M863.17,-301.97C883.24,-301.97 905.46,-301.97 925.68,-301.97"/>
<polygon fill="#757575" stroke="#757575" points="925.74,-305.47 935.74,-301.97 925.74,-298.47 925.74,-305.47"/>
</g>
<!-- ../EntityManager.ts&#45;&gt;../Entity.ts -->
<g id="edge7" class="edge">
<title>../EntityManager.ts&#45;&gt;../Entity.ts</title>
<path fill="none" stroke="#757575" d="M815.83,-290.39C834.82,-277.59 867.6,-257.52 899,-247.97 977.59,-224.07 1073.94,-220.42 1130.11,-220.68"/>
<polygon fill="#757575" stroke="#757575" points="1130.08,-224.18 1140.12,-220.77 1130.15,-217.18 1130.08,-224.18"/>
</g>
<!-- ../EntityManager.ts&#45;&gt;../Error.ts -->
<g id="edge8" class="edge">
<title>../EntityManager.ts&#45;&gt;../Error.ts</title>
<path fill="none" stroke="#757575" d="M844.26,-290.45C861.27,-286.62 880.91,-282.86 899,-280.97 1075.42,-262.55 1286.87,-283.8 1377.58,-294.97"/>
<polygon fill="#757575" stroke="#757575" points="1377.42,-298.48 1387.78,-296.25 1378.29,-291.53 1377.42,-298.48"/>
</g>
<!-- ../EntityManager.ts&#45;&gt;../Observable.ts -->
<g id="edge9" class="edge">
<title>../EntityManager.ts&#45;&gt;../Observable.ts</title>
<path fill="none" stroke="#757575" d="M853.71,-313.47C868.4,-316.57 884.31,-319.91 899,-322.97 971.92,-338.14 1055.66,-355.27 1112.01,-366.75"/>
<polygon fill="#757575" stroke="#757575" points="1111.36,-370.19 1121.86,-368.76 1112.76,-363.33 1111.36,-370.19"/>
</g>
<!-- ../EntityPrefab.ts -->
<g id="node7" class="node">
<title>../EntityPrefab.ts</title>
<path fill="none" stroke="#c6c5fe" d="M675.33,-351.47C675.33,-351.47 574.67,-351.47 574.67,-351.47 570.83,-351.47 567,-347.63 567,-343.8 567,-343.8 567,-336.13 567,-336.13 567,-332.3 570.83,-328.47 574.67,-328.47 574.67,-328.47 675.33,-328.47 675.33,-328.47 679.17,-328.47 683,-332.3 683,-336.13 683,-336.13 683,-343.8 683,-343.8 683,-347.63 679.17,-351.47 675.33,-351.47"/>
<text text-anchor="middle" x="625" y="-336.27" font-family="Arial" font-size="14.00" fill="#c6c5fe">../EntityPrefab.ts</text>
</g>
<!-- ../EntityPrefab.ts&#45;&gt;../Entity.ts -->
<g id="edge10" class="edge">
<title>../EntityPrefab.ts&#45;&gt;../Entity.ts</title>
<path fill="none" stroke="#757575" d="M666.9,-328.36C677.41,-324.53 688.45,-319.75 698,-313.97 716.57,-302.73 715.53,-292.37 734,-280.97 800.78,-239.72 821.8,-232.2 899,-217.97 979.05,-203.21 1074.26,-209.63 1129.93,-215.73"/>
<polygon fill="#757575" stroke="#757575" points="1129.86,-219.24 1140.19,-216.9 1130.65,-212.29 1129.86,-219.24"/>
</g>
<!-- ../EntityPrefab.ts&#45;&gt;../EntityManager.ts -->
<g id="edge11" class="edge">
<title>../EntityPrefab.ts&#45;&gt;../EntityManager.ts</title>
<path fill="none" stroke="#757575" d="M677.92,-328.46C696.06,-324.45 716.59,-319.89 735.47,-315.71"/>
<polygon fill="#757575" stroke="#757575" points="736.45,-319.08 745.46,-313.5 734.94,-312.25 736.45,-319.08"/>
</g>
<!-- ../HeadingDirection.ts -->
<g id="node8" class="node">
<title>../HeadingDirection.ts</title>
<path fill="none" stroke="#c6c5fe" d="M690.33,-549.47C690.33,-549.47 559.67,-549.47 559.67,-549.47 555.83,-549.47 552,-545.63 552,-541.8 552,-541.8 552,-534.13 552,-534.13 552,-530.3 555.83,-526.47 559.67,-526.47 559.67,-526.47 690.33,-526.47 690.33,-526.47 694.17,-526.47 698,-530.3 698,-534.13 698,-534.13 698,-541.8 698,-541.8 698,-545.63 694.17,-549.47 690.33,-549.47"/>
<text text-anchor="middle" x="625" y="-534.27" font-family="Arial" font-size="14.00" fill="#c6c5fe">../HeadingDirection.ts</text>
</g>
<!-- ../HeadingDirection.ts&#45;&gt;../Error.ts -->
<g id="edge12" class="edge">
<title>../HeadingDirection.ts&#45;&gt;../Error.ts</title>
<path fill="none" stroke="#757575" d="M698.15,-536.87C745.41,-535.08 808.33,-530.66 863,-519.97 1087.15,-476.14 1153.37,-474.71 1352,-361.97 1371.77,-350.75 1391.06,-333.48 1404.46,-320.18"/>
<polygon fill="#757575" stroke="#757575" points="1407.11,-322.47 1411.62,-312.88 1402.12,-317.57 1407.11,-322.47"/>
</g>
<!-- ../Three.ts -->
<g id="node9" class="node">
<title>../Three.ts</title>
<path fill="none" stroke="#cfffac" d="M829.33,-510.47C829.33,-510.47 767.67,-510.47 767.67,-510.47 763.83,-510.47 760,-506.63 760,-502.8 760,-502.8 760,-495.13 760,-495.13 760,-491.3 763.83,-487.47 767.67,-487.47 767.67,-487.47 829.33,-487.47 829.33,-487.47 833.17,-487.47 837,-491.3 837,-495.13 837,-495.13 837,-502.8 837,-502.8 837,-506.63 833.17,-510.47 829.33,-510.47"/>
<text text-anchor="middle" x="798.5" y="-495.27" font-family="Arial" font-size="14.00" fill="#cfffac">../Three.ts</text>
</g>
<!-- ../HeadingDirection.ts&#45;&gt;../Three.ts -->
<g id="edge13" class="edge">
<title>../HeadingDirection.ts&#45;&gt;../Three.ts</title>
<path fill="none" stroke="#757575" d="M676.99,-526.37C700.13,-521.11 727.33,-514.93 750.03,-509.76"/>
<polygon fill="#757575" stroke="#757575" points="750.8,-513.18 759.78,-507.55 749.25,-506.35 750.8,-513.18"/>
</g>
<!-- ../units/convert.ts -->
<g id="node10" class="node">
<title>../units/convert.ts</title>
<path fill="none" stroke="#cfffac" d="M850.33,-469.47C850.33,-469.47 746.67,-469.47 746.67,-469.47 742.83,-469.47 739,-465.63 739,-461.8 739,-461.8 739,-454.13 739,-454.13 739,-450.3 742.83,-446.47 746.67,-446.47 746.67,-446.47 850.33,-446.47 850.33,-446.47 854.17,-446.47 858,-450.3 858,-454.13 858,-454.13 858,-461.8 858,-461.8 858,-465.63 854.17,-469.47 850.33,-469.47"/>
<text text-anchor="middle" x="798.5" y="-454.27" font-family="Arial" font-size="14.00" fill="#cfffac">../units/convert.ts</text>
</g>
<!-- ../HeadingDirection.ts&#45;&gt;../units/convert.ts -->
<g id="edge14" class="edge">
<title>../HeadingDirection.ts&#45;&gt;../units/convert.ts</title>
<path fill="none" stroke="#757575" d="M644.6,-526.46C665.72,-513.71 701.47,-493.1 734,-478.97 738.8,-476.88 743.88,-474.88 749,-473"/>
<polygon fill="#757575" stroke="#757575" points="750.54,-476.16 758.8,-469.53 748.21,-469.56 750.54,-476.16"/>
</g>
<!-- ../Input.ts -->
<g id="node11" class="node">
<title>../Input.ts</title>
<path fill="none" stroke="#cfffac" d="M653.33,-469.47C653.33,-469.47 596.67,-469.47 596.67,-469.47 592.83,-469.47 589,-465.63 589,-461.8 589,-461.8 589,-454.13 589,-454.13 589,-450.3 592.83,-446.47 596.67,-446.47 596.67,-446.47 653.33,-446.47 653.33,-446.47 657.17,-446.47 661,-450.3 661,-454.13 661,-454.13 661,-461.8 661,-461.8 661,-465.63 657.17,-469.47 653.33,-469.47"/>
<text text-anchor="middle" x="625" y="-454.27" font-family="Arial" font-size="14.00" fill="#cfffac">../Input.ts</text>
</g>
<!-- ../Log.ts -->
<g id="node12" class="node">
<title>../Log.ts</title>
<path fill="none" stroke="#c6c5fe" d="M823.33,-629.47C823.33,-629.47 773.67,-629.47 773.67,-629.47 769.83,-629.47 766,-625.63 766,-621.8 766,-621.8 766,-614.13 766,-614.13 766,-610.3 769.83,-606.47 773.67,-606.47 773.67,-606.47 823.33,-606.47 823.33,-606.47 827.17,-606.47 831,-610.3 831,-614.13 831,-614.13 831,-621.8 831,-621.8 831,-625.63 827.17,-629.47 823.33,-629.47"/>
<text text-anchor="middle" x="798.5" y="-614.27" font-family="Arial" font-size="14.00" fill="#c6c5fe">../Log.ts</text>
</g>
<!-- ../Log.ts&#45;&gt;../Error.ts -->
<g id="edge15" class="edge">
<title>../Log.ts&#45;&gt;../Error.ts</title>
<path fill="none" stroke="#757575" d="M813.92,-629.51C832.37,-643.46 865.91,-666.16 899,-674.97 979.32,-696.34 1006.13,-697.96 1086,-674.97 1220.14,-636.35 1265.4,-617.45 1352,-507.97 1397.21,-450.81 1414.26,-362.99 1419.96,-322.62"/>
<polygon fill="#757575" stroke="#757575" points="1423.45,-322.93 1421.28,-312.56 1416.51,-322.02 1423.45,-322.93"/>
</g>
<!-- ../Log.ts&#45;&gt;../Observable.ts -->
<g id="edge16" class="edge">
<title>../Log.ts&#45;&gt;../Observable.ts</title>
<path fill="none" stroke="#757575" d="M831.3,-608.16C841.91,-604.07 853.45,-598.69 863,-591.97 882.56,-578.2 879.61,-565.97 899,-551.97 972.56,-498.82 1010.92,-520.95 1086,-469.97 1115.76,-449.76 1144.27,-419.12 1161.21,-399.33"/>
<polygon fill="#757575" stroke="#757575" points="1163.98,-401.47 1167.73,-391.57 1158.62,-396.97 1163.98,-401.47"/>
</g>
<!-- ../collections/InstanceMap.ts -->
<g id="node13" class="node">
<title>../collections/InstanceMap.ts</title>
<path fill="none" stroke="#cfffac" d="M1078.33,-783.47C1078.33,-783.47 906.67,-783.47 906.67,-783.47 902.83,-783.47 899,-779.63 899,-775.8 899,-775.8 899,-768.13 899,-768.13 899,-764.3 902.83,-760.47 906.67,-760.47 906.67,-760.47 1078.33,-760.47 1078.33,-760.47 1082.17,-760.47 1086,-764.3 1086,-768.13 1086,-768.13 1086,-775.8 1086,-775.8 1086,-779.63 1082.17,-783.47 1078.33,-783.47"/>
<text text-anchor="middle" x="992.5" y="-768.27" font-family="Arial" font-size="14.00" fill="#cfffac">../collections/InstanceMap.ts</text>
</g>
<!-- ../Log.ts&#45;&gt;../collections/InstanceMap.ts -->
<g id="edge17" class="edge">
<title>../Log.ts&#45;&gt;../collections/InstanceMap.ts</title>
<path fill="none" stroke="#757575" d="M811.31,-629.58C829.5,-647.25 865.78,-681.63 899,-707.97 920.4,-724.93 946.03,-742.46 964.87,-754.88"/>
<polygon fill="#757575" stroke="#757575" points="962.99,-757.83 973.27,-760.37 966.82,-751.97 962.99,-757.83"/>
</g>
<!-- ../functions/Array.ts -->
<g id="node14" class="node">
<title>../functions/Array.ts</title>
<path fill="none" stroke="#cfffac" d="M1050.33,-583.47C1050.33,-583.47 934.67,-583.47 934.67,-583.47 930.83,-583.47 927,-579.63 927,-575.8 927,-575.8 927,-568.13 927,-568.13 927,-564.3 930.83,-560.47 934.67,-560.47 934.67,-560.47 1050.33,-560.47 1050.33,-560.47 1054.17,-560.47 1058,-564.3 1058,-568.13 1058,-568.13 1058,-575.8 1058,-575.8 1058,-579.63 1054.17,-583.47 1050.33,-583.47"/>
<text text-anchor="middle" x="992.5" y="-568.27" font-family="Arial" font-size="14.00" fill="#cfffac">../functions/Array.ts</text>
</g>
<!-- ../Log.ts&#45;&gt;../functions/Array.ts -->
<g id="edge18" class="edge">
<title>../Log.ts&#45;&gt;../functions/Array.ts</title>
<path fill="none" stroke="#757575" d="M831.27,-609.79C850.78,-604.81 876.31,-598.39 899,-592.97 908.95,-590.59 919.52,-588.13 929.83,-585.76"/>
<polygon fill="#757575" stroke="#757575" points="930.62,-589.17 939.59,-583.53 929.07,-582.35 930.62,-589.17"/>
</g>
<!-- ../functions/Map.ts -->
<g id="node15" class="node">
<title>../functions/Map.ts</title>
<path fill="none" stroke="#cfffac" d="M1048.33,-665.47C1048.33,-665.47 936.67,-665.47 936.67,-665.47 932.83,-665.47 929,-661.63 929,-657.8 929,-657.8 929,-650.13 929,-650.13 929,-646.3 932.83,-642.47 936.67,-642.47 936.67,-642.47 1048.33,-642.47 1048.33,-642.47 1052.17,-642.47 1056,-646.3 1056,-650.13 1056,-650.13 1056,-657.8 1056,-657.8 1056,-661.63 1052.17,-665.47 1048.33,-665.47"/>
<text text-anchor="middle" x="992.5" y="-650.27" font-family="Arial" font-size="14.00" fill="#cfffac">../functions/Map.ts</text>
</g>
<!-- ../Log.ts&#45;&gt;../functions/Map.ts -->
<g id="edge19" class="edge">
<title>../Log.ts&#45;&gt;../functions/Map.ts</title>
<path fill="none" stroke="#757575" d="M831.2,-623.91C855.22,-628.42 889.18,-634.78 919.66,-640.5"/>
<polygon fill="#757575" stroke="#757575" points="919.37,-644.01 929.85,-642.41 920.66,-637.13 919.37,-644.01"/>
</g>
<!-- ../functions/Set.ts -->
<g id="node16" class="node">
<title>../functions/Set.ts</title>
<path fill="none" stroke="#cfffac" d="M1044.83,-624.47C1044.83,-624.47 940.17,-624.47 940.17,-624.47 936.33,-624.47 932.5,-620.63 932.5,-616.8 932.5,-616.8 932.5,-609.13 932.5,-609.13 932.5,-605.3 936.33,-601.47 940.17,-601.47 940.17,-601.47 1044.83,-601.47 1044.83,-601.47 1048.67,-601.47 1052.5,-605.3 1052.5,-609.13 1052.5,-609.13 1052.5,-616.8 1052.5,-616.8 1052.5,-620.63 1048.67,-624.47 1044.83,-624.47"/>
<text text-anchor="middle" x="992.5" y="-609.27" font-family="Arial" font-size="14.00" fill="#cfffac">../functions/Set.ts</text>
</g>
<!-- ../Log.ts&#45;&gt;../functions/Set.ts -->
<g id="edge20" class="edge">
<title>../Log.ts&#45;&gt;../functions/Set.ts</title>
<path fill="none" stroke="#757575" d="M831.2,-617.14C855.8,-616.5 890.81,-615.59 921.84,-614.78"/>
<polygon fill="#757575" stroke="#757575" points="922.29,-618.27 932.19,-614.51 922.1,-611.27 922.29,-618.27"/>
</g>
<!-- ../Monad.ts -->
<g id="node17" class="node">
<title>../Monad.ts</title>
<path fill="none" stroke="#cfffac" d="M832.83,-157.47C832.83,-157.47 764.17,-157.47 764.17,-157.47 760.33,-157.47 756.5,-153.63 756.5,-149.8 756.5,-149.8 756.5,-142.13 756.5,-142.13 756.5,-138.3 760.33,-134.47 764.17,-134.47 764.17,-134.47 832.83,-134.47 832.83,-134.47 836.67,-134.47 840.5,-138.3 840.5,-142.13 840.5,-142.13 840.5,-149.8 840.5,-149.8 840.5,-153.63 836.67,-157.47 832.83,-157.47"/>
<text text-anchor="middle" x="798.5" y="-142.27" font-family="Arial" font-size="14.00" fill="#cfffac">../Monad.ts</text>
</g>
<!-- ../Route.ts -->
<g id="node18" class="node">
<title>../Route.ts</title>
<path fill="none" stroke="#c6c5fe" d="M497.33,-629.47C497.33,-629.47 434.67,-629.47 434.67,-629.47 430.83,-629.47 427,-625.63 427,-621.8 427,-621.8 427,-614.13 427,-614.13 427,-610.3 430.83,-606.47 434.67,-606.47 434.67,-606.47 497.33,-606.47 497.33,-606.47 501.17,-606.47 505,-610.3 505,-614.13 505,-614.13 505,-621.8 505,-621.8 505,-625.63 501.17,-629.47 497.33,-629.47"/>
<text text-anchor="middle" x="466" y="-614.27" font-family="Arial" font-size="14.00" fill="#c6c5fe">../Route.ts</text>
</g>
<!-- ../globals.ts -->
<g id="node19" class="node">
<title>../globals.ts</title>
<path fill="none" stroke="#cfffac" d="M659.83,-709.47C659.83,-709.47 590.17,-709.47 590.17,-709.47 586.33,-709.47 582.5,-705.63 582.5,-701.8 582.5,-701.8 582.5,-694.13 582.5,-694.13 582.5,-690.3 586.33,-686.47 590.17,-686.47 590.17,-686.47 659.83,-686.47 659.83,-686.47 663.67,-686.47 667.5,-690.3 667.5,-694.13 667.5,-694.13 667.5,-701.8 667.5,-701.8 667.5,-705.63 663.67,-709.47 659.83,-709.47"/>
<text text-anchor="middle" x="625" y="-694.27" font-family="Arial" font-size="14.00" fill="#cfffac">../globals.ts</text>
</g>
<!-- ../Route.ts&#45;&gt;../globals.ts -->
<g id="edge22" class="edge">
<title>../Route.ts&#45;&gt;../globals.ts</title>
<path fill="none" stroke="#757575" d="M482.99,-629.63C499.63,-641.41 526.73,-659.57 552,-671.97 560.06,-675.92 568.88,-679.6 577.5,-682.88"/>
<polygon fill="#757575" stroke="#757575" points="576.5,-686.24 587.1,-686.39 578.91,-679.67 576.5,-686.24"/>
</g>
<!-- ../util.ts -->
<g id="node20" class="node">
<title>../util.ts</title>
<path fill="none" stroke="#c6c5fe" d="M646.83,-629.47C646.83,-629.47 603.17,-629.47 603.17,-629.47 599.33,-629.47 595.5,-625.63 595.5,-621.8 595.5,-621.8 595.5,-614.13 595.5,-614.13 595.5,-610.3 599.33,-606.47 603.17,-606.47 603.17,-606.47 646.83,-606.47 646.83,-606.47 650.67,-606.47 654.5,-610.3 654.5,-614.13 654.5,-614.13 654.5,-621.8 654.5,-621.8 654.5,-625.63 650.67,-629.47 646.83,-629.47"/>
<text text-anchor="middle" x="625" y="-614.27" font-family="Arial" font-size="14.00" fill="#c6c5fe">../util.ts</text>
</g>
<!-- ../Route.ts&#45;&gt;../util.ts -->
<g id="edge23" class="edge">
<title>../Route.ts&#45;&gt;../util.ts</title>
<path fill="none" stroke="#757575" d="M505.01,-617.97C529.3,-617.97 560.73,-617.97 585.19,-617.97"/>
<polygon fill="#757575" stroke="#757575" points="585.2,-621.47 595.2,-617.97 585.2,-614.47 585.2,-621.47"/>
</g>
<!-- ../util.ts&#45;&gt;../Three.ts -->
<g id="edge29" class="edge">
<title>../util.ts&#45;&gt;../Three.ts</title>
<path fill="none" stroke="#757575" d="M642.76,-606.34C672.98,-585.37 736.78,-541.1 772.29,-516.46"/>
<polygon fill="#757575" stroke="#757575" points="774.45,-519.22 780.68,-510.64 770.46,-513.47 774.45,-519.22"/>
</g>
<!-- ../util.ts&#45;&gt;../Log.ts -->
<g id="edge28" class="edge">
<title>../util.ts&#45;&gt;../Log.ts</title>
<path fill="none" stroke="#757575" d="M654.71,-617.97C682.29,-617.97 724.29,-617.97 755.61,-617.97"/>
<polygon fill="#757575" stroke="#757575" points="755.79,-621.47 765.79,-617.97 755.79,-614.47 755.79,-621.47"/>
</g>
<!-- ../constants.ts -->
<g id="node21" class="node">
<title>../constants.ts</title>
<path fill="none" stroke="#c6c5fe" d="M508.33,-469.47C508.33,-469.47 423.67,-469.47 423.67,-469.47 419.83,-469.47 416,-465.63 416,-461.8 416,-461.8 416,-454.13 416,-454.13 416,-450.3 419.83,-446.47 423.67,-446.47 423.67,-446.47 508.33,-446.47 508.33,-446.47 512.17,-446.47 516,-450.3 516,-454.13 516,-454.13 516,-461.8 516,-461.8 516,-465.63 512.17,-469.47 508.33,-469.47"/>
<text text-anchor="middle" x="466" y="-454.27" font-family="Arial" font-size="14.00" fill="#c6c5fe">../constants.ts</text>
</g>
<!-- ../constants.ts&#45;&gt;../EntityPrefab.ts -->
<g id="edge24" class="edge">
<title>../constants.ts&#45;&gt;../EntityPrefab.ts</title>
<path fill="none" stroke="#757575" d="M482.34,-446.44C509.82,-425.78 567.62,-382.34 600.26,-357.81"/>
<polygon fill="#757575" stroke="#757575" points="602.47,-360.53 608.37,-351.72 598.27,-354.93 602.47,-360.53"/>
</g>
<!-- ../constants.ts&#45;&gt;../HeadingDirection.ts -->
<g id="edge25" class="edge">
<title>../constants.ts&#45;&gt;../HeadingDirection.ts</title>
<path fill="none" stroke="#757575" d="M488.28,-469.48C496.99,-474.36 507.1,-480.24 516,-485.97 532.59,-496.66 534.55,-502.75 552,-511.97 559.6,-515.98 567.96,-519.63 576.2,-522.84"/>
<polygon fill="#757575" stroke="#757575" points="575.19,-526.19 585.78,-526.4 577.63,-519.63 575.19,-526.19"/>
</g>
<!-- ../constants.ts&#45;&gt;../Three.ts -->
<g id="edge27" class="edge">
<title>../constants.ts&#45;&gt;../Three.ts</title>
<path fill="none" stroke="#757575" d="M508.23,-469.57C522.04,-473.08 537.6,-476.62 552,-478.97 620.17,-490.09 700.04,-495.14 749.71,-497.35"/>
<polygon fill="#757575" stroke="#757575" points="749.7,-500.85 759.84,-497.78 750,-493.86 749.7,-500.85"/>
</g>
<!-- ../constants.ts&#45;&gt;../Input.ts -->
<g id="edge26" class="edge">
<title>../constants.ts&#45;&gt;../Input.ts</title>
<path fill="none" stroke="#757575" d="M516.25,-457.97C536.22,-457.97 559.14,-457.97 578.69,-457.97"/>
<polygon fill="#757575" stroke="#757575" points="578.87,-461.47 588.87,-457.97 578.87,-454.47 578.87,-461.47"/>
</g>
<!-- Evaluator.ts -->
<g id="node22" class="node">
<title>Evaluator.ts</title>
<path fill="none" stroke="#c6c5fe" d="M501.83,-77.47C501.83,-77.47 430.17,-77.47 430.17,-77.47 426.33,-77.47 422.5,-73.63 422.5,-69.8 422.5,-69.8 422.5,-62.13 422.5,-62.13 422.5,-58.3 426.33,-54.47 430.17,-54.47 430.17,-54.47 501.83,-54.47 501.83,-54.47 505.67,-54.47 509.5,-58.3 509.5,-62.13 509.5,-62.13 509.5,-69.8 509.5,-69.8 509.5,-73.63 505.67,-77.47 501.83,-77.47"/>
<text text-anchor="middle" x="466" y="-62.27" font-family="Arial" font-size="14.00" fill="#c6c5fe">Evaluator.ts</text>
</g>
<!-- Evaluator.ts&#45;&gt;../Error.ts -->
<g id="edge30" class="edge">
<title>Evaluator.ts&#45;&gt;../Error.ts</title>
<path fill="none" stroke="#757575" d="M509.52,-66.18C572.44,-66.47 694.07,-66.97 797.5,-66.97 797.5,-66.97 797.5,-66.97 1179,-66.97 1256.69,-66.97 1292.31,-42.25 1352,-91.97 1409.26,-139.66 1420.21,-235.62 1422.16,-278.9"/>
<polygon fill="#757575" stroke="#757575" points="1418.67,-279.29 1422.5,-289.17 1425.67,-279.06 1418.67,-279.29"/>
</g>
<!-- EventType.ts -->
<g id="node23" class="node">
<title>EventType.ts</title>
<path fill="none" stroke="#cfffac" d="M505.83,-233.47C505.83,-233.47 426.17,-233.47 426.17,-233.47 422.33,-233.47 418.5,-229.63 418.5,-225.8 418.5,-225.8 418.5,-218.13 418.5,-218.13 418.5,-214.3 422.33,-210.47 426.17,-210.47 426.17,-210.47 505.83,-210.47 505.83,-210.47 509.67,-210.47 513.5,-214.3 513.5,-218.13 513.5,-218.13 513.5,-225.8 513.5,-225.8 513.5,-229.63 509.67,-233.47 505.83,-233.47"/>
<text text-anchor="middle" x="466" y="-218.27" font-family="Arial" font-size="14.00" fill="#cfffac">EventType.ts</text>
</g>
<!-- Interpolator.ts -->
<g id="node24" class="node">
<title>Interpolator.ts</title>
<path fill="none" stroke="#c6c5fe" d="M280.83,-117.47C280.83,-117.47 198.17,-117.47 198.17,-117.47 194.33,-117.47 190.5,-113.63 190.5,-109.8 190.5,-109.8 190.5,-102.13 190.5,-102.13 190.5,-98.3 194.33,-94.47 198.17,-94.47 198.17,-94.47 280.83,-94.47 280.83,-94.47 284.67,-94.47 288.5,-98.3 288.5,-102.13 288.5,-102.13 288.5,-109.8 288.5,-109.8 288.5,-113.63 284.67,-117.47 280.83,-117.47"/>
<text text-anchor="middle" x="239.5" y="-102.27" font-family="Arial" font-size="14.00" fill="#c6c5fe">Interpolator.ts</text>
</g>
<!-- Interpolator.ts&#45;&gt;../Error.ts -->
<g id="edge31" class="edge">
<title>Interpolator.ts&#45;&gt;../Error.ts</title>
<path fill="none" stroke="#757575" d="M288.63,-105.97C361.29,-105.97 503.32,-105.97 624,-105.97 624,-105.97 624,-105.97 1179,-105.97 1289.92,-105.97 1379.21,-230.77 1410.49,-280.69"/>
<polygon fill="#757575" stroke="#757575" points="1407.59,-282.66 1415.8,-289.35 1413.56,-279 1407.59,-282.66"/>
</g>
<!-- Interpolator.ts&#45;&gt;Evaluator.ts -->
<g id="edge32" class="edge">
<title>Interpolator.ts&#45;&gt;Evaluator.ts</title>
<path fill="none" stroke="#757575" d="M288.66,-97.39C324.93,-90.92 374.63,-82.07 412.03,-75.41"/>
<polygon fill="#757575" stroke="#757575" points="412.99,-78.79 422.22,-73.59 411.77,-71.9 412.99,-78.79"/>
</g>
<!-- collections.ts -->
<g id="node25" class="node">
<title>collections.ts</title>
<path fill="none" stroke="#c6c5fe" d="M505.33,-313.47C505.33,-313.47 426.67,-313.47 426.67,-313.47 422.83,-313.47 419,-309.63 419,-305.8 419,-305.8 419,-298.13 419,-298.13 419,-294.3 422.83,-290.47 426.67,-290.47 426.67,-290.47 505.33,-290.47 505.33,-290.47 509.17,-290.47 513,-294.3 513,-298.13 513,-298.13 513,-305.8 513,-305.8 513,-309.63 509.17,-313.47 505.33,-313.47"/>
<text text-anchor="middle" x="466" y="-298.27" font-family="Arial" font-size="14.00" fill="#c6c5fe">collections.ts</text>
</g>
<!-- Interpolator.ts&#45;&gt;collections.ts -->
<g id="edge33" class="edge">
<title>Interpolator.ts&#45;&gt;collections.ts</title>
<path fill="none" stroke="#757575" d="M261.16,-117.59C289.56,-134.1 341.51,-166.21 380,-200.97 387.67,-207.89 426.72,-255.19 449.13,-282.53"/>
<polygon fill="#757575" stroke="#757575" points="446.45,-284.79 455.49,-290.31 451.87,-280.36 446.45,-284.79"/>
</g>
<!-- collections.ts&#45;&gt;../Observable.ts -->
<g id="edge35" class="edge">
<title>collections.ts&#45;&gt;../Observable.ts</title>
<path fill="none" stroke="#757575" d="M478.7,-313.48C494.04,-327.71 522.49,-351.23 552,-360.97 654.21,-394.68 973.05,-387.57 1111.61,-382.65"/>
<polygon fill="#757575" stroke="#757575" points="1111.8,-386.14 1121.67,-382.28 1111.55,-379.15 1111.8,-386.14"/>
</g>
<!-- Island.ts -->
<g id="node26" class="node">
<title>Island.ts</title>
<path fill="none" stroke="#c6c5fe" d="M650.83,-271.47C650.83,-271.47 599.17,-271.47 599.17,-271.47 595.33,-271.47 591.5,-267.63 591.5,-263.8 591.5,-263.8 591.5,-256.13 591.5,-256.13 591.5,-252.3 595.33,-248.47 599.17,-248.47 599.17,-248.47 650.83,-248.47 650.83,-248.47 654.67,-248.47 658.5,-252.3 658.5,-256.13 658.5,-256.13 658.5,-263.8 658.5,-263.8 658.5,-267.63 654.67,-271.47 650.83,-271.47"/>
<text text-anchor="middle" x="625" y="-256.27" font-family="Arial" font-size="14.00" fill="#c6c5fe">Island.ts</text>
</g>
<!-- collections.ts&#45;&gt;Island.ts -->
<g id="edge36" class="edge">
<title>collections.ts&#45;&gt;Island.ts</title>
<path fill="none" stroke="#757575" d="M510.32,-290.38C532.51,-284.44 559.44,-277.24 581.52,-271.33"/>
<polygon fill="#757575" stroke="#757575" points="582.53,-274.69 591.28,-268.72 580.72,-267.92 582.53,-274.69"/>
</g>
<!-- Island.ts&#45;&gt;../Monad.ts -->
<g id="edge34" class="edge">
<title>Island.ts&#45;&gt;../Monad.ts</title>
<path fill="none" stroke="#757575" d="M637.74,-248.4C656.69,-230.22 695.74,-194.7 734,-171.97 740.41,-168.16 747.47,-164.66 754.5,-161.55"/>
<polygon fill="#757575" stroke="#757575" points="756.13,-164.66 763.98,-157.55 753.41,-158.21 756.13,-164.66"/>
</g>
<!-- directives/RouteDirective.ts -->
<g id="node27" class="node">
<title>directives/RouteDirective.ts</title>
<path fill="none" stroke="#c6c5fe" d="M321.83,-629.47C321.83,-629.47 157.17,-629.47 157.17,-629.47 153.33,-629.47 149.5,-625.63 149.5,-621.8 149.5,-621.8 149.5,-614.13 149.5,-614.13 149.5,-610.3 153.33,-606.47 157.17,-606.47 157.17,-606.47 321.83,-606.47 321.83,-606.47 325.67,-606.47 329.5,-610.3 329.5,-614.13 329.5,-614.13 329.5,-621.8 329.5,-621.8 329.5,-625.63 325.67,-629.47 321.83,-629.47"/>
<text text-anchor="middle" x="239.5" y="-614.27" font-family="Arial" font-size="14.00" fill="#c6c5fe">directives/RouteDirective.ts</text>
</g>
<!-- directives/RouteDirective.ts&#45;&gt;../Route.ts -->
<g id="edge37" class="edge">
<title>directives/RouteDirective.ts&#45;&gt;../Route.ts</title>
<path fill="none" stroke="#757575" d="M329.55,-617.97C359.25,-617.97 391.21,-617.97 416.62,-617.97"/>
<polygon fill="#757575" stroke="#757575" points="416.73,-621.47 426.73,-617.97 416.73,-614.47 416.73,-621.47"/>
</g>
<!-- events.ts -->
<g id="node28" class="node">
<title>events.ts</title>
<path fill="none" stroke="#c6c5fe" d="M267.33,-233.47C267.33,-233.47 211.67,-233.47 211.67,-233.47 207.83,-233.47 204,-229.63 204,-225.8 204,-225.8 204,-218.13 204,-218.13 204,-214.3 207.83,-210.47 211.67,-210.47 211.67,-210.47 267.33,-210.47 267.33,-210.47 271.17,-210.47 275,-214.3 275,-218.13 275,-218.13 275,-225.8 275,-225.8 275,-229.63 271.17,-233.47 267.33,-233.47"/>
<text text-anchor="middle" x="239.5" y="-218.27" font-family="Arial" font-size="14.00" fill="#c6c5fe">events.ts</text>
</g>
<!-- events.ts&#45;&gt;EventType.ts -->
<g id="edge38" class="edge">
<title>events.ts&#45;&gt;EventType.ts</title>
<path fill="none" stroke="#757575" d="M275.09,-221.97C310.54,-221.97 366.26,-221.97 408.2,-221.97"/>
<polygon fill="#757575" stroke="#757575" points="408.27,-225.47 418.27,-221.97 408.27,-218.47 408.27,-225.47"/>
</g>
<!-- events.ts&#45;&gt;Island.ts -->
<g id="edge39" class="edge">
<title>events.ts&#45;&gt;Island.ts</title>
<path fill="none" stroke="#757575" d="M275.05,-212.3C327.85,-199.1 431.41,-179.37 516,-200.97 547.34,-208.97 579.38,-228.14 600.33,-242.47"/>
<polygon fill="#757575" stroke="#757575" points="598.4,-245.39 608.6,-248.27 602.42,-239.66 598.4,-245.39"/>
</g>
<!-- functions/createIslandElementConstructor.ts -->
<g id="node29" class="node">
<title>functions/createIslandElementConstructor.ts</title>
<path fill="none" stroke="#c6c5fe" d="M372.33,-410.47C372.33,-410.47 106.67,-410.47 106.67,-410.47 102.83,-410.47 99,-406.63 99,-402.8 99,-402.8 99,-395.13 99,-395.13 99,-391.3 102.83,-387.47 106.67,-387.47 106.67,-387.47 372.33,-387.47 372.33,-387.47 376.17,-387.47 380,-391.3 380,-395.13 380,-395.13 380,-402.8 380,-402.8 380,-406.63 376.17,-410.47 372.33,-410.47"/>
<text text-anchor="middle" x="239.5" y="-395.27" font-family="Arial" font-size="14.00" fill="#c6c5fe">functions/createIslandElementConstructor.ts</text>
</g>
<!-- functions/createIslandElementConstructor.ts&#45;&gt;../Error.ts -->
<g id="edge40" class="edge">
<title>functions/createIslandElementConstructor.ts&#45;&gt;../Error.ts</title>
<path fill="none" stroke="#757575" d="M257.64,-410.6C310.41,-446.52 469.62,-555.79 516,-597.97 533.94,-614.28 530.81,-627.17 552,-638.97 620.31,-676.99 821.09,-690.5 899,-696.97 981.83,-703.84 1003.65,-708.16 1086,-696.97 1216.97,-679.16 1278.99,-674.15 1352,-563.97 1403.98,-485.54 1417.75,-370.08 1421.3,-322.58"/>
<polygon fill="#757575" stroke="#757575" points="1424.8,-322.74 1421.97,-312.53 1417.82,-322.27 1424.8,-322.74"/>
</g>
<!-- functions/createIslandElementConstructor.ts&#45;&gt;../Observable.ts -->
<g id="edge42" class="edge">
<title>functions/createIslandElementConstructor.ts&#45;&gt;../Observable.ts</title>
<path fill="none" stroke="#757575" d="M380.22,-409.22C452.88,-413.71 543.17,-417.97 624,-417.97 624,-417.97 624,-417.97 799.5,-417.97 927.11,-417.97 959.57,-416.27 1086,-398.97 1096.42,-397.54 1107.43,-395.61 1118.06,-393.52"/>
<polygon fill="#757575" stroke="#757575" points="1119,-396.9 1128.1,-391.49 1117.61,-390.04 1119,-396.9"/>
</g>
<!-- functions/createIslandElementConstructor.ts&#45;&gt;../Monad.ts -->
<g id="edge41" class="edge">
<title>functions/createIslandElementConstructor.ts&#45;&gt;../Monad.ts</title>
<path fill="none" stroke="#757575" d="M380.08,-395.2C425.38,-389.5 474.59,-378.27 516,-356.97 536.4,-346.47 532.24,-331.63 552,-319.97 609.94,-285.77 644.09,-320.22 698,-279.97 722.31,-261.82 716.23,-246.56 734,-221.97 748.53,-201.86 766.85,-180.28 780.08,-165.27"/>
<polygon fill="#757575" stroke="#757575" points="782.81,-167.46 786.84,-157.66 777.58,-162.81 782.81,-167.46"/>
</g>
<!-- functions/createIslandElementConstructor.ts&#45;&gt;../util.ts -->
<g id="edge44" class="edge">
<title>functions/createIslandElementConstructor.ts&#45;&gt;../util.ts</title>
<path fill="none" stroke="#757575" d="M265.81,-410.51C332.85,-441.1 510.31,-522.19 516,-525.97 534.07,-537.99 535.6,-544.75 552,-558.97 568.33,-573.13 587.25,-588.6 601.6,-600.14"/>
<polygon fill="#757575" stroke="#757575" points="599.47,-602.92 609.46,-606.45 603.85,-597.46 599.47,-602.92"/>
</g>
<!-- functions/createIslandElementConstructor.ts&#45;&gt;../constants.ts -->
<g id="edge43" class="edge">
<title>functions/createIslandElementConstructor.ts&#45;&gt;../constants.ts</title>
<path fill="none" stroke="#757575" d="M284.32,-410.48C320.51,-420 372.06,-433.54 410.84,-443.73"/>
<polygon fill="#757575" stroke="#757575" points="410.35,-447.22 420.91,-446.38 412.13,-440.45 410.35,-447.22"/>
</g>
<!-- functions/createIslandElementConstructor.ts&#45;&gt;collections.ts -->
<g id="edge46" class="edge">
<title>functions/createIslandElementConstructor.ts&#45;&gt;collections.ts</title>
<path fill="none" stroke="#757575" d="M267.13,-387.46C307.28,-370.11 383.4,-337.23 428.62,-317.69"/>
<polygon fill="#757575" stroke="#757575" points="430.26,-320.79 438.05,-313.61 427.48,-314.37 430.26,-320.79"/>
</g>
<!-- functions/createIslandElementConstructor.ts&#45;&gt;Island.ts -->
<g id="edge45" class="edge">
<title>functions/createIslandElementConstructor.ts&#45;&gt;Island.ts</title>
<path fill="none" stroke="#757575" d="M325.51,-387.46C382.43,-376.98 457.39,-357.64 516,-322.97 535.75,-311.29 532.72,-298.4 552,-285.97 561.06,-280.13 571.6,-275.38 581.78,-271.62"/>
<polygon fill="#757575" stroke="#757575" points="583.05,-274.88 591.37,-268.31 580.77,-268.26 583.05,-274.88"/>
</g>
<!-- index.ts -->
<g id="node30" class="node">
<title>index.ts</title>
<path fill="none" stroke="#c6c5fe" d="M55.33,-273.47C55.33,-273.47 7.67,-273.47 7.67,-273.47 3.83,-273.47 0,-269.63 0,-265.8 0,-265.8 0,-258.13 0,-258.13 0,-254.3 3.83,-250.47 7.67,-250.47 7.67,-250.47 55.33,-250.47 55.33,-250.47 59.17,-250.47 63,-254.3 63,-258.13 63,-258.13 63,-265.8 63,-265.8 63,-269.63 59.17,-273.47 55.33,-273.47"/>
<text text-anchor="middle" x="31.5" y="-258.27" font-family="Arial" font-size="14.00" fill="#c6c5fe">index.ts</text>
</g>
<!-- index.ts&#45;&gt;../Error.ts -->
<g id="edge47" class="edge">
<title>index.ts&#45;&gt;../Error.ts</title>
<path fill="none" stroke="#757575" d="M32.13,-250.06C31.72,-213.74 35.94,-103.81 99,-53.97 226.99,47.19 301.86,-25.97 465,-25.97 465,-25.97 465,-25.97 1179,-25.97 1257.11,-25.97 1293.97,-4.68 1352,-56.97 1417.35,-115.86 1423.66,-231.15 1423.26,-279.17"/>
<polygon fill="#757575" stroke="#757575" points="1419.76,-279.29 1423.07,-289.36 1426.76,-279.43 1419.76,-279.29"/>
</g>
<!-- index.ts&#45;&gt;../Observable.ts -->
<g id="edge49" class="edge">
<title>index.ts&#45;&gt;../Observable.ts</title>
<path fill="none" stroke="#757575" d="M34.33,-273.54C39.41,-302.12 56.27,-376.84 99,-419.97 223.71,-545.82 287.82,-577.97 465,-577.97 465,-577.97 465,-577.97 626,-577.97 734.44,-577.97 773.1,-580.61 863,-519.97 885.7,-504.66 876.42,-485.46 899,-469.97 969.84,-421.35 1005,-449.6 1086,-420.97 1106.13,-413.85 1127.95,-404.09 1145.19,-395.88"/>
<polygon fill="#757575" stroke="#757575" points="1146.76,-399 1154.25,-391.5 1143.72,-392.7 1146.76,-399"/>
</g>
<!-- index.ts&#45;&gt;../collections/InstanceMap.ts -->
<g id="edge50" class="edge">
<title>index.ts&#45;&gt;../collections/InstanceMap.ts</title>
<path fill="none" stroke="#757575" d="M32.97,-273.58C35.5,-330.81 49.34,-582.4 99,-638.97 211.49,-767.1 294.49,-753.97 465,-753.97 465,-753.97 465,-753.97 626,-753.97 714.74,-753.97 815.46,-759.33 888.66,-764.2"/>
<polygon fill="#757575" stroke="#757575" points="888.59,-767.7 898.8,-764.88 889.06,-760.72 888.59,-767.7"/>
</g>
<!-- index.ts&#45;&gt;../Monad.ts -->
<g id="edge48" class="edge">
<title>index.ts&#45;&gt;../Monad.ts</title>
<path fill="none" stroke="#757575" d="M41.1,-250.3C52.52,-235.84 74.15,-211.78 99,-200.97 323.62,-103.23 627.09,-125.23 746.35,-139.06"/>
<polygon fill="#757575" stroke="#757575" points="745.96,-142.54 756.31,-140.25 746.79,-135.59 745.96,-142.54"/>
</g>
<!-- index.ts&#45;&gt;Evaluator.ts -->
<g id="edge51" class="edge">
<title>index.ts&#45;&gt;Evaluator.ts</title>
<path fill="none" stroke="#757575" d="M32.8,-250.36C34.35,-217.82 43.63,-125.48 99,-84.97 147.41,-49.55 323.03,-56 412.23,-61.85"/>
<polygon fill="#757575" stroke="#757575" points="412.19,-65.36 422.4,-62.54 412.66,-58.37 412.19,-65.36"/>
</g>
<!-- index.ts&#45;&gt;Interpolator.ts -->
<g id="edge52" class="edge">
<title>index.ts&#45;&gt;Interpolator.ts</title>
<path fill="none" stroke="#757575" d="M34.82,-250.38C40.63,-224.58 58.37,-162.29 99,-131.97 122.11,-114.72 153.25,-107.81 180.24,-105.39"/>
<polygon fill="#757575" stroke="#757575" points="180.64,-108.87 190.36,-104.67 180.14,-101.89 180.64,-108.87"/>
</g>
<!-- index.ts&#45;&gt;collections.ts -->
<g id="edge54" class="edge">
<title>index.ts&#45;&gt;collections.ts</title>
<path fill="none" stroke="#757575" d="M63.14,-269.33C74.36,-271.79 87.2,-274.31 99,-275.97 207.98,-291.24 336.55,-297.74 408.64,-300.35"/>
<polygon fill="#757575" stroke="#757575" points="408.74,-303.86 418.85,-300.71 408.98,-296.86 408.74,-303.86"/>
</g>
<!-- index.ts&#45;&gt;Island.ts -->
<g id="edge53" class="edge">
<title>index.ts&#45;&gt;Island.ts</title>
<path fill="none" stroke="#757575" d="M63.06,-261.86C161.13,-261.53 468.13,-260.5 581.44,-260.11"/>
<polygon fill="#757575" stroke="#757575" points="581.48,-263.61 591.47,-260.08 581.46,-256.61 581.48,-263.61"/>
</g>
<!-- index.ts&#45;&gt;directives/RouteDirective.ts -->
<g id="edge55" class="edge">
<title>index.ts&#45;&gt;directives/RouteDirective.ts</title>
<path fill="none" stroke="#757575" d="M33.15,-273.64C36.36,-326.85 52.27,-545.92 99,-591.97 110.16,-602.96 124.37,-610.1 139.44,-614.62"/>
<polygon fill="#757575" stroke="#757575" points="138.89,-618.09 149.45,-617.22 140.65,-611.31 138.89,-618.09"/>
</g>
<!-- index.ts&#45;&gt;events.ts -->
<g id="edge56" class="edge">
<title>index.ts&#45;&gt;events.ts</title>
<path fill="none" stroke="#757575" d="M63.26,-255.34C74.5,-252.96 87.31,-250.29 99,-247.97 130.61,-241.7 166.33,-235.05 193.71,-230.04"/>
<polygon fill="#757575" stroke="#757575" points="194.56,-233.45 203.77,-228.21 193.31,-226.56 194.56,-233.45"/>
</g>
<!-- index.ts&#45;&gt;functions/createIslandElementConstructor.ts -->
<g id="edge57" class="edge">
<title>index.ts&#45;&gt;functions/createIslandElementConstructor.ts</title>
<path fill="none" stroke="#757575" d="M45.85,-273.47C59,-284.59 79.85,-301.65 99,-314.97 135.45,-340.3 179.66,-366.16 208.4,-382.37"/>
<polygon fill="#757575" stroke="#757575" points="206.73,-385.44 217.16,-387.28 210.15,-379.33 206.73,-385.44"/>
</g>
</g>
</svg>
