<?xml version="1.0" encoding="UTF-8" standalone="no"?>
<!DOCTYPE svg PUBLIC "-//W3C//DTD SVG 1.1//EN"
 "http://www.w3.org/Graphics/SVG/1.1/DTD/svg11.dtd">
<!-- Generated by graphviz version 2.43.0 (0)
 -->
<!-- Title: G Pages: 1 -->
<svg width="1344pt" height="823pt"
 viewBox="0.00 0.00 1344.20 822.88" xmlns="http://www.w3.org/2000/svg" xmlns:xlink="http://www.w3.org/1999/xlink">
<g id="graph0" class="graph" transform="scale(1 1) rotate(0) translate(21.6 801.28)">
<title>G</title>
<polygon fill="#111111" stroke="transparent" points="-21.6,21.6 -21.6,-801.28 1322.6,-801.28 1322.6,21.6 -21.6,21.6"/>
<!-- ../Debug.ts -->
<g id="node1" class="node">
<title>../Debug.ts</title>
<path fill="none" stroke="#c6c5fe" d="M1186.33,-360C1186.33,-360 1119.67,-360 1119.67,-360 1115.83,-360 1112,-356.17 1112,-352.33 1112,-352.33 1112,-344.67 1112,-344.67 1112,-340.83 1115.83,-337 1119.67,-337 1119.67,-337 1186.33,-337 1186.33,-337 1190.17,-337 1194,-340.83 1194,-344.67 1194,-344.67 1194,-352.33 1194,-352.33 1194,-356.17 1190.17,-360 1186.33,-360"/>
<text text-anchor="middle" x="1153" y="-344.8" font-family="Arial" font-size="14.00" fill="#c6c5fe">../Debug.ts</text>
</g>
<!-- ../Error.ts -->
<g id="node2" class="node">
<title>../Error.ts</title>
<path fill="none" stroke="#cfffac" d="M1293.33,-360C1293.33,-360 1237.67,-360 1237.67,-360 1233.83,-360 1230,-356.17 1230,-352.33 1230,-352.33 1230,-344.67 1230,-344.67 1230,-340.83 1233.83,-337 1237.67,-337 1237.67,-337 1293.33,-337 1293.33,-337 1297.17,-337 1301,-340.83 1301,-344.67 1301,-344.67 1301,-352.33 1301,-352.33 1301,-356.17 1297.17,-360 1293.33,-360"/>
<text text-anchor="middle" x="1265.5" y="-344.8" font-family="Arial" font-size="14.00" fill="#cfffac">../Error.ts</text>
</g>
<!-- ../Debug.ts&#45;&gt;../Error.ts -->
<g id="edge1" class="edge">
<title>../Debug.ts&#45;&gt;../Error.ts</title>
<path fill="none" stroke="#757575" d="M1194.21,-348.5C1202.54,-348.5 1211.37,-348.5 1219.85,-348.5"/>
<polygon fill="#757575" stroke="#757575" points="1219.97,-352 1229.97,-348.5 1219.97,-345 1219.97,-352"/>
</g>
<!-- ../HeadingDirection.ts -->
<g id="node3" class="node">
<title>../HeadingDirection.ts</title>
<path fill="none" stroke="#c6c5fe" d="M690.33,-223C690.33,-223 559.67,-223 559.67,-223 555.83,-223 552,-219.17 552,-215.33 552,-215.33 552,-207.67 552,-207.67 552,-203.83 555.83,-200 559.67,-200 559.67,-200 690.33,-200 690.33,-200 694.17,-200 698,-203.83 698,-207.67 698,-207.67 698,-215.33 698,-215.33 698,-219.17 694.17,-223 690.33,-223"/>
<text text-anchor="middle" x="625" y="-207.8" font-family="Arial" font-size="14.00" fill="#c6c5fe">../HeadingDirection.ts</text>
</g>
<!-- ../HeadingDirection.ts&#45;&gt;../Error.ts -->
<g id="edge2" class="edge">
<title>../HeadingDirection.ts&#45;&gt;../Error.ts</title>
<path fill="none" stroke="#757575" d="M669.51,-199.92C770.84,-175.62 1026.64,-130 1194,-237.5 1226.92,-258.65 1247.36,-301.23 1257.28,-327.07"/>
<polygon fill="#757575" stroke="#757575" points="1254.07,-328.49 1260.78,-336.69 1260.65,-326.1 1254.07,-328.49"/>
</g>
<!-- ../Three.ts -->
<g id="node4" class="node">
<title>../Three.ts</title>
<path fill="none" stroke="#cfffac" d="M824.33,-143C824.33,-143 762.67,-143 762.67,-143 758.83,-143 755,-139.17 755,-135.33 755,-135.33 755,-127.67 755,-127.67 755,-123.83 758.83,-120 762.67,-120 762.67,-120 824.33,-120 824.33,-120 828.17,-120 832,-123.83 832,-127.67 832,-127.67 832,-135.33 832,-135.33 832,-139.17 828.17,-143 824.33,-143"/>
<text text-anchor="middle" x="793.5" y="-127.8" font-family="Arial" font-size="14.00" fill="#cfffac">../Three.ts</text>
</g>
<!-- ../HeadingDirection.ts&#45;&gt;../Three.ts -->
<g id="edge3" class="edge">
<title>../HeadingDirection.ts&#45;&gt;../Three.ts</title>
<path fill="none" stroke="#757575" d="M665.09,-199.9C676.05,-195.98 687.76,-191.15 698,-185.5 715.75,-175.71 716.61,-167.92 734,-157.5 740.02,-153.89 746.63,-150.48 753.18,-147.39"/>
<polygon fill="#757575" stroke="#757575" points="754.97,-150.42 762.64,-143.11 752.08,-144.05 754.97,-150.42"/>
</g>
<!-- ../units/convert.ts -->
<g id="node5" class="node">
<title>../units/convert.ts</title>
<path fill="none" stroke="#cfffac" d="M845.33,-223C845.33,-223 741.67,-223 741.67,-223 737.83,-223 734,-219.17 734,-215.33 734,-215.33 734,-207.67 734,-207.67 734,-203.83 737.83,-200 741.67,-200 741.67,-200 845.33,-200 845.33,-200 849.17,-200 853,-203.83 853,-207.67 853,-207.67 853,-215.33 853,-215.33 853,-219.17 849.17,-223 845.33,-223"/>
<text text-anchor="middle" x="793.5" y="-207.8" font-family="Arial" font-size="14.00" fill="#cfffac">../units/convert.ts</text>
</g>
<!-- ../HeadingDirection.ts&#45;&gt;../units/convert.ts -->
<g id="edge4" class="edge">
<title>../HeadingDirection.ts&#45;&gt;../units/convert.ts</title>
<path fill="none" stroke="#757575" d="M698.06,-211.5C706.56,-211.5 715.21,-211.5 723.67,-211.5"/>
<polygon fill="#757575" stroke="#757575" points="723.85,-215 733.85,-211.5 723.85,-208 723.85,-215"/>
</g>
<!-- ../Input.ts -->
<g id="node6" class="node">
<title>../Input.ts</title>
<path fill="none" stroke="#cfffac" d="M653.33,-143C653.33,-143 596.67,-143 596.67,-143 592.83,-143 589,-139.17 589,-135.33 589,-135.33 589,-127.67 589,-127.67 589,-123.83 592.83,-120 596.67,-120 596.67,-120 653.33,-120 653.33,-120 657.17,-120 661,-123.83 661,-127.67 661,-127.67 661,-135.33 661,-135.33 661,-139.17 657.17,-143 653.33,-143"/>
<text text-anchor="middle" x="625" y="-127.8" font-family="Arial" font-size="14.00" fill="#cfffac">../Input.ts</text>
</g>
<!-- ../Log.ts -->
<g id="node7" class="node">
<title>../Log.ts</title>
<path fill="none" stroke="#c6c5fe" d="M818.33,-102C818.33,-102 768.67,-102 768.67,-102 764.83,-102 761,-98.17 761,-94.33 761,-94.33 761,-86.67 761,-86.67 761,-82.83 764.83,-79 768.67,-79 768.67,-79 818.33,-79 818.33,-79 822.17,-79 826,-82.83 826,-86.67 826,-86.67 826,-94.33 826,-94.33 826,-98.17 822.17,-102 818.33,-102"/>
<text text-anchor="middle" x="793.5" y="-86.8" font-family="Arial" font-size="14.00" fill="#c6c5fe">../Log.ts</text>
</g>
<!-- ../Log.ts&#45;&gt;../Error.ts -->
<g id="edge5" class="edge">
<title>../Log.ts&#45;&gt;../Error.ts</title>
<path fill="none" stroke="#757575" d="M826.27,-99.03C844.52,-103.74 867.95,-109.43 889,-113.5 956.23,-126.5 1140.76,-114.43 1194,-157.5 1246.75,-200.18 1260.03,-286.24 1263.37,-326.63"/>
<polygon fill="#757575" stroke="#757575" points="1259.89,-327.01 1264.08,-336.74 1266.88,-326.52 1259.89,-327.01"/>
</g>
<!-- ../Observable.ts -->
<g id="node8" class="node">
<title>../Observable.ts</title>
<path fill="none" stroke="#c6c5fe" d="M1030.83,-360C1030.83,-360 934.17,-360 934.17,-360 930.33,-360 926.5,-356.17 926.5,-352.33 926.5,-352.33 926.5,-344.67 926.5,-344.67 926.5,-340.83 930.33,-337 934.17,-337 934.17,-337 1030.83,-337 1030.83,-337 1034.67,-337 1038.5,-340.83 1038.5,-344.67 1038.5,-344.67 1038.5,-352.33 1038.5,-352.33 1038.5,-356.17 1034.67,-360 1030.83,-360"/>
<text text-anchor="middle" x="982.5" y="-344.8" font-family="Arial" font-size="14.00" fill="#c6c5fe">../Observable.ts</text>
</g>
<!-- ../Log.ts&#45;&gt;../Observable.ts -->
<g id="edge6" class="edge">
<title>../Log.ts&#45;&gt;../Observable.ts</title>
<path fill="none" stroke="#757575" d="M826.18,-96.65C835.58,-99.65 845.38,-104.05 853,-110.5 924.16,-170.76 962.24,-280.74 975.75,-327.04"/>
<polygon fill="#757575" stroke="#757575" points="972.44,-328.22 978.52,-336.9 979.18,-326.32 972.44,-328.22"/>
</g>
<!-- ../collections/InstanceMap.ts -->
<g id="node9" class="node">
<title>../collections/InstanceMap.ts</title>
<path fill="none" stroke="#cfffac" d="M1068.33,-525C1068.33,-525 896.67,-525 896.67,-525 892.83,-525 889,-521.17 889,-517.33 889,-517.33 889,-509.67 889,-509.67 889,-505.83 892.83,-502 896.67,-502 896.67,-502 1068.33,-502 1068.33,-502 1072.17,-502 1076,-505.83 1076,-509.67 1076,-509.67 1076,-517.33 1076,-517.33 1076,-521.17 1072.17,-525 1068.33,-525"/>
<text text-anchor="middle" x="982.5" y="-509.8" font-family="Arial" font-size="14.00" fill="#cfffac">../collections/InstanceMap.ts</text>
</g>
<!-- ../Log.ts&#45;&gt;../collections/InstanceMap.ts -->
<g id="edge7" class="edge">
<title>../Log.ts&#45;&gt;../collections/InstanceMap.ts</title>
<path fill="none" stroke="#757575" d="M826.2,-94.68C836.16,-97.55 846.31,-102.39 853,-110.5 926.95,-200.15 848.65,-260.51 889,-369.5 906.98,-418.07 943.36,-467.25 964.74,-493.7"/>
<polygon fill="#757575" stroke="#757575" points="962.32,-496.26 971.37,-501.76 967.73,-491.82 962.32,-496.26"/>
</g>
<!-- ../functions/Array.ts -->
<g id="node10" class="node">
<title>../functions/Array.ts</title>
<path fill="none" stroke="#cfffac" d="M1040.33,-105C1040.33,-105 924.67,-105 924.67,-105 920.83,-105 917,-101.17 917,-97.33 917,-97.33 917,-89.67 917,-89.67 917,-85.83 920.83,-82 924.67,-82 924.67,-82 1040.33,-82 1040.33,-82 1044.17,-82 1048,-85.83 1048,-89.67 1048,-89.67 1048,-97.33 1048,-97.33 1048,-101.17 1044.17,-105 1040.33,-105"/>
<text text-anchor="middle" x="982.5" y="-89.8" font-family="Arial" font-size="14.00" fill="#cfffac">../functions/Array.ts</text>
</g>
<!-- ../Log.ts&#45;&gt;../functions/Array.ts -->
<g id="edge8" class="edge">
<title>../Log.ts&#45;&gt;../functions/Array.ts</title>
<path fill="none" stroke="#757575" d="M826.22,-91.01C848.31,-91.36 878.72,-91.85 906.78,-92.3"/>
<polygon fill="#757575" stroke="#757575" points="906.94,-95.8 916.99,-92.47 907.05,-88.81 906.94,-95.8"/>
</g>
<!-- ../functions/Map.ts -->
<g id="node11" class="node">
<title>../functions/Map.ts</title>
<path fill="none" stroke="#cfffac" d="M1038.33,-64C1038.33,-64 926.67,-64 926.67,-64 922.83,-64 919,-60.17 919,-56.33 919,-56.33 919,-48.67 919,-48.67 919,-44.83 922.83,-41 926.67,-41 926.67,-41 1038.33,-41 1038.33,-41 1042.17,-41 1046,-44.83 1046,-48.67 1046,-48.67 1046,-56.33 1046,-56.33 1046,-60.17 1042.17,-64 1038.33,-64"/>
<text text-anchor="middle" x="982.5" y="-48.8" font-family="Arial" font-size="14.00" fill="#cfffac">../functions/Map.ts</text>
</g>
<!-- ../Log.ts&#45;&gt;../functions/Map.ts -->
<g id="edge9" class="edge">
<title>../Log.ts&#45;&gt;../functions/Map.ts</title>
<path fill="none" stroke="#757575" d="M826.22,-84.05C850.38,-79.15 884.49,-72.21 914.59,-66.1"/>
<polygon fill="#757575" stroke="#757575" points="915.52,-69.48 924.62,-64.06 914.12,-62.62 915.52,-69.48"/>
</g>
<!-- ../functions/Set.ts -->
<g id="node12" class="node">
<title>../functions/Set.ts</title>
<path fill="none" stroke="#cfffac" d="M1034.83,-23C1034.83,-23 930.17,-23 930.17,-23 926.33,-23 922.5,-19.17 922.5,-15.33 922.5,-15.33 922.5,-7.67 922.5,-7.67 922.5,-3.83 926.33,0 930.17,0 930.17,0 1034.83,0 1034.83,0 1038.67,0 1042.5,-3.83 1042.5,-7.67 1042.5,-7.67 1042.5,-15.33 1042.5,-15.33 1042.5,-19.17 1038.67,-23 1034.83,-23"/>
<text text-anchor="middle" x="982.5" y="-7.8" font-family="Arial" font-size="14.00" fill="#cfffac">../functions/Set.ts</text>
</g>
<!-- ../Log.ts&#45;&gt;../functions/Set.ts -->
<g id="edge10" class="edge">
<title>../Log.ts&#45;&gt;../functions/Set.ts</title>
<path fill="none" stroke="#757575" d="M809.33,-78.95C827.23,-65.57 858.71,-43.79 889,-31.5 896.47,-28.47 904.47,-25.87 912.53,-23.64"/>
<polygon fill="#757575" stroke="#757575" points="913.55,-26.99 922.35,-21.1 911.8,-20.21 913.55,-26.99"/>
</g>
<!-- ../Observable.ts&#45;&gt;../Debug.ts -->
<g id="edge11" class="edge">
<title>../Observable.ts&#45;&gt;../Debug.ts</title>
<path fill="none" stroke="#757575" d="M1038.67,-348.5C1059.02,-348.5 1081.96,-348.5 1101.84,-348.5"/>
<polygon fill="#757575" stroke="#757575" points="1101.93,-352 1111.93,-348.5 1101.93,-345 1101.93,-352"/>
</g>
<!-- ../Monad.ts -->
<g id="node13" class="node">
<title>../Monad.ts</title>
<path fill="none" stroke="#cfffac" d="M827.83,-447C827.83,-447 759.17,-447 759.17,-447 755.33,-447 751.5,-443.17 751.5,-439.33 751.5,-439.33 751.5,-431.67 751.5,-431.67 751.5,-427.83 755.33,-424 759.17,-424 759.17,-424 827.83,-424 827.83,-424 831.67,-424 835.5,-427.83 835.5,-431.67 835.5,-431.67 835.5,-439.33 835.5,-439.33 835.5,-443.17 831.67,-447 827.83,-447"/>
<text text-anchor="middle" x="793.5" y="-431.8" font-family="Arial" font-size="14.00" fill="#cfffac">../Monad.ts</text>
</g>
<!-- ../Route.ts -->
<g id="node14" class="node">
<title>../Route.ts</title>
<path fill="none" stroke="#c6c5fe" d="M497.33,-102C497.33,-102 434.67,-102 434.67,-102 430.83,-102 427,-98.17 427,-94.33 427,-94.33 427,-86.67 427,-86.67 427,-82.83 430.83,-79 434.67,-79 434.67,-79 497.33,-79 497.33,-79 501.17,-79 505,-82.83 505,-86.67 505,-86.67 505,-94.33 505,-94.33 505,-98.17 501.17,-102 497.33,-102"/>
<text text-anchor="middle" x="466" y="-86.8" font-family="Arial" font-size="14.00" fill="#c6c5fe">../Route.ts</text>
</g>
<!-- ../globals.ts -->
<g id="node15" class="node">
<title>../globals.ts</title>
<path fill="none" stroke="#cfffac" d="M659.83,-61C659.83,-61 590.17,-61 590.17,-61 586.33,-61 582.5,-57.17 582.5,-53.33 582.5,-53.33 582.5,-45.67 582.5,-45.67 582.5,-41.83 586.33,-38 590.17,-38 590.17,-38 659.83,-38 659.83,-38 663.67,-38 667.5,-41.83 667.5,-45.67 667.5,-45.67 667.5,-53.33 667.5,-53.33 667.5,-57.17 663.67,-61 659.83,-61"/>
<text text-anchor="middle" x="625" y="-45.8" font-family="Arial" font-size="14.00" fill="#cfffac">../globals.ts</text>
</g>
<!-- ../Route.ts&#45;&gt;../globals.ts -->
<g id="edge12" class="edge">
<title>../Route.ts&#45;&gt;../globals.ts</title>
<path fill="none" stroke="#757575" d="M505.01,-80.58C525.31,-75.27 550.59,-68.67 572.62,-62.92"/>
<polygon fill="#757575" stroke="#757575" points="573.7,-66.25 582.49,-60.34 571.93,-59.48 573.7,-66.25"/>
</g>
<!-- ../util.ts -->
<g id="node16" class="node">
<title>../util.ts</title>
<path fill="none" stroke="#c6c5fe" d="M646.83,-102C646.83,-102 603.17,-102 603.17,-102 599.33,-102 595.5,-98.17 595.5,-94.33 595.5,-94.33 595.5,-86.67 595.5,-86.67 595.5,-82.83 599.33,-79 603.17,-79 603.17,-79 646.83,-79 646.83,-79 650.67,-79 654.5,-82.83 654.5,-86.67 654.5,-86.67 654.5,-94.33 654.5,-94.33 654.5,-98.17 650.67,-102 646.83,-102"/>
<text text-anchor="middle" x="625" y="-86.8" font-family="Arial" font-size="14.00" fill="#c6c5fe">../util.ts</text>
</g>
<!-- ../Route.ts&#45;&gt;../util.ts -->
<g id="edge13" class="edge">
<title>../Route.ts&#45;&gt;../util.ts</title>
<path fill="none" stroke="#757575" d="M505.01,-90.5C529.3,-90.5 560.73,-90.5 585.19,-90.5"/>
<polygon fill="#757575" stroke="#757575" points="585.2,-94 595.2,-90.5 585.2,-87 585.2,-94"/>
</g>
<!-- ../util.ts&#45;&gt;../Three.ts -->
<g id="edge18" class="edge">
<title>../util.ts&#45;&gt;../Three.ts</title>
<path fill="none" stroke="#757575" d="M654.62,-97.55C679.41,-103.65 715.76,-112.6 744.91,-119.78"/>
<polygon fill="#757575" stroke="#757575" points="744.35,-123.25 754.9,-122.24 746.02,-116.45 744.35,-123.25"/>
</g>
<!-- ../util.ts&#45;&gt;../Log.ts -->
<g id="edge17" class="edge">
<title>../util.ts&#45;&gt;../Log.ts</title>
<path fill="none" stroke="#757575" d="M654.62,-90.5C681.07,-90.5 720.69,-90.5 750.68,-90.5"/>
<polygon fill="#757575" stroke="#757575" points="750.85,-94 760.85,-90.5 750.85,-87 750.85,-94"/>
</g>
<!-- ../constants.ts -->
<g id="node17" class="node">
<title>../constants.ts</title>
<path fill="none" stroke="#c6c5fe" d="M508.33,-203C508.33,-203 423.67,-203 423.67,-203 419.83,-203 416,-199.17 416,-195.33 416,-195.33 416,-187.67 416,-187.67 416,-183.83 419.83,-180 423.67,-180 423.67,-180 508.33,-180 508.33,-180 512.17,-180 516,-183.83 516,-187.67 516,-187.67 516,-195.33 516,-195.33 516,-199.17 512.17,-203 508.33,-203"/>
<text text-anchor="middle" x="466" y="-187.8" font-family="Arial" font-size="14.00" fill="#c6c5fe">../constants.ts</text>
</g>
<!-- ../constants.ts&#45;&gt;../HeadingDirection.ts -->
<g id="edge14" class="edge">
<title>../constants.ts&#45;&gt;../HeadingDirection.ts</title>
<path fill="none" stroke="#757575" d="M516.25,-197.77C524.48,-198.82 533.21,-199.93 542,-201.05"/>
<polygon fill="#757575" stroke="#757575" points="541.57,-204.53 551.93,-202.32 542.45,-197.58 541.57,-204.53"/>
</g>
<!-- ../constants.ts&#45;&gt;../Three.ts -->
<g id="edge16" class="edge">
<title>../constants.ts&#45;&gt;../Three.ts</title>
<path fill="none" stroke="#757575" d="M516.21,-183.52C563.05,-175.8 635.45,-163.53 698,-151.5 713.25,-148.57 729.84,-145.14 744.8,-141.96"/>
<polygon fill="#757575" stroke="#757575" points="745.81,-145.32 754.86,-139.8 744.35,-138.47 745.81,-145.32"/>
</g>
<!-- ../constants.ts&#45;&gt;../Input.ts -->
<g id="edge15" class="edge">
<title>../constants.ts&#45;&gt;../Input.ts</title>
<path fill="none" stroke="#757575" d="M495.24,-179.93C511.74,-173.23 532.99,-164.73 552,-157.5 561.6,-153.85 571.96,-150.03 581.75,-146.49"/>
<polygon fill="#757575" stroke="#757575" points="583.08,-149.73 591.3,-143.04 580.7,-143.14 583.08,-149.73"/>
</g>
<!-- Evaluator.ts -->
<g id="node18" class="node">
<title>Evaluator.ts</title>
<path fill="none" stroke="#c6c5fe" d="M501.83,-729C501.83,-729 430.17,-729 430.17,-729 426.33,-729 422.5,-725.17 422.5,-721.33 422.5,-721.33 422.5,-713.67 422.5,-713.67 422.5,-709.83 426.33,-706 430.17,-706 430.17,-706 501.83,-706 501.83,-706 505.67,-706 509.5,-709.83 509.5,-713.67 509.5,-713.67 509.5,-721.33 509.5,-721.33 509.5,-725.17 505.67,-729 501.83,-729"/>
<text text-anchor="middle" x="466" y="-713.8" font-family="Arial" font-size="14.00" fill="#c6c5fe">Evaluator.ts</text>
</g>
<!-- Evaluator.ts&#45;&gt;../Error.ts -->
<g id="edge19" class="edge">
<title>Evaluator.ts&#45;&gt;../Error.ts</title>
<path fill="none" stroke="#757575" d="M509.65,-717.29C571.85,-716.99 691.06,-716.5 792.5,-716.5 792.5,-716.5 792.5,-716.5 983.5,-716.5 1077.71,-716.5 1124.63,-755.25 1194,-691.5 1241.7,-647.67 1258.84,-439.07 1263.24,-370.44"/>
<polygon fill="#757575" stroke="#757575" points="1266.75,-370.53 1263.86,-360.34 1259.76,-370.1 1266.75,-370.53"/>
</g>
<!-- EventType.ts -->
<g id="node19" class="node">
<title>EventType.ts</title>
<path fill="none" stroke="#cfffac" d="M505.83,-497C505.83,-497 426.17,-497 426.17,-497 422.33,-497 418.5,-493.17 418.5,-489.33 418.5,-489.33 418.5,-481.67 418.5,-481.67 418.5,-477.83 422.33,-474 426.17,-474 426.17,-474 505.83,-474 505.83,-474 509.67,-474 513.5,-477.83 513.5,-481.67 513.5,-481.67 513.5,-489.33 513.5,-489.33 513.5,-493.17 509.67,-497 505.83,-497"/>
<text text-anchor="middle" x="466" y="-481.8" font-family="Arial" font-size="14.00" fill="#cfffac">EventType.ts</text>
</g>
<!-- Interpolator.ts -->
<g id="node20" class="node">
<title>Interpolator.ts</title>
<path fill="none" stroke="#c6c5fe" d="M280.83,-691C280.83,-691 198.17,-691 198.17,-691 194.33,-691 190.5,-687.17 190.5,-683.33 190.5,-683.33 190.5,-675.67 190.5,-675.67 190.5,-671.83 194.33,-668 198.17,-668 198.17,-668 280.83,-668 280.83,-668 284.67,-668 288.5,-671.83 288.5,-675.67 288.5,-675.67 288.5,-683.33 288.5,-683.33 288.5,-687.17 284.67,-691 280.83,-691"/>
<text text-anchor="middle" x="239.5" y="-675.8" font-family="Arial" font-size="14.00" fill="#c6c5fe">Interpolator.ts</text>
</g>
<!-- Interpolator.ts&#45;&gt;../Error.ts -->
<g id="edge20" class="edge">
<title>Interpolator.ts&#45;&gt;../Error.ts</title>
<path fill="none" stroke="#757575" d="M288.63,-679.09C361.29,-678.5 503.32,-677.5 624,-677.5 624,-677.5 624,-677.5 983.5,-677.5 1145.69,-677.5 1234.18,-443.46 1257.92,-370.17"/>
<polygon fill="#757575" stroke="#757575" points="1261.39,-370.8 1261.06,-360.21 1254.72,-368.69 1261.39,-370.8"/>
</g>
<!-- Interpolator.ts&#45;&gt;Evaluator.ts -->
<g id="edge21" class="edge">
<title>Interpolator.ts&#45;&gt;Evaluator.ts</title>
<path fill="none" stroke="#757575" d="M288.66,-687.65C324.93,-693.79 374.63,-702.2 412.03,-708.53"/>
<polygon fill="#757575" stroke="#757575" points="411.78,-712.04 422.22,-710.26 412.95,-705.14 411.78,-712.04"/>
</g>
<!-- collections.ts -->
<g id="node21" class="node">
<title>collections.ts</title>
<path fill="none" stroke="#c6c5fe" d="M505.33,-417C505.33,-417 426.67,-417 426.67,-417 422.83,-417 419,-413.17 419,-409.33 419,-409.33 419,-401.67 419,-401.67 419,-397.83 422.83,-394 426.67,-394 426.67,-394 505.33,-394 505.33,-394 509.17,-394 513,-397.83 513,-401.67 513,-401.67 513,-409.33 513,-409.33 513,-413.17 509.17,-417 505.33,-417"/>
<text text-anchor="middle" x="466" y="-401.8" font-family="Arial" font-size="14.00" fill="#c6c5fe">collections.ts</text>
</g>
<!-- Interpolator.ts&#45;&gt;collections.ts -->
<g id="edge22" class="edge">
<title>Interpolator.ts&#45;&gt;collections.ts</title>
<path fill="none" stroke="#757575" d="M255.73,-667.98C283.49,-646.35 342.88,-597.09 380,-544.5 402.25,-512.98 395.63,-498.27 416,-465.5 425.03,-450.98 437.17,-436.08 447.12,-424.76"/>
<polygon fill="#757575" stroke="#757575" points="449.82,-426.99 453.89,-417.21 444.61,-422.32 449.82,-426.99"/>
</g>
<!-- collections.ts&#45;&gt;../Observable.ts -->
<g id="edge24" class="edge">
<title>collections.ts&#45;&gt;../Observable.ts</title>
<path fill="none" stroke="#757575" d="M513.11,-400.39C604.89,-390.22 810.67,-367.43 916.26,-355.73"/>
<polygon fill="#757575" stroke="#757575" points="916.92,-359.18 926.47,-354.6 916.15,-352.22 916.92,-359.18"/>
</g>
<!-- Island.ts -->
<g id="node22" class="node">
<title>Island.ts</title>
<path fill="none" stroke="#c6c5fe" d="M650.83,-447C650.83,-447 599.17,-447 599.17,-447 595.33,-447 591.5,-443.17 591.5,-439.33 591.5,-439.33 591.5,-431.67 591.5,-431.67 591.5,-427.83 595.33,-424 599.17,-424 599.17,-424 650.83,-424 650.83,-424 654.67,-424 658.5,-427.83 658.5,-431.67 658.5,-431.67 658.5,-439.33 658.5,-439.33 658.5,-443.17 654.67,-447 650.83,-447"/>
<text text-anchor="middle" x="625" y="-431.8" font-family="Arial" font-size="14.00" fill="#c6c5fe">Island.ts</text>
</g>
<!-- collections.ts&#45;&gt;Island.ts -->
<g id="edge25" class="edge">
<title>collections.ts&#45;&gt;Island.ts</title>
<path fill="none" stroke="#757575" d="M513.26,-414.34C534.71,-418.44 560.05,-423.28 581.08,-427.3"/>
<polygon fill="#757575" stroke="#757575" points="580.54,-430.76 591.02,-429.2 581.85,-423.88 580.54,-430.76"/>
</g>
<!-- Island.ts&#45;&gt;../Monad.ts -->
<g id="edge23" class="edge">
<title>Island.ts&#45;&gt;../Monad.ts</title>
<path fill="none" stroke="#757575" d="M658.9,-435.5C682.43,-435.5 714.55,-435.5 741.4,-435.5"/>
<polygon fill="#757575" stroke="#757575" points="741.41,-439 751.41,-435.5 741.41,-432 741.41,-439"/>
</g>
<!-- directives/RouteDirective.ts -->
<g id="node23" class="node">
<title>directives/RouteDirective.ts</title>
<path fill="none" stroke="#c6c5fe" d="M321.83,-181C321.83,-181 157.17,-181 157.17,-181 153.33,-181 149.5,-177.17 149.5,-173.33 149.5,-173.33 149.5,-165.67 149.5,-165.67 149.5,-161.83 153.33,-158 157.17,-158 157.17,-158 321.83,-158 321.83,-158 325.67,-158 329.5,-161.83 329.5,-165.67 329.5,-165.67 329.5,-173.33 329.5,-173.33 329.5,-177.17 325.67,-181 321.83,-181"/>
<text text-anchor="middle" x="239.5" y="-165.8" font-family="Arial" font-size="14.00" fill="#c6c5fe">directives/RouteDirective.ts</text>
</g>
<!-- directives/RouteDirective.ts&#45;&gt;../Route.ts -->
<g id="edge26" class="edge">
<title>directives/RouteDirective.ts&#45;&gt;../Route.ts</title>
<path fill="none" stroke="#757575" d="M273.63,-157.84C313.12,-143.95 379.19,-120.69 422.44,-105.48"/>
<polygon fill="#757575" stroke="#757575" points="423.83,-108.7 432.1,-102.08 421.51,-102.09 423.83,-108.7"/>
</g>
<!-- events.ts -->
<g id="node24" class="node">
<title>events.ts</title>
<path fill="none" stroke="#c6c5fe" d="M267.33,-535C267.33,-535 211.67,-535 211.67,-535 207.83,-535 204,-531.17 204,-527.33 204,-527.33 204,-519.67 204,-519.67 204,-515.83 207.83,-512 211.67,-512 211.67,-512 267.33,-512 267.33,-512 271.17,-512 275,-515.83 275,-519.67 275,-519.67 275,-527.33 275,-527.33 275,-531.17 271.17,-535 267.33,-535"/>
<text text-anchor="middle" x="239.5" y="-519.8" font-family="Arial" font-size="14.00" fill="#c6c5fe">events.ts</text>
</g>
<!-- events.ts&#45;&gt;EventType.ts -->
<g id="edge27" class="edge">
<title>events.ts&#45;&gt;EventType.ts</title>
<path fill="none" stroke="#757575" d="M275.09,-517.65C310.54,-511.65 366.26,-502.21 408.2,-495.11"/>
<polygon fill="#757575" stroke="#757575" points="408.99,-498.53 418.27,-493.41 407.83,-491.63 408.99,-498.53"/>
</g>
<!-- events.ts&#45;&gt;Island.ts -->
<g id="edge28" class="edge">
<title>events.ts&#45;&gt;Island.ts</title>
<path fill="none" stroke="#757575" d="M275.07,-526.94C328.34,-531.01 433.03,-534.14 516,-506.5 549.68,-495.28 582.98,-470.81 603.5,-453.76"/>
<polygon fill="#757575" stroke="#757575" points="605.88,-456.33 611.23,-447.18 601.34,-451 605.88,-456.33"/>
</g>
<!-- functions/createIslandElementConstructor.ts -->
<g id="node25" class="node">
<title>functions/createIslandElementConstructor.ts</title>
<path fill="none" stroke="#c6c5fe" d="M372.33,-320C372.33,-320 106.67,-320 106.67,-320 102.83,-320 99,-316.17 99,-312.33 99,-312.33 99,-304.67 99,-304.67 99,-300.83 102.83,-297 106.67,-297 106.67,-297 372.33,-297 372.33,-297 376.17,-297 380,-300.83 380,-304.67 380,-304.67 380,-312.33 380,-312.33 380,-316.17 376.17,-320 372.33,-320"/>
<text text-anchor="middle" x="239.5" y="-304.8" font-family="Arial" font-size="14.00" fill="#c6c5fe">functions/createIslandElementConstructor.ts</text>
</g>
<!-- functions/createIslandElementConstructor.ts&#45;&gt;../Error.ts -->
<g id="edge29" class="edge">
<title>functions/createIslandElementConstructor.ts&#45;&gt;../Error.ts</title>
<path fill="none" stroke="#757575" d="M287.4,-296.97C359.34,-280.31 501.49,-251.5 624,-251.5 624,-251.5 624,-251.5 983.5,-251.5 1080.95,-251.5 1187.53,-304.28 1236.74,-331.97"/>
<polygon fill="#757575" stroke="#757575" points="1235.11,-335.07 1245.53,-336.99 1238.58,-328.99 1235.11,-335.07"/>
</g>
<!-- functions/createIslandElementConstructor.ts&#45;&gt;../Observable.ts -->
<g id="edge31" class="edge">
<title>functions/createIslandElementConstructor.ts&#45;&gt;../Observable.ts</title>
<path fill="none" stroke="#757575" d="M380.31,-316.05C540.68,-324.7 796.8,-338.53 916.23,-344.98"/>
<polygon fill="#757575" stroke="#757575" points="916.14,-348.48 926.32,-345.52 916.52,-341.49 916.14,-348.48"/>
</g>
<!-- functions/createIslandElementConstructor.ts&#45;&gt;../Monad.ts -->
<g id="edge30" class="edge">
<title>functions/createIslandElementConstructor.ts&#45;&gt;../Monad.ts</title>
<path fill="none" stroke="#757575" d="M343.58,-320.02C395.63,-326.8 459.55,-336.6 516,-349.5 601.12,-368.95 698.02,-401.6 751.53,-420.58"/>
<polygon fill="#757575" stroke="#757575" points="750.41,-423.89 761,-423.96 752.76,-417.3 750.41,-423.89"/>
</g>
<!-- functions/createIslandElementConstructor.ts&#45;&gt;../util.ts -->
<g id="edge33" class="edge">
<title>functions/createIslandElementConstructor.ts&#45;&gt;../util.ts</title>
<path fill="none" stroke="#757575" d="M252.89,-296.93C280.51,-271.58 349.88,-210.22 416,-170.5 472.63,-136.48 489.79,-132.73 552,-110.5 562.76,-106.66 574.63,-103.09 585.58,-100.07"/>
<polygon fill="#757575" stroke="#757575" points="586.57,-103.42 595.32,-97.45 584.75,-96.66 586.57,-103.42"/>
</g>
<!-- functions/createIslandElementConstructor.ts&#45;&gt;../constants.ts -->
<g id="edge32" class="edge">
<title>functions/createIslandElementConstructor.ts&#45;&gt;../constants.ts</title>
<path fill="none" stroke="#757575" d="M262.85,-296.85C303.11,-275.87 387.89,-231.69 433.83,-207.74"/>
<polygon fill="#757575" stroke="#757575" points="435.49,-210.82 442.74,-203.1 432.26,-204.62 435.49,-210.82"/>
</g>
<!-- functions/createIslandElementConstructor.ts&#45;&gt;collections.ts -->
<g id="edge35" class="edge">
<title>functions/createIslandElementConstructor.ts&#45;&gt;collections.ts</title>
<path fill="none" stroke="#757575" d="M267.13,-320.01C307.28,-337.35 383.4,-370.24 428.62,-389.78"/>
<polygon fill="#757575" stroke="#757575" points="427.48,-393.1 438.05,-393.86 430.26,-386.68 427.48,-393.1"/>
</g>
<!-- functions/createIslandElementConstructor.ts&#45;&gt;Island.ts -->
<g id="edge34" class="edge">
<title>functions/createIslandElementConstructor.ts&#45;&gt;Island.ts</title>
<path fill="none" stroke="#757575" d="M291.04,-320.03C346.89,-333.37 439.11,-357.17 516,-385.5 542.4,-395.23 571.26,-408.75 592.51,-419.28"/>
<polygon fill="#757575" stroke="#757575" points="591.19,-422.53 601.69,-423.88 594.32,-416.27 591.19,-422.53"/>
</g>
<!-- index.ts -->
<g id="node26" class="node">
<title>index.ts</title>
<path fill="none" stroke="#c6c5fe" d="M55.33,-575C55.33,-575 7.67,-575 7.67,-575 3.83,-575 0,-571.17 0,-567.33 0,-567.33 0,-559.67 0,-559.67 0,-555.83 3.83,-552 7.67,-552 7.67,-552 55.33,-552 55.33,-552 59.17,-552 63,-555.83 63,-559.67 63,-559.67 63,-567.33 63,-567.33 63,-571.17 59.17,-575 55.33,-575"/>
<text text-anchor="middle" x="31.5" y="-559.8" font-family="Arial" font-size="14.00" fill="#c6c5fe">index.ts</text>
</g>
<!-- index.ts&#45;&gt;../Error.ts -->
<g id="edge36" class="edge">
<title>index.ts&#45;&gt;../Error.ts</title>
<path fill="none" stroke="#757575" d="M33.27,-575.01C36.01,-605.58 48.03,-689.02 99,-726.5 230.53,-823.2 301.75,-757.5 465,-757.5 465,-757.5 465,-757.5 983.5,-757.5 1078.27,-757.5 1126.13,-789.64 1194,-723.5 1245,-673.8 1260.06,-443.08 1263.58,-370.45"/>
<polygon fill="#757575" stroke="#757575" points="1267.09,-370.35 1264.05,-360.21 1260.09,-370.03 1267.09,-370.35"/>
</g>
<!-- index.ts&#45;&gt;../Observable.ts -->
<g id="edge38" class="edge">
<title>index.ts&#45;&gt;../Observable.ts</title>
<path fill="none" stroke="#757575" d="M63.1,-568.05C133.72,-578.13 313.68,-601.5 465,-601.5 465,-601.5 465,-601.5 626,-601.5 786.68,-601.5 925.15,-427.81 967.9,-368.26"/>
<polygon fill="#757575" stroke="#757575" points="970.81,-370.21 973.72,-360.03 965.09,-366.17 970.81,-370.21"/>
</g>
<!-- index.ts&#45;&gt;../collections/InstanceMap.ts -->
<g id="edge39" class="edge">
<title>index.ts&#45;&gt;../collections/InstanceMap.ts</title>
<path fill="none" stroke="#757575" d="M42.95,-575.05C55.06,-587.54 76.27,-606.83 99,-615.5 251.3,-673.62 301.98,-639.5 465,-639.5 465,-639.5 465,-639.5 626,-639.5 727.45,-639.5 759.1,-653.9 853,-615.5 898.72,-596.81 941.46,-556.64 964.28,-532.67"/>
<polygon fill="#757575" stroke="#757575" points="966.97,-534.91 971.23,-525.21 961.85,-530.14 966.97,-534.91"/>
</g>
<!-- index.ts&#45;&gt;../Monad.ts -->
<g id="edge37" class="edge">
<title>index.ts&#45;&gt;../Monad.ts</title>
<path fill="none" stroke="#757575" d="M63.22,-564.47C140.39,-566.22 348.22,-566.8 516,-529.5 604.11,-509.91 703.39,-472.11 755.69,-450.9"/>
<polygon fill="#757575" stroke="#757575" points="757.27,-454.03 765.21,-447.01 754.63,-447.55 757.27,-454.03"/>
</g>
<!-- index.ts&#45;&gt;Evaluator.ts -->
<g id="edge40" class="edge">
<title>index.ts&#45;&gt;Evaluator.ts</title>
<path fill="none" stroke="#757575" d="M34.18,-575.29C38.78,-602.8 54.41,-671.11 99,-700.5 149.01,-733.45 323.46,-727.13 412.23,-721.48"/>
<polygon fill="#757575" stroke="#757575" points="412.61,-724.96 422.36,-720.81 412.15,-717.97 412.61,-724.96"/>
</g>
<!-- index.ts&#45;&gt;Interpolator.ts -->
<g id="edge41" class="edge">
<title>index.ts&#45;&gt;Interpolator.ts</title>
<path fill="none" stroke="#757575" d="M37.53,-575.07C46.69,-594.67 68.04,-634.12 99,-653.5 123.06,-668.56 153.71,-675.33 180.16,-678.22"/>
<polygon fill="#757575" stroke="#757575" points="180.16,-681.74 190.44,-679.18 180.81,-674.77 180.16,-681.74"/>
</g>
<!-- index.ts&#45;&gt;collections.ts -->
<g id="edge43" class="edge">
<title>index.ts&#45;&gt;collections.ts</title>
<path fill="none" stroke="#757575" d="M34.45,-551.8C39.56,-525.16 56.07,-460.09 99,-431.5 192.87,-368.98 331.96,-380.5 408.83,-393.56"/>
<polygon fill="#757575" stroke="#757575" points="408.34,-397.02 418.79,-395.32 409.55,-390.13 408.34,-397.02"/>
</g>
<!-- index.ts&#45;&gt;Island.ts -->
<g id="edge42" class="edge">
<title>index.ts&#45;&gt;Island.ts</title>
<path fill="none" stroke="#757575" d="M41.43,-551.97C53.04,-537.92 74.71,-514.68 99,-503.5 264.6,-427.27 488.76,-428.34 581.32,-432.69"/>
<polygon fill="#757575" stroke="#757575" points="581.26,-436.2 591.42,-433.21 581.61,-429.21 581.26,-436.2"/>
</g>
<!-- index.ts&#45;&gt;directives/RouteDirective.ts -->
<g id="edge44" class="edge">
<title>index.ts&#45;&gt;directives/RouteDirective.ts</title>
<path fill="none" stroke="#757575" d="M32.81,-551.8C34.35,-511.91 43.59,-378.69 99,-288.5 126.68,-243.45 177.17,-206.76 209.21,-186.55"/>
<polygon fill="#757575" stroke="#757575" points="211.45,-189.28 218.13,-181.05 207.78,-183.32 211.45,-189.28"/>
</g>
<!-- index.ts&#45;&gt;events.ts -->
<g id="edge45" class="edge">
<title>index.ts&#45;&gt;events.ts</title>
<path fill="none" stroke="#757575" d="M63.26,-556.87C74.5,-554.49 87.31,-551.82 99,-549.5 130.61,-543.23 166.33,-536.58 193.71,-531.57"/>
<polygon fill="#757575" stroke="#757575" points="194.56,-534.98 203.77,-529.74 193.31,-528.09 194.56,-534.98"/>
</g>
<!-- index.ts&#45;&gt;functions/createIslandElementConstructor.ts -->
<g id="edge46" class="edge">
<title>index.ts&#45;&gt;functions/createIslandElementConstructor.ts</title>
<path fill="none" stroke="#757575" d="M34.36,-551.79C39.6,-522.06 56.94,-442.45 99,-392.5 125.65,-360.85 167.42,-337.93 198.32,-324.11"/>
<polygon fill="#757575" stroke="#757575" points="199.75,-327.3 207.53,-320.11 196.96,-320.88 199.75,-327.3"/>
</g>
</g>
</svg>
