<?xml version="1.0" encoding="UTF-8" standalone="no"?>
<!DOCTYPE svg PUBLIC "-//W3C//DTD SVG 1.1//EN"
 "http://www.w3.org/Graphics/SVG/1.1/DTD/svg11.dtd">
<!-- Generated by graphviz version 2.43.0 (0)
 -->
<!-- Title: G Pages: 1 -->
<svg width="1838pt" height="759pt"
 viewBox="0.00 0.00 1838.20 758.64" xmlns="http://www.w3.org/2000/svg" xmlns:xlink="http://www.w3.org/1999/xlink">
<g id="graph0" class="graph" transform="scale(1 1) rotate(0) translate(21.6 737.04)">
<title>G</title>
<polygon fill="#111111" stroke="transparent" points="-21.6,21.6 -21.6,-737.04 1816.6,-737.04 1816.6,21.6 -21.6,21.6"/>
<!-- ../Animation.ts -->
<g id="node1" class="node">
<title>../Animation.ts</title>
<path fill="none" stroke="#cfffac" d="M1339.33,-206.5C1339.33,-206.5 1251.67,-206.5 1251.67,-206.5 1247.83,-206.5 1244,-202.67 1244,-198.83 1244,-198.83 1244,-191.17 1244,-191.17 1244,-187.33 1247.83,-183.5 1251.67,-183.5 1251.67,-183.5 1339.33,-183.5 1339.33,-183.5 1343.17,-183.5 1347,-187.33 1347,-191.17 1347,-191.17 1347,-198.83 1347,-198.83 1347,-202.67 1343.17,-206.5 1339.33,-206.5"/>
<text text-anchor="middle" x="1295.5" y="-191.3" font-family="Arial" font-size="14.00" fill="#cfffac">../Animation.ts</text>
</g>
<!-- ../Component.ts -->
<g id="node2" class="node">
<title>../Component.ts</title>
<path fill="none" stroke="#ff6c60" d="M738.33,-471.5C738.33,-471.5 640.67,-471.5 640.67,-471.5 636.83,-471.5 633,-467.67 633,-463.83 633,-463.83 633,-456.17 633,-456.17 633,-452.33 636.83,-448.5 640.67,-448.5 640.67,-448.5 738.33,-448.5 738.33,-448.5 742.17,-448.5 746,-452.33 746,-456.17 746,-456.17 746,-463.83 746,-463.83 746,-467.67 742.17,-471.5 738.33,-471.5"/>
<text text-anchor="middle" x="689.5" y="-456.3" font-family="Arial" font-size="14.00" fill="#ff6c60">../Component.ts</text>
</g>
<!-- ../Entity.ts -->
<g id="node3" class="node">
<title>../Entity.ts</title>
<path fill="none" stroke="#ff6c60" d="M884.83,-570.5C884.83,-570.5 825.17,-570.5 825.17,-570.5 821.33,-570.5 817.5,-566.67 817.5,-562.83 817.5,-562.83 817.5,-555.17 817.5,-555.17 817.5,-551.33 821.33,-547.5 825.17,-547.5 825.17,-547.5 884.83,-547.5 884.83,-547.5 888.67,-547.5 892.5,-551.33 892.5,-555.17 892.5,-555.17 892.5,-562.83 892.5,-562.83 892.5,-566.67 888.67,-570.5 884.83,-570.5"/>
<text text-anchor="middle" x="855" y="-555.3" font-family="Arial" font-size="14.00" fill="#ff6c60">../Entity.ts</text>
</g>
<!-- ../Component.ts&#45;&gt;../Entity.ts -->
<g id="edge1" class="edge">
<title>../Component.ts&#45;&gt;../Entity.ts</title>
<path fill="none" stroke="#757575" d="M702.29,-471.55C718.88,-487.27 750.61,-515.44 782,-533 790.09,-537.53 799.12,-541.52 807.98,-544.93"/>
<polygon fill="#757575" stroke="#757575" points="806.87,-548.25 817.46,-548.4 809.27,-541.67 806.87,-548.25"/>
</g>
<!-- ../Error.ts -->
<g id="node4" class="node">
<title>../Error.ts</title>
<path fill="none" stroke="#cfffac" d="M1787.33,-379.5C1787.33,-379.5 1731.67,-379.5 1731.67,-379.5 1727.83,-379.5 1724,-375.67 1724,-371.83 1724,-371.83 1724,-364.17 1724,-364.17 1724,-360.33 1727.83,-356.5 1731.67,-356.5 1731.67,-356.5 1787.33,-356.5 1787.33,-356.5 1791.17,-356.5 1795,-360.33 1795,-364.17 1795,-364.17 1795,-371.83 1795,-371.83 1795,-375.67 1791.17,-379.5 1787.33,-379.5"/>
<text text-anchor="middle" x="1759.5" y="-364.3" font-family="Arial" font-size="14.00" fill="#cfffac">../Error.ts</text>
</g>
<!-- ../Component.ts&#45;&gt;../Error.ts -->
<g id="edge2" class="edge">
<title>../Component.ts&#45;&gt;../Error.ts</title>
<path fill="none" stroke="#757575" d="M716.44,-448.38C734.5,-440.72 759.31,-431.02 782,-425 888.72,-396.67 917.09,-387 1027.5,-387 1027.5,-387 1027.5,-387 1477.5,-387 1561.1,-387 1658.38,-378.52 1713.77,-372.89"/>
<polygon fill="#757575" stroke="#757575" points="1714.36,-376.35 1723.94,-371.84 1713.64,-369.39 1714.36,-376.35"/>
</g>
<!-- ../Observable.ts -->
<g id="node5" class="node">
<title>../Observable.ts</title>
<path fill="none" stroke="#c6c5fe" d="M1524.83,-514.5C1524.83,-514.5 1428.17,-514.5 1428.17,-514.5 1424.33,-514.5 1420.5,-510.67 1420.5,-506.83 1420.5,-506.83 1420.5,-499.17 1420.5,-499.17 1420.5,-495.33 1424.33,-491.5 1428.17,-491.5 1428.17,-491.5 1524.83,-491.5 1524.83,-491.5 1528.67,-491.5 1532.5,-495.33 1532.5,-499.17 1532.5,-499.17 1532.5,-506.83 1532.5,-506.83 1532.5,-510.67 1528.67,-514.5 1524.83,-514.5"/>
<text text-anchor="middle" x="1476.5" y="-499.3" font-family="Arial" font-size="14.00" fill="#c6c5fe">../Observable.ts</text>
</g>
<!-- ../Component.ts&#45;&gt;../Observable.ts -->
<g id="edge3" class="edge">
<title>../Component.ts&#45;&gt;../Observable.ts</title>
<path fill="none" stroke="#757575" d="M746.07,-450.67C812.73,-440.3 927.94,-425 1027.5,-425 1027.5,-425 1027.5,-425 1169.5,-425 1269.83,-425 1383.1,-464.86 1439.53,-487.59"/>
<polygon fill="#757575" stroke="#757575" points="1438.48,-490.95 1449.06,-491.49 1441.13,-484.47 1438.48,-490.95"/>
</g>
<!-- ../Query.ts -->
<g id="node6" class="node">
<title>../Query.ts</title>
<path fill="none" stroke="#ff6c60" d="M1200.33,-510.5C1200.33,-510.5 1136.67,-510.5 1136.67,-510.5 1132.83,-510.5 1129,-506.67 1129,-502.83 1129,-502.83 1129,-495.17 1129,-495.17 1129,-491.33 1132.83,-487.5 1136.67,-487.5 1136.67,-487.5 1200.33,-487.5 1200.33,-487.5 1204.17,-487.5 1208,-491.33 1208,-495.17 1208,-495.17 1208,-502.83 1208,-502.83 1208,-506.67 1204.17,-510.5 1200.33,-510.5"/>
<text text-anchor="middle" x="1168.5" y="-495.3" font-family="Arial" font-size="14.00" fill="#ff6c60">../Query.ts</text>
</g>
<!-- ../Component.ts&#45;&gt;../Query.ts -->
<g id="edge4" class="edge">
<title>../Component.ts&#45;&gt;../Query.ts</title>
<path fill="none" stroke="#757575" d="M746.15,-460.03C840.24,-464.68 1029.2,-480.2 1118.55,-490.7"/>
<polygon fill="#757575" stroke="#757575" points="1118.34,-494.2 1128.68,-491.92 1119.17,-487.25 1118.34,-494.2"/>
</g>
<!-- ../EntityManager.ts -->
<g id="node8" class="node">
<title>../EntityManager.ts</title>
<path fill="none" stroke="#ff6c60" d="M1085.33,-570.5C1085.33,-570.5 971.67,-570.5 971.67,-570.5 967.83,-570.5 964,-566.67 964,-562.83 964,-562.83 964,-555.17 964,-555.17 964,-551.33 967.83,-547.5 971.67,-547.5 971.67,-547.5 1085.33,-547.5 1085.33,-547.5 1089.17,-547.5 1093,-551.33 1093,-555.17 1093,-555.17 1093,-562.83 1093,-562.83 1093,-566.67 1089.17,-570.5 1085.33,-570.5"/>
<text text-anchor="middle" x="1028.5" y="-555.3" font-family="Arial" font-size="14.00" fill="#ff6c60">../EntityManager.ts</text>
</g>
<!-- ../Entity.ts&#45;&gt;../EntityManager.ts -->
<g id="edge6" class="edge">
<title>../Entity.ts&#45;&gt;../EntityManager.ts</title>
<path fill="none" stroke="#757575" d="M892.79,-553.34C910.55,-552.45 932.53,-552.1 953.54,-552.31"/>
<polygon fill="#757575" stroke="#757575" points="953.71,-555.81 963.76,-552.45 953.81,-548.81 953.71,-555.81"/>
</g>
<!-- ../Debug.ts -->
<g id="node7" class="node">
<title>../Debug.ts</title>
<path fill="none" stroke="#c6c5fe" d="M1680.33,-474.5C1680.33,-474.5 1613.67,-474.5 1613.67,-474.5 1609.83,-474.5 1606,-470.67 1606,-466.83 1606,-466.83 1606,-459.17 1606,-459.17 1606,-455.33 1609.83,-451.5 1613.67,-451.5 1613.67,-451.5 1680.33,-451.5 1680.33,-451.5 1684.17,-451.5 1688,-455.33 1688,-459.17 1688,-459.17 1688,-466.83 1688,-466.83 1688,-470.67 1684.17,-474.5 1680.33,-474.5"/>
<text text-anchor="middle" x="1647" y="-459.3" font-family="Arial" font-size="14.00" fill="#c6c5fe">../Debug.ts</text>
</g>
<!-- ../Observable.ts&#45;&gt;../Debug.ts -->
<g id="edge26" class="edge">
<title>../Observable.ts&#45;&gt;../Debug.ts</title>
<path fill="none" stroke="#757575" d="M1526.24,-491.43C1548.15,-486.23 1573.99,-480.09 1596.05,-474.86"/>
<polygon fill="#757575" stroke="#757575" points="1596.97,-478.24 1605.89,-472.52 1595.35,-471.43 1596.97,-478.24"/>
</g>
<!-- ../Query.ts&#45;&gt;../Component.ts -->
<g id="edge27" class="edge">
<title>../Query.ts&#45;&gt;../Component.ts</title>
<path fill="none" stroke="#757575" d="M1128.68,-499.73C1047.11,-496.52 857.14,-481.29 756.23,-470.2"/>
<polygon fill="#757575" stroke="#757575" points="756.48,-466.71 746.15,-469.07 755.7,-473.67 756.48,-466.71"/>
</g>
<!-- ../Query.ts&#45;&gt;../Entity.ts -->
<g id="edge29" class="edge">
<title>../Query.ts&#45;&gt;../Entity.ts</title>
<path fill="none" stroke="#757575" d="M1128.55,-506.5C1071.13,-517.56 963.92,-538.21 902.47,-550.05"/>
<polygon fill="#757575" stroke="#757575" points="901.81,-546.61 892.65,-551.94 903.13,-553.49 901.81,-546.61"/>
</g>
<!-- ../Query.ts&#45;&gt;../Observable.ts -->
<g id="edge31" class="edge">
<title>../Query.ts&#45;&gt;../Observable.ts</title>
<path fill="none" stroke="#757575" d="M1208.26,-499.51C1258.96,-500.17 1348.54,-501.34 1409.91,-502.14"/>
<polygon fill="#757575" stroke="#757575" points="1410.21,-505.65 1420.26,-502.28 1410.31,-498.65 1410.21,-505.65"/>
</g>
<!-- ../Query.ts&#45;&gt;../Debug.ts -->
<g id="edge28" class="edge">
<title>../Query.ts&#45;&gt;../Debug.ts</title>
<path fill="none" stroke="#757575" d="M1208.09,-496.08C1293.81,-489.61 1500.04,-474.03 1595.7,-466.8"/>
<polygon fill="#757575" stroke="#757575" points="1596,-470.29 1605.71,-466.04 1595.47,-463.31 1596,-470.29"/>
</g>
<!-- ../Query.ts&#45;&gt;../EntityManager.ts -->
<g id="edge30" class="edge">
<title>../Query.ts&#45;&gt;../EntityManager.ts</title>
<path fill="none" stroke="#757575" d="M1156.2,-510.55C1141.66,-520.14 1115.57,-532.23 1093,-542 1091.83,-542.51 1090.65,-543.01 1089.46,-543.52"/>
<polygon fill="#757575" stroke="#757575" points="1088.04,-540.32 1080.18,-547.43 1090.75,-546.78 1088.04,-540.32"/>
</g>
<!-- ../Debug.ts&#45;&gt;../Error.ts -->
<g id="edge5" class="edge">
<title>../Debug.ts&#45;&gt;../Error.ts</title>
<path fill="none" stroke="#757575" d="M1661.55,-451.35C1680.44,-435.11 1714.87,-405.51 1737.21,-386.3"/>
<polygon fill="#757575" stroke="#757575" points="1739.54,-388.92 1744.84,-379.74 1734.98,-383.61 1739.54,-388.92"/>
</g>
<!-- ../EntityManager.ts&#45;&gt;../Component.ts -->
<g id="edge7" class="edge">
<title>../EntityManager.ts&#45;&gt;../Component.ts</title>
<path fill="none" stroke="#757575" d="M976.72,-547.49C926.75,-535.76 848.48,-516.31 782,-495 763.86,-489.18 744.07,-481.76 727.56,-475.24"/>
<polygon fill="#757575" stroke="#757575" points="728.83,-471.98 718.25,-471.53 726.24,-478.49 728.83,-471.98"/>
</g>
<!-- ../EntityManager.ts&#45;&gt;../Entity.ts -->
<g id="edge8" class="edge">
<title>../EntityManager.ts&#45;&gt;../Entity.ts</title>
<path fill="none" stroke="#757575" d="M963.76,-565.55C943.57,-565.93 921.64,-565.77 902.87,-565.09"/>
<polygon fill="#757575" stroke="#757575" points="902.93,-561.59 892.79,-564.66 902.63,-568.58 902.93,-561.59"/>
</g>
<!-- ../EntityManager.ts&#45;&gt;../Error.ts -->
<g id="edge9" class="edge">
<title>../EntityManager.ts&#45;&gt;../Error.ts</title>
<path fill="none" stroke="#757575" d="M1093.14,-565.75C1146.77,-570.86 1225.56,-577 1294.5,-577 1294.5,-577 1294.5,-577 1477.5,-577 1579.78,-577 1611.13,-551.47 1688,-484 1718.2,-457.49 1739.45,-414.84 1750.27,-389.3"/>
<polygon fill="#757575" stroke="#757575" points="1753.6,-390.39 1754.14,-379.81 1747.12,-387.74 1753.6,-390.39"/>
</g>
<!-- ../EntityManager.ts&#45;&gt;../Observable.ts -->
<g id="edge10" class="edge">
<title>../EntityManager.ts&#45;&gt;../Observable.ts</title>
<path fill="none" stroke="#757575" d="M1093.4,-550.98C1177.77,-540.38 1325.52,-521.83 1410.46,-511.17"/>
<polygon fill="#757575" stroke="#757575" points="1411.01,-514.63 1420.5,-509.91 1410.14,-507.68 1411.01,-514.63"/>
</g>
<!-- ../EntityManager.ts&#45;&gt;../Query.ts -->
<g id="edge11" class="edge">
<title>../EntityManager.ts&#45;&gt;../Query.ts</title>
<path fill="none" stroke="#757575" d="M1041.73,-547.44C1054.56,-540.04 1075.29,-531.66 1093,-524 1101.62,-520.27 1110.76,-516.2 1119.57,-512.37"/>
<polygon fill="#757575" stroke="#757575" points="1121.16,-515.49 1128.96,-508.33 1118.39,-509.06 1121.16,-515.49"/>
</g>
<!-- ../util.ts -->
<g id="node9" class="node">
<title>../util.ts</title>
<path fill="none" stroke="#c6c5fe" d="M1190.33,-206.5C1190.33,-206.5 1146.67,-206.5 1146.67,-206.5 1142.83,-206.5 1139,-202.67 1139,-198.83 1139,-198.83 1139,-191.17 1139,-191.17 1139,-187.33 1142.83,-183.5 1146.67,-183.5 1146.67,-183.5 1190.33,-183.5 1190.33,-183.5 1194.17,-183.5 1198,-187.33 1198,-191.17 1198,-191.17 1198,-198.83 1198,-198.83 1198,-202.67 1194.17,-206.5 1190.33,-206.5"/>
<text text-anchor="middle" x="1168.5" y="-191.3" font-family="Arial" font-size="14.00" fill="#c6c5fe">../util.ts</text>
</g>
<!-- ../EntityManager.ts&#45;&gt;../util.ts -->
<g id="edge12" class="edge">
<title>../EntityManager.ts&#45;&gt;../util.ts</title>
<path fill="none" stroke="#757575" d="M1033.94,-547.3C1053.64,-495.32 1133.43,-284.87 1159.33,-216.54"/>
<polygon fill="#757575" stroke="#757575" points="1162.74,-217.43 1163.01,-206.84 1156.19,-214.95 1162.74,-217.43"/>
</g>
<!-- ../util.ts&#45;&gt;../Animation.ts -->
<g id="edge39" class="edge">
<title>../util.ts&#45;&gt;../Animation.ts</title>
<path fill="none" stroke="#757575" d="M1198.18,-195C1208.76,-195 1221.2,-195 1233.56,-195"/>
<polygon fill="#757575" stroke="#757575" points="1233.88,-198.5 1243.88,-195 1233.88,-191.5 1233.88,-198.5"/>
</g>
<!-- ../Log.ts -->
<g id="node12" class="node">
<title>../Log.ts</title>
<path fill="none" stroke="#c6c5fe" d="M1320.33,-247.5C1320.33,-247.5 1270.67,-247.5 1270.67,-247.5 1266.83,-247.5 1263,-243.67 1263,-239.83 1263,-239.83 1263,-232.17 1263,-232.17 1263,-228.33 1266.83,-224.5 1270.67,-224.5 1270.67,-224.5 1320.33,-224.5 1320.33,-224.5 1324.17,-224.5 1328,-228.33 1328,-232.17 1328,-232.17 1328,-239.83 1328,-239.83 1328,-243.67 1324.17,-247.5 1320.33,-247.5"/>
<text text-anchor="middle" x="1295.5" y="-232.3" font-family="Arial" font-size="14.00" fill="#c6c5fe">../Log.ts</text>
</g>
<!-- ../util.ts&#45;&gt;../Log.ts -->
<g id="edge40" class="edge">
<title>../util.ts&#45;&gt;../Log.ts</title>
<path fill="none" stroke="#757575" d="M1198.18,-204.41C1214.48,-209.75 1235.17,-216.54 1253.19,-222.45"/>
<polygon fill="#757575" stroke="#757575" points="1252.29,-225.84 1262.88,-225.63 1254.47,-219.19 1252.29,-225.84"/>
</g>
<!-- ../HeadingDirection.ts -->
<g id="node10" class="node">
<title>../HeadingDirection.ts</title>
<path fill="none" stroke="#c6c5fe" d="M920.33,-84.5C920.33,-84.5 789.67,-84.5 789.67,-84.5 785.83,-84.5 782,-80.67 782,-76.83 782,-76.83 782,-69.17 782,-69.17 782,-65.33 785.83,-61.5 789.67,-61.5 789.67,-61.5 920.33,-61.5 920.33,-61.5 924.17,-61.5 928,-65.33 928,-69.17 928,-69.17 928,-76.83 928,-76.83 928,-80.67 924.17,-84.5 920.33,-84.5"/>
<text text-anchor="middle" x="855" y="-69.3" font-family="Arial" font-size="14.00" fill="#c6c5fe">../HeadingDirection.ts</text>
</g>
<!-- ../HeadingDirection.ts&#45;&gt;../Error.ts -->
<g id="edge13" class="edge">
<title>../HeadingDirection.ts&#45;&gt;../Error.ts</title>
<path fill="none" stroke="#757575" d="M928.01,-79.16C991.11,-84.03 1085.31,-90 1167.5,-90 1167.5,-90 1167.5,-90 1477.5,-90 1623.74,-90 1721.22,-282.63 1749.79,-347.2"/>
<polygon fill="#757575" stroke="#757575" points="1746.6,-348.62 1753.78,-356.41 1753.02,-345.84 1746.6,-348.62"/>
</g>
<!-- ../Input.ts -->
<g id="node11" class="node">
<title>../Input.ts</title>
<path fill="none" stroke="#cfffac" d="M541.83,-89.5C541.83,-89.5 485.17,-89.5 485.17,-89.5 481.33,-89.5 477.5,-85.67 477.5,-81.83 477.5,-81.83 477.5,-74.17 477.5,-74.17 477.5,-70.33 481.33,-66.5 485.17,-66.5 485.17,-66.5 541.83,-66.5 541.83,-66.5 545.67,-66.5 549.5,-70.33 549.5,-74.17 549.5,-74.17 549.5,-81.83 549.5,-81.83 549.5,-85.67 545.67,-89.5 541.83,-89.5"/>
<text text-anchor="middle" x="513.5" y="-74.3" font-family="Arial" font-size="14.00" fill="#cfffac">../Input.ts</text>
</g>
<!-- ../Log.ts&#45;&gt;../Error.ts -->
<g id="edge14" class="edge">
<title>../Log.ts&#45;&gt;../Error.ts</title>
<path fill="none" stroke="#757575" d="M1328.17,-232.2C1380.08,-227.1 1485.91,-221.49 1570,-248 1637.59,-269.31 1704.7,-321.31 1737.6,-349.35"/>
<polygon fill="#757575" stroke="#757575" points="1735.73,-352.36 1745.58,-356.25 1740.31,-347.06 1735.73,-352.36"/>
</g>
<!-- ../Log.ts&#45;&gt;../Observable.ts -->
<g id="edge15" class="edge">
<title>../Log.ts&#45;&gt;../Observable.ts</title>
<path fill="none" stroke="#757575" d="M1304.42,-247.82C1332.38,-289.52 1426.63,-430.11 1461.97,-482.82"/>
<polygon fill="#757575" stroke="#757575" points="1459.19,-484.96 1467.67,-491.32 1465.01,-481.06 1459.19,-484.96"/>
</g>
<!-- ../collections/InstanceMap.ts -->
<g id="node13" class="node">
<title>../collections/InstanceMap.ts</title>
<path fill="none" stroke="#cfffac" d="M1562.33,-199.5C1562.33,-199.5 1390.67,-199.5 1390.67,-199.5 1386.83,-199.5 1383,-195.67 1383,-191.83 1383,-191.83 1383,-184.17 1383,-184.17 1383,-180.33 1386.83,-176.5 1390.67,-176.5 1390.67,-176.5 1562.33,-176.5 1562.33,-176.5 1566.17,-176.5 1570,-180.33 1570,-184.17 1570,-184.17 1570,-191.83 1570,-191.83 1570,-195.67 1566.17,-199.5 1562.33,-199.5"/>
<text text-anchor="middle" x="1476.5" y="-184.3" font-family="Arial" font-size="14.00" fill="#cfffac">../collections/InstanceMap.ts</text>
</g>
<!-- ../Log.ts&#45;&gt;../collections/InstanceMap.ts -->
<g id="edge16" class="edge">
<title>../Log.ts&#45;&gt;../collections/InstanceMap.ts</title>
<path fill="none" stroke="#757575" d="M1328.09,-227.53C1354.26,-220.51 1392.02,-210.39 1422.76,-202.14"/>
<polygon fill="#757575" stroke="#757575" points="1423.72,-205.51 1432.47,-199.54 1421.91,-198.75 1423.72,-205.51"/>
</g>
<!-- ../functions/Array.ts -->
<g id="node14" class="node">
<title>../functions/Array.ts</title>
<path fill="none" stroke="#cfffac" d="M1534.33,-158.5C1534.33,-158.5 1418.67,-158.5 1418.67,-158.5 1414.83,-158.5 1411,-154.67 1411,-150.83 1411,-150.83 1411,-143.17 1411,-143.17 1411,-139.33 1414.83,-135.5 1418.67,-135.5 1418.67,-135.5 1534.33,-135.5 1534.33,-135.5 1538.17,-135.5 1542,-139.33 1542,-143.17 1542,-143.17 1542,-150.83 1542,-150.83 1542,-154.67 1538.17,-158.5 1534.33,-158.5"/>
<text text-anchor="middle" x="1476.5" y="-143.3" font-family="Arial" font-size="14.00" fill="#cfffac">../functions/Array.ts</text>
</g>
<!-- ../Log.ts&#45;&gt;../functions/Array.ts -->
<g id="edge17" class="edge">
<title>../Log.ts&#45;&gt;../functions/Array.ts</title>
<path fill="none" stroke="#757575" d="M1328.11,-226.58C1334.72,-223.79 1341.38,-220.29 1347,-216 1368.19,-199.82 1360.63,-182.51 1383,-168 1388.66,-164.33 1394.88,-161.29 1401.34,-158.79"/>
<polygon fill="#757575" stroke="#757575" points="1402.61,-162.05 1410.92,-155.48 1400.33,-155.43 1402.61,-162.05"/>
</g>
<!-- ../functions/Map.ts -->
<g id="node15" class="node">
<title>../functions/Map.ts</title>
<path fill="none" stroke="#cfffac" d="M1532.33,-320.5C1532.33,-320.5 1420.67,-320.5 1420.67,-320.5 1416.83,-320.5 1413,-316.67 1413,-312.83 1413,-312.83 1413,-305.17 1413,-305.17 1413,-301.33 1416.83,-297.5 1420.67,-297.5 1420.67,-297.5 1532.33,-297.5 1532.33,-297.5 1536.17,-297.5 1540,-301.33 1540,-305.17 1540,-305.17 1540,-312.83 1540,-312.83 1540,-316.67 1536.17,-320.5 1532.33,-320.5"/>
<text text-anchor="middle" x="1476.5" y="-305.3" font-family="Arial" font-size="14.00" fill="#cfffac">../functions/Map.ts</text>
</g>
<!-- ../Log.ts&#45;&gt;../functions/Map.ts -->
<g id="edge18" class="edge">
<title>../Log.ts&#45;&gt;../functions/Map.ts</title>
<path fill="none" stroke="#757575" d="M1311.9,-247.67C1328.57,-259.75 1356.35,-278.32 1383,-289 1389.35,-291.55 1396.09,-293.79 1402.91,-295.77"/>
<polygon fill="#757575" stroke="#757575" points="1402.37,-299.25 1412.94,-298.48 1404.2,-292.5 1402.37,-299.25"/>
</g>
<!-- ../functions/Set.ts -->
<g id="node16" class="node">
<title>../functions/Set.ts</title>
<path fill="none" stroke="#cfffac" d="M1528.83,-279.5C1528.83,-279.5 1424.17,-279.5 1424.17,-279.5 1420.33,-279.5 1416.5,-275.67 1416.5,-271.83 1416.5,-271.83 1416.5,-264.17 1416.5,-264.17 1416.5,-260.33 1420.33,-256.5 1424.17,-256.5 1424.17,-256.5 1528.83,-256.5 1528.83,-256.5 1532.67,-256.5 1536.5,-260.33 1536.5,-264.17 1536.5,-264.17 1536.5,-271.83 1536.5,-271.83 1536.5,-275.67 1532.67,-279.5 1528.83,-279.5"/>
<text text-anchor="middle" x="1476.5" y="-264.3" font-family="Arial" font-size="14.00" fill="#cfffac">../functions/Set.ts</text>
</g>
<!-- ../Log.ts&#45;&gt;../functions/Set.ts -->
<g id="edge19" class="edge">
<title>../Log.ts&#45;&gt;../functions/Set.ts</title>
<path fill="none" stroke="#757575" d="M1328.09,-241.65C1349.72,-245.51 1379.25,-250.79 1406.2,-255.61"/>
<polygon fill="#757575" stroke="#757575" points="1405.92,-259.12 1416.38,-257.43 1407.15,-252.23 1405.92,-259.12"/>
</g>
<!-- ../NetworkedEntityServer.ts -->
<g id="node17" class="node">
<title>../NetworkedEntityServer.ts</title>
<path fill="none" stroke="#c6c5fe" d="M386.33,-420.5C386.33,-420.5 222.67,-420.5 222.67,-420.5 218.83,-420.5 215,-416.67 215,-412.83 215,-412.83 215,-405.17 215,-405.17 215,-401.33 218.83,-397.5 222.67,-397.5 222.67,-397.5 386.33,-397.5 386.33,-397.5 390.17,-397.5 394,-401.33 394,-405.17 394,-405.17 394,-412.83 394,-412.83 394,-416.67 390.17,-420.5 386.33,-420.5"/>
<text text-anchor="middle" x="304.5" y="-405.3" font-family="Arial" font-size="14.00" fill="#c6c5fe">../NetworkedEntityServer.ts</text>
</g>
<!-- ../NetworkedEntityServer.ts&#45;&gt;../Component.ts -->
<g id="edge20" class="edge">
<title>../NetworkedEntityServer.ts&#45;&gt;../Component.ts</title>
<path fill="none" stroke="#757575" d="M394.3,-409.17C452.46,-410.73 529.85,-415.56 597,-429 615.11,-432.63 634.58,-438.87 650.88,-444.81"/>
<polygon fill="#757575" stroke="#757575" points="649.99,-448.21 660.58,-448.44 652.44,-441.66 649.99,-448.21"/>
</g>
<!-- ../NetworkedEntityServer.ts&#45;&gt;../Error.ts -->
<g id="edge22" class="edge">
<title>../NetworkedEntityServer.ts&#45;&gt;../Error.ts</title>
<path fill="none" stroke="#757575" d="M349.96,-397.43C420.98,-380 564.66,-349 688.5,-349 688.5,-349 688.5,-349 1477.5,-349 1561.1,-349 1658.38,-357.48 1713.77,-363.11"/>
<polygon fill="#757575" stroke="#757575" points="1713.64,-366.61 1723.94,-364.16 1714.36,-359.65 1713.64,-366.61"/>
</g>
<!-- ../NetworkedEntityServer.ts&#45;&gt;../EntityManager.ts -->
<g id="edge21" class="edge">
<title>../NetworkedEntityServer.ts&#45;&gt;../EntityManager.ts</title>
<path fill="none" stroke="#757575" d="M335.97,-420.65C353.31,-427.63 375.23,-437.06 394,-447 410.78,-455.89 412.79,-461.99 430,-470 578.59,-539.18 619.97,-555.27 782,-580 846.15,-589.79 863.46,-586.74 928,-580 942.7,-578.47 958.42,-575.69 972.92,-572.65"/>
<polygon fill="#757575" stroke="#757575" points="973.71,-576.06 982.74,-570.51 972.23,-569.22 973.71,-576.06"/>
</g>
<!-- ../NetworkedEntityServer.ts&#45;&gt;../util.ts -->
<g id="edge25" class="edge">
<title>../NetworkedEntityServer.ts&#45;&gt;../util.ts</title>
<path fill="none" stroke="#757575" d="M314.21,-397.19C332.55,-373.36 377.8,-319.85 430,-297 535.7,-250.73 573.12,-273 688.5,-273 688.5,-273 688.5,-273 856,-273 958.24,-273 1073.85,-232.97 1131.21,-210.26"/>
<polygon fill="#757575" stroke="#757575" points="1132.59,-213.48 1140.57,-206.51 1129.98,-206.99 1132.59,-213.48"/>
</g>
<!-- ../NetworkedEntityServer.ts&#45;&gt;../Log.ts -->
<g id="edge23" class="edge">
<title>../NetworkedEntityServer.ts&#45;&gt;../Log.ts</title>
<path fill="none" stroke="#757575" d="M320.15,-397.29C342.4,-380.24 386.72,-349.08 430,-335 539.73,-299.32 573.12,-311 688.5,-311 688.5,-311 688.5,-311 1029.5,-311 1115.79,-311 1212.11,-273.73 1261.44,-251.73"/>
<polygon fill="#757575" stroke="#757575" points="1263,-254.87 1270.66,-247.55 1260.11,-248.49 1263,-254.87"/>
</g>
<!-- ../functions/Networking.ts -->
<g id="node18" class="node">
<title>../functions/Networking.ts</title>
<path fill="none" stroke="#c6c5fe" d="M589.33,-460.5C589.33,-460.5 437.67,-460.5 437.67,-460.5 433.83,-460.5 430,-456.67 430,-452.83 430,-452.83 430,-445.17 430,-445.17 430,-441.33 433.83,-437.5 437.67,-437.5 437.67,-437.5 589.33,-437.5 589.33,-437.5 593.17,-437.5 597,-441.33 597,-445.17 597,-445.17 597,-452.83 597,-452.83 597,-456.67 593.17,-460.5 589.33,-460.5"/>
<text text-anchor="middle" x="513.5" y="-445.3" font-family="Arial" font-size="14.00" fill="#c6c5fe">../functions/Networking.ts</text>
</g>
<!-- ../NetworkedEntityServer.ts&#45;&gt;../functions/Networking.ts -->
<g id="edge24" class="edge">
<title>../NetworkedEntityServer.ts&#45;&gt;../functions/Networking.ts</title>
<path fill="none" stroke="#757575" d="M365.1,-420.52C389.45,-425.22 417.79,-430.7 443.08,-435.58"/>
<polygon fill="#757575" stroke="#757575" points="442.48,-439.04 452.97,-437.5 443.81,-432.16 442.48,-439.04"/>
</g>
<!-- ../functions/Networking.ts&#45;&gt;../Component.ts -->
<g id="edge37" class="edge">
<title>../functions/Networking.ts&#45;&gt;../Component.ts</title>
<path fill="none" stroke="#757575" d="M597.17,-454.23C605.77,-454.77 614.43,-455.32 622.81,-455.85"/>
<polygon fill="#757575" stroke="#757575" points="622.67,-459.34 632.87,-456.48 623.11,-452.36 622.67,-459.34"/>
</g>
<!-- ../Route.ts -->
<g id="node19" class="node">
<title>../Route.ts</title>
<path fill="none" stroke="#c6c5fe" d="M335.83,-139.5C335.83,-139.5 273.17,-139.5 273.17,-139.5 269.33,-139.5 265.5,-135.67 265.5,-131.83 265.5,-131.83 265.5,-124.17 265.5,-124.17 265.5,-120.33 269.33,-116.5 273.17,-116.5 273.17,-116.5 335.83,-116.5 335.83,-116.5 339.67,-116.5 343.5,-120.33 343.5,-124.17 343.5,-124.17 343.5,-131.83 343.5,-131.83 343.5,-135.67 339.67,-139.5 335.83,-139.5"/>
<text text-anchor="middle" x="304.5" y="-124.3" font-family="Arial" font-size="14.00" fill="#c6c5fe">../Route.ts</text>
</g>
<!-- ../Route.ts&#45;&gt;../util.ts -->
<g id="edge33" class="edge">
<title>../Route.ts&#45;&gt;../util.ts</title>
<path fill="none" stroke="#757575" d="M343.74,-133.15C412.57,-141.97 561.92,-159 688.5,-159 688.5,-159 688.5,-159 856,-159 954.86,-159 1070.21,-177.12 1128.91,-187.64"/>
<polygon fill="#757575" stroke="#757575" points="1128.39,-191.11 1138.85,-189.45 1129.64,-184.22 1128.39,-191.11"/>
</g>
<!-- ../globals.ts -->
<g id="node20" class="node">
<title>../globals.ts</title>
<path fill="none" stroke="#cfffac" d="M548.33,-130.5C548.33,-130.5 478.67,-130.5 478.67,-130.5 474.83,-130.5 471,-126.67 471,-122.83 471,-122.83 471,-115.17 471,-115.17 471,-111.33 474.83,-107.5 478.67,-107.5 478.67,-107.5 548.33,-107.5 548.33,-107.5 552.17,-107.5 556,-111.33 556,-115.17 556,-115.17 556,-122.83 556,-122.83 556,-126.67 552.17,-130.5 548.33,-130.5"/>
<text text-anchor="middle" x="513.5" y="-115.3" font-family="Arial" font-size="14.00" fill="#cfffac">../globals.ts</text>
</g>
<!-- ../Route.ts&#45;&gt;../globals.ts -->
<g id="edge32" class="edge">
<title>../Route.ts&#45;&gt;../globals.ts</title>
<path fill="none" stroke="#757575" d="M343.95,-126.33C376.73,-124.9 424.14,-122.84 460.33,-121.27"/>
<polygon fill="#757575" stroke="#757575" points="460.86,-124.75 470.7,-120.82 460.56,-117.76 460.86,-124.75"/>
</g>
<!-- ../constants.ts -->
<g id="node21" class="node">
<title>../constants.ts</title>
<path fill="none" stroke="#c6c5fe" d="M346.83,-79.5C346.83,-79.5 262.17,-79.5 262.17,-79.5 258.33,-79.5 254.5,-75.67 254.5,-71.83 254.5,-71.83 254.5,-64.17 254.5,-64.17 254.5,-60.33 258.33,-56.5 262.17,-56.5 262.17,-56.5 346.83,-56.5 346.83,-56.5 350.67,-56.5 354.5,-60.33 354.5,-64.17 354.5,-64.17 354.5,-71.83 354.5,-71.83 354.5,-75.67 350.67,-79.5 346.83,-79.5"/>
<text text-anchor="middle" x="304.5" y="-64.3" font-family="Arial" font-size="14.00" fill="#c6c5fe">../constants.ts</text>
</g>
<!-- ../constants.ts&#45;&gt;../HeadingDirection.ts -->
<g id="edge34" class="edge">
<title>../constants.ts&#45;&gt;../HeadingDirection.ts</title>
<path fill="none" stroke="#757575" d="M354.51,-62.67C377.41,-60.43 405.07,-58.1 430,-57 548.81,-51.76 686.38,-59.49 771.81,-65.92"/>
<polygon fill="#757575" stroke="#757575" points="771.73,-69.42 781.97,-66.7 772.26,-62.44 771.73,-69.42"/>
</g>
<!-- ../constants.ts&#45;&gt;../Input.ts -->
<g id="edge35" class="edge">
<title>../constants.ts&#45;&gt;../Input.ts</title>
<path fill="none" stroke="#757575" d="M354.56,-70.37C388.65,-72.02 433.75,-74.2 467.03,-75.8"/>
<polygon fill="#757575" stroke="#757575" points="467.24,-79.32 477.39,-76.3 467.57,-72.33 467.24,-79.32"/>
</g>
<!-- ../fs/File.ts -->
<g id="node22" class="node">
<title>../fs/File.ts</title>
<path fill="none" stroke="#c6c5fe" d="M720.83,-688.5C720.83,-688.5 658.17,-688.5 658.17,-688.5 654.33,-688.5 650.5,-684.67 650.5,-680.83 650.5,-680.83 650.5,-673.17 650.5,-673.17 650.5,-669.33 654.33,-665.5 658.17,-665.5 658.17,-665.5 720.83,-665.5 720.83,-665.5 724.67,-665.5 728.5,-669.33 728.5,-673.17 728.5,-673.17 728.5,-680.83 728.5,-680.83 728.5,-684.67 724.67,-688.5 720.83,-688.5"/>
<text text-anchor="middle" x="689.5" y="-673.3" font-family="Arial" font-size="14.00" fill="#c6c5fe">../fs/File.ts</text>
</g>
<!-- ../fs/File.ts&#45;&gt;../Error.ts -->
<g id="edge36" class="edge">
<title>../fs/File.ts&#45;&gt;../Error.ts</title>
<path fill="none" stroke="#757575" d="M728.66,-676.81C791.12,-676.52 919.12,-676 1027.5,-676 1027.5,-676 1027.5,-676 1477.5,-676 1591.36,-676 1615.75,-618 1688,-530 1723.5,-486.76 1744.2,-422.91 1753.17,-389.76"/>
<polygon fill="#757575" stroke="#757575" points="1756.64,-390.33 1755.77,-379.77 1749.86,-388.57 1756.64,-390.33"/>
</g>
<!-- ../routes.ts -->
<g id="node23" class="node">
<title>../routes.ts</title>
<path fill="none" stroke="#c6c5fe" d="M171.33,-139.5C171.33,-139.5 106.67,-139.5 106.67,-139.5 102.83,-139.5 99,-135.67 99,-131.83 99,-131.83 99,-124.17 99,-124.17 99,-120.33 102.83,-116.5 106.67,-116.5 106.67,-116.5 171.33,-116.5 171.33,-116.5 175.17,-116.5 179,-120.33 179,-124.17 179,-124.17 179,-131.83 179,-131.83 179,-135.67 175.17,-139.5 171.33,-139.5"/>
<text text-anchor="middle" x="139" y="-124.3" font-family="Arial" font-size="14.00" fill="#c6c5fe">../routes.ts</text>
</g>
<!-- ../routes.ts&#45;&gt;../Route.ts -->
<g id="edge38" class="edge">
<title>../routes.ts&#45;&gt;../Route.ts</title>
<path fill="none" stroke="#757575" d="M179.16,-128C201.98,-128 230.93,-128 255.16,-128"/>
<polygon fill="#757575" stroke="#757575" points="255.22,-131.5 265.22,-128 255.22,-124.5 255.22,-131.5"/>
</g>
<!-- auth.ts -->
<g id="node24" class="node">
<title>auth.ts</title>
<path fill="none" stroke="#c6c5fe" d="M159.83,-59.5C159.83,-59.5 118.17,-59.5 118.17,-59.5 114.33,-59.5 110.5,-55.67 110.5,-51.83 110.5,-51.83 110.5,-44.17 110.5,-44.17 110.5,-40.33 114.33,-36.5 118.17,-36.5 118.17,-36.5 159.83,-36.5 159.83,-36.5 163.67,-36.5 167.5,-40.33 167.5,-44.17 167.5,-44.17 167.5,-51.83 167.5,-51.83 167.5,-55.67 163.67,-59.5 159.83,-59.5"/>
<text text-anchor="middle" x="139" y="-44.3" font-family="Arial" font-size="14.00" fill="#c6c5fe">auth.ts</text>
</g>
<!-- auth.ts&#45;&gt;../Error.ts -->
<g id="edge41" class="edge">
<title>auth.ts&#45;&gt;../Error.ts</title>
<path fill="none" stroke="#757575" d="M167.88,-41.92C229.63,-29 382.74,0 512.5,0 512.5,0 512.5,0 1477.5,0 1589.61,0 1620.78,-49.27 1688,-139 1736.64,-203.93 1752.09,-302.83 1756.68,-346.26"/>
<polygon fill="#757575" stroke="#757575" points="1753.21,-346.67 1757.65,-356.29 1760.17,-346 1753.21,-346.67"/>
</g>
<!-- auth.ts&#45;&gt;../constants.ts -->
<g id="edge42" class="edge">
<title>auth.ts&#45;&gt;../constants.ts</title>
<path fill="none" stroke="#757575" d="M167.74,-51.39C188.65,-53.95 218.1,-57.55 244.22,-60.75"/>
<polygon fill="#757575" stroke="#757575" points="244.07,-64.26 254.42,-62 244.92,-57.31 244.07,-64.26"/>
</g>
<!-- entity.ts -->
<g id="node25" class="node">
<title>entity.ts</title>
<path fill="none" stroke="#c6c5fe" d="M162.33,-440.5C162.33,-440.5 115.67,-440.5 115.67,-440.5 111.83,-440.5 108,-436.67 108,-432.83 108,-432.83 108,-425.17 108,-425.17 108,-421.33 111.83,-417.5 115.67,-417.5 115.67,-417.5 162.33,-417.5 162.33,-417.5 166.17,-417.5 170,-421.33 170,-425.17 170,-425.17 170,-432.83 170,-432.83 170,-436.67 166.17,-440.5 162.33,-440.5"/>
<text text-anchor="middle" x="139" y="-425.3" font-family="Arial" font-size="14.00" fill="#c6c5fe">entity.ts</text>
</g>
<!-- entity.ts&#45;&gt;../Entity.ts -->
<g id="edge43" class="edge">
<title>entity.ts&#45;&gt;../Entity.ts</title>
<path fill="none" stroke="#757575" d="M170.07,-438.7C183.69,-442.87 200.06,-447.56 215,-451 434.38,-501.53 701.18,-539.05 807.26,-553.03"/>
<polygon fill="#757575" stroke="#757575" points="806.95,-556.51 817.32,-554.34 807.86,-549.57 806.95,-556.51"/>
</g>
<!-- entity.ts&#45;&gt;../Observable.ts -->
<g id="edge46" class="edge">
<title>entity.ts&#45;&gt;../Observable.ts</title>
<path fill="none" stroke="#757575" d="M150.93,-440.78C193.01,-484.78 350.29,-637 512.5,-637 512.5,-637 512.5,-637 1169.5,-637 1284.12,-637 1404.14,-557.14 1452.91,-520.72"/>
<polygon fill="#757575" stroke="#757575" points="1455.05,-523.49 1460.91,-514.66 1450.82,-517.91 1455.05,-523.49"/>
</g>
<!-- entity.ts&#45;&gt;../util.ts -->
<g id="edge49" class="edge">
<title>entity.ts&#45;&gt;../util.ts</title>
<path fill="none" stroke="#757575" d="M140.15,-417.31C141.3,-381.15 150.19,-270.54 215,-221 320.39,-140.45 379.85,-197 512.5,-197 512.5,-197 512.5,-197 856,-197 954.01,-197 1069.35,-196 1128.38,-195.41"/>
<polygon fill="#757575" stroke="#757575" points="1128.76,-198.91 1138.73,-195.31 1128.69,-191.91 1128.76,-198.91"/>
</g>
<!-- entity.ts&#45;&gt;../Log.ts -->
<g id="edge44" class="edge">
<title>entity.ts&#45;&gt;../Log.ts</title>
<path fill="none" stroke="#757575" d="M151.68,-417.45C195.19,-375.68 353.55,-235 512.5,-235 512.5,-235 512.5,-235 1029.5,-235 1108.27,-235 1200.2,-235.45 1252.46,-235.74"/>
<polygon fill="#757575" stroke="#757575" points="1252.66,-239.24 1262.68,-235.8 1252.7,-232.24 1252.66,-239.24"/>
</g>
<!-- entity.ts&#45;&gt;../NetworkedEntityServer.ts -->
<g id="edge45" class="edge">
<title>entity.ts&#45;&gt;../NetworkedEntityServer.ts</title>
<path fill="none" stroke="#757575" d="M170.37,-425.29C180.5,-424.05 192.4,-422.59 204.84,-421.07"/>
<polygon fill="#757575" stroke="#757575" points="205.42,-424.52 214.92,-419.84 204.57,-417.58 205.42,-424.52"/>
</g>
<!-- entity.ts&#45;&gt;../functions/Networking.ts -->
<g id="edge48" class="edge">
<title>entity.ts&#45;&gt;../functions/Networking.ts</title>
<path fill="none" stroke="#757575" d="M170.17,-430.62C223.82,-433.5 337.85,-439.62 419.56,-444.01"/>
<polygon fill="#757575" stroke="#757575" points="419.69,-447.52 429.87,-444.56 420.07,-440.53 419.69,-447.52"/>
</g>
<!-- entity.ts&#45;&gt;../fs/File.ts -->
<g id="edge47" class="edge">
<title>entity.ts&#45;&gt;../fs/File.ts</title>
<path fill="none" stroke="#757575" d="M139.8,-440.71C139.85,-478.58 145.69,-598.32 215,-651 341.83,-747.4 547.44,-712.93 640.29,-690.35"/>
<polygon fill="#757575" stroke="#757575" points="641.38,-693.68 650.24,-687.86 639.69,-686.89 641.38,-693.68"/>
</g>
<!-- index.ts -->
<g id="node26" class="node">
<title>index.ts</title>
<path fill="none" stroke="#c6c5fe" d="M55.33,-119.5C55.33,-119.5 7.67,-119.5 7.67,-119.5 3.83,-119.5 0,-115.67 0,-111.83 0,-111.83 0,-104.17 0,-104.17 0,-100.33 3.83,-96.5 7.67,-96.5 7.67,-96.5 55.33,-96.5 55.33,-96.5 59.17,-96.5 63,-100.33 63,-104.17 63,-104.17 63,-111.83 63,-111.83 63,-115.67 59.17,-119.5 55.33,-119.5"/>
<text text-anchor="middle" x="31.5" y="-104.3" font-family="Arial" font-size="14.00" fill="#c6c5fe">index.ts</text>
</g>
<!-- index.ts&#45;&gt;../constants.ts -->
<g id="edge50" class="edge">
<title>index.ts&#45;&gt;../constants.ts</title>
<path fill="none" stroke="#757575" d="M63.06,-103.49C106.85,-97.03 188.3,-85 244.17,-76.76"/>
<polygon fill="#757575" stroke="#757575" points="244.9,-80.19 254.29,-75.26 243.88,-73.26 244.9,-80.19"/>
</g>
<!-- index.ts&#45;&gt;../routes.ts -->
<g id="edge51" class="edge">
<title>index.ts&#45;&gt;../routes.ts</title>
<path fill="none" stroke="#757575" d="M63.01,-113.78C71.15,-115.33 80.15,-117.03 89.01,-118.71"/>
<polygon fill="#757575" stroke="#757575" points="88.42,-122.16 98.89,-120.59 89.72,-115.29 88.42,-122.16"/>
</g>
<!-- index.ts&#45;&gt;auth.ts -->
<g id="edge52" class="edge">
<title>index.ts&#45;&gt;auth.ts</title>
<path fill="none" stroke="#757575" d="M52.84,-96.43C68.75,-87.38 91.08,-74.68 108.88,-64.56"/>
<polygon fill="#757575" stroke="#757575" points="110.76,-67.52 117.72,-59.53 107.3,-61.43 110.76,-67.52"/>
</g>
<!-- index.ts&#45;&gt;entity.ts -->
<g id="edge53" class="edge">
<title>index.ts&#45;&gt;entity.ts</title>
<path fill="none" stroke="#757575" d="M36.38,-119.81C52.02,-167.4 110.58,-345.56 130.96,-407.57"/>
<polygon fill="#757575" stroke="#757575" points="127.75,-409.02 134.2,-417.43 134.4,-406.83 127.75,-409.02"/>
</g>
</g>
</svg>
