<?xml version="1.0" encoding="UTF-8" standalone="no"?>
<!DOCTYPE svg PUBLIC "-//W3C//DTD SVG 1.1//EN"
 "http://www.w3.org/Graphics/SVG/1.1/DTD/svg11.dtd">
<!-- Generated by graphviz version 2.43.0 (0)
 -->
<!-- Title: G Pages: 1 -->
<svg width="1425pt" height="696pt"
 viewBox="0.00 0.00 1425.20 696.44" xmlns="http://www.w3.org/2000/svg" xmlns:xlink="http://www.w3.org/1999/xlink">
<g id="graph0" class="graph" transform="scale(1 1) rotate(0) translate(21.6 674.84)">
<title>G</title>
<polygon fill="#111111" stroke="transparent" points="-21.6,21.6 -21.6,-674.84 1403.6,-674.84 1403.6,21.6 -21.6,21.6"/>
<!-- ../Component.ts -->
<g id="node1" class="node">
<title>../Component.ts</title>
<path fill="none" stroke="#c6c5fe" d="M923.33,-361.5C923.33,-361.5 825.67,-361.5 825.67,-361.5 821.83,-361.5 818,-357.67 818,-353.83 818,-353.83 818,-346.17 818,-346.17 818,-342.33 821.83,-338.5 825.67,-338.5 825.67,-338.5 923.33,-338.5 923.33,-338.5 927.17,-338.5 931,-342.33 931,-346.17 931,-346.17 931,-353.83 931,-353.83 931,-357.67 927.17,-361.5 923.33,-361.5"/>
<text text-anchor="middle" x="874.5" y="-346.3" font-family="Arial" font-size="14.00" fill="#c6c5fe">../Component.ts</text>
</g>
<!-- ../Debug.ts -->
<g id="node2" class="node">
<title>../Debug.ts</title>
<path fill="none" stroke="#c6c5fe" d="M1267.33,-359.5C1267.33,-359.5 1200.67,-359.5 1200.67,-359.5 1196.83,-359.5 1193,-355.67 1193,-351.83 1193,-351.83 1193,-344.17 1193,-344.17 1193,-340.33 1196.83,-336.5 1200.67,-336.5 1200.67,-336.5 1267.33,-336.5 1267.33,-336.5 1271.17,-336.5 1275,-340.33 1275,-344.17 1275,-344.17 1275,-351.83 1275,-351.83 1275,-355.67 1271.17,-359.5 1267.33,-359.5"/>
<text text-anchor="middle" x="1234" y="-344.3" font-family="Arial" font-size="14.00" fill="#c6c5fe">../Debug.ts</text>
</g>
<!-- ../Component.ts&#45;&gt;../Debug.ts -->
<g id="edge1" class="edge">
<title>../Component.ts&#45;&gt;../Debug.ts</title>
<path fill="none" stroke="#757575" d="M931.36,-349.69C1000.24,-349.3 1116.3,-348.65 1182.58,-348.28"/>
<polygon fill="#757575" stroke="#757575" points="1182.79,-351.78 1192.77,-348.23 1182.75,-344.78 1182.79,-351.78"/>
</g>
<!-- ../Entity.ts -->
<g id="node3" class="node">
<title>../Entity.ts</title>
<path fill="none" stroke="#cfffac" d="M1093.33,-477.5C1093.33,-477.5 1033.67,-477.5 1033.67,-477.5 1029.83,-477.5 1026,-473.67 1026,-469.83 1026,-469.83 1026,-462.17 1026,-462.17 1026,-458.33 1029.83,-454.5 1033.67,-454.5 1033.67,-454.5 1093.33,-454.5 1093.33,-454.5 1097.17,-454.5 1101,-458.33 1101,-462.17 1101,-462.17 1101,-469.83 1101,-469.83 1101,-473.67 1097.17,-477.5 1093.33,-477.5"/>
<text text-anchor="middle" x="1063.5" y="-462.3" font-family="Arial" font-size="14.00" fill="#cfffac">../Entity.ts</text>
</g>
<!-- ../Component.ts&#45;&gt;../Entity.ts -->
<g id="edge2" class="edge">
<title>../Component.ts&#45;&gt;../Entity.ts</title>
<path fill="none" stroke="#757575" d="M894.11,-361.55C927.21,-382.08 996.44,-425.02 1035.03,-448.96"/>
<polygon fill="#757575" stroke="#757575" points="1033.34,-452.03 1043.68,-454.33 1037.03,-446.08 1033.34,-452.03"/>
</g>
<!-- ../Error.ts -->
<g id="node4" class="node">
<title>../Error.ts</title>
<path fill="none" stroke="#cfffac" d="M1374.33,-379.5C1374.33,-379.5 1318.67,-379.5 1318.67,-379.5 1314.83,-379.5 1311,-375.67 1311,-371.83 1311,-371.83 1311,-364.17 1311,-364.17 1311,-360.33 1314.83,-356.5 1318.67,-356.5 1318.67,-356.5 1374.33,-356.5 1374.33,-356.5 1378.17,-356.5 1382,-360.33 1382,-364.17 1382,-364.17 1382,-371.83 1382,-371.83 1382,-375.67 1378.17,-379.5 1374.33,-379.5"/>
<text text-anchor="middle" x="1346.5" y="-364.3" font-family="Arial" font-size="14.00" fill="#cfffac">../Error.ts</text>
</g>
<!-- ../Component.ts&#45;&gt;../Error.ts -->
<g id="edge3" class="edge">
<title>../Component.ts&#45;&gt;../Error.ts</title>
<path fill="none" stroke="#757575" d="M931.35,-358.76C944.03,-360.45 957.45,-362 970,-363 1089,-372.49 1229.86,-370.96 1300.44,-369.32"/>
<polygon fill="#757575" stroke="#757575" points="1300.83,-372.81 1310.74,-369.07 1300.66,-365.82 1300.83,-372.81"/>
</g>
<!-- ../Observable.ts -->
<g id="node5" class="node">
<title>../Observable.ts</title>
<path fill="none" stroke="#c6c5fe" d="M1111.83,-321.5C1111.83,-321.5 1015.17,-321.5 1015.17,-321.5 1011.33,-321.5 1007.5,-317.67 1007.5,-313.83 1007.5,-313.83 1007.5,-306.17 1007.5,-306.17 1007.5,-302.33 1011.33,-298.5 1015.17,-298.5 1015.17,-298.5 1111.83,-298.5 1111.83,-298.5 1115.67,-298.5 1119.5,-302.33 1119.5,-306.17 1119.5,-306.17 1119.5,-313.83 1119.5,-313.83 1119.5,-317.67 1115.67,-321.5 1111.83,-321.5"/>
<text text-anchor="middle" x="1063.5" y="-306.3" font-family="Arial" font-size="14.00" fill="#c6c5fe">../Observable.ts</text>
</g>
<!-- ../Component.ts&#45;&gt;../Observable.ts -->
<g id="edge4" class="edge">
<title>../Component.ts&#45;&gt;../Observable.ts</title>
<path fill="none" stroke="#757575" d="M929.34,-338.48C951.05,-333.84 976.26,-328.45 998.87,-323.61"/>
<polygon fill="#757575" stroke="#757575" points="999.67,-327.02 1008.72,-321.5 998.21,-320.17 999.67,-327.02"/>
</g>
<!-- ../Debug.ts&#45;&gt;../Error.ts -->
<g id="edge5" class="edge">
<title>../Debug.ts&#45;&gt;../Error.ts</title>
<path fill="none" stroke="#757575" d="M1275.21,-355.28C1283.54,-356.79 1292.37,-358.38 1300.85,-359.92"/>
<polygon fill="#757575" stroke="#757575" points="1300.51,-363.41 1310.97,-361.75 1301.76,-356.53 1300.51,-363.41"/>
</g>
<!-- ../Observable.ts&#45;&gt;../Debug.ts -->
<g id="edge26" class="edge">
<title>../Observable.ts&#45;&gt;../Debug.ts</title>
<path fill="none" stroke="#757575" d="M1115.51,-321.5C1136.92,-326.33 1161.74,-331.93 1183.03,-336.73"/>
<polygon fill="#757575" stroke="#757575" points="1182.33,-340.16 1192.85,-338.95 1183.87,-333.33 1182.33,-340.16"/>
</g>
<!-- ../EntityManager.ts -->
<g id="node6" class="node">
<title>../EntityManager.ts</title>
<path fill="none" stroke="#c6c5fe" d="M762.83,-481.5C762.83,-481.5 649.17,-481.5 649.17,-481.5 645.33,-481.5 641.5,-477.67 641.5,-473.83 641.5,-473.83 641.5,-466.17 641.5,-466.17 641.5,-462.33 645.33,-458.5 649.17,-458.5 649.17,-458.5 762.83,-458.5 762.83,-458.5 766.67,-458.5 770.5,-462.33 770.5,-466.17 770.5,-466.17 770.5,-473.83 770.5,-473.83 770.5,-477.67 766.67,-481.5 762.83,-481.5"/>
<text text-anchor="middle" x="706" y="-466.3" font-family="Arial" font-size="14.00" fill="#c6c5fe">../EntityManager.ts</text>
</g>
<!-- ../EntityManager.ts&#45;&gt;../Component.ts -->
<g id="edge6" class="edge">
<title>../EntityManager.ts&#45;&gt;../Component.ts</title>
<path fill="none" stroke="#757575" d="M722.96,-458.49C752.23,-437.4 814.62,-392.43 849.19,-367.52"/>
<polygon fill="#757575" stroke="#757575" points="851.27,-370.33 857.34,-361.65 847.18,-364.66 851.27,-370.33"/>
</g>
<!-- ../EntityManager.ts&#45;&gt;../Entity.ts -->
<g id="edge7" class="edge">
<title>../EntityManager.ts&#45;&gt;../Entity.ts</title>
<path fill="none" stroke="#757575" d="M770.56,-469.28C840.93,-468.49 952.73,-467.24 1015.59,-466.53"/>
<polygon fill="#757575" stroke="#757575" points="1015.66,-470.03 1025.62,-466.41 1015.58,-463.03 1015.66,-470.03"/>
</g>
<!-- ../EntityManager.ts&#45;&gt;../Error.ts -->
<g id="edge8" class="edge">
<title>../EntityManager.ts&#45;&gt;../Error.ts</title>
<path fill="none" stroke="#757575" d="M770.63,-480.99C858.41,-494.18 1021.21,-511.53 1157,-486 1212.32,-475.6 1228.03,-471.03 1275,-440 1296.68,-425.68 1316.93,-403.75 1330.11,-387.85"/>
<polygon fill="#757575" stroke="#757575" points="1333.11,-389.71 1336.68,-379.73 1327.67,-385.31 1333.11,-389.71"/>
</g>
<!-- ../EntityManager.ts&#45;&gt;../Observable.ts -->
<g id="edge9" class="edge">
<title>../EntityManager.ts&#45;&gt;../Observable.ts</title>
<path fill="none" stroke="#757575" d="M714.27,-458.15C733.65,-427.01 786.95,-344.21 815,-329 870.94,-298.67 944.69,-297 997.09,-301.03"/>
<polygon fill="#757575" stroke="#757575" points="997.01,-304.54 1007.27,-301.9 997.61,-297.56 997.01,-304.54"/>
</g>
<!-- ../EntityPrefab.ts -->
<g id="node7" class="node">
<title>../EntityPrefab.ts</title>
<path fill="none" stroke="#c6c5fe" d="M563.83,-515.5C563.83,-515.5 463.17,-515.5 463.17,-515.5 459.33,-515.5 455.5,-511.67 455.5,-507.83 455.5,-507.83 455.5,-500.17 455.5,-500.17 455.5,-496.33 459.33,-492.5 463.17,-492.5 463.17,-492.5 563.83,-492.5 563.83,-492.5 567.67,-492.5 571.5,-496.33 571.5,-500.17 571.5,-500.17 571.5,-507.83 571.5,-507.83 571.5,-511.67 567.67,-515.5 563.83,-515.5"/>
<text text-anchor="middle" x="513.5" y="-500.3" font-family="Arial" font-size="14.00" fill="#c6c5fe">../EntityPrefab.ts</text>
</g>
<!-- ../EntityPrefab.ts&#45;&gt;../Entity.ts -->
<g id="edge10" class="edge">
<title>../EntityPrefab.ts&#45;&gt;../Entity.ts</title>
<path fill="none" stroke="#757575" d="M571.6,-502.62C652.42,-500.32 804.73,-494.77 934,-483 961.16,-480.53 991.4,-476.59 1015.72,-473.12"/>
<polygon fill="#757575" stroke="#757575" points="1016.36,-476.57 1025.75,-471.67 1015.36,-469.64 1016.36,-476.57"/>
</g>
<!-- ../EntityPrefab.ts&#45;&gt;../EntityManager.ts -->
<g id="edge11" class="edge">
<title>../EntityPrefab.ts&#45;&gt;../EntityManager.ts</title>
<path fill="none" stroke="#757575" d="M571.66,-493.8C590.41,-490.45 611.52,-486.68 631.31,-483.15"/>
<polygon fill="#757575" stroke="#757575" points="631.99,-486.59 641.22,-481.38 630.76,-479.7 631.99,-486.59"/>
</g>
<!-- ../HeadingDirection.ts -->
<g id="node8" class="node">
<title>../HeadingDirection.ts</title>
<path fill="none" stroke="#c6c5fe" d="M771.33,-636.5C771.33,-636.5 640.67,-636.5 640.67,-636.5 636.83,-636.5 633,-632.67 633,-628.83 633,-628.83 633,-621.17 633,-621.17 633,-617.33 636.83,-613.5 640.67,-613.5 640.67,-613.5 771.33,-613.5 771.33,-613.5 775.17,-613.5 779,-617.33 779,-621.17 779,-621.17 779,-628.83 779,-628.83 779,-632.67 775.17,-636.5 771.33,-636.5"/>
<text text-anchor="middle" x="706" y="-621.3" font-family="Arial" font-size="14.00" fill="#c6c5fe">../HeadingDirection.ts</text>
</g>
<!-- ../HeadingDirection.ts&#45;&gt;../Error.ts -->
<g id="edge12" class="edge">
<title>../HeadingDirection.ts&#45;&gt;../Error.ts</title>
<path fill="none" stroke="#757575" d="M747.74,-636.6C793.61,-647.86 870.08,-661.21 934,-646 1099.13,-606.71 1148.01,-586.63 1275,-474 1302.51,-449.6 1324.04,-412.14 1335.74,-388.91"/>
<polygon fill="#757575" stroke="#757575" points="1339.04,-390.14 1340.28,-379.61 1332.75,-387.06 1339.04,-390.14"/>
</g>
<!-- ../Three.ts -->
<g id="node9" class="node">
<title>../Three.ts</title>
<path fill="none" stroke="#cfffac" d="M905.33,-595.5C905.33,-595.5 843.67,-595.5 843.67,-595.5 839.83,-595.5 836,-591.67 836,-587.83 836,-587.83 836,-580.17 836,-580.17 836,-576.33 839.83,-572.5 843.67,-572.5 843.67,-572.5 905.33,-572.5 905.33,-572.5 909.17,-572.5 913,-576.33 913,-580.17 913,-580.17 913,-587.83 913,-587.83 913,-591.67 909.17,-595.5 905.33,-595.5"/>
<text text-anchor="middle" x="874.5" y="-580.3" font-family="Arial" font-size="14.00" fill="#cfffac">../Three.ts</text>
</g>
<!-- ../HeadingDirection.ts&#45;&gt;../Three.ts -->
<g id="edge13" class="edge">
<title>../HeadingDirection.ts&#45;&gt;../Three.ts</title>
<path fill="none" stroke="#757575" d="M753.82,-613.47C776.44,-607.9 803.54,-601.23 826.22,-595.64"/>
<polygon fill="#757575" stroke="#757575" points="827.1,-599.03 835.97,-593.24 825.42,-592.23 827.1,-599.03"/>
</g>
<!-- ../units/convert.ts -->
<g id="node10" class="node">
<title>../units/convert.ts</title>
<path fill="none" stroke="#cfffac" d="M926.33,-636.5C926.33,-636.5 822.67,-636.5 822.67,-636.5 818.83,-636.5 815,-632.67 815,-628.83 815,-628.83 815,-621.17 815,-621.17 815,-617.33 818.83,-613.5 822.67,-613.5 822.67,-613.5 926.33,-613.5 926.33,-613.5 930.17,-613.5 934,-617.33 934,-621.17 934,-621.17 934,-628.83 934,-628.83 934,-632.67 930.17,-636.5 926.33,-636.5"/>
<text text-anchor="middle" x="874.5" y="-621.3" font-family="Arial" font-size="14.00" fill="#cfffac">../units/convert.ts</text>
</g>
<!-- ../HeadingDirection.ts&#45;&gt;../units/convert.ts -->
<g id="edge14" class="edge">
<title>../HeadingDirection.ts&#45;&gt;../units/convert.ts</title>
<path fill="none" stroke="#757575" d="M779.06,-625C787.56,-625 796.21,-625 804.67,-625"/>
<polygon fill="#757575" stroke="#757575" points="804.85,-628.5 814.85,-625 804.85,-621.5 804.85,-628.5"/>
</g>
<!-- ../Input.ts -->
<g id="node11" class="node">
<title>../Input.ts</title>
<path fill="none" stroke="#cfffac" d="M541.83,-556.5C541.83,-556.5 485.17,-556.5 485.17,-556.5 481.33,-556.5 477.5,-552.67 477.5,-548.83 477.5,-548.83 477.5,-541.17 477.5,-541.17 477.5,-537.33 481.33,-533.5 485.17,-533.5 485.17,-533.5 541.83,-533.5 541.83,-533.5 545.67,-533.5 549.5,-537.33 549.5,-541.17 549.5,-541.17 549.5,-548.83 549.5,-548.83 549.5,-552.67 545.67,-556.5 541.83,-556.5"/>
<text text-anchor="middle" x="513.5" y="-541.3" font-family="Arial" font-size="14.00" fill="#cfffac">../Input.ts</text>
</g>
<!-- ../Log.ts -->
<g id="node12" class="node">
<title>../Log.ts</title>
<path fill="none" stroke="#c6c5fe" d="M899.33,-198.5C899.33,-198.5 849.67,-198.5 849.67,-198.5 845.83,-198.5 842,-194.67 842,-190.83 842,-190.83 842,-183.17 842,-183.17 842,-179.33 845.83,-175.5 849.67,-175.5 849.67,-175.5 899.33,-175.5 899.33,-175.5 903.17,-175.5 907,-179.33 907,-183.17 907,-183.17 907,-190.83 907,-190.83 907,-194.67 903.17,-198.5 899.33,-198.5"/>
<text text-anchor="middle" x="874.5" y="-183.3" font-family="Arial" font-size="14.00" fill="#c6c5fe">../Log.ts</text>
</g>
<!-- ../Log.ts&#45;&gt;../Error.ts -->
<g id="edge15" class="edge">
<title>../Log.ts&#45;&gt;../Error.ts</title>
<path fill="none" stroke="#757575" d="M907.08,-175.43C960.89,-157.66 1072.73,-129.37 1157,-166 1244.11,-203.86 1309.25,-304.01 1334.28,-347.44"/>
<polygon fill="#757575" stroke="#757575" points="1331.3,-349.28 1339.26,-356.26 1337.39,-345.84 1331.3,-349.28"/>
</g>
<!-- ../Log.ts&#45;&gt;../Observable.ts -->
<g id="edge16" class="edge">
<title>../Log.ts&#45;&gt;../Observable.ts</title>
<path fill="none" stroke="#757575" d="M907.13,-196.89C916.63,-201.02 926.51,-206.62 934,-214 960.34,-239.95 941.09,-265.95 970,-289 977.92,-295.31 987.37,-299.81 997.16,-302.99"/>
<polygon fill="#757575" stroke="#757575" points="996.45,-306.42 1007.02,-305.75 998.34,-299.68 996.45,-306.42"/>
</g>
<!-- ../collections/InstanceMap.ts -->
<g id="node13" class="node">
<title>../collections/InstanceMap.ts</title>
<path fill="none" stroke="#cfffac" d="M1149.33,-118.5C1149.33,-118.5 977.67,-118.5 977.67,-118.5 973.83,-118.5 970,-114.67 970,-110.83 970,-110.83 970,-103.17 970,-103.17 970,-99.33 973.83,-95.5 977.67,-95.5 977.67,-95.5 1149.33,-95.5 1149.33,-95.5 1153.17,-95.5 1157,-99.33 1157,-103.17 1157,-103.17 1157,-110.83 1157,-110.83 1157,-114.67 1153.17,-118.5 1149.33,-118.5"/>
<text text-anchor="middle" x="1063.5" y="-103.3" font-family="Arial" font-size="14.00" fill="#cfffac">../collections/InstanceMap.ts</text>
</g>
<!-- ../Log.ts&#45;&gt;../collections/InstanceMap.ts -->
<g id="edge17" class="edge">
<title>../Log.ts&#45;&gt;../collections/InstanceMap.ts</title>
<path fill="none" stroke="#757575" d="M892.95,-175.29C911.42,-163.31 941.76,-144.82 970,-133 980.47,-128.61 991.91,-124.72 1003.07,-121.37"/>
<polygon fill="#757575" stroke="#757575" points="1004.14,-124.71 1012.77,-118.57 1002.19,-117.98 1004.14,-124.71"/>
</g>
<!-- ../functions/Array.ts -->
<g id="node14" class="node">
<title>../functions/Array.ts</title>
<path fill="none" stroke="#cfffac" d="M1121.33,-280.5C1121.33,-280.5 1005.67,-280.5 1005.67,-280.5 1001.83,-280.5 998,-276.67 998,-272.83 998,-272.83 998,-265.17 998,-265.17 998,-261.33 1001.83,-257.5 1005.67,-257.5 1005.67,-257.5 1121.33,-257.5 1121.33,-257.5 1125.17,-257.5 1129,-261.33 1129,-265.17 1129,-265.17 1129,-272.83 1129,-272.83 1129,-276.67 1125.17,-280.5 1121.33,-280.5"/>
<text text-anchor="middle" x="1063.5" y="-265.3" font-family="Arial" font-size="14.00" fill="#cfffac">../functions/Array.ts</text>
</g>
<!-- ../Log.ts&#45;&gt;../functions/Array.ts -->
<g id="edge18" class="edge">
<title>../Log.ts&#45;&gt;../functions/Array.ts</title>
<path fill="none" stroke="#757575" d="M905.37,-198.54C914.87,-202.79 925.2,-208.05 934,-214 952.23,-226.33 950.58,-237.64 970,-248 975.63,-251 981.67,-253.57 987.87,-255.78"/>
<polygon fill="#757575" stroke="#757575" points="987.11,-259.22 997.7,-258.96 989.26,-252.55 987.11,-259.22"/>
</g>
<!-- ../functions/Map.ts -->
<g id="node15" class="node">
<title>../functions/Map.ts</title>
<path fill="none" stroke="#cfffac" d="M1119.33,-239.5C1119.33,-239.5 1007.67,-239.5 1007.67,-239.5 1003.83,-239.5 1000,-235.67 1000,-231.83 1000,-231.83 1000,-224.17 1000,-224.17 1000,-220.33 1003.83,-216.5 1007.67,-216.5 1007.67,-216.5 1119.33,-216.5 1119.33,-216.5 1123.17,-216.5 1127,-220.33 1127,-224.17 1127,-224.17 1127,-231.83 1127,-231.83 1127,-235.67 1123.17,-239.5 1119.33,-239.5"/>
<text text-anchor="middle" x="1063.5" y="-224.3" font-family="Arial" font-size="14.00" fill="#cfffac">../functions/Map.ts</text>
</g>
<!-- ../Log.ts&#45;&gt;../functions/Map.ts -->
<g id="edge19" class="edge">
<title>../Log.ts&#45;&gt;../functions/Map.ts</title>
<path fill="none" stroke="#757575" d="M907.22,-193.96C932.52,-199.5 968.73,-207.44 999.82,-214.26"/>
<polygon fill="#757575" stroke="#757575" points="999.19,-217.7 1009.71,-216.43 1000.69,-210.87 999.19,-217.7"/>
</g>
<!-- ../functions/Set.ts -->
<g id="node16" class="node">
<title>../functions/Set.ts</title>
<path fill="none" stroke="#cfffac" d="M1115.83,-198.5C1115.83,-198.5 1011.17,-198.5 1011.17,-198.5 1007.33,-198.5 1003.5,-194.67 1003.5,-190.83 1003.5,-190.83 1003.5,-183.17 1003.5,-183.17 1003.5,-179.33 1007.33,-175.5 1011.17,-175.5 1011.17,-175.5 1115.83,-175.5 1115.83,-175.5 1119.67,-175.5 1123.5,-179.33 1123.5,-183.17 1123.5,-183.17 1123.5,-190.83 1123.5,-190.83 1123.5,-194.67 1119.67,-198.5 1115.83,-198.5"/>
<text text-anchor="middle" x="1063.5" y="-183.3" font-family="Arial" font-size="14.00" fill="#cfffac">../functions/Set.ts</text>
</g>
<!-- ../Log.ts&#45;&gt;../functions/Set.ts -->
<g id="edge20" class="edge">
<title>../Log.ts&#45;&gt;../functions/Set.ts</title>
<path fill="none" stroke="#757575" d="M907.22,-187C930.71,-187 963.62,-187 993.09,-187"/>
<polygon fill="#757575" stroke="#757575" points="993.36,-190.5 1003.36,-187 993.36,-183.5 993.36,-190.5"/>
</g>
<!-- ../NetworkedEntityServer.ts -->
<g id="node17" class="node">
<title>../NetworkedEntityServer.ts</title>
<path fill="none" stroke="#c6c5fe" d="M386.33,-199.5C386.33,-199.5 222.67,-199.5 222.67,-199.5 218.83,-199.5 215,-195.67 215,-191.83 215,-191.83 215,-184.17 215,-184.17 215,-180.33 218.83,-176.5 222.67,-176.5 222.67,-176.5 386.33,-176.5 386.33,-176.5 390.17,-176.5 394,-180.33 394,-184.17 394,-184.17 394,-191.83 394,-191.83 394,-195.67 390.17,-199.5 386.33,-199.5"/>
<text text-anchor="middle" x="304.5" y="-184.3" font-family="Arial" font-size="14.00" fill="#c6c5fe">../NetworkedEntityServer.ts</text>
</g>
<!-- ../NetworkedEntityServer.ts&#45;&gt;../Component.ts -->
<g id="edge21" class="edge">
<title>../NetworkedEntityServer.ts&#45;&gt;../Component.ts</title>
<path fill="none" stroke="#757575" d="M394.2,-179.57C453.88,-177.39 533.05,-181.44 597,-209 616.93,-217.59 613.93,-231.63 633,-242 691.9,-274.04 718.51,-251.07 779,-280 807.11,-293.44 835.29,-315.74 853.47,-331.55"/>
<polygon fill="#757575" stroke="#757575" points="851.28,-334.29 861.08,-338.31 855.92,-329.05 851.28,-334.29"/>
</g>
<!-- ../NetworkedEntityServer.ts&#45;&gt;../Error.ts -->
<g id="edge22" class="edge">
<title>../NetworkedEntityServer.ts&#45;&gt;../Error.ts</title>
<path fill="none" stroke="#757575" d="M331.89,-176.43C438.64,-131.32 847.59,24.85 1157,-86 1220.91,-108.9 1235.36,-127.88 1275,-183 1312.46,-235.1 1332.78,-309.59 1341.03,-346.12"/>
<polygon fill="#757575" stroke="#757575" points="1337.67,-347.13 1343.21,-356.16 1344.51,-345.65 1337.67,-347.13"/>
</g>
<!-- ../NetworkedEntityServer.ts&#45;&gt;../Log.ts -->
<g id="edge23" class="edge">
<title>../NetworkedEntityServer.ts&#45;&gt;../Log.ts</title>
<path fill="none" stroke="#757575" d="M394.18,-178.4C406.2,-177.41 418.4,-176.56 430,-176 577.62,-168.9 753.11,-178.62 831.76,-183.94"/>
<polygon fill="#757575" stroke="#757575" points="831.54,-187.43 841.75,-184.63 832.02,-180.45 831.54,-187.43"/>
</g>
<!-- ../functions/Networking.ts -->
<g id="node18" class="node">
<title>../functions/Networking.ts</title>
<path fill="none" stroke="#c6c5fe" d="M589.33,-241.5C589.33,-241.5 437.67,-241.5 437.67,-241.5 433.83,-241.5 430,-237.67 430,-233.83 430,-233.83 430,-226.17 430,-226.17 430,-222.33 433.83,-218.5 437.67,-218.5 437.67,-218.5 589.33,-218.5 589.33,-218.5 593.17,-218.5 597,-222.33 597,-226.17 597,-226.17 597,-233.83 597,-233.83 597,-237.67 593.17,-241.5 589.33,-241.5"/>
<text text-anchor="middle" x="513.5" y="-226.3" font-family="Arial" font-size="14.00" fill="#c6c5fe">../functions/Networking.ts</text>
</g>
<!-- ../NetworkedEntityServer.ts&#45;&gt;../functions/Networking.ts -->
<g id="edge24" class="edge">
<title>../NetworkedEntityServer.ts&#45;&gt;../functions/Networking.ts</title>
<path fill="none" stroke="#757575" d="M362.34,-199.53C388.13,-204.76 418.81,-210.99 445.69,-216.44"/>
<polygon fill="#757575" stroke="#757575" points="445.29,-219.94 455.79,-218.49 446.69,-213.07 445.29,-219.94"/>
</g>
<!-- ../util.ts -->
<g id="node19" class="node">
<title>../util.ts</title>
<path fill="none" stroke="#c6c5fe" d="M727.83,-355.5C727.83,-355.5 684.17,-355.5 684.17,-355.5 680.33,-355.5 676.5,-351.67 676.5,-347.83 676.5,-347.83 676.5,-340.17 676.5,-340.17 676.5,-336.33 680.33,-332.5 684.17,-332.5 684.17,-332.5 727.83,-332.5 727.83,-332.5 731.67,-332.5 735.5,-336.33 735.5,-340.17 735.5,-340.17 735.5,-347.83 735.5,-347.83 735.5,-351.67 731.67,-355.5 727.83,-355.5"/>
<text text-anchor="middle" x="706" y="-340.3" font-family="Arial" font-size="14.00" fill="#c6c5fe">../util.ts</text>
</g>
<!-- ../NetworkedEntityServer.ts&#45;&gt;../util.ts -->
<g id="edge25" class="edge">
<title>../NetworkedEntityServer.ts&#45;&gt;../util.ts</title>
<path fill="none" stroke="#757575" d="M325.63,-199.64C349.78,-213.21 391.81,-235.63 430,-250 501.84,-277.03 526.4,-263.89 597,-294 614.25,-301.36 616.2,-307.68 633,-316 643.78,-321.34 655.85,-326.37 666.98,-330.66"/>
<polygon fill="#757575" stroke="#757575" points="665.87,-333.99 676.46,-334.23 668.33,-327.43 665.87,-333.99"/>
</g>
<!-- ../functions/Networking.ts&#45;&gt;../Component.ts -->
<g id="edge33" class="edge">
<title>../functions/Networking.ts&#45;&gt;../Component.ts</title>
<path fill="none" stroke="#757575" d="M559.06,-241.52C571.61,-245.44 585.08,-250.29 597,-256 614.34,-264.31 615.57,-271.89 633,-280 637.43,-282.06 754.41,-315.8 823.56,-335.67"/>
<polygon fill="#757575" stroke="#757575" points="822.82,-339.1 833.39,-338.49 824.75,-332.37 822.82,-339.1"/>
</g>
<!-- ../functions/Networking.ts&#45;&gt;../Log.ts -->
<g id="edge34" class="edge">
<title>../functions/Networking.ts&#45;&gt;../Log.ts</title>
<path fill="none" stroke="#757575" d="M597.31,-220.08C670.61,-211.3 774.57,-198.85 831.76,-192"/>
<polygon fill="#757575" stroke="#757575" points="832.36,-195.45 841.87,-190.79 831.53,-188.5 832.36,-195.45"/>
</g>
<!-- ../functions/Networking.ts&#45;&gt;../util.ts -->
<g id="edge35" class="edge">
<title>../functions/Networking.ts&#45;&gt;../util.ts</title>
<path fill="none" stroke="#757575" d="M571.02,-241.64C580.31,-245.22 589.38,-249.9 597,-256 621.88,-275.91 608.54,-297.58 633,-318 642.64,-326.05 654.98,-331.7 666.71,-335.63"/>
<polygon fill="#757575" stroke="#757575" points="665.76,-339 676.35,-338.53 667.78,-332.29 665.76,-339"/>
</g>
<!-- ../util.ts&#45;&gt;../Three.ts -->
<g id="edge38" class="edge">
<title>../util.ts&#45;&gt;../Three.ts</title>
<path fill="none" stroke="#757575" d="M715.03,-355.58C741.45,-393.66 825.92,-515.42 859.52,-563.85"/>
<polygon fill="#757575" stroke="#757575" points="856.78,-566.04 865.35,-572.26 862.53,-562.05 856.78,-566.04"/>
</g>
<!-- ../util.ts&#45;&gt;../Log.ts -->
<g id="edge37" class="edge">
<title>../util.ts&#45;&gt;../Log.ts</title>
<path fill="none" stroke="#757575" d="M719.24,-332.46C747.75,-305.58 818.77,-238.61 853.6,-205.76"/>
<polygon fill="#757575" stroke="#757575" points="856.36,-207.97 861.24,-198.56 851.56,-202.88 856.36,-207.97"/>
</g>
<!-- ../Route.ts -->
<g id="node20" class="node">
<title>../Route.ts</title>
<path fill="none" stroke="#c6c5fe" d="M335.83,-434.5C335.83,-434.5 273.17,-434.5 273.17,-434.5 269.33,-434.5 265.5,-430.67 265.5,-426.83 265.5,-426.83 265.5,-419.17 265.5,-419.17 265.5,-415.33 269.33,-411.5 273.17,-411.5 273.17,-411.5 335.83,-411.5 335.83,-411.5 339.67,-411.5 343.5,-415.33 343.5,-419.17 343.5,-419.17 343.5,-426.83 343.5,-426.83 343.5,-430.67 339.67,-434.5 335.83,-434.5"/>
<text text-anchor="middle" x="304.5" y="-419.3" font-family="Arial" font-size="14.00" fill="#c6c5fe">../Route.ts</text>
</g>
<!-- ../Route.ts&#45;&gt;../util.ts -->
<g id="edge28" class="edge">
<title>../Route.ts&#45;&gt;../util.ts</title>
<path fill="none" stroke="#757575" d="M343.81,-415.43C420,-400.36 589.8,-366.78 666.31,-351.65"/>
<polygon fill="#757575" stroke="#757575" points="667.34,-355.02 676.47,-349.64 665.98,-348.15 667.34,-355.02"/>
</g>
<!-- ../globals.ts -->
<g id="node21" class="node">
<title>../globals.ts</title>
<path fill="none" stroke="#cfffac" d="M548.33,-435.5C548.33,-435.5 478.67,-435.5 478.67,-435.5 474.83,-435.5 471,-431.67 471,-427.83 471,-427.83 471,-420.17 471,-420.17 471,-416.33 474.83,-412.5 478.67,-412.5 478.67,-412.5 548.33,-412.5 548.33,-412.5 552.17,-412.5 556,-416.33 556,-420.17 556,-420.17 556,-427.83 556,-427.83 556,-431.67 552.17,-435.5 548.33,-435.5"/>
<text text-anchor="middle" x="513.5" y="-420.3" font-family="Arial" font-size="14.00" fill="#cfffac">../globals.ts</text>
</g>
<!-- ../Route.ts&#45;&gt;../globals.ts -->
<g id="edge27" class="edge">
<title>../Route.ts&#45;&gt;../globals.ts</title>
<path fill="none" stroke="#757575" d="M343.95,-423.19C376.73,-423.34 424.14,-423.57 460.33,-423.75"/>
<polygon fill="#757575" stroke="#757575" points="460.68,-427.25 470.7,-423.8 460.72,-420.25 460.68,-427.25"/>
</g>
<!-- ../common.ts -->
<g id="node22" class="node">
<title>../common.ts</title>
<path fill="none" stroke="#cfffac" d="M344.33,-279.5C344.33,-279.5 264.67,-279.5 264.67,-279.5 260.83,-279.5 257,-275.67 257,-271.83 257,-271.83 257,-264.17 257,-264.17 257,-260.33 260.83,-256.5 264.67,-256.5 264.67,-256.5 344.33,-256.5 344.33,-256.5 348.17,-256.5 352,-260.33 352,-264.17 352,-264.17 352,-271.83 352,-271.83 352,-275.67 348.17,-279.5 344.33,-279.5"/>
<text text-anchor="middle" x="304.5" y="-264.3" font-family="Arial" font-size="14.00" fill="#cfffac">../common.ts</text>
</g>
<!-- ../constants.ts -->
<g id="node23" class="node">
<title>../constants.ts</title>
<path fill="none" stroke="#c6c5fe" d="M346.83,-545.5C346.83,-545.5 262.17,-545.5 262.17,-545.5 258.33,-545.5 254.5,-541.67 254.5,-537.83 254.5,-537.83 254.5,-530.17 254.5,-530.17 254.5,-526.33 258.33,-522.5 262.17,-522.5 262.17,-522.5 346.83,-522.5 346.83,-522.5 350.67,-522.5 354.5,-526.33 354.5,-530.17 354.5,-530.17 354.5,-537.83 354.5,-537.83 354.5,-541.67 350.67,-545.5 346.83,-545.5"/>
<text text-anchor="middle" x="304.5" y="-530.3" font-family="Arial" font-size="14.00" fill="#c6c5fe">../constants.ts</text>
</g>
<!-- ../constants.ts&#45;&gt;../EntityPrefab.ts -->
<g id="edge29" class="edge">
<title>../constants.ts&#45;&gt;../EntityPrefab.ts</title>
<path fill="none" stroke="#757575" d="M354.56,-526.89C381.61,-522.97 415.61,-518.04 445.13,-513.76"/>
<polygon fill="#757575" stroke="#757575" points="445.97,-517.18 455.36,-512.28 444.96,-510.25 445.97,-517.18"/>
</g>
<!-- ../constants.ts&#45;&gt;../HeadingDirection.ts -->
<g id="edge30" class="edge">
<title>../constants.ts&#45;&gt;../HeadingDirection.ts</title>
<path fill="none" stroke="#757575" d="M322.32,-545.51C345.44,-560.67 388.85,-586.82 430,-599 492.99,-617.64 567.3,-623.78 622.79,-625.45"/>
<polygon fill="#757575" stroke="#757575" points="622.83,-628.96 632.92,-625.72 623.01,-621.96 622.83,-628.96"/>
</g>
<!-- ../constants.ts&#45;&gt;../Three.ts -->
<g id="edge32" class="edge">
<title>../constants.ts&#45;&gt;../Three.ts</title>
<path fill="none" stroke="#757575" d="M341.86,-545.51C366.47,-552.76 399.86,-561.57 430,-566 572.64,-586.99 743.68,-586.91 825.41,-585.35"/>
<polygon fill="#757575" stroke="#757575" points="825.95,-588.84 835.87,-585.13 825.8,-581.84 825.95,-588.84"/>
</g>
<!-- ../constants.ts&#45;&gt;../Input.ts -->
<g id="edge31" class="edge">
<title>../constants.ts&#45;&gt;../Input.ts</title>
<path fill="none" stroke="#757575" d="M354.56,-536.61C388.65,-538.42 433.75,-540.82 467.03,-542.58"/>
<polygon fill="#757575" stroke="#757575" points="467.22,-546.1 477.39,-543.13 467.59,-539.11 467.22,-546.1"/>
</g>
<!-- ../routes.ts -->
<g id="node24" class="node">
<title>../routes.ts</title>
<path fill="none" stroke="#c6c5fe" d="M171.33,-434.5C171.33,-434.5 106.67,-434.5 106.67,-434.5 102.83,-434.5 99,-430.67 99,-426.83 99,-426.83 99,-419.17 99,-419.17 99,-415.33 102.83,-411.5 106.67,-411.5 106.67,-411.5 171.33,-411.5 171.33,-411.5 175.17,-411.5 179,-415.33 179,-419.17 179,-419.17 179,-426.83 179,-426.83 179,-430.67 175.17,-434.5 171.33,-434.5"/>
<text text-anchor="middle" x="139" y="-419.3" font-family="Arial" font-size="14.00" fill="#c6c5fe">../routes.ts</text>
</g>
<!-- ../routes.ts&#45;&gt;../Route.ts -->
<g id="edge36" class="edge">
<title>../routes.ts&#45;&gt;../Route.ts</title>
<path fill="none" stroke="#757575" d="M179.16,-423C201.98,-423 230.93,-423 255.16,-423"/>
<polygon fill="#757575" stroke="#757575" points="255.22,-426.5 265.22,-423 255.22,-419.5 255.22,-426.5"/>
</g>
<!-- auth.ts -->
<g id="node25" class="node">
<title>auth.ts</title>
<path fill="none" stroke="#c6c5fe" d="M159.83,-475.5C159.83,-475.5 118.17,-475.5 118.17,-475.5 114.33,-475.5 110.5,-471.67 110.5,-467.83 110.5,-467.83 110.5,-460.17 110.5,-460.17 110.5,-456.33 114.33,-452.5 118.17,-452.5 118.17,-452.5 159.83,-452.5 159.83,-452.5 163.67,-452.5 167.5,-456.33 167.5,-460.17 167.5,-460.17 167.5,-467.83 167.5,-467.83 167.5,-471.67 163.67,-475.5 159.83,-475.5"/>
<text text-anchor="middle" x="139" y="-460.3" font-family="Arial" font-size="14.00" fill="#c6c5fe">auth.ts</text>
</g>
<!-- auth.ts&#45;&gt;../Error.ts -->
<g id="edge39" class="edge">
<title>auth.ts&#45;&gt;../Error.ts</title>
<path fill="none" stroke="#757575" d="M167.58,-463.21C238.74,-461.07 434.35,-454.63 597,-444 898.83,-424.27 976.47,-433.7 1275,-385 1283.48,-383.62 1292.46,-381.76 1301.06,-379.78"/>
<polygon fill="#757575" stroke="#757575" points="1302.01,-383.15 1310.93,-377.43 1300.39,-376.35 1302.01,-383.15"/>
</g>
<!-- auth.ts&#45;&gt;../constants.ts -->
<g id="edge40" class="edge">
<title>auth.ts&#45;&gt;../constants.ts</title>
<path fill="none" stroke="#757575" d="M167,-475.56C194.33,-487.26 236.79,-505.44 267.09,-518.41"/>
<polygon fill="#757575" stroke="#757575" points="265.89,-521.71 276.46,-522.42 268.65,-515.27 265.89,-521.71"/>
</g>
<!-- entity.ts -->
<g id="node26" class="node">
<title>entity.ts</title>
<path fill="none" stroke="#c6c5fe" d="M162.33,-239.5C162.33,-239.5 115.67,-239.5 115.67,-239.5 111.83,-239.5 108,-235.67 108,-231.83 108,-231.83 108,-224.17 108,-224.17 108,-220.33 111.83,-216.5 115.67,-216.5 115.67,-216.5 162.33,-216.5 162.33,-216.5 166.17,-216.5 170,-220.33 170,-224.17 170,-224.17 170,-231.83 170,-231.83 170,-235.67 166.17,-239.5 162.33,-239.5"/>
<text text-anchor="middle" x="139" y="-224.3" font-family="Arial" font-size="14.00" fill="#c6c5fe">entity.ts</text>
</g>
<!-- entity.ts&#45;&gt;../Entity.ts -->
<g id="edge41" class="edge">
<title>entity.ts&#45;&gt;../Entity.ts</title>
<path fill="none" stroke="#757575" d="M146.6,-239.56C157.97,-258.3 183.11,-295.03 215,-313 285.89,-352.95 849.05,-435.59 1016.01,-459.43"/>
<polygon fill="#757575" stroke="#757575" points="1015.57,-462.9 1025.97,-460.85 1016.56,-455.97 1015.57,-462.9"/>
</g>
<!-- entity.ts&#45;&gt;../Error.ts -->
<g id="edge42" class="edge">
<title>entity.ts&#45;&gt;../Error.ts</title>
<path fill="none" stroke="#757575" d="M149.59,-216.38C189.07,-169.92 344.93,0 512.5,0 512.5,0 512.5,0 1064.5,0 1167.7,0 1208.89,-18.75 1275,-98 1337.33,-172.72 1345.25,-296.4 1345.77,-346.21"/>
<polygon fill="#757575" stroke="#757575" points="1342.27,-346.46 1345.78,-356.45 1349.27,-346.45 1342.27,-346.46"/>
</g>
<!-- entity.ts&#45;&gt;../Observable.ts -->
<g id="edge45" class="edge">
<title>entity.ts&#45;&gt;../Observable.ts</title>
<path fill="none" stroke="#757575" d="M149.46,-216.5C162.44,-201.73 187.32,-176.83 215,-167 289.96,-140.36 314.46,-165.24 394,-167 484.29,-169 507.98,-160.79 597,-176 767.74,-205.17 802.55,-244.69 970,-289 979.22,-291.44 988.99,-293.85 998.61,-296.12"/>
<polygon fill="#757575" stroke="#757575" points="998.01,-299.57 1008.54,-298.43 999.59,-292.75 998.01,-299.57"/>
</g>
<!-- entity.ts&#45;&gt;../Log.ts -->
<g id="edge43" class="edge">
<title>entity.ts&#45;&gt;../Log.ts</title>
<path fill="none" stroke="#757575" d="M149.46,-216.5C162.44,-201.73 187.32,-176.83 215,-167 436.08,-88.44 725.67,-148.62 832.02,-175.64"/>
<polygon fill="#757575" stroke="#757575" points="831.18,-179.04 841.73,-178.15 832.92,-172.26 831.18,-179.04"/>
</g>
<!-- entity.ts&#45;&gt;../NetworkedEntityServer.ts -->
<g id="edge44" class="edge">
<title>entity.ts&#45;&gt;../NetworkedEntityServer.ts</title>
<path fill="none" stroke="#757575" d="M170.37,-220.57C191.65,-215.36 220.74,-208.25 246.3,-201.99"/>
<polygon fill="#757575" stroke="#757575" points="247.38,-205.33 256.26,-199.56 245.72,-198.53 247.38,-205.33"/>
</g>
<!-- entity.ts&#45;&gt;../functions/Networking.ts -->
<g id="edge47" class="edge">
<title>entity.ts&#45;&gt;../functions/Networking.ts</title>
<path fill="none" stroke="#757575" d="M170.17,-228.16C223.82,-228.45 337.85,-229.06 419.56,-229.5"/>
<polygon fill="#757575" stroke="#757575" points="419.85,-233 429.87,-229.56 419.88,-226 419.85,-233"/>
</g>
<!-- entity.ts&#45;&gt;../util.ts -->
<g id="edge48" class="edge">
<title>entity.ts&#45;&gt;../util.ts</title>
<path fill="none" stroke="#757575" d="M150.37,-239.58C163.77,-253.69 188.52,-276.98 215,-288 217.61,-289.09 550.81,-326.65 666.2,-339.64"/>
<polygon fill="#757575" stroke="#757575" points="666.02,-343.14 676.35,-340.78 666.81,-336.18 666.02,-343.14"/>
</g>
<!-- entity.ts&#45;&gt;../common.ts -->
<g id="edge46" class="edge">
<title>entity.ts&#45;&gt;../common.ts</title>
<path fill="none" stroke="#757575" d="M170.37,-235.43C191.81,-240.68 221.18,-247.86 246.88,-254.15"/>
<polygon fill="#757575" stroke="#757575" points="246.35,-257.62 256.9,-256.6 248.02,-250.82 246.35,-257.62"/>
</g>
<!-- index.ts -->
<g id="node27" class="node">
<title>index.ts</title>
<path fill="none" stroke="#c6c5fe" d="M55.33,-454.5C55.33,-454.5 7.67,-454.5 7.67,-454.5 3.83,-454.5 0,-450.67 0,-446.83 0,-446.83 0,-439.17 0,-439.17 0,-435.33 3.83,-431.5 7.67,-431.5 7.67,-431.5 55.33,-431.5 55.33,-431.5 59.17,-431.5 63,-435.33 63,-439.17 63,-439.17 63,-446.83 63,-446.83 63,-450.67 59.17,-454.5 55.33,-454.5"/>
<text text-anchor="middle" x="31.5" y="-439.3" font-family="Arial" font-size="14.00" fill="#c6c5fe">index.ts</text>
</g>
<!-- index.ts&#45;&gt;../constants.ts -->
<g id="edge49" class="edge">
<title>index.ts&#45;&gt;../constants.ts</title>
<path fill="none" stroke="#757575" d="M48.13,-454.6C61.15,-463.76 80.48,-476.25 99,-484 146.04,-503.67 202.53,-516.75 244.21,-524.58"/>
<polygon fill="#757575" stroke="#757575" points="243.74,-528.05 254.21,-526.41 245,-521.17 243.74,-528.05"/>
</g>
<!-- index.ts&#45;&gt;../routes.ts -->
<g id="edge50" class="edge">
<title>index.ts&#45;&gt;../routes.ts</title>
<path fill="none" stroke="#757575" d="M63.01,-437.22C71.15,-435.67 80.15,-433.97 89.01,-432.29"/>
<polygon fill="#757575" stroke="#757575" points="89.72,-435.71 98.89,-430.41 88.42,-428.84 89.72,-435.71"/>
</g>
<!-- index.ts&#45;&gt;auth.ts -->
<g id="edge51" class="edge">
<title>index.ts&#45;&gt;auth.ts</title>
<path fill="none" stroke="#757575" d="M63.01,-449.07C74.71,-451.4 88.19,-454.09 100.47,-456.53"/>
<polygon fill="#757575" stroke="#757575" points="99.94,-459.99 110.43,-458.51 101.31,-453.13 99.94,-459.99"/>
</g>
<!-- index.ts&#45;&gt;entity.ts -->
<g id="edge52" class="edge">
<title>index.ts&#45;&gt;entity.ts</title>
<path fill="none" stroke="#757575" d="M38.17,-431.44C55.2,-396.73 106.06,-293.1 127.87,-248.63"/>
<polygon fill="#757575" stroke="#757575" points="131.04,-250.14 132.3,-239.62 124.75,-247.05 131.04,-250.14"/>
</g>
</g>
</svg>
