<?xml version="1.0" encoding="UTF-8" standalone="no"?>
<!DOCTYPE svg PUBLIC "-//W3C//DTD SVG 1.1//EN"
 "http://www.w3.org/Graphics/SVG/1.1/DTD/svg11.dtd">
<!-- Generated by graphviz version 2.43.0 (0)
 -->
<!-- Title: G Pages: 1 -->
<svg width="2533pt" height="1631pt"
 viewBox="0.00 0.00 2533.20 1631.29" xmlns="http://www.w3.org/2000/svg" xmlns:xlink="http://www.w3.org/1999/xlink">
<g id="graph0" class="graph" transform="scale(1 1) rotate(0) translate(21.6 1609.69)">
<title>G</title>
<polygon fill="#111111" stroke="transparent" points="-21.6,21.6 -21.6,-1609.69 2511.6,-1609.69 2511.6,21.6 -21.6,21.6"/>
<!-- ../Action.ts -->
<g id="node1" class="node">
<title>../Action.ts</title>
<path fill="none" stroke="#c6c5fe" d="M1716.33,-760.59C1716.33,-760.59 1651.67,-760.59 1651.67,-760.59 1647.83,-760.59 1644,-756.76 1644,-752.93 1644,-752.93 1644,-745.26 1644,-745.26 1644,-741.43 1647.83,-737.59 1651.67,-737.59 1651.67,-737.59 1716.33,-737.59 1716.33,-737.59 1720.17,-737.59 1724,-741.43 1724,-745.26 1724,-745.26 1724,-752.93 1724,-752.93 1724,-756.76 1720.17,-760.59 1716.33,-760.59"/>
<text text-anchor="middle" x="1684" y="-745.39" font-family="Arial" font-size="14.00" fill="#c6c5fe">../Action.ts</text>
</g>
<!-- ../Component.ts -->
<g id="node2" class="node">
<title>../Component.ts</title>
<path fill="none" stroke="#ff6c60" d="M1869.33,-803.59C1869.33,-803.59 1771.67,-803.59 1771.67,-803.59 1767.83,-803.59 1764,-799.76 1764,-795.93 1764,-795.93 1764,-788.26 1764,-788.26 1764,-784.43 1767.83,-780.59 1771.67,-780.59 1771.67,-780.59 1869.33,-780.59 1869.33,-780.59 1873.17,-780.59 1877,-784.43 1877,-788.26 1877,-788.26 1877,-795.93 1877,-795.93 1877,-799.76 1873.17,-803.59 1869.33,-803.59"/>
<text text-anchor="middle" x="1820.5" y="-788.39" font-family="Arial" font-size="14.00" fill="#ff6c60">../Component.ts</text>
</g>
<!-- ../Action.ts&#45;&gt;../Component.ts -->
<g id="edge1" class="edge">
<title>../Action.ts&#45;&gt;../Component.ts</title>
<path fill="none" stroke="#757575" d="M1721.04,-760.62C1737.18,-765.77 1756.39,-771.91 1773.54,-777.4"/>
<polygon fill="#757575" stroke="#757575" points="1772.77,-780.83 1783.36,-780.54 1774.9,-774.16 1772.77,-780.83"/>
</g>
<!-- ../Debug.ts -->
<g id="node4" class="node">
<title>../Debug.ts</title>
<path fill="none" stroke="#c6c5fe" d="M2375.33,-934.59C2375.33,-934.59 2308.67,-934.59 2308.67,-934.59 2304.83,-934.59 2301,-930.76 2301,-926.93 2301,-926.93 2301,-919.26 2301,-919.26 2301,-915.43 2304.83,-911.59 2308.67,-911.59 2308.67,-911.59 2375.33,-911.59 2375.33,-911.59 2379.17,-911.59 2383,-915.43 2383,-919.26 2383,-919.26 2383,-926.93 2383,-926.93 2383,-930.76 2379.17,-934.59 2375.33,-934.59"/>
<text text-anchor="middle" x="2342" y="-919.39" font-family="Arial" font-size="14.00" fill="#c6c5fe">../Debug.ts</text>
</g>
<!-- ../Component.ts&#45;&gt;../Debug.ts -->
<g id="edge2" class="edge">
<title>../Component.ts&#45;&gt;../Debug.ts</title>
<path fill="none" stroke="#757575" d="M1830.76,-803.62C1845.87,-821.49 1877.69,-855.47 1913,-871.09 1979.62,-900.57 2192.39,-915.28 2290.53,-920.64"/>
<polygon fill="#757575" stroke="#757575" points="2290.61,-924.15 2300.79,-921.19 2290.99,-917.16 2290.61,-924.15"/>
</g>
<!-- ../EntityManager.ts -->
<g id="node5" class="node">
<title>../EntityManager.ts</title>
<path fill="none" stroke="#ff6c60" d="M2034.33,-771.59C2034.33,-771.59 1920.67,-771.59 1920.67,-771.59 1916.83,-771.59 1913,-767.76 1913,-763.93 1913,-763.93 1913,-756.26 1913,-756.26 1913,-752.43 1916.83,-748.59 1920.67,-748.59 1920.67,-748.59 2034.33,-748.59 2034.33,-748.59 2038.17,-748.59 2042,-752.43 2042,-756.26 2042,-756.26 2042,-763.93 2042,-763.93 2042,-767.76 2038.17,-771.59 2034.33,-771.59"/>
<text text-anchor="middle" x="1977.5" y="-756.39" font-family="Arial" font-size="14.00" fill="#ff6c60">../EntityManager.ts</text>
</g>
<!-- ../Component.ts&#45;&gt;../EntityManager.ts -->
<g id="edge3" class="edge">
<title>../Component.ts&#45;&gt;../EntityManager.ts</title>
<path fill="none" stroke="#757575" d="M1851.02,-780.56C1865.84,-776.56 1884.51,-772.27 1902.89,-768.55"/>
<polygon fill="#757575" stroke="#757575" points="1903.62,-771.97 1912.75,-766.6 1902.26,-765.1 1903.62,-771.97"/>
</g>
<!-- ../Error.ts -->
<g id="node6" class="node">
<title>../Error.ts</title>
<path fill="none" stroke="#cfffac" d="M2482.33,-888.59C2482.33,-888.59 2426.67,-888.59 2426.67,-888.59 2422.83,-888.59 2419,-884.76 2419,-880.93 2419,-880.93 2419,-873.26 2419,-873.26 2419,-869.43 2422.83,-865.59 2426.67,-865.59 2426.67,-865.59 2482.33,-865.59 2482.33,-865.59 2486.17,-865.59 2490,-869.43 2490,-873.26 2490,-873.26 2490,-880.93 2490,-880.93 2490,-884.76 2486.17,-888.59 2482.33,-888.59"/>
<text text-anchor="middle" x="2454.5" y="-873.39" font-family="Arial" font-size="14.00" fill="#cfffac">../Error.ts</text>
</g>
<!-- ../Component.ts&#45;&gt;../Error.ts -->
<g id="edge4" class="edge">
<title>../Component.ts&#45;&gt;../Error.ts</title>
<path fill="none" stroke="#757575" d="M1877.03,-803.67C1888.88,-805.96 1901.33,-808.22 1913,-810.09 2096.17,-839.42 2316.03,-863.15 2408.77,-872.63"/>
<polygon fill="#757575" stroke="#757575" points="2408.61,-876.13 2418.92,-873.67 2409.32,-869.17 2408.61,-876.13"/>
</g>
<!-- ../Observable.ts -->
<g id="node7" class="node">
<title>../Observable.ts</title>
<path fill="none" stroke="#c6c5fe" d="M2219.83,-1201.59C2219.83,-1201.59 2123.17,-1201.59 2123.17,-1201.59 2119.33,-1201.59 2115.5,-1197.76 2115.5,-1193.93 2115.5,-1193.93 2115.5,-1186.26 2115.5,-1186.26 2115.5,-1182.43 2119.33,-1178.59 2123.17,-1178.59 2123.17,-1178.59 2219.83,-1178.59 2219.83,-1178.59 2223.67,-1178.59 2227.5,-1182.43 2227.5,-1186.26 2227.5,-1186.26 2227.5,-1193.93 2227.5,-1193.93 2227.5,-1197.76 2223.67,-1201.59 2219.83,-1201.59"/>
<text text-anchor="middle" x="2171.5" y="-1186.39" font-family="Arial" font-size="14.00" fill="#c6c5fe">../Observable.ts</text>
</g>
<!-- ../Component.ts&#45;&gt;../Observable.ts -->
<g id="edge5" class="edge">
<title>../Component.ts&#45;&gt;../Observable.ts</title>
<path fill="none" stroke="#757575" d="M1829.7,-803.74C1845.28,-825.66 1880.49,-874.36 1913,-913.09 1997.81,-1014.15 2108.12,-1127.22 2151.66,-1171.19"/>
<polygon fill="#757575" stroke="#757575" points="2149.23,-1173.71 2158.76,-1178.34 2154.2,-1168.78 2149.23,-1173.71"/>
</g>
<!-- ../Animation.ts -->
<g id="node3" class="node">
<title>../Animation.ts</title>
<path fill="none" stroke="#cfffac" d="M1335.33,-685.59C1335.33,-685.59 1247.67,-685.59 1247.67,-685.59 1243.83,-685.59 1240,-681.76 1240,-677.93 1240,-677.93 1240,-670.26 1240,-670.26 1240,-666.43 1243.83,-662.59 1247.67,-662.59 1247.67,-662.59 1335.33,-662.59 1335.33,-662.59 1339.17,-662.59 1343,-666.43 1343,-670.26 1343,-670.26 1343,-677.93 1343,-677.93 1343,-681.76 1339.17,-685.59 1335.33,-685.59"/>
<text text-anchor="middle" x="1291.5" y="-670.39" font-family="Arial" font-size="14.00" fill="#cfffac">../Animation.ts</text>
</g>
<!-- ../Debug.ts&#45;&gt;../Error.ts -->
<g id="edge6" class="edge">
<title>../Debug.ts&#45;&gt;../Error.ts</title>
<path fill="none" stroke="#757575" d="M2370.88,-911.48C2384.62,-905.76 2401.39,-898.79 2416.21,-892.61"/>
<polygon fill="#757575" stroke="#757575" points="2417.74,-895.77 2425.63,-888.7 2415.05,-889.31 2417.74,-895.77"/>
</g>
<!-- ../EntityManager.ts&#45;&gt;../Component.ts -->
<g id="edge7" class="edge">
<title>../EntityManager.ts&#45;&gt;../Component.ts</title>
<path fill="none" stroke="#757575" d="M1946.99,-771.62C1929.95,-776.22 1907.79,-781.21 1886.85,-785.28"/>
<polygon fill="#757575" stroke="#757575" points="1886.2,-781.84 1877.02,-787.13 1887.5,-788.72 1886.2,-781.84"/>
</g>
<!-- ../EntityManager.ts&#45;&gt;../Error.ts -->
<g id="edge9" class="edge">
<title>../EntityManager.ts&#45;&gt;../Error.ts</title>
<path fill="none" stroke="#757575" d="M2042.07,-756.91C2100.97,-755.69 2190.47,-758.24 2265,-779.09 2327.6,-796.61 2393.35,-836.46 2428.24,-859.59"/>
<polygon fill="#757575" stroke="#757575" points="2426.58,-862.69 2436.83,-865.36 2430.49,-856.88 2426.58,-862.69"/>
</g>
<!-- ../EntityManager.ts&#45;&gt;../Observable.ts -->
<g id="edge10" class="edge">
<title>../EntityManager.ts&#45;&gt;../Observable.ts</title>
<path fill="none" stroke="#757575" d="M1983.64,-771.59C2009.61,-829.76 2126.6,-1091.78 2160.97,-1168.76"/>
<polygon fill="#757575" stroke="#757575" points="2157.99,-1170.65 2165.26,-1178.35 2164.38,-1167.8 2157.99,-1170.65"/>
</g>
<!-- ../EntityMeta.ts -->
<g id="node8" class="node">
<title>../EntityMeta.ts</title>
<path fill="none" stroke="#ff6c60" d="M2217.33,-811.59C2217.33,-811.59 2125.67,-811.59 2125.67,-811.59 2121.83,-811.59 2118,-807.76 2118,-803.93 2118,-803.93 2118,-796.26 2118,-796.26 2118,-792.43 2121.83,-788.59 2125.67,-788.59 2125.67,-788.59 2217.33,-788.59 2217.33,-788.59 2221.17,-788.59 2225,-792.43 2225,-796.26 2225,-796.26 2225,-803.93 2225,-803.93 2225,-807.76 2221.17,-811.59 2217.33,-811.59"/>
<text text-anchor="middle" x="2171.5" y="-796.39" font-family="Arial" font-size="14.00" fill="#ff6c60">../EntityMeta.ts</text>
</g>
<!-- ../EntityManager.ts&#45;&gt;../EntityMeta.ts -->
<g id="edge8" class="edge">
<title>../EntityManager.ts&#45;&gt;../EntityMeta.ts</title>
<path fill="none" stroke="#757575" d="M2033.78,-771.61C2056.94,-776.43 2084,-782.07 2107.89,-787.05"/>
<polygon fill="#757575" stroke="#757575" points="2107.42,-790.53 2117.92,-789.14 2108.85,-783.67 2107.42,-790.53"/>
</g>
<!-- ../Observable.ts&#45;&gt;../Debug.ts -->
<g id="edge25" class="edge">
<title>../Observable.ts&#45;&gt;../Debug.ts</title>
<path fill="none" stroke="#757575" d="M2179.96,-1178.27C2206.27,-1136.57 2295,-995.99 2328.26,-943.28"/>
<polygon fill="#757575" stroke="#757575" points="2331.25,-945.1 2333.63,-934.77 2325.33,-941.36 2331.25,-945.1"/>
</g>
<!-- ../EntityMeta.ts&#45;&gt;../Component.ts -->
<g id="edge11" class="edge">
<title>../EntityMeta.ts&#45;&gt;../Component.ts</title>
<path fill="none" stroke="#757575" d="M2117.87,-798.89C2056.2,-797.47 1953.99,-795.13 1887.18,-793.6"/>
<polygon fill="#757575" stroke="#757575" points="1887.26,-790.1 1877.19,-793.37 1887.1,-797.1 1887.26,-790.1"/>
</g>
<!-- ../HeadingDirection.ts -->
<g id="node9" class="node">
<title>../HeadingDirection.ts</title>
<path fill="none" stroke="#c6c5fe" d="M1123.33,-1031.59C1123.33,-1031.59 992.67,-1031.59 992.67,-1031.59 988.83,-1031.59 985,-1027.76 985,-1023.93 985,-1023.93 985,-1016.26 985,-1016.26 985,-1012.43 988.83,-1008.59 992.67,-1008.59 992.67,-1008.59 1123.33,-1008.59 1123.33,-1008.59 1127.17,-1008.59 1131,-1012.43 1131,-1016.26 1131,-1016.26 1131,-1023.93 1131,-1023.93 1131,-1027.76 1127.17,-1031.59 1123.33,-1031.59"/>
<text text-anchor="middle" x="1058" y="-1016.39" font-family="Arial" font-size="14.00" fill="#c6c5fe">../HeadingDirection.ts</text>
</g>
<!-- ../HeadingDirection.ts&#45;&gt;../Error.ts -->
<g id="edge12" class="edge">
<title>../HeadingDirection.ts&#45;&gt;../Error.ts</title>
<path fill="none" stroke="#757575" d="M1070.93,-1031.83C1114.04,-1073.38 1267.51,-1213.88 1425,-1268.09 1684.66,-1357.48 1768,-1319.44 2042,-1301.09 2141.78,-1294.41 2177.17,-1318.91 2265,-1271.09 2335.88,-1232.51 2345.16,-1204.37 2383,-1133.09 2425.64,-1052.78 2444.42,-944.26 2450.8,-898.67"/>
<polygon fill="#757575" stroke="#757575" points="2454.27,-899.1 2452.13,-888.73 2447.34,-898.18 2454.27,-899.1"/>
</g>
<!-- ../units/convert.ts -->
<g id="node10" class="node">
<title>../units/convert.ts</title>
<path fill="none" stroke="#cfffac" d="M1566.33,-921.59C1566.33,-921.59 1462.67,-921.59 1462.67,-921.59 1458.83,-921.59 1455,-917.76 1455,-913.93 1455,-913.93 1455,-906.26 1455,-906.26 1455,-902.43 1458.83,-898.59 1462.67,-898.59 1462.67,-898.59 1566.33,-898.59 1566.33,-898.59 1570.17,-898.59 1574,-902.43 1574,-906.26 1574,-906.26 1574,-913.93 1574,-913.93 1574,-917.76 1570.17,-921.59 1566.33,-921.59"/>
<text text-anchor="middle" x="1514.5" y="-906.39" font-family="Arial" font-size="14.00" fill="#cfffac">../units/convert.ts</text>
</g>
<!-- ../HeadingDirection.ts&#45;&gt;../units/convert.ts -->
<g id="edge13" class="edge">
<title>../HeadingDirection.ts&#45;&gt;../units/convert.ts</title>
<path fill="none" stroke="#757575" d="M1131.32,-1024.8C1199.67,-1026.87 1304.09,-1023.75 1389,-994.09 1430,-979.77 1470.34,-948.53 1493.54,-928.45"/>
<polygon fill="#757575" stroke="#757575" points="1496.1,-930.85 1501.27,-921.61 1491.46,-925.61 1496.1,-930.85"/>
</g>
<!-- ../Input.ts -->
<g id="node11" class="node">
<title>../Input.ts</title>
<path fill="none" stroke="#cfffac" d="M1086.33,-757.59C1086.33,-757.59 1029.67,-757.59 1029.67,-757.59 1025.83,-757.59 1022,-753.76 1022,-749.93 1022,-749.93 1022,-742.26 1022,-742.26 1022,-738.43 1025.83,-734.59 1029.67,-734.59 1029.67,-734.59 1086.33,-734.59 1086.33,-734.59 1090.17,-734.59 1094,-738.43 1094,-742.26 1094,-742.26 1094,-749.93 1094,-749.93 1094,-753.76 1090.17,-757.59 1086.33,-757.59"/>
<text text-anchor="middle" x="1058" y="-742.39" font-family="Arial" font-size="14.00" fill="#cfffac">../Input.ts</text>
</g>
<!-- ../Log.ts -->
<g id="node12" class="node">
<title>../Log.ts</title>
<path fill="none" stroke="#c6c5fe" d="M2002.33,-1451.59C2002.33,-1451.59 1952.67,-1451.59 1952.67,-1451.59 1948.83,-1451.59 1945,-1447.76 1945,-1443.93 1945,-1443.93 1945,-1436.26 1945,-1436.26 1945,-1432.43 1948.83,-1428.59 1952.67,-1428.59 1952.67,-1428.59 2002.33,-1428.59 2002.33,-1428.59 2006.17,-1428.59 2010,-1432.43 2010,-1436.26 2010,-1436.26 2010,-1443.93 2010,-1443.93 2010,-1447.76 2006.17,-1451.59 2002.33,-1451.59"/>
<text text-anchor="middle" x="1977.5" y="-1436.39" font-family="Arial" font-size="14.00" fill="#c6c5fe">../Log.ts</text>
</g>
<!-- ../Log.ts&#45;&gt;../Observable.ts -->
<g id="edge14" class="edge">
<title>../Log.ts&#45;&gt;../Observable.ts</title>
<path fill="none" stroke="#757575" d="M2010.19,-1431.76C2021.16,-1427.74 2032.95,-1422.02 2042,-1414.09 2059.35,-1398.9 2131.81,-1263.45 2159.59,-1210.85"/>
<polygon fill="#757575" stroke="#757575" points="2162.81,-1212.24 2164.38,-1201.76 2156.62,-1208.98 2162.81,-1212.24"/>
</g>
<!-- ../collections/InstanceMap.ts -->
<g id="node13" class="node">
<title>../collections/InstanceMap.ts</title>
<path fill="none" stroke="#cfffac" d="M2257.33,-1439.59C2257.33,-1439.59 2085.67,-1439.59 2085.67,-1439.59 2081.83,-1439.59 2078,-1435.76 2078,-1431.93 2078,-1431.93 2078,-1424.26 2078,-1424.26 2078,-1420.43 2081.83,-1416.59 2085.67,-1416.59 2085.67,-1416.59 2257.33,-1416.59 2257.33,-1416.59 2261.17,-1416.59 2265,-1420.43 2265,-1424.26 2265,-1424.26 2265,-1431.93 2265,-1431.93 2265,-1435.76 2261.17,-1439.59 2257.33,-1439.59"/>
<text text-anchor="middle" x="2171.5" y="-1424.39" font-family="Arial" font-size="14.00" fill="#cfffac">../collections/InstanceMap.ts</text>
</g>
<!-- ../Log.ts&#45;&gt;../collections/InstanceMap.ts -->
<g id="edge15" class="edge">
<title>../Log.ts&#45;&gt;../collections/InstanceMap.ts</title>
<path fill="none" stroke="#757575" d="M2010.2,-1438.11C2026.3,-1437.1 2046.85,-1435.82 2067.83,-1434.51"/>
<polygon fill="#757575" stroke="#757575" points="2068.05,-1438 2077.81,-1433.89 2067.61,-1431.02 2068.05,-1438"/>
</g>
<!-- ../functions/Array.ts -->
<g id="node14" class="node">
<title>../functions/Array.ts</title>
<path fill="none" stroke="#cfffac" d="M2229.33,-1398.59C2229.33,-1398.59 2113.67,-1398.59 2113.67,-1398.59 2109.83,-1398.59 2106,-1394.76 2106,-1390.93 2106,-1390.93 2106,-1383.26 2106,-1383.26 2106,-1379.43 2109.83,-1375.59 2113.67,-1375.59 2113.67,-1375.59 2229.33,-1375.59 2229.33,-1375.59 2233.17,-1375.59 2237,-1379.43 2237,-1383.26 2237,-1383.26 2237,-1390.93 2237,-1390.93 2237,-1394.76 2233.17,-1398.59 2229.33,-1398.59"/>
<text text-anchor="middle" x="2171.5" y="-1383.39" font-family="Arial" font-size="14.00" fill="#cfffac">../functions/Array.ts</text>
</g>
<!-- ../Log.ts&#45;&gt;../functions/Array.ts -->
<g id="edge16" class="edge">
<title>../Log.ts&#45;&gt;../functions/Array.ts</title>
<path fill="none" stroke="#757575" d="M2010.05,-1428.66C2029.49,-1421.87 2055,-1413.37 2078,-1407.09 2085.97,-1404.91 2094.39,-1402.82 2102.76,-1400.86"/>
<polygon fill="#757575" stroke="#757575" points="2103.57,-1404.27 2112.54,-1398.63 2102.01,-1397.44 2103.57,-1404.27"/>
</g>
<!-- ../functions/Map.ts -->
<g id="node15" class="node">
<title>../functions/Map.ts</title>
<path fill="none" stroke="#cfffac" d="M2227.33,-1521.59C2227.33,-1521.59 2115.67,-1521.59 2115.67,-1521.59 2111.83,-1521.59 2108,-1517.76 2108,-1513.93 2108,-1513.93 2108,-1506.26 2108,-1506.26 2108,-1502.43 2111.83,-1498.59 2115.67,-1498.59 2115.67,-1498.59 2227.33,-1498.59 2227.33,-1498.59 2231.17,-1498.59 2235,-1502.43 2235,-1506.26 2235,-1506.26 2235,-1513.93 2235,-1513.93 2235,-1517.76 2231.17,-1521.59 2227.33,-1521.59"/>
<text text-anchor="middle" x="2171.5" y="-1506.39" font-family="Arial" font-size="14.00" fill="#cfffac">../functions/Map.ts</text>
</g>
<!-- ../Log.ts&#45;&gt;../functions/Map.ts -->
<g id="edge17" class="edge">
<title>../Log.ts&#45;&gt;../functions/Map.ts</title>
<path fill="none" stroke="#757575" d="M1998.05,-1451.78C2017.65,-1463.05 2049.01,-1479.86 2078,-1490.09 2084.35,-1492.33 2091.04,-1494.37 2097.79,-1496.21"/>
<polygon fill="#757575" stroke="#757575" points="2097.15,-1499.66 2107.7,-1498.76 2098.89,-1492.88 2097.15,-1499.66"/>
</g>
<!-- ../functions/Set.ts -->
<g id="node16" class="node">
<title>../functions/Set.ts</title>
<path fill="none" stroke="#cfffac" d="M2223.83,-1480.59C2223.83,-1480.59 2119.17,-1480.59 2119.17,-1480.59 2115.33,-1480.59 2111.5,-1476.76 2111.5,-1472.93 2111.5,-1472.93 2111.5,-1465.26 2111.5,-1465.26 2111.5,-1461.43 2115.33,-1457.59 2119.17,-1457.59 2119.17,-1457.59 2223.83,-1457.59 2223.83,-1457.59 2227.67,-1457.59 2231.5,-1461.43 2231.5,-1465.26 2231.5,-1465.26 2231.5,-1472.93 2231.5,-1472.93 2231.5,-1476.76 2227.67,-1480.59 2223.83,-1480.59"/>
<text text-anchor="middle" x="2171.5" y="-1465.39" font-family="Arial" font-size="14.00" fill="#cfffac">../functions/Set.ts</text>
</g>
<!-- ../Log.ts&#45;&gt;../functions/Set.ts -->
<g id="edge18" class="edge">
<title>../Log.ts&#45;&gt;../functions/Set.ts</title>
<path fill="none" stroke="#757575" d="M2010.2,-1444.88C2034.9,-1448.61 2070.11,-1453.93 2101.25,-1458.63"/>
<polygon fill="#757575" stroke="#757575" points="2100.78,-1462.1 2111.19,-1460.13 2101.83,-1455.18 2100.78,-1462.1"/>
</g>
<!-- ../Message.ts -->
<g id="node17" class="node">
<title>../Message.ts</title>
<path fill="none" stroke="#c6c5fe" d="M1555.83,-450.59C1555.83,-450.59 1473.17,-450.59 1473.17,-450.59 1469.33,-450.59 1465.5,-446.76 1465.5,-442.93 1465.5,-442.93 1465.5,-435.26 1465.5,-435.26 1465.5,-431.43 1469.33,-427.59 1473.17,-427.59 1473.17,-427.59 1555.83,-427.59 1555.83,-427.59 1559.67,-427.59 1563.5,-431.43 1563.5,-435.26 1563.5,-435.26 1563.5,-442.93 1563.5,-442.93 1563.5,-446.76 1559.67,-450.59 1555.83,-450.59"/>
<text text-anchor="middle" x="1514.5" y="-435.39" font-family="Arial" font-size="14.00" fill="#c6c5fe">../Message.ts</text>
</g>
<!-- ../Message.ts&#45;&gt;../Component.ts -->
<g id="edge19" class="edge">
<title>../Message.ts&#45;&gt;../Component.ts</title>
<path fill="none" stroke="#757575" d="M1542.64,-450.64C1586.98,-470.73 1675.25,-516.08 1728,-579.09 1777.8,-638.58 1804.48,-729.26 1814.63,-770.42"/>
<polygon fill="#757575" stroke="#757575" points="1811.24,-771.29 1816.95,-780.21 1818.05,-769.67 1811.24,-771.29"/>
</g>
<!-- ../Message.ts&#45;&gt;../Error.ts -->
<g id="edge20" class="edge">
<title>../Message.ts&#45;&gt;../Error.ts</title>
<path fill="none" stroke="#757575" d="M1522.26,-427.43C1559.21,-365.29 1743.73,-76.09 1976.5,-76.09 1976.5,-76.09 1976.5,-76.09 2172.5,-76.09 2342.56,-76.09 2434.37,-727.07 2450.81,-855.31"/>
<polygon fill="#757575" stroke="#757575" points="2447.36,-855.98 2452.09,-865.46 2454.31,-855.1 2447.36,-855.98"/>
</g>
<!-- ../NetworkedEntityServer.ts -->
<g id="node18" class="node">
<title>../NetworkedEntityServer.ts</title>
<path fill="none" stroke="#c6c5fe" d="M368.33,-1412.59C368.33,-1412.59 204.67,-1412.59 204.67,-1412.59 200.83,-1412.59 197,-1408.76 197,-1404.93 197,-1404.93 197,-1397.26 197,-1397.26 197,-1393.43 200.83,-1389.59 204.67,-1389.59 204.67,-1389.59 368.33,-1389.59 368.33,-1389.59 372.17,-1389.59 376,-1393.43 376,-1397.26 376,-1397.26 376,-1404.93 376,-1404.93 376,-1408.76 372.17,-1412.59 368.33,-1412.59"/>
<text text-anchor="middle" x="286.5" y="-1397.39" font-family="Arial" font-size="14.00" fill="#c6c5fe">../NetworkedEntityServer.ts</text>
</g>
<!-- ../NetworkedEntityServer.ts&#45;&gt;../Component.ts -->
<g id="edge21" class="edge">
<title>../NetworkedEntityServer.ts&#45;&gt;../Component.ts</title>
<path fill="none" stroke="#757575" d="M305.56,-1389.58C369.43,-1349.3 585.06,-1217.09 664,-1217.09 664,-1217.09 664,-1217.09 837.5,-1217.09 1192.92,-1217.09 1307.63,-1185.28 1604,-989.09 1623.94,-975.89 1621.17,-963.84 1640,-949.09 1674.91,-921.76 1693.63,-930.1 1728,-902.09 1760.64,-875.49 1790.17,-835.9 1806.4,-812.17"/>
<polygon fill="#757575" stroke="#757575" points="1809.47,-813.88 1812.14,-803.63 1803.65,-809.98 1809.47,-813.88"/>
</g>
<!-- ../NetworkedEntityServer.ts&#45;&gt;../Error.ts -->
<g id="edge22" class="edge">
<title>../NetworkedEntityServer.ts&#45;&gt;../Error.ts</title>
<path fill="none" stroke="#757575" d="M311.71,-1412.66C387.27,-1447.67 626.24,-1550.09 835.5,-1550.09 835.5,-1550.09 835.5,-1550.09 2172.5,-1550.09 2214.47,-1550.09 2233.26,-1558.55 2265,-1531.09 2381.55,-1430.3 2340.49,-1353.2 2383,-1205.09 2415.63,-1091.41 2440.85,-951.71 2449.89,-898.79"/>
<polygon fill="#757575" stroke="#757575" points="2453.35,-899.3 2451.57,-888.85 2446.45,-898.13 2453.35,-899.3"/>
</g>
<!-- ../functions/Networking.ts -->
<g id="node19" class="node">
<title>../functions/Networking.ts</title>
<path fill="none" stroke="#c6c5fe" d="M571.33,-1370.59C571.33,-1370.59 419.67,-1370.59 419.67,-1370.59 415.83,-1370.59 412,-1366.76 412,-1362.93 412,-1362.93 412,-1355.26 412,-1355.26 412,-1351.43 415.83,-1347.59 419.67,-1347.59 419.67,-1347.59 571.33,-1347.59 571.33,-1347.59 575.17,-1347.59 579,-1351.43 579,-1355.26 579,-1355.26 579,-1362.93 579,-1362.93 579,-1366.76 575.17,-1370.59 571.33,-1370.59"/>
<text text-anchor="middle" x="495.5" y="-1355.39" font-family="Arial" font-size="14.00" fill="#c6c5fe">../functions/Networking.ts</text>
</g>
<!-- ../NetworkedEntityServer.ts&#45;&gt;../functions/Networking.ts -->
<g id="edge23" class="edge">
<title>../NetworkedEntityServer.ts&#45;&gt;../functions/Networking.ts</title>
<path fill="none" stroke="#757575" d="M344.34,-1389.56C370.13,-1384.33 400.81,-1378.1 427.69,-1372.65"/>
<polygon fill="#757575" stroke="#757575" points="428.69,-1376.02 437.79,-1370.6 427.29,-1369.16 428.69,-1376.02"/>
</g>
<!-- ../util.ts -->
<g id="node20" class="node">
<title>../util.ts</title>
<path fill="none" stroke="#c6c5fe" d="M1842.33,-1447.59C1842.33,-1447.59 1798.67,-1447.59 1798.67,-1447.59 1794.83,-1447.59 1791,-1443.76 1791,-1439.93 1791,-1439.93 1791,-1432.26 1791,-1432.26 1791,-1428.43 1794.83,-1424.59 1798.67,-1424.59 1798.67,-1424.59 1842.33,-1424.59 1842.33,-1424.59 1846.17,-1424.59 1850,-1428.43 1850,-1432.26 1850,-1432.26 1850,-1439.93 1850,-1439.93 1850,-1443.76 1846.17,-1447.59 1842.33,-1447.59"/>
<text text-anchor="middle" x="1820.5" y="-1432.39" font-family="Arial" font-size="14.00" fill="#c6c5fe">../util.ts</text>
</g>
<!-- ../NetworkedEntityServer.ts&#45;&gt;../util.ts -->
<g id="edge24" class="edge">
<title>../NetworkedEntityServer.ts&#45;&gt;../util.ts</title>
<path fill="none" stroke="#757575" d="M376.11,-1408.13C507.71,-1418.35 748.63,-1436.09 835.5,-1436.09 835.5,-1436.09 835.5,-1436.09 1515.5,-1436.09 1610.9,-1436.09 1723.13,-1436.09 1780.87,-1436.09"/>
<polygon fill="#757575" stroke="#757575" points="1781,-1439.59 1791,-1436.09 1781,-1432.59 1781,-1439.59"/>
</g>
<!-- ../functions/Networking.ts&#45;&gt;../Component.ts -->
<g id="edge92" class="edge">
<title>../functions/Networking.ts&#45;&gt;../Component.ts</title>
<path fill="none" stroke="#757575" d="M579.11,-1348.83C786,-1322.77 1315.12,-1253.91 1389,-1222.09 1407.62,-1214.07 1407.77,-1204.76 1425,-1194.09 1500.04,-1147.62 1546.34,-1174.92 1604,-1108.09 1639.27,-1067.22 1604.87,-1033.08 1640,-992.09 1668.33,-959.04 1696.11,-978.73 1728,-949.09 1770.33,-909.75 1798.93,-846.33 1811.78,-813.43"/>
<polygon fill="#757575" stroke="#757575" points="1815.12,-814.48 1815.39,-803.89 1808.57,-812 1815.12,-814.48"/>
</g>
<!-- ../functions/Networking.ts&#45;&gt;../EntityManager.ts -->
<g id="edge93" class="edge">
<title>../functions/Networking.ts&#45;&gt;../EntityManager.ts</title>
<path fill="none" stroke="#757575" d="M579.05,-1359.47C647.69,-1359.75 747.95,-1360.09 835.5,-1360.09 835.5,-1360.09 835.5,-1360.09 1059,-1360.09 1439.29,-1360.09 1643.67,-1409.38 1877,-1109.09 1957.26,-1005.8 1972.78,-840.5 1975.78,-781.71"/>
<polygon fill="#757575" stroke="#757575" points="1979.28,-781.86 1976.22,-771.71 1972.29,-781.55 1979.28,-781.86"/>
</g>
<!-- ../functions/Networking.ts&#45;&gt;../util.ts -->
<g id="edge95" class="edge">
<title>../functions/Networking.ts&#45;&gt;../util.ts</title>
<path fill="none" stroke="#757575" d="M559.04,-1370.64C626.88,-1382.14 738.49,-1398.09 835.5,-1398.09 835.5,-1398.09 835.5,-1398.09 1515.5,-1398.09 1611.39,-1398.09 1722.98,-1416.94 1780.61,-1428.09"/>
<polygon fill="#757575" stroke="#757575" points="1780.24,-1431.58 1790.73,-1430.07 1781.59,-1424.71 1780.24,-1431.58"/>
</g>
<!-- ../constants.ts -->
<g id="node26" class="node">
<title>../constants.ts</title>
<path fill="none" stroke="#ff6c60" d="M707.33,-633.59C707.33,-633.59 622.67,-633.59 622.67,-633.59 618.83,-633.59 615,-629.76 615,-625.93 615,-625.93 615,-618.26 615,-618.26 615,-614.43 618.83,-610.59 622.67,-610.59 622.67,-610.59 707.33,-610.59 707.33,-610.59 711.17,-610.59 715,-614.43 715,-618.26 715,-618.26 715,-625.93 715,-625.93 715,-629.76 711.17,-633.59 707.33,-633.59"/>
<text text-anchor="middle" x="665" y="-618.39" font-family="Arial" font-size="14.00" fill="#ff6c60">../constants.ts</text>
</g>
<!-- ../functions/Networking.ts&#45;&gt;../constants.ts -->
<g id="edge94" class="edge">
<title>../functions/Networking.ts&#45;&gt;../constants.ts</title>
<path fill="none" stroke="#757575" d="M499.13,-1347.52C518.08,-1264.13 633.73,-755.26 659.09,-643.7"/>
<polygon fill="#757575" stroke="#757575" points="662.57,-644.17 661.37,-633.64 655.75,-642.62 662.57,-644.17"/>
</g>
<!-- ../util.ts&#45;&gt;../Log.ts -->
<g id="edge111" class="edge">
<title>../util.ts&#45;&gt;../Log.ts</title>
<path fill="none" stroke="#757575" d="M1850.29,-1436.84C1874.02,-1437.45 1907.99,-1438.32 1934.71,-1439.01"/>
<polygon fill="#757575" stroke="#757575" points="1934.84,-1442.52 1944.93,-1439.28 1935.02,-1435.52 1934.84,-1442.52"/>
</g>
<!-- ../Query.ts -->
<g id="node21" class="node">
<title>../Query.ts</title>
<path fill="none" stroke="#c6c5fe" d="M1715.83,-1024.59C1715.83,-1024.59 1652.17,-1024.59 1652.17,-1024.59 1648.33,-1024.59 1644.5,-1020.76 1644.5,-1016.93 1644.5,-1016.93 1644.5,-1009.26 1644.5,-1009.26 1644.5,-1005.43 1648.33,-1001.59 1652.17,-1001.59 1652.17,-1001.59 1715.83,-1001.59 1715.83,-1001.59 1719.67,-1001.59 1723.5,-1005.43 1723.5,-1009.26 1723.5,-1009.26 1723.5,-1016.93 1723.5,-1016.93 1723.5,-1020.76 1719.67,-1024.59 1715.83,-1024.59"/>
<text text-anchor="middle" x="1684" y="-1009.39" font-family="Arial" font-size="14.00" fill="#c6c5fe">../Query.ts</text>
</g>
<!-- ../Query.ts&#45;&gt;../Component.ts -->
<g id="edge26" class="edge">
<title>../Query.ts&#45;&gt;../Component.ts</title>
<path fill="none" stroke="#757575" d="M1709.61,-1001.57C1716.18,-997.65 1722.86,-992.8 1728,-987.09 1752.78,-959.56 1794.01,-857.85 1811.38,-813.27"/>
<polygon fill="#757575" stroke="#757575" points="1814.74,-814.3 1815.08,-803.71 1808.21,-811.78 1814.74,-814.3"/>
</g>
<!-- ../Query.ts&#45;&gt;../Debug.ts -->
<g id="edge27" class="edge">
<title>../Query.ts&#45;&gt;../Debug.ts</title>
<path fill="none" stroke="#757575" d="M1723.73,-1001.63C1736.47,-998.18 1750.76,-994.63 1764,-992.09 1956.83,-955.12 2189.93,-934.49 2290.64,-926.71"/>
<polygon fill="#757575" stroke="#757575" points="2291.12,-930.19 2300.83,-925.94 2290.59,-923.21 2291.12,-930.19"/>
</g>
<!-- ../Query.ts&#45;&gt;../Observable.ts -->
<g id="edge28" class="edge">
<title>../Query.ts&#45;&gt;../Observable.ts</title>
<path fill="none" stroke="#757575" d="M1716.86,-1024.71C1801.92,-1055.72 2034.37,-1140.46 2129.3,-1175.07"/>
<polygon fill="#757575" stroke="#757575" points="2128.25,-1178.41 2138.84,-1178.55 2130.65,-1171.84 2128.25,-1178.41"/>
</g>
<!-- ../Rectangle.ts -->
<g id="node22" class="node">
<title>../Rectangle.ts</title>
<path fill="none" stroke="#cfffac" d="M1864.33,-1024.59C1864.33,-1024.59 1776.67,-1024.59 1776.67,-1024.59 1772.83,-1024.59 1769,-1020.76 1769,-1016.93 1769,-1016.93 1769,-1009.26 1769,-1009.26 1769,-1005.43 1772.83,-1001.59 1776.67,-1001.59 1776.67,-1001.59 1864.33,-1001.59 1864.33,-1001.59 1868.17,-1001.59 1872,-1005.43 1872,-1009.26 1872,-1009.26 1872,-1016.93 1872,-1016.93 1872,-1020.76 1868.17,-1024.59 1864.33,-1024.59"/>
<text text-anchor="middle" x="1820.5" y="-1009.39" font-family="Arial" font-size="14.00" fill="#cfffac">../Rectangle.ts</text>
</g>
<!-- ../Query.ts&#45;&gt;../Rectangle.ts -->
<g id="edge29" class="edge">
<title>../Query.ts&#45;&gt;../Rectangle.ts</title>
<path fill="none" stroke="#757575" d="M1723.54,-1013.09C1734.47,-1013.09 1746.64,-1013.09 1758.55,-1013.09"/>
<polygon fill="#757575" stroke="#757575" points="1758.9,-1016.59 1768.9,-1013.09 1758.9,-1009.59 1758.9,-1016.59"/>
</g>
<!-- ../System.ts -->
<g id="node23" class="node">
<title>../System.ts</title>
<path fill="none" stroke="#c6c5fe" d="M1720.33,-1104.59C1720.33,-1104.59 1647.67,-1104.59 1647.67,-1104.59 1643.83,-1104.59 1640,-1100.76 1640,-1096.93 1640,-1096.93 1640,-1089.26 1640,-1089.26 1640,-1085.43 1643.83,-1081.59 1647.67,-1081.59 1647.67,-1081.59 1720.33,-1081.59 1720.33,-1081.59 1724.17,-1081.59 1728,-1085.43 1728,-1089.26 1728,-1089.26 1728,-1096.93 1728,-1096.93 1728,-1100.76 1724.17,-1104.59 1720.33,-1104.59"/>
<text text-anchor="middle" x="1684" y="-1089.39" font-family="Arial" font-size="14.00" fill="#c6c5fe">../System.ts</text>
</g>
<!-- ../System.ts&#45;&gt;../Component.ts -->
<g id="edge30" class="edge">
<title>../System.ts&#45;&gt;../Component.ts</title>
<path fill="none" stroke="#757575" d="M1694.87,-1081.29C1704.29,-1069.61 1718.43,-1050.94 1728,-1033.09 1769.34,-956.01 1800.89,-856.16 1813.5,-813.23"/>
<polygon fill="#757575" stroke="#757575" points="1816.87,-814.17 1816.29,-803.59 1810.15,-812.22 1816.87,-814.17"/>
</g>
<!-- ../System.ts&#45;&gt;../Log.ts -->
<g id="edge31" class="edge">
<title>../System.ts&#45;&gt;../Log.ts</title>
<path fill="none" stroke="#757575" d="M1686.95,-1105.06C1692.96,-1138.85 1713.94,-1236.62 1764,-1299.09 1812.05,-1359.05 1892.61,-1402.51 1939.52,-1424.29"/>
<polygon fill="#757575" stroke="#757575" points="1938.16,-1427.52 1948.71,-1428.48 1941.07,-1421.15 1938.16,-1427.52"/>
</g>
<!-- ../System.ts&#45;&gt;../util.ts -->
<g id="edge32" class="edge">
<title>../System.ts&#45;&gt;../util.ts</title>
<path fill="none" stroke="#757575" d="M1687.91,-1104.83C1696.97,-1140.55 1726.29,-1250.8 1764,-1337.09 1776.34,-1365.33 1794.32,-1396.02 1806.44,-1415.62"/>
<polygon fill="#757575" stroke="#757575" points="1803.6,-1417.68 1811.87,-1424.3 1809.53,-1413.96 1803.6,-1417.68"/>
</g>
<!-- ../UIElement.ts -->
<g id="node24" class="node">
<title>../UIElement.ts</title>
<path fill="none" stroke="#c6c5fe" d="M2022.83,-1260.59C2022.83,-1260.59 1932.17,-1260.59 1932.17,-1260.59 1928.33,-1260.59 1924.5,-1256.76 1924.5,-1252.93 1924.5,-1252.93 1924.5,-1245.26 1924.5,-1245.26 1924.5,-1241.43 1928.33,-1237.59 1932.17,-1237.59 1932.17,-1237.59 2022.83,-1237.59 2022.83,-1237.59 2026.67,-1237.59 2030.5,-1241.43 2030.5,-1245.26 2030.5,-1245.26 2030.5,-1252.93 2030.5,-1252.93 2030.5,-1256.76 2026.67,-1260.59 2022.83,-1260.59"/>
<text text-anchor="middle" x="1977.5" y="-1245.39" font-family="Arial" font-size="14.00" fill="#c6c5fe">../UIElement.ts</text>
</g>
<!-- ../UIElement.ts&#45;&gt;../Observable.ts -->
<g id="edge33" class="edge">
<title>../UIElement.ts&#45;&gt;../Observable.ts</title>
<path fill="none" stroke="#757575" d="M2015.98,-1237.58C2046.54,-1228.19 2089.89,-1214.86 2122.9,-1204.72"/>
<polygon fill="#757575" stroke="#757575" points="2124.26,-1207.96 2132.79,-1201.68 2122.2,-1201.27 2124.26,-1207.96"/>
</g>
<!-- ../common.ts -->
<g id="node25" class="node">
<title>../common.ts</title>
<path fill="none" stroke="#cfffac" d="M326.33,-1332.59C326.33,-1332.59 246.67,-1332.59 246.67,-1332.59 242.83,-1332.59 239,-1328.76 239,-1324.93 239,-1324.93 239,-1317.26 239,-1317.26 239,-1313.43 242.83,-1309.59 246.67,-1309.59 246.67,-1309.59 326.33,-1309.59 326.33,-1309.59 330.17,-1309.59 334,-1313.43 334,-1317.26 334,-1317.26 334,-1324.93 334,-1324.93 334,-1328.76 330.17,-1332.59 326.33,-1332.59"/>
<text text-anchor="middle" x="286.5" y="-1317.39" font-family="Arial" font-size="14.00" fill="#cfffac">../common.ts</text>
</g>
<!-- ../constants.ts&#45;&gt;../EntityManager.ts -->
<g id="edge34" class="edge">
<title>../constants.ts&#45;&gt;../EntityManager.ts</title>
<path fill="none" stroke="#757575" d="M667.03,-610.49C671.16,-569.03 689.39,-425.55 751,-328.09 848.07,-174.53 875.33,-57.09 1057,-57.09 1057,-57.09 1057,-57.09 1515.5,-57.09 1685.07,-57.09 1766.8,-50.22 1877,-179.09 1951.3,-265.98 1971.7,-643.73 1975.69,-738.48"/>
<polygon fill="#757575" stroke="#757575" points="1972.19,-738.74 1976.09,-748.59 1979.19,-738.46 1972.19,-738.74"/>
</g>
<!-- ../constants.ts&#45;&gt;../HeadingDirection.ts -->
<g id="edge35" class="edge">
<title>../constants.ts&#45;&gt;../HeadingDirection.ts</title>
<path fill="none" stroke="#757575" d="M667.5,-633.76C674.44,-685.98 705.06,-897.72 751,-943.09 809.85,-1001.22 905.74,-1017.57 974.49,-1021.19"/>
<polygon fill="#757575" stroke="#757575" points="974.71,-1024.71 984.86,-1021.66 975.03,-1017.71 974.71,-1024.71"/>
</g>
<!-- ../constants.ts&#45;&gt;../Input.ts -->
<g id="edge36" class="edge">
<title>../constants.ts&#45;&gt;../Input.ts</title>
<path fill="none" stroke="#757575" d="M698.18,-633.68C751.74,-652.79 862.7,-691.62 958,-720.09 975.34,-725.27 994.56,-730.45 1011.41,-734.8"/>
<polygon fill="#757575" stroke="#757575" points="1011,-738.31 1021.56,-737.4 1012.74,-731.53 1011,-738.31"/>
</g>
<!-- ../entities/BlockEntity.ts -->
<g id="node27" class="node">
<title>../entities/BlockEntity.ts</title>
<path fill="none" stroke="#ff6c60" d="M1127.83,-331.59C1127.83,-331.59 988.17,-331.59 988.17,-331.59 984.33,-331.59 980.5,-327.76 980.5,-323.93 980.5,-323.93 980.5,-316.26 980.5,-316.26 980.5,-312.43 984.33,-308.59 988.17,-308.59 988.17,-308.59 1127.83,-308.59 1127.83,-308.59 1131.67,-308.59 1135.5,-312.43 1135.5,-316.26 1135.5,-316.26 1135.5,-323.93 1135.5,-323.93 1135.5,-327.76 1131.67,-331.59 1127.83,-331.59"/>
<text text-anchor="middle" x="1058" y="-316.39" font-family="Arial" font-size="14.00" fill="#ff6c60">../entities/BlockEntity.ts</text>
</g>
<!-- ../constants.ts&#45;&gt;../entities/BlockEntity.ts -->
<g id="edge37" class="edge">
<title>../constants.ts&#45;&gt;../entities/BlockEntity.ts</title>
<path fill="none" stroke="#757575" d="M666.82,-610.37C670.37,-573.05 687.24,-459.09 751,-399.09 810.25,-343.33 902.53,-322.6 970.27,-316.76"/>
<polygon fill="#757575" stroke="#757575" points="970.79,-320.23 980.5,-315.98 970.26,-313.25 970.79,-320.23"/>
</g>
<!-- ../entities/MonsterEntity.ts -->
<g id="node28" class="node">
<title>../entities/MonsterEntity.ts</title>
<path fill="none" stroke="#ff6c60" d="M914.33,-934.59C914.33,-934.59 758.67,-934.59 758.67,-934.59 754.83,-934.59 751,-930.76 751,-926.93 751,-926.93 751,-919.26 751,-919.26 751,-915.43 754.83,-911.59 758.67,-911.59 758.67,-911.59 914.33,-911.59 914.33,-911.59 918.17,-911.59 922,-915.43 922,-919.26 922,-919.26 922,-926.93 922,-926.93 922,-930.76 918.17,-934.59 914.33,-934.59"/>
<text text-anchor="middle" x="836.5" y="-919.39" font-family="Arial" font-size="14.00" fill="#ff6c60">../entities/MonsterEntity.ts</text>
</g>
<!-- ../constants.ts&#45;&gt;../entities/MonsterEntity.ts -->
<g id="edge38" class="edge">
<title>../constants.ts&#45;&gt;../entities/MonsterEntity.ts</title>
<path fill="none" stroke="#757575" d="M668.01,-633.69C673.94,-670.5 694.62,-783.88 751,-857.09 767.52,-878.54 794.47,-894.71 813.48,-906.17"/>
<polygon fill="#757575" stroke="#757575" points="811.74,-909.2 822.1,-911.42 815.38,-903.23 811.74,-909.2"/>
</g>
<!-- ../entities/PlayerPrefab.ts -->
<g id="node29" class="node">
<title>../entities/PlayerPrefab.ts</title>
<path fill="none" stroke="#ff6c60" d="M912.33,-633.59C912.33,-633.59 760.67,-633.59 760.67,-633.59 756.83,-633.59 753,-629.76 753,-625.93 753,-625.93 753,-618.26 753,-618.26 753,-614.43 756.83,-610.59 760.67,-610.59 760.67,-610.59 912.33,-610.59 912.33,-610.59 916.17,-610.59 920,-614.43 920,-618.26 920,-618.26 920,-625.93 920,-625.93 920,-629.76 916.17,-633.59 912.33,-633.59"/>
<text text-anchor="middle" x="836.5" y="-618.39" font-family="Arial" font-size="14.00" fill="#ff6c60">../entities/PlayerPrefab.ts</text>
</g>
<!-- ../constants.ts&#45;&gt;../entities/PlayerPrefab.ts -->
<g id="edge39" class="edge">
<title>../constants.ts&#45;&gt;../entities/PlayerPrefab.ts</title>
<path fill="none" stroke="#757575" d="M715.03,-615.91C723.71,-615.62 733.02,-615.44 742.46,-615.37"/>
<polygon fill="#757575" stroke="#757575" points="742.74,-618.87 752.73,-615.34 742.72,-611.87 742.74,-618.87"/>
</g>
<!-- ../entities/ToggleButtonEntity.ts -->
<g id="node30" class="node">
<title>../entities/ToggleButtonEntity.ts</title>
<path fill="none" stroke="#ff6c60" d="M1150.33,-875.59C1150.33,-875.59 965.67,-875.59 965.67,-875.59 961.83,-875.59 958,-871.76 958,-867.93 958,-867.93 958,-860.26 958,-860.26 958,-856.43 961.83,-852.59 965.67,-852.59 965.67,-852.59 1150.33,-852.59 1150.33,-852.59 1154.17,-852.59 1158,-856.43 1158,-860.26 1158,-860.26 1158,-867.93 1158,-867.93 1158,-871.76 1154.17,-875.59 1150.33,-875.59"/>
<text text-anchor="middle" x="1058" y="-860.39" font-family="Arial" font-size="14.00" fill="#ff6c60">../entities/ToggleButtonEntity.ts</text>
</g>
<!-- ../constants.ts&#45;&gt;../entities/ToggleButtonEntity.ts -->
<g id="edge40" class="edge">
<title>../constants.ts&#45;&gt;../entities/ToggleButtonEntity.ts</title>
<path fill="none" stroke="#757575" d="M685.66,-633.8C702.31,-647.54 727.2,-669.56 751,-686.09 849.51,-754.52 978.29,-818.02 1031.9,-847.55"/>
<polygon fill="#757575" stroke="#757575" points="1030.28,-850.66 1040.72,-852.5 1033.71,-844.56 1030.28,-850.66"/>
</g>
<!-- ../entities/ToggleWall.ts -->
<g id="node31" class="node">
<title>../entities/ToggleWall.ts</title>
<path fill="none" stroke="#ff6c60" d="M1127.83,-372.59C1127.83,-372.59 988.17,-372.59 988.17,-372.59 984.33,-372.59 980.5,-368.76 980.5,-364.93 980.5,-364.93 980.5,-357.26 980.5,-357.26 980.5,-353.43 984.33,-349.59 988.17,-349.59 988.17,-349.59 1127.83,-349.59 1127.83,-349.59 1131.67,-349.59 1135.5,-353.43 1135.5,-357.26 1135.5,-357.26 1135.5,-364.93 1135.5,-364.93 1135.5,-368.76 1131.67,-372.59 1127.83,-372.59"/>
<text text-anchor="middle" x="1058" y="-357.39" font-family="Arial" font-size="14.00" fill="#ff6c60">../entities/ToggleWall.ts</text>
</g>
<!-- ../constants.ts&#45;&gt;../entities/ToggleWall.ts -->
<g id="edge41" class="edge">
<title>../constants.ts&#45;&gt;../entities/ToggleWall.ts</title>
<path fill="none" stroke="#757575" d="M673.68,-610.54C705.28,-570.94 829.6,-442.87 958,-378.09 962.08,-376.03 966.34,-374.13 970.71,-372.37"/>
<polygon fill="#757575" stroke="#757575" points="972.24,-375.53 980.39,-368.76 969.8,-368.97 972.24,-375.53"/>
</g>
<!-- ../entities/WallEntity.ts -->
<g id="node32" class="node">
<title>../entities/WallEntity.ts</title>
<path fill="none" stroke="#ff6c60" d="M1124.33,-563.59C1124.33,-563.59 991.67,-563.59 991.67,-563.59 987.83,-563.59 984,-559.76 984,-555.93 984,-555.93 984,-548.26 984,-548.26 984,-544.43 987.83,-540.59 991.67,-540.59 991.67,-540.59 1124.33,-540.59 1124.33,-540.59 1128.17,-540.59 1132,-544.43 1132,-548.26 1132,-548.26 1132,-555.93 1132,-555.93 1132,-559.76 1128.17,-563.59 1124.33,-563.59"/>
<text text-anchor="middle" x="1058" y="-548.39" font-family="Arial" font-size="14.00" fill="#ff6c60">../entities/WallEntity.ts</text>
</g>
<!-- ../constants.ts&#45;&gt;../entities/WallEntity.ts -->
<g id="edge42" class="edge">
<title>../constants.ts&#45;&gt;../entities/WallEntity.ts</title>
<path fill="none" stroke="#757575" d="M683.16,-610.56C700.26,-603.84 727.32,-596.91 751,-592.09 825.92,-576.87 911.94,-563.45 973.66,-556.06"/>
<polygon fill="#757575" stroke="#757575" points="974.21,-559.52 983.73,-554.88 973.4,-552.57 974.21,-559.52"/>
</g>
<!-- ../entities/BlockEntity.ts&#45;&gt;../Component.ts -->
<g id="edge43" class="edge">
<title>../entities/BlockEntity.ts&#45;&gt;../Component.ts</title>
<path fill="none" stroke="#757575" d="M1110.49,-308.56C1240.93,-282.75 1584.17,-236.91 1728,-431.09 1808.08,-539.2 1818.43,-710.08 1819.5,-770.25"/>
<polygon fill="#757575" stroke="#757575" points="1816,-770.5 1819.61,-780.46 1823,-770.42 1816,-770.5"/>
</g>
<!-- ../entities/BlockEntity.ts&#45;&gt;../EntityManager.ts -->
<g id="edge44" class="edge">
<title>../entities/BlockEntity.ts&#45;&gt;../EntityManager.ts</title>
<path fill="none" stroke="#757575" d="M1092.64,-308.52C1217.93,-267.79 1661.4,-145.15 1877,-369.09 1929.45,-423.57 1964.2,-664.29 1973.8,-738.34"/>
<polygon fill="#757575" stroke="#757575" points="1970.35,-738.9 1975.08,-748.38 1977.29,-738.02 1970.35,-738.9"/>
</g>
<!-- ../entities/BlockEntity.ts&#45;&gt;../Message.ts -->
<g id="edge45" class="edge">
<title>../entities/BlockEntity.ts&#45;&gt;../Message.ts</title>
<path fill="none" stroke="#757575" d="M1135.66,-318.67C1204.05,-319.71 1305.92,-327.04 1389,-357.09 1429.1,-371.6 1469.16,-401.4 1492.61,-420.8"/>
<polygon fill="#757575" stroke="#757575" points="1490.57,-423.65 1500.47,-427.43 1495.08,-418.3 1490.57,-423.65"/>
</g>
<!-- ../entities/BlockEntity.ts&#45;&gt;../constants.ts -->
<g id="edge46" class="edge">
<title>../entities/BlockEntity.ts&#45;&gt;../constants.ts</title>
<path fill="none" stroke="#757575" d="M980.5,-330C912.09,-338.56 813.3,-358.47 751,-417.09 696.48,-468.4 676.24,-559.15 669.3,-600.67"/>
<polygon fill="#757575" stroke="#757575" points="665.84,-600.13 667.75,-610.55 672.76,-601.22 665.84,-600.13"/>
</g>
<!-- ../messages.ts -->
<g id="node33" class="node">
<title>../messages.ts</title>
<path fill="none" stroke="#c6c5fe" d="M1335.83,-450.59C1335.83,-450.59 1247.17,-450.59 1247.17,-450.59 1243.33,-450.59 1239.5,-446.76 1239.5,-442.93 1239.5,-442.93 1239.5,-435.26 1239.5,-435.26 1239.5,-431.43 1243.33,-427.59 1247.17,-427.59 1247.17,-427.59 1335.83,-427.59 1335.83,-427.59 1339.67,-427.59 1343.5,-431.43 1343.5,-435.26 1343.5,-435.26 1343.5,-442.93 1343.5,-442.93 1343.5,-446.76 1339.67,-450.59 1335.83,-450.59"/>
<text text-anchor="middle" x="1291.5" y="-435.39" font-family="Arial" font-size="14.00" fill="#c6c5fe">../messages.ts</text>
</g>
<!-- ../entities/BlockEntity.ts&#45;&gt;../messages.ts -->
<g id="edge47" class="edge">
<title>../entities/BlockEntity.ts&#45;&gt;../messages.ts</title>
<path fill="none" stroke="#757575" d="M1134.43,-331.66C1142.55,-333.98 1150.56,-336.76 1158,-340.09 1202.98,-360.21 1247.2,-397.84 1271.46,-420.47"/>
<polygon fill="#757575" stroke="#757575" points="1269.23,-423.18 1278.9,-427.52 1274.05,-418.1 1269.23,-423.18"/>
</g>
<!-- ../systems/BehaviorSystem.ts -->
<g id="node34" class="node">
<title>../systems/BehaviorSystem.ts</title>
<path fill="none" stroke="#c6c5fe" d="M1381.33,-644.59C1381.33,-644.59 1201.67,-644.59 1201.67,-644.59 1197.83,-644.59 1194,-640.76 1194,-636.93 1194,-636.93 1194,-629.26 1194,-629.26 1194,-625.43 1197.83,-621.59 1201.67,-621.59 1201.67,-621.59 1381.33,-621.59 1381.33,-621.59 1385.17,-621.59 1389,-625.43 1389,-629.26 1389,-629.26 1389,-636.93 1389,-636.93 1389,-640.76 1385.17,-644.59 1381.33,-644.59"/>
<text text-anchor="middle" x="1291.5" y="-629.39" font-family="Arial" font-size="14.00" fill="#c6c5fe">../systems/BehaviorSystem.ts</text>
</g>
<!-- ../entities/BlockEntity.ts&#45;&gt;../systems/BehaviorSystem.ts -->
<g id="edge48" class="edge">
<title>../entities/BlockEntity.ts&#45;&gt;../systems/BehaviorSystem.ts</title>
<path fill="none" stroke="#757575" d="M1135.55,-326.64C1143.79,-329.83 1151.51,-334.19 1158,-340.09 1198.87,-377.28 1172.48,-408.2 1194,-459.09 1218.51,-517.05 1257,-580.62 1277.16,-612.48"/>
<polygon fill="#757575" stroke="#757575" points="1274.47,-614.76 1282.8,-621.3 1280.37,-610.99 1274.47,-614.76"/>
</g>
<!-- ../entities/MonsterEntity.ts&#45;&gt;../Component.ts -->
<g id="edge49" class="edge">
<title>../entities/MonsterEntity.ts&#45;&gt;../Component.ts</title>
<path fill="none" stroke="#757575" d="M844.76,-934.67C861.24,-959.68 904.23,-1018.28 958,-1040.09 1135.63,-1112.14 1202.84,-1069.78 1389,-1024.09 1559.15,-982.34 1734.71,-857.16 1796.4,-810.17"/>
<polygon fill="#757575" stroke="#757575" points="1798.87,-812.7 1804.67,-803.83 1794.6,-807.14 1798.87,-812.7"/>
</g>
<!-- ../entities/MonsterEntity.ts&#45;&gt;../EntityManager.ts -->
<g id="edge50" class="edge">
<title>../entities/MonsterEntity.ts&#45;&gt;../EntityManager.ts</title>
<path fill="none" stroke="#757575" d="M842.67,-934.92C856.39,-964.68 896.93,-1042.51 958,-1074.09 1110.19,-1152.78 1567.85,-1173.98 1728,-1113.09 1748.01,-1105.48 1745.91,-1092.54 1764,-1081.09 1810.11,-1051.92 1839.44,-1072.67 1877,-1033.09 1947.06,-959.28 1968.49,-832.26 1974.43,-781.74"/>
<polygon fill="#757575" stroke="#757575" points="1977.92,-781.96 1975.52,-771.64 1970.96,-781.21 1977.92,-781.96"/>
</g>
<!-- ../entities/MonsterEntity.ts&#45;&gt;../HeadingDirection.ts -->
<g id="edge51" class="edge">
<title>../entities/MonsterEntity.ts&#45;&gt;../HeadingDirection.ts</title>
<path fill="none" stroke="#757575" d="M861.3,-934.67C878.5,-943.3 902.11,-955.7 922,-968.09 938.75,-978.53 940.15,-985.66 958,-994.09 967.72,-998.68 978.37,-1002.55 988.98,-1005.79"/>
<polygon fill="#757575" stroke="#757575" points="988.09,-1009.18 998.67,-1008.59 990.03,-1002.45 988.09,-1009.18"/>
</g>
<!-- ../entities/MonsterEntity.ts&#45;&gt;../units/convert.ts -->
<g id="edge59" class="edge">
<title>../entities/MonsterEntity.ts&#45;&gt;../units/convert.ts</title>
<path fill="none" stroke="#757575" d="M906.58,-934.67C911.84,-936 917.03,-937.48 922,-939.09 938.83,-944.56 940.73,-952.22 958,-956.09 1144.91,-998.01 1200.44,-989.81 1389,-956.09 1421.24,-950.33 1456.06,-936.78 1480.65,-925.88"/>
<polygon fill="#757575" stroke="#757575" points="1482.21,-929.01 1489.88,-921.7 1479.32,-922.64 1482.21,-929.01"/>
</g>
<!-- ../entities/MonsterEntity.ts&#45;&gt;../Message.ts -->
<g id="edge52" class="edge">
<title>../entities/MonsterEntity.ts&#45;&gt;../Message.ts</title>
<path fill="none" stroke="#757575" d="M922.27,-918.15C1002.61,-912.5 1116.91,-901.69 1158,-884.09 1219.1,-857.92 1347.81,-746.26 1389,-694.09 1449.61,-617.33 1491.09,-506.26 1506.66,-460.27"/>
<polygon fill="#757575" stroke="#757575" points="1509.99,-461.34 1509.82,-450.75 1503.35,-459.14 1509.99,-461.34"/>
</g>
<!-- ../entities/MonsterEntity.ts&#45;&gt;../constants.ts -->
<g id="edge53" class="edge">
<title>../entities/MonsterEntity.ts&#45;&gt;../constants.ts</title>
<path fill="none" stroke="#757575" d="M795.12,-911.47C779.52,-902.74 762.66,-890.23 751,-875.09 695.13,-802.54 674.31,-690.55 668.17,-643.58"/>
<polygon fill="#757575" stroke="#757575" points="671.64,-643.1 666.97,-633.6 664.69,-643.94 671.64,-643.1"/>
</g>
<!-- ../entities/MonsterEntity.ts&#45;&gt;../entities/WallEntity.ts -->
<g id="edge54" class="edge">
<title>../entities/MonsterEntity.ts&#45;&gt;../entities/WallEntity.ts</title>
<path fill="none" stroke="#757575" d="M844.31,-911.58C875.42,-859.01 1004.21,-641.32 1044.74,-572.82"/>
<polygon fill="#757575" stroke="#757575" points="1047.97,-574.22 1050.05,-563.84 1041.95,-570.66 1047.97,-574.22"/>
</g>
<!-- ../entities/MonsterEntity.ts&#45;&gt;../messages.ts -->
<g id="edge55" class="edge">
<title>../entities/MonsterEntity.ts&#45;&gt;../messages.ts</title>
<path fill="none" stroke="#757575" d="M845.18,-911.24C862.15,-886.1 905.55,-827.53 958,-800.09 1037.89,-758.29 1092.32,-827.87 1158,-766.09 1209.2,-717.94 1168.63,-677.64 1194,-612.09 1216.61,-553.67 1255.9,-490.8 1276.69,-459.39"/>
<polygon fill="#757575" stroke="#757575" points="1279.86,-460.95 1282.51,-450.69 1274.04,-457.06 1279.86,-460.95"/>
</g>
<!-- ../entities/MonsterEntity.ts&#45;&gt;../systems/BehaviorSystem.ts -->
<g id="edge57" class="edge">
<title>../entities/MonsterEntity.ts&#45;&gt;../systems/BehaviorSystem.ts</title>
<path fill="none" stroke="#757575" d="M851.33,-911.35C872.75,-893.79 915.89,-860.84 958,-843.09 1041.78,-807.78 1092.8,-863.46 1158,-800.09 1206.23,-753.21 1145.59,-699.8 1194,-653.09 1194.83,-652.29 1195.69,-651.52 1196.56,-650.77"/>
<polygon fill="#757575" stroke="#757575" points="1198.86,-653.43 1204.97,-644.77 1194.8,-647.73 1198.86,-653.43"/>
</g>
<!-- ../systems/ActionSystem.ts -->
<g id="node35" class="node">
<title>../systems/ActionSystem.ts</title>
<path fill="none" stroke="#c6c5fe" d="M1596.33,-841.59C1596.33,-841.59 1432.67,-841.59 1432.67,-841.59 1428.83,-841.59 1425,-837.76 1425,-833.93 1425,-833.93 1425,-826.26 1425,-826.26 1425,-822.43 1428.83,-818.59 1432.67,-818.59 1432.67,-818.59 1596.33,-818.59 1596.33,-818.59 1600.17,-818.59 1604,-822.43 1604,-826.26 1604,-826.26 1604,-833.93 1604,-833.93 1604,-837.76 1600.17,-841.59 1596.33,-841.59"/>
<text text-anchor="middle" x="1514.5" y="-826.39" font-family="Arial" font-size="14.00" fill="#c6c5fe">../systems/ActionSystem.ts</text>
</g>
<!-- ../entities/MonsterEntity.ts&#45;&gt;../systems/ActionSystem.ts -->
<g id="edge56" class="edge">
<title>../entities/MonsterEntity.ts&#45;&gt;../systems/ActionSystem.ts</title>
<path fill="none" stroke="#757575" d="M922.23,-926.98C987.06,-928.7 1078.53,-928.41 1158,-918.09 1271.8,-903.31 1401.84,-865.63 1468.66,-844.69"/>
<polygon fill="#757575" stroke="#757575" points="1469.95,-847.95 1478.44,-841.6 1467.85,-841.27 1469.95,-847.95"/>
</g>
<!-- ../systems/LogSystem.ts -->
<g id="node36" class="node">
<title>../systems/LogSystem.ts</title>
<path fill="none" stroke="#c6c5fe" d="M1588.83,-1259.59C1588.83,-1259.59 1440.17,-1259.59 1440.17,-1259.59 1436.33,-1259.59 1432.5,-1255.76 1432.5,-1251.93 1432.5,-1251.93 1432.5,-1244.26 1432.5,-1244.26 1432.5,-1240.43 1436.33,-1236.59 1440.17,-1236.59 1440.17,-1236.59 1588.83,-1236.59 1588.83,-1236.59 1592.67,-1236.59 1596.5,-1240.43 1596.5,-1244.26 1596.5,-1244.26 1596.5,-1251.93 1596.5,-1251.93 1596.5,-1255.76 1592.67,-1259.59 1588.83,-1259.59"/>
<text text-anchor="middle" x="1514.5" y="-1244.39" font-family="Arial" font-size="14.00" fill="#c6c5fe">../systems/LogSystem.ts</text>
</g>
<!-- ../entities/MonsterEntity.ts&#45;&gt;../systems/LogSystem.ts -->
<g id="edge58" class="edge">
<title>../entities/MonsterEntity.ts&#45;&gt;../systems/LogSystem.ts</title>
<path fill="none" stroke="#757575" d="M840.01,-934.66C848.8,-972.09 881.82,-1090.73 958,-1146.09 1096.34,-1246.64 1304.03,-1257.53 1422.36,-1254.25"/>
<polygon fill="#757575" stroke="#757575" points="1422.59,-1257.75 1432.47,-1253.93 1422.37,-1250.75 1422.59,-1257.75"/>
</g>
<!-- ../entities/PlayerPrefab.ts&#45;&gt;../Action.ts -->
<g id="edge60" class="edge">
<title>../entities/PlayerPrefab.ts&#45;&gt;../Action.ts</title>
<path fill="none" stroke="#757575" d="M905.24,-633.65C984.63,-647.4 1111.28,-669.99 1158,-682.09 1174.33,-686.32 1177.53,-690.46 1194,-694.09 1352.5,-729.02 1545.05,-742.4 1633.83,-746.97"/>
<polygon fill="#757575" stroke="#757575" points="1633.72,-750.47 1643.88,-747.48 1634.07,-743.48 1633.72,-750.47"/>
</g>
<!-- ../entities/PlayerPrefab.ts&#45;&gt;../Component.ts -->
<g id="edge61" class="edge">
<title>../entities/PlayerPrefab.ts&#45;&gt;../Component.ts</title>
<path fill="none" stroke="#757575" d="M920.26,-612.78C1061.98,-599.08 1359.52,-580.17 1604,-630.09 1660.87,-641.71 1680.8,-637.3 1728,-671.09 1765.57,-697.99 1794.62,-744.86 1809.18,-771.68"/>
<polygon fill="#757575" stroke="#757575" points="1806.12,-773.38 1813.88,-780.59 1812.31,-770.11 1806.12,-773.38"/>
</g>
<!-- ../entities/PlayerPrefab.ts&#45;&gt;../EntityManager.ts -->
<g id="edge62" class="edge">
<title>../entities/PlayerPrefab.ts&#45;&gt;../EntityManager.ts</title>
<path fill="none" stroke="#757575" d="M838.76,-610.53C844.24,-565.17 869.95,-397 958,-299.09 1068.44,-176.28 1125.33,-133.09 1290.5,-133.09 1290.5,-133.09 1290.5,-133.09 1515.5,-133.09 1690.14,-133.09 1766.15,-152.15 1877,-287.09 1935.44,-358.23 1966.8,-654.89 1974.56,-738.23"/>
<polygon fill="#757575" stroke="#757575" points="1971.09,-738.69 1975.49,-748.33 1978.06,-738.05 1971.09,-738.69"/>
</g>
<!-- ../entities/PlayerPrefab.ts&#45;&gt;../HeadingDirection.ts -->
<g id="edge63" class="edge">
<title>../entities/PlayerPrefab.ts&#45;&gt;../HeadingDirection.ts</title>
<path fill="none" stroke="#757575" d="M841.89,-633.73C856.24,-671.24 903.95,-791.87 958,-884.09 983.61,-927.78 1019.94,-974.68 1040.73,-1000.4"/>
<polygon fill="#757575" stroke="#757575" points="1038.11,-1002.73 1047.14,-1008.27 1043.54,-998.31 1038.11,-1002.73"/>
</g>
<!-- ../entities/PlayerPrefab.ts&#45;&gt;../units/convert.ts -->
<g id="edge70" class="edge">
<title>../entities/PlayerPrefab.ts&#45;&gt;../units/convert.ts</title>
<path fill="none" stroke="#757575" d="M883.69,-633.66C896.55,-637.86 910.22,-643.3 922,-650.09 940.54,-660.79 938.91,-672.41 958,-682.09 1039.09,-723.2 1073.38,-691.84 1158,-725.09 1286.54,-775.61 1298.41,-828.86 1425,-884.09 1434.89,-888.41 1445.7,-892.25 1456.27,-895.57"/>
<polygon fill="#757575" stroke="#757575" points="1455.29,-898.93 1465.87,-898.48 1457.31,-892.23 1455.29,-898.93"/>
</g>
<!-- ../entities/PlayerPrefab.ts&#45;&gt;../Input.ts -->
<g id="edge64" class="edge">
<title>../entities/PlayerPrefab.ts&#45;&gt;../Input.ts</title>
<path fill="none" stroke="#757575" d="M853.39,-633.68C870.62,-646.38 898.76,-667.57 922,-687.09 938.62,-701.06 938.95,-709.7 958,-720.09 974.43,-729.06 994.1,-735.04 1011.56,-738.99"/>
<polygon fill="#757575" stroke="#757575" points="1011.04,-742.46 1021.55,-741.08 1012.48,-735.61 1011.04,-742.46"/>
</g>
<!-- ../entities/PlayerPrefab.ts&#45;&gt;../Message.ts -->
<g id="edge65" class="edge">
<title>../entities/PlayerPrefab.ts&#45;&gt;../Message.ts</title>
<path fill="none" stroke="#757575" d="M844.75,-610.23C865.71,-576.36 926.83,-480.39 958,-461.09 1117.64,-362.28 1355.41,-400.93 1460.4,-425.19"/>
<polygon fill="#757575" stroke="#757575" points="1459.9,-428.67 1470.44,-427.56 1461.51,-421.86 1459.9,-428.67"/>
</g>
<!-- ../entities/PlayerPrefab.ts&#45;&gt;../constants.ts -->
<g id="edge66" class="edge">
<title>../entities/PlayerPrefab.ts&#45;&gt;../constants.ts</title>
<path fill="none" stroke="#757575" d="M752.73,-628.84C743.45,-628.86 734.15,-628.76 725.25,-628.56"/>
<polygon fill="#757575" stroke="#757575" points="725.12,-625.06 715.03,-628.28 724.93,-632.06 725.12,-625.06"/>
</g>
<!-- ../entities/PlayerPrefab.ts&#45;&gt;../entities/WallEntity.ts -->
<g id="edge67" class="edge">
<title>../entities/PlayerPrefab.ts&#45;&gt;../entities/WallEntity.ts</title>
<path fill="none" stroke="#757575" d="M866.95,-610.47C891.19,-601.11 926.54,-587.94 958,-578.09 971.37,-573.9 985.9,-569.83 999.6,-566.2"/>
<polygon fill="#757575" stroke="#757575" points="1000.62,-569.55 1009.41,-563.63 998.85,-562.78 1000.62,-569.55"/>
</g>
<!-- ../entities/PlayerPrefab.ts&#45;&gt;../messages.ts -->
<g id="edge68" class="edge">
<title>../entities/PlayerPrefab.ts&#45;&gt;../messages.ts</title>
<path fill="none" stroke="#757575" d="M849.88,-610.41C870.68,-591.33 914.64,-553.41 958,-531.09 1046.52,-485.53 1160.26,-460.35 1229.16,-448.29"/>
<polygon fill="#757575" stroke="#757575" points="1230.14,-451.67 1239.4,-446.54 1228.96,-444.77 1230.14,-451.67"/>
</g>
<!-- ../entities/PlayerPrefab.ts&#45;&gt;../systems/BehaviorSystem.ts -->
<g id="edge69" class="edge">
<title>../entities/PlayerPrefab.ts&#45;&gt;../systems/BehaviorSystem.ts</title>
<path fill="none" stroke="#757575" d="M920.06,-624.1C994.09,-625.89 1103.15,-628.54 1183.78,-630.5"/>
<polygon fill="#757575" stroke="#757575" points="1183.88,-634 1193.97,-630.75 1184.05,-627.01 1183.88,-634"/>
</g>
<!-- ../entities/ToggleButtonEntity.ts&#45;&gt;../Component.ts -->
<g id="edge72" class="edge">
<title>../entities/ToggleButtonEntity.ts&#45;&gt;../Component.ts</title>
<path fill="none" stroke="#757575" d="M1121.9,-852.56C1194.61,-839.72 1318.03,-819.41 1425,-809.09 1540.26,-797.98 1675.17,-794.13 1753.62,-792.8"/>
<polygon fill="#757575" stroke="#757575" points="1753.9,-796.29 1763.84,-792.63 1753.78,-789.29 1753.9,-796.29"/>
</g>
<!-- ../entities/ToggleButtonEntity.ts&#45;&gt;../Animation.ts -->
<g id="edge71" class="edge">
<title>../entities/ToggleButtonEntity.ts&#45;&gt;../Animation.ts</title>
<path fill="none" stroke="#757575" d="M1134.92,-852.55C1143.36,-848.92 1151.31,-844.21 1158,-838.09 1192.85,-806.2 1164.84,-775.25 1194,-738.09 1210.14,-717.52 1234.8,-701.33 1255.14,-690.38"/>
<polygon fill="#757575" stroke="#757575" points="1256.87,-693.43 1264.14,-685.72 1253.65,-687.21 1256.87,-693.43"/>
</g>
<!-- ../entities/ToggleButtonEntity.ts&#45;&gt;../EntityManager.ts -->
<g id="edge73" class="edge">
<title>../entities/ToggleButtonEntity.ts&#45;&gt;../EntityManager.ts</title>
<path fill="none" stroke="#757575" d="M1112.67,-852.59C1127.73,-848.38 1143.85,-842.94 1158,-836.09 1175.77,-827.5 1175.85,-817.84 1194,-810.09 1414.82,-715.78 1488.38,-712.73 1728,-728.09 1787.09,-731.88 1853.6,-740.69 1902.93,-748.11"/>
<polygon fill="#757575" stroke="#757575" points="1902.46,-751.57 1912.88,-749.62 1903.51,-744.65 1902.46,-751.57"/>
</g>
<!-- ../entities/ToggleButtonEntity.ts&#45;&gt;../units/convert.ts -->
<g id="edge78" class="edge">
<title>../entities/ToggleButtonEntity.ts&#45;&gt;../units/convert.ts</title>
<path fill="none" stroke="#757575" d="M1153.75,-875.62C1167.25,-877.17 1180.97,-878.71 1194,-880.09 1280.38,-889.26 1380.05,-898.39 1444.78,-904.13"/>
<polygon fill="#757575" stroke="#757575" points="1444.59,-907.62 1454.86,-905.02 1445.21,-900.65 1444.59,-907.62"/>
</g>
<!-- ../entities/ToggleButtonEntity.ts&#45;&gt;../Query.ts -->
<g id="edge74" class="edge">
<title>../entities/ToggleButtonEntity.ts&#45;&gt;../Query.ts</title>
<path fill="none" stroke="#757575" d="M1095.48,-875.64C1122.54,-884.03 1160.4,-895.38 1194,-904.09 1354.16,-945.62 1546.29,-985.61 1634.45,-1003.42"/>
<polygon fill="#757575" stroke="#757575" points="1633.94,-1006.89 1644.43,-1005.44 1635.32,-1000.03 1633.94,-1006.89"/>
</g>
<!-- ../entities/ToggleButtonEntity.ts&#45;&gt;../constants.ts -->
<g id="edge75" class="edge">
<title>../entities/ToggleButtonEntity.ts&#45;&gt;../constants.ts</title>
<path fill="none" stroke="#757575" d="M1020.24,-852.49C961.31,-827.55 842.96,-767.97 751,-704.09 723.85,-685.23 695.28,-659.24 679.15,-641.26"/>
<polygon fill="#757575" stroke="#757575" points="681.8,-638.98 672.66,-633.62 676.46,-643.51 681.8,-638.98"/>
</g>
<!-- ../entities/ToggleButtonEntity.ts&#45;&gt;../messages.ts -->
<g id="edge76" class="edge">
<title>../entities/ToggleButtonEntity.ts&#45;&gt;../messages.ts</title>
<path fill="none" stroke="#757575" d="M1088.88,-852.52C1111.45,-842.2 1141.3,-824.87 1158,-800.09 1205.55,-729.55 1164.91,-692.04 1194,-612.09 1215.52,-552.97 1255.56,-490 1276.66,-458.87"/>
<polygon fill="#757575" stroke="#757575" points="1279.55,-460.85 1282.32,-450.62 1273.78,-456.89 1279.55,-460.85"/>
</g>
<!-- ../entities/ToggleButtonEntity.ts&#45;&gt;../systems/BehaviorSystem.ts -->
<g id="edge77" class="edge">
<title>../entities/ToggleButtonEntity.ts&#45;&gt;../systems/BehaviorSystem.ts</title>
<path fill="none" stroke="#757575" d="M1137.79,-852.58C1145.34,-848.92 1152.29,-844.19 1158,-838.09 1215.29,-776.98 1135.13,-712.68 1194,-653.09 1194.68,-652.4 1195.39,-651.73 1196.1,-651.08"/>
<polygon fill="#757575" stroke="#757575" points="1198.48,-653.67 1204.35,-644.85 1194.26,-648.08 1198.48,-653.67"/>
</g>
<!-- ../entities/ToggleWall.ts&#45;&gt;../Component.ts -->
<g id="edge80" class="edge">
<title>../entities/ToggleWall.ts&#45;&gt;../Component.ts</title>
<path fill="none" stroke="#757575" d="M1135.74,-358.42C1154.77,-357.87 1175.13,-357.37 1194,-357.09 1378.21,-354.36 1437.22,-339.84 1604,-418.09 1664.49,-446.47 1688.19,-449.43 1728,-503.09 1791.26,-588.36 1811.64,-718.72 1817.44,-770.14"/>
<polygon fill="#757575" stroke="#757575" points="1813.99,-770.82 1818.51,-780.4 1820.95,-770.09 1813.99,-770.82"/>
</g>
<!-- ../entities/ToggleWall.ts&#45;&gt;../Animation.ts -->
<g id="edge79" class="edge">
<title>../entities/ToggleWall.ts&#45;&gt;../Animation.ts</title>
<path fill="none" stroke="#757575" d="M1067.26,-372.93C1085.74,-399.89 1130.95,-468.37 1158,-531.09 1180.39,-583 1152.6,-614.6 1194,-653.09 1203.81,-662.21 1216.61,-667.72 1229.67,-670.97"/>
<polygon fill="#757575" stroke="#757575" points="1229.16,-674.44 1239.66,-673.04 1230.58,-667.59 1229.16,-674.44"/>
</g>
<!-- ../entities/ToggleWall.ts&#45;&gt;../EntityManager.ts -->
<g id="edge81" class="edge">
<title>../entities/ToggleWall.ts&#45;&gt;../EntityManager.ts</title>
<path fill="none" stroke="#757575" d="M1135.68,-351.25C1288.57,-333 1625.44,-300.01 1728,-349.09 1890.04,-426.64 1955.34,-664.75 1971.97,-738.25"/>
<polygon fill="#757575" stroke="#757575" points="1968.59,-739.2 1974.15,-748.23 1975.43,-737.71 1968.59,-739.2"/>
</g>
<!-- ../entities/ToggleWall.ts&#45;&gt;../Message.ts -->
<g id="edge82" class="edge">
<title>../entities/ToggleWall.ts&#45;&gt;../Message.ts</title>
<path fill="none" stroke="#757575" d="M1135.82,-359.44C1203.44,-359.69 1304.07,-364.23 1389,-385.09 1422.73,-393.38 1458.9,-410.03 1483.52,-422.66"/>
<polygon fill="#757575" stroke="#757575" points="1482.19,-425.92 1492.67,-427.45 1485.43,-419.72 1482.19,-425.92"/>
</g>
<!-- ../entities/ToggleWall.ts&#45;&gt;../constants.ts -->
<g id="edge83" class="edge">
<title>../entities/ToggleWall.ts&#45;&gt;../constants.ts</title>
<path fill="none" stroke="#757575" d="M1028.99,-372.67C1008.53,-377.97 980.53,-384.73 958,-396.09 844.55,-453.33 734.28,-559.98 688.34,-603.36"/>
<polygon fill="#757575" stroke="#757575" points="685.67,-601.07 680.78,-610.47 690.47,-606.17 685.67,-601.07"/>
</g>
<!-- ../entities/ToggleWall.ts&#45;&gt;../messages.ts -->
<g id="edge84" class="edge">
<title>../entities/ToggleWall.ts&#45;&gt;../messages.ts</title>
<path fill="none" stroke="#757575" d="M1093.16,-372.6C1133.85,-386.31 1201.91,-409.24 1246.51,-424.27"/>
<polygon fill="#757575" stroke="#757575" points="1245.61,-427.66 1256.2,-427.54 1247.84,-421.03 1245.61,-427.66"/>
</g>
<!-- ../entities/ToggleWall.ts&#45;&gt;../systems/BehaviorSystem.ts -->
<g id="edge85" class="edge">
<title>../entities/ToggleWall.ts&#45;&gt;../systems/BehaviorSystem.ts</title>
<path fill="none" stroke="#757575" d="M1068.95,-372.78C1105.01,-415.15 1229.13,-560.98 1274.08,-613.8"/>
<polygon fill="#757575" stroke="#757575" points="1271.44,-616.1 1280.59,-621.45 1276.77,-611.56 1271.44,-616.1"/>
</g>
<!-- ../entities/WallEntity.ts&#45;&gt;../Component.ts -->
<g id="edge86" class="edge">
<title>../entities/WallEntity.ts&#45;&gt;../Component.ts</title>
<path fill="none" stroke="#757575" d="M1132.15,-549.29C1286.52,-544.91 1638.75,-543.51 1728,-617.09 1777.84,-658.18 1803.88,-733.58 1814.15,-770.53"/>
<polygon fill="#757575" stroke="#757575" points="1810.79,-771.51 1816.74,-780.27 1817.56,-769.71 1810.79,-771.51"/>
</g>
<!-- ../entities/WallEntity.ts&#45;&gt;../EntityManager.ts -->
<g id="edge87" class="edge">
<title>../entities/WallEntity.ts&#45;&gt;../EntityManager.ts</title>
<path fill="none" stroke="#757575" d="M1132.07,-542.99C1221.76,-532.62 1378.57,-517.09 1513.5,-517.09 1513.5,-517.09 1513.5,-517.09 1685,-517.09 1823.55,-517.09 1931.18,-681.07 1965.19,-739.62"/>
<polygon fill="#757575" stroke="#757575" points="1962.19,-741.42 1970.18,-748.37 1968.27,-737.95 1962.19,-741.42"/>
</g>
<!-- ../entities/WallEntity.ts&#45;&gt;../Message.ts -->
<g id="edge88" class="edge">
<title>../entities/WallEntity.ts&#45;&gt;../Message.ts</title>
<path fill="none" stroke="#757575" d="M1087.04,-540.51C1114.07,-529.68 1156.3,-513.64 1194,-503.09 1283.98,-477.91 1390.84,-458.58 1455.35,-448.03"/>
<polygon fill="#757575" stroke="#757575" points="1456.02,-451.47 1465.33,-446.42 1454.9,-444.56 1456.02,-451.47"/>
</g>
<!-- ../entities/WallEntity.ts&#45;&gt;../constants.ts -->
<g id="edge89" class="edge">
<title>../entities/WallEntity.ts&#45;&gt;../constants.ts</title>
<path fill="none" stroke="#757575" d="M1015.23,-563.63C956.13,-574.78 844.85,-591.02 751,-610.09 742.65,-611.79 733.88,-613.75 725.27,-615.68"/>
<polygon fill="#757575" stroke="#757575" points="724.28,-612.32 715.28,-617.92 725.81,-619.15 724.28,-612.32"/>
</g>
<!-- ../entities/WallEntity.ts&#45;&gt;../messages.ts -->
<g id="edge90" class="edge">
<title>../entities/WallEntity.ts&#45;&gt;../messages.ts</title>
<path fill="none" stroke="#757575" d="M1077.69,-540.37C1097.65,-527.8 1130.18,-507.22 1158,-489.09 1174.11,-478.6 1176.49,-473.03 1194,-465.09 1205.11,-460.06 1217.4,-455.82 1229.38,-452.34"/>
<polygon fill="#757575" stroke="#757575" points="1230.63,-455.62 1239.34,-449.58 1228.76,-448.87 1230.63,-455.62"/>
</g>
<!-- ../entities/WallEntity.ts&#45;&gt;../systems/BehaviorSystem.ts -->
<g id="edge91" class="edge">
<title>../entities/WallEntity.ts&#45;&gt;../systems/BehaviorSystem.ts</title>
<path fill="none" stroke="#757575" d="M1092.17,-563.7C1133.17,-578.04 1203.01,-602.48 1247.93,-618.2"/>
<polygon fill="#757575" stroke="#757575" points="1246.8,-621.51 1257.39,-621.51 1249.11,-614.9 1246.8,-621.51"/>
</g>
<!-- ../messages.ts&#45;&gt;../Error.ts -->
<g id="edge96" class="edge">
<title>../messages.ts&#45;&gt;../Error.ts</title>
<path fill="none" stroke="#757575" d="M1302.44,-427.52C1360.07,-361.78 1659.9,-38.09 1976.5,-38.09 1976.5,-38.09 1976.5,-38.09 2172.5,-38.09 2297.94,-38.09 2338.13,-108.95 2383,-226.09 2428.61,-345.18 2448.42,-755.53 2452.63,-855.17"/>
<polygon fill="#757575" stroke="#757575" points="2449.13,-855.42 2453.04,-865.27 2456.13,-855.13 2449.13,-855.42"/>
</g>
<!-- ../messages.ts&#45;&gt;../units/convert.ts -->
<g id="edge98" class="edge">
<title>../messages.ts&#45;&gt;../units/convert.ts</title>
<path fill="none" stroke="#757575" d="M1301.14,-450.96C1320.36,-478.03 1366.75,-547.01 1389,-612.09 1423.61,-713.32 1367.94,-759.6 1425,-850.09 1437.11,-869.3 1457.86,-883.85 1476.22,-893.81"/>
<polygon fill="#757575" stroke="#757575" points="1474.77,-897 1485.27,-898.47 1477.98,-890.78 1474.77,-897"/>
</g>
<!-- ../messages.ts&#45;&gt;../Message.ts -->
<g id="edge97" class="edge">
<title>../messages.ts&#45;&gt;../Message.ts</title>
<path fill="none" stroke="#757575" d="M1343.76,-439.09C1376.92,-439.09 1420.2,-439.09 1454.75,-439.09"/>
<polygon fill="#757575" stroke="#757575" points="1455.17,-442.59 1465.17,-439.09 1455.17,-435.59 1455.17,-442.59"/>
</g>
<!-- ../systems/BehaviorSystem.ts&#45;&gt;../Action.ts -->
<g id="edge103" class="edge">
<title>../systems/BehaviorSystem.ts&#45;&gt;../Action.ts</title>
<path fill="none" stroke="#757575" d="M1353.23,-644.6C1365.14,-647.16 1377.51,-650.04 1389,-653.09 1480.54,-677.44 1585.53,-713.82 1641.96,-734.08"/>
<polygon fill="#757575" stroke="#757575" points="1640.99,-737.46 1651.59,-737.55 1643.37,-730.87 1640.99,-737.46"/>
</g>
<!-- ../systems/BehaviorSystem.ts&#45;&gt;../Component.ts -->
<g id="edge104" class="edge">
<title>../systems/BehaviorSystem.ts&#45;&gt;../Component.ts</title>
<path fill="none" stroke="#757575" d="M1389.14,-631.8C1451.64,-633.37 1534.07,-640.03 1604,-661.09 1682.4,-684.7 1761.26,-743.72 1798.06,-773.82"/>
<polygon fill="#757575" stroke="#757575" points="1796.15,-776.78 1806.08,-780.47 1800.62,-771.39 1796.15,-776.78"/>
</g>
<!-- ../systems/BehaviorSystem.ts&#45;&gt;../Message.ts -->
<g id="edge105" class="edge">
<title>../systems/BehaviorSystem.ts&#45;&gt;../Message.ts</title>
<path fill="none" stroke="#757575" d="M1305.66,-621.54C1342.58,-589.13 1447.34,-497.17 1492.43,-457.59"/>
<polygon fill="#757575" stroke="#757575" points="1494.92,-460.06 1500.13,-450.83 1490.3,-454.8 1494.92,-460.06"/>
</g>
<!-- ../systems/BehaviorSystem.ts&#45;&gt;../System.ts -->
<g id="edge106" class="edge">
<title>../systems/BehaviorSystem.ts&#45;&gt;../System.ts</title>
<path fill="none" stroke="#757575" d="M1378.69,-644.81C1382.42,-647.17 1385.89,-649.91 1389,-653.09 1451.19,-716.77 1363.14,-786.1 1425,-850.09 1481.59,-908.63 1546.86,-831.09 1604,-889.09 1660.64,-946.59 1593.55,-1001.09 1640,-1067.09 1642.19,-1070.2 1644.88,-1073 1647.83,-1075.51"/>
<polygon fill="#757575" stroke="#757575" points="1645.96,-1078.48 1656.12,-1081.49 1650.05,-1072.8 1645.96,-1078.48"/>
</g>
<!-- ../systems/BehaviorSystem.ts&#45;&gt;../systems/ActionSystem.ts -->
<g id="edge107" class="edge">
<title>../systems/BehaviorSystem.ts&#45;&gt;../systems/ActionSystem.ts</title>
<path fill="none" stroke="#757575" d="M1374.86,-644.59C1379.88,-646.96 1384.65,-649.77 1389,-653.09 1417.1,-674.59 1405.54,-694.55 1425,-724.09 1446.42,-756.61 1476.29,-790.54 1495.26,-811"/>
<polygon fill="#757575" stroke="#757575" points="1492.8,-813.49 1502.19,-818.4 1497.91,-808.71 1492.8,-813.49"/>
</g>
<!-- ../systems/ActionSystem.ts&#45;&gt;../Action.ts -->
<g id="edge99" class="edge">
<title>../systems/ActionSystem.ts&#45;&gt;../Action.ts</title>
<path fill="none" stroke="#757575" d="M1539.5,-818.49C1568.48,-804.47 1617.38,-780.83 1649.92,-765.09"/>
<polygon fill="#757575" stroke="#757575" points="1651.57,-768.18 1659.05,-760.68 1648.52,-761.88 1651.57,-768.18"/>
</g>
<!-- ../systems/ActionSystem.ts&#45;&gt;../Component.ts -->
<g id="edge100" class="edge">
<title>../systems/ActionSystem.ts&#45;&gt;../Component.ts</title>
<path fill="none" stroke="#757575" d="M1604.18,-819.42C1642.3,-814.78 1687.35,-809.24 1728,-804.09 1736.34,-803.04 1745.1,-801.91 1753.77,-800.78"/>
<polygon fill="#757575" stroke="#757575" points="1754.4,-804.23 1763.86,-799.47 1753.5,-797.29 1754.4,-804.23"/>
</g>
<!-- ../systems/ActionSystem.ts&#45;&gt;../Error.ts -->
<g id="edge101" class="edge">
<title>../systems/ActionSystem.ts&#45;&gt;../Error.ts</title>
<path fill="none" stroke="#757575" d="M1599.07,-841.83C1600.8,-843.14 1602.45,-844.56 1604,-846.09 1664.19,-905.6 1587.32,-966.85 1640,-1033.09 1666.63,-1066.57 1693.11,-1047.34 1728,-1072.09 1825.97,-1141.59 1802.77,-1221.39 1913,-1269.09 2058.58,-1332.09 2139.41,-1306.99 2265,-1210.09 2374.67,-1125.47 2430.75,-957.77 2447.77,-898.47"/>
<polygon fill="#757575" stroke="#757575" points="2451.18,-899.28 2450.5,-888.71 2444.44,-897.4 2451.18,-899.28"/>
</g>
<!-- ../systems/ActionSystem.ts&#45;&gt;../System.ts -->
<g id="edge102" class="edge">
<title>../systems/ActionSystem.ts&#45;&gt;../System.ts</title>
<path fill="none" stroke="#757575" d="M1584.42,-841.67C1591.79,-845.29 1598.57,-849.99 1604,-856.09 1667.23,-927.17 1586.44,-988.47 1640,-1067.09 1642.14,-1070.23 1644.8,-1073.06 1647.73,-1075.58"/>
<polygon fill="#757575" stroke="#757575" points="1645.84,-1078.54 1655.99,-1081.58 1649.96,-1072.87 1645.84,-1078.54"/>
</g>
<!-- ../systems/LogSystem.ts&#45;&gt;../Observable.ts -->
<g id="edge108" class="edge">
<title>../systems/LogSystem.ts&#45;&gt;../Observable.ts</title>
<path fill="none" stroke="#757575" d="M1596.8,-1240.89C1728.13,-1229.26 1984.39,-1206.57 2104.89,-1195.9"/>
<polygon fill="#757575" stroke="#757575" points="2105.43,-1199.37 2115.08,-1195 2104.81,-1192.4 2105.43,-1199.37"/>
</g>
<!-- ../systems/LogSystem.ts&#45;&gt;../System.ts -->
<g id="edge109" class="edge">
<title>../systems/LogSystem.ts&#45;&gt;../System.ts</title>
<path fill="none" stroke="#757575" d="M1534.06,-1236.48C1552.64,-1224.45 1581.62,-1204.57 1604,-1184.09 1628.5,-1161.68 1652.98,-1132.09 1668.05,-1112.83"/>
<polygon fill="#757575" stroke="#757575" points="1670.94,-1114.82 1674.28,-1104.77 1665.4,-1110.54 1670.94,-1114.82"/>
</g>
<!-- ../systems/LogSystem.ts&#45;&gt;../UIElement.ts -->
<g id="edge110" class="edge">
<title>../systems/LogSystem.ts&#45;&gt;../UIElement.ts</title>
<path fill="none" stroke="#757575" d="M1596.59,-1248.27C1687.15,-1248.46 1831.76,-1248.78 1913.98,-1248.96"/>
<polygon fill="#757575" stroke="#757575" points="1914.17,-1252.46 1924.18,-1248.98 1914.19,-1245.46 1914.17,-1252.46"/>
</g>
<!-- auth.ts -->
<g id="node37" class="node">
<title>auth.ts</title>
<path fill="none" stroke="#c6c5fe" d="M516.33,-613.59C516.33,-613.59 474.67,-613.59 474.67,-613.59 470.83,-613.59 467,-609.76 467,-605.93 467,-605.93 467,-598.26 467,-598.26 467,-594.43 470.83,-590.59 474.67,-590.59 474.67,-590.59 516.33,-590.59 516.33,-590.59 520.17,-590.59 524,-594.43 524,-598.26 524,-598.26 524,-605.93 524,-605.93 524,-609.76 520.17,-613.59 516.33,-613.59"/>
<text text-anchor="middle" x="495.5" y="-598.39" font-family="Arial" font-size="14.00" fill="#c6c5fe">auth.ts</text>
</g>
<!-- auth.ts&#45;&gt;../Error.ts -->
<g id="edge112" class="edge">
<title>auth.ts&#45;&gt;../Error.ts</title>
<path fill="none" stroke="#757575" d="M497.3,-590.34C503.7,-506.3 553.93,-0.09 835.5,-0.09 835.5,-0.09 835.5,-0.09 2172.5,-0.09 2272.74,-0.09 2326.02,1.38 2383,-81.09 2428.22,-146.54 2449,-733.62 2452.84,-855.14"/>
<polygon fill="#757575" stroke="#757575" points="2449.35,-855.53 2453.16,-865.41 2456.34,-855.31 2449.35,-855.53"/>
</g>
<!-- auth.ts&#45;&gt;../constants.ts -->
<g id="edge113" class="edge">
<title>auth.ts&#45;&gt;../constants.ts</title>
<path fill="none" stroke="#757575" d="M524.16,-605.39C546.09,-608.01 577.52,-611.77 605.02,-615.05"/>
<polygon fill="#757575" stroke="#757575" points="604.61,-618.53 614.96,-616.24 605.44,-611.58 604.61,-618.53"/>
</g>
<!-- entity.ts -->
<g id="node38" class="node">
<title>entity.ts</title>
<path fill="none" stroke="#c6c5fe" d="M153.33,-1392.59C153.33,-1392.59 106.67,-1392.59 106.67,-1392.59 102.83,-1392.59 99,-1388.76 99,-1384.93 99,-1384.93 99,-1377.26 99,-1377.26 99,-1373.43 102.83,-1369.59 106.67,-1369.59 106.67,-1369.59 153.33,-1369.59 153.33,-1369.59 157.17,-1369.59 161,-1373.43 161,-1377.26 161,-1377.26 161,-1384.93 161,-1384.93 161,-1388.76 157.17,-1392.59 153.33,-1392.59"/>
<text text-anchor="middle" x="130" y="-1377.39" font-family="Arial" font-size="14.00" fill="#c6c5fe">entity.ts</text>
</g>
<!-- entity.ts&#45;&gt;../EntityManager.ts -->
<g id="edge114" class="edge">
<title>entity.ts&#45;&gt;../EntityManager.ts</title>
<path fill="none" stroke="#757575" d="M136.48,-1369.31C145.87,-1350.69 166.96,-1315.05 197,-1300.09 671.56,-1063.79 892.38,-1441.61 1389,-1256.09 1408.25,-1248.9 1406.79,-1236.61 1425,-1227.09 1549.37,-1162.04 1603.63,-1203.14 1728,-1138.09 1746.21,-1128.57 1745.98,-1118.97 1764,-1109.09 1810.47,-1083.63 1839.81,-1108.83 1877,-1071.09 1958.71,-988.17 1973.35,-838.17 1975.95,-782.06"/>
<polygon fill="#757575" stroke="#757575" points="1979.46,-781.97 1976.33,-771.85 1972.46,-781.71 1979.46,-781.97"/>
</g>
<!-- entity.ts&#45;&gt;../Error.ts -->
<g id="edge115" class="edge">
<title>entity.ts&#45;&gt;../Error.ts</title>
<path fill="none" stroke="#757575" d="M134.99,-1392.7C143.15,-1414.72 163.8,-1462.7 197,-1489.09 306.08,-1575.82 355.15,-1588.09 494.5,-1588.09 494.5,-1588.09 494.5,-1588.09 2172.5,-1588.09 2309.77,-1588.09 2337.67,-1491.66 2383,-1362.09 2442.88,-1190.92 2451.92,-968.59 2453.27,-898.93"/>
<polygon fill="#757575" stroke="#757575" points="2456.77,-898.81 2453.43,-888.76 2449.77,-898.7 2456.77,-898.81"/>
</g>
<!-- entity.ts&#45;&gt;../Observable.ts -->
<g id="edge117" class="edge">
<title>entity.ts&#45;&gt;../Observable.ts</title>
<path fill="none" stroke="#757575" d="M137.33,-1392.79C147.43,-1410.21 168.96,-1442.59 197,-1458.09 292.54,-1510.9 760.06,-1512.09 835.5,-1512.09 835.5,-1512.09 835.5,-1512.09 1515.5,-1512.09 1678.02,-1512.09 1732.98,-1532.38 1877,-1457.09 1897.62,-1446.31 1896.29,-1435.28 1913,-1419.09 1997.36,-1337.35 2103.79,-1246.29 2148.81,-1208.29"/>
<polygon fill="#757575" stroke="#757575" points="2151.34,-1210.74 2156.73,-1201.62 2146.83,-1205.38 2151.34,-1210.74"/>
</g>
<!-- entity.ts&#45;&gt;../NetworkedEntityServer.ts -->
<g id="edge116" class="edge">
<title>entity.ts&#45;&gt;../NetworkedEntityServer.ts</title>
<path fill="none" stroke="#757575" d="M161.16,-1385C168.89,-1386 177.65,-1387.13 186.85,-1388.32"/>
<polygon fill="#757575" stroke="#757575" points="186.61,-1391.82 196.98,-1389.63 187.51,-1384.88 186.61,-1391.82"/>
</g>
<!-- entity.ts&#45;&gt;../functions/Networking.ts -->
<g id="edge119" class="edge">
<title>entity.ts&#45;&gt;../functions/Networking.ts</title>
<path fill="none" stroke="#757575" d="M161.06,-1379.27C213.25,-1376.11 322.67,-1369.49 401.96,-1364.69"/>
<polygon fill="#757575" stroke="#757575" points="402.19,-1368.19 411.96,-1364.09 401.77,-1361.2 402.19,-1368.19"/>
</g>
<!-- entity.ts&#45;&gt;../util.ts -->
<g id="edge120" class="edge">
<title>entity.ts&#45;&gt;../util.ts</title>
<path fill="none" stroke="#757575" d="M145.49,-1392.61C158.25,-1402.05 177.76,-1414.85 197,-1421.09 467.84,-1509 550.75,-1474.09 835.5,-1474.09 835.5,-1474.09 835.5,-1474.09 1515.5,-1474.09 1611.39,-1474.09 1722.98,-1455.25 1780.61,-1444.1"/>
<polygon fill="#757575" stroke="#757575" points="1781.59,-1447.47 1790.73,-1442.11 1780.24,-1440.61 1781.59,-1447.47"/>
</g>
<!-- entity.ts&#45;&gt;../common.ts -->
<g id="edge118" class="edge">
<title>entity.ts&#45;&gt;../common.ts</title>
<path fill="none" stroke="#757575" d="M151.05,-1369.5C163.89,-1362.39 181.08,-1353.46 197,-1347.09 207.58,-1342.86 219.11,-1338.97 230.26,-1335.56"/>
<polygon fill="#757575" stroke="#757575" points="231.33,-1338.89 239.91,-1332.69 229.33,-1332.18 231.33,-1338.89"/>
</g>
<!-- index.ts -->
<g id="node39" class="node">
<title>index.ts</title>
<path fill="none" stroke="#c6c5fe" d="M55.33,-653.59C55.33,-653.59 7.67,-653.59 7.67,-653.59 3.83,-653.59 0,-649.76 0,-645.93 0,-645.93 0,-638.26 0,-638.26 0,-634.43 3.83,-630.59 7.67,-630.59 7.67,-630.59 55.33,-630.59 55.33,-630.59 59.17,-630.59 63,-634.43 63,-638.26 63,-638.26 63,-645.93 63,-645.93 63,-649.76 59.17,-653.59 55.33,-653.59"/>
<text text-anchor="middle" x="31.5" y="-638.39" font-family="Arial" font-size="14.00" fill="#c6c5fe">index.ts</text>
</g>
<!-- index.ts&#45;&gt;../constants.ts -->
<g id="edge121" class="edge">
<title>index.ts&#45;&gt;../constants.ts</title>
<path fill="none" stroke="#757575" d="M63.39,-641.11C162.48,-637.98 473.56,-628.12 604.73,-623.97"/>
<polygon fill="#757575" stroke="#757575" points="605.1,-627.46 614.99,-623.64 604.88,-620.46 605.1,-627.46"/>
</g>
<!-- index.ts&#45;&gt;auth.ts -->
<g id="edge122" class="edge">
<title>index.ts&#45;&gt;auth.ts</title>
<path fill="none" stroke="#757575" d="M63.13,-634.69C74.35,-632.24 87.19,-629.71 99,-628.09 229.33,-610.18 385.58,-604.52 456.34,-602.8"/>
<polygon fill="#757575" stroke="#757575" points="456.63,-606.3 466.55,-602.57 456.47,-599.3 456.63,-606.3"/>
</g>
<!-- index.ts&#45;&gt;entity.ts -->
<g id="edge123" class="edge">
<title>index.ts&#45;&gt;entity.ts</title>
<path fill="none" stroke="#757575" d="M34.02,-653.7C44.93,-737.32 111.56,-1247.56 126.17,-1359.43"/>
<polygon fill="#757575" stroke="#757575" points="122.72,-1360.05 127.49,-1369.51 129.66,-1359.14 122.72,-1360.05"/>
</g>
</g>
</svg>
