<?xml version="1.0" encoding="UTF-8" standalone="no"?>
<!DOCTYPE svg PUBLIC "-//W3C//DTD SVG 1.1//EN"
 "http://www.w3.org/Graphics/SVG/1.1/DTD/svg11.dtd">
<!-- Generated by graphviz version 2.43.0 (0)
 -->
<!-- Title: G Pages: 1 -->
<svg width="1798pt" height="1619pt"
 viewBox="0.00 0.00 1798.20 1619.04" xmlns="http://www.w3.org/2000/svg" xmlns:xlink="http://www.w3.org/1999/xlink">
<g id="graph0" class="graph" transform="scale(1 1) rotate(0) translate(21.6 1597.44)">
<title>G</title>
<polygon fill="#111111" stroke="transparent" points="-21.6,21.6 -21.6,-1597.44 1776.6,-1597.44 1776.6,21.6 -21.6,21.6"/>
<!-- Component.ts -->
<g id="node1" class="node">
<title>Component.ts</title>
<path fill="none" stroke="#c6c5fe" d="M1625.33,-540.34C1625.33,-540.34 1539.67,-540.34 1539.67,-540.34 1535.83,-540.34 1532,-536.51 1532,-532.68 1532,-532.68 1532,-525.01 1532,-525.01 1532,-521.18 1535.83,-517.34 1539.67,-517.34 1539.67,-517.34 1625.33,-517.34 1625.33,-517.34 1629.17,-517.34 1633,-521.18 1633,-525.01 1633,-525.01 1633,-532.68 1633,-532.68 1633,-536.51 1629.17,-540.34 1625.33,-540.34"/>
<text text-anchor="middle" x="1582.5" y="-525.14" font-family="Arial" font-size="14.00" fill="#c6c5fe">Component.ts</text>
</g>
<!-- Error.ts -->
<g id="node2" class="node">
<title>Error.ts</title>
<path fill="none" stroke="#cfffac" d="M1747.33,-540.34C1747.33,-540.34 1702.67,-540.34 1702.67,-540.34 1698.83,-540.34 1695,-536.51 1695,-532.68 1695,-532.68 1695,-525.01 1695,-525.01 1695,-521.18 1698.83,-517.34 1702.67,-517.34 1702.67,-517.34 1747.33,-517.34 1747.33,-517.34 1751.17,-517.34 1755,-521.18 1755,-525.01 1755,-525.01 1755,-532.68 1755,-532.68 1755,-536.51 1751.17,-540.34 1747.33,-540.34"/>
<text text-anchor="middle" x="1725" y="-525.14" font-family="Arial" font-size="14.00" fill="#cfffac">Error.ts</text>
</g>
<!-- Component.ts&#45;&gt;Error.ts -->
<g id="edge1" class="edge">
<title>Component.ts&#45;&gt;Error.ts</title>
<path fill="none" stroke="#757575" d="M1633.04,-528.84C1650.02,-528.84 1668.77,-528.84 1684.81,-528.84"/>
<polygon fill="#757575" stroke="#757575" points="1684.92,-532.34 1694.92,-528.84 1684.92,-525.34 1684.92,-532.34"/>
</g>
<!-- Counter.ts -->
<g id="node3" class="node">
<title>Counter.ts</title>
<path fill="none" stroke="#cfffac" d="M1407.33,-1433.34C1407.33,-1433.34 1344.67,-1433.34 1344.67,-1433.34 1340.83,-1433.34 1337,-1429.51 1337,-1425.68 1337,-1425.68 1337,-1418.01 1337,-1418.01 1337,-1414.18 1340.83,-1410.34 1344.67,-1410.34 1344.67,-1410.34 1407.33,-1410.34 1407.33,-1410.34 1411.17,-1410.34 1415,-1414.18 1415,-1418.01 1415,-1418.01 1415,-1425.68 1415,-1425.68 1415,-1429.51 1411.17,-1433.34 1407.33,-1433.34"/>
<text text-anchor="middle" x="1376" y="-1418.14" font-family="Arial" font-size="14.00" fill="#cfffac">Counter.ts</text>
</g>
<!-- Executor.ts -->
<g id="node4" class="node">
<title>Executor.ts</title>
<path fill="none" stroke="#c6c5fe" d="M1616.33,-765.34C1616.33,-765.34 1548.67,-765.34 1548.67,-765.34 1544.83,-765.34 1541,-761.51 1541,-757.68 1541,-757.68 1541,-750.01 1541,-750.01 1541,-746.18 1544.83,-742.34 1548.67,-742.34 1548.67,-742.34 1616.33,-742.34 1616.33,-742.34 1620.17,-742.34 1624,-746.18 1624,-750.01 1624,-750.01 1624,-757.68 1624,-757.68 1624,-761.51 1620.17,-765.34 1616.33,-765.34"/>
<text text-anchor="middle" x="1582.5" y="-750.14" font-family="Arial" font-size="14.00" fill="#c6c5fe">Executor.ts</text>
</g>
<!-- Executor.ts&#45;&gt;Error.ts -->
<g id="edge2" class="edge">
<title>Executor.ts&#45;&gt;Error.ts</title>
<path fill="none" stroke="#757575" d="M1590.86,-742.06C1613.57,-705.69 1682.79,-594.84 1711.41,-549.01"/>
<polygon fill="#757575" stroke="#757575" points="1714.39,-550.84 1716.72,-540.51 1708.45,-547.14 1714.39,-550.84"/>
</g>
<!-- util.ts -->
<g id="node5" class="node">
<title>util.ts</title>
<path fill="none" stroke="#cfffac" d="M1744.33,-1473.34C1744.33,-1473.34 1705.67,-1473.34 1705.67,-1473.34 1701.83,-1473.34 1698,-1469.51 1698,-1465.68 1698,-1465.68 1698,-1458.01 1698,-1458.01 1698,-1454.18 1701.83,-1450.34 1705.67,-1450.34 1705.67,-1450.34 1744.33,-1450.34 1744.33,-1450.34 1748.17,-1450.34 1752,-1454.18 1752,-1458.01 1752,-1458.01 1752,-1465.68 1752,-1465.68 1752,-1469.51 1748.17,-1473.34 1744.33,-1473.34"/>
<text text-anchor="middle" x="1725" y="-1458.14" font-family="Arial" font-size="14.00" fill="#cfffac">util.ts</text>
</g>
<!-- Executor.ts&#45;&gt;util.ts -->
<g id="edge3" class="edge">
<title>Executor.ts&#45;&gt;util.ts</title>
<path fill="none" stroke="#757575" d="M1624.1,-756.2C1637.1,-759.03 1650.35,-764.52 1659,-774.84 1702.72,-827.08 1720.06,-1328.76 1723.39,-1440.05"/>
<polygon fill="#757575" stroke="#757575" points="1719.89,-1440.21 1723.68,-1450.1 1726.89,-1440 1719.89,-1440.21"/>
</g>
<!-- Input.ts -->
<g id="node6" class="node">
<title>Input.ts</title>
<path fill="none" stroke="#c6c5fe" d="M1398.83,-1125.34C1398.83,-1125.34 1353.17,-1125.34 1353.17,-1125.34 1349.33,-1125.34 1345.5,-1121.51 1345.5,-1117.68 1345.5,-1117.68 1345.5,-1110.01 1345.5,-1110.01 1345.5,-1106.18 1349.33,-1102.34 1353.17,-1102.34 1353.17,-1102.34 1398.83,-1102.34 1398.83,-1102.34 1402.67,-1102.34 1406.5,-1106.18 1406.5,-1110.01 1406.5,-1110.01 1406.5,-1117.68 1406.5,-1117.68 1406.5,-1121.51 1402.67,-1125.34 1398.83,-1125.34"/>
<text text-anchor="middle" x="1376" y="-1110.14" font-family="Arial" font-size="14.00" fill="#c6c5fe">Input.ts</text>
</g>
<!-- Input.ts&#45;&gt;util.ts -->
<g id="edge4" class="edge">
<title>Input.ts&#45;&gt;util.ts</title>
<path fill="none" stroke="#757575" d="M1406.81,-1116.66C1425.74,-1119.38 1450.3,-1124.65 1470,-1134.84 1570.35,-1186.75 1593.78,-1212.59 1659,-1304.84 1689.77,-1348.37 1709.49,-1408.67 1718.42,-1440.38"/>
<polygon fill="#757575" stroke="#757575" points="1715.13,-1441.6 1721.14,-1450.33 1721.88,-1439.76 1715.13,-1441.6"/>
</g>
<!-- Log.ts -->
<g id="node7" class="node">
<title>Log.ts</title>
<path fill="none" stroke="#cfffac" d="M1395.33,-236.34C1395.33,-236.34 1356.67,-236.34 1356.67,-236.34 1352.83,-236.34 1349,-232.51 1349,-228.68 1349,-228.68 1349,-221.01 1349,-221.01 1349,-217.18 1352.83,-213.34 1356.67,-213.34 1356.67,-213.34 1395.33,-213.34 1395.33,-213.34 1399.17,-213.34 1403,-217.18 1403,-221.01 1403,-221.01 1403,-228.68 1403,-228.68 1403,-232.51 1399.17,-236.34 1395.33,-236.34"/>
<text text-anchor="middle" x="1376" y="-221.14" font-family="Arial" font-size="14.00" fill="#cfffac">Log.ts</text>
</g>
<!-- Matrix.ts -->
<g id="node8" class="node">
<title>Matrix.ts</title>
<path fill="none" stroke="#c6c5fe" d="M1608.83,-886.34C1608.83,-886.34 1556.17,-886.34 1556.17,-886.34 1552.33,-886.34 1548.5,-882.51 1548.5,-878.68 1548.5,-878.68 1548.5,-871.01 1548.5,-871.01 1548.5,-867.18 1552.33,-863.34 1556.17,-863.34 1556.17,-863.34 1608.83,-863.34 1608.83,-863.34 1612.67,-863.34 1616.5,-867.18 1616.5,-871.01 1616.5,-871.01 1616.5,-878.68 1616.5,-878.68 1616.5,-882.51 1612.67,-886.34 1608.83,-886.34"/>
<text text-anchor="middle" x="1582.5" y="-871.14" font-family="Arial" font-size="14.00" fill="#c6c5fe">Matrix.ts</text>
</g>
<!-- Matrix.ts&#45;&gt;Error.ts -->
<g id="edge5" class="edge">
<title>Matrix.ts&#45;&gt;Error.ts</title>
<path fill="none" stroke="#757575" d="M1616.65,-870.96C1631.62,-867.52 1648.31,-861.04 1659,-848.84 1698.48,-803.8 1717.07,-615.09 1722.36,-550.58"/>
<polygon fill="#757575" stroke="#757575" points="1725.87,-550.6 1723.17,-540.36 1718.89,-550.05 1725.87,-550.6"/>
</g>
<!-- Query.ts -->
<g id="node9" class="node">
<title>Query.ts</title>
<path fill="none" stroke="#c6c5fe" d="M1402.33,-765.34C1402.33,-765.34 1349.67,-765.34 1349.67,-765.34 1345.83,-765.34 1342,-761.51 1342,-757.68 1342,-757.68 1342,-750.01 1342,-750.01 1342,-746.18 1345.83,-742.34 1349.67,-742.34 1349.67,-742.34 1402.33,-742.34 1402.33,-742.34 1406.17,-742.34 1410,-746.18 1410,-750.01 1410,-750.01 1410,-757.68 1410,-757.68 1410,-761.51 1406.17,-765.34 1402.33,-765.34"/>
<text text-anchor="middle" x="1376" y="-750.14" font-family="Arial" font-size="14.00" fill="#c6c5fe">Query.ts</text>
</g>
<!-- Query.ts&#45;&gt;Component.ts -->
<g id="edge6" class="edge">
<title>Query.ts&#45;&gt;Component.ts</title>
<path fill="none" stroke="#757575" d="M1410.36,-753.38C1429.46,-751.58 1452.94,-746.61 1470,-733.84 1533.27,-686.52 1564.85,-592.33 1576.3,-550.14"/>
<polygon fill="#757575" stroke="#757575" points="1579.72,-550.93 1578.85,-540.37 1572.94,-549.17 1579.72,-550.93"/>
</g>
<!-- Query.ts&#45;&gt;Executor.ts -->
<g id="edge7" class="edge">
<title>Query.ts&#45;&gt;Executor.ts</title>
<path fill="none" stroke="#757575" d="M1410.31,-753.84C1442.9,-753.84 1492.97,-753.84 1530.56,-753.84"/>
<polygon fill="#757575" stroke="#757575" points="1530.81,-757.34 1540.81,-753.84 1530.81,-750.34 1530.81,-757.34"/>
</g>
<!-- Rectangle.ts -->
<g id="node10" class="node">
<title>Rectangle.ts</title>
<path fill="none" stroke="#cfffac" d="M1172.33,-267.34C1172.33,-267.34 1095.67,-267.34 1095.67,-267.34 1091.83,-267.34 1088,-263.51 1088,-259.68 1088,-259.68 1088,-252.01 1088,-252.01 1088,-248.18 1091.83,-244.34 1095.67,-244.34 1095.67,-244.34 1172.33,-244.34 1172.33,-244.34 1176.17,-244.34 1180,-248.18 1180,-252.01 1180,-252.01 1180,-259.68 1180,-259.68 1180,-263.51 1176.17,-267.34 1172.33,-267.34"/>
<text text-anchor="middle" x="1134" y="-252.14" font-family="Arial" font-size="14.00" fill="#cfffac">Rectangle.ts</text>
</g>
<!-- Rhythm.ts -->
<g id="node11" class="node">
<title>Rhythm.ts</title>
<path fill="none" stroke="#c6c5fe" d="M1407.33,-115.34C1407.33,-115.34 1344.67,-115.34 1344.67,-115.34 1340.83,-115.34 1337,-111.51 1337,-107.68 1337,-107.68 1337,-100.01 1337,-100.01 1337,-96.18 1340.83,-92.34 1344.67,-92.34 1344.67,-92.34 1407.33,-92.34 1407.33,-92.34 1411.17,-92.34 1415,-96.18 1415,-100.01 1415,-100.01 1415,-107.68 1415,-107.68 1415,-111.51 1411.17,-115.34 1407.33,-115.34"/>
<text text-anchor="middle" x="1376" y="-100.14" font-family="Arial" font-size="14.00" fill="#c6c5fe">Rhythm.ts</text>
</g>
<!-- globals.ts -->
<g id="node12" class="node">
<title>globals.ts</title>
<path fill="none" stroke="#cfffac" d="M1611.83,-117.34C1611.83,-117.34 1553.17,-117.34 1553.17,-117.34 1549.33,-117.34 1545.5,-113.51 1545.5,-109.68 1545.5,-109.68 1545.5,-102.01 1545.5,-102.01 1545.5,-98.18 1549.33,-94.34 1553.17,-94.34 1553.17,-94.34 1611.83,-94.34 1611.83,-94.34 1615.67,-94.34 1619.5,-98.18 1619.5,-102.01 1619.5,-102.01 1619.5,-109.68 1619.5,-109.68 1619.5,-113.51 1615.67,-117.34 1611.83,-117.34"/>
<text text-anchor="middle" x="1582.5" y="-102.14" font-family="Arial" font-size="14.00" fill="#cfffac">globals.ts</text>
</g>
<!-- Rhythm.ts&#45;&gt;globals.ts -->
<g id="edge8" class="edge">
<title>Rhythm.ts&#45;&gt;globals.ts</title>
<path fill="none" stroke="#757575" d="M1415.46,-104.22C1449.37,-104.55 1498.86,-105.04 1534.99,-105.39"/>
<polygon fill="#757575" stroke="#757575" points="1535.23,-108.89 1545.27,-105.49 1535.3,-101.89 1535.23,-108.89"/>
</g>
<!-- Router.ts -->
<g id="node13" class="node">
<title>Router.ts</title>
<path fill="none" stroke="#ff6c60" d="M196.33,-806.34C196.33,-806.34 140.67,-806.34 140.67,-806.34 136.83,-806.34 133,-802.51 133,-798.68 133,-798.68 133,-791.01 133,-791.01 133,-787.18 136.83,-783.34 140.67,-783.34 140.67,-783.34 196.33,-783.34 196.33,-783.34 200.17,-783.34 204,-787.18 204,-791.01 204,-791.01 204,-798.68 204,-798.68 204,-802.51 200.17,-806.34 196.33,-806.34"/>
<text text-anchor="middle" x="168.5" y="-791.14" font-family="Arial" font-size="14.00" fill="#ff6c60">Router.ts</text>
</g>
<!-- Router.ts&#45;&gt;Error.ts -->
<g id="edge9" class="edge">
<title>Router.ts&#45;&gt;Error.ts</title>
<path fill="none" stroke="#757575" d="M171.16,-783.27C180.32,-723.48 230.1,-446.85 385,-300.84 599.71,-98.46 730.13,-157.1 1022,-113.84 1302.34,-72.3 1445.56,101.6 1659,-84.84 1723.16,-140.89 1725.13,-425.25 1724.35,-506.9"/>
<polygon fill="#757575" stroke="#757575" points="1720.85,-506.99 1724.23,-517.03 1727.85,-507.07 1720.85,-506.99"/>
</g>
<!-- scenes.ts -->
<g id="node14" class="node">
<title>scenes.ts</title>
<path fill="none" stroke="#ff6c60" d="M341.33,-806.34C341.33,-806.34 282.67,-806.34 282.67,-806.34 278.83,-806.34 275,-802.51 275,-798.68 275,-798.68 275,-791.01 275,-791.01 275,-787.18 278.83,-783.34 282.67,-783.34 282.67,-783.34 341.33,-783.34 341.33,-783.34 345.17,-783.34 349,-787.18 349,-791.01 349,-791.01 349,-798.68 349,-798.68 349,-802.51 345.17,-806.34 341.33,-806.34"/>
<text text-anchor="middle" x="312" y="-791.14" font-family="Arial" font-size="14.00" fill="#ff6c60">scenes.ts</text>
</g>
<!-- Router.ts&#45;&gt;scenes.ts -->
<g id="edge10" class="edge">
<title>Router.ts&#45;&gt;scenes.ts</title>
<path fill="none" stroke="#757575" d="M204.11,-794.84C222.37,-794.84 245.01,-794.84 264.75,-794.84"/>
<polygon fill="#757575" stroke="#757575" points="264.77,-798.34 274.77,-794.84 264.77,-791.34 264.77,-798.34"/>
</g>
<!-- scenes.ts&#45;&gt;util.ts -->
<g id="edge69" class="edge">
<title>scenes.ts&#45;&gt;util.ts</title>
<path fill="none" stroke="#757575" d="M318.97,-806.58C344.5,-856.02 448.79,-1050.78 572,-1180.84 736.8,-1354.81 793.41,-1405.92 1022,-1477.84 1212.14,-1537.67 1270.75,-1504.64 1470,-1498.84 1554.11,-1496.4 1576.87,-1506.15 1659,-1487.84 1669.79,-1485.44 1681.11,-1481.46 1691.23,-1477.33"/>
<polygon fill="#757575" stroke="#757575" points="1692.69,-1480.52 1700.51,-1473.37 1689.94,-1474.08 1692.69,-1480.52"/>
</g>
<!-- Scene.ts -->
<g id="node15" class="node">
<title>Scene.ts</title>
<path fill="none" stroke="#c6c5fe" d="M1160.83,-388.34C1160.83,-388.34 1107.17,-388.34 1107.17,-388.34 1103.33,-388.34 1099.5,-384.51 1099.5,-380.68 1099.5,-380.68 1099.5,-373.01 1099.5,-373.01 1099.5,-369.18 1103.33,-365.34 1107.17,-365.34 1107.17,-365.34 1160.83,-365.34 1160.83,-365.34 1164.67,-365.34 1168.5,-369.18 1168.5,-373.01 1168.5,-373.01 1168.5,-380.68 1168.5,-380.68 1168.5,-384.51 1164.67,-388.34 1160.83,-388.34"/>
<text text-anchor="middle" x="1134" y="-373.14" font-family="Arial" font-size="14.00" fill="#c6c5fe">Scene.ts</text>
</g>
<!-- scenes.ts&#45;&gt;Scene.ts -->
<g id="edge65" class="edge">
<title>scenes.ts&#45;&gt;Scene.ts</title>
<path fill="none" stroke="#757575" d="M314.42,-783.18C323.05,-717.84 374.94,-395.95 572,-273.84 606.64,-252.38 946.77,-252.3 986,-277.84 1017.99,-298.68 991.9,-332.35 1022,-355.84 1040.89,-370.58 1067.02,-376.04 1089.19,-377.71"/>
<polygon fill="#757575" stroke="#757575" points="1089.21,-381.22 1099.38,-378.25 1089.57,-374.23 1089.21,-381.22"/>
</g>
<!-- scenes/EditorScene.ts -->
<g id="node46" class="node">
<title>scenes/EditorScene.ts</title>
<path fill="none" stroke="#ff6c60" d="M528.33,-806.34C528.33,-806.34 392.67,-806.34 392.67,-806.34 388.83,-806.34 385,-802.51 385,-798.68 385,-798.68 385,-791.01 385,-791.01 385,-787.18 388.83,-783.34 392.67,-783.34 392.67,-783.34 528.33,-783.34 528.33,-783.34 532.17,-783.34 536,-787.18 536,-791.01 536,-791.01 536,-798.68 536,-798.68 536,-802.51 532.17,-806.34 528.33,-806.34"/>
<text text-anchor="middle" x="460.5" y="-791.14" font-family="Arial" font-size="14.00" fill="#ff6c60">scenes/EditorScene.ts</text>
</g>
<!-- scenes.ts&#45;&gt;scenes/EditorScene.ts -->
<g id="edge66" class="edge">
<title>scenes.ts&#45;&gt;scenes/EditorScene.ts</title>
<path fill="none" stroke="#757575" d="M349.21,-794.84C357.09,-794.84 365.75,-794.84 374.64,-794.84"/>
<polygon fill="#757575" stroke="#757575" points="374.75,-798.34 384.75,-794.84 374.75,-791.34 374.75,-798.34"/>
</g>
<!-- scenes/GameScene.ts -->
<g id="node47" class="node">
<title>scenes/GameScene.ts</title>
<path fill="none" stroke="#c6c5fe" d="M724.33,-673.34C724.33,-673.34 585.67,-673.34 585.67,-673.34 581.83,-673.34 578,-669.51 578,-665.68 578,-665.68 578,-658.01 578,-658.01 578,-654.18 581.83,-650.34 585.67,-650.34 585.67,-650.34 724.33,-650.34 724.33,-650.34 728.17,-650.34 732,-654.18 732,-658.01 732,-658.01 732,-665.68 732,-665.68 732,-669.51 728.17,-673.34 724.33,-673.34"/>
<text text-anchor="middle" x="655" y="-658.14" font-family="Arial" font-size="14.00" fill="#c6c5fe">scenes/GameScene.ts</text>
</g>
<!-- scenes.ts&#45;&gt;scenes/GameScene.ts -->
<g id="edge67" class="edge">
<title>scenes.ts&#45;&gt;scenes/GameScene.ts</title>
<path fill="none" stroke="#757575" d="M342.66,-783.27C404.13,-759.3 545.42,-704.19 614.51,-677.25"/>
<polygon fill="#757575" stroke="#757575" points="616.12,-680.38 624.16,-673.48 613.57,-673.86 616.12,-680.38"/>
</g>
<!-- scenes/MenuScene.ts -->
<g id="node48" class="node">
<title>scenes/MenuScene.ts</title>
<path fill="none" stroke="#ff6c60" d="M947.33,-1002.34C947.33,-1002.34 812.67,-1002.34 812.67,-1002.34 808.83,-1002.34 805,-998.51 805,-994.68 805,-994.68 805,-987.01 805,-987.01 805,-983.18 808.83,-979.34 812.67,-979.34 812.67,-979.34 947.33,-979.34 947.33,-979.34 951.17,-979.34 955,-983.18 955,-987.01 955,-987.01 955,-994.68 955,-994.68 955,-998.51 951.17,-1002.34 947.33,-1002.34"/>
<text text-anchor="middle" x="880" y="-987.14" font-family="Arial" font-size="14.00" fill="#ff6c60">scenes/MenuScene.ts</text>
</g>
<!-- scenes.ts&#45;&gt;scenes/MenuScene.ts -->
<g id="edge68" class="edge">
<title>scenes.ts&#45;&gt;scenes/MenuScene.ts</title>
<path fill="none" stroke="#757575" d="M346.29,-806.37C443.61,-840.07 727.54,-938.4 836.11,-975.99"/>
<polygon fill="#757575" stroke="#757575" points="835.15,-979.36 845.75,-979.33 837.44,-972.75 835.15,-979.36"/>
</g>
<!-- Scene.ts&#45;&gt;Error.ts -->
<g id="edge11" class="edge">
<title>Scene.ts&#45;&gt;Error.ts</title>
<path fill="none" stroke="#757575" d="M1168.72,-378.03C1192.5,-377.19 1223.94,-372.52 1246,-355.84 1274.55,-334.28 1251.57,-302.65 1282,-283.84 1353.08,-239.92 1392.52,-252.57 1470,-283.84 1586.09,-330.71 1678.68,-458.84 1711.32,-508.66"/>
<polygon fill="#757575" stroke="#757575" points="1708.52,-510.77 1716.88,-517.27 1714.4,-506.97 1708.52,-510.77"/>
</g>
<!-- Scene.ts&#45;&gt;Input.ts -->
<g id="edge12" class="edge">
<title>Scene.ts&#45;&gt;Input.ts</title>
<path fill="none" stroke="#757575" d="M1168.52,-385.07C1194.38,-393.32 1228.57,-408.78 1246,-435.84 1316.03,-544.61 1230.07,-898.37 1282,-1016.84 1296.53,-1050 1327.62,-1078.6 1349.85,-1095.99"/>
<polygon fill="#757575" stroke="#757575" points="1347.8,-1098.83 1357.88,-1102.09 1352.04,-1093.25 1347.8,-1098.83"/>
</g>
<!-- Scene.ts&#45;&gt;Rhythm.ts -->
<g id="edge13" class="edge">
<title>Scene.ts&#45;&gt;Rhythm.ts</title>
<path fill="none" stroke="#757575" d="M1168.61,-379.95C1193.47,-380.28 1226.29,-376.21 1246,-355.84 1318.55,-280.85 1210.38,-199.73 1282,-123.84 1293.45,-111.71 1310.35,-106.04 1326.61,-103.62"/>
<polygon fill="#757575" stroke="#757575" points="1327.05,-107.09 1336.6,-102.5 1326.27,-100.13 1327.05,-107.09"/>
</g>
<!-- Tile.ts -->
<g id="node16" class="node">
<title>Tile.ts</title>
<path fill="none" stroke="#c6c5fe" d="M1395.33,-886.34C1395.33,-886.34 1356.67,-886.34 1356.67,-886.34 1352.83,-886.34 1349,-882.51 1349,-878.68 1349,-878.68 1349,-871.01 1349,-871.01 1349,-867.18 1352.83,-863.34 1356.67,-863.34 1356.67,-863.34 1395.33,-863.34 1395.33,-863.34 1399.17,-863.34 1403,-867.18 1403,-871.01 1403,-871.01 1403,-878.68 1403,-878.68 1403,-882.51 1399.17,-886.34 1395.33,-886.34"/>
<text text-anchor="middle" x="1376" y="-871.14" font-family="Arial" font-size="14.00" fill="#c6c5fe">Tile.ts</text>
</g>
<!-- Tile.ts&#45;&gt;Matrix.ts -->
<g id="edge14" class="edge">
<title>Tile.ts&#45;&gt;Matrix.ts</title>
<path fill="none" stroke="#757575" d="M1403.32,-874.84C1437.35,-874.84 1497.11,-874.84 1537.96,-874.84"/>
<polygon fill="#757575" stroke="#757575" points="1538.17,-878.34 1548.17,-874.84 1538.17,-871.34 1538.17,-878.34"/>
</g>
<!-- units/convert.ts -->
<g id="node17" class="node">
<title>units/convert.ts</title>
<path fill="none" stroke="#cfffac" d="M1628.33,-1336.34C1628.33,-1336.34 1536.67,-1336.34 1536.67,-1336.34 1532.83,-1336.34 1529,-1332.51 1529,-1328.68 1529,-1328.68 1529,-1321.01 1529,-1321.01 1529,-1317.18 1532.83,-1313.34 1536.67,-1313.34 1536.67,-1313.34 1628.33,-1313.34 1628.33,-1313.34 1632.17,-1313.34 1636,-1317.18 1636,-1321.01 1636,-1321.01 1636,-1328.68 1636,-1328.68 1636,-1332.51 1632.17,-1336.34 1628.33,-1336.34"/>
<text text-anchor="middle" x="1582.5" y="-1321.14" font-family="Arial" font-size="14.00" fill="#cfffac">units/convert.ts</text>
</g>
<!-- Tile.ts&#45;&gt;units/convert.ts -->
<g id="edge15" class="edge">
<title>Tile.ts&#45;&gt;units/convert.ts</title>
<path fill="none" stroke="#757575" d="M1403.22,-885.48C1424.24,-895.3 1452.95,-911.85 1470,-934.84 1558.05,-1053.57 1576.67,-1239.78 1580.52,-1303.01"/>
<polygon fill="#757575" stroke="#757575" points="1577.03,-1303.23 1581.07,-1313.02 1584.02,-1302.85 1577.03,-1303.23"/>
</g>
<!-- Vec2.ts -->
<g id="node18" class="node">
<title>Vec2.ts</title>
<path fill="none" stroke="#cfffac" d="M1156.83,-1201.34C1156.83,-1201.34 1111.17,-1201.34 1111.17,-1201.34 1107.33,-1201.34 1103.5,-1197.51 1103.5,-1193.68 1103.5,-1193.68 1103.5,-1186.01 1103.5,-1186.01 1103.5,-1182.18 1107.33,-1178.34 1111.17,-1178.34 1111.17,-1178.34 1156.83,-1178.34 1156.83,-1178.34 1160.67,-1178.34 1164.5,-1182.18 1164.5,-1186.01 1164.5,-1186.01 1164.5,-1193.68 1164.5,-1193.68 1164.5,-1197.51 1160.67,-1201.34 1156.83,-1201.34"/>
<text text-anchor="middle" x="1134" y="-1186.14" font-family="Arial" font-size="14.00" fill="#cfffac">Vec2.ts</text>
</g>
<!-- behaviors/CursorBehavior.ts -->
<g id="node19" class="node">
<title>behaviors/CursorBehavior.ts</title>
<path fill="none" stroke="#c6c5fe" d="M1219.33,-927.34C1219.33,-927.34 1048.67,-927.34 1048.67,-927.34 1044.83,-927.34 1041,-923.51 1041,-919.68 1041,-919.68 1041,-912.01 1041,-912.01 1041,-908.18 1044.83,-904.34 1048.67,-904.34 1048.67,-904.34 1219.33,-904.34 1219.33,-904.34 1223.17,-904.34 1227,-908.18 1227,-912.01 1227,-912.01 1227,-919.68 1227,-919.68 1227,-923.51 1223.17,-927.34 1219.33,-927.34"/>
<text text-anchor="middle" x="1134" y="-912.14" font-family="Arial" font-size="14.00" fill="#c6c5fe">behaviors/CursorBehavior.ts</text>
</g>
<!-- components/ActLike.ts -->
<g id="node20" class="node">
<title>components/ActLike.ts</title>
<path fill="none" stroke="#cfffac" d="M1651.33,-806.34C1651.33,-806.34 1513.67,-806.34 1513.67,-806.34 1509.83,-806.34 1506,-802.51 1506,-798.68 1506,-798.68 1506,-791.01 1506,-791.01 1506,-787.18 1509.83,-783.34 1513.67,-783.34 1513.67,-783.34 1651.33,-783.34 1651.33,-783.34 1655.17,-783.34 1659,-787.18 1659,-791.01 1659,-791.01 1659,-798.68 1659,-798.68 1659,-802.51 1655.17,-806.34 1651.33,-806.34"/>
<text text-anchor="middle" x="1582.5" y="-791.14" font-family="Arial" font-size="14.00" fill="#cfffac">components/ActLike.ts</text>
</g>
<!-- behaviors/CursorBehavior.ts&#45;&gt;components/ActLike.ts -->
<g id="edge16" class="edge">
<title>behaviors/CursorBehavior.ts&#45;&gt;components/ActLike.ts</title>
<path fill="none" stroke="#757575" d="M1220.53,-927.44C1229.71,-931.07 1238.44,-935.77 1246,-941.84 1274.83,-965 1250.71,-997.15 1282,-1016.84 1352.72,-1061.34 1404.82,-1069.13 1470,-1016.84 1527.53,-970.69 1466.89,-917.37 1506,-854.84 1517.16,-837 1535.57,-822.21 1551.41,-811.78"/>
<polygon fill="#757575" stroke="#757575" points="1553.29,-814.73 1559.89,-806.44 1549.56,-808.81 1553.29,-814.73"/>
</g>
<!-- components/Behavior.ts -->
<g id="node21" class="node">
<title>components/Behavior.ts</title>
<path fill="none" stroke="#c6c5fe" d="M1448.83,-806.34C1448.83,-806.34 1303.17,-806.34 1303.17,-806.34 1299.33,-806.34 1295.5,-802.51 1295.5,-798.68 1295.5,-798.68 1295.5,-791.01 1295.5,-791.01 1295.5,-787.18 1299.33,-783.34 1303.17,-783.34 1303.17,-783.34 1448.83,-783.34 1448.83,-783.34 1452.67,-783.34 1456.5,-787.18 1456.5,-791.01 1456.5,-791.01 1456.5,-798.68 1456.5,-798.68 1456.5,-802.51 1452.67,-806.34 1448.83,-806.34"/>
<text text-anchor="middle" x="1376" y="-791.14" font-family="Arial" font-size="14.00" fill="#c6c5fe">components/Behavior.ts</text>
</g>
<!-- behaviors/CursorBehavior.ts&#45;&gt;components/Behavior.ts -->
<g id="edge17" class="edge">
<title>behaviors/CursorBehavior.ts&#45;&gt;components/Behavior.ts</title>
<path fill="none" stroke="#757575" d="M1227,-904.4C1233.62,-902.04 1240.03,-899.22 1246,-895.84 1267.11,-883.92 1263.64,-870.68 1282,-854.84 1301.38,-838.13 1325.77,-822.56 1344.71,-811.48"/>
<polygon fill="#757575" stroke="#757575" points="1346.6,-814.43 1353.53,-806.41 1343.11,-808.36 1346.6,-814.43"/>
</g>
<!-- components/Behavior.ts&#45;&gt;Component.ts -->
<g id="edge29" class="edge">
<title>components/Behavior.ts&#45;&gt;Component.ts</title>
<path fill="none" stroke="#757575" d="M1456.55,-783.32C1461.35,-780.96 1465.89,-778.16 1470,-774.84 1507.56,-744.56 1556.78,-604.01 1574.65,-550.03"/>
<polygon fill="#757575" stroke="#757575" points="1578,-551.04 1577.79,-540.45 1571.35,-548.86 1578,-551.04"/>
</g>
<!-- components/Behavior.ts&#45;&gt;components/ActLike.ts -->
<g id="edge30" class="edge">
<title>components/Behavior.ts&#45;&gt;components/ActLike.ts</title>
<path fill="none" stroke="#757575" d="M1456.65,-794.84C1469.39,-794.84 1482.63,-794.84 1495.51,-794.84"/>
<polygon fill="#757575" stroke="#757575" points="1495.75,-798.34 1505.75,-794.84 1495.75,-791.34 1495.75,-798.34"/>
</g>
<!-- client.ts -->
<g id="node22" class="node">
<title>client.ts</title>
<path fill="none" stroke="#c6c5fe" d="M54.33,-597.34C54.33,-597.34 7.67,-597.34 7.67,-597.34 3.83,-597.34 0,-593.51 0,-589.68 0,-589.68 0,-582.01 0,-582.01 0,-578.18 3.83,-574.34 7.67,-574.34 7.67,-574.34 54.33,-574.34 54.33,-574.34 58.17,-574.34 62,-578.18 62,-582.01 62,-582.01 62,-589.68 62,-589.68 62,-593.51 58.17,-597.34 54.33,-597.34"/>
<text text-anchor="middle" x="31" y="-582.14" font-family="Arial" font-size="14.00" fill="#c6c5fe">client.ts</text>
</g>
<!-- client.ts&#45;&gt;util.ts -->
<g id="edge27" class="edge">
<title>client.ts&#45;&gt;util.ts</title>
<path fill="none" stroke="#757575" d="M32.42,-597.62C35.83,-691.77 59.94,-1320.63 98,-1394.84 154.7,-1505.38 186.77,-1575.84 311,-1575.84 311,-1575.84 311,-1575.84 1377,-1575.84 1506.03,-1575.84 1541.33,-1559.78 1659,-1506.84 1674.51,-1499.87 1690.24,-1489.1 1702.33,-1479.85"/>
<polygon fill="#757575" stroke="#757575" points="1704.76,-1482.39 1710.45,-1473.45 1700.43,-1476.89 1704.76,-1482.39"/>
</g>
<!-- client.ts&#45;&gt;Input.ts -->
<g id="edge18" class="edge">
<title>client.ts&#45;&gt;Input.ts</title>
<path fill="none" stroke="#757575" d="M33.61,-597.37C47.15,-692.11 145.62,-1338.84 311,-1338.84 311,-1338.84 311,-1338.84 656,-1338.84 924.32,-1338.84 1035.85,-1377.69 1246,-1210.84 1275.27,-1187.6 1252.83,-1158.21 1282,-1134.84 1296.9,-1122.91 1317.26,-1117.47 1335.13,-1115.09"/>
<polygon fill="#757575" stroke="#757575" points="1335.72,-1118.54 1345.3,-1114.02 1334.99,-1111.58 1335.72,-1118.54"/>
</g>
<!-- client.ts&#45;&gt;Rhythm.ts -->
<g id="edge19" class="edge">
<title>client.ts&#45;&gt;Rhythm.ts</title>
<path fill="none" stroke="#757575" d="M32.65,-574.23C36.85,-501.79 60.97,-113.75 98,-77.84 166.3,-11.63 215.87,-56.84 311,-56.84 311,-56.84 311,-56.84 881,-56.84 1045.29,-56.84 1238.94,-82.92 1327.04,-96.23"/>
<polygon fill="#757575" stroke="#757575" points="1326.59,-99.7 1337,-97.75 1327.64,-92.78 1326.59,-99.7"/>
</g>
<!-- client.ts&#45;&gt;Router.ts -->
<g id="edge20" class="edge">
<title>client.ts&#45;&gt;Router.ts</title>
<path fill="none" stroke="#757575" d="M39.48,-597.38C61.5,-631.34 126.3,-731.3 154.33,-774.54"/>
<polygon fill="#757575" stroke="#757575" points="151.5,-776.6 159.88,-783.09 157.37,-772.79 151.5,-776.6"/>
</g>
<!-- client.ts&#45;&gt;units/convert.ts -->
<g id="edge26" class="edge">
<title>client.ts&#45;&gt;units/convert.ts</title>
<path fill="none" stroke="#757575" d="M32.08,-597.44C32.78,-677.47 39.37,-1148.61 98,-1276.84 154.99,-1401.49 173.94,-1499.84 311,-1499.84 311,-1499.84 311,-1499.84 1135,-1499.84 1286.03,-1499.84 1336.82,-1514.07 1470,-1442.84 1513.8,-1419.42 1550.13,-1372.33 1568.52,-1345.26"/>
<polygon fill="#757575" stroke="#757575" points="1571.66,-1346.86 1574.26,-1336.59 1565.83,-1342.99 1571.66,-1346.86"/>
</g>
<!-- constants.ts -->
<g id="node23" class="node">
<title>constants.ts</title>
<path fill="none" stroke="#c6c5fe" d="M1170.83,-644.34C1170.83,-644.34 1097.17,-644.34 1097.17,-644.34 1093.33,-644.34 1089.5,-640.51 1089.5,-636.68 1089.5,-636.68 1089.5,-629.01 1089.5,-629.01 1089.5,-625.18 1093.33,-621.34 1097.17,-621.34 1097.17,-621.34 1170.83,-621.34 1170.83,-621.34 1174.67,-621.34 1178.5,-625.18 1178.5,-629.01 1178.5,-629.01 1178.5,-636.68 1178.5,-636.68 1178.5,-640.51 1174.67,-644.34 1170.83,-644.34"/>
<text text-anchor="middle" x="1134" y="-629.14" font-family="Arial" font-size="14.00" fill="#c6c5fe">constants.ts</text>
</g>
<!-- client.ts&#45;&gt;constants.ts -->
<g id="edge21" class="edge">
<title>client.ts&#45;&gt;constants.ts</title>
<path fill="none" stroke="#757575" d="M39.3,-574.31C68.01,-530.5 178.16,-376.84 311,-376.84 311,-376.84 311,-376.84 461.5,-376.84 730.22,-376.84 1022.08,-558.05 1107.94,-615.55"/>
<polygon fill="#757575" stroke="#757575" points="1106.03,-618.48 1116.27,-621.18 1109.94,-612.68 1106.03,-618.48"/>
</g>
<!-- entities.ts -->
<g id="node24" class="node">
<title>entities.ts</title>
<path fill="none" stroke="#cfffac" d="M1405.33,-1166.34C1405.33,-1166.34 1346.67,-1166.34 1346.67,-1166.34 1342.83,-1166.34 1339,-1162.51 1339,-1158.68 1339,-1158.68 1339,-1151.01 1339,-1151.01 1339,-1147.18 1342.83,-1143.34 1346.67,-1143.34 1346.67,-1143.34 1405.33,-1143.34 1405.33,-1143.34 1409.17,-1143.34 1413,-1147.18 1413,-1151.01 1413,-1151.01 1413,-1158.68 1413,-1158.68 1413,-1162.51 1409.17,-1166.34 1405.33,-1166.34"/>
<text text-anchor="middle" x="1376" y="-1151.14" font-family="Arial" font-size="14.00" fill="#cfffac">entities.ts</text>
</g>
<!-- client.ts&#45;&gt;entities.ts -->
<g id="edge22" class="edge">
<title>client.ts&#45;&gt;entities.ts</title>
<path fill="none" stroke="#757575" d="M32.61,-597.41C36.36,-666.52 57.56,-1025.32 98,-1126.84 156.92,-1274.74 151.8,-1414.84 311,-1414.84 311,-1414.84 311,-1414.84 656,-1414.84 924.7,-1414.84 1013.11,-1416.88 1246,-1282.84 1295.1,-1254.58 1338.79,-1202.99 1360.5,-1174.7"/>
<polygon fill="#757575" stroke="#757575" points="1363.54,-1176.49 1366.76,-1166.4 1357.94,-1172.28 1363.54,-1176.49"/>
</g>
<!-- functions/AnimationLoading.ts -->
<g id="node25" class="node">
<title>functions/AnimationLoading.ts</title>
<path fill="none" stroke="#c6c5fe" d="M1224.83,-347.34C1224.83,-347.34 1043.17,-347.34 1043.17,-347.34 1039.33,-347.34 1035.5,-343.51 1035.5,-339.68 1035.5,-339.68 1035.5,-332.01 1035.5,-332.01 1035.5,-328.18 1039.33,-324.34 1043.17,-324.34 1043.17,-324.34 1224.83,-324.34 1224.83,-324.34 1228.67,-324.34 1232.5,-328.18 1232.5,-332.01 1232.5,-332.01 1232.5,-339.68 1232.5,-339.68 1232.5,-343.51 1228.67,-347.34 1224.83,-347.34"/>
<text text-anchor="middle" x="1134" y="-332.14" font-family="Arial" font-size="14.00" fill="#c6c5fe">functions/AnimationLoading.ts</text>
</g>
<!-- client.ts&#45;&gt;functions/AnimationLoading.ts -->
<g id="edge23" class="edge">
<title>client.ts&#45;&gt;functions/AnimationLoading.ts</title>
<path fill="none" stroke="#757575" d="M33.99,-574.22C46.04,-508.14 115.28,-182.84 311,-182.84 311,-182.84 311,-182.84 461.5,-182.84 579.15,-182.84 874.79,-216.47 986,-254.84 1003.51,-260.89 1005.85,-266.77 1022,-275.84 1048.91,-290.96 1079.81,-307.61 1102.17,-319.52"/>
<polygon fill="#757575" stroke="#757575" points="1100.72,-322.72 1111.19,-324.32 1104.01,-316.54 1100.72,-322.72"/>
</g>
<!-- functions/Behavior.ts -->
<g id="node26" class="node">
<title>functions/Behavior.ts</title>
<path fill="none" stroke="#cfffac" d="M231.33,-110.34C231.33,-110.34 105.67,-110.34 105.67,-110.34 101.83,-110.34 98,-106.51 98,-102.68 98,-102.68 98,-95.01 98,-95.01 98,-91.18 101.83,-87.34 105.67,-87.34 105.67,-87.34 231.33,-87.34 231.33,-87.34 235.17,-87.34 239,-91.18 239,-95.01 239,-95.01 239,-102.68 239,-102.68 239,-106.51 235.17,-110.34 231.33,-110.34"/>
<text text-anchor="middle" x="168.5" y="-95.14" font-family="Arial" font-size="14.00" fill="#cfffac">functions/Behavior.ts</text>
</g>
<!-- client.ts&#45;&gt;functions/Behavior.ts -->
<g id="edge24" class="edge">
<title>client.ts&#45;&gt;functions/Behavior.ts</title>
<path fill="none" stroke="#757575" d="M32.11,-573.95C32.95,-508.94 39.97,-196.97 98,-124.84 100.85,-121.3 104.23,-118.25 107.95,-115.6"/>
<polygon fill="#757575" stroke="#757575" points="109.75,-118.6 116.53,-110.46 106.15,-112.6 109.75,-118.6"/>
</g>
<!-- functions/ImageLoading.ts -->
<g id="node27" class="node">
<title>functions/ImageLoading.ts</title>
<path fill="none" stroke="#c6c5fe" d="M1213.83,-146.34C1213.83,-146.34 1054.17,-146.34 1054.17,-146.34 1050.33,-146.34 1046.5,-142.51 1046.5,-138.68 1046.5,-138.68 1046.5,-131.01 1046.5,-131.01 1046.5,-127.18 1050.33,-123.34 1054.17,-123.34 1054.17,-123.34 1213.83,-123.34 1213.83,-123.34 1217.67,-123.34 1221.5,-127.18 1221.5,-131.01 1221.5,-131.01 1221.5,-138.68 1221.5,-138.68 1221.5,-142.51 1217.67,-146.34 1213.83,-146.34"/>
<text text-anchor="middle" x="1134" y="-131.14" font-family="Arial" font-size="14.00" fill="#c6c5fe">functions/ImageLoading.ts</text>
</g>
<!-- client.ts&#45;&gt;functions/ImageLoading.ts -->
<g id="edge25" class="edge">
<title>client.ts&#45;&gt;functions/ImageLoading.ts</title>
<path fill="none" stroke="#757575" d="M32.39,-573.97C34.55,-515.43 46.86,-258.14 98,-200.84 163.65,-127.29 212.4,-138.84 311,-138.84 311,-138.84 311,-138.84 656,-138.84 787.77,-138.84 940.02,-137.3 1036.38,-136.13"/>
<polygon fill="#757575" stroke="#757575" points="1036.44,-139.63 1046.4,-136.01 1036.35,-132.63 1036.44,-139.63"/>
</g>
<!-- constants.ts&#45;&gt;Input.ts -->
<g id="edge42" class="edge">
<title>constants.ts&#45;&gt;Input.ts</title>
<path fill="none" stroke="#757575" d="M1175.97,-644.35C1200.39,-653.43 1229.72,-668.68 1246,-692.84 1326.96,-813 1220.61,-885.6 1282,-1016.84 1297.43,-1049.82 1328.61,-1078.64 1350.6,-1096.12"/>
<polygon fill="#757575" stroke="#757575" points="1348.47,-1098.9 1358.53,-1102.24 1352.75,-1093.36 1348.47,-1098.9"/>
</g>
<!-- constants.ts&#45;&gt;components/Behavior.ts -->
<g id="edge44" class="edge">
<title>constants.ts&#45;&gt;components/Behavior.ts</title>
<path fill="none" stroke="#757575" d="M1169.15,-644.43C1193.3,-654.12 1225,-670.05 1246,-692.84 1272.97,-722.12 1251.16,-749.68 1282,-774.84 1283.41,-775.99 1284.87,-777.08 1286.37,-778.11"/>
<polygon fill="#757575" stroke="#757575" points="1285,-781.36 1295.4,-783.38 1288.53,-775.32 1285,-781.36"/>
</g>
<!-- constants.ts&#45;&gt;entities.ts -->
<g id="edge52" class="edge">
<title>constants.ts&#45;&gt;entities.ts</title>
<path fill="none" stroke="#757575" d="M1176.78,-644.39C1201.18,-653.43 1230.2,-668.63 1246,-692.84 1299.86,-775.37 1217.01,-1060.76 1282,-1134.84 1293.54,-1148 1311.47,-1153.69 1328.52,-1155.85"/>
<polygon fill="#757575" stroke="#757575" points="1328.69,-1159.37 1338.96,-1156.76 1329.3,-1152.4 1328.69,-1159.37"/>
</g>
<!-- components/Animation.ts -->
<g id="node28" class="node">
<title>components/Animation.ts</title>
<path fill="none" stroke="#c6c5fe" d="M1453.33,-683.34C1453.33,-683.34 1298.67,-683.34 1298.67,-683.34 1294.83,-683.34 1291,-679.51 1291,-675.68 1291,-675.68 1291,-668.01 1291,-668.01 1291,-664.18 1294.83,-660.34 1298.67,-660.34 1298.67,-660.34 1453.33,-660.34 1453.33,-660.34 1457.17,-660.34 1461,-664.18 1461,-668.01 1461,-668.01 1461,-675.68 1461,-675.68 1461,-679.51 1457.17,-683.34 1453.33,-683.34"/>
<text text-anchor="middle" x="1376" y="-668.14" font-family="Arial" font-size="14.00" fill="#c6c5fe">components/Animation.ts</text>
</g>
<!-- constants.ts&#45;&gt;components/Animation.ts -->
<g id="edge43" class="edge">
<title>constants.ts&#45;&gt;components/Animation.ts</title>
<path fill="none" stroke="#757575" d="M1178.74,-639.95C1210.76,-645.16 1255.15,-652.37 1293.62,-658.62"/>
<polygon fill="#757575" stroke="#757575" points="1293.34,-662.12 1303.77,-660.27 1294.47,-655.21 1293.34,-662.12"/>
</g>
<!-- components/Guid.ts -->
<g id="node29" class="node">
<title>components/Guid.ts</title>
<path fill="none" stroke="#c6c5fe" d="M1437.33,-560.34C1437.33,-560.34 1314.67,-560.34 1314.67,-560.34 1310.83,-560.34 1307,-556.51 1307,-552.68 1307,-552.68 1307,-545.01 1307,-545.01 1307,-541.18 1310.83,-537.34 1314.67,-537.34 1314.67,-537.34 1437.33,-537.34 1437.33,-537.34 1441.17,-537.34 1445,-541.18 1445,-545.01 1445,-545.01 1445,-552.68 1445,-552.68 1445,-556.51 1441.17,-560.34 1437.33,-560.34"/>
<text text-anchor="middle" x="1376" y="-545.14" font-family="Arial" font-size="14.00" fill="#c6c5fe">components/Guid.ts</text>
</g>
<!-- constants.ts&#45;&gt;components/Guid.ts -->
<g id="edge45" class="edge">
<title>constants.ts&#45;&gt;components/Guid.ts</title>
<path fill="none" stroke="#757575" d="M1158.17,-621.34C1186.71,-607.54 1236.97,-584.44 1282,-569.84 1289.72,-567.34 1297.9,-565.02 1306.08,-562.92"/>
<polygon fill="#757575" stroke="#757575" points="1307.15,-566.26 1316.02,-560.45 1305.47,-559.46 1307.15,-566.26"/>
</g>
<!-- components/ImageId.ts -->
<g id="node31" class="node">
<title>components/ImageId.ts</title>
<path fill="none" stroke="#c6c5fe" d="M1447.33,-519.34C1447.33,-519.34 1304.67,-519.34 1304.67,-519.34 1300.83,-519.34 1297,-515.51 1297,-511.68 1297,-511.68 1297,-504.01 1297,-504.01 1297,-500.18 1300.83,-496.34 1304.67,-496.34 1304.67,-496.34 1447.33,-496.34 1447.33,-496.34 1451.17,-496.34 1455,-500.18 1455,-504.01 1455,-504.01 1455,-511.68 1455,-511.68 1455,-515.51 1451.17,-519.34 1447.33,-519.34"/>
<text text-anchor="middle" x="1376" y="-504.14" font-family="Arial" font-size="14.00" fill="#c6c5fe">components/ImageId.ts</text>
</g>
<!-- constants.ts&#45;&gt;components/ImageId.ts -->
<g id="edge46" class="edge">
<title>constants.ts&#45;&gt;components/ImageId.ts</title>
<path fill="none" stroke="#757575" d="M1154.37,-621.17C1176.93,-607.33 1215.07,-583.18 1246,-559.84 1262.86,-547.13 1263.14,-538.34 1282,-528.84 1286.59,-526.53 1291.44,-524.47 1296.42,-522.63"/>
<polygon fill="#757575" stroke="#757575" points="1297.75,-525.88 1306.11,-519.37 1295.51,-519.24 1297.75,-525.88"/>
</g>
<!-- components/LayerId.ts -->
<g id="node32" class="node">
<title>components/LayerId.ts</title>
<path fill="none" stroke="#c6c5fe" d="M1445.33,-724.34C1445.33,-724.34 1306.67,-724.34 1306.67,-724.34 1302.83,-724.34 1299,-720.51 1299,-716.68 1299,-716.68 1299,-709.01 1299,-709.01 1299,-705.18 1302.83,-701.34 1306.67,-701.34 1306.67,-701.34 1445.33,-701.34 1445.33,-701.34 1449.17,-701.34 1453,-705.18 1453,-709.01 1453,-709.01 1453,-716.68 1453,-716.68 1453,-720.51 1449.17,-724.34 1445.33,-724.34"/>
<text text-anchor="middle" x="1376" y="-709.14" font-family="Arial" font-size="14.00" fill="#c6c5fe">components/LayerId.ts</text>
</g>
<!-- constants.ts&#45;&gt;components/LayerId.ts -->
<g id="edge47" class="edge">
<title>constants.ts&#45;&gt;components/LayerId.ts</title>
<path fill="none" stroke="#757575" d="M1178.52,-637.63C1199.81,-641.29 1225.26,-647.69 1246,-658.84 1265.38,-669.27 1262.52,-682.6 1282,-692.84 1285.34,-694.6 1288.82,-696.2 1292.4,-697.66"/>
<polygon fill="#757575" stroke="#757575" points="1291.45,-701.04 1302.04,-701.21 1293.87,-694.48 1291.45,-701.04"/>
</g>
<!-- components/PositionX.ts -->
<g id="node34" class="node">
<title>components/PositionX.ts</title>
<path fill="none" stroke="#c6c5fe" d="M1451.33,-437.34C1451.33,-437.34 1300.67,-437.34 1300.67,-437.34 1296.83,-437.34 1293,-433.51 1293,-429.68 1293,-429.68 1293,-422.01 1293,-422.01 1293,-418.18 1296.83,-414.34 1300.67,-414.34 1300.67,-414.34 1451.33,-414.34 1451.33,-414.34 1455.17,-414.34 1459,-418.18 1459,-422.01 1459,-422.01 1459,-429.68 1459,-429.68 1459,-433.51 1455.17,-437.34 1451.33,-437.34"/>
<text text-anchor="middle" x="1376" y="-422.14" font-family="Arial" font-size="14.00" fill="#c6c5fe">components/PositionX.ts</text>
</g>
<!-- constants.ts&#45;&gt;components/PositionX.ts -->
<g id="edge48" class="edge">
<title>constants.ts&#45;&gt;components/PositionX.ts</title>
<path fill="none" stroke="#757575" d="M1162.64,-621.27C1187.83,-609.37 1224.3,-588.54 1246,-559.84 1278.05,-517.46 1242.7,-481.61 1282,-445.84 1283,-444.94 1284.02,-444.07 1285.08,-443.24"/>
<polygon fill="#757575" stroke="#757575" points="1287.27,-445.98 1293.66,-437.53 1283.4,-440.15 1287.27,-445.98"/>
</g>
<!-- components/PositionY.ts -->
<g id="node35" class="node">
<title>components/PositionY.ts</title>
<path fill="none" stroke="#c6c5fe" d="M1450.33,-478.34C1450.33,-478.34 1301.67,-478.34 1301.67,-478.34 1297.83,-478.34 1294,-474.51 1294,-470.68 1294,-470.68 1294,-463.01 1294,-463.01 1294,-459.18 1297.83,-455.34 1301.67,-455.34 1301.67,-455.34 1450.33,-455.34 1450.33,-455.34 1454.17,-455.34 1458,-459.18 1458,-463.01 1458,-463.01 1458,-470.68 1458,-470.68 1458,-474.51 1454.17,-478.34 1450.33,-478.34"/>
<text text-anchor="middle" x="1376" y="-463.14" font-family="Arial" font-size="14.00" fill="#c6c5fe">components/PositionY.ts</text>
</g>
<!-- constants.ts&#45;&gt;components/PositionY.ts -->
<g id="edge49" class="edge">
<title>constants.ts&#45;&gt;components/PositionY.ts</title>
<path fill="none" stroke="#757575" d="M1160.27,-621.18C1184.78,-608.83 1221.72,-587.33 1246,-559.84 1269.95,-532.73 1253.47,-509.09 1282,-486.84 1283.43,-485.73 1284.91,-484.67 1286.44,-483.67"/>
<polygon fill="#757575" stroke="#757575" points="1288.58,-486.48 1295.57,-478.52 1285.14,-480.38 1288.58,-486.48"/>
</g>
<!-- components/ShouldSave.ts -->
<g id="node36" class="node">
<title>components/ShouldSave.ts</title>
<path fill="none" stroke="#c6c5fe" d="M1459.33,-642.34C1459.33,-642.34 1292.67,-642.34 1292.67,-642.34 1288.83,-642.34 1285,-638.51 1285,-634.68 1285,-634.68 1285,-627.01 1285,-627.01 1285,-623.18 1288.83,-619.34 1292.67,-619.34 1292.67,-619.34 1459.33,-619.34 1459.33,-619.34 1463.17,-619.34 1467,-623.18 1467,-627.01 1467,-627.01 1467,-634.68 1467,-634.68 1467,-638.51 1463.17,-642.34 1459.33,-642.34"/>
<text text-anchor="middle" x="1376" y="-627.14" font-family="Arial" font-size="14.00" fill="#c6c5fe">components/ShouldSave.ts</text>
</g>
<!-- constants.ts&#45;&gt;components/ShouldSave.ts -->
<g id="edge50" class="edge">
<title>constants.ts&#45;&gt;components/ShouldSave.ts</title>
<path fill="none" stroke="#757575" d="M1178.74,-632.48C1205.57,-632.26 1241.09,-631.96 1274.54,-631.68"/>
<polygon fill="#757575" stroke="#757575" points="1274.86,-635.18 1284.83,-631.6 1274.81,-628.18 1274.86,-635.18"/>
</g>
<!-- components/WorldId.ts -->
<g id="node38" class="node">
<title>components/WorldId.ts</title>
<path fill="none" stroke="#c6c5fe" d="M1445.83,-601.34C1445.83,-601.34 1306.17,-601.34 1306.17,-601.34 1302.33,-601.34 1298.5,-597.51 1298.5,-593.68 1298.5,-593.68 1298.5,-586.01 1298.5,-586.01 1298.5,-582.18 1302.33,-578.34 1306.17,-578.34 1306.17,-578.34 1445.83,-578.34 1445.83,-578.34 1449.67,-578.34 1453.5,-582.18 1453.5,-586.01 1453.5,-586.01 1453.5,-593.68 1453.5,-593.68 1453.5,-597.51 1449.67,-601.34 1445.83,-601.34"/>
<text text-anchor="middle" x="1376" y="-586.14" font-family="Arial" font-size="14.00" fill="#c6c5fe">components/WorldId.ts</text>
</g>
<!-- constants.ts&#45;&gt;components/WorldId.ts -->
<g id="edge51" class="edge">
<title>constants.ts&#45;&gt;components/WorldId.ts</title>
<path fill="none" stroke="#757575" d="M1178.74,-625.01C1212.77,-618.91 1260.76,-610.31 1300.77,-603.14"/>
<polygon fill="#757575" stroke="#757575" points="1301.53,-606.56 1310.76,-601.35 1300.3,-599.67 1301.53,-606.56"/>
</g>
<!-- functions/AnimationLoading.ts&#45;&gt;components/Animation.ts -->
<g id="edge53" class="edge">
<title>functions/AnimationLoading.ts&#45;&gt;components/Animation.ts</title>
<path fill="none" stroke="#757575" d="M1232.85,-345.39C1237.66,-348.27 1242.1,-351.72 1246,-355.84 1336.99,-452.2 1192.64,-553.98 1282,-651.84 1282.54,-652.44 1283.1,-653.02 1283.67,-653.58"/>
<polygon fill="#757575" stroke="#757575" points="1281.72,-656.51 1291.69,-660.1 1286.14,-651.08 1281.72,-656.51"/>
</g>
<!-- components/LoadingState.ts -->
<g id="node33" class="node">
<title>components/LoadingState.ts</title>
<path fill="none" stroke="#c6c5fe" d="M1462.33,-316.34C1462.33,-316.34 1289.67,-316.34 1289.67,-316.34 1285.83,-316.34 1282,-312.51 1282,-308.68 1282,-308.68 1282,-301.01 1282,-301.01 1282,-297.18 1285.83,-293.34 1289.67,-293.34 1289.67,-293.34 1462.33,-293.34 1462.33,-293.34 1466.17,-293.34 1470,-297.18 1470,-301.01 1470,-301.01 1470,-308.68 1470,-308.68 1470,-312.51 1466.17,-316.34 1462.33,-316.34"/>
<text text-anchor="middle" x="1376" y="-301.14" font-family="Arial" font-size="14.00" fill="#c6c5fe">components/LoadingState.ts</text>
</g>
<!-- functions/AnimationLoading.ts&#45;&gt;components/LoadingState.ts -->
<g id="edge54" class="edge">
<title>functions/AnimationLoading.ts&#45;&gt;components/LoadingState.ts</title>
<path fill="none" stroke="#757575" d="M1224.37,-324.3C1241.19,-322.13 1258.87,-319.84 1275.97,-317.64"/>
<polygon fill="#757575" stroke="#757575" points="1276.49,-321.1 1285.96,-316.35 1275.59,-314.16 1276.49,-321.1"/>
</g>
<!-- components/Image.ts -->
<g id="node30" class="node">
<title>components/Image.ts</title>
<path fill="none" stroke="#c6c5fe" d="M1441.83,-156.34C1441.83,-156.34 1310.17,-156.34 1310.17,-156.34 1306.33,-156.34 1302.5,-152.51 1302.5,-148.68 1302.5,-148.68 1302.5,-141.01 1302.5,-141.01 1302.5,-137.18 1306.33,-133.34 1310.17,-133.34 1310.17,-133.34 1441.83,-133.34 1441.83,-133.34 1445.67,-133.34 1449.5,-137.18 1449.5,-141.01 1449.5,-141.01 1449.5,-148.68 1449.5,-148.68 1449.5,-152.51 1445.67,-156.34 1441.83,-156.34"/>
<text text-anchor="middle" x="1376" y="-141.14" font-family="Arial" font-size="14.00" fill="#c6c5fe">components/Image.ts</text>
</g>
<!-- functions/ImageLoading.ts&#45;&gt;components/Image.ts -->
<g id="edge57" class="edge">
<title>functions/ImageLoading.ts&#45;&gt;components/Image.ts</title>
<path fill="none" stroke="#757575" d="M1221.65,-138.45C1244.58,-139.41 1269.29,-140.44 1292.03,-141.39"/>
<polygon fill="#757575" stroke="#757575" points="1292.18,-144.9 1302.32,-141.82 1292.47,-137.9 1292.18,-144.9"/>
</g>
<!-- functions/ImageLoading.ts&#45;&gt;components/LoadingState.ts -->
<g id="edge58" class="edge">
<title>functions/ImageLoading.ts&#45;&gt;components/LoadingState.ts</title>
<path fill="none" stroke="#757575" d="M1165.63,-146.49C1189.35,-156.55 1222.09,-172.78 1246,-193.84 1266.82,-212.19 1261.98,-225.64 1282,-244.84 1300.11,-262.22 1323.96,-277.48 1342.96,-288.27"/>
<polygon fill="#757575" stroke="#757575" points="1341.42,-291.41 1351.86,-293.19 1344.81,-285.29 1341.42,-291.41"/>
</g>
<!-- components/Animation.ts&#45;&gt;Component.ts -->
<g id="edge28" class="edge">
<title>components/Animation.ts&#45;&gt;Component.ts</title>
<path fill="none" stroke="#757575" d="M1451.68,-660.2C1458.07,-657.9 1464.28,-655.14 1470,-651.84 1514.42,-626.23 1550.94,-576.82 1569.1,-549.05"/>
<polygon fill="#757575" stroke="#757575" points="1572.11,-550.85 1574.54,-540.53 1566.21,-547.08 1572.11,-550.85"/>
</g>
<!-- components/Guid.ts&#45;&gt;Component.ts -->
<g id="edge31" class="edge">
<title>components/Guid.ts&#45;&gt;Component.ts</title>
<path fill="none" stroke="#757575" d="M1445.1,-542.18C1469.9,-539.76 1497.74,-537.04 1521.76,-534.69"/>
<polygon fill="#757575" stroke="#757575" points="1522.2,-538.16 1531.81,-533.7 1521.52,-531.19 1522.2,-538.16"/>
</g>
<!-- components/Image.ts&#45;&gt;Component.ts -->
<g id="edge32" class="edge">
<title>components/Image.ts&#45;&gt;Component.ts</title>
<path fill="none" stroke="#757575" d="M1405.03,-156.43C1425.65,-166.26 1452.95,-182.23 1470,-203.84 1545.87,-300.01 1571.77,-451.02 1579.04,-507.01"/>
<polygon fill="#757575" stroke="#757575" points="1575.6,-507.68 1580.29,-517.18 1582.55,-506.82 1575.6,-507.68"/>
</g>
<!-- components/Image.ts&#45;&gt;Error.ts -->
<g id="edge33" class="edge">
<title>components/Image.ts&#45;&gt;Error.ts</title>
<path fill="none" stroke="#757575" d="M1449.57,-141.94C1522.88,-140.63 1629.41,-143.74 1659,-170.84 1708.86,-216.52 1720.79,-436.16 1723.35,-506.87"/>
<polygon fill="#757575" stroke="#757575" points="1719.87,-507.36 1723.7,-517.23 1726.86,-507.12 1719.87,-507.36"/>
</g>
<!-- components/Image.ts&#45;&gt;globals.ts -->
<g id="edge34" class="edge">
<title>components/Image.ts&#45;&gt;globals.ts</title>
<path fill="none" stroke="#757575" d="M1437.53,-133.3C1468.92,-127.31 1506.65,-120.12 1535.61,-114.6"/>
<polygon fill="#757575" stroke="#757575" points="1536.3,-118.03 1545.46,-112.72 1534.99,-111.15 1536.3,-118.03"/>
</g>
<!-- components/ImageId.ts&#45;&gt;Component.ts -->
<g id="edge35" class="edge">
<title>components/ImageId.ts&#45;&gt;Component.ts</title>
<path fill="none" stroke="#757575" d="M1455.19,-515.87C1477.28,-518.14 1500.96,-520.57 1521.78,-522.71"/>
<polygon fill="#757575" stroke="#757575" points="1521.45,-526.2 1531.75,-523.74 1522.16,-519.23 1521.45,-526.2"/>
</g>
<!-- components/LayerId.ts&#45;&gt;Component.ts -->
<g id="edge36" class="edge">
<title>components/LayerId.ts&#45;&gt;Component.ts</title>
<path fill="none" stroke="#757575" d="M1453.14,-701.66C1459.09,-699.26 1464.79,-696.35 1470,-692.84 1523.54,-656.78 1558.46,-585.57 1573.32,-550.04"/>
<polygon fill="#757575" stroke="#757575" points="1576.62,-551.22 1577.13,-540.63 1570.13,-548.59 1576.62,-551.22"/>
</g>
<!-- components/LoadingState.ts&#45;&gt;Component.ts -->
<g id="edge37" class="edge">
<title>components/LoadingState.ts&#45;&gt;Component.ts</title>
<path fill="none" stroke="#757575" d="M1443.63,-316.49C1453.08,-320.07 1462.22,-324.74 1470,-330.84 1529.83,-377.79 1562.78,-466.31 1575.4,-507.17"/>
<polygon fill="#757575" stroke="#757575" points="1572.1,-508.33 1578.31,-516.92 1578.81,-506.33 1572.1,-508.33"/>
</g>
<!-- components/PositionX.ts&#45;&gt;Component.ts -->
<g id="edge38" class="edge">
<title>components/PositionX.ts&#45;&gt;Component.ts</title>
<path fill="none" stroke="#757575" d="M1446.63,-437.37C1454.67,-439.71 1462.63,-442.5 1470,-445.84 1505.7,-462.04 1540.99,-491.1 1562.01,-510.18"/>
<polygon fill="#757575" stroke="#757575" points="1559.88,-512.97 1569.6,-517.19 1564.63,-507.83 1559.88,-512.97"/>
</g>
<!-- components/PositionY.ts&#45;&gt;Component.ts -->
<g id="edge39" class="edge">
<title>components/PositionY.ts&#45;&gt;Component.ts</title>
<path fill="none" stroke="#757575" d="M1436.87,-478.35C1447.96,-480.86 1459.38,-483.72 1470,-486.84 1495.47,-494.33 1523.43,-504.87 1544.97,-513.52"/>
<polygon fill="#757575" stroke="#757575" points="1543.81,-516.82 1554.39,-517.34 1546.44,-510.33 1543.81,-516.82"/>
</g>
<!-- components/ShouldSave.ts&#45;&gt;Component.ts -->
<g id="edge40" class="edge">
<title>components/ShouldSave.ts&#45;&gt;Component.ts</title>
<path fill="none" stroke="#757575" d="M1446.61,-619.28C1454.66,-616.95 1462.62,-614.17 1470,-610.84 1505.59,-594.82 1540.91,-566.12 1561.97,-547.28"/>
<polygon fill="#757575" stroke="#757575" points="1564.54,-549.67 1569.57,-540.35 1559.82,-544.5 1564.54,-549.67"/>
</g>
<!-- components/Sprite.ts -->
<g id="node37" class="node">
<title>components/Sprite.ts</title>
<path fill="none" stroke="#cfffac" d="M1440.33,-1007.34C1440.33,-1007.34 1311.67,-1007.34 1311.67,-1007.34 1307.83,-1007.34 1304,-1003.51 1304,-999.68 1304,-999.68 1304,-992.01 1304,-992.01 1304,-988.18 1307.83,-984.34 1311.67,-984.34 1311.67,-984.34 1440.33,-984.34 1440.33,-984.34 1444.17,-984.34 1448,-988.18 1448,-992.01 1448,-992.01 1448,-999.68 1448,-999.68 1448,-1003.51 1444.17,-1007.34 1440.33,-1007.34"/>
<text text-anchor="middle" x="1376" y="-992.14" font-family="Arial" font-size="14.00" fill="#cfffac">components/Sprite.ts</text>
</g>
<!-- components/WorldId.ts&#45;&gt;Component.ts -->
<g id="edge41" class="edge">
<title>components/WorldId.ts&#45;&gt;Component.ts</title>
<path fill="none" stroke="#757575" d="M1436.85,-578.27C1447.94,-575.76 1459.37,-572.92 1470,-569.84 1495.08,-562.57 1522.63,-552.47 1544.06,-544.11"/>
<polygon fill="#757575" stroke="#757575" points="1545.43,-547.33 1553.45,-540.41 1542.87,-540.82 1545.43,-547.33"/>
</g>
<!-- functions/Array.ts -->
<g id="node39" class="node">
<title>functions/Array.ts</title>
<path fill="none" stroke="#cfffac" d="M1186.33,-226.34C1186.33,-226.34 1081.67,-226.34 1081.67,-226.34 1077.83,-226.34 1074,-222.51 1074,-218.68 1074,-218.68 1074,-211.01 1074,-211.01 1074,-207.18 1077.83,-203.34 1081.67,-203.34 1081.67,-203.34 1186.33,-203.34 1186.33,-203.34 1190.17,-203.34 1194,-207.18 1194,-211.01 1194,-211.01 1194,-218.68 1194,-218.68 1194,-222.51 1190.17,-226.34 1186.33,-226.34"/>
<text text-anchor="middle" x="1134" y="-211.14" font-family="Arial" font-size="14.00" fill="#cfffac">functions/Array.ts</text>
</g>
<!-- functions/Client.ts -->
<g id="node40" class="node">
<title>functions/Client.ts</title>
<path fill="none" stroke="#c6c5fe" d="M1187.83,-468.34C1187.83,-468.34 1080.17,-468.34 1080.17,-468.34 1076.33,-468.34 1072.5,-464.51 1072.5,-460.68 1072.5,-460.68 1072.5,-453.01 1072.5,-453.01 1072.5,-449.18 1076.33,-445.34 1080.17,-445.34 1080.17,-445.34 1187.83,-445.34 1187.83,-445.34 1191.67,-445.34 1195.5,-449.18 1195.5,-453.01 1195.5,-453.01 1195.5,-460.68 1195.5,-460.68 1195.5,-464.51 1191.67,-468.34 1187.83,-468.34"/>
<text text-anchor="middle" x="1134" y="-453.14" font-family="Arial" font-size="14.00" fill="#c6c5fe">functions/Client.ts</text>
</g>
<!-- functions/Client.ts&#45;&gt;Component.ts -->
<g id="edge55" class="edge">
<title>functions/Client.ts&#45;&gt;Component.ts</title>
<path fill="none" stroke="#757575" d="M1195.5,-452.14C1213.15,-448.39 1231.55,-441.92 1246,-430.84 1272.83,-410.28 1252.99,-381.19 1282,-363.84 1353.71,-320.97 1396.21,-324.65 1470,-363.84 1527.8,-394.55 1561.09,-470.07 1574.51,-507.34"/>
<polygon fill="#757575" stroke="#757575" points="1571.34,-508.87 1577.91,-517.17 1577.95,-506.58 1571.34,-508.87"/>
</g>
<!-- functions/Server.ts -->
<g id="node41" class="node">
<title>functions/Server.ts</title>
<path fill="none" stroke="#c6c5fe" d="M1432.33,-396.34C1432.33,-396.34 1319.67,-396.34 1319.67,-396.34 1315.83,-396.34 1312,-392.51 1312,-388.68 1312,-388.68 1312,-381.01 1312,-381.01 1312,-377.18 1315.83,-373.34 1319.67,-373.34 1319.67,-373.34 1432.33,-373.34 1432.33,-373.34 1436.17,-373.34 1440,-377.18 1440,-381.01 1440,-381.01 1440,-388.68 1440,-388.68 1440,-392.51 1436.17,-396.34 1432.33,-396.34"/>
<text text-anchor="middle" x="1376" y="-381.14" font-family="Arial" font-size="14.00" fill="#c6c5fe">functions/Server.ts</text>
</g>
<!-- functions/Client.ts&#45;&gt;functions/Server.ts -->
<g id="edge56" class="edge">
<title>functions/Client.ts&#45;&gt;functions/Server.ts</title>
<path fill="none" stroke="#757575" d="M1195.77,-447.15C1212.49,-443.28 1230.33,-437.99 1246,-430.84 1263.96,-422.66 1263.97,-412.87 1282,-404.84 1288.29,-402.05 1294.99,-399.63 1301.8,-397.55"/>
<polygon fill="#757575" stroke="#757575" points="1303.16,-400.8 1311.84,-394.72 1301.27,-394.06 1303.16,-400.8"/>
</g>
<!-- functions/Server.ts&#45;&gt;Component.ts -->
<g id="edge59" class="edge">
<title>functions/Server.ts&#45;&gt;Component.ts</title>
<path fill="none" stroke="#757575" d="M1440.04,-392.78C1450.47,-395.65 1460.85,-399.55 1470,-404.84 1514.56,-430.66 1551.03,-480.47 1569.14,-508.47"/>
<polygon fill="#757575" stroke="#757575" points="1566.26,-510.47 1574.56,-517.06 1572.18,-506.73 1566.26,-510.47"/>
</g>
<!-- functions/PixiHelpers.ts -->
<g id="node42" class="node">
<title>functions/PixiHelpers.ts</title>
<path fill="none" stroke="#cfffac" d="M1446.83,-966.34C1446.83,-966.34 1305.17,-966.34 1305.17,-966.34 1301.33,-966.34 1297.5,-962.51 1297.5,-958.68 1297.5,-958.68 1297.5,-951.01 1297.5,-951.01 1297.5,-947.18 1301.33,-943.34 1305.17,-943.34 1305.17,-943.34 1446.83,-943.34 1446.83,-943.34 1450.67,-943.34 1454.5,-947.18 1454.5,-951.01 1454.5,-951.01 1454.5,-958.68 1454.5,-958.68 1454.5,-962.51 1450.67,-966.34 1446.83,-966.34"/>
<text text-anchor="middle" x="1376" y="-951.14" font-family="Arial" font-size="14.00" fill="#cfffac">functions/PixiHelpers.ts</text>
</g>
<!-- functions/initializeTileMatrix.ts -->
<g id="node43" class="node">
<title>functions/initializeTileMatrix.ts</title>
<path fill="none" stroke="#c6c5fe" d="M1224.33,-724.34C1224.33,-724.34 1043.67,-724.34 1043.67,-724.34 1039.83,-724.34 1036,-720.51 1036,-716.68 1036,-716.68 1036,-709.01 1036,-709.01 1036,-705.18 1039.83,-701.34 1043.67,-701.34 1043.67,-701.34 1224.33,-701.34 1224.33,-701.34 1228.17,-701.34 1232,-705.18 1232,-709.01 1232,-709.01 1232,-716.68 1232,-716.68 1232,-720.51 1228.17,-724.34 1224.33,-724.34"/>
<text text-anchor="middle" x="1134" y="-709.14" font-family="Arial" font-size="14.00" fill="#c6c5fe">functions/initializeTileMatrix.ts</text>
</g>
<!-- functions/initializeTileMatrix.ts&#45;&gt;Query.ts -->
<g id="edge60" class="edge">
<title>functions/initializeTileMatrix.ts&#45;&gt;Query.ts</title>
<path fill="none" stroke="#757575" d="M1202.49,-724.37C1243.88,-731.44 1295.65,-740.29 1331.63,-746.43"/>
<polygon fill="#757575" stroke="#757575" points="1331.35,-749.94 1341.79,-748.17 1332.53,-743.04 1331.35,-749.94"/>
</g>
<!-- functions/initializeTileMatrix.ts&#45;&gt;Tile.ts -->
<g id="edge61" class="edge">
<title>functions/initializeTileMatrix.ts&#45;&gt;Tile.ts</title>
<path fill="none" stroke="#757575" d="M1230.75,-724.35C1236.18,-726.98 1241.32,-730.12 1246,-733.84 1277.15,-758.62 1256.07,-785.65 1282,-815.84 1297.74,-834.17 1320.59,-848.78 1339.7,-858.87"/>
<polygon fill="#757575" stroke="#757575" points="1338.24,-862.05 1348.74,-863.46 1341.41,-855.81 1338.24,-862.05"/>
</g>
<!-- functions/initializeTileMatrix.ts&#45;&gt;components/LayerId.ts -->
<g id="edge62" class="edge">
<title>functions/initializeTileMatrix.ts&#45;&gt;components/LayerId.ts</title>
<path fill="none" stroke="#757575" d="M1232.27,-712.84C1251.02,-712.84 1270.53,-712.84 1288.9,-712.84"/>
<polygon fill="#757575" stroke="#757575" points="1288.97,-716.34 1298.97,-712.84 1288.97,-709.34 1288.97,-716.34"/>
</g>
<!-- guis/Button.ts -->
<g id="node44" class="node">
<title>guis/Button.ts</title>
<path fill="none" stroke="#cfffac" d="M1175.33,-1045.34C1175.33,-1045.34 1092.67,-1045.34 1092.67,-1045.34 1088.83,-1045.34 1085,-1041.51 1085,-1037.68 1085,-1037.68 1085,-1030.01 1085,-1030.01 1085,-1026.18 1088.83,-1022.34 1092.67,-1022.34 1092.67,-1022.34 1175.33,-1022.34 1175.33,-1022.34 1179.17,-1022.34 1183,-1026.18 1183,-1030.01 1183,-1030.01 1183,-1037.68 1183,-1037.68 1183,-1041.51 1179.17,-1045.34 1175.33,-1045.34"/>
<text text-anchor="middle" x="1134" y="-1030.14" font-family="Arial" font-size="14.00" fill="#cfffac">guis/Button.ts</text>
</g>
<!-- guis/Menu.ts -->
<g id="node45" class="node">
<title>guis/Menu.ts</title>
<path fill="none" stroke="#c6c5fe" d="M1173.33,-1433.34C1173.33,-1433.34 1094.67,-1433.34 1094.67,-1433.34 1090.83,-1433.34 1087,-1429.51 1087,-1425.68 1087,-1425.68 1087,-1418.01 1087,-1418.01 1087,-1414.18 1090.83,-1410.34 1094.67,-1410.34 1094.67,-1410.34 1173.33,-1410.34 1173.33,-1410.34 1177.17,-1410.34 1181,-1414.18 1181,-1418.01 1181,-1418.01 1181,-1425.68 1181,-1425.68 1181,-1429.51 1177.17,-1433.34 1173.33,-1433.34"/>
<text text-anchor="middle" x="1134" y="-1418.14" font-family="Arial" font-size="14.00" fill="#c6c5fe">guis/Menu.ts</text>
</g>
<!-- guis/Menu.ts&#45;&gt;Counter.ts -->
<g id="edge63" class="edge">
<title>guis/Menu.ts&#45;&gt;Counter.ts</title>
<path fill="none" stroke="#757575" d="M1181.27,-1421.84C1223.05,-1421.84 1284.3,-1421.84 1326.69,-1421.84"/>
<polygon fill="#757575" stroke="#757575" points="1326.77,-1425.34 1336.77,-1421.84 1326.77,-1418.34 1326.77,-1425.34"/>
</g>
<!-- guis/Menu.ts&#45;&gt;units/convert.ts -->
<g id="edge64" class="edge">
<title>guis/Menu.ts&#45;&gt;units/convert.ts</title>
<path fill="none" stroke="#757575" d="M1181.1,-1414.52C1245.97,-1403.88 1367.72,-1382.68 1470,-1357.84 1492,-1352.5 1516.12,-1345.51 1536.29,-1339.33"/>
<polygon fill="#757575" stroke="#757575" points="1537.32,-1342.68 1545.84,-1336.38 1535.25,-1335.99 1537.32,-1342.68"/>
</g>
<!-- scenes/EditorScene.ts&#45;&gt;Scene.ts -->
<g id="edge70" class="edge">
<title>scenes/EditorScene.ts&#45;&gt;Scene.ts</title>
<path fill="none" stroke="#757575" d="M462.31,-783.34C466.04,-738.95 485.29,-576.96 572,-487.84 712.72,-343.23 983.57,-358.27 1089.26,-370.62"/>
<polygon fill="#757575" stroke="#757575" points="1088.9,-374.1 1099.25,-371.83 1089.75,-367.15 1088.9,-374.1"/>
</g>
<!-- services/DebugService.ts -->
<g id="node49" class="node">
<title>services/DebugService.ts</title>
<path fill="none" stroke="#c6c5fe" d="M1210.83,-509.34C1210.83,-509.34 1057.17,-509.34 1057.17,-509.34 1053.33,-509.34 1049.5,-505.51 1049.5,-501.68 1049.5,-501.68 1049.5,-494.01 1049.5,-494.01 1049.5,-490.18 1053.33,-486.34 1057.17,-486.34 1057.17,-486.34 1210.83,-486.34 1210.83,-486.34 1214.67,-486.34 1218.5,-490.18 1218.5,-494.01 1218.5,-494.01 1218.5,-501.68 1218.5,-501.68 1218.5,-505.51 1214.67,-509.34 1210.83,-509.34"/>
<text text-anchor="middle" x="1134" y="-494.14" font-family="Arial" font-size="14.00" fill="#c6c5fe">services/DebugService.ts</text>
</g>
<!-- scenes/EditorScene.ts&#45;&gt;services/DebugService.ts -->
<g id="edge71" class="edge">
<title>scenes/EditorScene.ts&#45;&gt;services/DebugService.ts</title>
<path fill="none" stroke="#757575" d="M463.19,-783.3C469.47,-744.78 495.22,-619.89 572,-561.84 716.98,-452.24 946.21,-467.82 1061.62,-484.75"/>
<polygon fill="#757575" stroke="#757575" points="1061.34,-488.25 1071.75,-486.29 1062.39,-481.33 1061.34,-488.25"/>
</g>
<!-- services/LoadingService.ts -->
<g id="node50" class="node">
<title>services/LoadingService.ts</title>
<path fill="none" stroke="#c6c5fe" d="M1214.83,-550.34C1214.83,-550.34 1053.17,-550.34 1053.17,-550.34 1049.33,-550.34 1045.5,-546.51 1045.5,-542.68 1045.5,-542.68 1045.5,-535.01 1045.5,-535.01 1045.5,-531.18 1049.33,-527.34 1053.17,-527.34 1053.17,-527.34 1214.83,-527.34 1214.83,-527.34 1218.67,-527.34 1222.5,-531.18 1222.5,-535.01 1222.5,-535.01 1222.5,-542.68 1222.5,-542.68 1222.5,-546.51 1218.67,-550.34 1214.83,-550.34"/>
<text text-anchor="middle" x="1134" y="-535.14" font-family="Arial" font-size="14.00" fill="#c6c5fe">services/LoadingService.ts</text>
</g>
<!-- scenes/EditorScene.ts&#45;&gt;services/LoadingService.ts -->
<g id="edge72" class="edge">
<title>scenes/EditorScene.ts&#45;&gt;services/LoadingService.ts</title>
<path fill="none" stroke="#757575" d="M466.86,-782.96C480.35,-754.39 518.45,-681.3 572,-641.84 708.82,-541.03 914.33,-529.1 1034.93,-532.18"/>
<polygon fill="#757575" stroke="#757575" points="1035.16,-535.69 1045.26,-532.49 1035.36,-528.69 1035.16,-535.69"/>
</g>
<!-- services/LogService.ts -->
<g id="node51" class="node">
<title>services/LogService.ts</title>
<path fill="none" stroke="#c6c5fe" d="M948.33,-310.34C948.33,-310.34 811.67,-310.34 811.67,-310.34 807.83,-310.34 804,-306.51 804,-302.68 804,-302.68 804,-295.01 804,-295.01 804,-291.18 807.83,-287.34 811.67,-287.34 811.67,-287.34 948.33,-287.34 948.33,-287.34 952.17,-287.34 956,-291.18 956,-295.01 956,-295.01 956,-302.68 956,-302.68 956,-306.51 952.17,-310.34 948.33,-310.34"/>
<text text-anchor="middle" x="880" y="-295.14" font-family="Arial" font-size="14.00" fill="#c6c5fe">services/LogService.ts</text>
</g>
<!-- scenes/EditorScene.ts&#45;&gt;services/LogService.ts -->
<g id="edge73" class="edge">
<title>scenes/EditorScene.ts&#45;&gt;services/LogService.ts</title>
<path fill="none" stroke="#757575" d="M462.43,-783.23C467.98,-717.02 499.03,-387.84 572,-324.84 640.65,-265.58 753.02,-273.41 821.1,-285.46"/>
<polygon fill="#757575" stroke="#757575" points="820.75,-288.95 831.22,-287.34 822.03,-282.07 820.75,-288.95"/>
</g>
<!-- systems/CameraSystem.ts -->
<g id="node52" class="node">
<title>systems/CameraSystem.ts</title>
<path fill="none" stroke="#c6c5fe" d="M961.83,-1234.34C961.83,-1234.34 798.17,-1234.34 798.17,-1234.34 794.33,-1234.34 790.5,-1230.51 790.5,-1226.68 790.5,-1226.68 790.5,-1219.01 790.5,-1219.01 790.5,-1215.18 794.33,-1211.34 798.17,-1211.34 798.17,-1211.34 961.83,-1211.34 961.83,-1211.34 965.67,-1211.34 969.5,-1215.18 969.5,-1219.01 969.5,-1219.01 969.5,-1226.68 969.5,-1226.68 969.5,-1230.51 965.67,-1234.34 961.83,-1234.34"/>
<text text-anchor="middle" x="880" y="-1219.14" font-family="Arial" font-size="14.00" fill="#c6c5fe">systems/CameraSystem.ts</text>
</g>
<!-- scenes/EditorScene.ts&#45;&gt;systems/CameraSystem.ts -->
<g id="edge74" class="edge">
<title>scenes/EditorScene.ts&#45;&gt;systems/CameraSystem.ts</title>
<path fill="none" stroke="#757575" d="M465.61,-806.74C477,-839.73 509.82,-935.16 536,-1014.84 552.45,-1064.92 534.57,-1090.73 572,-1127.84 627.2,-1182.59 713.27,-1205.88 780.24,-1215.75"/>
<polygon fill="#757575" stroke="#757575" points="780.01,-1219.25 790.4,-1217.16 780.98,-1212.31 780.01,-1219.25"/>
</g>
<!-- systems/EditorSystem.ts -->
<g id="node53" class="node">
<title>systems/EditorSystem.ts</title>
<path fill="none" stroke="#c6c5fe" d="M730.33,-1118.34C730.33,-1118.34 579.67,-1118.34 579.67,-1118.34 575.83,-1118.34 572,-1114.51 572,-1110.68 572,-1110.68 572,-1103.01 572,-1103.01 572,-1099.18 575.83,-1095.34 579.67,-1095.34 579.67,-1095.34 730.33,-1095.34 730.33,-1095.34 734.17,-1095.34 738,-1099.18 738,-1103.01 738,-1103.01 738,-1110.68 738,-1110.68 738,-1114.51 734.17,-1118.34 730.33,-1118.34"/>
<text text-anchor="middle" x="655" y="-1103.14" font-family="Arial" font-size="14.00" fill="#c6c5fe">systems/EditorSystem.ts</text>
</g>
<!-- scenes/EditorScene.ts&#45;&gt;systems/EditorSystem.ts -->
<g id="edge75" class="edge">
<title>scenes/EditorScene.ts&#45;&gt;systems/EditorSystem.ts</title>
<path fill="none" stroke="#757575" d="M468.81,-806.69C497.76,-853.61 604.57,-1026.73 641.41,-1086.44"/>
<polygon fill="#757575" stroke="#757575" points="638.66,-1088.64 646.89,-1095.31 644.61,-1084.97 638.66,-1088.64"/>
</g>
<!-- systems/EntityOperationSystem.ts -->
<g id="node54" class="node">
<title>systems/EntityOperationSystem.ts</title>
<path fill="none" stroke="#c6c5fe" d="M1238.33,-806.34C1238.33,-806.34 1029.67,-806.34 1029.67,-806.34 1025.83,-806.34 1022,-802.51 1022,-798.68 1022,-798.68 1022,-791.01 1022,-791.01 1022,-787.18 1025.83,-783.34 1029.67,-783.34 1029.67,-783.34 1238.33,-783.34 1238.33,-783.34 1242.17,-783.34 1246,-787.18 1246,-791.01 1246,-791.01 1246,-798.68 1246,-798.68 1246,-802.51 1242.17,-806.34 1238.33,-806.34"/>
<text text-anchor="middle" x="1134" y="-791.14" font-family="Arial" font-size="14.00" fill="#c6c5fe">systems/EntityOperationSystem.ts</text>
</g>
<!-- scenes/EditorScene.ts&#45;&gt;systems/EntityOperationSystem.ts -->
<g id="edge76" class="edge">
<title>scenes/EditorScene.ts&#45;&gt;systems/EntityOperationSystem.ts</title>
<path fill="none" stroke="#757575" d="M536.25,-794.84C651.4,-794.84 873.3,-794.84 1011.67,-794.84"/>
<polygon fill="#757575" stroke="#757575" points="1011.9,-798.34 1021.9,-794.84 1011.9,-791.34 1011.9,-798.34"/>
</g>
<!-- systems/GlobalHotkeySystem.ts -->
<g id="node55" class="node">
<title>systems/GlobalHotkeySystem.ts</title>
<path fill="none" stroke="#ff6c60" d="M978.33,-846.34C978.33,-846.34 781.67,-846.34 781.67,-846.34 777.83,-846.34 774,-842.51 774,-838.68 774,-838.68 774,-831.01 774,-831.01 774,-827.18 777.83,-823.34 781.67,-823.34 781.67,-823.34 978.33,-823.34 978.33,-823.34 982.17,-823.34 986,-827.18 986,-831.01 986,-831.01 986,-838.68 986,-838.68 986,-842.51 982.17,-846.34 978.33,-846.34"/>
<text text-anchor="middle" x="880" y="-831.14" font-family="Arial" font-size="14.00" fill="#ff6c60">systems/GlobalHotkeySystem.ts</text>
</g>
<!-- scenes/EditorScene.ts&#45;&gt;systems/GlobalHotkeySystem.ts -->
<g id="edge77" class="edge">
<title>scenes/EditorScene.ts&#45;&gt;systems/GlobalHotkeySystem.ts</title>
<path fill="none" stroke="#757575" d="M536.05,-804.72C548.06,-806.18 560.37,-807.61 572,-808.84 635.23,-815.52 705.92,-821.61 763.52,-826.21"/>
<polygon fill="#757575" stroke="#757575" points="763.51,-829.71 773.75,-827.02 764.06,-822.74 763.51,-829.71"/>
</g>
<!-- systems/RenderSystem.ts -->
<g id="node56" class="node">
<title>systems/RenderSystem.ts</title>
<path fill="none" stroke="#c6c5fe" d="M1213.83,-886.34C1213.83,-886.34 1054.17,-886.34 1054.17,-886.34 1050.33,-886.34 1046.5,-882.51 1046.5,-878.68 1046.5,-878.68 1046.5,-871.01 1046.5,-871.01 1046.5,-867.18 1050.33,-863.34 1054.17,-863.34 1054.17,-863.34 1213.83,-863.34 1213.83,-863.34 1217.67,-863.34 1221.5,-867.18 1221.5,-871.01 1221.5,-871.01 1221.5,-878.68 1221.5,-878.68 1221.5,-882.51 1217.67,-886.34 1213.83,-886.34"/>
<text text-anchor="middle" x="1134" y="-871.14" font-family="Arial" font-size="14.00" fill="#c6c5fe">systems/RenderSystem.ts</text>
</g>
<!-- scenes/EditorScene.ts&#45;&gt;systems/RenderSystem.ts -->
<g id="edge78" class="edge">
<title>scenes/EditorScene.ts&#45;&gt;systems/RenderSystem.ts</title>
<path fill="none" stroke="#757575" d="M493,-806.48C514.89,-814.15 544.88,-823.85 572,-829.84 732.06,-865.2 923.26,-873.54 1036.05,-875.09"/>
<polygon fill="#757575" stroke="#757575" points="1036.34,-878.59 1046.38,-875.22 1036.42,-871.6 1036.34,-878.59"/>
</g>
<!-- scenes/GameScene.ts&#45;&gt;Scene.ts -->
<g id="edge79" class="edge">
<title>scenes/GameScene.ts&#45;&gt;Scene.ts</title>
<path fill="none" stroke="#757575" d="M662.44,-650.02C678.12,-622.22 720.87,-552 774,-510.84 871.87,-435.03 1017.16,-398.63 1089.21,-384.4"/>
<polygon fill="#757575" stroke="#757575" points="1090.13,-387.79 1099.29,-382.46 1088.81,-380.91 1090.13,-387.79"/>
</g>
<!-- scenes/GameScene.ts&#45;&gt;functions/initializeTileMatrix.ts -->
<g id="edge80" class="edge">
<title>scenes/GameScene.ts&#45;&gt;functions/initializeTileMatrix.ts</title>
<path fill="none" stroke="#757575" d="M732.23,-656.83C799.46,-653.87 899.87,-653.01 986,-666.84 1024.07,-672.96 1065.9,-686.78 1095.16,-697.68"/>
<polygon fill="#757575" stroke="#757575" points="1093.99,-700.98 1104.58,-701.26 1096.47,-694.44 1093.99,-700.98"/>
</g>
<!-- scenes/GameScene.ts&#45;&gt;services/DebugService.ts -->
<g id="edge81" class="edge">
<title>scenes/GameScene.ts&#45;&gt;services/DebugService.ts</title>
<path fill="none" stroke="#757575" d="M667.96,-650.16C688.1,-631.17 730.82,-593.72 774,-573.84 858.84,-534.79 964.24,-515.54 1038.84,-506.22"/>
<polygon fill="#757575" stroke="#757575" points="1039.65,-509.65 1049.15,-504.97 1038.8,-502.7 1039.65,-509.65"/>
</g>
<!-- scenes/GameScene.ts&#45;&gt;services/LoadingService.ts -->
<g id="edge82" class="edge">
<title>scenes/GameScene.ts&#45;&gt;services/LoadingService.ts</title>
<path fill="none" stroke="#757575" d="M700.88,-650.27C788.79,-627.6 983.41,-577.42 1078.53,-552.89"/>
<polygon fill="#757575" stroke="#757575" points="1079.44,-556.27 1088.24,-550.38 1077.69,-549.49 1079.44,-556.27"/>
</g>
<!-- scenes/GameScene.ts&#45;&gt;services/LogService.ts -->
<g id="edge83" class="edge">
<title>scenes/GameScene.ts&#45;&gt;services/LogService.ts</title>
<path fill="none" stroke="#757575" d="M657.85,-650.19C665.17,-607.3 695.66,-455.92 774,-362.84 791.8,-341.69 818.46,-325.56 840.46,-314.79"/>
<polygon fill="#757575" stroke="#757575" points="842.01,-317.93 849.57,-310.5 839.03,-311.59 842.01,-317.93"/>
</g>
<!-- scenes/GameScene.ts&#45;&gt;systems/CameraSystem.ts -->
<g id="edge86" class="edge">
<title>scenes/GameScene.ts&#45;&gt;systems/CameraSystem.ts</title>
<path fill="none" stroke="#757575" d="M659.31,-673.54C672.08,-718.21 720.16,-882.14 774,-1011.84 803.81,-1083.65 847.22,-1165.11 867.61,-1202.33"/>
<polygon fill="#757575" stroke="#757575" points="864.61,-1204.14 872.5,-1211.21 870.74,-1200.76 864.61,-1204.14"/>
</g>
<!-- scenes/GameScene.ts&#45;&gt;systems/EntityOperationSystem.ts -->
<g id="edge87" class="edge">
<title>scenes/GameScene.ts&#45;&gt;systems/EntityOperationSystem.ts</title>
<path fill="none" stroke="#757575" d="M687.73,-673.52C711.31,-681.9 744.37,-693.04 774,-700.84 866.89,-725.3 899.98,-700.11 986,-742.84 1005.17,-752.37 1002.75,-765.49 1022,-774.84 1025.86,-776.72 1029.88,-778.42 1033.99,-779.97"/>
<polygon fill="#757575" stroke="#757575" points="1033.15,-783.38 1043.75,-783.29 1035.41,-776.75 1033.15,-783.38"/>
</g>
<!-- scenes/GameScene.ts&#45;&gt;systems/GlobalHotkeySystem.ts -->
<g id="edge88" class="edge">
<title>scenes/GameScene.ts&#45;&gt;systems/GlobalHotkeySystem.ts</title>
<path fill="none" stroke="#757575" d="M667.05,-673.48C687.19,-694.34 731.71,-738.92 774,-770.84 797.75,-788.77 826.76,-806.15 848.27,-818.26"/>
<polygon fill="#757575" stroke="#757575" points="846.84,-821.47 857.28,-823.28 850.24,-815.35 846.84,-821.47"/>
</g>
<!-- scenes/GameScene.ts&#45;&gt;systems/RenderSystem.ts -->
<g id="edge89" class="edge">
<title>scenes/GameScene.ts&#45;&gt;systems/RenderSystem.ts</title>
<path fill="none" stroke="#757575" d="M672.19,-673.49C694.37,-689.1 735.83,-717.01 774,-735.84 864.17,-780.34 892.33,-778.29 986,-814.84 1023.6,-829.52 1066.29,-847.04 1095.94,-859.35"/>
<polygon fill="#757575" stroke="#757575" points="1094.89,-862.7 1105.47,-863.31 1097.58,-856.24 1094.89,-862.7"/>
</g>
<!-- systems/ActionSystem.ts -->
<g id="node57" class="node">
<title>systems/ActionSystem.ts</title>
<path fill="none" stroke="#c6c5fe" d="M956.33,-190.34C956.33,-190.34 803.67,-190.34 803.67,-190.34 799.83,-190.34 796,-186.51 796,-182.68 796,-182.68 796,-175.01 796,-175.01 796,-171.18 799.83,-167.34 803.67,-167.34 803.67,-167.34 956.33,-167.34 956.33,-167.34 960.17,-167.34 964,-171.18 964,-175.01 964,-175.01 964,-182.68 964,-182.68 964,-186.51 960.17,-190.34 956.33,-190.34"/>
<text text-anchor="middle" x="880" y="-175.14" font-family="Arial" font-size="14.00" fill="#c6c5fe">systems/ActionSystem.ts</text>
</g>
<!-- scenes/GameScene.ts&#45;&gt;systems/ActionSystem.ts -->
<g id="edge84" class="edge">
<title>scenes/GameScene.ts&#45;&gt;systems/ActionSystem.ts</title>
<path fill="none" stroke="#757575" d="M657.36,-650.28C663.54,-601.54 692.22,-409.31 774,-277.84 794.86,-244.31 829.85,-214.53 853.65,-196.61"/>
<polygon fill="#757575" stroke="#757575" points="855.89,-199.3 861.87,-190.55 851.74,-193.67 855.89,-199.3"/>
</g>
<!-- systems/BehaviorSystem.ts -->
<g id="node58" class="node">
<title>systems/BehaviorSystem.ts</title>
<path fill="none" stroke="#c6c5fe" d="M1218.33,-765.34C1218.33,-765.34 1049.67,-765.34 1049.67,-765.34 1045.83,-765.34 1042,-761.51 1042,-757.68 1042,-757.68 1042,-750.01 1042,-750.01 1042,-746.18 1045.83,-742.34 1049.67,-742.34 1049.67,-742.34 1218.33,-742.34 1218.33,-742.34 1222.17,-742.34 1226,-746.18 1226,-750.01 1226,-750.01 1226,-757.68 1226,-757.68 1226,-761.51 1222.17,-765.34 1218.33,-765.34"/>
<text text-anchor="middle" x="1134" y="-750.14" font-family="Arial" font-size="14.00" fill="#c6c5fe">systems/BehaviorSystem.ts</text>
</g>
<!-- scenes/GameScene.ts&#45;&gt;systems/BehaviorSystem.ts -->
<g id="edge85" class="edge">
<title>scenes/GameScene.ts&#45;&gt;systems/BehaviorSystem.ts</title>
<path fill="none" stroke="#757575" d="M732.21,-666.98C815.1,-673.4 941.7,-685.91 986,-704.84 1004.89,-712.92 1003.31,-725.31 1022,-733.84 1026.34,-735.82 1030.85,-737.61 1035.47,-739.21"/>
<polygon fill="#757575" stroke="#757575" points="1034.49,-742.58 1045.08,-742.27 1036.62,-735.91 1034.49,-742.58"/>
</g>
<!-- scenes/MenuScene.ts&#45;&gt;Input.ts -->
<g id="edge90" class="edge">
<title>scenes/MenuScene.ts&#45;&gt;Input.ts</title>
<path fill="none" stroke="#757575" d="M955.23,-986.95C1047.98,-983.52 1200.11,-983.09 1246,-1013.84 1276.38,-1034.21 1253.92,-1064.41 1282,-1087.84 1296.92,-1100.29 1317.39,-1106.8 1335.33,-1110.19"/>
<polygon fill="#757575" stroke="#757575" points="1334.83,-1113.65 1345.26,-1111.81 1335.96,-1106.75 1334.83,-1113.65"/>
</g>
<!-- scenes/MenuScene.ts&#45;&gt;Router.ts -->
<g id="edge91" class="edge">
<title>scenes/MenuScene.ts&#45;&gt;Router.ts</title>
<path fill="none" stroke="#757575" d="M828.85,-979.34C724.79,-955.12 478.16,-895.87 275,-832.84 252.89,-825.99 228.56,-817.3 208.84,-809.96"/>
<polygon fill="#757575" stroke="#757575" points="209.86,-806.61 199.27,-806.38 207.41,-813.17 209.86,-806.61"/>
</g>
<!-- scenes/MenuScene.ts&#45;&gt;Scene.ts -->
<g id="edge92" class="edge">
<title>scenes/MenuScene.ts&#45;&gt;Scene.ts</title>
<path fill="none" stroke="#757575" d="M894.27,-979.04C917.64,-957.33 965.59,-908.44 986,-855.84 1022.53,-761.7 956.17,-479.43 1022,-402.84 1038.35,-383.82 1065.72,-377.26 1089.19,-375.49"/>
<polygon fill="#757575" stroke="#757575" points="1089.49,-378.98 1099.3,-374.99 1089.14,-371.98 1089.49,-378.98"/>
</g>
<!-- scenes/MenuScene.ts&#45;&gt;constants.ts -->
<g id="edge94" class="edge">
<title>scenes/MenuScene.ts&#45;&gt;constants.ts</title>
<path fill="none" stroke="#757575" d="M914.42,-979.29C938.29,-969.24 969.07,-952.24 986,-926.84 1044.37,-839.29 961.38,-778.85 1022,-692.84 1036.8,-671.85 1061.32,-657.5 1083.56,-648.11"/>
<polygon fill="#757575" stroke="#757575" points="1084.92,-651.34 1092.92,-644.39 1082.34,-644.84 1084.92,-651.34"/>
</g>
<!-- scenes/MenuScene.ts&#45;&gt;entities.ts -->
<g id="edge95" class="edge">
<title>scenes/MenuScene.ts&#45;&gt;entities.ts</title>
<path fill="none" stroke="#757575" d="M904.07,-1002.42C931.68,-1016.01 979.52,-1038.74 1022,-1054.84 1135.05,-1097.69 1165.01,-1104.33 1282,-1134.84 1297.06,-1138.77 1313.64,-1142.52 1328.57,-1145.69"/>
<polygon fill="#757575" stroke="#757575" points="1328.11,-1149.16 1338.61,-1147.78 1329.54,-1142.31 1328.11,-1149.16"/>
</g>
<!-- scenes/MenuScene.ts&#45;&gt;components/LoadingState.ts -->
<g id="edge93" class="edge">
<title>scenes/MenuScene.ts&#45;&gt;components/LoadingState.ts</title>
<path fill="none" stroke="#757575" d="M894.24,-979.03C917.55,-957.29 965.43,-908.37 986,-855.84 1020.16,-768.62 958.7,-504.9 1022,-435.84 1090.29,-361.35 1164.05,-455.98 1246,-396.84 1273.41,-377.06 1255.51,-350.84 1282,-329.84 1286.42,-326.34 1291.29,-323.32 1296.42,-320.73"/>
<polygon fill="#757575" stroke="#757575" points="1298.18,-323.78 1305.88,-316.5 1295.33,-317.39 1298.18,-323.78"/>
</g>
<!-- scenes/MenuScene.ts&#45;&gt;guis/Button.ts -->
<g id="edge96" class="edge">
<title>scenes/MenuScene.ts&#45;&gt;guis/Button.ts</title>
<path fill="none" stroke="#757575" d="M948.53,-1002.37C987.84,-1009.08 1036.91,-1017.45 1074.56,-1023.87"/>
<polygon fill="#757575" stroke="#757575" points="1074.41,-1027.4 1084.86,-1025.63 1075.59,-1020.5 1074.41,-1027.4"/>
</g>
<!-- scenes/MenuScene.ts&#45;&gt;guis/Menu.ts -->
<g id="edge97" class="edge">
<title>scenes/MenuScene.ts&#45;&gt;guis/Menu.ts</title>
<path fill="none" stroke="#757575" d="M887.74,-1002.37C921.97,-1060.91 1076.64,-1325.45 1121.05,-1401.4"/>
<polygon fill="#757575" stroke="#757575" points="1118.05,-1403.21 1126.12,-1410.08 1124.09,-1399.68 1118.05,-1403.21"/>
</g>
<!-- scenes/MenuScene.ts&#45;&gt;services/LoadingService.ts -->
<g id="edge98" class="edge">
<title>scenes/MenuScene.ts&#45;&gt;services/LoadingService.ts</title>
<path fill="none" stroke="#757575" d="M893.56,-979.24C916.23,-957.47 963.7,-907.99 986,-855.84 1028.92,-755.46 963.55,-705.06 1022,-612.84 1038.93,-586.13 1069.38,-566.86 1094.11,-554.69"/>
<polygon fill="#757575" stroke="#757575" points="1095.72,-557.81 1103.27,-550.38 1092.73,-551.48 1095.72,-557.81"/>
</g>
<!-- scenes/MenuScene.ts&#45;&gt;systems/EntityOperationSystem.ts -->
<g id="edge99" class="edge">
<title>scenes/MenuScene.ts&#45;&gt;systems/EntityOperationSystem.ts</title>
<path fill="none" stroke="#757575" d="M955.24,-983.23C966.68,-979.2 977.49,-973.33 986,-964.84 1032.7,-918.25 975.01,-867.14 1022,-820.84 1025.74,-817.16 1029.89,-813.96 1034.33,-811.19"/>
<polygon fill="#757575" stroke="#757575" points="1036.1,-814.21 1043.2,-806.36 1032.75,-808.07 1036.1,-814.21"/>
</g>
<!-- scenes/MenuScene.ts&#45;&gt;systems/RenderSystem.ts -->
<g id="edge100" class="edge">
<title>scenes/MenuScene.ts&#45;&gt;systems/RenderSystem.ts</title>
<path fill="none" stroke="#757575" d="M955.01,-980.99C966.14,-977.19 976.92,-971.98 986,-964.84 1013.19,-943.46 994.22,-916.46 1022,-895.84 1026.58,-892.45 1031.55,-889.55 1036.76,-887.09"/>
<polygon fill="#757575" stroke="#757575" points="1038.47,-890.16 1046.37,-883.1 1035.79,-883.7 1038.47,-890.16"/>
</g>
<!-- services/DebugService.ts&#45;&gt;Log.ts -->
<g id="edge101" class="edge">
<title>services/DebugService.ts&#45;&gt;Log.ts</title>
<path fill="none" stroke="#757575" d="M1218.74,-493.46C1228.91,-489.81 1238.38,-484.48 1246,-476.84 1307.62,-415.06 1233.1,-356.11 1282,-283.84 1295.88,-263.34 1319.51,-248.48 1339.48,-238.81"/>
<polygon fill="#757575" stroke="#757575" points="1341.01,-241.95 1348.64,-234.6 1338.09,-235.59 1341.01,-241.95"/>
</g>
<!-- services/DebugService.ts&#45;&gt;Query.ts -->
<g id="edge102" class="edge">
<title>services/DebugService.ts&#45;&gt;Query.ts</title>
<path fill="none" stroke="#757575" d="M1218.56,-501.2C1228.83,-504.79 1238.37,-510.11 1246,-517.84 1314.37,-587.11 1214.81,-663.44 1282,-733.84 1294.68,-747.13 1313.88,-752.64 1331.56,-754.64"/>
<polygon fill="#757575" stroke="#757575" points="1331.48,-758.14 1341.73,-755.43 1332.03,-751.16 1331.48,-758.14"/>
</g>
<!-- services/DebugService.ts&#45;&gt;components/LayerId.ts -->
<g id="edge103" class="edge">
<title>services/DebugService.ts&#45;&gt;components/LayerId.ts</title>
<path fill="none" stroke="#757575" d="M1218.57,-501.56C1228.77,-505.11 1238.29,-510.32 1246,-517.84 1302.84,-573.3 1226.1,-636.44 1282,-692.84 1284.52,-695.38 1287.27,-697.64 1290.21,-699.64"/>
<polygon fill="#757575" stroke="#757575" points="1288.5,-702.69 1298.92,-704.61 1291.98,-696.61 1288.5,-702.69"/>
</g>
<!-- services/DebugService.ts&#45;&gt;components/PositionX.ts -->
<g id="edge104" class="edge">
<title>services/DebugService.ts&#45;&gt;components/PositionX.ts</title>
<path fill="none" stroke="#757575" d="M1218.67,-486.96C1228.12,-484.29 1237.43,-480.97 1246,-476.84 1265.02,-467.68 1263.09,-455.24 1282,-445.84 1285.74,-443.98 1289.66,-442.29 1293.67,-440.76"/>
<polygon fill="#757575" stroke="#757575" points="1294.87,-444.05 1303.17,-437.46 1292.58,-437.44 1294.87,-444.05"/>
</g>
<!-- services/DebugService.ts&#45;&gt;components/PositionY.ts -->
<g id="edge105" class="edge">
<title>services/DebugService.ts&#45;&gt;components/PositionY.ts</title>
<path fill="none" stroke="#757575" d="M1218.6,-487.05C1239.62,-484.33 1262.29,-481.4 1283.67,-478.64"/>
<polygon fill="#757575" stroke="#757575" points="1284.25,-482.1 1293.72,-477.34 1283.35,-475.15 1284.25,-482.1"/>
</g>
<!-- services/LoadingService.ts&#45;&gt;Query.ts -->
<g id="edge106" class="edge">
<title>services/LoadingService.ts&#45;&gt;Query.ts</title>
<path fill="none" stroke="#757575" d="M1162.27,-550.36C1187.55,-562.39 1224.4,-583.59 1246,-612.84 1279.33,-657.98 1240.82,-695.73 1282,-733.84 1295.37,-746.22 1314.5,-751.65 1331.93,-753.81"/>
<polygon fill="#757575" stroke="#757575" points="1331.66,-757.3 1341.94,-754.73 1332.3,-750.33 1331.66,-757.3"/>
</g>
<!-- services/LoadingService.ts&#45;&gt;components/LoadingState.ts -->
<g id="edge107" class="edge">
<title>services/LoadingService.ts&#45;&gt;components/LoadingState.ts</title>
<path fill="none" stroke="#757575" d="M1222.57,-532.57C1231.22,-529.07 1239.27,-524.29 1246,-517.84 1296.75,-469.21 1241.3,-421.15 1282,-363.84 1295.51,-344.82 1317.27,-330.53 1336.35,-320.78"/>
<polygon fill="#757575" stroke="#757575" points="1337.99,-323.87 1345.45,-316.35 1334.93,-317.58 1337.99,-323.87"/>
</g>
<!-- services/LogService.ts&#45;&gt;Log.ts -->
<g id="edge108" class="edge">
<title>services/LogService.ts&#45;&gt;Log.ts</title>
<path fill="none" stroke="#757575" d="M956.01,-305.66C1031.46,-309.88 1150.06,-309.24 1246,-275.84 1264.4,-269.44 1264.37,-259.14 1282,-250.84 1300.01,-242.37 1321.31,-236.17 1338.98,-231.95"/>
<polygon fill="#757575" stroke="#757575" points="1339.94,-235.32 1348.91,-229.69 1338.39,-228.49 1339.94,-235.32"/>
</g>
<!-- systems/CameraSystem.ts&#45;&gt;units/convert.ts -->
<g id="edge117" class="edge">
<title>systems/CameraSystem.ts&#45;&gt;units/convert.ts</title>
<path fill="none" stroke="#757575" d="M959.99,-1234.35C1100.39,-1254.79 1390.61,-1297.05 1518.56,-1315.68"/>
<polygon fill="#757575" stroke="#757575" points="1518.2,-1319.16 1528.6,-1317.14 1519.2,-1312.24 1518.2,-1319.16"/>
</g>
<!-- systems/CameraSystem.ts&#45;&gt;Vec2.ts -->
<g id="edge114" class="edge">
<title>systems/CameraSystem.ts&#45;&gt;Vec2.ts</title>
<path fill="none" stroke="#757575" d="M969.14,-1211.3C1011.4,-1205.77 1059.93,-1199.41 1093.14,-1195.06"/>
<polygon fill="#757575" stroke="#757575" points="1093.9,-1198.49 1103.36,-1193.73 1092.99,-1191.55 1093.9,-1198.49"/>
</g>
<!-- systems/CameraSystem.ts&#45;&gt;entities.ts -->
<g id="edge115" class="edge">
<title>systems/CameraSystem.ts&#45;&gt;entities.ts</title>
<path fill="none" stroke="#757575" d="M969.56,-1229.12C1044.21,-1232.24 1153.37,-1231.68 1246,-1210.84 1281.91,-1202.77 1320.26,-1184.79 1345.72,-1171.36"/>
<polygon fill="#757575" stroke="#757575" points="1347.67,-1174.29 1354.82,-1166.47 1344.35,-1168.13 1347.67,-1174.29"/>
</g>
<!-- systems/CameraSystem.ts&#45;&gt;systems/RenderSystem.ts -->
<g id="edge116" class="edge">
<title>systems/CameraSystem.ts&#45;&gt;systems/RenderSystem.ts</title>
<path fill="none" stroke="#757575" d="M889.71,-1210.98C909.63,-1183.29 958.92,-1111.68 986,-1044.84 1011.59,-981.7 972.64,-942.8 1022,-895.84 1026.46,-891.6 1031.5,-888.08 1036.9,-885.18"/>
<polygon fill="#757575" stroke="#757575" points="1038.69,-888.21 1046.3,-880.84 1035.76,-881.85 1038.69,-888.21"/>
</g>
<!-- systems/EditorSystem.ts&#45;&gt;util.ts -->
<g id="edge128" class="edge">
<title>systems/EditorSystem.ts&#45;&gt;util.ts</title>
<path fill="none" stroke="#757575" d="M661.4,-1118.75C675.62,-1148.9 717,-1229.13 774,-1274.84 853.58,-1338.67 912.81,-1291.78 986,-1362.84 1013.97,-1390.01 989.55,-1421.23 1022,-1442.84 1132.05,-1516.13 1559.56,-1478.87 1687.58,-1465.78"/>
<polygon fill="#757575" stroke="#757575" points="1688.07,-1469.25 1697.65,-1464.73 1687.35,-1462.28 1688.07,-1469.25"/>
</g>
<!-- systems/EditorSystem.ts&#45;&gt;Input.ts -->
<g id="edge118" class="edge">
<title>systems/EditorSystem.ts&#45;&gt;Input.ts</title>
<path fill="none" stroke="#757575" d="M738.13,-1107.64C892.66,-1109.15 1221.37,-1112.35 1335.21,-1113.46"/>
<polygon fill="#757575" stroke="#757575" points="1335.2,-1116.96 1345.23,-1113.55 1335.26,-1109.96 1335.2,-1116.96"/>
</g>
<!-- systems/EditorSystem.ts&#45;&gt;Query.ts -->
<g id="edge119" class="edge">
<title>systems/EditorSystem.ts&#45;&gt;Query.ts</title>
<path fill="none" stroke="#757575" d="M705.79,-1095.25C716.84,-1091.55 728.17,-1086.82 738,-1080.84 757.33,-1069.09 753.83,-1055.09 774,-1044.84 859.02,-1001.67 916.22,-1076.84 986,-1011.84 1038.39,-963.05 970.06,-904.11 1022,-854.84 1095.32,-785.31 1157.87,-865.29 1246,-815.84 1267.15,-803.98 1261.15,-787.23 1282,-774.84 1296.97,-765.95 1315.33,-760.82 1331.78,-757.86"/>
<polygon fill="#757575" stroke="#757575" points="1332.39,-761.31 1341.72,-756.29 1331.3,-754.39 1332.39,-761.31"/>
</g>
<!-- systems/EditorSystem.ts&#45;&gt;units/convert.ts -->
<g id="edge127" class="edge">
<title>systems/EditorSystem.ts&#45;&gt;units/convert.ts</title>
<path fill="none" stroke="#757575" d="M662.08,-1118.55C676.97,-1145.87 718.16,-1213.81 774,-1243.84 824.11,-1270.8 1225.33,-1303.71 1282,-1308.84 1363.62,-1316.24 1458.09,-1320.59 1518.76,-1322.84"/>
<polygon fill="#757575" stroke="#757575" points="1518.82,-1326.35 1528.94,-1323.21 1519.07,-1319.35 1518.82,-1326.35"/>
</g>
<!-- systems/EditorSystem.ts&#45;&gt;Vec2.ts -->
<g id="edge120" class="edge">
<title>systems/EditorSystem.ts&#45;&gt;Vec2.ts</title>
<path fill="none" stroke="#757575" d="M676.57,-1118.41C699.54,-1130.73 738.22,-1149.68 774,-1158.84 887.04,-1187.78 1025.94,-1191.01 1093,-1190.63"/>
<polygon fill="#757575" stroke="#757575" points="1093.17,-1194.13 1103.13,-1190.54 1093.1,-1187.13 1093.17,-1194.13"/>
</g>
<!-- systems/EditorSystem.ts&#45;&gt;behaviors/CursorBehavior.ts -->
<g id="edge121" class="edge">
<title>systems/EditorSystem.ts&#45;&gt;behaviors/CursorBehavior.ts</title>
<path fill="none" stroke="#757575" d="M738.1,-1096.47C821.18,-1085.09 943.28,-1065.64 986,-1044.84 987.86,-1043.94 1072.23,-969.52 1112.29,-934.14"/>
<polygon fill="#757575" stroke="#757575" points="1114.72,-936.66 1119.9,-927.42 1110.09,-931.42 1114.72,-936.66"/>
</g>
<!-- systems/EditorSystem.ts&#45;&gt;constants.ts -->
<g id="edge123" class="edge">
<title>systems/EditorSystem.ts&#45;&gt;constants.ts</title>
<path fill="none" stroke="#757575" d="M661.08,-1095.15C674.83,-1064.75 715.74,-982.48 774,-936.84 853.4,-874.64 921.54,-933.42 986,-855.84 1042.88,-787.39 960.64,-723.31 1022,-658.84 1036.72,-643.38 1058.74,-636.33 1079.29,-633.35"/>
<polygon fill="#757575" stroke="#757575" points="1079.7,-636.83 1089.23,-632.2 1078.89,-629.88 1079.7,-636.83"/>
</g>
<!-- systems/EditorSystem.ts&#45;&gt;entities.ts -->
<g id="edge124" class="edge">
<title>systems/EditorSystem.ts&#45;&gt;entities.ts</title>
<path fill="none" stroke="#757575" d="M734.29,-1118.37C747.52,-1120.06 761.14,-1121.63 774,-1122.84 980.22,-1142.28 1227.44,-1150.8 1328.51,-1153.66"/>
<polygon fill="#757575" stroke="#757575" points="1328.59,-1157.16 1338.68,-1153.94 1328.78,-1150.17 1328.59,-1157.16"/>
</g>
<!-- systems/EditorSystem.ts&#45;&gt;components/LayerId.ts -->
<g id="edge122" class="edge">
<title>systems/EditorSystem.ts&#45;&gt;components/LayerId.ts</title>
<path fill="none" stroke="#757575" d="M662.9,-1095C678.92,-1068.57 721.3,-1004.48 774,-970.84 856.64,-918.09 920.8,-983.07 986,-909.84 1051.01,-836.83 947.43,-756.06 1022,-692.84 1064.27,-657.01 1222.49,-681.67 1312.09,-699.32"/>
<polygon fill="#757575" stroke="#757575" points="1311.64,-702.8 1322.13,-701.32 1313.01,-695.93 1311.64,-702.8"/>
</g>
<!-- systems/EditorSystem.ts&#45;&gt;functions/Client.ts -->
<g id="edge125" class="edge">
<title>systems/EditorSystem.ts&#45;&gt;functions/Client.ts</title>
<path fill="none" stroke="#757575" d="M659.53,-1095.24C672.02,-1054.96 716.5,-918 774,-814.84 864.72,-652.1 863.94,-575.5 1022,-476.84 1034.03,-469.33 1048.14,-464.47 1062.18,-461.36"/>
<polygon fill="#757575" stroke="#757575" points="1063.21,-464.73 1072.37,-459.4 1061.89,-457.86 1063.21,-464.73"/>
</g>
<!-- systems/EditorSystem.ts&#45;&gt;systems/CameraSystem.ts -->
<g id="edge126" class="edge">
<title>systems/EditorSystem.ts&#45;&gt;systems/CameraSystem.ts</title>
<path fill="none" stroke="#757575" d="M671,-1118.54C701.49,-1142.28 768.28,-1194.1 774,-1196.84 783.66,-1201.48 794.23,-1205.33 804.82,-1208.53"/>
<polygon fill="#757575" stroke="#757575" points="803.95,-1211.93 814.53,-1211.29 805.86,-1205.19 803.95,-1211.93"/>
</g>
<!-- systems/EntityOperationSystem.ts&#45;&gt;Error.ts -->
<g id="edge129" class="edge">
<title>systems/EntityOperationSystem.ts&#45;&gt;Error.ts</title>
<path fill="none" stroke="#757575" d="M1193.58,-806.42C1315.02,-828.99 1588.75,-871.96 1659,-815.84 1700.8,-782.45 1717.71,-611.56 1722.48,-550.54"/>
<polygon fill="#757575" stroke="#757575" points="1725.98,-550.71 1723.23,-540.48 1719,-550.19 1725.98,-550.71"/>
</g>
<!-- systems/EntityOperationSystem.ts&#45;&gt;Query.ts -->
<g id="edge130" class="edge">
<title>systems/EntityOperationSystem.ts&#45;&gt;Query.ts</title>
<path fill="none" stroke="#757575" d="M1202.49,-783.31C1243.88,-776.24 1295.65,-767.4 1331.63,-761.25"/>
<polygon fill="#757575" stroke="#757575" points="1332.53,-764.65 1341.79,-759.52 1331.35,-757.75 1332.53,-764.65"/>
</g>
<!-- systems/EntityOperationSystem.ts&#45;&gt;Tile.ts -->
<g id="edge131" class="edge">
<title>systems/EntityOperationSystem.ts&#45;&gt;Tile.ts</title>
<path fill="none" stroke="#757575" d="M1164.32,-806.4C1193.82,-817.84 1240.73,-835.52 1282,-848.84 1300.67,-854.87 1321.71,-860.82 1339.04,-865.51"/>
<polygon fill="#757575" stroke="#757575" points="1338.21,-868.91 1348.78,-868.11 1340.02,-862.15 1338.21,-868.91"/>
</g>
<!-- systems/GlobalHotkeySystem.ts&#45;&gt;Input.ts -->
<g id="edge132" class="edge">
<title>systems/GlobalHotkeySystem.ts&#45;&gt;Input.ts</title>
<path fill="none" stroke="#757575" d="M893.06,-846.44C916.09,-867.9 968.8,-913.72 1022,-936.84 1115.04,-977.3 1169.73,-913.94 1246,-980.84 1283.72,-1013.93 1245.61,-1053.3 1282,-1087.84 1296.19,-1101.32 1316.78,-1107.91 1334.98,-1111.1"/>
<polygon fill="#757575" stroke="#757575" points="1334.67,-1114.59 1345.07,-1112.57 1335.68,-1107.66 1334.67,-1114.59"/>
</g>
<!-- systems/GlobalHotkeySystem.ts&#45;&gt;Router.ts -->
<g id="edge133" class="edge">
<title>systems/GlobalHotkeySystem.ts&#45;&gt;Router.ts</title>
<path fill="none" stroke="#757575" d="M773.81,-837.27C652.95,-838.73 448.91,-837.13 275,-815.84 254.98,-813.39 233.08,-809.27 214.44,-805.33"/>
<polygon fill="#757575" stroke="#757575" points="214.97,-801.86 204.45,-803.17 213.49,-808.7 214.97,-801.86"/>
</g>
<!-- systems/GlobalHotkeySystem.ts&#45;&gt;constants.ts -->
<g id="edge134" class="edge">
<title>systems/GlobalHotkeySystem.ts&#45;&gt;constants.ts</title>
<path fill="none" stroke="#757575" d="M886.75,-823.18C903.09,-791.32 953.12,-702.29 1022,-658.84 1039.03,-648.1 1060.05,-641.79 1079.2,-638.09"/>
<polygon fill="#757575" stroke="#757575" points="1080.06,-641.49 1089.31,-636.33 1078.86,-634.6 1080.06,-641.49"/>
</g>
<!-- systems/RenderSystem.ts&#45;&gt;Error.ts -->
<g id="edge135" class="edge">
<title>systems/RenderSystem.ts&#45;&gt;Error.ts</title>
<path fill="none" stroke="#757575" d="M1201.38,-886.36C1226.54,-890.19 1255.51,-893.96 1282,-895.84 1365.57,-901.78 1594.8,-949.67 1659,-895.84 1712.3,-851.15 1721.92,-622.67 1723.63,-550.63"/>
<polygon fill="#757575" stroke="#757575" points="1727.14,-550.54 1723.85,-540.47 1720.14,-550.39 1727.14,-550.54"/>
</g>
<!-- systems/RenderSystem.ts&#45;&gt;Query.ts -->
<g id="edge136" class="edge">
<title>systems/RenderSystem.ts&#45;&gt;Query.ts</title>
<path fill="none" stroke="#757575" d="M1220.21,-863.32C1229.5,-859.68 1238.35,-854.96 1246,-848.84 1274.58,-826.02 1253.33,-797.56 1282,-774.84 1295.97,-763.78 1314.63,-758.3 1331.58,-755.68"/>
<polygon fill="#757575" stroke="#757575" points="1332.36,-759.11 1341.85,-754.39 1331.49,-752.16 1332.36,-759.11"/>
</g>
<!-- systems/RenderSystem.ts&#45;&gt;units/convert.ts -->
<g id="edge143" class="edge">
<title>systems/RenderSystem.ts&#45;&gt;units/convert.ts</title>
<path fill="none" stroke="#757575" d="M1221.64,-881.31C1230.57,-884.76 1238.94,-889.47 1246,-895.84 1287.65,-933.44 1244.35,-975.25 1282,-1016.84 1342.59,-1083.79 1404.24,-1031.97 1470,-1093.84 1533.97,-1154.03 1565.56,-1258.6 1576.68,-1303.43"/>
<polygon fill="#757575" stroke="#757575" points="1573.3,-1304.33 1579.03,-1313.24 1580.11,-1302.71 1573.3,-1304.33"/>
</g>
<!-- systems/RenderSystem.ts&#45;&gt;entities.ts -->
<g id="edge141" class="edge">
<title>systems/RenderSystem.ts&#45;&gt;entities.ts</title>
<path fill="none" stroke="#757575" d="M1221.74,-880.03C1230.82,-883.68 1239.2,-888.78 1246,-895.84 1320.52,-973.21 1208.45,-1056.56 1282,-1134.84 1293.89,-1147.5 1311.71,-1153.14 1328.58,-1155.38"/>
<polygon fill="#757575" stroke="#757575" points="1328.61,-1158.9 1338.9,-1156.37 1329.28,-1151.93 1328.61,-1158.9"/>
</g>
<!-- systems/RenderSystem.ts&#45;&gt;components/Animation.ts -->
<g id="edge137" class="edge">
<title>systems/RenderSystem.ts&#45;&gt;components/Animation.ts</title>
<path fill="none" stroke="#757575" d="M1172.95,-863.28C1197.1,-854.07 1227.26,-838.86 1246,-815.84 1281.97,-771.68 1240.48,-731.84 1282,-692.84 1283.49,-691.44 1285.06,-690.13 1286.69,-688.89"/>
<polygon fill="#757575" stroke="#757575" points="1288.77,-691.72 1295.3,-683.37 1284.99,-685.82 1288.77,-691.72"/>
</g>
<!-- systems/RenderSystem.ts&#45;&gt;components/LayerId.ts -->
<g id="edge138" class="edge">
<title>systems/RenderSystem.ts&#45;&gt;components/LayerId.ts</title>
<path fill="none" stroke="#757575" d="M1169.92,-863.28C1193.97,-853.79 1225.22,-838.24 1246,-815.84 1273.07,-786.67 1251.29,-759.17 1282,-733.84 1284.41,-731.85 1286.98,-730.04 1289.65,-728.4"/>
<polygon fill="#757575" stroke="#757575" points="1291.36,-731.46 1298.55,-723.68 1288.08,-725.27 1291.36,-731.46"/>
</g>
<!-- systems/RenderSystem.ts&#45;&gt;components/LoadingState.ts -->
<g id="edge139" class="edge">
<title>systems/RenderSystem.ts&#45;&gt;components/LoadingState.ts</title>
<path fill="none" stroke="#757575" d="M1177.88,-863.27C1202.05,-854.41 1230.43,-839.56 1246,-815.84 1301.29,-731.61 1229.98,-450.14 1282,-363.84 1293.71,-344.42 1314.53,-330.33 1333.5,-320.81"/>
<polygon fill="#757575" stroke="#757575" points="1335.08,-323.93 1342.62,-316.49 1332.08,-317.6 1335.08,-323.93"/>
</g>
<!-- systems/RenderSystem.ts&#45;&gt;components/Sprite.ts -->
<g id="edge140" class="edge">
<title>systems/RenderSystem.ts&#45;&gt;components/Sprite.ts</title>
<path fill="none" stroke="#757575" d="M1221.67,-882.57C1230.44,-885.82 1238.76,-890.14 1246,-895.84 1276.62,-919.98 1251.68,-951.33 1282,-975.84 1285.81,-978.93 1289.99,-981.56 1294.4,-983.82"/>
<polygon fill="#757575" stroke="#757575" points="1293.17,-987.1 1303.73,-987.92 1295.99,-980.69 1293.17,-987.1"/>
</g>
<!-- systems/RenderSystem.ts&#45;&gt;functions/PixiHelpers.ts -->
<g id="edge142" class="edge">
<title>systems/RenderSystem.ts&#45;&gt;functions/PixiHelpers.ts</title>
<path fill="none" stroke="#757575" d="M1221.71,-886.33C1230.13,-888.89 1238.37,-892.02 1246,-895.84 1265.41,-905.57 1263.03,-918.3 1282,-928.84 1289.96,-933.27 1298.74,-936.99 1307.62,-940.1"/>
<polygon fill="#757575" stroke="#757575" points="1306.67,-943.47 1317.26,-943.24 1308.84,-936.82 1306.67,-943.47"/>
</g>
<!-- systems/ActionSystem.ts&#45;&gt;Error.ts -->
<g id="edge109" class="edge">
<title>systems/ActionSystem.ts&#45;&gt;Error.ts</title>
<path fill="none" stroke="#757575" d="M964.06,-171.59C1079.58,-163.91 1294.36,-158.42 1470,-203.84 1560.83,-227.33 1599.15,-225.6 1659,-297.84 1711.07,-360.71 1721.51,-462.67 1723.54,-507.05"/>
<polygon fill="#757575" stroke="#757575" points="1720.05,-507.4 1723.91,-517.27 1727.05,-507.15 1720.05,-507.4"/>
</g>
<!-- systems/ActionSystem.ts&#45;&gt;Rectangle.ts -->
<g id="edge110" class="edge">
<title>systems/ActionSystem.ts&#45;&gt;Rectangle.ts</title>
<path fill="none" stroke="#757575" d="M947.06,-190.36C960.35,-194.01 973.94,-198.74 986,-204.84 1004.58,-214.25 1003.16,-225.96 1022,-234.84 1039.29,-243 1059.5,-247.99 1077.9,-251.04"/>
<polygon fill="#757575" stroke="#757575" points="1077.5,-254.52 1087.91,-252.55 1078.54,-247.6 1077.5,-254.52"/>
</g>
<!-- systems/ActionSystem.ts&#45;&gt;functions/Array.ts -->
<g id="edge111" class="edge">
<title>systems/ActionSystem.ts&#45;&gt;functions/Array.ts</title>
<path fill="none" stroke="#757575" d="M961.77,-190.38C994.64,-195.08 1032.24,-200.45 1063.82,-204.96"/>
<polygon fill="#757575" stroke="#757575" points="1063.45,-208.44 1073.84,-206.39 1064.44,-201.51 1063.45,-208.44"/>
</g>
<!-- systems/BehaviorSystem.ts&#45;&gt;Query.ts -->
<g id="edge112" class="edge">
<title>systems/BehaviorSystem.ts&#45;&gt;Query.ts</title>
<path fill="none" stroke="#757575" d="M1226.08,-753.84C1262.22,-753.84 1302.08,-753.84 1331.46,-753.84"/>
<polygon fill="#757575" stroke="#757575" points="1331.78,-757.34 1341.78,-753.84 1331.78,-750.34 1331.78,-757.34"/>
</g>
<!-- systems/BehaviorSystem.ts&#45;&gt;components/Behavior.ts -->
<g id="edge113" class="edge">
<title>systems/BehaviorSystem.ts&#45;&gt;components/Behavior.ts</title>
<path fill="none" stroke="#757575" d="M1202.49,-765.37C1232.01,-770.42 1266.82,-776.36 1297.4,-781.59"/>
<polygon fill="#757575" stroke="#757575" points="1297.15,-785.1 1307.6,-783.33 1298.33,-778.2 1297.15,-785.1"/>
</g>
</g>
</svg>
